<?xml version="1.0" standalone="no"?>
<!DOCTYPE svg PUBLIC "-//W3C//DTD SVG 1.1//EN" "http://www.w3.org/Graphics/SVG/1.1/DTD/svg11.dtd" >
<svg xmlns="http://www.w3.org/2000/svg" xmlns:xlink="http://www.w3.org/1999/xlink" version="1.1">
<metadata>
Created by FontForge 20170731 at Sun Nov  5 14:39:02 2017
 By Aleksey,,,
2009 published by Monotype GmbH
</metadata>
<defs>
<font id="GMVDINPro-CondMedium" horiz-adv-x="376" >
  <font-face 
    font-family="GMV DIN Pro Cond Medium"
    font-weight="500"
    font-stretch="condensed"
    units-per-em="1000"
    panose-1="2 11 6 6 2 1 1 1 1 2"
    ascent="764"
    descent="-236"
    x-height="518"
    cap-height="712"
    bbox="-133 -222 919 1068"
    underline-thickness="61"
    underline-position="-173"
    unicode-range="U+0020-FEFF"
  />
<missing-glyph horiz-adv-x="395" 
d="M338 0h-281v712h281v-712zM118 653v-594h159v594h-159z" />
    <glyph glyph-name=".notdef" horiz-adv-x="395" 
d="M338 0h-281v712h281v-712zM118 653v-594h159v594h-159z" />
    <glyph glyph-name=".null" horiz-adv-x="0" 
 />
    <glyph glyph-name="nonmarkingreturn" horiz-adv-x="187" 
 />
    <glyph glyph-name="space" unicode=" " horiz-adv-x="187" 
 />
    <glyph glyph-name="exclam" unicode="!" horiz-adv-x="242" 
d="M174 193h-81v519h81v-519zM183 0h-99v99h99v-99z" />
    <glyph glyph-name="quotedbl" unicode="&#x22;" horiz-adv-x="370" 
d="M315 520h-84v192h84v-192zM139 520h-84v192h84v-192z" />
    <glyph glyph-name="numbersign" unicode="#" horiz-adv-x="546" 
d="M428 512h71v-76h-82l-19 -145h72v-76h-84l-29 -215h-82l29 215h-105l-29 -215h-82l29 215h-70v76h82l19 145h-72v76h83l27 200h83l-27 -200h104l27 200h83zM230 436l-19 -145h104l20 145h-105z" />
    <glyph glyph-name="dollar" unicode="$" horiz-adv-x="434" 
d="M255 716q55 -8 87 -39q27 -26 37 -61.5t10 -84.5h-86q0 29 -4 49t-18 37q-10 12 -26 19v-235l36 -15q30 -12 49.5 -28.5t31 -39.5t15.5 -54t4 -73q0 -56 -9.5 -92.5t-35.5 -62.5q-16 -16 -38.5 -26.5t-52.5 -14.5v-109h-77v108q-62 7 -96 42q-25 25 -34.5 59t-9.5 91h86
q0 -35 5 -56.5t19 -36.5q10 -12 30 -18v262l-38 16q-27 11 -46 25t-30 34.5t-16 49t-5 69.5q0 47 13.5 84t40.5 62q33 30 81 39v90h77v-90zM255 76q16 6 27 18q14 16 18.5 38t4.5 57q0 27 -2 46t-8 33t-15.5 24t-24.5 18v-234zM178 636q-14 -6 -24 -17q-25 -28 -25 -85
q0 -23 2 -39.5t7 -28.5t15 -21t25 -17v208z" />
    <glyph glyph-name="percent" unicode="%" horiz-adv-x="675" 
d="M247 0h-64l246 712h65zM511 305q-21 0 -33 -13t-12 -38v-151q0 -25 12 -38t33 -13t33 13t12 38v151q0 25 -12 38t-33 13zM511 366q48 0 80.5 -28.5t32.5 -81.5v-154q0 -53 -32.5 -81.5t-80.5 -28.5t-80.5 28.5t-32.5 81.5v154q0 53 32.5 81.5t80.5 28.5zM163 720
q48 0 80.5 -28.5t32.5 -81.5v-154q0 -53 -32.5 -81.5t-80.5 -28.5t-80 28.5t-32 81.5v154q0 53 32 81.5t80 28.5zM163 660q-44 0 -44 -51v-151q0 -51 44 -51q21 0 33 13t12 38v151q0 25 -12 38t-33 13z" />
    <glyph glyph-name="ampersand" unicode="&#x26;" horiz-adv-x="502" 
d="M206 719q70 0 104.5 -40.5t34.5 -101.5q0 -32 -6 -58t-18.5 -49.5t-31.5 -46t-44 -46.5l109 -165q15 29 25 70t13 80h72q-4 -61 -21.5 -119.5t-43.5 -101.5l90 -141h-87l-48 73q-32 -37 -66.5 -59t-88.5 -22q-35 0 -64.5 12t-51.5 35t-34.5 55.5t-12.5 74.5
q0 63 28.5 114t86.5 106q-21 30 -36.5 53t-25.5 44t-15 40.5t-5 41.5q0 69 37 110t100 41zM191 324q-40 -40 -58.5 -75t-18.5 -73q0 -47 24.5 -78.5t67.5 -31.5q32 0 57.5 19.5t49.5 51.5zM207 646q-32 0 -47.5 -23.5t-15.5 -52.5q0 -26 13.5 -54t46.5 -74q16 16 28 30.5
t20.5 30t13 33t4.5 39.5q0 32 -17.5 51.5t-45.5 19.5z" />
    <glyph glyph-name="quotesingle" unicode="'" horiz-adv-x="194" 
d="M139 520h-84v192h84v-192z" />
    <glyph glyph-name="parenleft" unicode="(" horiz-adv-x="248" 
d="M207 751q-16 -16 -30 -30.5t-24 -33.5q-15 -30 -15 -83v-496q0 -53 15 -83q10 -19 24 -33.5t30 -30.5l-55 -55q-22 22 -41 43.5t-32 44.5q-14 26 -18 53t-4 55v508q0 28 4 55t18 53q14 25 32.5 45.5t40.5 42.5z" />
    <glyph glyph-name="parenright" unicode=")" horiz-adv-x="248" 
d="M41 -39q16 16 30 30.5t24 33.5q15 30 15 83v496q0 53 -15 83q-10 19 -24 33.5t-30 30.5l55 55q22 -22 41 -43.5t32 -44.5q14 -26 18 -53t4 -55v-508q0 -28 -4 -55t-18 -53q-14 -25 -32.5 -45.5t-40.5 -42.5z" />
    <glyph glyph-name="asterisk" unicode="*" horiz-adv-x="393" 
d="M224 587l92 57l30 -53l-96 -50l96 -51l-30 -52l-92 56l3 -126h-61l4 126l-93 -56l-30 52l95 51l-95 50l30 53l93 -57l-4 126h61z" />
    <glyph glyph-name="plus" unicode="+" horiz-adv-x="444" 
d="M261 321h137v-77h-137v-137h-77v137h-138v77h138v138h77v-138z" />
    <glyph glyph-name="comma" unicode="," horiz-adv-x="202" 
d="M147 -56l-92 -68v224h92v-156z" />
    <glyph glyph-name="hyphen" unicode="-" horiz-adv-x="298" 
d="M247 244h-196v77h196v-77z" />
    <glyph glyph-name="period" unicode="." horiz-adv-x="209" 
d="M154 0h-99v99h99v-99z" />
    <glyph glyph-name="slash" unicode="/" horiz-adv-x="272" 
d="M83 -74h-79l185 860h79z" />
    <glyph glyph-name="zero" unicode="0" horiz-adv-x="381" 
d="M190 720q29 0 56.5 -10t46.5 -28q19 -19 29.5 -44.5t10.5 -65.5v-432q0 -40 -10.5 -65.5t-29.5 -44.5q-19 -18 -46.5 -28t-56.5 -10t-56 10t-46 28q-19 19 -29.5 44.5t-10.5 65.5v432q0 40 10.5 65.5t29.5 44.5q19 18 46 28t56 10zM190 647q-26 0 -43.5 -18t-17.5 -54
v-438q0 -36 17.5 -54t43.5 -18t44 18t18 54v438q0 36 -18 54t-44 18z" />
    <glyph glyph-name="one" unicode="1" horiz-adv-x="381" 
d="M252 0h-81v617l-104 -85v94l104 86h81v-712z" />
    <glyph glyph-name="two" unicode="2" horiz-adv-x="381" 
d="M194 720q29 0 55 -9t45 -27t30.5 -45t11.5 -67t-12 -83t-29 -78l-159 -338h200v-73h-287v68l174 369q12 26 22 60.5t10 77.5q0 36 -17.5 54t-43.5 18t-44 -18t-18 -54v-48h-81v46q0 39 10.5 64.5t29.5 44.5q19 18 46.5 28t56.5 10z" />
    <glyph glyph-name="three" unicode="3" horiz-adv-x="381" 
d="M188 720q63 0 99 -36q22 -22 31.5 -56t9.5 -92q0 -44 -3.5 -70t-14.5 -47q-14 -25 -40 -40q26 -17 41 -39q7 -12 11.5 -24t7 -28t3.5 -37t1 -51q0 -35 -1.5 -61t-6.5 -46t-13.5 -35t-21.5 -28q-19 -18 -46 -28t-57 -10q-29 0 -56.5 9.5t-45.5 28.5q-20 18 -30.5 43.5
t-10.5 66.5v45h81v-48q0 -36 18 -54t44 -18q28 0 43 19q11 13 16.5 37t5.5 79q0 33 -1 53.5t-3.5 34t-6.5 22t-10 15.5q-16 19 -44 19h-38v70h38q27 0 39 15q12 14 16 35.5t4 66.5t-4 66t-14 33q-15 17 -41 17q-25 0 -41 -17.5t-16 -52.5v-50h-81v46q0 39 10 65t29 45
q39 37 99 37z" />
    <glyph glyph-name="four" unicode="4" horiz-adv-x="381" 
d="M112 190h110v163h81v-163h50v-73h-50v-117h-81v117h-193v73l182 522h78z" />
    <glyph glyph-name="five" unicode="5" horiz-adv-x="381" 
d="M337 228q0 -38 -1.5 -66.5t-6 -51.5t-13 -41t-23.5 -35q-18 -20 -45.5 -31t-56.5 -11q-30 0 -57 9.5t-46 27.5q-19 19 -30 44.5t-11 66.5v40h81v-40q0 -39 18.5 -57t44.5 -18q27 0 44 21q6 7 9.5 17t6 26t3.5 39.5t1 59.5q0 33 -1 56t-3 39t-5.5 27t-9.5 19
q-17 24 -45 24q-26 0 -44.5 -19t-18.5 -53v-24h-77v415h277v-73h-202v-221q12 19 35 33q12 8 25 11t27 3q31 0 52 -10.5t37 -30.5q10 -12 16.5 -26.5t10.5 -37t6 -54.5t2 -78z" />
    <glyph glyph-name="six" unicode="6" horiz-adv-x="381" 
d="M162 415q22 17 51 17q55 0 87 -41q10 -12 16.5 -25t11 -33t6.5 -48.5t2 -71.5q0 -38 -2 -65t-6 -47t-10.5 -34.5t-16.5 -26.5q-19 -25 -48.5 -36.5t-62.5 -11.5q-36 0 -64 12.5t-45 35.5q-11 14 -18 29.5t-11 35.5t-5.5 46t-1.5 62q0 54 7.5 97.5t21.5 81.5l120 320h83z
M191 364q-29 0 -44 -19q-14 -16 -17.5 -46.5t-3.5 -84.5t3.5 -84t17.5 -46q15 -19 44 -19q27 0 44 19q14 16 17 46t3 84t-3.5 84t-16.5 47q-15 19 -44 19z" />
    <glyph glyph-name="seven" unicode="7" horiz-adv-x="381" 
d="M339 645l-188 -645h-82l188 639h-138v-105h-79v178h299v-67z" />
    <glyph glyph-name="eight" unicode="8" horiz-adv-x="381" 
d="M190 720q29 0 55 -9t44 -28q24 -24 33 -58t9 -92q0 -44 -4.5 -69.5t-15.5 -46.5q-13 -23 -39 -41q27 -17 41 -40q7 -11 11.5 -22.5t7 -27t3.5 -36.5t1 -51q0 -33 -1.5 -58t-6 -44.5t-13 -35.5t-22.5 -30q-18 -19 -45.5 -29t-56.5 -10q-30 0 -57 10t-46 29
q-14 14 -22.5 30t-13 35.5t-6 44.5t-1.5 58q0 30 1 51t3.5 36.5t7 27t11.5 22.5q14 23 41 40q-26 18 -39 41q-11 21 -15.5 46.5t-4.5 69.5q0 58 9 92t33 58q37 37 98 37zM191 342q-28 0 -44 -19q-6 -8 -10.5 -17t-6.5 -22.5t-3 -33t-1 -48.5q0 -26 1 -45t3.5 -33t6.5 -23.5
t10 -16.5q15 -19 44 -19q27 0 43 19q6 7 10 16.5t6.5 23.5t3.5 33t1 45q0 29 -1 48.5t-3 33t-6.5 22.5t-10.5 17q-16 19 -43 19zM191 647q-24 0 -39 -15q-11 -12 -16 -32.5t-5 -70.5t5 -71t16 -33q14 -14 39 -14q24 0 38 14q11 12 16 33t5 71t-5 70.5t-16 32.5
q-15 15 -38 15z" />
    <glyph glyph-name="nine" unicode="9" horiz-adv-x="381" 
d="M219 297q-22 -17 -51 -17q-55 0 -87 41q-10 12 -16.5 25t-11 33t-6.5 48.5t-2 71.5q0 38 2 65t6 47t10.5 34.5t16.5 26.5q19 25 48.5 36.5t62.5 11.5q36 0 64 -12.5t45 -35.5q11 -14 18 -29.5t11 -35.5t5.5 -46t1.5 -62q0 -54 -7.5 -97.5t-21.5 -81.5l-120 -320h-83z
M190 348q29 0 44 19q14 16 17.5 46.5t3.5 84.5t-3.5 84t-17.5 46q-15 19 -44 19q-27 0 -44 -19q-14 -16 -17 -46t-3 -84t3.5 -84t16.5 -47q15 -19 44 -19z" />
    <glyph glyph-name="colon" unicode=":" horiz-adv-x="242" 
d="M183 326h-99v99h99v-99zM183 0h-99v99h99v-99z" />
    <glyph glyph-name="semicolon" unicode=";" horiz-adv-x="242" 
d="M180 -56l-92 -68v224h92v-156zM183 326h-99v99h99v-99z" />
    <glyph glyph-name="less" unicode="&#x3c;" horiz-adv-x="381" 
d="M347 411l-216 -123l216 -123v-90l-313 182v61l313 183v-90z" />
    <glyph glyph-name="equal" unicode="=" horiz-adv-x="444" 
d="M398 320h-352v77h352v-77zM398 158h-352v77h352v-77z" />
    <glyph glyph-name="greater" unicode="&#x3e;" horiz-adv-x="381" 
d="M34 501l313 -183v-61l-313 -182v90l216 123l-216 123v90z" />
    <glyph glyph-name="question" unicode="?" horiz-adv-x="400" 
d="M208 718q69 0 110 -41q23 -23 33.5 -55.5t10.5 -86.5q0 -38 -6.5 -65.5t-24.5 -53.5l-59 -85q-22 -32 -22 -70v-68h-81v78q0 23 8 44.5t20 39.5l58 85q17 24 21.5 45.5t4.5 51.5q0 33 -5 53.5t-18 34.5q-18 20 -50 20q-29 0 -48 -19q-15 -16 -18.5 -38t-3.5 -44h-81
q0 42 9.5 75.5t33.5 56.5q20 19 46.5 30.5t61.5 11.5zM259 0h-99v99h99v-99z" />
    <glyph glyph-name="at" unicode="@" horiz-adv-x="558" 
d="M349 712q35 0 62 -10.5t46 -29.5q20 -20 31.5 -46t11.5 -68v-558h-78v40q-5 -9 -14.5 -18t-17.5 -14q-26 -16 -56 -16q-29 0 -50 9.5t-38 28.5q-16 17 -23.5 41t-7.5 66v205q0 42 7.5 66.5t23.5 41.5q17 19 38 28t50 9q17 0 30 -3.5t26 -11.5q7 -5 15.5 -12.5t13.5 -15.5
v106q0 47 -22.5 70t-63.5 23h-119q-40 0 -63 -23t-23 -70v-431q0 -26 7 -42.5t21 -30.5l-58 -57q-29 26 -40 56t-11 72v441q0 42 11.5 68t31.5 46q19 19 46 29.5t62 10.5h151zM358 415q-26 0 -44 -18t-18 -54v-206q0 -36 18 -54t44 -18t43.5 18t17.5 54v206q0 36 -17.5 54
t-43.5 18z" />
    <glyph glyph-name="A" unicode="A" horiz-adv-x="425" 
d="M171 712h83l166 -712h-91l-34 168h-166l-34 -168h-90zM279 245l-67 328l-67 -328h134z" />
    <glyph glyph-name="B" unicode="B" horiz-adv-x="444" 
d="M217 712q48 0 78 -10t52 -33q12 -12 20 -25t13 -30t7 -38.5t2 -50.5q0 -38 -8 -69.5t-34 -57.5q-17 -17 -40 -27q12 -4 23.5 -11t20.5 -15q28 -27 35.5 -63t7.5 -82q0 -32 -2.5 -56t-8.5 -42.5t-14.5 -32.5t-20.5 -26q-22 -23 -52.5 -33t-78.5 -10h-153v712h153zM150 333
v-256h62q24 0 42 6t30 21t18 39.5t6 61.5q0 69 -24 98.5t-72 29.5h-62zM150 635v-228h63q46 0 68 26.5t22 87.5q0 65 -21.5 89.5t-68.5 24.5h-63z" />
    <glyph glyph-name="C" unicode="C" horiz-adv-x="423" 
d="M221 720q38 0 65 -11t48 -31q25 -24 37.5 -60.5t13.5 -80.5h-85q-1 23 -5.5 44t-17.5 37q-8 11 -22 18t-34 7q-21 0 -35.5 -7.5t-23.5 -19.5q-9 -13 -15 -31.5t-9 -48t-4 -73.5t-1 -107t1 -107t4 -73.5t9 -48t15 -31.5q9 -12 23.5 -19.5t35.5 -7.5q20 0 34 7t22 18
q12 16 17 37.5t6 44.5h85q-1 -45 -14.5 -83t-39.5 -62q-21 -19 -48 -29t-62 -10q-42 0 -72 14.5t-50 37.5q-18 20 -28 43.5t-15.5 58.5t-7 85.5t-1.5 124.5t1.5 124.5t7 85.5t15.5 58.5t28 43.5q20 23 50 37.5t72 14.5z" />
    <glyph glyph-name="D" unicode="D" horiz-adv-x="448" 
d="M228 712q44 0 73 -14t49 -36q17 -18 27 -41t15.5 -58t7 -85t1.5 -122t-1.5 -122t-7 -85t-15.5 -58t-27 -41q-20 -22 -49 -36t-73 -14h-164v712h164zM150 635v-558h75q21 0 36 7.5t25 19.5t16 30t9 47t3.5 71t0.5 104q0 61 -0.5 103.5t-3.5 71.5t-9 47t-16 30t-25 19.5
t-36 7.5h-75z" />
    <glyph glyph-name="E" unicode="E" horiz-adv-x="380" 
d="M339 635h-189v-234h163v-77h-163v-247h189v-77h-275v712h275v-77z" />
    <glyph glyph-name="F" unicode="F" horiz-adv-x="375" 
d="M339 635h-189v-239h163v-77h-163v-319h-86v712h275v-77z" />
    <glyph glyph-name="G" unicode="G" horiz-adv-x="434" 
d="M221 720q38 0 66.5 -12t48.5 -32q25 -25 36.5 -61t12.5 -79h-85q0 18 -3.5 37t-12 34.5t-23.5 25.5t-40 10q-21 0 -35.5 -7.5t-23.5 -19.5q-9 -13 -15 -31.5t-9 -48t-4 -73.5t-1 -107t1 -107t4 -73.5t9 -48t15 -31.5q9 -12 23.5 -19.5t35.5 -7.5q38 0 58.5 27.5
t20.5 71.5v143h-79v71h165v-211q0 -45 -12.5 -78.5t-35 -56t-52.5 -33.5t-65 -11q-42 0 -72 14.5t-50 37.5q-17 19 -27.5 42.5t-16 58.5t-7 86t-1.5 125t1.5 124.5t7 86t16 59t27.5 42.5q20 23 50 37.5t72 14.5z" />
    <glyph glyph-name="H" unicode="H" horiz-adv-x="458" 
d="M394 0h-86v324h-158v-324h-86v712h86v-311h158v311h86v-712z" />
    <glyph glyph-name="I" unicode="I" horiz-adv-x="214" 
d="M150 0h-86v712h86v-712z" />
    <glyph glyph-name="J" unicode="J" horiz-adv-x="361" 
d="M303 170q0 -41 -11 -74t-34 -56q-47 -48 -126 -48q-40 0 -72 14t-55 40l61 57q11 -14 28.5 -24t37.5 -10q36 0 60.5 25.5t24.5 75.5v542h86v-542z" />
    <glyph glyph-name="K" unicode="K" horiz-adv-x="446" 
d="M266 418l165 -418h-93l-126 322l-62 -123v-199h-86v712h86v-361l172 361h88z" />
    <glyph glyph-name="L" unicode="L" horiz-adv-x="361" 
d="M150 77h189v-77h-275v712h86v-635z" />
    <glyph glyph-name="M" unicode="M" horiz-adv-x="577" 
d="M513 0h-86v507l-113 -333h-53l-111 325v-499h-86v712h81l144 -396l143 396h81v-712z" />
    <glyph glyph-name="N" unicode="N" horiz-adv-x="476" 
d="M412 0h-78l-184 487v-487h-86v712h80l182 -487v487h86v-712z" />
    <glyph glyph-name="O" unicode="O" horiz-adv-x="442" 
d="M221 -8q-42 0 -72 14.5t-50 37.5q-17 19 -27 42.5t-15.5 59t-7.5 86t-2 124.5t2 124.5t7.5 86t15.5 58.5t27 43q20 23 50 37.5t72 14.5t72.5 -14.5t50.5 -37.5q17 -19 27 -42.5t15.5 -59t7 -86t1.5 -124.5t-1.5 -125t-7 -86t-15.5 -58.5t-27 -42.5q-20 -23 -50.5 -37.5
t-72.5 -14.5zM221 69q21 0 35.5 7.5t22.5 19.5q10 13 16 31.5t9 48t4 73.5t1 107t-1 107t-4 73.5t-9 48t-16 31.5q-8 12 -22.5 19.5t-35.5 7.5t-35.5 -7.5t-22.5 -19.5q-10 -13 -16 -31.5t-9 -48t-4 -73.5t-1 -107t1 -107t4 -73.5t9 -48t16 -31.5q8 -12 22.5 -19.5
t35.5 -7.5z" />
    <glyph glyph-name="P" unicode="P" horiz-adv-x="435" 
d="M224 712q40 0 71.5 -10.5t53.5 -34.5t33 -64t11 -99t-11.5 -98.5t-33.5 -63.5t-53 -34.5t-71 -10.5h-74v-297h-86v712h160zM150 635v-261h71q44 0 65 29t21 101t-21 101.5t-65 29.5h-71z" />
    <glyph glyph-name="Q" unicode="Q" horiz-adv-x="442" 
d="M221 720q42 0 71.5 -14.5t50.5 -37.5q17 -19 27.5 -42.5t16 -59t7 -86t1.5 -124.5q0 -61 -1 -106t-4.5 -78t-9.5 -57t-16 -42l57 -48l-41 -49l-58 49q-19 -15 -44 -24t-57 -9q-42 0 -71.5 14.5t-50.5 37.5q-17 19 -27.5 42.5t-16 58.5t-7 86t-1.5 125t1.5 124.5t7 86
t16 59t27.5 42.5q21 23 50.5 37.5t71.5 14.5zM221 643q-21 0 -35.5 -7.5t-23.5 -19.5q-9 -13 -15 -31.5t-9 -48t-4 -73.5t-1 -107t1 -107t4 -73.5t9 -48t15 -31.5q9 -12 23.5 -19.5t35.5 -7.5q23 0 38 9l-48 40l41 48l43 -36q8 29 11 81t3 145q0 63 -1 107t-4.5 73.5
t-9.5 48t-15 31.5q-9 12 -23 19.5t-35 7.5z" />
    <glyph glyph-name="R" unicode="R" horiz-adv-x="455" 
d="M225 712q40 0 71.5 -10t53 -33t32.5 -62.5t11 -97.5q0 -75 -19.5 -119.5t-66.5 -66.5l109 -323h-91l-98 306h-77v-306h-86v712h161zM150 635v-253h76q25 0 40.5 9t24.5 26t12.5 40t3.5 52q0 28 -3.5 51.5t-12.5 40t-24.5 25.5t-40.5 9h-76z" />
    <glyph glyph-name="S" unicode="S" horiz-adv-x="420" 
d="M210 718q39 0 68.5 -10.5t49.5 -30.5q27 -26 37 -61.5t10 -84.5h-86q0 29 -4 49t-18 37q-19 24 -58 24q-19 0 -32.5 -6t-22.5 -16q-25 -28 -25 -85q0 -26 2.5 -44t10 -31t21 -22t34.5 -18l80 -33q30 -12 49.5 -28.5t31 -39.5t15.5 -54t4 -73q0 -56 -9 -92.5t-35 -62.5
q-20 -20 -51.5 -31.5t-74.5 -11.5q-82 0 -125 43q-25 25 -34.5 59t-9.5 91h86q0 -35 5 -56.5t19 -36.5q9 -10 24 -16t35 -6q22 0 36.5 6t24.5 17q14 16 18.5 38t4.5 57q0 31 -3 52t-10.5 35.5t-21 24.5t-35.5 19l-81 33q-27 11 -46 25t-30 34.5t-16 49t-5 69.5q0 47 13.5 84
t40.5 62q44 41 113 41z" />
    <glyph glyph-name="T" unicode="T" horiz-adv-x="367" 
d="M346 635h-119v-635h-86v635h-120v77h325v-77z" />
    <glyph glyph-name="U" unicode="U" horiz-adv-x="446" 
d="M388 163q0 -78 -46 -124q-45 -47 -119 -47q-73 0 -120 47q-45 47 -45 124v549h86v-546q0 -48 20.5 -72.5t58.5 -24.5q37 0 58 24.5t21 72.5v546h86v-549z" />
    <glyph glyph-name="V" unicode="V" horiz-adv-x="392" 
d="M98 712l98 -573l98 573h94l-148 -712h-88l-148 712h94z" />
    <glyph glyph-name="W" unicode="W" horiz-adv-x="652" 
d="M98 712l74 -573l108 573h92l109 -573l73 573h94l-123 -712h-87l-112 573l-111 -573h-87l-124 712h94z" />
    <glyph glyph-name="X" unicode="X" horiz-adv-x="403" 
d="M248 370l140 -370h-94l-93 282l-92 -282h-94l136 370l-125 342h94l81 -260l82 260h94z" />
    <glyph glyph-name="Y" unicode="Y" horiz-adv-x="353" 
d="M219 288v-288h-86v288l-131 424h94l80 -304l80 304h95z" />
    <glyph glyph-name="Z" unicode="Z" horiz-adv-x="349" 
d="M318 647l-197 -570h197v-77h-287v65l198 570h-185v77h274v-65z" />
    <glyph glyph-name="bracketleft" unicode="[" horiz-adv-x="258" 
d="M229 715h-91v-718h91v-71h-172v860h172v-71z" />
    <glyph glyph-name="backslash" unicode="\" horiz-adv-x="272" 
d="M268 -74h-79l-185 860h79z" />
    <glyph glyph-name="bracketright" unicode="]" horiz-adv-x="258" 
d="M29 -3h91v718h-91v71h172v-860h-172v71z" />
    <glyph glyph-name="asciicircum" unicode="^" horiz-adv-x="444" 
d="M392 436h-80l-90 199l-90 -199h-81l134 281h73z" />
    <glyph glyph-name="underscore" unicode="_" horiz-adv-x="444" 
d="M444 -144h-444v61h444v-61z" />
    <glyph glyph-name="grave" unicode="`" 
d="M226 586h-62l-81 135h74z" />
    <glyph glyph-name="a" unicode="a" horiz-adv-x="375" 
d="M180 526q65 0 101 -36q19 -20 30 -47t11 -67v-376h-77v46q-6 -11 -14 -20t-16 -15q-12 -9 -26 -14t-35 -5q-29 0 -50 9.5t-39 29.5q-15 17 -24 46t-9 70q0 36 11.5 66.5t34.5 50.5q20 17 44.5 26t65.5 9h53v82q0 74 -61 74q-14 0 -23 -4.5t-17 -12.5q-11 -11 -15 -25
t-4 -35h-81q0 30 8.5 58.5t31.5 51.5q17 17 43.5 27.5t56.5 10.5zM195 240q-19 0 -32.5 -4t-25.5 -15q-11 -11 -17.5 -30.5t-6.5 -40.5q0 -41 15.5 -64t47.5 -23q29 0 47 22.5t18 58.5v96h-46z" />
    <glyph glyph-name="b" unicode="b" horiz-adv-x="388" 
d="M138 482q6 8 13.5 15.5t15.5 12.5q23 16 56 16q27 0 48 -9t38 -29q26 -29 32 -83t6 -146q0 -46 -1 -81.5t-5 -63.5t-11.5 -48t-20.5 -35q-33 -39 -86 -39q-17 0 -30.5 4t-25.5 12q-8 5 -17 14.5t-14 17.5v-40h-79v712h81v-230zM200 454q-25 0 -42 -17q-10 -10 -15 -24
t-5 -35v-237q0 -40 20 -60q17 -17 42 -17q14 0 25 6t19 16q13 16 17 54.5t4 118.5q0 40 -1 69t-3 49.5t-6 33.5t-11 21q-8 10 -19 16t-25 6z" />
    <glyph glyph-name="c" unicode="c" horiz-adv-x="364" 
d="M41 259q0 79 7 133.5t31 85.5q20 26 48 37t61 11q32 0 56.5 -7.5t44.5 -27.5q24 -23 32.5 -53.5t9.5 -63.5h-81q0 16 -2.5 31.5t-13.5 28.5q-17 20 -45 20q-14 0 -26 -6t-20 -16q-14 -20 -17.5 -61t-3.5 -112t3.5 -112t17.5 -61q8 -10 20 -16t26 -6q28 0 45 20
q11 13 13.5 28.5t2.5 31.5h81q-1 -33 -9.5 -63.5t-32.5 -53.5q-20 -20 -44.5 -27.5t-56.5 -7.5q-33 0 -61 11t-48 37q-24 31 -31 85.5t-7 133.5z" />
    <glyph glyph-name="d" unicode="d" horiz-adv-x="388" 
d="M78 30q-13 15 -20.5 35.5t-11.5 48t-5 63.5t-1 82t1 82t5 63.5t11.5 48t20.5 35.5q17 20 38 29t48 9q33 0 56 -16q8 -5 15.5 -12.5t13.5 -15.5v230h81v-712h-79v40q-5 -8 -14 -17.5t-17 -14.5q-12 -8 -25.5 -12t-30.5 -4q-52 0 -86 38zM229 81q20 20 20 60v237
q0 21 -5 35t-15 24q-17 17 -42 17q-14 0 -25 -6t-19 -16q-7 -8 -11.5 -21t-6.5 -33.5t-3 -49.5t-1 -69q0 -80 4 -118.5t18 -54.5q8 -10 19 -16t25 -6q25 0 42 17z" />
    <glyph glyph-name="e" unicode="e" 
d="M122 240q0 -62 3.5 -99t17.5 -54q7 -10 18.5 -16t27.5 -6q14 0 25 4.5t21 15.5t13.5 26t3.5 34h81q-1 -36 -10.5 -64t-31.5 -51q-37 -38 -102 -38q-33 0 -58 9t-45 31q-29 31 -37.5 88.5t-8.5 138.5q0 82 8 139t37 88q20 22 45 31t57 9t57 -9t45 -31q29 -31 37.5 -90.5
t8.5 -155.5h-213zM253 301q0 57 -4 87t-16 44q-8 10 -18.5 15.5t-27.5 5.5t-27 -5.5t-18 -15.5q-12 -14 -16 -44t-4 -87h131z" />
    <glyph glyph-name="f" unicode="f" horiz-adv-x="254" 
d="M237 643q-80 0 -80 -78v-47h80v-63h-80v-455h-81v455h-59v63h59v50q0 41 11.5 69t33.5 46q24 20 53.5 26.5t62.5 6.5v-73z" />
    <glyph glyph-name="g" unicode="g" horiz-adv-x="387" 
d="M166 526q34 0 56 -16q8 -5 16 -12.5t14 -15.5v36h78v-536q0 -57 -10 -89.5t-32 -55.5q-17 -18 -44.5 -28.5t-57.5 -10.5t-56.5 9t-46.5 28q-22 22 -31 50t-9 62h81q0 -20 3.5 -35t14.5 -27q8 -9 19 -12.5t25 -3.5q28 0 44 18q11 12 15 33.5t4 57.5v75q-11 -17 -28 -29
q-23 -17 -55 -17q-51 0 -84 39q-12 14 -20 32.5t-12.5 44.5t-6.5 61.5t-2 82.5q0 48 2 83t6.5 61.5t12.5 45t20 32.5q17 19 37 28t47 9zM187 454q-14 0 -25 -6t-19 -16q-7 -8 -11 -20.5t-6.5 -32t-3 -47t-0.5 -66.5t0.5 -66.5t3 -47t6.5 -32t11 -20.5q8 -9 19 -15t25 -6
q25 0 43 16q19 19 19 60v223q0 40 -19 59q-17 17 -43 17z" />
    <glyph glyph-name="h" unicode="h" horiz-adv-x="395" 
d="M138 481q5 8 13 16t16 13q26 16 56 16q29 0 50 -9.5t38 -28.5q16 -17 23.5 -41t7.5 -66v-381h-81v381q0 36 -18 54.5t-44 18.5t-43.5 -18.5t-17.5 -54.5v-381h-81v712h81v-231z" />
    <glyph glyph-name="i" unicode="i" horiz-adv-x="195" 
d="M138 0h-81v518h81v-518zM145 610h-95v94h95v-94z" />
    <glyph glyph-name="j" unicode="j" horiz-adv-x="195" 
d="M138 -46q0 -43 -12.5 -71t-33.5 -45q-23 -20 -51.5 -26t-61.5 -6v73q38 0 58 17t20 61v561h81v-564zM145 610h-95v94h95v-94z" />
    <glyph glyph-name="k" unicode="k" horiz-adv-x="396" 
d="M138 272l147 246h86l-126 -202l138 -316h-90l-99 244l-56 -89v-155h-81v712h81v-440z" />
    <glyph glyph-name="l" unicode="l" horiz-adv-x="228" 
d="M134 151q0 -78 77 -78v-73q-33 0 -61 6t-51 26q-21 17 -33.5 45t-12.5 71v564h81v-561z" />
    <glyph glyph-name="m" unicode="m" horiz-adv-x="599" 
d="M423 526q34 0 55 -9.5t38 -28.5q16 -17 23 -41t7 -66v-381h-81v381q0 35 -17.5 54t-43.5 19t-44 -19t-18 -54v-381h-81v381q0 35 -18 54t-44 19t-43.5 -19t-17.5 -54v-381h-81v518h78v-40q5 9 14.5 18t17.5 14q26 16 56 16t56.5 -15t42.5 -39q8 11 19 21t23 17t28.5 11.5
t30.5 4.5z" />
    <glyph glyph-name="n" unicode="n" horiz-adv-x="395" 
d="M223 526q29 0 50 -9.5t38 -28.5q16 -17 23.5 -41t7.5 -66v-381h-81v381q0 35 -18 54t-44 19t-43.5 -19t-17.5 -54v-381h-81v518h78v-40q5 9 14.5 18t17.5 14q26 16 56 16z" />
    <glyph glyph-name="o" unicode="o" 
d="M188 526q35 0 62.5 -11t47.5 -37q24 -31 30.5 -85.5t6.5 -133.5t-6.5 -133.5t-30.5 -85.5q-20 -26 -47.5 -37t-62.5 -11t-62 11t-47 37q-24 31 -31 85.5t-7 133.5t7 133.5t31 85.5q20 26 47 37t62 11zM188 454q-29 0 -45 -23q-14 -20 -17.5 -61t-3.5 -111t3.5 -111
t17.5 -61q16 -23 45 -23q30 0 46 23q14 20 17 61t3 111t-3 111t-17 61q-16 23 -46 23z" />
    <glyph glyph-name="p" unicode="p" horiz-adv-x="388" 
d="M309 488q25 -30 31.5 -84t6.5 -145q0 -92 -6.5 -145.5t-31.5 -83.5q-17 -20 -38 -29t-48 -9q-33 0 -56 16q-8 5 -15.5 12.5t-13.5 15.5v-230h-81v712h79v-40q5 8 14 17.5t17 14.5q12 8 25.5 12t30.5 4q52 0 86 -38zM158 437q-20 -20 -20 -60v-237q0 -21 5 -35t15 -24
q17 -17 42 -17q14 0 25 6t19 16q7 8 11.5 21t6.5 33t3 49t1 70q0 40 -1 69t-3 49.5t-6.5 33.5t-11.5 21q-8 10 -19 16t-25 6q-25 0 -42 -17z" />
    <glyph glyph-name="q" unicode="q" horiz-adv-x="388" 
d="M165 526q17 0 30.5 -4t25.5 -12q8 -5 17 -14.5t14 -17.5v40h79v-712h-81v230q-6 -8 -13.5 -15.5t-15.5 -12.5q-23 -16 -56 -16q-27 0 -48 9t-38 29q-13 15 -20.5 35.5t-11.5 48t-5 63.5t-1 82t1 81.5t5 63.5t11.5 48.5t20.5 35.5q34 38 86 38zM188 454q-14 0 -25 -6
t-19 -16q-7 -8 -11.5 -21t-6.5 -33.5t-3 -49.5t-1 -69q0 -41 1 -70t3 -49t6.5 -33t11.5 -21q8 -10 19 -16t25 -6q25 0 42 17q10 10 15 24t5 35v237q0 40 -20 60q-17 17 -42 17z" />
    <glyph glyph-name="r" unicode="r" horiz-adv-x="272" 
d="M256 448h-24q-42 0 -68 -25t-26 -70v-353h-81v518h78v-55q6 11 16 20.5t20 16.5q37 26 85 26v-78z" />
    <glyph glyph-name="s" unicode="s" horiz-adv-x="359" 
d="M179 526q64 0 101 -37q42 -40 42 -114h-80q0 23 -4.5 37t-14.5 25q-9 10 -20.5 14t-23.5 4q-28 0 -45 -17q-19 -19 -19 -50q0 -22 9 -38q11 -19 43 -34l66 -33q52 -25 73 -59q22 -33 22 -83q0 -35 -12 -61.5t-32 -46.5q-21 -22 -47.5 -31.5t-58.5 -9.5t-58.5 10t-45.5 30
q-44 45 -44 114h80q0 -40 22 -63q9 -9 21.5 -13.5t24.5 -4.5q30 0 49 19q20 20 20 52q0 27 -13 47q-8 11 -19 20t-27 17l-67 34q-50 25 -71 60q-16 28 -16 68q0 34 11.5 59.5t31.5 45.5t46 29.5t56 9.5z" />
    <glyph glyph-name="t" unicode="t" horiz-adv-x="260" 
d="M240 0q-35 0 -64.5 5.5t-54.5 26.5q-45 37 -45 116v307h-59v63h59v142h81v-142h80v-63h-80v-304q0 -42 21 -60t62 -18v-73z" />
    <glyph glyph-name="u" unicode="u" horiz-adv-x="395" 
d="M338 0h-78v40q-5 -9 -14.5 -18t-17.5 -14q-26 -16 -56 -16q-29 0 -50 9.5t-38 28.5q-16 17 -23.5 41t-7.5 66v381h81v-381q0 -35 18 -54t44 -19t43.5 19t17.5 54v381h81v-518z" />
    <glyph glyph-name="v" unicode="v" horiz-adv-x="343" 
d="M93 518l79 -386l78 386h89l-125 -518h-85l-125 518h89z" />
    <glyph glyph-name="w" unicode="w" horiz-adv-x="526" 
d="M93 518l60 -385l73 385h70l75 -385l61 385h90l-109 -518h-79l-73 374l-71 -374h-79l-107 518h89z" />
    <glyph glyph-name="x" unicode="x" horiz-adv-x="356" 
d="M19 518h89l70 -178l70 178h89l-113 -254l119 -264h-89l-77 184l-75 -184h-89l117 264z" />
    <glyph glyph-name="y" unicode="y" horiz-adv-x="343" 
d="M193 -83q-8 -35 -24 -56.5t-38 -33.5t-50 -16.5t-60 -4.5v72q38 0 61 12.5t32 47.5l16 63l-126 517h89l79 -389l78 389h89z" />
    <glyph glyph-name="z" unicode="z" horiz-adv-x="301" 
d="M277 456l-163 -383h163v-73h-253v62l163 384h-152v72h242v-62z" />
    <glyph glyph-name="braceleft" unicode="{" horiz-adv-x="319" 
d="M286 713h-28q-25 0 -41.5 -17t-16.5 -49v-186q0 -32 -8 -52t-21 -33q-14 -14 -33 -20q19 -6 33 -20q13 -12 21 -32.5t8 -52.5v-186q0 -32 16.5 -49t41.5 -17h28v-73h-42q-26 0 -49.5 9t-40.5 26q-16 16 -25.5 40t-9.5 60v192q0 32 -16 49.5t-41 17.5h-29v72h29
q25 0 41 17.5t16 49.5v192q0 36 9.5 60t25.5 40q17 17 40.5 26t49.5 9h42v-73z" />
    <glyph glyph-name="bar" unicode="|" horiz-adv-x="291" 
d="M186 -74h-81v860h81v-860z" />
    <glyph glyph-name="braceright" unicode="}" horiz-adv-x="319" 
d="M33 -1h28q25 0 41.5 17t16.5 49v186q0 32 8 52t21 33q8 8 16 12.5t17 7.5q-19 6 -33 20q-13 12 -21 32.5t-8 52.5v186q0 32 -16.5 49t-41.5 17h-28v73h42q26 0 49.5 -9t40.5 -26q16 -16 25.5 -40t9.5 -60v-192q0 -32 16 -49.5t41 -17.5h29v-72h-29q-25 0 -41 -17.5
t-16 -49.5v-192q0 -36 -9.5 -60t-25.5 -40q-17 -17 -40.5 -26t-49.5 -9h-42v73z" />
    <glyph glyph-name="asciitilde" unicode="~" horiz-adv-x="444" 
d="M147 344q25 0 44.5 -7.5t37.5 -16.5q17 -8 32.5 -14t33.5 -6q22 0 36 9.5t29 24.5l50 -49q-25 -25 -51 -42.5t-62 -17.5q-24 0 -43.5 7.5t-36.5 15.5t-33 14.5t-34 6.5q-22 0 -36.5 -9t-29.5 -24l-49 48q24 24 50 42t62 18z" />
    <glyph glyph-name="uni00A0" unicode="&#xa0;" horiz-adv-x="187" 
 />
    <glyph glyph-name="exclamdown" unicode="&#xa1;" horiz-adv-x="242" 
d="M68 325h81v-519h-81v519zM59 518h99v-99h-99v99z" />
    <glyph glyph-name="cent" unicode="&#xa2;" horiz-adv-x="367" 
d="M222 613q21 -3 38 -10t31 -21q23 -22 31.5 -52t9.5 -61h-80q0 15 -2.5 30.5t-13.5 27.5l-6 6q-3 3 -8 5v-355q3 2 6.5 4.5t6.5 5.5q11 11 14 25.5t3 31.5h80q-1 -35 -10.5 -62.5t-29.5 -47.5q-26 -24 -70 -32v-108h-63v107q-49 8 -78 44q-24 29 -30.5 81.5t-6.5 127.5
t6.5 127.5t30.5 81.5q29 36 78 44v99h63v-99zM159 537q-5 -2 -8 -5.5t-6 -7.5q-14 -19 -17 -58t-3 -106t3 -106t17 -58q3 -4 6 -7.5t8 -5.5v354z" />
    <glyph glyph-name="sterling" unicode="&#xa3;" horiz-adv-x="427" 
d="M268 720q77 0 127 -53l-60 -57q-11 14 -27.5 23.5t-39.5 9.5q-35 0 -60 -25.5t-25 -71.5v-146h85v-62h-85v-261h212v-77h-298v338h-64v62h64v144q0 42 13.5 74.5t36.5 55t54.5 34.5t66.5 12z" />
    <glyph glyph-name="currency" unicode="&#xa4;" horiz-adv-x="493" 
d="M448 435l-54 -54q32 -46 32 -98q0 -54 -32 -98l54 -54l-50 -50l-56 55q-17 -13 -43 -20.5t-52 -7.5q-27 0 -53 7.5t-43 20.5l-57 -55l-50 50l55 54q-32 46 -32 98q0 53 32 97l-55 55l50 50l57 -56q17 13 43 21t53 8q26 0 52 -8t43 -21l56 56zM246 388q-21 0 -40 -8
t-33.5 -22.5t-22.5 -33.5t-8 -41t8 -41.5t22.5 -33.5t33.5 -22.5t40 -8.5t40 8.5t33 23t22.5 33.5t8.5 41t-8.5 41t-22.5 33t-33 22.5t-40 8.5z" />
    <glyph glyph-name="yen" unicode="&#xa5;" horiz-adv-x="353" 
d="M44 188v63h89v37l-15 52h-74v63h53l-95 309h94l80 -304l80 304h95l-96 -309h53v-63h-73l-16 -52v-37h89v-63h-89v-188h-86v188h-89z" />
    <glyph glyph-name="brokenbar" unicode="&#xa6;" horiz-adv-x="291" 
d="M186 437h-81v348h81v-348zM186 -73h-81v348h81v-348z" />
    <glyph glyph-name="section" unicode="&#xa7;" horiz-adv-x="409" 
d="M206 712q57 0 96 -33q22 -19 33.5 -47.5t12.5 -61.5h-82q0 32 -18 53q-17 17 -42 17q-27 0 -43 -16q-10 -9 -14.5 -21.5t-4.5 -26.5q0 -26 10 -43q5 -9 16 -18t25 -16l69 -34q14 -6 28.5 -15t23.5 -18q13 -14 21.5 -28t12.5 -32t5.5 -42.5t1.5 -58.5q0 -31 -1.5 -54
t-6 -41t-13.5 -32.5t-23 -26.5q-7 -6 -18 -12t-22 -8q18 -12 32 -23.5t25 -29.5q10 -16 14.5 -36.5t4.5 -40.5q0 -35 -10.5 -61t-30.5 -46q-20 -21 -47.5 -30.5t-58.5 -9.5t-58 10.5t-46 29.5q-40 42 -42 105h83q0 -32 19 -54q8 -9 20 -13.5t24 -4.5q30 0 47 18q17 19 17 51
q0 28 -12 45q-8 12 -19.5 20.5t-25.5 15.5l-69 34q-12 6 -23.5 13.5t-20.5 15.5q-15 15 -24 31.5t-13.5 36t-5.5 43.5t-1 54t1.5 53t6.5 40.5t14 31t23 26.5q6 6 17.5 12t22.5 8q-18 11 -33.5 24.5t-25.5 30.5q-17 29 -17 73q0 32 11 57.5t31 45.5q19 20 46 29.5t57 9.5z
M205 402q-27 0 -47 -17q-7 -6 -11.5 -14.5t-7.5 -21t-4.5 -31.5t-1.5 -47q0 -27 1.5 -45.5t4.5 -31.5t7.5 -22t11.5 -15q19 -18 47 -18t46 18q14 13 19.5 37t5.5 77t-5 76t-20 37q-18 18 -46 18z" />
    <glyph glyph-name="dieresis" unicode="&#xa8;" 
d="M151 602h-82v82h82v-82zM308 602h-82v82h82v-82z" />
    <glyph glyph-name="copyright" unicode="&#xa9;" horiz-adv-x="852" 
d="M426 718q75 0 141 -28.5t115 -77.5t77.5 -115t28.5 -141t-28.5 -141t-77.5 -115t-115 -77.5t-141 -28.5t-141 28.5t-115 77.5t-77.5 115t-28.5 141t28.5 141t77.5 115t115 77.5t141 28.5zM428 559q41 0 68 -27q29 -29 30 -86h-54q0 15 -2.5 28t-10.5 22q-10 13 -31 13
q-12 0 -20 -4.5t-13 -11.5q-11 -15 -13.5 -49t-2.5 -88t2.5 -88.5t13.5 -49.5q5 -7 13 -11.5t20 -4.5q21 0 31 13q8 9 10.5 22t2.5 28h54q-1 -57 -30 -86q-27 -27 -68 -27q-46 0 -74 33q-18 21 -23.5 61t-5.5 110t5.5 109.5t23.5 60.5q28 33 74 33zM426 665
q-63 0 -118.5 -24t-96.5 -65.5t-64.5 -98t-23.5 -121.5t23.5 -121.5t64.5 -98t96.5 -65.5t118.5 -24q64 0 119.5 24t96.5 65.5t64.5 98t23.5 121.5t-23.5 121.5t-64.5 98t-96.5 65.5t-119.5 24z" />
    <glyph glyph-name="ordfeminine" unicode="&#xaa;" horiz-adv-x="314" 
d="M151 716q24 0 45.5 -7t37.5 -23q15 -15 24.5 -37t9.5 -53v-289h-64v33q-6 -9 -14 -15l-12 -10q-9 -5 -21.5 -9t-26.5 -4q-46 0 -74 31q-13 14 -20 35.5t-7 53.5q0 58 40 92q15 14 36 20.5t53 6.5h42v60q0 25 -12 40.5t-37 15.5q-22 0 -34 -14q-9 -9 -11.5 -21t-2.5 -26
h-68q0 25 7 47.5t27 41.5q14 14 35.5 22.5t46.5 8.5zM163 491q-14 0 -26 -2.5t-20 -10.5q-9 -9 -14.5 -23t-5.5 -30q0 -26 11.5 -45.5t39.5 -19.5q23 0 37.5 18.5t14.5 47.5v65h-37z" />
    <glyph glyph-name="guillemotleft" unicode="&#xab;" horiz-adv-x="391" 
d="M341 374l-69 -102l69 -103v-127l-148 230l148 229v-127zM174 374l-68 -102l68 -103v-127l-148 230l148 229v-127z" />
    <glyph glyph-name="logicalnot" unicode="&#xac;" horiz-adv-x="444" 
d="M394 146h-77v107h-267v77h344v-184z" />
    <glyph glyph-name="uni00AD" unicode="&#xad;" horiz-adv-x="298" 
d="M247 244h-196v77h196v-77z" />
    <glyph glyph-name="registered" unicode="&#xae;" horiz-adv-x="852" 
d="M426 718q75 0 141 -28.5t115 -77.5t77.5 -115t28.5 -141t-28.5 -141t-77.5 -115t-115 -77.5t-141 -28.5t-141 28.5t-115 77.5t-77.5 115t-28.5 141t28.5 141t77.5 115t115 77.5t141 28.5zM426 665q-64 0 -119 -24t-96 -65.5t-64.5 -98t-23.5 -121.5t23.5 -121.5t64.5 -98
t96 -65.5t119 -24t119.5 24t96.5 65.5t64.5 98t23.5 121.5t-23.5 121.5t-64.5 98t-96.5 65.5t-119.5 24zM437 554q44 0 68 -24q16 -16 21.5 -37.5t5.5 -53.5t-5 -52t-21 -36q-8 -8 -20 -15l58 -179h-56l-52 168h-47v-168h-54v397h102zM389 504v-130h48q17 0 28 11
q8 9 10.5 21.5t2.5 32.5t-2 32.5t-10 21.5q-11 11 -29 11h-48z" />
    <glyph glyph-name="macron" unicode="&#xaf;" 
d="M303 608h-229v57h229v-57z" />
    <glyph glyph-name="degree" unicode="&#xb0;" horiz-adv-x="396" 
d="M198 723q31 0 58 -11.5t47 -31.5t32 -47t12 -58t-12 -58t-32 -47.5t-47 -32t-58 -11.5t-58 11.5t-47.5 32t-32 47.5t-11.5 58t11.5 58t32 47t47.5 31.5t58 11.5zM198 653q-33 0 -55 -22t-22 -56t22 -56.5t55 -22.5t55 22.5t22 56.5q0 33 -22 55.5t-55 22.5z" />
    <glyph glyph-name="plusminus" unicode="&#xb1;" horiz-adv-x="444" 
d="M261 368h137v-77h-137v-137h-77v137h-138v77h138v137h77v-137zM398 14h-352v77h352v-77z" />
    <glyph glyph-name="twosuperior" unicode="&#xb2;" horiz-adv-x="171" 
d="M96 607q7 11 12 23t5 26q0 28 -26 28q-13 0 -20 -8t-7 -21v-18h-40v18q0 29 16 47t51 18q32 0 50 -18q16 -16 16 -47q0 -16 -6 -30t-16 -31l-67 -124h89v-36h-132v35z" />
    <glyph glyph-name="threesuperior" unicode="&#xb3;" horiz-adv-x="173" 
d="M87 720q32 0 47 -15q10 -9 14.5 -24t4.5 -40q0 -29 -8 -41q-7 -12 -19 -16q7 -4 12 -7.5t8 -8.5q5 -8 7 -19.5t2 -33.5q0 -30 -5 -45.5t-15 -25.5q-17 -15 -49 -15q-34 0 -49 17q-18 18 -18 46v16h40v-16q0 -27 27 -27q13 0 21 8q4 5 6 13.5t2 28.5q0 23 -2.5 32t-7.5 14
q-6 7 -19 7h-15v32h15q14 0 20 7q3 5 4.5 11.5t1.5 22.5t-1.5 23.5t-5.5 12.5q-6 7 -18 7q-25 0 -25 -28v-18h-41v17q0 29 18 49q15 16 48 16z" />
    <glyph glyph-name="acute" unicode="&#xb4;" 
d="M209 586h-61l68 135h74z" />
    <glyph glyph-name="mu" unicode="&#xb5;" horiz-adv-x="399" 
d="M342 0h-79v40q-8 -15 -22 -28q-21 -16 -46 -16q-38 0 -60 32v-222h-78v712h81v-381q0 -37 17.5 -54.5t43.5 -17.5t44 17.5t18 54.5v381h81v-518z" />
    <glyph glyph-name="paragraph" unicode="&#xb6;" horiz-adv-x="570" 
d="M512 -194h-81v830h-111v-830h-81v490h-54q-68 0 -106 48t-38 160t38 160t106 48h327v-906z" />
    <glyph glyph-name="periodcentered" unicode="&#xb7;" horiz-adv-x="266" 
d="M182 233h-99v99h99v-99z" />
    <glyph glyph-name="cedilla" unicode="&#xb8;" 
d="M173 -182h-64l57 144h57z" />
    <glyph glyph-name="onesuperior" unicode="&#xb9;" horiz-adv-x="170" 
d="M118 434h-40v232l-51 -42v50l50 42h41v-282z" />
    <glyph glyph-name="ordmasculine" unicode="&#xba;" horiz-adv-x="305" 
d="M149 716q28 0 49.5 -9t38.5 -29q19 -24 25 -66.5t6 -103.5q0 -60 -5.5 -103t-25.5 -67q-16 -20 -38 -28.5t-50 -8.5q-29 0 -51 8.5t-38 28.5q-20 24 -25.5 67t-5.5 103q0 61 6 103.5t25 66.5q17 20 38.5 29t50.5 9zM149 656q-24 0 -36 -17q-11 -14 -13.5 -44.5
t-2.5 -86.5q0 -55 2.5 -86t13.5 -45q12 -16 36 -16q22 0 34 16q11 15 14 45.5t3 85.5q0 56 -3 86t-14 45q-12 17 -34 17z" />
    <glyph glyph-name="guillemotright" unicode="&#xbb;" horiz-adv-x="391" 
d="M50 175l69 102l-69 103v127l148 -230l-148 -229v127zM217 175l68 102l-68 103v127l148 -230l-148 -229v127z" />
    <glyph glyph-name="onequarter" unicode="&#xbc;" horiz-adv-x="658" 
d="M236 0h-64l246 712h65zM430 65v48l110 314h57l-109 -314h70v99h52v-99h31v-48h-31v-65h-52v65h-128zM165 285h-53v365l-72 -57v61l72 58h53v-427z" />
    <glyph glyph-name="onehalf" unicode="&#xbd;" horiz-adv-x="656" 
d="M236 0h-64l246 712h65zM552 266q11 23 17.5 41.5t6.5 35.5q0 41 -41 41q-20 0 -29.5 -12t-9.5 -33v-27h-54v28q0 45 28 70q23 22 65 22t66 -22q13 -11 20.5 -28.5t7.5 -40.5q0 -22 -8.5 -44.5t-21.5 -48.5l-100 -200h129v-48h-186v46zM165 285h-53v365l-72 -57v61l72 58
h53v-427z" />
    <glyph glyph-name="threequarters" unicode="&#xbe;" horiz-adv-x="658" 
d="M236 0h-64l246 712h65zM430 65v48l110 314h57l-109 -314h70v99h52v-99h31v-48h-31v-65h-52v65h-128zM119 717q22 0 37 -6t27 -17q16 -14 22 -34.5t6 -56.5q0 -26 -2.5 -42t-9.5 -26q-11 -15 -28 -22q18 -8 28 -24q15 -21 15 -83q0 -44 -5.5 -65.5t-21.5 -37.5
q-23 -23 -65 -23t-67 22q-28 27 -28 70v23h54v-25q0 -20 11 -31t29 -11q8 0 16 2.5t13 9.5q8 8 9.5 21t1.5 45q0 37 -2 50.5t-9 21.5q-11 12 -27 12h-22v45h21q14 0 25 9q6 6 8.5 18t2.5 38t-2.5 39.5t-8.5 19.5q-10 10 -27 10q-16 0 -26 -11t-10 -31v-29h-55v27q0 41 27 68
q24 24 63 24z" />
    <glyph glyph-name="questiondown" unicode="&#xbf;" horiz-adv-x="400" 
d="M192 -200q-69 0 -110 41q-23 23 -33.5 55.5t-10.5 86.5q0 38 6.5 65.5t24.5 53.5l59 85q22 32 22 70v68h81v-78q0 -23 -8 -44.5t-20 -39.5l-58 -85q-17 -24 -21.5 -45.5t-4.5 -51.5q0 -33 5 -53.5t18 -34.5q18 -20 50 -20q29 0 48 19q15 16 18.5 38t3.5 44h81
q0 -42 -9.5 -75.5t-33.5 -56.5q-20 -19 -46.5 -30.5t-61.5 -11.5zM141 518h99v-99h-99v99z" />
    <glyph glyph-name="Agrave" unicode="&#xc0;" horiz-adv-x="425" 
d="M171 712h83l166 -712h-91l-34 168h-166l-34 -168h-90zM279 245l-67 328l-67 -328h134zM251 762h-62l-81 135h74z" />
    <glyph glyph-name="Aacute" unicode="&#xc1;" horiz-adv-x="425" 
d="M171 712h83l166 -712h-91l-34 168h-166l-34 -168h-90zM279 245l-67 328l-67 -328h134zM239 762h-62l69 135h74z" />
    <glyph glyph-name="Acircumflex" unicode="&#xc2;" horiz-adv-x="425" 
d="M171 712h83l166 -712h-91l-34 168h-166l-34 -168h-90zM279 245l-67 328l-67 -328h134zM340 762h-66l-60 87l-60 -87h-66l93 135h66z" />
    <glyph glyph-name="Atilde" unicode="&#xc3;" horiz-adv-x="425" 
d="M171 712h83l166 -712h-91l-34 168h-166l-34 -168h-90zM279 245l-67 328l-67 -328h134zM162 861q20 0 32.5 -5t23.5 -12q11 -6 21 -11t24 -5q15 0 25 7t19 16l38 -37q-17 -17 -36 -29.5t-44 -12.5q-20 0 -33 5t-24 11t-21 11t-23 5q-14 0 -24.5 -7t-20.5 -16l-36 37
q21 22 39 32.5t40 10.5z" />
    <glyph glyph-name="Adieresis" unicode="&#xc4;" horiz-adv-x="425" 
d="M171 712h83l166 -712h-91l-34 168h-166l-34 -168h-90zM279 245l-67 328l-67 -328h134zM333 777h-82v81h82v-81zM177 777h-82v81h82v-81z" />
    <glyph glyph-name="Aring" unicode="&#xc5;" horiz-adv-x="425" 
d="M171 712h83l166 -712h-91l-34 168h-166l-34 -168h-90zM279 245l-67 328l-67 -328h134zM214 948q41 0 69.5 -28.5t28.5 -69.5t-28.5 -69.5t-69.5 -28.5t-69.5 28.5t-28.5 69.5t28.5 69.5t69.5 28.5zM214 899q-20 0 -34.5 -14.5t-14.5 -34.5t14.5 -34.5t34.5 -14.5
t34.5 14.5t14.5 34.5t-14.5 34.5t-34.5 14.5z" />
    <glyph glyph-name="AE" unicode="&#xc6;" horiz-adv-x="640" 
d="M599 635h-189v-234h163v-77h-163v-247h189v-77h-275v172h-163l-61 -172h-95l263 712h331v-77zM188 250h136v385z" />
    <glyph glyph-name="Ccedilla" unicode="&#xc7;" horiz-adv-x="423" 
d="M221 720q38 0 65 -11t48 -31q25 -24 37.5 -60.5t13.5 -80.5h-85q-1 23 -5.5 44t-17.5 37q-8 11 -22 18t-34 7q-21 0 -35.5 -7.5t-23.5 -19.5q-9 -13 -15 -31.5t-9 -48t-4 -73.5t-1 -107t1 -107t4 -73.5t9 -48t15 -31.5q9 -12 23.5 -19.5t35.5 -7.5q20 0 34 7t22 18
q12 16 17 37.5t6 44.5h85q-1 -45 -14.5 -83t-39.5 -62q-21 -19 -48 -29t-62 -10q-42 0 -72 14.5t-50 37.5q-18 20 -28 43.5t-15.5 58.5t-7 85.5t-1.5 124.5t1.5 124.5t7 85.5t15.5 58.5t28 43.5q20 23 50 37.5t72 14.5zM197 -182h-64l57 144h57z" />
    <glyph glyph-name="Egrave" unicode="&#xc8;" horiz-adv-x="380" 
d="M339 635h-189v-234h163v-77h-163v-247h189v-77h-275v712h275v-77zM243 762h-62l-81 135h74z" />
    <glyph glyph-name="Eacute" unicode="&#xc9;" horiz-adv-x="380" 
d="M339 635h-189v-234h163v-77h-163v-247h189v-77h-275v712h275v-77zM231 762h-62l69 135h74z" />
    <glyph glyph-name="Ecircumflex" unicode="&#xca;" horiz-adv-x="380" 
d="M339 635h-189v-234h163v-77h-163v-247h189v-77h-275v712h275v-77zM332 762h-66l-60 87l-60 -87h-66l93 135h66z" />
    <glyph glyph-name="Edieresis" unicode="&#xcb;" horiz-adv-x="380" 
d="M339 635h-189v-234h163v-77h-163v-247h189v-77h-275v712h275v-77zM325 777h-82v81h82v-81zM169 777h-82v81h82v-81z" />
    <glyph glyph-name="Igrave" unicode="&#xcc;" horiz-adv-x="214" 
d="M150 0h-86v712h86v-712zM146 762h-62l-81 135h74z" />
    <glyph glyph-name="Iacute" unicode="&#xcd;" horiz-adv-x="214" 
d="M150 0h-86v712h86v-712zM134 762h-62l69 135h74z" />
    <glyph glyph-name="Icircumflex" unicode="&#xce;" horiz-adv-x="214" 
d="M150 0h-86v712h86v-712zM235 762h-66l-60 87l-60 -87h-66l93 135h66z" />
    <glyph glyph-name="Idieresis" unicode="&#xcf;" horiz-adv-x="214" 
d="M150 0h-86v712h86v-712zM228 777h-82v81h82v-81zM72 777h-82v81h82v-81z" />
    <glyph glyph-name="Eth" unicode="&#xd0;" horiz-adv-x="461" 
d="M241 712q44 0 73 -14t49 -36q17 -18 27 -41t15.5 -58t7 -85t1.5 -122t-1.5 -122t-7 -85t-15.5 -58t-27 -41q-20 -22 -49 -36t-73 -14h-164v328h-52v69h52v315h164zM163 635v-238h81v-69h-81v-251h75q21 0 36 7.5t25 19.5t16 30t9 47t3.5 71t0.5 104q0 61 -0.5 103.5
t-3.5 71.5t-9 47t-16 30t-25 19.5t-36 7.5h-75z" />
    <glyph glyph-name="Ntilde" unicode="&#xd1;" horiz-adv-x="476" 
d="M412 0h-78l-184 487v-487h-86v712h80l182 -487v487h86v-712zM186 861q20 0 32.5 -5t23.5 -12q11 -6 21 -11t24 -5q15 0 25 7t19 16l38 -37q-17 -17 -36 -29.5t-44 -12.5q-20 0 -33 5t-24 11t-21 11t-23 5q-14 0 -24.5 -7t-20.5 -16l-36 37q21 22 39 32.5t40 10.5z" />
    <glyph glyph-name="Ograve" unicode="&#xd2;" horiz-adv-x="442" 
d="M221 -8q-42 0 -72 14.5t-50 37.5q-17 19 -27 42.5t-15.5 59t-7.5 86t-2 124.5t2 124.5t7.5 86t15.5 58.5t27 43q20 23 50 37.5t72 14.5t72.5 -14.5t50.5 -37.5q17 -19 27 -42.5t15.5 -59t7 -86t1.5 -124.5t-1.5 -125t-7 -86t-15.5 -58.5t-27 -42.5q-20 -23 -50.5 -37.5
t-72.5 -14.5zM221 69q21 0 35.5 7.5t22.5 19.5q10 13 16 31.5t9 48t4 73.5t1 107t-1 107t-4 73.5t-9 48t-16 31.5q-8 12 -22.5 19.5t-35.5 7.5t-35.5 -7.5t-22.5 -19.5q-10 -13 -16 -31.5t-9 -48t-4 -73.5t-1 -107t1 -107t4 -73.5t9 -48t16 -31.5q8 -12 22.5 -19.5
t35.5 -7.5zM258 762h-62l-81 135h74z" />
    <glyph glyph-name="Oacute" unicode="&#xd3;" horiz-adv-x="442" 
d="M221 -8q-42 0 -72 14.5t-50 37.5q-17 19 -27 42.5t-15.5 59t-7.5 86t-2 124.5t2 124.5t7.5 86t15.5 58.5t27 43q20 23 50 37.5t72 14.5t72.5 -14.5t50.5 -37.5q17 -19 27 -42.5t15.5 -59t7 -86t1.5 -124.5t-1.5 -125t-7 -86t-15.5 -58.5t-27 -42.5q-20 -23 -50.5 -37.5
t-72.5 -14.5zM221 69q21 0 35.5 7.5t22.5 19.5q10 13 16 31.5t9 48t4 73.5t1 107t-1 107t-4 73.5t-9 48t-16 31.5q-8 12 -22.5 19.5t-35.5 7.5t-35.5 -7.5t-22.5 -19.5q-10 -13 -16 -31.5t-9 -48t-4 -73.5t-1 -107t1 -107t4 -73.5t9 -48t16 -31.5q8 -12 22.5 -19.5
t35.5 -7.5zM246 762h-62l69 135h74z" />
    <glyph glyph-name="Ocircumflex" unicode="&#xd4;" horiz-adv-x="442" 
d="M221 -8q-42 0 -72 14.5t-50 37.5q-17 19 -27 42.5t-15.5 59t-7.5 86t-2 124.5t2 124.5t7.5 86t15.5 58.5t27 43q20 23 50 37.5t72 14.5t72.5 -14.5t50.5 -37.5q17 -19 27 -42.5t15.5 -59t7 -86t1.5 -124.5t-1.5 -125t-7 -86t-15.5 -58.5t-27 -42.5q-20 -23 -50.5 -37.5
t-72.5 -14.5zM221 69q21 0 35.5 7.5t22.5 19.5q10 13 16 31.5t9 48t4 73.5t1 107t-1 107t-4 73.5t-9 48t-16 31.5q-8 12 -22.5 19.5t-35.5 7.5t-35.5 -7.5t-22.5 -19.5q-10 -13 -16 -31.5t-9 -48t-4 -73.5t-1 -107t1 -107t4 -73.5t9 -48t16 -31.5q8 -12 22.5 -19.5
t35.5 -7.5zM347 762h-66l-60 87l-60 -87h-66l93 135h66z" />
    <glyph glyph-name="Otilde" unicode="&#xd5;" horiz-adv-x="442" 
d="M221 -8q-42 0 -72 14.5t-50 37.5q-17 19 -27 42.5t-15.5 59t-7.5 86t-2 124.5t2 124.5t7.5 86t15.5 58.5t27 43q20 23 50 37.5t72 14.5t72.5 -14.5t50.5 -37.5q17 -19 27 -42.5t15.5 -59t7 -86t1.5 -124.5t-1.5 -125t-7 -86t-15.5 -58.5t-27 -42.5q-20 -23 -50.5 -37.5
t-72.5 -14.5zM221 69q21 0 35.5 7.5t22.5 19.5q10 13 16 31.5t9 48t4 73.5t1 107t-1 107t-4 73.5t-9 48t-16 31.5q-8 12 -22.5 19.5t-35.5 7.5t-35.5 -7.5t-22.5 -19.5q-10 -13 -16 -31.5t-9 -48t-4 -73.5t-1 -107t1 -107t4 -73.5t9 -48t16 -31.5q8 -12 22.5 -19.5
t35.5 -7.5zM169 861q20 0 32.5 -5t23.5 -12q11 -6 21 -11t24 -5q15 0 25 7t19 16l38 -37q-17 -17 -36 -29.5t-44 -12.5q-20 0 -33 5t-24 11t-21 11t-23 5q-14 0 -24.5 -7t-20.5 -16l-36 37q21 22 39 32.5t40 10.5z" />
    <glyph glyph-name="Odieresis" unicode="&#xd6;" horiz-adv-x="442" 
d="M221 -8q-42 0 -72 14.5t-50 37.5q-17 19 -27 42.5t-15.5 59t-7.5 86t-2 124.5t2 124.5t7.5 86t15.5 58.5t27 43q20 23 50 37.5t72 14.5t72.5 -14.5t50.5 -37.5q17 -19 27 -42.5t15.5 -59t7 -86t1.5 -124.5t-1.5 -125t-7 -86t-15.5 -58.5t-27 -42.5q-20 -23 -50.5 -37.5
t-72.5 -14.5zM221 69q21 0 35.5 7.5t22.5 19.5q10 13 16 31.5t9 48t4 73.5t1 107t-1 107t-4 73.5t-9 48t-16 31.5q-8 12 -22.5 19.5t-35.5 7.5t-35.5 -7.5t-22.5 -19.5q-10 -13 -16 -31.5t-9 -48t-4 -73.5t-1 -107t1 -107t4 -73.5t9 -48t16 -31.5q8 -12 22.5 -19.5
t35.5 -7.5zM340 777h-82v81h82v-81zM184 777h-82v81h82v-81z" />
    <glyph glyph-name="multiply" unicode="&#xd7;" horiz-adv-x="444" 
d="M391 394l-116 -116l116 -117l-52 -52l-117 116l-116 -116l-53 52l117 117l-117 116l53 53l116 -117l117 117z" />
    <glyph glyph-name="Oslash" unicode="&#xd8;" horiz-adv-x="442" 
d="M352 659q14 -19 22.5 -43.5t13 -59.5t6 -84t1.5 -116q0 -74 -1.5 -125t-7 -86t-16 -58.5t-27.5 -42.5q-21 -23 -50.5 -37.5t-71.5 -14.5q-49 0 -83 20l-19 -56h-62l34 96q-15 19 -23.5 43.5t-13 59.5t-6 84t-1.5 117q0 74 1.5 124.5t7 86t16 59t27.5 42.5
q21 23 50.5 37.5t71.5 14.5q48 0 83 -20l18 56h62zM165 91q19 -22 56 -22q21 0 35 7.5t23 19.5q10 13 16 31.5t9 48t4 73.5t1 107q0 72 -1.5 112t-6.5 63zM221 643q-21 0 -35.5 -7.5t-23.5 -19.5q-9 -13 -15 -31.5t-9 -48t-4 -73.5t-1 -107q0 -74 1.5 -113.5t6.5 -62.5
l136 441q-20 22 -56 22z" />
    <glyph glyph-name="Ugrave" unicode="&#xd9;" horiz-adv-x="446" 
d="M388 163q0 -78 -46 -124q-45 -47 -119 -47q-73 0 -120 47q-45 47 -45 124v549h86v-546q0 -48 20.5 -72.5t58.5 -24.5q37 0 58 24.5t21 72.5v546h86v-549zM260 762h-62l-81 135h74z" />
    <glyph glyph-name="Uacute" unicode="&#xda;" horiz-adv-x="446" 
d="M388 163q0 -78 -46 -124q-45 -47 -119 -47q-73 0 -120 47q-45 47 -45 124v549h86v-546q0 -48 20.5 -72.5t58.5 -24.5q37 0 58 24.5t21 72.5v546h86v-549zM248 762h-62l69 135h74z" />
    <glyph glyph-name="Ucircumflex" unicode="&#xdb;" horiz-adv-x="446" 
d="M388 163q0 -78 -46 -124q-45 -47 -119 -47q-73 0 -120 47q-45 47 -45 124v549h86v-546q0 -48 20.5 -72.5t58.5 -24.5q37 0 58 24.5t21 72.5v546h86v-549zM349 762h-66l-60 87l-60 -87h-66l93 135h66z" />
    <glyph glyph-name="Udieresis" unicode="&#xdc;" horiz-adv-x="446" 
d="M388 163q0 -78 -46 -124q-45 -47 -119 -47q-73 0 -120 47q-45 47 -45 124v549h86v-546q0 -48 20.5 -72.5t58.5 -24.5q37 0 58 24.5t21 72.5v546h86v-549zM342 777h-82v81h82v-81zM186 777h-82v81h82v-81z" />
    <glyph glyph-name="Yacute" unicode="&#xdd;" horiz-adv-x="353" 
d="M219 288v-288h-86v288l-131 424h94l80 -304l80 304h95zM202 762h-62l69 135h74z" />
    <glyph glyph-name="Thorn" unicode="&#xde;" horiz-adv-x="435" 
d="M150 568h74q40 0 71.5 -10.5t53.5 -34.5t33 -64t11 -99t-11 -99t-33 -64t-53.5 -34.5t-71.5 -10.5h-74v-152h-86v712h86v-144zM150 490v-261h73q42 0 63 29.5t21 101.5t-21 101t-63 29h-73z" />
    <glyph glyph-name="germandbls" unicode="&#xdf;" horiz-adv-x="394" 
d="M200 720q30 0 57 -9t47 -29q27 -27 34.5 -58t7.5 -73q0 -26 -2.5 -51.5t-15.5 -48.5q-12 -22 -36 -40q11 -6 19.5 -14.5t15.5 -18.5q17 -23 22.5 -57.5t5.5 -101.5q0 -62 -6.5 -106.5t-37.5 -75.5q-23 -23 -51.5 -30t-58.5 -7v73q15 0 28.5 4t23.5 15q13 15 17 43.5
t4 89.5q0 56 -4.5 84.5t-15.5 44.5q-15 21 -45 21h-8v69h7q23 0 38 17q13 16 16 36t3 48q0 36 -4.5 53t-14.5 29q-15 20 -45 20q-26 0 -44.5 -18t-18.5 -56v-573h-81v571q0 41 10.5 66t30.5 44q19 19 46 29t56 10z" />
    <glyph glyph-name="agrave" unicode="&#xe0;" horiz-adv-x="375" 
d="M180 526q65 0 101 -36q19 -20 30 -47t11 -67v-376h-77v46q-6 -11 -14 -20t-16 -15q-12 -9 -26 -14t-35 -5q-29 0 -50 9.5t-39 29.5q-15 17 -24 46t-9 70q0 36 11.5 66.5t34.5 50.5q20 17 44.5 26t65.5 9h53v82q0 74 -61 74q-14 0 -23 -4.5t-17 -12.5q-11 -11 -15 -25
t-4 -35h-81q0 30 8.5 58.5t31.5 51.5q17 17 43.5 27.5t56.5 10.5zM195 240q-19 0 -32.5 -4t-25.5 -15q-11 -11 -17.5 -30.5t-6.5 -40.5q0 -41 15.5 -64t47.5 -23q29 0 47 22.5t18 58.5v96h-46zM223 586h-62l-81 135h74z" />
    <glyph glyph-name="aacute" unicode="&#xe1;" horiz-adv-x="375" 
d="M180 526q65 0 101 -36q19 -20 30 -47t11 -67v-376h-77v46q-6 -11 -14 -20t-16 -15q-12 -9 -26 -14t-35 -5q-29 0 -50 9.5t-39 29.5q-15 17 -24 46t-9 70q0 36 11.5 66.5t34.5 50.5q20 17 44.5 26t65.5 9h53v82q0 74 -61 74q-14 0 -23 -4.5t-17 -12.5q-11 -11 -15 -25
t-4 -35h-81q0 30 8.5 58.5t31.5 51.5q17 17 43.5 27.5t56.5 10.5zM195 240q-19 0 -32.5 -4t-25.5 -15q-11 -11 -17.5 -30.5t-6.5 -40.5q0 -41 15.5 -64t47.5 -23q29 0 47 22.5t18 58.5v96h-46zM206 586h-61l68 135h74z" />
    <glyph glyph-name="acircumflex" unicode="&#xe2;" horiz-adv-x="375" 
d="M180 526q65 0 101 -36q19 -20 30 -47t11 -67v-376h-77v46q-6 -11 -14 -20t-16 -15q-12 -9 -26 -14t-35 -5q-29 0 -50 9.5t-39 29.5q-15 17 -24 46t-9 70q0 36 11.5 66.5t34.5 50.5q20 17 44.5 26t65.5 9h53v82q0 74 -61 74q-14 0 -23 -4.5t-17 -12.5q-11 -11 -15 -25
t-4 -35h-81q0 30 8.5 58.5t31.5 51.5q17 17 43.5 27.5t56.5 10.5zM195 240q-19 0 -32.5 -4t-25.5 -15q-11 -11 -17.5 -30.5t-6.5 -40.5q0 -41 15.5 -64t47.5 -23q29 0 47 22.5t18 58.5v96h-46zM311 586h-67l-60 87l-59 -87h-67l93 135h67z" />
    <glyph glyph-name="atilde" unicode="&#xe3;" horiz-adv-x="375" 
d="M180 526q65 0 101 -36q19 -20 30 -47t11 -67v-376h-77v46q-6 -11 -14 -20t-16 -15q-12 -9 -26 -14t-35 -5q-29 0 -50 9.5t-39 29.5q-15 17 -24 46t-9 70q0 36 11.5 66.5t34.5 50.5q20 17 44.5 26t65.5 9h53v82q0 74 -61 74q-14 0 -23 -4.5t-17 -12.5q-11 -11 -15 -25
t-4 -35h-81q0 30 8.5 58.5t31.5 51.5q17 17 43.5 27.5t56.5 10.5zM195 240q-19 0 -32.5 -4t-25.5 -15q-11 -11 -17.5 -30.5t-6.5 -40.5q0 -41 15.5 -64t47.5 -23q29 0 47 22.5t18 58.5v96h-46zM135 685q17 0 30 -4t28 -13q11 -7 21 -11t22 -4q9 0 18.5 3.5t25.5 19.5l38 -38
q-26 -25 -44 -33.5t-36 -8.5q-17 0 -30 4.5t-28 12.5q-11 7 -21 11t-22 4q-10 0 -19 -3t-26 -20l-36 38q25 25 42.5 33.5t36.5 8.5z" />
    <glyph glyph-name="adieresis" unicode="&#xe4;" horiz-adv-x="375" 
d="M180 526q65 0 101 -36q19 -20 30 -47t11 -67v-376h-77v46q-6 -11 -14 -20t-16 -15q-12 -9 -26 -14t-35 -5q-29 0 -50 9.5t-39 29.5q-15 17 -24 46t-9 70q0 36 11.5 66.5t34.5 50.5q20 17 44.5 26t65.5 9h53v82q0 74 -61 74q-14 0 -23 -4.5t-17 -12.5q-11 -11 -15 -25
t-4 -35h-81q0 30 8.5 58.5t31.5 51.5q17 17 43.5 27.5t56.5 10.5zM195 240q-19 0 -32.5 -4t-25.5 -15q-11 -11 -17.5 -30.5t-6.5 -40.5q0 -41 15.5 -64t47.5 -23q29 0 47 22.5t18 58.5v96h-46zM147 602h-82v82h82v-82zM304 602h-82v82h82v-82z" />
    <glyph glyph-name="aring" unicode="&#xe5;" horiz-adv-x="375" 
d="M180 526q65 0 101 -36q19 -20 30 -47t11 -67v-376h-77v46q-6 -11 -14 -20t-16 -15q-12 -9 -26 -14t-35 -5q-29 0 -50 9.5t-39 29.5q-15 17 -24 46t-9 70q0 36 11.5 66.5t34.5 50.5q20 17 44.5 26t65.5 9h53v82q0 74 -61 74q-14 0 -23 -4.5t-17 -12.5q-11 -11 -15 -25
t-4 -35h-81q0 30 8.5 58.5t31.5 51.5q17 17 43.5 27.5t56.5 10.5zM195 240q-19 0 -32.5 -4t-25.5 -15q-11 -11 -17.5 -30.5t-6.5 -40.5q0 -41 15.5 -64t47.5 -23q29 0 47 22.5t18 58.5v96h-46zM184 779q41 0 69.5 -28.5t28.5 -69.5t-28.5 -69.5t-69.5 -28.5q-20 0 -37.5 7.5
t-31 21t-21 31.5t-7.5 38t7.5 38t21 31.5t31 21t37.5 7.5zM184 730q-20 0 -34.5 -14.5t-14.5 -34.5t14.5 -34.5t34.5 -14.5t35 14.5t15 34.5t-15 34.5t-35 14.5z" />
    <glyph glyph-name="ae" unicode="&#xe6;" horiz-adv-x="576" 
d="M154 -8q-29 0 -50 9.5t-39 29.5q-15 17 -24 46t-9 70q0 36 11.5 66.5t34.5 50.5q20 17 44.5 26t65.5 9h53v82q0 74 -61 74q-14 0 -23 -4.5t-17 -12.5q-11 -11 -15 -25t-4 -35h-81q0 30 8.5 58.5t31.5 51.5q17 17 43.5 27.5t56.5 10.5q54 0 85 -26q10 -8 20 -22q3 5 7 9
l8 8q36 31 88 31q32 0 56.5 -9t45.5 -31q29 -31 37 -90.5t8 -155.5h-213q0 -62 3.5 -99t17.5 -54q8 -10 19 -16t27 -6q28 0 46 20q9 10 13.5 26t4.5 34h80q-1 -35 -10.5 -63.5t-30.5 -51.5q-19 -20 -45.5 -29t-57.5 -9q-50 0 -86 28q-11 8 -20 20t-16 24q-8 -15 -18 -28
t-21 -21q-14 -11 -31.5 -17t-42.5 -6zM176 63q29 0 47 22.5t18 58.5v96h-46q-19 0 -32.5 -4t-25.5 -15q-11 -11 -17.5 -30.5t-6.5 -40.5q0 -41 15.5 -64t47.5 -23zM453 301q0 57 -4 87t-16 44q-8 10 -18.5 15.5t-27.5 5.5t-27 -5.5t-18 -15.5q-12 -14 -16 -44t-4 -87h131z
" />
    <glyph glyph-name="ccedilla" unicode="&#xe7;" horiz-adv-x="364" 
d="M41 259q0 79 7 133.5t31 85.5q20 26 48 37t61 11q32 0 56.5 -7.5t44.5 -27.5q24 -23 32.5 -53.5t9.5 -63.5h-81q0 16 -2.5 31.5t-13.5 28.5q-17 20 -45 20q-14 0 -26 -6t-20 -16q-14 -20 -17.5 -61t-3.5 -112t3.5 -112t17.5 -61q8 -10 20 -16t26 -6q28 0 45 20
q11 13 13.5 28.5t2.5 31.5h81q-1 -33 -9.5 -63.5t-32.5 -53.5q-20 -20 -44.5 -27.5t-56.5 -7.5q-33 0 -61 11t-48 37q-24 31 -31 85.5t-7 133.5zM173 -182h-64l57 144h57z" />
    <glyph glyph-name="egrave" unicode="&#xe8;" 
d="M122 240q0 -62 3.5 -99t17.5 -54q7 -10 18.5 -16t27.5 -6q14 0 25 4.5t21 15.5t13.5 26t3.5 34h81q-1 -36 -10.5 -64t-31.5 -51q-37 -38 -102 -38q-33 0 -58 9t-45 31q-29 31 -37.5 88.5t-8.5 138.5q0 82 8 139t37 88q20 22 45 31t57 9t57 -9t45 -31q29 -31 37.5 -90.5
t8.5 -155.5h-213zM253 301q0 57 -4 87t-16 44q-8 10 -18.5 15.5t-27.5 5.5t-27 -5.5t-18 -15.5q-12 -14 -16 -44t-4 -87h131zM226 586h-62l-81 135h74z" />
    <glyph glyph-name="eacute" unicode="&#xe9;" 
d="M122 240q0 -62 3.5 -99t17.5 -54q7 -10 18.5 -16t27.5 -6q14 0 25 4.5t21 15.5t13.5 26t3.5 34h81q-1 -36 -10.5 -64t-31.5 -51q-37 -38 -102 -38q-33 0 -58 9t-45 31q-29 31 -37.5 88.5t-8.5 138.5q0 82 8 139t37 88q20 22 45 31t57 9t57 -9t45 -31q29 -31 37.5 -90.5
t8.5 -155.5h-213zM253 301q0 57 -4 87t-16 44q-8 10 -18.5 15.5t-27.5 5.5t-27 -5.5t-18 -15.5q-12 -14 -16 -44t-4 -87h131zM209 586h-61l68 135h74z" />
    <glyph glyph-name="ecircumflex" unicode="&#xea;" 
d="M122 240q0 -62 3.5 -99t17.5 -54q7 -10 18.5 -16t27.5 -6q14 0 25 4.5t21 15.5t13.5 26t3.5 34h81q-1 -36 -10.5 -64t-31.5 -51q-37 -38 -102 -38q-33 0 -58 9t-45 31q-29 31 -37.5 88.5t-8.5 138.5q0 82 8 139t37 88q20 22 45 31t57 9t57 -9t45 -31q29 -31 37.5 -90.5
t8.5 -155.5h-213zM253 301q0 57 -4 87t-16 44q-8 10 -18.5 15.5t-27.5 5.5t-27 -5.5t-18 -15.5q-12 -14 -16 -44t-4 -87h131zM314 586h-67l-60 87l-59 -87h-67l93 135h67z" />
    <glyph glyph-name="edieresis" unicode="&#xeb;" 
d="M122 240q0 -62 3.5 -99t17.5 -54q7 -10 18.5 -16t27.5 -6q14 0 25 4.5t21 15.5t13.5 26t3.5 34h81q-1 -36 -10.5 -64t-31.5 -51q-37 -38 -102 -38q-33 0 -58 9t-45 31q-29 31 -37.5 88.5t-8.5 138.5q0 82 8 139t37 88q20 22 45 31t57 9t57 -9t45 -31q29 -31 37.5 -90.5
t8.5 -155.5h-213zM253 301q0 57 -4 87t-16 44q-8 10 -18.5 15.5t-27.5 5.5t-27 -5.5t-18 -15.5q-12 -14 -16 -44t-4 -87h131zM150 602h-82v82h82v-82zM307 602h-82v82h82v-82z" />
    <glyph glyph-name="igrave" unicode="&#xec;" horiz-adv-x="195" 
d="M138 0h-81v518h81v-518zM137 586h-62l-81 135h74z" />
    <glyph glyph-name="iacute" unicode="&#xed;" horiz-adv-x="195" 
d="M138 0h-81v518h81v-518zM120 586h-61l68 135h74z" />
    <glyph glyph-name="icircumflex" unicode="&#xee;" horiz-adv-x="195" 
d="M138 0h-81v518h81v-518zM225 586h-67l-60 87l-59 -87h-67l93 135h67z" />
    <glyph glyph-name="idieresis" unicode="&#xef;" horiz-adv-x="195" 
d="M138 0h-81v518h81v-518zM61 602h-82v82h82v-82zM218 602h-82v82h82v-82z" />
    <glyph glyph-name="eth" unicode="&#xf0;" 
d="M79 37q-24 29 -31.5 81t-7.5 128q0 87 6.5 138t31.5 79q17 18 38.5 27.5t50.5 9.5q14 0 30 -4t28 -12l-31 92h-78v60h58l-27 76h82l27 -76h71v-60h-52l35 -109q6 -20 10.5 -41t7.5 -47t4.5 -58t1.5 -75q0 -76 -7 -128t-31 -81q-20 -24 -47 -34.5t-62 -10.5t-61.5 10.5
t-46.5 34.5zM233 86q14 18 17 56t3 105q0 68 -3 106t-17 56q-16 21 -46 21q-29 0 -45 -21q-14 -18 -17.5 -56t-3.5 -106q0 -67 3.5 -105t17.5 -56q8 -10 19.5 -16t25.5 -6t26 6t20 16z" />
    <glyph glyph-name="ntilde" unicode="&#xf1;" horiz-adv-x="395" 
d="M223 526q29 0 50 -9.5t38 -28.5q16 -17 23.5 -41t7.5 -66v-381h-81v381q0 35 -18 54t-44 19t-43.5 -19t-17.5 -54v-381h-81v518h78v-40q5 9 14.5 18t17.5 14q26 16 56 16zM150 685q17 0 30 -4t28 -13q11 -7 21 -11t22 -4q9 0 18.5 3.5t25.5 19.5l38 -38
q-26 -25 -44 -33.5t-36 -8.5q-17 0 -30 4.5t-28 12.5q-11 7 -21 11t-22 4q-10 0 -19 -3t-26 -20l-36 38q25 25 42.5 33.5t36.5 8.5z" />
    <glyph glyph-name="ograve" unicode="&#xf2;" 
d="M188 526q35 0 62.5 -11t47.5 -37q24 -31 30.5 -85.5t6.5 -133.5t-6.5 -133.5t-30.5 -85.5q-20 -26 -47.5 -37t-62.5 -11t-62 11t-47 37q-24 31 -31 85.5t-7 133.5t7 133.5t31 85.5q20 26 47 37t62 11zM188 454q-29 0 -45 -23q-14 -20 -17.5 -61t-3.5 -111t3.5 -111
t17.5 -61q16 -23 45 -23q30 0 46 23q14 20 17 61t3 111t-3 111t-17 61q-16 23 -46 23zM226 586h-62l-81 135h74z" />
    <glyph glyph-name="oacute" unicode="&#xf3;" 
d="M188 526q35 0 62.5 -11t47.5 -37q24 -31 30.5 -85.5t6.5 -133.5t-6.5 -133.5t-30.5 -85.5q-20 -26 -47.5 -37t-62.5 -11t-62 11t-47 37q-24 31 -31 85.5t-7 133.5t7 133.5t31 85.5q20 26 47 37t62 11zM188 454q-29 0 -45 -23q-14 -20 -17.5 -61t-3.5 -111t3.5 -111
t17.5 -61q16 -23 45 -23q30 0 46 23q14 20 17 61t3 111t-3 111t-17 61q-16 23 -46 23zM209 586h-61l68 135h74z" />
    <glyph glyph-name="ocircumflex" unicode="&#xf4;" 
d="M188 526q35 0 62.5 -11t47.5 -37q24 -31 30.5 -85.5t6.5 -133.5t-6.5 -133.5t-30.5 -85.5q-20 -26 -47.5 -37t-62.5 -11t-62 11t-47 37q-24 31 -31 85.5t-7 133.5t7 133.5t31 85.5q20 26 47 37t62 11zM188 454q-29 0 -45 -23q-14 -20 -17.5 -61t-3.5 -111t3.5 -111
t17.5 -61q16 -23 45 -23q30 0 46 23q14 20 17 61t3 111t-3 111t-17 61q-16 23 -46 23zM314 586h-67l-60 87l-59 -87h-67l93 135h67z" />
    <glyph glyph-name="otilde" unicode="&#xf5;" 
d="M188 526q35 0 62.5 -11t47.5 -37q24 -31 30.5 -85.5t6.5 -133.5t-6.5 -133.5t-30.5 -85.5q-20 -26 -47.5 -37t-62.5 -11t-62 11t-47 37q-24 31 -31 85.5t-7 133.5t7 133.5t31 85.5q20 26 47 37t62 11zM188 454q-29 0 -45 -23q-14 -20 -17.5 -61t-3.5 -111t3.5 -111
t17.5 -61q16 -23 45 -23q30 0 46 23q14 20 17 61t3 111t-3 111t-17 61q-16 23 -46 23zM138 685q17 0 30 -4t28 -13q11 -7 21 -11t22 -4q9 0 18.5 3.5t25.5 19.5l38 -38q-26 -25 -44 -33.5t-36 -8.5q-17 0 -30 4.5t-28 12.5q-11 7 -21 11t-22 4q-10 0 -19 -3t-26 -20l-36 38
q25 25 42.5 33.5t36.5 8.5z" />
    <glyph glyph-name="odieresis" unicode="&#xf6;" 
d="M188 526q35 0 62.5 -11t47.5 -37q24 -31 30.5 -85.5t6.5 -133.5t-6.5 -133.5t-30.5 -85.5q-20 -26 -47.5 -37t-62.5 -11t-62 11t-47 37q-24 31 -31 85.5t-7 133.5t7 133.5t31 85.5q20 26 47 37t62 11zM188 454q-29 0 -45 -23q-14 -20 -17.5 -61t-3.5 -111t3.5 -111
t17.5 -61q16 -23 45 -23q30 0 46 23q14 20 17 61t3 111t-3 111t-17 61q-16 23 -46 23zM150 602h-82v82h82v-82zM307 602h-82v82h82v-82z" />
    <glyph glyph-name="divide" unicode="&#xf7;" horiz-adv-x="444" 
d="M398 238h-352v78h352v-78zM273 60h-100v100h100v-100zM273 394h-100v99h100v-99z" />
    <glyph glyph-name="oslash" unicode="&#xf8;" horiz-adv-x="375" 
d="M72 48q-20 32 -26 84t-6 127q0 79 7 133.5t31 85.5q20 26 47 37t62 11q42 0 73 -16l21 52h58l-37 -91q21 -32 26.5 -84.5t5.5 -127.5q0 -79 -6.5 -133.5t-30.5 -85.5q-20 -26 -47.5 -37t-62.5 -11q-42 0 -73 16l-20 -52h-58zM229 436q-16 18 -42 18q-29 0 -45 -23
q-14 -20 -17.5 -61t-3.5 -111q0 -32 0.5 -57.5t2.5 -45.5zM187 64q30 0 46 23q14 20 17 61t3 111v58q0 26 -2 46l-105 -280q16 -19 41 -19z" />
    <glyph glyph-name="ugrave" unicode="&#xf9;" horiz-adv-x="395" 
d="M338 0h-78v40q-5 -9 -14.5 -18t-17.5 -14q-26 -16 -56 -16q-29 0 -50 9.5t-38 28.5q-16 17 -23.5 41t-7.5 66v381h81v-381q0 -35 18 -54t44 -19t43.5 19t17.5 54v381h81v-518zM234 586h-62l-81 135h74z" />
    <glyph glyph-name="uacute" unicode="&#xfa;" horiz-adv-x="395" 
d="M338 0h-78v40q-5 -9 -14.5 -18t-17.5 -14q-26 -16 -56 -16q-29 0 -50 9.5t-38 28.5q-16 17 -23.5 41t-7.5 66v381h81v-381q0 -35 18 -54t44 -19t43.5 19t17.5 54v381h81v-518zM217 586h-61l68 135h74z" />
    <glyph glyph-name="ucircumflex" unicode="&#xfb;" horiz-adv-x="395" 
d="M338 0h-78v40q-5 -9 -14.5 -18t-17.5 -14q-26 -16 -56 -16q-29 0 -50 9.5t-38 28.5q-16 17 -23.5 41t-7.5 66v381h81v-381q0 -35 18 -54t44 -19t43.5 19t17.5 54v381h81v-518zM322 586h-67l-60 87l-59 -87h-67l93 135h67z" />
    <glyph glyph-name="udieresis" unicode="&#xfc;" horiz-adv-x="395" 
d="M338 0h-78v40q-5 -9 -14.5 -18t-17.5 -14q-26 -16 -56 -16q-29 0 -50 9.5t-38 28.5q-16 17 -23.5 41t-7.5 66v381h81v-381q0 -35 18 -54t44 -19t43.5 19t17.5 54v381h81v-518zM158 602h-82v82h82v-82zM315 602h-82v82h82v-82z" />
    <glyph glyph-name="yacute" unicode="&#xfd;" horiz-adv-x="343" 
d="M193 -83q-8 -35 -24 -56.5t-38 -33.5t-50 -16.5t-60 -4.5v72q38 0 61 12.5t32 47.5l16 63l-126 517h89l79 -389l78 389h89zM193 586h-61l68 135h74z" />
    <glyph glyph-name="thorn" unicode="&#xfe;" horiz-adv-x="388" 
d="M309 488q25 -30 31.5 -84t6.5 -145q0 -92 -6.5 -145.5t-31.5 -83.5q-17 -20 -38 -29t-48 -9q-33 0 -56 16q-8 5 -15.5 12.5t-13.5 15.5v-230h-81v906h79v-234q5 8 14 17.5t17 14.5q12 8 25.5 12t30.5 4q52 0 86 -38zM158 437q-20 -20 -20 -60v-237q0 -21 5 -35t15 -24
q17 -17 42 -17q14 0 25 6t19 16q7 8 11.5 21t6.5 33t3 49t1 70q0 40 -1 69t-3 49.5t-6.5 33.5t-11.5 21q-8 10 -19 16t-25 6q-25 0 -42 -17z" />
    <glyph glyph-name="ydieresis" unicode="&#xff;" horiz-adv-x="343" 
d="M193 -83q-8 -35 -24 -56.5t-38 -33.5t-50 -16.5t-60 -4.5v72q38 0 61 12.5t32 47.5l16 63l-126 517h89l79 -389l78 389h89zM134 602h-82v82h82v-82zM291 602h-82v82h82v-82z" />
    <glyph glyph-name="Amacron" unicode="&#x100;" horiz-adv-x="425" 
d="M171 712h83l166 -712h-91l-34 168h-166l-34 -168h-90zM279 245l-67 328l-67 -328h134zM328 780h-228v58h228v-58z" />
    <glyph glyph-name="amacron" unicode="&#x101;" horiz-adv-x="375" 
d="M180 526q65 0 101 -36q19 -20 30 -47t11 -67v-376h-77v46q-6 -11 -14 -20t-16 -15q-12 -9 -26 -14t-35 -5q-29 0 -50 9.5t-39 29.5q-15 17 -24 46t-9 70q0 36 11.5 66.5t34.5 50.5q20 17 44.5 26t65.5 9h53v82q0 74 -61 74q-14 0 -23 -4.5t-17 -12.5q-11 -11 -15 -25
t-4 -35h-81q0 30 8.5 58.5t31.5 51.5q17 17 43.5 27.5t56.5 10.5zM195 240q-19 0 -32.5 -4t-25.5 -15q-11 -11 -17.5 -30.5t-6.5 -40.5q0 -41 15.5 -64t47.5 -23q29 0 47 22.5t18 58.5v96h-46zM299 608h-229v57h229v-57z" />
    <glyph glyph-name="Abreve" unicode="&#x102;" horiz-adv-x="425" 
d="M171 712h83l166 -712h-91l-34 168h-166l-34 -168h-90zM279 245l-67 328l-67 -328h134zM332 867q-4 -60 -35.5 -86t-82.5 -26q-50 0 -81.5 26t-35.5 86h58q4 -28 19.5 -40.5t39.5 -12.5q25 0 40.5 12.5t19.5 40.5h58z" />
    <glyph glyph-name="abreve" unicode="&#x103;" horiz-adv-x="375" 
d="M180 526q65 0 101 -36q19 -20 30 -47t11 -67v-376h-77v46q-6 -11 -14 -20t-16 -15q-12 -9 -26 -14t-35 -5q-29 0 -50 9.5t-39 29.5q-15 17 -24 46t-9 70q0 36 11.5 66.5t34.5 50.5q20 17 44.5 26t65.5 9h53v82q0 74 -61 74q-14 0 -23 -4.5t-17 -12.5q-11 -11 -15 -25
t-4 -35h-81q0 30 8.5 58.5t31.5 51.5q17 17 43.5 27.5t56.5 10.5zM195 240q-19 0 -32.5 -4t-25.5 -15q-11 -11 -17.5 -30.5t-6.5 -40.5q0 -41 15.5 -64t47.5 -23q29 0 47 22.5t18 58.5v96h-46zM302 691q-4 -60 -35.5 -86t-82.5 -26q-50 0 -81.5 26t-35.5 86h58
q4 -28 19.5 -40.5t39.5 -12.5q25 0 40.5 12.5t19.5 40.5h58z" />
    <glyph glyph-name="Aogonek" unicode="&#x104;" horiz-adv-x="425" 
d="M171 712h83l166 -712h-91l-34 168h-166l-34 -168h-90zM279 245l-67 328l-67 -328h134zM357 -182h-64l57 144h57z" />
    <glyph glyph-name="aogonek" unicode="&#x105;" horiz-adv-x="375" 
d="M180 526q65 0 101 -36q19 -20 30 -47t11 -67v-376h-77v46q-6 -11 -14 -20t-16 -15q-12 -9 -26 -14t-35 -5q-29 0 -50 9.5t-39 29.5q-15 17 -24 46t-9 70q0 36 11.5 66.5t34.5 50.5q20 17 44.5 26t65.5 9h53v82q0 74 -61 74q-14 0 -23 -4.5t-17 -12.5q-11 -11 -15 -25
t-4 -35h-81q0 30 8.5 58.5t31.5 51.5q17 17 43.5 27.5t56.5 10.5zM195 240q-19 0 -32.5 -4t-25.5 -15q-11 -11 -17.5 -30.5t-6.5 -40.5q0 -41 15.5 -64t47.5 -23q29 0 47 22.5t18 58.5v96h-46zM261 -182h-64l57 144h57z" />
    <glyph glyph-name="Cacute" unicode="&#x106;" horiz-adv-x="423" 
d="M221 720q38 0 65 -11t48 -31q25 -24 37.5 -60.5t13.5 -80.5h-85q-1 23 -5.5 44t-17.5 37q-8 11 -22 18t-34 7q-21 0 -35.5 -7.5t-23.5 -19.5q-9 -13 -15 -31.5t-9 -48t-4 -73.5t-1 -107t1 -107t4 -73.5t9 -48t15 -31.5q9 -12 23.5 -19.5t35.5 -7.5q20 0 34 7t22 18
q12 16 17 37.5t6 44.5h85q-1 -45 -14.5 -83t-39.5 -62q-21 -19 -48 -29t-62 -10q-42 0 -72 14.5t-50 37.5q-18 20 -28 43.5t-15.5 58.5t-7 85.5t-1.5 124.5t1.5 124.5t7 85.5t15.5 58.5t28 43.5q20 23 50 37.5t72 14.5zM246 762h-62l69 135h74z" />
    <glyph glyph-name="cacute" unicode="&#x107;" horiz-adv-x="364" 
d="M41 259q0 79 7 133.5t31 85.5q20 26 48 37t61 11q32 0 56.5 -7.5t44.5 -27.5q24 -23 32.5 -53.5t9.5 -63.5h-81q0 16 -2.5 31.5t-13.5 28.5q-17 20 -45 20q-14 0 -26 -6t-20 -16q-14 -20 -17.5 -61t-3.5 -112t3.5 -112t17.5 -61q8 -10 20 -16t26 -6q28 0 45 20
q11 13 13.5 28.5t2.5 31.5h81q-1 -33 -9.5 -63.5t-32.5 -53.5q-20 -20 -44.5 -27.5t-56.5 -7.5q-33 0 -61 11t-48 37q-24 31 -31 85.5t-7 133.5zM209 586h-61l68 135h74z" />
    <glyph glyph-name="Ccircumflex" unicode="&#x108;" horiz-adv-x="423" 
d="M221 720q38 0 65 -11t48 -31q25 -24 37.5 -60.5t13.5 -80.5h-85q-1 23 -5.5 44t-17.5 37q-8 11 -22 18t-34 7q-21 0 -35.5 -7.5t-23.5 -19.5q-9 -13 -15 -31.5t-9 -48t-4 -73.5t-1 -107t1 -107t4 -73.5t9 -48t15 -31.5q9 -12 23.5 -19.5t35.5 -7.5q20 0 34 7t22 18
q12 16 17 37.5t6 44.5h85q-1 -45 -14.5 -83t-39.5 -62q-21 -19 -48 -29t-62 -10q-42 0 -72 14.5t-50 37.5q-18 20 -28 43.5t-15.5 58.5t-7 85.5t-1.5 124.5t1.5 124.5t7 85.5t15.5 58.5t28 43.5q20 23 50 37.5t72 14.5zM347 762h-66l-60 87l-60 -87h-66l93 135h66z" />
    <glyph glyph-name="ccircumflex" unicode="&#x109;" horiz-adv-x="364" 
d="M41 259q0 79 7 133.5t31 85.5q20 26 48 37t61 11q32 0 56.5 -7.5t44.5 -27.5q24 -23 32.5 -53.5t9.5 -63.5h-81q0 16 -2.5 31.5t-13.5 28.5q-17 20 -45 20q-14 0 -26 -6t-20 -16q-14 -20 -17.5 -61t-3.5 -112t3.5 -112t17.5 -61q8 -10 20 -16t26 -6q28 0 45 20
q11 13 13.5 28.5t2.5 31.5h81q-1 -33 -9.5 -63.5t-32.5 -53.5q-20 -20 -44.5 -27.5t-56.5 -7.5q-33 0 -61 11t-48 37q-24 31 -31 85.5t-7 133.5zM314 586h-67l-60 87l-59 -87h-67l93 135h67z" />
    <glyph glyph-name="Cdotaccent" unicode="&#x10a;" horiz-adv-x="423" 
d="M221 720q38 0 65 -11t48 -31q25 -24 37.5 -60.5t13.5 -80.5h-85q-1 23 -5.5 44t-17.5 37q-8 11 -22 18t-34 7q-21 0 -35.5 -7.5t-23.5 -19.5q-9 -13 -15 -31.5t-9 -48t-4 -73.5t-1 -107t1 -107t4 -73.5t9 -48t15 -31.5q9 -12 23.5 -19.5t35.5 -7.5q20 0 34 7t22 18
q12 16 17 37.5t6 44.5h85q-1 -45 -14.5 -83t-39.5 -62q-21 -19 -48 -29t-62 -10q-42 0 -72 14.5t-50 37.5q-18 20 -28 43.5t-15.5 58.5t-7 85.5t-1.5 124.5t1.5 124.5t7 85.5t15.5 58.5t28 43.5q20 23 50 37.5t72 14.5zM262 777h-82v81h82v-81z" />
    <glyph glyph-name="cdotaccent" unicode="&#x10b;" horiz-adv-x="364" 
d="M41 259q0 79 7 133.5t31 85.5q20 26 48 37t61 11q32 0 56.5 -7.5t44.5 -27.5q24 -23 32.5 -53.5t9.5 -63.5h-81q0 16 -2.5 31.5t-13.5 28.5q-17 20 -45 20q-14 0 -26 -6t-20 -16q-14 -20 -17.5 -61t-3.5 -112t3.5 -112t17.5 -61q8 -10 20 -16t26 -6q28 0 45 20
q11 13 13.5 28.5t2.5 31.5h81q-1 -33 -9.5 -63.5t-32.5 -53.5q-20 -20 -44.5 -27.5t-56.5 -7.5q-33 0 -61 11t-48 37q-24 31 -31 85.5t-7 133.5zM228 602h-81v82h81v-82z" />
    <glyph glyph-name="Ccaron" unicode="&#x10c;" horiz-adv-x="423" 
d="M221 720q38 0 65 -11t48 -31q25 -24 37.5 -60.5t13.5 -80.5h-85q-1 23 -5.5 44t-17.5 37q-8 11 -22 18t-34 7q-21 0 -35.5 -7.5t-23.5 -19.5q-9 -13 -15 -31.5t-9 -48t-4 -73.5t-1 -107t1 -107t4 -73.5t9 -48t15 -31.5q9 -12 23.5 -19.5t35.5 -7.5q20 0 34 7t22 18
q12 16 17 37.5t6 44.5h85q-1 -45 -14.5 -83t-39.5 -62q-21 -19 -48 -29t-62 -10q-42 0 -72 14.5t-50 37.5q-18 20 -28 43.5t-15.5 58.5t-7 85.5t-1.5 124.5t1.5 124.5t7 85.5t15.5 58.5t28 43.5q20 23 50 37.5t72 14.5zM254 757h-67l-93 135h67l59 -87l60 87h67z" />
    <glyph glyph-name="ccaron" unicode="&#x10d;" horiz-adv-x="364" 
d="M41 259q0 79 7 133.5t31 85.5q20 26 48 37t61 11q32 0 56.5 -7.5t44.5 -27.5q24 -23 32.5 -53.5t9.5 -63.5h-81q0 16 -2.5 31.5t-13.5 28.5q-17 20 -45 20q-14 0 -26 -6t-20 -16q-14 -20 -17.5 -61t-3.5 -112t3.5 -112t17.5 -61q8 -10 20 -16t26 -6q28 0 45 20
q11 13 13.5 28.5t2.5 31.5h81q-1 -33 -9.5 -63.5t-32.5 -53.5q-20 -20 -44.5 -27.5t-56.5 -7.5q-33 0 -61 11t-48 37q-24 31 -31 85.5t-7 133.5zM221 582h-67l-93 135h67l59 -87l60 87h67z" />
    <glyph glyph-name="Dcaron" unicode="&#x10e;" horiz-adv-x="448" 
d="M228 712q44 0 73 -14t49 -36q17 -18 27 -41t15.5 -58t7 -85t1.5 -122t-1.5 -122t-7 -85t-15.5 -58t-27 -41q-20 -22 -49 -36t-73 -14h-164v712h164zM150 635v-558h75q21 0 36 7.5t25 19.5t16 30t9 47t3.5 71t0.5 104q0 61 -0.5 103.5t-3.5 71.5t-9 47t-16 30t-25 19.5
t-36 7.5h-75zM256 757h-67l-93 135h67l59 -87l60 87h67z" />
    <glyph glyph-name="dcaron" unicode="&#x10f;" horiz-adv-x="388" 
d="M78 30q-13 15 -20.5 35.5t-11.5 48t-5 63.5t-1 82t1 82t5 63.5t11.5 48t20.5 35.5q17 20 38 29t48 9q33 0 56 -16q8 -5 15.5 -12.5t13.5 -15.5v230h81v-712h-79v40q-5 -8 -14 -17.5t-17 -14.5q-12 -8 -25.5 -12t-30.5 -4q-52 0 -86 38zM229 81q20 20 20 60v237
q0 21 -5 35t-15 24q-17 17 -42 17q-14 0 -25 -6t-19 -16q-7 -8 -11.5 -21t-6.5 -33.5t-3 -49.5t-1 -69q0 -80 4 -118.5t18 -54.5q8 -10 19 -16t25 -6q25 0 42 17zM427 586h-55l23 144h66z" />
    <glyph glyph-name="Dcroat" unicode="&#x110;" horiz-adv-x="461" 
d="M241 712q44 0 73 -14t49 -36q17 -18 27 -41t15.5 -58t7 -85t1.5 -122t-1.5 -122t-7 -85t-15.5 -58t-27 -41q-20 -22 -49 -36t-73 -14h-164v328h-52v69h52v315h164zM163 635v-238h81v-69h-81v-251h75q21 0 36 7.5t25 19.5t16 30t9 47t3.5 71t0.5 104q0 61 -0.5 103.5
t-3.5 71.5t-9 47t-16 30t-25 19.5t-36 7.5h-75z" />
    <glyph glyph-name="dcroat" unicode="&#x111;" horiz-adv-x="409" 
d="M164 -8q-52 0 -86 38q-13 15 -20.5 35.5t-11.5 48t-5 63.5t-1 82t1 82t5 63.5t11.5 48t20.5 35.5q17 20 38 29t48 9q33 0 56 -16q8 -5 15.5 -12.5t13.5 -15.5v100h-87v54h87v76h81v-76h54v-54h-54v-582h-79v40q-5 -8 -14 -17.5t-17 -14.5q-12 -8 -25.5 -12t-30.5 -4z
M187 64q25 0 42 17q20 20 20 60v237q0 21 -5 35t-15 24q-17 17 -42 17q-14 0 -25 -6t-19 -16q-7 -8 -11.5 -21t-6.5 -33.5t-3 -49.5t-1 -69q0 -80 4 -118.5t18 -54.5q8 -10 19 -16t25 -6z" />
    <glyph glyph-name="Emacron" unicode="&#x112;" horiz-adv-x="380" 
d="M339 635h-189v-234h163v-77h-163v-247h189v-77h-275v712h275v-77zM320 780h-228v58h228v-58z" />
    <glyph glyph-name="emacron" unicode="&#x113;" 
d="M122 240q0 -62 3.5 -99t17.5 -54q7 -10 18.5 -16t27.5 -6q14 0 25 4.5t21 15.5t13.5 26t3.5 34h81q-1 -36 -10.5 -64t-31.5 -51q-37 -38 -102 -38q-33 0 -58 9t-45 31q-29 31 -37.5 88.5t-8.5 138.5q0 82 8 139t37 88q20 22 45 31t57 9t57 -9t45 -31q29 -31 37.5 -90.5
t8.5 -155.5h-213zM253 301q0 57 -4 87t-16 44q-8 10 -18.5 15.5t-27.5 5.5t-27 -5.5t-18 -15.5q-12 -14 -16 -44t-4 -87h131zM302 608h-229v57h229v-57z" />
    <glyph glyph-name="Ebreve" unicode="&#x114;" horiz-adv-x="380" 
d="M339 635h-189v-234h163v-77h-163v-247h189v-77h-275v712h275v-77zM324 867q-4 -60 -35.5 -86t-82.5 -26q-50 0 -81.5 26t-35.5 86h58q4 -28 19.5 -40.5t39.5 -12.5q25 0 40.5 12.5t19.5 40.5h58z" />
    <glyph glyph-name="ebreve" unicode="&#x115;" 
d="M122 240q0 -62 3.5 -99t17.5 -54q7 -10 18.5 -16t27.5 -6q14 0 25 4.5t21 15.5t13.5 26t3.5 34h81q-1 -36 -10.5 -64t-31.5 -51q-37 -38 -102 -38q-33 0 -58 9t-45 31q-29 31 -37.5 88.5t-8.5 138.5q0 82 8 139t37 88q20 22 45 31t57 9t57 -9t45 -31q29 -31 37.5 -90.5
t8.5 -155.5h-213zM253 301q0 57 -4 87t-16 44q-8 10 -18.5 15.5t-27.5 5.5t-27 -5.5t-18 -15.5q-12 -14 -16 -44t-4 -87h131zM305 691q-4 -60 -35.5 -86t-82.5 -26q-50 0 -81.5 26t-35.5 86h58q4 -28 19.5 -40.5t39.5 -12.5q25 0 40.5 12.5t19.5 40.5h58z" />
    <glyph glyph-name="Edotaccent" unicode="&#x116;" horiz-adv-x="380" 
d="M339 635h-189v-234h163v-77h-163v-247h189v-77h-275v712h275v-77zM247 777h-82v81h82v-81z" />
    <glyph glyph-name="edotaccent" unicode="&#x117;" 
d="M122 240q0 -62 3.5 -99t17.5 -54q7 -10 18.5 -16t27.5 -6q14 0 25 4.5t21 15.5t13.5 26t3.5 34h81q-1 -36 -10.5 -64t-31.5 -51q-37 -38 -102 -38q-33 0 -58 9t-45 31q-29 31 -37.5 88.5t-8.5 138.5q0 82 8 139t37 88q20 22 45 31t57 9t57 -9t45 -31q29 -31 37.5 -90.5
t8.5 -155.5h-213zM253 301q0 57 -4 87t-16 44q-8 10 -18.5 15.5t-27.5 5.5t-27 -5.5t-18 -15.5q-12 -14 -16 -44t-4 -87h131zM228 602h-81v82h81v-82z" />
    <glyph glyph-name="Eogonek" unicode="&#x118;" horiz-adv-x="380" 
d="M339 635h-189v-234h163v-77h-163v-247h189v-77h-275v712h275v-77zM274 -182h-64l57 144h57z" />
    <glyph glyph-name="eogonek" unicode="&#x119;" 
d="M122 240q0 -62 3.5 -99t17.5 -54q7 -10 18.5 -16t27.5 -6q14 0 25 4.5t21 15.5t13.5 26t3.5 34h81q-1 -36 -10.5 -64t-31.5 -51q-37 -38 -102 -38q-33 0 -58 9t-45 31q-29 31 -37.5 88.5t-8.5 138.5q0 82 8 139t37 88q20 22 45 31t57 9t57 -9t45 -31q29 -31 37.5 -90.5
t8.5 -155.5h-213zM253 301q0 57 -4 87t-16 44q-8 10 -18.5 15.5t-27.5 5.5t-27 -5.5t-18 -15.5q-12 -14 -16 -44t-4 -87h131zM239 -182h-64l57 144h57z" />
    <glyph glyph-name="Ecaron" unicode="&#x11a;" horiz-adv-x="380" 
d="M339 635h-189v-234h163v-77h-163v-247h189v-77h-275v712h275v-77zM239 757h-67l-93 135h67l59 -87l60 87h67z" />
    <glyph glyph-name="ecaron" unicode="&#x11b;" 
d="M122 240q0 -62 3.5 -99t17.5 -54q7 -10 18.5 -16t27.5 -6q14 0 25 4.5t21 15.5t13.5 26t3.5 34h81q-1 -36 -10.5 -64t-31.5 -51q-37 -38 -102 -38q-33 0 -58 9t-45 31q-29 31 -37.5 88.5t-8.5 138.5q0 82 8 139t37 88q20 22 45 31t57 9t57 -9t45 -31q29 -31 37.5 -90.5
t8.5 -155.5h-213zM253 301q0 57 -4 87t-16 44q-8 10 -18.5 15.5t-27.5 5.5t-27 -5.5t-18 -15.5q-12 -14 -16 -44t-4 -87h131zM221 582h-67l-93 135h67l59 -87l60 87h67z" />
    <glyph glyph-name="Gcircumflex" unicode="&#x11c;" horiz-adv-x="434" 
d="M221 720q38 0 66.5 -12t48.5 -32q25 -25 36.5 -61t12.5 -79h-85q0 18 -3.5 37t-12 34.5t-23.5 25.5t-40 10q-21 0 -35.5 -7.5t-23.5 -19.5q-9 -13 -15 -31.5t-9 -48t-4 -73.5t-1 -107t1 -107t4 -73.5t9 -48t15 -31.5q9 -12 23.5 -19.5t35.5 -7.5q38 0 58.5 27.5
t20.5 71.5v143h-79v71h165v-211q0 -45 -12.5 -78.5t-35 -56t-52.5 -33.5t-65 -11q-42 0 -72 14.5t-50 37.5q-17 19 -27.5 42.5t-16 58.5t-7 86t-1.5 125t1.5 124.5t7 86t16 59t27.5 42.5q20 23 50 37.5t72 14.5zM347 762h-66l-60 87l-60 -87h-66l93 135h66z" />
    <glyph glyph-name="gcircumflex" unicode="&#x11d;" horiz-adv-x="387" 
d="M166 526q34 0 56 -16q8 -5 16 -12.5t14 -15.5v36h78v-536q0 -57 -10 -89.5t-32 -55.5q-17 -18 -44.5 -28.5t-57.5 -10.5t-56.5 9t-46.5 28q-22 22 -31 50t-9 62h81q0 -20 3.5 -35t14.5 -27q8 -9 19 -12.5t25 -3.5q28 0 44 18q11 12 15 33.5t4 57.5v75q-11 -17 -28 -29
q-23 -17 -55 -17q-51 0 -84 39q-12 14 -20 32.5t-12.5 44.5t-6.5 61.5t-2 82.5q0 48 2 83t6.5 61.5t12.5 45t20 32.5q17 19 37 28t47 9zM187 454q-14 0 -25 -6t-19 -16q-7 -8 -11 -20.5t-6.5 -32t-3 -47t-0.5 -66.5t0.5 -66.5t3 -47t6.5 -32t11 -20.5q8 -9 19 -15t25 -6
q25 0 43 16q19 19 19 60v223q0 40 -19 59q-17 17 -43 17zM314 586h-67l-60 87l-59 -87h-67l93 135h67z" />
    <glyph glyph-name="Gbreve" unicode="&#x11e;" horiz-adv-x="434" 
d="M221 720q38 0 66.5 -12t48.5 -32q25 -25 36.5 -61t12.5 -79h-85q0 18 -3.5 37t-12 34.5t-23.5 25.5t-40 10q-21 0 -35.5 -7.5t-23.5 -19.5q-9 -13 -15 -31.5t-9 -48t-4 -73.5t-1 -107t1 -107t4 -73.5t9 -48t15 -31.5q9 -12 23.5 -19.5t35.5 -7.5q38 0 58.5 27.5
t20.5 71.5v143h-79v71h165v-211q0 -45 -12.5 -78.5t-35 -56t-52.5 -33.5t-65 -11q-42 0 -72 14.5t-50 37.5q-17 19 -27.5 42.5t-16 58.5t-7 86t-1.5 125t1.5 124.5t7 86t16 59t27.5 42.5q20 23 50 37.5t72 14.5zM339 867q-4 -60 -35.5 -86t-82.5 -26q-50 0 -81.5 26
t-35.5 86h58q4 -28 19.5 -40.5t39.5 -12.5q25 0 40.5 12.5t19.5 40.5h58z" />
    <glyph glyph-name="gbreve" unicode="&#x11f;" horiz-adv-x="387" 
d="M166 526q34 0 56 -16q8 -5 16 -12.5t14 -15.5v36h78v-536q0 -57 -10 -89.5t-32 -55.5q-17 -18 -44.5 -28.5t-57.5 -10.5t-56.5 9t-46.5 28q-22 22 -31 50t-9 62h81q0 -20 3.5 -35t14.5 -27q8 -9 19 -12.5t25 -3.5q28 0 44 18q11 12 15 33.5t4 57.5v75q-11 -17 -28 -29
q-23 -17 -55 -17q-51 0 -84 39q-12 14 -20 32.5t-12.5 44.5t-6.5 61.5t-2 82.5q0 48 2 83t6.5 61.5t12.5 45t20 32.5q17 19 37 28t47 9zM187 454q-14 0 -25 -6t-19 -16q-7 -8 -11 -20.5t-6.5 -32t-3 -47t-0.5 -66.5t0.5 -66.5t3 -47t6.5 -32t11 -20.5q8 -9 19 -15t25 -6
q25 0 43 16q19 19 19 60v223q0 40 -19 59q-17 17 -43 17zM305 691q-4 -60 -35.5 -86t-82.5 -26q-50 0 -81.5 26t-35.5 86h58q4 -28 19.5 -40.5t39.5 -12.5q25 0 40.5 12.5t19.5 40.5h58z" />
    <glyph glyph-name="Gdotaccent" unicode="&#x120;" horiz-adv-x="434" 
d="M221 720q38 0 66.5 -12t48.5 -32q25 -25 36.5 -61t12.5 -79h-85q0 18 -3.5 37t-12 34.5t-23.5 25.5t-40 10q-21 0 -35.5 -7.5t-23.5 -19.5q-9 -13 -15 -31.5t-9 -48t-4 -73.5t-1 -107t1 -107t4 -73.5t9 -48t15 -31.5q9 -12 23.5 -19.5t35.5 -7.5q38 0 58.5 27.5
t20.5 71.5v143h-79v71h165v-211q0 -45 -12.5 -78.5t-35 -56t-52.5 -33.5t-65 -11q-42 0 -72 14.5t-50 37.5q-17 19 -27.5 42.5t-16 58.5t-7 86t-1.5 125t1.5 124.5t7 86t16 59t27.5 42.5q20 23 50 37.5t72 14.5zM262 777h-82v81h82v-81z" />
    <glyph glyph-name="gdotaccent" unicode="&#x121;" horiz-adv-x="387" 
d="M166 526q34 0 56 -16q8 -5 16 -12.5t14 -15.5v36h78v-536q0 -57 -10 -89.5t-32 -55.5q-17 -18 -44.5 -28.5t-57.5 -10.5t-56.5 9t-46.5 28q-22 22 -31 50t-9 62h81q0 -20 3.5 -35t14.5 -27q8 -9 19 -12.5t25 -3.5q28 0 44 18q11 12 15 33.5t4 57.5v75q-11 -17 -28 -29
q-23 -17 -55 -17q-51 0 -84 39q-12 14 -20 32.5t-12.5 44.5t-6.5 61.5t-2 82.5q0 48 2 83t6.5 61.5t12.5 45t20 32.5q17 19 37 28t47 9zM187 454q-14 0 -25 -6t-19 -16q-7 -8 -11 -20.5t-6.5 -32t-3 -47t-0.5 -66.5t0.5 -66.5t3 -47t6.5 -32t11 -20.5q8 -9 19 -15t25 -6
q25 0 43 16q19 19 19 60v223q0 40 -19 59q-17 17 -43 17zM228 602h-81v82h81v-82z" />
    <glyph glyph-name="uni0122" unicode="&#x122;" horiz-adv-x="434" 
d="M221 720q38 0 66.5 -12t48.5 -32q25 -25 36.5 -61t12.5 -79h-85q0 18 -3.5 37t-12 34.5t-23.5 25.5t-40 10q-21 0 -35.5 -7.5t-23.5 -19.5q-9 -13 -15 -31.5t-9 -48t-4 -73.5t-1 -107t1 -107t4 -73.5t9 -48t15 -31.5q9 -12 23.5 -19.5t35.5 -7.5q38 0 58.5 27.5
t20.5 71.5v143h-79v71h165v-211q0 -45 -12.5 -78.5t-35 -56t-52.5 -33.5t-65 -11q-42 0 -72 14.5t-50 37.5q-17 19 -27.5 42.5t-16 58.5t-7 86t-1.5 125t1.5 124.5t7 86t16 59t27.5 42.5q20 23 50 37.5t72 14.5zM202 -182h-64l57 144h57z" />
    <glyph glyph-name="uni0123" unicode="&#x123;" horiz-adv-x="387" 
d="M166 526q34 0 56 -16q8 -5 16 -12.5t14 -15.5v36h78v-536q0 -57 -10 -89.5t-32 -55.5q-17 -18 -44.5 -28.5t-57.5 -10.5t-56.5 9t-46.5 28q-22 22 -31 50t-9 62h81q0 -20 3.5 -35t14.5 -27q8 -9 19 -12.5t25 -3.5q28 0 44 18q11 12 15 33.5t4 57.5v75q-11 -17 -28 -29
q-23 -17 -55 -17q-51 0 -84 39q-12 14 -20 32.5t-12.5 44.5t-6.5 61.5t-2 82.5q0 48 2 83t6.5 61.5t12.5 45t20 32.5q17 19 37 28t47 9zM187 454q-14 0 -25 -6t-19 -16q-7 -8 -11 -20.5t-6.5 -32t-3 -47t-0.5 -66.5t0.5 -66.5t3 -47t6.5 -32t11 -20.5q8 -9 19 -15t25 -6
q25 0 43 16q19 19 19 60v223q0 40 -19 59q-17 17 -43 17zM218 586h-57l49 144h65z" />
    <glyph glyph-name="Hcircumflex" unicode="&#x124;" horiz-adv-x="458" 
d="M394 0h-86v324h-158v-324h-86v712h86v-311h158v311h86v-712zM355 762h-66l-60 87l-60 -87h-66l93 135h66z" />
    <glyph glyph-name="hcircumflex" unicode="&#x125;" horiz-adv-x="395" 
d="M138 481q5 8 13 16t16 13q26 16 56 16q29 0 50 -9.5t38 -28.5q16 -17 23.5 -41t7.5 -66v-381h-81v381q0 36 -18 54.5t-44 18.5t-43.5 -18.5t-17.5 -54.5v-381h-81v712h81v-231zM225 761h-67l-60 87l-59 -87h-67l93 135h67z" />
    <glyph glyph-name="Hbar" unicode="&#x126;" horiz-adv-x="480" 
d="M75 519h-50v68h50v125h86v-125h158v125h86v-125h50v-68h-50v-519h-86v324h-158v-324h-86v519zM319 401v118h-158v-118h158z" />
    <glyph glyph-name="hbar" unicode="&#x127;" horiz-adv-x="416" 
d="M159 636h88v-54h-88v-101q5 8 13 16t16 13q26 16 56 16q29 0 50 -9.5t38 -28.5q16 -17 23.5 -41t7.5 -66v-381h-81v381q0 36 -18 54.5t-44 18.5t-43.5 -18.5t-17.5 -54.5v-381h-81v582h-53v54h53v76h81v-76z" />
    <glyph glyph-name="Itilde" unicode="&#x128;" horiz-adv-x="214" 
d="M150 0h-86v712h86v-712zM57 861q20 0 32.5 -5t23.5 -12q11 -6 21 -11t24 -5q15 0 25 7t19 16l38 -37q-17 -17 -36 -29.5t-44 -12.5q-20 0 -33 5t-24 11t-21 11t-23 5q-14 0 -24.5 -7t-20.5 -16l-36 37q21 22 39 32.5t40 10.5z" />
    <glyph glyph-name="itilde" unicode="&#x129;" horiz-adv-x="195" 
d="M138 0h-81v518h81v-518zM49 685q17 0 30 -4t28 -13q11 -7 21 -11t22 -4q9 0 18.5 3.5t25.5 19.5l38 -38q-26 -25 -44 -33.5t-36 -8.5q-17 0 -30 4.5t-28 12.5q-11 7 -21 11t-22 4q-10 0 -19 -3t-26 -20l-36 38q25 25 42.5 33.5t36.5 8.5z" />
    <glyph glyph-name="Imacron" unicode="&#x12a;" horiz-adv-x="214" 
d="M150 0h-86v712h86v-712zM223 780h-228v58h228v-58z" />
    <glyph glyph-name="imacron" unicode="&#x12b;" horiz-adv-x="195" 
d="M138 0h-81v518h81v-518zM213 608h-229v57h229v-57z" />
    <glyph glyph-name="Ibreve" unicode="&#x12c;" horiz-adv-x="214" 
d="M150 0h-86v712h86v-712zM227 867q-4 -60 -35.5 -86t-82.5 -26q-50 0 -81.5 26t-35.5 86h58q4 -28 19.5 -40.5t39.5 -12.5q25 0 40.5 12.5t19.5 40.5h58z" />
    <glyph glyph-name="ibreve" unicode="&#x12d;" horiz-adv-x="195" 
d="M138 0h-81v518h81v-518zM216 691q-4 -60 -35.5 -86t-82.5 -26q-50 0 -81.5 26t-35.5 86h58q4 -28 19.5 -40.5t39.5 -12.5q25 0 40.5 12.5t19.5 40.5h58z" />
    <glyph glyph-name="Iogonek" unicode="&#x12e;" horiz-adv-x="214" 
d="M150 0h-86v712h86v-712zM90 -182h-64l57 144h57z" />
    <glyph glyph-name="iogonek" unicode="&#x12f;" horiz-adv-x="195" 
d="M138 0h-81v518h81v-518zM145 610h-95v94h95v-94zM84 -182h-64l57 144h57z" />
    <glyph glyph-name="Idotaccent" unicode="&#x130;" horiz-adv-x="214" 
d="M150 0h-86v712h86v-712zM150 777h-82v81h82v-81z" />
    <glyph glyph-name="dotlessi" unicode="&#x131;" horiz-adv-x="195" 
d="M138 0h-81v518h81v-518z" />
    <glyph glyph-name="IJ" unicode="&#x132;" horiz-adv-x="575" 
d="M150 0h-86v712h86v-712zM517 170q0 -41 -11 -74t-34 -56q-47 -48 -126 -48q-40 0 -72 14t-55 40l61 57q11 -14 28.5 -24t37.5 -10q36 0 60.5 25.5t24.5 75.5v542h86v-542z" />
    <glyph glyph-name="ij" unicode="&#x133;" horiz-adv-x="390" 
d="M138 0h-81v518h81v-518zM145 610h-95v94h95v-94zM333 -46q0 -43 -12.5 -71t-33.5 -45q-23 -20 -51.5 -26t-61.5 -6v73q38 0 58 17t20 61v561h81v-564zM340 610h-95v94h95v-94z" />
    <glyph glyph-name="Jcircumflex" unicode="&#x134;" horiz-adv-x="361" 
d="M303 170q0 -41 -11 -74t-34 -56q-47 -48 -126 -48q-40 0 -72 14t-55 40l61 57q11 -14 28.5 -24t37.5 -10q36 0 60.5 25.5t24.5 75.5v542h86v-542zM387 762h-66l-60 87l-60 -87h-66l93 135h66z" />
    <glyph glyph-name="jcircumflex" unicode="&#x135;" horiz-adv-x="195" 
d="M138 -46q0 -43 -12.5 -71t-33.5 -45q-23 -20 -51.5 -26t-61.5 -6v73q38 0 58 17t20 61v561h81v-564zM225 586h-67l-60 87l-59 -87h-67l93 135h67z" />
    <glyph glyph-name="uni0136" unicode="&#x136;" horiz-adv-x="446" 
d="M266 418l165 -418h-93l-126 322l-62 -123v-199h-86v712h86v-361l172 361h88zM217 -182h-64l57 144h57z" />
    <glyph glyph-name="uni0137" unicode="&#x137;" horiz-adv-x="396" 
d="M138 272l147 246h86l-126 -202l138 -316h-90l-99 244l-56 -89v-155h-81v712h81v-440zM205 -182h-64l57 144h57z" />
    <glyph glyph-name="kgreenlandic" unicode="&#x138;" horiz-adv-x="396" 
d="M245 316l138 -316h-90l-99 244l-56 -89v-155h-81v518h81v-246l147 246h86z" />
    <glyph glyph-name="Lacute" unicode="&#x139;" horiz-adv-x="361" 
d="M150 77h189v-77h-275v712h86v-635zM134 762h-62l69 135h74z" />
    <glyph glyph-name="lacute" unicode="&#x13a;" horiz-adv-x="228" 
d="M134 151q0 -78 77 -78v-73q-33 0 -61 6t-51 26q-21 17 -33.5 45t-12.5 71v564h81v-561zM120 761h-61l68 135h74z" />
    <glyph glyph-name="uni013B" unicode="&#x13b;" horiz-adv-x="361" 
d="M150 77h189v-77h-275v712h86v-635zM188 -182h-64l57 144h57z" />
    <glyph glyph-name="uni013C" unicode="&#x13c;" horiz-adv-x="228" 
d="M134 151q0 -78 77 -78v-73q-33 0 -61 6t-51 26q-21 17 -33.5 45t-12.5 71v564h81v-561zM99 -182h-64l57 144h57z" />
    <glyph glyph-name="Lcaron" unicode="&#x13d;" horiz-adv-x="361" 
d="M150 77h189v-77h-275v712h86v-635zM267 569h-55l23 144h66z" />
    <glyph glyph-name="lcaron" unicode="&#x13e;" horiz-adv-x="228" 
d="M134 151q0 -78 77 -78v-73q-33 0 -61 6t-51 26q-21 17 -33.5 45t-12.5 71v564h81v-561zM231 586h-55l23 144h66z" />
    <glyph glyph-name="Ldot" unicode="&#x13f;" horiz-adv-x="361" 
d="M150 77h189v-77h-275v712h86v-635zM329 317h-82v81h82v-81z" />
    <glyph glyph-name="ldot" unicode="&#x140;" horiz-adv-x="264" 
d="M134 151q0 -78 77 -78v-73q-33 0 -61 6t-51 26q-21 17 -33.5 45t-12.5 71v564h81v-561zM269 261h-81v82h81v-82z" />
    <glyph glyph-name="Lslash" unicode="&#x141;" horiz-adv-x="369" 
d="M159 432l94 84v-85l-94 -84v-270h188v-77h-274v276l-48 -44v85l48 44v351h86v-280z" />
    <glyph glyph-name="lslash" unicode="&#x142;" horiz-adv-x="251" 
d="M157 459l58 57v-82l-58 -56v-227q0 -78 77 -78v-73q-33 0 -61 6t-51 26q-21 17 -33.5 45t-12.5 71v160l-57 -55v81l57 56v322h81v-253z" />
    <glyph glyph-name="Nacute" unicode="&#x143;" horiz-adv-x="476" 
d="M412 0h-78l-184 487v-487h-86v712h80l182 -487v487h86v-712zM263 762h-62l69 135h74z" />
    <glyph glyph-name="nacute" unicode="&#x144;" horiz-adv-x="395" 
d="M223 526q29 0 50 -9.5t38 -28.5q16 -17 23.5 -41t7.5 -66v-381h-81v381q0 35 -18 54t-44 19t-43.5 -19t-17.5 -54v-381h-81v518h78v-40q5 9 14.5 18t17.5 14q26 16 56 16zM221 586h-61l68 135h74z" />
    <glyph glyph-name="uni0145" unicode="&#x145;" horiz-adv-x="476" 
d="M412 0h-78l-184 487v-487h-86v712h80l182 -487v487h86v-712zM219 -182h-64l57 144h57z" />
    <glyph glyph-name="uni0146" unicode="&#x146;" horiz-adv-x="395" 
d="M223 526q29 0 50 -9.5t38 -28.5q16 -17 23.5 -41t7.5 -66v-381h-81v381q0 35 -18 54t-44 19t-43.5 -19t-17.5 -54v-381h-81v518h78v-40q5 9 14.5 18t17.5 14q26 16 56 16zM185 -182h-64l57 144h57z" />
    <glyph glyph-name="Ncaron" unicode="&#x147;" horiz-adv-x="476" 
d="M412 0h-78l-184 487v-487h-86v712h80l182 -487v487h86v-712zM271 757h-67l-93 135h67l59 -87l60 87h67z" />
    <glyph glyph-name="ncaron" unicode="&#x148;" horiz-adv-x="395" 
d="M223 526q29 0 50 -9.5t38 -28.5q16 -17 23.5 -41t7.5 -66v-381h-81v381q0 35 -18 54t-44 19t-43.5 -19t-17.5 -54v-381h-81v518h78v-40q5 9 14.5 18t17.5 14q26 16 56 16zM233 582h-67l-93 135h67l59 -87l60 87h67z" />
    <glyph glyph-name="napostrophe" unicode="&#x149;" horiz-adv-x="598" 
d="M148 600l-93 -68v180h93v-112zM426 526q29 0 50 -9.5t38 -28.5q16 -17 23.5 -41t7.5 -66v-381h-81v381q0 35 -18 54t-44 19t-43.5 -19t-17.5 -54v-381h-81v518h78v-40q5 9 14.5 18t17.5 14q26 16 56 16z" />
    <glyph glyph-name="Eng" unicode="&#x14a;" horiz-adv-x="476" 
d="M412 -31q0 -44 -12.5 -71.5t-33.5 -44.5q-23 -20 -51.5 -26t-60.5 -6v76q34 0 53 16.5t19 58.5v52l-176 463v-487h-86v712h80l182 -478v478h86v-743z" />
    <glyph glyph-name="eng" unicode="&#x14b;" horiz-adv-x="395" 
d="M223 526q29 0 50 -9.5t38 -28.5q16 -17 23.5 -41t7.5 -66v-415q0 -43 -12.5 -70.5t-33.5 -44.5q-23 -20 -51.5 -26.5t-61.5 -6.5v73q38 0 58 17t20 61v412q0 35 -18 54t-44 19t-43.5 -19t-17.5 -54v-381h-81v518h78v-40q5 9 14.5 18t17.5 14q26 16 56 16z" />
    <glyph glyph-name="Omacron" unicode="&#x14c;" horiz-adv-x="442" 
d="M221 -8q-42 0 -72 14.5t-50 37.5q-17 19 -27 42.5t-15.5 59t-7.5 86t-2 124.5t2 124.5t7.5 86t15.5 58.5t27 43q20 23 50 37.5t72 14.5t72.5 -14.5t50.5 -37.5q17 -19 27 -42.5t15.5 -59t7 -86t1.5 -124.5t-1.5 -125t-7 -86t-15.5 -58.5t-27 -42.5q-20 -23 -50.5 -37.5
t-72.5 -14.5zM221 69q21 0 35.5 7.5t22.5 19.5q10 13 16 31.5t9 48t4 73.5t1 107t-1 107t-4 73.5t-9 48t-16 31.5q-8 12 -22.5 19.5t-35.5 7.5t-35.5 -7.5t-22.5 -19.5q-10 -13 -16 -31.5t-9 -48t-4 -73.5t-1 -107t1 -107t4 -73.5t9 -48t16 -31.5q8 -12 22.5 -19.5
t35.5 -7.5zM335 780h-228v58h228v-58z" />
    <glyph glyph-name="omacron" unicode="&#x14d;" 
d="M188 526q35 0 62.5 -11t47.5 -37q24 -31 30.5 -85.5t6.5 -133.5t-6.5 -133.5t-30.5 -85.5q-20 -26 -47.5 -37t-62.5 -11t-62 11t-47 37q-24 31 -31 85.5t-7 133.5t7 133.5t31 85.5q20 26 47 37t62 11zM188 454q-29 0 -45 -23q-14 -20 -17.5 -61t-3.5 -111t3.5 -111
t17.5 -61q16 -23 45 -23q30 0 46 23q14 20 17 61t3 111t-3 111t-17 61q-16 23 -46 23zM302 608h-229v57h229v-57z" />
    <glyph glyph-name="Obreve" unicode="&#x14e;" horiz-adv-x="442" 
d="M221 -8q-42 0 -72 14.5t-50 37.5q-17 19 -27 42.5t-15.5 59t-7.5 86t-2 124.5t2 124.5t7.5 86t15.5 58.5t27 43q20 23 50 37.5t72 14.5t72.5 -14.5t50.5 -37.5q17 -19 27 -42.5t15.5 -59t7 -86t1.5 -124.5t-1.5 -125t-7 -86t-15.5 -58.5t-27 -42.5q-20 -23 -50.5 -37.5
t-72.5 -14.5zM221 69q21 0 35.5 7.5t22.5 19.5q10 13 16 31.5t9 48t4 73.5t1 107t-1 107t-4 73.5t-9 48t-16 31.5q-8 12 -22.5 19.5t-35.5 7.5t-35.5 -7.5t-22.5 -19.5q-10 -13 -16 -31.5t-9 -48t-4 -73.5t-1 -107t1 -107t4 -73.5t9 -48t16 -31.5q8 -12 22.5 -19.5
t35.5 -7.5zM339 867q-4 -60 -35.5 -86t-82.5 -26q-50 0 -81.5 26t-35.5 86h58q4 -28 19.5 -40.5t39.5 -12.5q25 0 40.5 12.5t19.5 40.5h58z" />
    <glyph glyph-name="obreve" unicode="&#x14f;" 
d="M188 526q35 0 62.5 -11t47.5 -37q24 -31 30.5 -85.5t6.5 -133.5t-6.5 -133.5t-30.5 -85.5q-20 -26 -47.5 -37t-62.5 -11t-62 11t-47 37q-24 31 -31 85.5t-7 133.5t7 133.5t31 85.5q20 26 47 37t62 11zM188 454q-29 0 -45 -23q-14 -20 -17.5 -61t-3.5 -111t3.5 -111
t17.5 -61q16 -23 45 -23q30 0 46 23q14 20 17 61t3 111t-3 111t-17 61q-16 23 -46 23zM305 691q-4 -60 -35.5 -86t-82.5 -26q-50 0 -81.5 26t-35.5 86h58q4 -28 19.5 -40.5t39.5 -12.5q25 0 40.5 12.5t19.5 40.5h58z" />
    <glyph glyph-name="Ohungarumlaut" unicode="&#x150;" horiz-adv-x="442" 
d="M221 -8q-42 0 -72 14.5t-50 37.5q-17 19 -27 42.5t-15.5 59t-7.5 86t-2 124.5t2 124.5t7.5 86t15.5 58.5t27 43q20 23 50 37.5t72 14.5t72.5 -14.5t50.5 -37.5q17 -19 27 -42.5t15.5 -59t7 -86t1.5 -124.5t-1.5 -125t-7 -86t-15.5 -58.5t-27 -42.5q-20 -23 -50.5 -37.5
t-72.5 -14.5zM221 69q21 0 35.5 7.5t22.5 19.5q10 13 16 31.5t9 48t4 73.5t1 107t-1 107t-4 73.5t-9 48t-16 31.5q-8 12 -22.5 19.5t-35.5 7.5t-35.5 -7.5t-22.5 -19.5q-10 -13 -16 -31.5t-9 -48t-4 -73.5t-1 -107t1 -107t4 -73.5t9 -48t16 -31.5q8 -12 22.5 -19.5
t35.5 -7.5zM254 897l-68 -135h-59l53 135h74zM380 897l-69 -135h-58l53 135h74z" />
    <glyph glyph-name="ohungarumlaut" unicode="&#x151;" 
d="M188 526q35 0 62.5 -11t47.5 -37q24 -31 30.5 -85.5t6.5 -133.5t-6.5 -133.5t-30.5 -85.5q-20 -26 -47.5 -37t-62.5 -11t-62 11t-47 37q-24 31 -31 85.5t-7 133.5t7 133.5t31 85.5q20 26 47 37t62 11zM188 454q-29 0 -45 -23q-14 -20 -17.5 -61t-3.5 -111t3.5 -111
t17.5 -61q16 -23 45 -23q30 0 46 23q14 20 17 61t3 111t-3 111t-17 61q-16 23 -46 23zM220 721l-69 -135h-58l53 135h74zM345 721l-68 -135h-58l52 135h74z" />
    <glyph glyph-name="OE" unicode="&#x152;" horiz-adv-x="624" 
d="M221 -8q-42 0 -72 14.5t-50 37.5q-17 19 -27 42.5t-15.5 59t-7.5 86t-2 124.5t2 125t7.5 86t15.5 58.5t27 43.5q20 23 49.5 37t70.5 14q29 0 54.5 -11t39.5 -30v33h270v-77h-188v-234h163v-77h-163v-247h188v-77h-270v33q-16 -20 -40.5 -30.5t-51.5 -10.5zM221 69
q20 0 35 7.5t23 19.5q9 13 15 31.5t9.5 48t4.5 73.5t1 107t-1 107t-4 73.5t-9 48t-16 31.5q-8 12 -23 19.5t-35 7.5q-21 0 -35.5 -7.5t-22.5 -19.5q-9 -13 -15 -31.5t-9.5 -48t-4.5 -73.5t-1 -107t1 -107t4.5 -73.5t9.5 -48t15 -31.5q8 -12 22.5 -19.5t35.5 -7.5z" />
    <glyph glyph-name="oe" unicode="&#x153;" horiz-adv-x="590" 
d="M401 453q-17 0 -27 -5.5t-18 -15.5q-12 -14 -16 -44t-4 -87h131q0 57 -4 87t-16 44q-8 10 -18.5 15.5t-27.5 5.5zM188 526q56 0 91 -33q5 -5 9 -10.5t8 -12.5q6 14 18 24q38 32 88 32q31 0 56 -9t45 -31q29 -31 37.5 -90.5t8.5 -155.5h-213q0 -62 3.5 -99t17.5 -54
q7 -10 18.5 -16t27.5 -6q29 0 46 20q10 11 13.5 26t3.5 34h81q-1 -36 -10.5 -64t-31.5 -51q-37 -38 -102 -38q-28 0 -50.5 9t-38.5 23q-11 11 -18 25q-7 -15 -18 -25q-17 -14 -39.5 -23t-50.5 -9q-35 0 -62 11t-47 37q-24 31 -31 85.5t-7 133.5t7 133.5t31 85.5q20 26 47 37
t62 11zM188 454q-29 0 -45 -23q-14 -20 -17.5 -61t-3.5 -111t3.5 -111t17.5 -61q16 -23 45 -23q30 0 46 23q14 20 17 61t3 111t-3 111t-17 61q-16 23 -46 23z" />
    <glyph glyph-name="Racute" unicode="&#x154;" horiz-adv-x="455" 
d="M225 712q40 0 71.5 -10t53 -33t32.5 -62.5t11 -97.5q0 -75 -19.5 -119.5t-66.5 -66.5l109 -323h-91l-98 306h-77v-306h-86v712h161zM150 635v-253h76q25 0 40.5 9t24.5 26t12.5 40t3.5 52q0 28 -3.5 51.5t-12.5 40t-24.5 25.5t-40.5 9h-76zM240 762h-62l69 135h74z" />
    <glyph glyph-name="racute" unicode="&#x155;" horiz-adv-x="272" 
d="M256 448h-24q-42 0 -68 -25t-26 -70v-353h-81v518h78v-55q6 11 16 20.5t20 16.5q37 26 85 26v-78zM165 586h-61l68 135h74z" />
    <glyph glyph-name="uni0156" unicode="&#x156;" horiz-adv-x="455" 
d="M225 712q40 0 71.5 -10t53 -33t32.5 -62.5t11 -97.5q0 -75 -19.5 -119.5t-66.5 -66.5l109 -323h-91l-98 306h-77v-306h-86v712h161zM150 635v-253h76q25 0 40.5 9t24.5 26t12.5 40t3.5 52q0 28 -3.5 51.5t-12.5 40t-24.5 25.5t-40.5 9h-76zM215 -182h-64l57 144h57z" />
    <glyph glyph-name="uni0157" unicode="&#x157;" horiz-adv-x="272" 
d="M256 448h-24q-42 0 -68 -25t-26 -70v-353h-81v518h78v-55q6 11 16 20.5t20 16.5q37 26 85 26v-78zM84 -182h-64l57 144h57z" />
    <glyph glyph-name="Rcaron" unicode="&#x158;" horiz-adv-x="455" 
d="M225 712q40 0 71.5 -10t53 -33t32.5 -62.5t11 -97.5q0 -75 -19.5 -119.5t-66.5 -66.5l109 -323h-91l-98 306h-77v-306h-86v712h161zM150 635v-253h76q25 0 40.5 9t24.5 26t12.5 40t3.5 52q0 28 -3.5 51.5t-12.5 40t-24.5 25.5t-40.5 9h-76zM248 757h-67l-93 135h67
l59 -87l60 87h67z" />
    <glyph glyph-name="rcaron" unicode="&#x159;" horiz-adv-x="272" 
d="M256 448h-24q-42 0 -68 -25t-26 -70v-353h-81v518h78v-55q6 11 16 20.5t20 16.5q37 26 85 26v-78zM177 582h-67l-93 135h67l59 -87l60 87h67z" />
    <glyph glyph-name="Sacute" unicode="&#x15a;" horiz-adv-x="420" 
d="M210 718q39 0 68.5 -10.5t49.5 -30.5q27 -26 37 -61.5t10 -84.5h-86q0 29 -4 49t-18 37q-19 24 -58 24q-19 0 -32.5 -6t-22.5 -16q-25 -28 -25 -85q0 -26 2.5 -44t10 -31t21 -22t34.5 -18l80 -33q30 -12 49.5 -28.5t31 -39.5t15.5 -54t4 -73q0 -56 -9 -92.5t-35 -62.5
q-20 -20 -51.5 -31.5t-74.5 -11.5q-82 0 -125 43q-25 25 -34.5 59t-9.5 91h86q0 -35 5 -56.5t19 -36.5q9 -10 24 -16t35 -6q22 0 36.5 6t24.5 17q14 16 18.5 38t4.5 57q0 31 -3 52t-10.5 35.5t-21 24.5t-35.5 19l-81 33q-27 11 -46 25t-30 34.5t-16 49t-5 69.5q0 47 13.5 84
t40.5 62q44 41 113 41zM240 762h-62l69 135h74z" />
    <glyph glyph-name="sacute" unicode="&#x15b;" horiz-adv-x="359" 
d="M179 526q64 0 101 -37q42 -40 42 -114h-80q0 23 -4.5 37t-14.5 25q-9 10 -20.5 14t-23.5 4q-28 0 -45 -17q-19 -19 -19 -50q0 -22 9 -38q11 -19 43 -34l66 -33q52 -25 73 -59q22 -33 22 -83q0 -35 -12 -61.5t-32 -46.5q-21 -22 -47.5 -31.5t-58.5 -9.5t-58.5 10t-45.5 30
q-44 45 -44 114h80q0 -40 22 -63q9 -9 21.5 -13.5t24.5 -4.5q30 0 49 19q20 20 20 52q0 27 -13 47q-8 11 -19 20t-27 17l-67 34q-50 25 -71 60q-16 28 -16 68q0 34 11.5 59.5t31.5 45.5t46 29.5t56 9.5zM205 586h-61l68 135h74z" />
    <glyph glyph-name="Scircumflex" unicode="&#x15c;" horiz-adv-x="420" 
d="M210 718q39 0 68.5 -10.5t49.5 -30.5q27 -26 37 -61.5t10 -84.5h-86q0 29 -4 49t-18 37q-19 24 -58 24q-19 0 -32.5 -6t-22.5 -16q-25 -28 -25 -85q0 -26 2.5 -44t10 -31t21 -22t34.5 -18l80 -33q30 -12 49.5 -28.5t31 -39.5t15.5 -54t4 -73q0 -56 -9 -92.5t-35 -62.5
q-20 -20 -51.5 -31.5t-74.5 -11.5q-82 0 -125 43q-25 25 -34.5 59t-9.5 91h86q0 -35 5 -56.5t19 -36.5q9 -10 24 -16t35 -6q22 0 36.5 6t24.5 17q14 16 18.5 38t4.5 57q0 31 -3 52t-10.5 35.5t-21 24.5t-35.5 19l-81 33q-27 11 -46 25t-30 34.5t-16 49t-5 69.5q0 47 13.5 84
t40.5 62q44 41 113 41zM341 762h-66l-60 87l-60 -87h-66l93 135h66z" />
    <glyph glyph-name="scircumflex" unicode="&#x15d;" horiz-adv-x="359" 
d="M179 526q64 0 101 -37q42 -40 42 -114h-80q0 23 -4.5 37t-14.5 25q-9 10 -20.5 14t-23.5 4q-28 0 -45 -17q-19 -19 -19 -50q0 -22 9 -38q11 -19 43 -34l66 -33q52 -25 73 -59q22 -33 22 -83q0 -35 -12 -61.5t-32 -46.5q-21 -22 -47.5 -31.5t-58.5 -9.5t-58.5 10t-45.5 30
q-44 45 -44 114h80q0 -40 22 -63q9 -9 21.5 -13.5t24.5 -4.5q30 0 49 19q20 20 20 52q0 27 -13 47q-8 11 -19 20t-27 17l-67 34q-50 25 -71 60q-16 28 -16 68q0 34 11.5 59.5t31.5 45.5t46 29.5t56 9.5zM310 586h-67l-60 87l-59 -87h-67l93 135h67z" />
    <glyph glyph-name="Scedilla" unicode="&#x15e;" horiz-adv-x="420" 
d="M210 718q39 0 68.5 -10.5t49.5 -30.5q27 -26 37 -61.5t10 -84.5h-86q0 29 -4 49t-18 37q-19 24 -58 24q-19 0 -32.5 -6t-22.5 -16q-25 -28 -25 -85q0 -26 2.5 -44t10 -31t21 -22t34.5 -18l80 -33q30 -12 49.5 -28.5t31 -39.5t15.5 -54t4 -73q0 -56 -9 -92.5t-35 -62.5
q-20 -20 -51.5 -31.5t-74.5 -11.5q-82 0 -125 43q-25 25 -34.5 59t-9.5 91h86q0 -35 5 -56.5t19 -36.5q9 -10 24 -16t35 -6q22 0 36.5 6t24.5 17q14 16 18.5 38t4.5 57q0 31 -3 52t-10.5 35.5t-21 24.5t-35.5 19l-81 33q-27 11 -46 25t-30 34.5t-16 49t-5 69.5q0 47 13.5 84
t40.5 62q44 41 113 41zM191 -182h-64l57 144h57z" />
    <glyph glyph-name="scedilla" unicode="&#x15f;" horiz-adv-x="359" 
d="M179 526q64 0 101 -37q42 -40 42 -114h-80q0 23 -4.5 37t-14.5 25q-9 10 -20.5 14t-23.5 4q-28 0 -45 -17q-19 -19 -19 -50q0 -22 9 -38q11 -19 43 -34l66 -33q52 -25 73 -59q22 -33 22 -83q0 -35 -12 -61.5t-32 -46.5q-21 -22 -47.5 -31.5t-58.5 -9.5t-58.5 10t-45.5 30
q-44 45 -44 114h80q0 -40 22 -63q9 -9 21.5 -13.5t24.5 -4.5q30 0 49 19q20 20 20 52q0 27 -13 47q-8 11 -19 20t-27 17l-67 34q-50 25 -71 60q-16 28 -16 68q0 34 11.5 59.5t31.5 45.5t46 29.5t56 9.5zM169 -182h-64l57 144h57z" />
    <glyph glyph-name="Scaron" unicode="&#x160;" horiz-adv-x="420" 
d="M210 718q39 0 68.5 -10.5t49.5 -30.5q27 -26 37 -61.5t10 -84.5h-86q0 29 -4 49t-18 37q-19 24 -58 24q-19 0 -32.5 -6t-22.5 -16q-25 -28 -25 -85q0 -26 2.5 -44t10 -31t21 -22t34.5 -18l80 -33q30 -12 49.5 -28.5t31 -39.5t15.5 -54t4 -73q0 -56 -9 -92.5t-35 -62.5
q-20 -20 -51.5 -31.5t-74.5 -11.5q-82 0 -125 43q-25 25 -34.5 59t-9.5 91h86q0 -35 5 -56.5t19 -36.5q9 -10 24 -16t35 -6q22 0 36.5 6t24.5 17q14 16 18.5 38t4.5 57q0 31 -3 52t-10.5 35.5t-21 24.5t-35.5 19l-81 33q-27 11 -46 25t-30 34.5t-16 49t-5 69.5q0 47 13.5 84
t40.5 62q44 41 113 41zM248 757h-67l-93 135h67l59 -87l60 87h67z" />
    <glyph glyph-name="scaron" unicode="&#x161;" horiz-adv-x="359" 
d="M179 526q64 0 101 -37q42 -40 42 -114h-80q0 23 -4.5 37t-14.5 25q-9 10 -20.5 14t-23.5 4q-28 0 -45 -17q-19 -19 -19 -50q0 -22 9 -38q11 -19 43 -34l66 -33q52 -25 73 -59q22 -33 22 -83q0 -35 -12 -61.5t-32 -46.5q-21 -22 -47.5 -31.5t-58.5 -9.5t-58.5 10t-45.5 30
q-44 45 -44 114h80q0 -40 22 -63q9 -9 21.5 -13.5t24.5 -4.5q30 0 49 19q20 20 20 52q0 27 -13 47q-8 11 -19 20t-27 17l-67 34q-50 25 -71 60q-16 28 -16 68q0 34 11.5 59.5t31.5 45.5t46 29.5t56 9.5zM217 582h-67l-93 135h67l59 -87l60 87h67z" />
    <glyph glyph-name="uni0162" unicode="&#x162;" horiz-adv-x="367" 
d="M346 635h-119v-635h-86v635h-120v77h325v-77zM160 -182h-64l57 144h57z" />
    <glyph glyph-name="uni0163" unicode="&#x163;" horiz-adv-x="260" 
d="M240 0q-35 0 -64.5 5.5t-54.5 26.5q-45 37 -45 116v307h-59v63h59v142h81v-142h80v-63h-80v-304q0 -42 21 -60t62 -18v-73zM141 -182h-64l57 144h57z" />
    <glyph glyph-name="Tcaron" unicode="&#x164;" horiz-adv-x="367" 
d="M346 635h-119v-635h-86v635h-120v77h325v-77zM217 757h-67l-93 135h67l59 -87l60 87h67z" />
    <glyph glyph-name="tcaron" unicode="&#x165;" horiz-adv-x="260" 
d="M240 0q-35 0 -64.5 5.5t-54.5 26.5q-45 37 -45 116v307h-59v63h59v142h81v-142h80v-63h-80v-304q0 -42 21 -60t62 -18v-73zM252 586h-55l23 144h66z" />
    <glyph glyph-name="Tbar" unicode="&#x166;" horiz-adv-x="367" 
d="M346 635h-119v-243h66v-69h-66v-323h-86v323h-67v69h67v243h-120v77h325v-77z" />
    <glyph glyph-name="tbar" unicode="&#x167;" horiz-adv-x="260" 
d="M240 0q-35 0 -64.5 5.5t-54.5 26.5q-45 37 -45 116v128h-59v54h59v125h-59v63h59v142h81v-142h80v-63h-80v-125h70v-54h-70v-125q0 -42 21 -60t62 -18v-73z" />
    <glyph glyph-name="Utilde" unicode="&#x168;" horiz-adv-x="446" 
d="M388 163q0 -78 -46 -124q-45 -47 -119 -47q-73 0 -120 47q-45 47 -45 124v549h86v-546q0 -48 20.5 -72.5t58.5 -24.5q37 0 58 24.5t21 72.5v546h86v-549zM171 861q20 0 32.5 -5t23.5 -12q11 -6 21 -11t24 -5q15 0 25 7t19 16l38 -37q-17 -17 -36 -29.5t-44 -12.5
q-20 0 -33 5t-24 11t-21 11t-23 5q-14 0 -24.5 -7t-20.5 -16l-36 37q21 22 39 32.5t40 10.5z" />
    <glyph glyph-name="utilde" unicode="&#x169;" horiz-adv-x="395" 
d="M338 0h-78v40q-5 -9 -14.5 -18t-17.5 -14q-26 -16 -56 -16q-29 0 -50 9.5t-38 28.5q-16 17 -23.5 41t-7.5 66v381h81v-381q0 -35 18 -54t44 -19t43.5 19t17.5 54v381h81v-518zM146 685q17 0 30 -4t28 -13q11 -7 21 -11t22 -4q9 0 18.5 3.5t25.5 19.5l38 -38
q-26 -25 -44 -33.5t-36 -8.5q-17 0 -30 4.5t-28 12.5q-11 7 -21 11t-22 4q-10 0 -19 -3t-26 -20l-36 38q25 25 42.5 33.5t36.5 8.5z" />
    <glyph glyph-name="Umacron" unicode="&#x16a;" horiz-adv-x="446" 
d="M388 163q0 -78 -46 -124q-45 -47 -119 -47q-73 0 -120 47q-45 47 -45 124v549h86v-546q0 -48 20.5 -72.5t58.5 -24.5q37 0 58 24.5t21 72.5v546h86v-549zM337 780h-228v58h228v-58z" />
    <glyph glyph-name="umacron" unicode="&#x16b;" horiz-adv-x="395" 
d="M338 0h-78v40q-5 -9 -14.5 -18t-17.5 -14q-26 -16 -56 -16q-29 0 -50 9.5t-38 28.5q-16 17 -23.5 41t-7.5 66v381h81v-381q0 -35 18 -54t44 -19t43.5 19t17.5 54v381h81v-518zM310 608h-229v57h229v-57z" />
    <glyph glyph-name="Ubreve" unicode="&#x16c;" horiz-adv-x="446" 
d="M388 163q0 -78 -46 -124q-45 -47 -119 -47q-73 0 -120 47q-45 47 -45 124v549h86v-546q0 -48 20.5 -72.5t58.5 -24.5q37 0 58 24.5t21 72.5v546h86v-549zM341 867q-4 -60 -35.5 -86t-82.5 -26q-50 0 -81.5 26t-35.5 86h58q4 -28 19.5 -40.5t39.5 -12.5q25 0 40.5 12.5
t19.5 40.5h58z" />
    <glyph glyph-name="ubreve" unicode="&#x16d;" horiz-adv-x="395" 
d="M338 0h-78v40q-5 -9 -14.5 -18t-17.5 -14q-26 -16 -56 -16q-29 0 -50 9.5t-38 28.5q-16 17 -23.5 41t-7.5 66v381h81v-381q0 -35 18 -54t44 -19t43.5 19t17.5 54v381h81v-518zM313 691q-4 -60 -35.5 -86t-82.5 -26q-50 0 -81.5 26t-35.5 86h58q4 -28 19.5 -40.5
t39.5 -12.5q25 0 40.5 12.5t19.5 40.5h58z" />
    <glyph glyph-name="Uring" unicode="&#x16e;" horiz-adv-x="446" 
d="M388 163q0 -78 -46 -124q-45 -47 -119 -47q-73 0 -120 47q-45 47 -45 124v549h86v-546q0 -48 20.5 -72.5t58.5 -24.5q37 0 58 24.5t21 72.5v546h86v-549zM223 948q41 0 69.5 -28.5t28.5 -69.5t-28.5 -69.5t-69.5 -28.5t-69.5 28.5t-28.5 69.5t28.5 69.5t69.5 28.5z
M223 899q-20 0 -34.5 -14.5t-14.5 -34.5t14.5 -34.5t34.5 -14.5t34.5 14.5t14.5 34.5t-14.5 34.5t-34.5 14.5z" />
    <glyph glyph-name="uring" unicode="&#x16f;" horiz-adv-x="395" 
d="M338 0h-78v40q-5 -9 -14.5 -18t-17.5 -14q-26 -16 -56 -16q-29 0 -50 9.5t-38 28.5q-16 17 -23.5 41t-7.5 66v381h81v-381q0 -35 18 -54t44 -19t43.5 19t17.5 54v381h81v-518zM195 779q41 0 69.5 -28.5t28.5 -69.5t-28.5 -69.5t-69.5 -28.5q-20 0 -37.5 7.5t-31 21
t-21 31.5t-7.5 38t7.5 38t21 31.5t31 21t37.5 7.5zM195 730q-20 0 -34.5 -14.5t-14.5 -34.5t14.5 -34.5t34.5 -14.5t35 14.5t15 34.5t-15 34.5t-35 14.5z" />
    <glyph glyph-name="Uhungarumlaut" unicode="&#x170;" horiz-adv-x="446" 
d="M388 163q0 -78 -46 -124q-45 -47 -119 -47q-73 0 -120 47q-45 47 -45 124v549h86v-546q0 -48 20.5 -72.5t58.5 -24.5q37 0 58 24.5t21 72.5v546h86v-549zM256 897l-68 -135h-59l53 135h74zM382 897l-69 -135h-58l53 135h74z" />
    <glyph glyph-name="uhungarumlaut" unicode="&#x171;" horiz-adv-x="395" 
d="M338 0h-78v40q-5 -9 -14.5 -18t-17.5 -14q-26 -16 -56 -16q-29 0 -50 9.5t-38 28.5q-16 17 -23.5 41t-7.5 66v381h81v-381q0 -35 18 -54t44 -19t43.5 19t17.5 54v381h81v-518zM228 721l-69 -135h-58l53 135h74zM353 721l-68 -135h-58l52 135h74z" />
    <glyph glyph-name="Uogonek" unicode="&#x172;" horiz-adv-x="446" 
d="M388 163q0 -78 -46 -124q-45 -47 -119 -47q-73 0 -120 47q-45 47 -45 124v549h86v-546q0 -48 20.5 -72.5t58.5 -24.5q37 0 58 24.5t21 72.5v546h86v-549zM284 -182h-64l57 144h57z" />
    <glyph glyph-name="uogonek" unicode="&#x173;" horiz-adv-x="395" 
d="M338 0h-78v40q-5 -9 -14.5 -18t-17.5 -14q-26 -16 -56 -16q-29 0 -50 9.5t-38 28.5q-16 17 -23.5 41t-7.5 66v381h81v-381q0 -35 18 -54t44 -19t43.5 19t17.5 54v381h81v-518zM284 -182h-64l57 144h57z" />
    <glyph glyph-name="Wcircumflex" unicode="&#x174;" horiz-adv-x="652" 
d="M98 712l74 -573l108 573h92l109 -573l73 573h94l-123 -712h-87l-112 573l-111 -573h-87l-124 712h94zM452 762h-66l-60 87l-60 -87h-66l93 135h66z" />
    <glyph glyph-name="wcircumflex" unicode="&#x175;" horiz-adv-x="526" 
d="M93 518l60 -385l73 385h70l75 -385l61 385h90l-109 -518h-79l-73 374l-71 -374h-79l-107 518h89zM390 586h-67l-60 87l-59 -87h-67l93 135h67z" />
    <glyph glyph-name="Ycircumflex" unicode="&#x176;" horiz-adv-x="353" 
d="M219 288v-288h-86v288l-131 424h94l80 -304l80 304h95zM303 762h-66l-60 87l-60 -87h-66l93 135h66z" />
    <glyph glyph-name="ycircumflex" unicode="&#x177;" horiz-adv-x="343" 
d="M193 -83q-8 -35 -24 -56.5t-38 -33.5t-50 -16.5t-60 -4.5v72q38 0 61 12.5t32 47.5l16 63l-126 517h89l79 -389l78 389h89zM298 586h-67l-60 87l-59 -87h-67l93 135h67z" />
    <glyph glyph-name="Ydieresis" unicode="&#x178;" horiz-adv-x="353" 
d="M219 288v-288h-86v288l-131 424h94l80 -304l80 304h95zM296 777h-82v81h82v-81zM140 777h-82v81h82v-81z" />
    <glyph glyph-name="Zacute" unicode="&#x179;" horiz-adv-x="349" 
d="M318 647l-197 -570h197v-77h-287v65l198 570h-185v77h274v-65zM207 762h-62l69 135h74z" />
    <glyph glyph-name="zacute" unicode="&#x17a;" horiz-adv-x="301" 
d="M277 456l-163 -383h163v-73h-253v62l163 384h-152v72h242v-62zM180 586h-61l68 135h74z" />
    <glyph glyph-name="Zdotaccent" unicode="&#x17b;" horiz-adv-x="349" 
d="M318 647l-197 -570h197v-77h-287v65l198 570h-185v77h274v-65zM223 777h-82v81h82v-81z" />
    <glyph glyph-name="zdotaccent" unicode="&#x17c;" horiz-adv-x="301" 
d="M277 456l-163 -383h163v-73h-253v62l163 384h-152v72h242v-62zM199 602h-81v82h81v-82z" />
    <glyph glyph-name="Zcaron" unicode="&#x17d;" horiz-adv-x="349" 
d="M318 647l-197 -570h197v-77h-287v65l198 570h-185v77h274v-65zM215 757h-67l-93 135h67l59 -87l60 87h67z" />
    <glyph glyph-name="zcaron" unicode="&#x17e;" horiz-adv-x="301" 
d="M277 456l-163 -383h163v-73h-253v62l163 384h-152v72h242v-62zM192 582h-67l-93 135h67l59 -87l60 87h67z" />
    <glyph glyph-name="longs" unicode="&#x17f;" horiz-adv-x="195" 
d="M216 639q-78 0 -78 -80v-559h-81v564q0 44 12.5 71t33.5 45q23 20 51.5 26t61.5 6v-73z" />
    <glyph glyph-name="uni018E" unicode="&#x18e;" horiz-adv-x="380" 
d="M316 712v-712h-275v77h189v247h-163v77h163v234h-189v77h275z" />
    <glyph glyph-name="uni018F" unicode="&#x18f;" horiz-adv-x="433" 
d="M212 720q42 0 72 -14.5t50 -37.5q17 -20 27 -43t15.5 -58.5t7.5 -86t2 -124.5t-2 -124.5t-7.5 -86t-15.5 -59t-27 -42.5q-20 -23 -50 -37.5t-72 -14.5q-35 0 -65 11.5t-52.5 34t-35 56t-12.5 77.5v224h253q-1 55 -2.5 92.5t-4.5 62t-8.5 40t-14.5 26.5q-9 12 -23.5 19.5
t-34.5 7.5q-25 0 -40.5 -10t-24 -25.5t-11.5 -35t-3 -37.5h-86q1 44 12.5 80.5t36.5 60.5q21 20 49.5 32t66.5 12zM133 324v-156q0 -44 20.5 -71.5t58.5 -27.5q20 0 34.5 7.5t23.5 19.5q9 11 14.5 26.5t8.5 41t4.5 64t2.5 96.5h-167z" />
    <glyph glyph-name="florin" unicode="&#x192;" horiz-adv-x="351" 
d="M329 644h-30q-29 0 -49.5 -17t-26.5 -49l-35 -193h79v-62h-90l-97 -517h-80l96 517h-57v62h69l35 197q12 69 55.5 101.5t100.5 32.5h30v-72z" />
    <glyph glyph-name="Ohorn" unicode="&#x1a0;" horiz-adv-x="452" 
d="M222 -8q-42 0 -72 14.5t-50 37.5q-17 19 -27 42.5t-15.5 59t-7.5 86t-2 124.5t2 124.5t7.5 86t15.5 58.5t27 43q20 23 50 37.5t72 14.5t72.5 -14.5t50.5 -37.5q17 -19 28 -46h8q41 0 41 67v51h65v-61q0 -57 -23 -85.5t-76 -30.5q5 -35 6.5 -85t1.5 -122q0 -74 -1.5 -125
t-7 -86t-15.5 -58.5t-27 -42.5q-20 -23 -50.5 -37.5t-72.5 -14.5zM222 69q21 0 35.5 7.5t22.5 19.5q10 13 16 31.5t9 48t4 73.5t1 107t-1 107t-4 73.5t-9 48t-16 31.5q-8 12 -22.5 19.5t-35.5 7.5t-35.5 -7.5t-22.5 -19.5q-10 -13 -16 -31.5t-9 -48t-4 -73.5t-1 -107t1 -107
t4 -73.5t9 -48t16 -31.5q8 -12 22.5 -19.5t35.5 -7.5z" />
    <glyph glyph-name="ohorn" unicode="&#x1a1;" horiz-adv-x="408" 
d="M427 546v-51q0 -57 -22.5 -85t-74.5 -30q3 -26 4 -56t1 -65q0 -79 -6.5 -133.5t-30.5 -85.5q-20 -26 -47.5 -37t-62.5 -11t-62 11t-47 37q-24 31 -31 85.5t-7 133.5t7 133.5t31 85.5q20 26 47 37t62 11t62.5 -11t47.5 -37q13 -17 21 -42h4q22 0 32 18t10 50v42h62z
M234 87q14 20 17 61t3 111t-3 111t-17 61q-16 23 -46 23q-29 0 -45 -23q-14 -20 -17.5 -61t-3.5 -111t3.5 -111t17.5 -61q16 -23 45 -23q30 0 46 23z" />
    <glyph glyph-name="Uhorn" unicode="&#x1af;" horiz-adv-x="476" 
d="M507 677q0 -60 -25.5 -88t-83.5 -28h-10v-398q0 -78 -46 -124q-45 -47 -119 -47q-73 0 -120 47q-45 47 -45 124v549h86v-546q0 -48 20.5 -72.5t58.5 -24.5q37 0 58 24.5t21 72.5v546h86v-92h13q41 0 41 67v53h65v-63z" />
    <glyph glyph-name="uhorn" unicode="&#x1b0;" horiz-adv-x="428" 
d="M451 546v-51q0 -59 -24.5 -86.5t-78.5 -28.5h-10v-380h-78v40q-5 -9 -14.5 -18t-17.5 -14q-26 -16 -56 -16q-29 0 -50 9.5t-38 28.5q-16 17 -23.5 41t-7.5 66v381h81v-381q0 -35 18 -54t44 -19t43.5 19t17.5 54v381h81v-82h8q23 0 32.5 18t9.5 50v42h63z" />
    <glyph glyph-name="uni01B5" unicode="&#x1b5;" horiz-adv-x="349" 
d="M318 647l-88 -255h55v-69h-79l-85 -246h197v-77h-287v65l90 258h-55v69h79l84 243h-185v77h274v-65z" />
    <glyph glyph-name="uni01B6" unicode="&#x1b6;" horiz-adv-x="301" 
d="M277 456l-73 -171h59v-54h-82l-67 -158h163v-73h-253v62l72 169h-55v54h78l68 161h-152v72h242v-62z" />
    <glyph glyph-name="uni01CD" unicode="&#x1cd;" horiz-adv-x="425" 
d="M171 712h83l166 -712h-91l-34 168h-166l-34 -168h-90zM279 245l-67 328l-67 -328h134zM247 757h-67l-93 135h67l59 -87l60 87h67z" />
    <glyph glyph-name="uni01CE" unicode="&#x1ce;" horiz-adv-x="375" 
d="M180 526q65 0 101 -36q19 -20 30 -47t11 -67v-376h-77v46q-6 -11 -14 -20t-16 -15q-12 -9 -26 -14t-35 -5q-29 0 -50 9.5t-39 29.5q-15 17 -24 46t-9 70q0 36 11.5 66.5t34.5 50.5q20 17 44.5 26t65.5 9h53v82q0 74 -61 74q-14 0 -23 -4.5t-17 -12.5q-11 -11 -15 -25
t-4 -35h-81q0 30 8.5 58.5t31.5 51.5q17 17 43.5 27.5t56.5 10.5zM195 240q-19 0 -32.5 -4t-25.5 -15q-11 -11 -17.5 -30.5t-6.5 -40.5q0 -41 15.5 -64t47.5 -23q29 0 47 22.5t18 58.5v96h-46zM218 582h-67l-93 135h67l59 -87l60 87h67z" />
    <glyph glyph-name="uni01CF" unicode="&#x1cf;" horiz-adv-x="214" 
d="M150 0h-86v712h86v-712zM142 757h-67l-93 135h67l59 -87l60 87h67z" />
    <glyph glyph-name="uni01D0" unicode="&#x1d0;" horiz-adv-x="195" 
d="M138 0h-81v518h81v-518zM132 582h-67l-93 135h67l59 -87l60 87h67z" />
    <glyph glyph-name="uni01D1" unicode="&#x1d1;" horiz-adv-x="442" 
d="M221 -8q-42 0 -72 14.5t-50 37.5q-17 19 -27 42.5t-15.5 59t-7.5 86t-2 124.5t2 124.5t7.5 86t15.5 58.5t27 43q20 23 50 37.5t72 14.5t72.5 -14.5t50.5 -37.5q17 -19 27 -42.5t15.5 -59t7 -86t1.5 -124.5t-1.5 -125t-7 -86t-15.5 -58.5t-27 -42.5q-20 -23 -50.5 -37.5
t-72.5 -14.5zM221 69q21 0 35.5 7.5t22.5 19.5q10 13 16 31.5t9 48t4 73.5t1 107t-1 107t-4 73.5t-9 48t-16 31.5q-8 12 -22.5 19.5t-35.5 7.5t-35.5 -7.5t-22.5 -19.5q-10 -13 -16 -31.5t-9 -48t-4 -73.5t-1 -107t1 -107t4 -73.5t9 -48t16 -31.5q8 -12 22.5 -19.5
t35.5 -7.5zM254 757h-67l-93 135h67l59 -87l60 87h67z" />
    <glyph glyph-name="uni01D2" unicode="&#x1d2;" 
d="M188 526q35 0 62.5 -11t47.5 -37q24 -31 30.5 -85.5t6.5 -133.5t-6.5 -133.5t-30.5 -85.5q-20 -26 -47.5 -37t-62.5 -11t-62 11t-47 37q-24 31 -31 85.5t-7 133.5t7 133.5t31 85.5q20 26 47 37t62 11zM188 454q-29 0 -45 -23q-14 -20 -17.5 -61t-3.5 -111t3.5 -111
t17.5 -61q16 -23 45 -23q30 0 46 23q14 20 17 61t3 111t-3 111t-17 61q-16 23 -46 23zM221 582h-67l-93 135h67l59 -87l60 87h67z" />
    <glyph glyph-name="uni01D3" unicode="&#x1d3;" horiz-adv-x="446" 
d="M388 163q0 -78 -46 -124q-45 -47 -119 -47q-73 0 -120 47q-45 47 -45 124v549h86v-546q0 -48 20.5 -72.5t58.5 -24.5q37 0 58 24.5t21 72.5v546h86v-549zM256 757h-67l-93 135h67l59 -87l60 87h67z" />
    <glyph glyph-name="uni01D4" unicode="&#x1d4;" horiz-adv-x="395" 
d="M338 0h-78v40q-5 -9 -14.5 -18t-17.5 -14q-26 -16 -56 -16q-29 0 -50 9.5t-38 28.5q-16 17 -23.5 41t-7.5 66v381h81v-381q0 -35 18 -54t44 -19t43.5 19t17.5 54v381h81v-518zM229 582h-67l-93 135h67l59 -87l60 87h67z" />
    <glyph glyph-name="uni01D5" unicode="&#x1d5;" horiz-adv-x="446" 
d="M337 918h-228v58h228v-58zM388 163q0 -78 -46 -124q-45 -47 -119 -47q-73 0 -120 47q-45 47 -45 124v549h86v-546q0 -48 20.5 -72.5t58.5 -24.5q37 0 58 24.5t21 72.5v546h86v-549zM342 777h-82v81h82v-81zM186 777h-82v81h82v-81z" />
    <glyph glyph-name="uni01D6" unicode="&#x1d6;" horiz-adv-x="395" 
d="M310 746h-229v57h229v-57zM338 0h-78v40q-5 -9 -14.5 -18t-17.5 -14q-26 -16 -56 -16q-29 0 -50 9.5t-38 28.5q-16 17 -23.5 41t-7.5 66v381h81v-381q0 -35 18 -54t44 -19t43.5 19t17.5 54v381h81v-518zM158 602h-82v82h82v-82zM315 602h-82v82h82v-82z" />
    <glyph glyph-name="uni01D7" unicode="&#x1d7;" horiz-adv-x="446" 
d="M248 900h-62l69 135h74zM388 163q0 -78 -46 -124q-45 -47 -119 -47q-73 0 -120 47q-45 47 -45 124v549h86v-546q0 -48 20.5 -72.5t58.5 -24.5q37 0 58 24.5t21 72.5v546h86v-549zM342 777h-82v81h82v-81zM186 777h-82v81h82v-81z" />
    <glyph glyph-name="uni01D8" unicode="&#x1d8;" horiz-adv-x="395" 
d="M217 724h-61l68 135h74zM338 0h-78v40q-5 -9 -14.5 -18t-17.5 -14q-26 -16 -56 -16q-29 0 -50 9.5t-38 28.5q-16 17 -23.5 41t-7.5 66v381h81v-381q0 -35 18 -54t44 -19t43.5 19t17.5 54v381h81v-518zM158 602h-82v82h82v-82zM315 602h-82v82h82v-82z" />
    <glyph glyph-name="uni01D9" unicode="&#x1d9;" horiz-adv-x="446" 
d="M256 895h-67l-93 135h67l59 -87l60 87h67zM388 163q0 -78 -46 -124q-45 -47 -119 -47q-73 0 -120 47q-45 47 -45 124v549h86v-546q0 -48 20.5 -72.5t58.5 -24.5q37 0 58 24.5t21 72.5v546h86v-549zM342 777h-82v81h82v-81zM186 777h-82v81h82v-81z" />
    <glyph glyph-name="uni01DA" unicode="&#x1da;" horiz-adv-x="395" 
d="M229 720h-67l-93 135h67l59 -87l60 87h67zM338 0h-78v40q-5 -9 -14.5 -18t-17.5 -14q-26 -16 -56 -16q-29 0 -50 9.5t-38 28.5q-16 17 -23.5 41t-7.5 66v381h81v-381q0 -35 18 -54t44 -19t43.5 19t17.5 54v381h81v-518zM158 602h-82v82h82v-82zM315 602h-82v82h82v-82z
" />
    <glyph glyph-name="uni01DB" unicode="&#x1db;" horiz-adv-x="446" 
d="M260 900h-62l-81 135h74zM388 163q0 -78 -46 -124q-45 -47 -119 -47q-73 0 -120 47q-45 47 -45 124v549h86v-546q0 -48 20.5 -72.5t58.5 -24.5q37 0 58 24.5t21 72.5v546h86v-549zM342 777h-82v81h82v-81zM186 777h-82v81h82v-81z" />
    <glyph glyph-name="uni01DC" unicode="&#x1dc;" horiz-adv-x="395" 
d="M234 724h-62l-81 135h74zM338 0h-78v40q-5 -9 -14.5 -18t-17.5 -14q-26 -16 -56 -16q-29 0 -50 9.5t-38 28.5q-16 17 -23.5 41t-7.5 66v381h81v-381q0 -35 18 -54t44 -19t43.5 19t17.5 54v381h81v-518zM158 602h-82v82h82v-82zM315 602h-82v82h82v-82z" />
    <glyph glyph-name="uni01DD" unicode="&#x1dd;" 
d="M254 278q0 62 -3.5 99t-17.5 54q-7 10 -18.5 16t-27.5 6q-14 0 -25 -4.5t-21 -15.5t-13.5 -26t-3.5 -34h-81q1 36 10.5 64t31.5 51q37 38 102 38q33 0 58 -9t45 -31q29 -31 37.5 -88.5t8.5 -138.5q0 -82 -8 -139t-37 -88q-20 -22 -45 -31t-57 -9t-57 9t-45 31
q-29 31 -37.5 90.5t-8.5 155.5h213zM123 217q0 -57 4 -87t16 -44q8 -10 18.5 -15.5t27.5 -5.5t27 5.5t18 15.5q12 14 16 44t4 87h-131z" />
    <glyph glyph-name="uni01DE" unicode="&#x1de;" horiz-adv-x="425" 
d="M328 918h-228v58h228v-58zM171 712h83l166 -712h-91l-34 168h-166l-34 -168h-90zM279 245l-67 328l-67 -328h134zM333 777h-82v81h82v-81zM177 777h-82v81h82v-81z" />
    <glyph glyph-name="uni01DF" unicode="&#x1df;" horiz-adv-x="375" 
d="M299 746h-229v57h229v-57zM180 526q65 0 101 -36q19 -20 30 -47t11 -67v-376h-77v46q-6 -11 -14 -20t-16 -15q-12 -9 -26 -14t-35 -5q-29 0 -50 9.5t-39 29.5q-15 17 -24 46t-9 70q0 36 11.5 66.5t34.5 50.5q20 17 44.5 26t65.5 9h53v82q0 74 -61 74q-14 0 -23 -4.5
t-17 -12.5q-11 -11 -15 -25t-4 -35h-81q0 30 8.5 58.5t31.5 51.5q17 17 43.5 27.5t56.5 10.5zM195 240q-19 0 -32.5 -4t-25.5 -15q-11 -11 -17.5 -30.5t-6.5 -40.5q0 -41 15.5 -64t47.5 -23q29 0 47 22.5t18 58.5v96h-46zM147 602h-82v82h82v-82zM304 602h-82v82h82v-82z
" />
    <glyph glyph-name="uni01E0" unicode="&#x1e0;" horiz-adv-x="425" 
d="M328 918h-228v58h228v-58zM171 712h83l166 -712h-91l-34 168h-166l-34 -168h-90zM279 245l-67 328l-67 -328h134zM255 777h-82v81h82v-81z" />
    <glyph glyph-name="uni01E1" unicode="&#x1e1;" horiz-adv-x="375" 
d="M299 746h-229v57h229v-57zM180 526q65 0 101 -36q19 -20 30 -47t11 -67v-376h-77v46q-6 -11 -14 -20t-16 -15q-12 -9 -26 -14t-35 -5q-29 0 -50 9.5t-39 29.5q-15 17 -24 46t-9 70q0 36 11.5 66.5t34.5 50.5q20 17 44.5 26t65.5 9h53v82q0 74 -61 74q-14 0 -23 -4.5
t-17 -12.5q-11 -11 -15 -25t-4 -35h-81q0 30 8.5 58.5t31.5 51.5q17 17 43.5 27.5t56.5 10.5zM195 240q-19 0 -32.5 -4t-25.5 -15q-11 -11 -17.5 -30.5t-6.5 -40.5q0 -41 15.5 -64t47.5 -23q29 0 47 22.5t18 58.5v96h-46zM225 602h-81v82h81v-82z" />
    <glyph glyph-name="uni01E2" unicode="&#x1e2;" horiz-adv-x="640" 
d="M599 635h-189v-234h163v-77h-163v-247h189v-77h-275v172h-163l-61 -172h-95l263 712h331v-77zM188 250h136v385zM579 780h-228v58h228v-58z" />
    <glyph glyph-name="uni01E3" unicode="&#x1e3;" horiz-adv-x="576" 
d="M154 -8q-29 0 -50 9.5t-39 29.5q-15 17 -24 46t-9 70q0 36 11.5 66.5t34.5 50.5q20 17 44.5 26t65.5 9h53v82q0 74 -61 74q-14 0 -23 -4.5t-17 -12.5q-11 -11 -15 -25t-4 -35h-81q0 30 8.5 58.5t31.5 51.5q17 17 43.5 27.5t56.5 10.5q54 0 85 -26q10 -8 20 -22q3 5 7 9
l8 8q36 31 88 31q32 0 56.5 -9t45.5 -31q29 -31 37 -90.5t8 -155.5h-213q0 -62 3.5 -99t17.5 -54q8 -10 19 -16t27 -6q28 0 46 20q9 10 13.5 26t4.5 34h80q-1 -35 -10.5 -63.5t-30.5 -51.5q-19 -20 -45.5 -29t-57.5 -9q-50 0 -86 28q-11 8 -20 20t-16 24q-8 -15 -18 -28
t-21 -21q-14 -11 -31.5 -17t-42.5 -6zM176 63q29 0 47 22.5t18 58.5v96h-46q-19 0 -32.5 -4t-25.5 -15q-11 -11 -17.5 -30.5t-6.5 -40.5q0 -41 15.5 -64t47.5 -23zM453 301q0 57 -4 87t-16 44q-8 10 -18.5 15.5t-27.5 5.5t-27 -5.5t-18 -15.5q-12 -14 -16 -44t-4 -87h131z
M398 608h-229v57h229v-57z" />
    <glyph glyph-name="Gcaron" unicode="&#x1e6;" horiz-adv-x="434" 
d="M221 720q38 0 66.5 -12t48.5 -32q25 -25 36.5 -61t12.5 -79h-85q0 18 -3.5 37t-12 34.5t-23.5 25.5t-40 10q-21 0 -35.5 -7.5t-23.5 -19.5q-9 -13 -15 -31.5t-9 -48t-4 -73.5t-1 -107t1 -107t4 -73.5t9 -48t15 -31.5q9 -12 23.5 -19.5t35.5 -7.5q38 0 58.5 27.5
t20.5 71.5v143h-79v71h165v-211q0 -45 -12.5 -78.5t-35 -56t-52.5 -33.5t-65 -11q-42 0 -72 14.5t-50 37.5q-17 19 -27.5 42.5t-16 58.5t-7 86t-1.5 125t1.5 124.5t7 86t16 59t27.5 42.5q20 23 50 37.5t72 14.5zM254 757h-67l-93 135h67l59 -87l60 87h67z" />
    <glyph glyph-name="gcaron" unicode="&#x1e7;" horiz-adv-x="387" 
d="M166 526q34 0 56 -16q8 -5 16 -12.5t14 -15.5v36h78v-536q0 -57 -10 -89.5t-32 -55.5q-17 -18 -44.5 -28.5t-57.5 -10.5t-56.5 9t-46.5 28q-22 22 -31 50t-9 62h81q0 -20 3.5 -35t14.5 -27q8 -9 19 -12.5t25 -3.5q28 0 44 18q11 12 15 33.5t4 57.5v75q-11 -17 -28 -29
q-23 -17 -55 -17q-51 0 -84 39q-12 14 -20 32.5t-12.5 44.5t-6.5 61.5t-2 82.5q0 48 2 83t6.5 61.5t12.5 45t20 32.5q17 19 37 28t47 9zM187 454q-14 0 -25 -6t-19 -16q-7 -8 -11 -20.5t-6.5 -32t-3 -47t-0.5 -66.5t0.5 -66.5t3 -47t6.5 -32t11 -20.5q8 -9 19 -15t25 -6
q25 0 43 16q19 19 19 60v223q0 40 -19 59q-17 17 -43 17zM221 582h-67l-93 135h67l59 -87l60 87h67z" />
    <glyph glyph-name="uni01E8" unicode="&#x1e8;" horiz-adv-x="446" 
d="M266 418l165 -418h-93l-126 322l-62 -123v-199h-86v712h86v-361l172 361h88zM269 757h-67l-93 135h67l59 -87l60 87h67z" />
    <glyph glyph-name="uni01E9" unicode="&#x1e9;" horiz-adv-x="396" 
d="M138 272l147 246h86l-126 -202l138 -316h-90l-99 244l-56 -89v-155h-81v712h81v-440zM132 758h-67l-93 135h67l59 -87l60 87h67z" />
    <glyph glyph-name="uni01EA" unicode="&#x1ea;" horiz-adv-x="442" 
d="M221 -8q-42 0 -72 14.5t-50 37.5q-17 19 -27 42.5t-15.5 59t-7.5 86t-2 124.5t2 124.5t7.5 86t15.5 58.5t27 43q20 23 50 37.5t72 14.5t72.5 -14.5t50.5 -37.5q17 -19 27 -42.5t15.5 -59t7 -86t1.5 -124.5t-1.5 -125t-7 -86t-15.5 -58.5t-27 -42.5q-20 -23 -50.5 -37.5
t-72.5 -14.5zM221 69q21 0 35.5 7.5t22.5 19.5q10 13 16 31.5t9 48t4 73.5t1 107t-1 107t-4 73.5t-9 48t-16 31.5q-8 12 -22.5 19.5t-35.5 7.5t-35.5 -7.5t-22.5 -19.5q-10 -13 -16 -31.5t-9 -48t-4 -73.5t-1 -107t1 -107t4 -73.5t9 -48t16 -31.5q8 -12 22.5 -19.5
t35.5 -7.5zM202 -182h-64l57 144h57z" />
    <glyph glyph-name="uni01EB" unicode="&#x1eb;" 
d="M188 526q35 0 62.5 -11t47.5 -37q24 -31 30.5 -85.5t6.5 -133.5t-6.5 -133.5t-30.5 -85.5q-20 -26 -47.5 -37t-62.5 -11t-62 11t-47 37q-24 31 -31 85.5t-7 133.5t7 133.5t31 85.5q20 26 47 37t62 11zM188 454q-29 0 -45 -23q-14 -20 -17.5 -61t-3.5 -111t3.5 -111
t17.5 -61q16 -23 45 -23q30 0 46 23q14 20 17 61t3 111t-3 111t-17 61q-16 23 -46 23zM173 -182h-64l57 144h57z" />
    <glyph glyph-name="uni01EC" unicode="&#x1ec;" horiz-adv-x="442" 
d="M335 780h-228v58h228v-58zM221 -8q-42 0 -72 14.5t-50 37.5q-17 19 -27 42.5t-15.5 59t-7.5 86t-2 124.5t2 124.5t7.5 86t15.5 58.5t27 43q20 23 50 37.5t72 14.5t72.5 -14.5t50.5 -37.5q17 -19 27 -42.5t15.5 -59t7 -86t1.5 -124.5t-1.5 -125t-7 -86t-15.5 -58.5
t-27 -42.5q-20 -23 -50.5 -37.5t-72.5 -14.5zM221 69q21 0 35.5 7.5t22.5 19.5q10 13 16 31.5t9 48t4 73.5t1 107t-1 107t-4 73.5t-9 48t-16 31.5q-8 12 -22.5 19.5t-35.5 7.5t-35.5 -7.5t-22.5 -19.5q-10 -13 -16 -31.5t-9 -48t-4 -73.5t-1 -107t1 -107t4 -73.5t9 -48
t16 -31.5q8 -12 22.5 -19.5t35.5 -7.5zM202 -182h-64l57 144h57z" />
    <glyph glyph-name="uni01ED" unicode="&#x1ed;" 
d="M302 608h-229v57h229v-57zM188 526q35 0 62.5 -11t47.5 -37q24 -31 30.5 -85.5t6.5 -133.5t-6.5 -133.5t-30.5 -85.5q-20 -26 -47.5 -37t-62.5 -11t-62 11t-47 37q-24 31 -31 85.5t-7 133.5t7 133.5t31 85.5q20 26 47 37t62 11zM188 454q-29 0 -45 -23q-14 -20 -17.5 -61
t-3.5 -111t3.5 -111t17.5 -61q16 -23 45 -23q30 0 46 23q14 20 17 61t3 111t-3 111t-17 61q-16 23 -46 23zM173 -182h-64l57 144h57z" />
    <glyph glyph-name="uni01F0" unicode="&#x1f0;" horiz-adv-x="195" 
d="M138 -46q0 -43 -12.5 -71t-33.5 -45q-23 -20 -51.5 -26t-61.5 -6v73q38 0 58 17t20 61v561h81v-564zM132 582h-67l-93 135h67l59 -87l60 87h67z" />
    <glyph glyph-name="uni01F4" unicode="&#x1f4;" horiz-adv-x="434" 
d="M221 720q38 0 66.5 -12t48.5 -32q25 -25 36.5 -61t12.5 -79h-85q0 18 -3.5 37t-12 34.5t-23.5 25.5t-40 10q-21 0 -35.5 -7.5t-23.5 -19.5q-9 -13 -15 -31.5t-9 -48t-4 -73.5t-1 -107t1 -107t4 -73.5t9 -48t15 -31.5q9 -12 23.5 -19.5t35.5 -7.5q38 0 58.5 27.5
t20.5 71.5v143h-79v71h165v-211q0 -45 -12.5 -78.5t-35 -56t-52.5 -33.5t-65 -11q-42 0 -72 14.5t-50 37.5q-17 19 -27.5 42.5t-16 58.5t-7 86t-1.5 125t1.5 124.5t7 86t16 59t27.5 42.5q20 23 50 37.5t72 14.5zM246 762h-62l69 135h74z" />
    <glyph glyph-name="uni01F5" unicode="&#x1f5;" horiz-adv-x="387" 
d="M166 526q34 0 56 -16q8 -5 16 -12.5t14 -15.5v36h78v-536q0 -57 -10 -89.5t-32 -55.5q-17 -18 -44.5 -28.5t-57.5 -10.5t-56.5 9t-46.5 28q-22 22 -31 50t-9 62h81q0 -20 3.5 -35t14.5 -27q8 -9 19 -12.5t25 -3.5q28 0 44 18q11 12 15 33.5t4 57.5v75q-11 -17 -28 -29
q-23 -17 -55 -17q-51 0 -84 39q-12 14 -20 32.5t-12.5 44.5t-6.5 61.5t-2 82.5q0 48 2 83t6.5 61.5t12.5 45t20 32.5q17 19 37 28t47 9zM187 454q-14 0 -25 -6t-19 -16q-7 -8 -11 -20.5t-6.5 -32t-3 -47t-0.5 -66.5t0.5 -66.5t3 -47t6.5 -32t11 -20.5q8 -9 19 -15t25 -6
q25 0 43 16q19 19 19 60v223q0 40 -19 59q-17 17 -43 17zM209 586h-61l68 135h74z" />
    <glyph glyph-name="uni01F8" unicode="&#x1f8;" horiz-adv-x="476" 
d="M412 0h-78l-184 487v-487h-86v712h80l182 -487v487h86v-712zM275 762h-62l-81 135h74z" />
    <glyph glyph-name="uni01F9" unicode="&#x1f9;" horiz-adv-x="395" 
d="M223 526q29 0 50 -9.5t38 -28.5q16 -17 23.5 -41t7.5 -66v-381h-81v381q0 35 -18 54t-44 19t-43.5 -19t-17.5 -54v-381h-81v518h78v-40q5 9 14.5 18t17.5 14q26 16 56 16zM238 586h-62l-81 135h74z" />
    <glyph glyph-name="Aringacute" unicode="&#x1fa;" horiz-adv-x="425" 
d="M238 896h-62l69 135h74zM420 0h-91l-34 168h-166l-34 -168h-90l161 691q-23 13 -37 33.5t-14 48.5q0 41 28.5 69.5t69.5 28.5t69.5 -28.5t28.5 -69.5q0 -28 -14.5 -49t-37.5 -34zM213 822q-20 0 -34.5 -14.5t-14.5 -34.5t14.5 -34.5t34.5 -14.5t34.5 14.5t14.5 34.5
t-14.5 34.5t-34.5 14.5zM279 245l-67 328l-67 -328h134z" />
    <glyph glyph-name="aringacute" unicode="&#x1fb;" horiz-adv-x="375" 
d="M206 803h-61l68 135h74zM180 526q65 0 101 -36q19 -20 30 -47t11 -67v-376h-77v46q-6 -11 -14 -20t-16 -15q-12 -9 -26 -14t-35 -5q-29 0 -50 9.5t-39 29.5q-15 17 -24 46t-9 70q0 36 11.5 66.5t34.5 50.5q20 17 44.5 26t65.5 9h53v82q0 74 -61 74q-14 0 -23 -4.5
t-17 -12.5q-11 -11 -15 -25t-4 -35h-81q0 30 8.5 58.5t31.5 51.5q17 17 43.5 27.5t56.5 10.5zM195 240q-19 0 -32.5 -4t-25.5 -15q-11 -11 -17.5 -30.5t-6.5 -40.5q0 -41 15.5 -64t47.5 -23q29 0 47 22.5t18 58.5v96h-46zM184 779q41 0 69.5 -28.5t28.5 -69.5t-28.5 -69.5
t-69.5 -28.5q-20 0 -37.5 7.5t-31 21t-21 31.5t-7.5 38t7.5 38t21 31.5t31 21t37.5 7.5zM184 730q-20 0 -34.5 -14.5t-14.5 -34.5t14.5 -34.5t34.5 -14.5t35 14.5t15 34.5t-15 34.5t-35 14.5z" />
    <glyph glyph-name="AEacute" unicode="&#x1fc;" horiz-adv-x="640" 
d="M599 635h-189v-234h163v-77h-163v-247h189v-77h-275v172h-163l-61 -172h-95l263 712h331v-77zM188 250h136v385zM490 762h-62l69 135h74z" />
    <glyph glyph-name="aeacute" unicode="&#x1fd;" horiz-adv-x="576" 
d="M154 -8q-29 0 -50 9.5t-39 29.5q-15 17 -24 46t-9 70q0 36 11.5 66.5t34.5 50.5q20 17 44.5 26t65.5 9h53v82q0 74 -61 74q-14 0 -23 -4.5t-17 -12.5q-11 -11 -15 -25t-4 -35h-81q0 30 8.5 58.5t31.5 51.5q17 17 43.5 27.5t56.5 10.5q54 0 85 -26q10 -8 20 -22q3 5 7 9
l8 8q36 31 88 31q32 0 56.5 -9t45.5 -31q29 -31 37 -90.5t8 -155.5h-213q0 -62 3.5 -99t17.5 -54q8 -10 19 -16t27 -6q28 0 46 20q9 10 13.5 26t4.5 34h80q-1 -35 -10.5 -63.5t-30.5 -51.5q-19 -20 -45.5 -29t-57.5 -9q-50 0 -86 28q-11 8 -20 20t-16 24q-8 -15 -18 -28
t-21 -21q-14 -11 -31.5 -17t-42.5 -6zM176 63q29 0 47 22.5t18 58.5v96h-46q-19 0 -32.5 -4t-25.5 -15q-11 -11 -17.5 -30.5t-6.5 -40.5q0 -41 15.5 -64t47.5 -23zM453 301q0 57 -4 87t-16 44q-8 10 -18.5 15.5t-27.5 5.5t-27 -5.5t-18 -15.5q-12 -14 -16 -44t-4 -87h131z
M305 586h-61l68 135h74z" />
    <glyph glyph-name="Oslashacute" unicode="&#x1fe;" horiz-adv-x="442" 
d="M352 659q14 -19 22.5 -43.5t13 -59.5t6 -84t1.5 -116q0 -74 -1.5 -125t-7 -86t-16 -58.5t-27.5 -42.5q-21 -23 -50.5 -37.5t-71.5 -14.5q-49 0 -83 20l-19 -56h-62l34 96q-15 19 -23.5 43.5t-13 59.5t-6 84t-1.5 117q0 74 1.5 124.5t7 86t16 59t27.5 42.5
q21 23 50.5 37.5t71.5 14.5q48 0 83 -20l18 56h62zM165 91q19 -22 56 -22q21 0 35 7.5t23 19.5q10 13 16 31.5t9 48t4 73.5t1 107q0 72 -1.5 112t-6.5 63zM221 643q-21 0 -35.5 -7.5t-23.5 -19.5q-9 -13 -15 -31.5t-9 -48t-4 -73.5t-1 -107q0 -74 1.5 -113.5t6.5 -62.5
l136 441q-20 22 -56 22zM246 762h-62l69 135h74z" />
    <glyph glyph-name="oslashacute" unicode="&#x1ff;" horiz-adv-x="375" 
d="M72 48q-20 32 -26 84t-6 127q0 79 7 133.5t31 85.5q20 26 47 37t62 11q42 0 73 -16l21 52h58l-37 -91q21 -32 26.5 -84.5t5.5 -127.5q0 -79 -6.5 -133.5t-30.5 -85.5q-20 -26 -47.5 -37t-62.5 -11q-42 0 -73 16l-20 -52h-58zM229 436q-16 18 -42 18q-29 0 -45 -23
q-14 -20 -17.5 -61t-3.5 -111q0 -32 0.5 -57.5t2.5 -45.5zM187 64q30 0 46 23q14 20 17 61t3 111v58q0 26 -2 46l-105 -280q16 -19 41 -19zM209 586h-61l68 135h74z" />
    <glyph glyph-name="uni0200" unicode="&#x200;" horiz-adv-x="425" 
d="M171 712h83l166 -712h-91l-34 168h-166l-34 -168h-90zM279 245l-67 328l-67 -328h134zM111 896l68 -135h-61l-81 135h74zM238 896l69 -135h-62l-81 135h74z" />
    <glyph glyph-name="uni0201" unicode="&#x201;" horiz-adv-x="375" 
d="M180 526q65 0 101 -36q19 -20 30 -47t11 -67v-376h-77v46q-6 -11 -14 -20t-16 -15q-12 -9 -26 -14t-35 -5q-29 0 -50 9.5t-39 29.5q-15 17 -24 46t-9 70q0 36 11.5 66.5t34.5 50.5q20 17 44.5 26t65.5 9h53v82q0 74 -61 74q-14 0 -23 -4.5t-17 -12.5q-11 -11 -15 -25
t-4 -35h-81q0 30 8.5 58.5t31.5 51.5q17 17 43.5 27.5t56.5 10.5zM195 240q-19 0 -32.5 -4t-25.5 -15q-11 -11 -17.5 -30.5t-6.5 -40.5q0 -41 15.5 -64t47.5 -23q29 0 47 22.5t18 58.5v96h-46zM84 721l68 -135h-61l-81 135h74zM211 721l69 -135h-62l-81 135h74z" />
    <glyph glyph-name="uni0202" unicode="&#x202;" horiz-adv-x="425" 
d="M171 712h83l166 -712h-91l-34 168h-166l-34 -168h-90zM279 245l-67 328l-67 -328h134zM213 874q51 0 82.5 -26t35.5 -86h-58q-4 28 -19.5 40.5t-40.5 12.5q-24 0 -39.5 -12.5t-19.5 -40.5h-58q4 60 35.5 86t81.5 26z" />
    <glyph glyph-name="uni0203" unicode="&#x203;" horiz-adv-x="375" 
d="M180 526q65 0 101 -36q19 -20 30 -47t11 -67v-376h-77v46q-6 -11 -14 -20t-16 -15q-12 -9 -26 -14t-35 -5q-29 0 -50 9.5t-39 29.5q-15 17 -24 46t-9 70q0 36 11.5 66.5t34.5 50.5q20 17 44.5 26t65.5 9h53v82q0 74 -61 74q-14 0 -23 -4.5t-17 -12.5q-11 -11 -15 -25
t-4 -35h-81q0 30 8.5 58.5t31.5 51.5q17 17 43.5 27.5t56.5 10.5zM195 240q-19 0 -32.5 -4t-25.5 -15q-11 -11 -17.5 -30.5t-6.5 -40.5q0 -41 15.5 -64t47.5 -23q29 0 47 22.5t18 58.5v96h-46zM184 698q51 0 82.5 -26t35.5 -86h-58q-4 28 -19.5 40.5t-40.5 12.5
q-24 0 -39.5 -12.5t-19.5 -40.5h-58q4 60 35.5 86t81.5 26z" />
    <glyph glyph-name="uni0204" unicode="&#x204;" horiz-adv-x="380" 
d="M339 635h-189v-234h163v-77h-163v-247h189v-77h-275v712h275v-77zM103 896l68 -135h-61l-81 135h74zM230 896l69 -135h-62l-81 135h74z" />
    <glyph glyph-name="uni0205" unicode="&#x205;" 
d="M122 240q0 -62 3.5 -99t17.5 -54q7 -10 18.5 -16t27.5 -6q14 0 25 4.5t21 15.5t13.5 26t3.5 34h81q-1 -36 -10.5 -64t-31.5 -51q-37 -38 -102 -38q-33 0 -58 9t-45 31q-29 31 -37.5 88.5t-8.5 138.5q0 82 8 139t37 88q20 22 45 31t57 9t57 -9t45 -31q29 -31 37.5 -90.5
t8.5 -155.5h-213zM253 301q0 57 -4 87t-16 44q-8 10 -18.5 15.5t-27.5 5.5t-27 -5.5t-18 -15.5q-12 -14 -16 -44t-4 -87h131zM87 721l68 -135h-61l-81 135h74zM214 721l69 -135h-62l-81 135h74z" />
    <glyph glyph-name="uni0206" unicode="&#x206;" horiz-adv-x="380" 
d="M339 635h-189v-234h163v-77h-163v-247h189v-77h-275v712h275v-77zM205 874q51 0 82.5 -26t35.5 -86h-58q-4 28 -19.5 40.5t-40.5 12.5q-24 0 -39.5 -12.5t-19.5 -40.5h-58q4 60 35.5 86t81.5 26z" />
    <glyph glyph-name="uni0207" unicode="&#x207;" 
d="M122 240q0 -62 3.5 -99t17.5 -54q7 -10 18.5 -16t27.5 -6q14 0 25 4.5t21 15.5t13.5 26t3.5 34h81q-1 -36 -10.5 -64t-31.5 -51q-37 -38 -102 -38q-33 0 -58 9t-45 31q-29 31 -37.5 88.5t-8.5 138.5q0 82 8 139t37 88q20 22 45 31t57 9t57 -9t45 -31q29 -31 37.5 -90.5
t8.5 -155.5h-213zM253 301q0 57 -4 87t-16 44q-8 10 -18.5 15.5t-27.5 5.5t-27 -5.5t-18 -15.5q-12 -14 -16 -44t-4 -87h131zM187 698q51 0 82.5 -26t35.5 -86h-58q-4 28 -19.5 40.5t-40.5 12.5q-24 0 -39.5 -12.5t-19.5 -40.5h-58q4 60 35.5 86t81.5 26z" />
    <glyph glyph-name="uni0208" unicode="&#x208;" horiz-adv-x="214" 
d="M150 0h-86v712h86v-712zM6 896l68 -135h-61l-81 135h74zM133 896l69 -135h-62l-81 135h74z" />
    <glyph glyph-name="uni0209" unicode="&#x209;" horiz-adv-x="195" 
d="M138 0h-81v518h81v-518zM-2 721l68 -135h-61l-81 135h74zM125 721l69 -135h-62l-81 135h74z" />
    <glyph glyph-name="uni020A" unicode="&#x20a;" horiz-adv-x="214" 
d="M150 0h-86v712h86v-712zM108 874q51 0 82.5 -26t35.5 -86h-58q-4 28 -19.5 40.5t-40.5 12.5q-24 0 -39.5 -12.5t-19.5 -40.5h-58q4 60 35.5 86t81.5 26z" />
    <glyph glyph-name="uni020B" unicode="&#x20b;" horiz-adv-x="195" 
d="M138 0h-81v518h81v-518zM98 698q51 0 82.5 -26t35.5 -86h-58q-4 28 -19.5 40.5t-40.5 12.5q-24 0 -39.5 -12.5t-19.5 -40.5h-58q4 60 35.5 86t81.5 26z" />
    <glyph glyph-name="uni020C" unicode="&#x20c;" horiz-adv-x="442" 
d="M221 -8q-42 0 -72 14.5t-50 37.5q-17 19 -27 42.5t-15.5 59t-7.5 86t-2 124.5t2 124.5t7.5 86t15.5 58.5t27 43q20 23 50 37.5t72 14.5t72.5 -14.5t50.5 -37.5q17 -19 27 -42.5t15.5 -59t7 -86t1.5 -124.5t-1.5 -125t-7 -86t-15.5 -58.5t-27 -42.5q-20 -23 -50.5 -37.5
t-72.5 -14.5zM221 69q21 0 35.5 7.5t22.5 19.5q10 13 16 31.5t9 48t4 73.5t1 107t-1 107t-4 73.5t-9 48t-16 31.5q-8 12 -22.5 19.5t-35.5 7.5t-35.5 -7.5t-22.5 -19.5q-10 -13 -16 -31.5t-9 -48t-4 -73.5t-1 -107t1 -107t4 -73.5t9 -48t16 -31.5q8 -12 22.5 -19.5
t35.5 -7.5zM118 896l68 -135h-61l-81 135h74zM245 896l69 -135h-62l-81 135h74z" />
    <glyph glyph-name="uni020D" unicode="&#x20d;" 
d="M188 526q35 0 62.5 -11t47.5 -37q24 -31 30.5 -85.5t6.5 -133.5t-6.5 -133.5t-30.5 -85.5q-20 -26 -47.5 -37t-62.5 -11t-62 11t-47 37q-24 31 -31 85.5t-7 133.5t7 133.5t31 85.5q20 26 47 37t62 11zM188 454q-29 0 -45 -23q-14 -20 -17.5 -61t-3.5 -111t3.5 -111
t17.5 -61q16 -23 45 -23q30 0 46 23q14 20 17 61t3 111t-3 111t-17 61q-16 23 -46 23zM87 721l68 -135h-61l-81 135h74zM214 721l69 -135h-62l-81 135h74z" />
    <glyph glyph-name="uni020E" unicode="&#x20e;" horiz-adv-x="442" 
d="M221 -8q-42 0 -72 14.5t-50 37.5q-17 19 -27 42.5t-15.5 59t-7.5 86t-2 124.5t2 124.5t7.5 86t15.5 58.5t27 43q20 23 50 37.5t72 14.5t72.5 -14.5t50.5 -37.5q17 -19 27 -42.5t15.5 -59t7 -86t1.5 -124.5t-1.5 -125t-7 -86t-15.5 -58.5t-27 -42.5q-20 -23 -50.5 -37.5
t-72.5 -14.5zM221 69q21 0 35.5 7.5t22.5 19.5q10 13 16 31.5t9 48t4 73.5t1 107t-1 107t-4 73.5t-9 48t-16 31.5q-8 12 -22.5 19.5t-35.5 7.5t-35.5 -7.5t-22.5 -19.5q-10 -13 -16 -31.5t-9 -48t-4 -73.5t-1 -107t1 -107t4 -73.5t9 -48t16 -31.5q8 -12 22.5 -19.5
t35.5 -7.5zM220 874q51 0 82.5 -26t35.5 -86h-58q-4 28 -19.5 40.5t-40.5 12.5q-24 0 -39.5 -12.5t-19.5 -40.5h-58q4 60 35.5 86t81.5 26z" />
    <glyph glyph-name="uni020F" unicode="&#x20f;" 
d="M188 526q35 0 62.5 -11t47.5 -37q24 -31 30.5 -85.5t6.5 -133.5t-6.5 -133.5t-30.5 -85.5q-20 -26 -47.5 -37t-62.5 -11t-62 11t-47 37q-24 31 -31 85.5t-7 133.5t7 133.5t31 85.5q20 26 47 37t62 11zM188 454q-29 0 -45 -23q-14 -20 -17.5 -61t-3.5 -111t3.5 -111
t17.5 -61q16 -23 45 -23q30 0 46 23q14 20 17 61t3 111t-3 111t-17 61q-16 23 -46 23zM187 698q51 0 82.5 -26t35.5 -86h-58q-4 28 -19.5 40.5t-40.5 12.5q-24 0 -39.5 -12.5t-19.5 -40.5h-58q4 60 35.5 86t81.5 26z" />
    <glyph glyph-name="uni0210" unicode="&#x210;" horiz-adv-x="455" 
d="M225 712q40 0 71.5 -10t53 -33t32.5 -62.5t11 -97.5q0 -75 -19.5 -119.5t-66.5 -66.5l109 -323h-91l-98 306h-77v-306h-86v712h161zM150 635v-253h76q25 0 40.5 9t24.5 26t12.5 40t3.5 52q0 28 -3.5 51.5t-12.5 40t-24.5 25.5t-40.5 9h-76zM112 896l68 -135h-61l-81 135
h74zM239 896l69 -135h-62l-81 135h74z" />
    <glyph glyph-name="uni0211" unicode="&#x211;" horiz-adv-x="272" 
d="M256 448h-24q-42 0 -68 -25t-26 -70v-353h-81v518h78v-55q6 11 16 20.5t20 16.5q37 26 85 26v-78zM43 721l68 -135h-61l-81 135h74zM170 721l69 -135h-62l-81 135h74z" />
    <glyph glyph-name="uni0212" unicode="&#x212;" horiz-adv-x="455" 
d="M225 712q40 0 71.5 -10t53 -33t32.5 -62.5t11 -97.5q0 -75 -19.5 -119.5t-66.5 -66.5l109 -323h-91l-98 306h-77v-306h-86v712h161zM150 635v-253h76q25 0 40.5 9t24.5 26t12.5 40t3.5 52q0 28 -3.5 51.5t-12.5 40t-24.5 25.5t-40.5 9h-76zM214 874q51 0 82.5 -26
t35.5 -86h-58q-4 28 -19.5 40.5t-40.5 12.5q-24 0 -39.5 -12.5t-19.5 -40.5h-58q4 60 35.5 86t81.5 26z" />
    <glyph glyph-name="uni0213" unicode="&#x213;" horiz-adv-x="272" 
d="M256 448h-24q-42 0 -68 -25t-26 -70v-353h-81v518h78v-55q6 11 16 20.5t20 16.5q37 26 85 26v-78zM143 698q51 0 82.5 -26t35.5 -86h-58q-4 28 -19.5 40.5t-40.5 12.5q-24 0 -39.5 -12.5t-19.5 -40.5h-58q4 60 35.5 86t81.5 26z" />
    <glyph glyph-name="uni0214" unicode="&#x214;" horiz-adv-x="446" 
d="M388 163q0 -78 -46 -124q-45 -47 -119 -47q-73 0 -120 47q-45 47 -45 124v549h86v-546q0 -48 20.5 -72.5t58.5 -24.5q37 0 58 24.5t21 72.5v546h86v-549zM120 896l68 -135h-61l-81 135h74zM247 896l69 -135h-62l-81 135h74z" />
    <glyph glyph-name="uni0215" unicode="&#x215;" horiz-adv-x="395" 
d="M338 0h-78v40q-5 -9 -14.5 -18t-17.5 -14q-26 -16 -56 -16q-29 0 -50 9.5t-38 28.5q-16 17 -23.5 41t-7.5 66v381h81v-381q0 -35 18 -54t44 -19t43.5 19t17.5 54v381h81v-518zM95 721l68 -135h-61l-81 135h74zM222 721l69 -135h-62l-81 135h74z" />
    <glyph glyph-name="uni0216" unicode="&#x216;" horiz-adv-x="446" 
d="M388 163q0 -78 -46 -124q-45 -47 -119 -47q-73 0 -120 47q-45 47 -45 124v549h86v-546q0 -48 20.5 -72.5t58.5 -24.5q37 0 58 24.5t21 72.5v546h86v-549zM222 874q51 0 82.5 -26t35.5 -86h-58q-4 28 -19.5 40.5t-40.5 12.5q-24 0 -39.5 -12.5t-19.5 -40.5h-58
q4 60 35.5 86t81.5 26z" />
    <glyph glyph-name="uni0217" unicode="&#x217;" horiz-adv-x="395" 
d="M338 0h-78v40q-5 -9 -14.5 -18t-17.5 -14q-26 -16 -56 -16q-29 0 -50 9.5t-38 28.5q-16 17 -23.5 41t-7.5 66v381h81v-381q0 -35 18 -54t44 -19t43.5 19t17.5 54v381h81v-518zM195 698q51 0 82.5 -26t35.5 -86h-58q-4 28 -19.5 40.5t-40.5 12.5q-24 0 -39.5 -12.5
t-19.5 -40.5h-58q4 60 35.5 86t81.5 26z" />
    <glyph glyph-name="uni0218" unicode="&#x218;" horiz-adv-x="420" 
d="M210 718q39 0 68.5 -10.5t49.5 -30.5q27 -26 37 -61.5t10 -84.5h-86q0 29 -4 49t-18 37q-19 24 -58 24q-19 0 -32.5 -6t-22.5 -16q-25 -28 -25 -85q0 -26 2.5 -44t10 -31t21 -22t34.5 -18l80 -33q30 -12 49.5 -28.5t31 -39.5t15.5 -54t4 -73q0 -56 -9 -92.5t-35 -62.5
q-20 -20 -51.5 -31.5t-74.5 -11.5q-82 0 -125 43q-25 25 -34.5 59t-9.5 91h86q0 -35 5 -56.5t19 -36.5q9 -10 24 -16t35 -6q22 0 36.5 6t24.5 17q14 16 18.5 38t4.5 57q0 31 -3 52t-10.5 35.5t-21 24.5t-35.5 19l-81 33q-27 11 -46 25t-30 34.5t-16 49t-5 69.5q0 47 13.5 84
t40.5 62q44 41 113 41zM196 -182h-64l57 144h57z" />
    <glyph glyph-name="uni0219" unicode="&#x219;" horiz-adv-x="359" 
d="M179 526q64 0 101 -37q42 -40 42 -114h-80q0 23 -4.5 37t-14.5 25q-9 10 -20.5 14t-23.5 4q-28 0 -45 -17q-19 -19 -19 -50q0 -22 9 -38q11 -19 43 -34l66 -33q52 -25 73 -59q22 -33 22 -83q0 -35 -12 -61.5t-32 -46.5q-21 -22 -47.5 -31.5t-58.5 -9.5t-58.5 10t-45.5 30
q-44 45 -44 114h80q0 -40 22 -63q9 -9 21.5 -13.5t24.5 -4.5q30 0 49 19q20 20 20 52q0 27 -13 47q-8 11 -19 20t-27 17l-67 34q-50 25 -71 60q-16 28 -16 68q0 34 11.5 59.5t31.5 45.5t46 29.5t56 9.5zM169 -182h-64l57 144h57z" />
    <glyph glyph-name="uni021A" unicode="&#x21a;" horiz-adv-x="367" 
d="M346 635h-119v-635h-86v635h-120v77h325v-77zM165 -182h-64l57 144h57z" />
    <glyph glyph-name="uni021B" unicode="&#x21b;" horiz-adv-x="260" 
d="M240 0q-35 0 -64.5 5.5t-54.5 26.5q-45 37 -45 116v307h-59v63h59v142h81v-142h80v-63h-80v-304q0 -42 21 -60t62 -18v-73zM141 -182h-64l57 144h57z" />
    <glyph glyph-name="uni0226" unicode="&#x226;" horiz-adv-x="425" 
d="M171 712h83l166 -712h-91l-34 168h-166l-34 -168h-90zM279 245l-67 328l-67 -328h134zM255 777h-82v81h82v-81z" />
    <glyph glyph-name="uni0227" unicode="&#x227;" horiz-adv-x="375" 
d="M180 526q65 0 101 -36q19 -20 30 -47t11 -67v-376h-77v46q-6 -11 -14 -20t-16 -15q-12 -9 -26 -14t-35 -5q-29 0 -50 9.5t-39 29.5q-15 17 -24 46t-9 70q0 36 11.5 66.5t34.5 50.5q20 17 44.5 26t65.5 9h53v82q0 74 -61 74q-14 0 -23 -4.5t-17 -12.5q-11 -11 -15 -25
t-4 -35h-81q0 30 8.5 58.5t31.5 51.5q17 17 43.5 27.5t56.5 10.5zM195 240q-19 0 -32.5 -4t-25.5 -15q-11 -11 -17.5 -30.5t-6.5 -40.5q0 -41 15.5 -64t47.5 -23q29 0 47 22.5t18 58.5v96h-46zM225 602h-81v82h81v-82z" />
    <glyph glyph-name="uni0228" unicode="&#x228;" horiz-adv-x="380" 
d="M339 635h-189v-234h163v-77h-163v-247h189v-77h-275v712h275v-77zM182 -182h-64l57 144h57z" />
    <glyph glyph-name="uni0229" unicode="&#x229;" 
d="M122 240q0 -62 3.5 -99t17.5 -54q7 -10 18.5 -16t27.5 -6q14 0 25 4.5t21 15.5t13.5 26t3.5 34h81q-1 -36 -10.5 -64t-31.5 -51q-37 -38 -102 -38q-33 0 -58 9t-45 31q-29 31 -37.5 88.5t-8.5 138.5q0 82 8 139t37 88q20 22 45 31t57 9t57 -9t45 -31q29 -31 37.5 -90.5
t8.5 -155.5h-213zM253 301q0 57 -4 87t-16 44q-8 10 -18.5 15.5t-27.5 5.5t-27 -5.5t-18 -15.5q-12 -14 -16 -44t-4 -87h131zM173 -182h-64l57 144h57z" />
    <glyph glyph-name="uni022A" unicode="&#x22a;" horiz-adv-x="442" 
d="M335 918h-228v58h228v-58zM221 -8q-42 0 -72 14.5t-50 37.5q-17 19 -27 42.5t-15.5 59t-7.5 86t-2 124.5t2 124.5t7.5 86t15.5 58.5t27 43q20 23 50 37.5t72 14.5t72.5 -14.5t50.5 -37.5q17 -19 27 -42.5t15.5 -59t7 -86t1.5 -124.5t-1.5 -125t-7 -86t-15.5 -58.5
t-27 -42.5q-20 -23 -50.5 -37.5t-72.5 -14.5zM221 69q21 0 35.5 7.5t22.5 19.5q10 13 16 31.5t9 48t4 73.5t1 107t-1 107t-4 73.5t-9 48t-16 31.5q-8 12 -22.5 19.5t-35.5 7.5t-35.5 -7.5t-22.5 -19.5q-10 -13 -16 -31.5t-9 -48t-4 -73.5t-1 -107t1 -107t4 -73.5t9 -48
t16 -31.5q8 -12 22.5 -19.5t35.5 -7.5zM340 777h-82v81h82v-81zM184 777h-82v81h82v-81z" />
    <glyph glyph-name="uni022B" unicode="&#x22b;" 
d="M302 746h-229v57h229v-57zM188 526q35 0 62.5 -11t47.5 -37q24 -31 30.5 -85.5t6.5 -133.5t-6.5 -133.5t-30.5 -85.5q-20 -26 -47.5 -37t-62.5 -11t-62 11t-47 37q-24 31 -31 85.5t-7 133.5t7 133.5t31 85.5q20 26 47 37t62 11zM188 454q-29 0 -45 -23q-14 -20 -17.5 -61
t-3.5 -111t3.5 -111t17.5 -61q16 -23 45 -23q30 0 46 23q14 20 17 61t3 111t-3 111t-17 61q-16 23 -46 23zM150 602h-82v82h82v-82zM307 602h-82v82h82v-82z" />
    <glyph glyph-name="uni022C" unicode="&#x22c;" horiz-adv-x="442" 
d="M335 918h-228v58h228v-58zM221 -8q-42 0 -72 14.5t-50 37.5q-17 19 -27 42.5t-15.5 59t-7.5 86t-2 124.5t2 124.5t7.5 86t15.5 58.5t27 43q20 23 50 37.5t72 14.5t72.5 -14.5t50.5 -37.5q17 -19 27 -42.5t15.5 -59t7 -86t1.5 -124.5t-1.5 -125t-7 -86t-15.5 -58.5
t-27 -42.5q-20 -23 -50.5 -37.5t-72.5 -14.5zM221 69q21 0 35.5 7.5t22.5 19.5q10 13 16 31.5t9 48t4 73.5t1 107t-1 107t-4 73.5t-9 48t-16 31.5q-8 12 -22.5 19.5t-35.5 7.5t-35.5 -7.5t-22.5 -19.5q-10 -13 -16 -31.5t-9 -48t-4 -73.5t-1 -107t1 -107t4 -73.5t9 -48
t16 -31.5q8 -12 22.5 -19.5t35.5 -7.5zM169 861q20 0 32.5 -5t23.5 -12q11 -6 21 -11t24 -5q15 0 25 7t19 16l38 -37q-17 -17 -36 -29.5t-44 -12.5q-20 0 -33 5t-24 11t-21 11t-23 5q-14 0 -24.5 -7t-20.5 -16l-36 37q21 22 39 32.5t40 10.5z" />
    <glyph glyph-name="uni022D" unicode="&#x22d;" 
d="M302 746h-229v57h229v-57zM188 526q35 0 62.5 -11t47.5 -37q24 -31 30.5 -85.5t6.5 -133.5t-6.5 -133.5t-30.5 -85.5q-20 -26 -47.5 -37t-62.5 -11t-62 11t-47 37q-24 31 -31 85.5t-7 133.5t7 133.5t31 85.5q20 26 47 37t62 11zM188 454q-29 0 -45 -23q-14 -20 -17.5 -61
t-3.5 -111t3.5 -111t17.5 -61q16 -23 45 -23q30 0 46 23q14 20 17 61t3 111t-3 111t-17 61q-16 23 -46 23zM138 685q17 0 30 -4t28 -13q11 -7 21 -11t22 -4q9 0 18.5 3.5t25.5 19.5l38 -38q-26 -25 -44 -33.5t-36 -8.5q-17 0 -30 4.5t-28 12.5q-11 7 -21 11t-22 4
q-10 0 -19 -3t-26 -20l-36 38q25 25 42.5 33.5t36.5 8.5z" />
    <glyph glyph-name="uni022E" unicode="&#x22e;" horiz-adv-x="442" 
d="M221 -8q-42 0 -72 14.5t-50 37.5q-17 19 -27 42.5t-15.5 59t-7.5 86t-2 124.5t2 124.5t7.5 86t15.5 58.5t27 43q20 23 50 37.5t72 14.5t72.5 -14.5t50.5 -37.5q17 -19 27 -42.5t15.5 -59t7 -86t1.5 -124.5t-1.5 -125t-7 -86t-15.5 -58.5t-27 -42.5q-20 -23 -50.5 -37.5
t-72.5 -14.5zM221 69q21 0 35.5 7.5t22.5 19.5q10 13 16 31.5t9 48t4 73.5t1 107t-1 107t-4 73.5t-9 48t-16 31.5q-8 12 -22.5 19.5t-35.5 7.5t-35.5 -7.5t-22.5 -19.5q-10 -13 -16 -31.5t-9 -48t-4 -73.5t-1 -107t1 -107t4 -73.5t9 -48t16 -31.5q8 -12 22.5 -19.5
t35.5 -7.5zM262 777h-82v81h82v-81z" />
    <glyph glyph-name="uni022F" unicode="&#x22f;" 
d="M188 526q35 0 62.5 -11t47.5 -37q24 -31 30.5 -85.5t6.5 -133.5t-6.5 -133.5t-30.5 -85.5q-20 -26 -47.5 -37t-62.5 -11t-62 11t-47 37q-24 31 -31 85.5t-7 133.5t7 133.5t31 85.5q20 26 47 37t62 11zM188 454q-29 0 -45 -23q-14 -20 -17.5 -61t-3.5 -111t3.5 -111
t17.5 -61q16 -23 45 -23q30 0 46 23q14 20 17 61t3 111t-3 111t-17 61q-16 23 -46 23zM228 602h-81v82h81v-82z" />
    <glyph glyph-name="uni0230" unicode="&#x230;" horiz-adv-x="442" 
d="M335 918h-228v58h228v-58zM221 -8q-42 0 -72 14.5t-50 37.5q-17 19 -27 42.5t-15.5 59t-7.5 86t-2 124.5t2 124.5t7.5 86t15.5 58.5t27 43q20 23 50 37.5t72 14.5t72.5 -14.5t50.5 -37.5q17 -19 27 -42.5t15.5 -59t7 -86t1.5 -124.5t-1.5 -125t-7 -86t-15.5 -58.5
t-27 -42.5q-20 -23 -50.5 -37.5t-72.5 -14.5zM221 69q21 0 35.5 7.5t22.5 19.5q10 13 16 31.5t9 48t4 73.5t1 107t-1 107t-4 73.5t-9 48t-16 31.5q-8 12 -22.5 19.5t-35.5 7.5t-35.5 -7.5t-22.5 -19.5q-10 -13 -16 -31.5t-9 -48t-4 -73.5t-1 -107t1 -107t4 -73.5t9 -48
t16 -31.5q8 -12 22.5 -19.5t35.5 -7.5zM262 777h-82v81h82v-81z" />
    <glyph glyph-name="uni0231" unicode="&#x231;" 
d="M302 746h-229v57h229v-57zM188 526q35 0 62.5 -11t47.5 -37q24 -31 30.5 -85.5t6.5 -133.5t-6.5 -133.5t-30.5 -85.5q-20 -26 -47.5 -37t-62.5 -11t-62 11t-47 37q-24 31 -31 85.5t-7 133.5t7 133.5t31 85.5q20 26 47 37t62 11zM188 454q-29 0 -45 -23q-14 -20 -17.5 -61
t-3.5 -111t3.5 -111t17.5 -61q16 -23 45 -23q30 0 46 23q14 20 17 61t3 111t-3 111t-17 61q-16 23 -46 23zM228 602h-81v82h81v-82z" />
    <glyph glyph-name="uni0232" unicode="&#x232;" horiz-adv-x="353" 
d="M219 288v-288h-86v288l-131 424h94l80 -304l80 304h95zM291 780h-228v58h228v-58z" />
    <glyph glyph-name="uni0233" unicode="&#x233;" horiz-adv-x="343" 
d="M193 -83q-8 -35 -24 -56.5t-38 -33.5t-50 -16.5t-60 -4.5v72q38 0 61 12.5t32 47.5l16 63l-126 517h89l79 -389l78 389h89zM288 608h-229v57h229v-57z" />
    <glyph glyph-name="uni0237" unicode="&#x237;" horiz-adv-x="195" 
d="M138 -46q0 -43 -12.5 -71t-33.5 -45q-23 -20 -51.5 -26t-61.5 -6v73q38 0 58 17t20 61v561h81v-564z" />
    <glyph glyph-name="uni0259" unicode="&#x259;" 
d="M254 278q0 62 -3.5 99t-17.5 54q-7 10 -18.5 16t-27.5 6q-14 0 -25 -4.5t-21 -15.5t-13.5 -26t-3.5 -34h-81q1 36 10.5 64t31.5 51q37 38 102 38q33 0 58 -9t45 -31q29 -31 37.5 -88.5t8.5 -138.5q0 -82 -8 -139t-37 -88q-20 -22 -45 -31t-57 -9t-57 9t-45 31
q-29 31 -37.5 90.5t-8.5 155.5h213zM123 217q0 -57 4 -87t16 -44q8 -10 18.5 -15.5t27.5 -5.5t27 5.5t18 15.5q12 14 16 44t4 87h-131z" />
    <glyph glyph-name="uni02BB" unicode="&#x2bb;" horiz-adv-x="203" 
d="M148 601h-93v112l93 68v-180z" />
    <glyph glyph-name="uni02BC" unicode="&#x2bc;" horiz-adv-x="203" 
d="M148 600l-93 -68v180h93v-112z" />
    <glyph glyph-name="uni02C0" unicode="&#x2c0;" 
d="M147 768q46 0 73 -26.5t27 -65.5q0 -40 -27 -66.5t-73 -26.5v50q20 0 32 12.5t12 30.5t-12 30.5t-32 12.5v49z" />
    <glyph glyph-name="circumflex" unicode="&#x2c6;" 
d="M315 586h-67l-60 87l-59 -87h-67l93 135h67z" />
    <glyph glyph-name="caron" unicode="&#x2c7;" 
d="M222 582h-67l-93 135h67l59 -87l60 87h67z" />
    <glyph glyph-name="breve" unicode="&#x2d8;" 
d="M306 691q-4 -60 -35.5 -86t-82.5 -26q-50 0 -81.5 26t-35.5 86h58q4 -28 19.5 -40.5t39.5 -12.5q25 0 40.5 12.5t19.5 40.5h58z" />
    <glyph glyph-name="dotaccent" unicode="&#x2d9;" 
d="M229 602h-81v82h81v-82z" />
    <glyph glyph-name="ring" unicode="&#x2da;" 
d="M188 779q41 0 69.5 -28.5t28.5 -69.5t-28.5 -69.5t-69.5 -28.5q-20 0 -37.5 7.5t-31 21t-21 31.5t-7.5 38t7.5 38t21 31.5t31 21t37.5 7.5zM188 730q-20 0 -34.5 -14.5t-14.5 -34.5t14.5 -34.5t34.5 -14.5t35 14.5t15 34.5t-15 34.5t-35 14.5z" />
    <glyph glyph-name="ogonek" unicode="&#x2db;" 
d="M173 -182h-64l57 144h57z" />
    <glyph glyph-name="tilde" unicode="&#x2dc;" 
d="M137 685q17 0 30 -4t28 -13q11 -7 21 -11t22 -4q9 0 18.5 3.5t25.5 19.5l38 -38q-26 -25 -44 -33.5t-36 -8.5q-17 0 -30 4.5t-28 12.5q-11 7 -21 11t-22 4q-10 0 -19 -3t-26 -20l-36 38q25 25 42.5 33.5t36.5 8.5z" />
    <glyph glyph-name="hungarumlaut" unicode="&#x2dd;" 
d="M220 721l-69 -135h-58l53 135h74zM345 721l-68 -135h-58l52 135h74z" />
    <glyph glyph-name="gravecomb" unicode="&#x300;" horiz-adv-x="1" 
d="M73 586h-62l-81 135h74z" />
    <glyph glyph-name="acutecomb" unicode="&#x301;" horiz-adv-x="1" 
d="M-8 586h-61l68 135h74z" />
    <glyph glyph-name="uni0302" unicode="&#x302;" horiz-adv-x="1" 
d="M128 586h-67l-60 87l-59 -87h-67l93 135h67z" />
    <glyph glyph-name="tildecomb" unicode="&#x303;" horiz-adv-x="1" 
d="M-50 685q17 0 30 -4t28 -13q11 -7 21 -11t22 -4q9 0 18.5 3.5t25.5 19.5l38 -38q-26 -25 -44 -33.5t-36 -8.5q-17 0 -30 4.5t-28 12.5q-11 7 -21 11t-22 4q-10 0 -19 -3t-26 -20l-36 38q25 25 42.5 33.5t36.5 8.5z" />
    <glyph glyph-name="uni0304" unicode="&#x304;" horiz-adv-x="1" 
d="M116 608h-229v57h229v-57z" />
    <glyph glyph-name="uni0306" unicode="&#x306;" horiz-adv-x="1" 
d="M119 691q-4 -60 -35.5 -86t-82.5 -26q-50 0 -81.5 26t-35.5 86h58q4 -28 19.5 -40.5t39.5 -12.5q25 0 40.5 12.5t19.5 40.5h58z" />
    <glyph glyph-name="uni0307" unicode="&#x307;" horiz-adv-x="1" 
d="M42 602h-81v82h81v-82z" />
    <glyph glyph-name="uni0308" unicode="&#x308;" horiz-adv-x="1" 
d="M-36 602h-82v82h82v-82zM121 602h-82v82h82v-82z" />
    <glyph glyph-name="hookabovecomb" unicode="&#x309;" horiz-adv-x="1" 
d="M-48 768q46 0 73 -26.5t27 -65.5q0 -40 -27 -66.5t-73 -26.5v50q20 0 32 12.5t12 30.5t-12 30.5t-32 12.5v49z" />
    <glyph glyph-name="uni030A" unicode="&#x30a;" horiz-adv-x="1" 
d="M1 779q41 0 69.5 -28.5t28.5 -69.5t-28.5 -69.5t-69.5 -28.5q-20 0 -37.5 7.5t-31 21t-21 31.5t-7.5 38t7.5 38t21 31.5t31 21t37.5 7.5zM1 730q-20 0 -34.5 -14.5t-14.5 -34.5t14.5 -34.5t34.5 -14.5t35 14.5t15 34.5t-15 34.5t-35 14.5z" />
    <glyph glyph-name="uni030B" unicode="&#x30b;" horiz-adv-x="1" 
d="M3 721l-69 -135h-58l53 135h74zM128 721l-68 -135h-58l52 135h74z" />
    <glyph glyph-name="uni030C" unicode="&#x30c;" horiz-adv-x="1" 
d="M35 582h-67l-93 135h67l59 -87l60 87h67z" />
    <glyph glyph-name="uni030F" unicode="&#x30f;" horiz-adv-x="1" 
d="M-59 721l68 -135h-61l-81 135h74zM68 721l69 -135h-62l-81 135h74z" />
    <glyph glyph-name="uni0310" unicode="&#x310;" horiz-adv-x="1" 
d="M118 691q-4 -60 -35.5 -86t-81.5 -26q-51 0 -82.5 26t-35.5 86h58q4 -28 19.5 -40.5t40.5 -12.5q24 0 39.5 12.5t19.5 40.5h58zM41 722h-81v81h81v-81z" />
    <glyph glyph-name="uni0311" unicode="&#x311;" horiz-adv-x="1" 
d="M1 698q51 0 82.5 -26t35.5 -86h-58q-4 28 -19.5 40.5t-40.5 12.5q-24 0 -39.5 -12.5t-19.5 -40.5h-58q4 60 35.5 86t81.5 26z" />
    <glyph glyph-name="uni0312" unicode="&#x312;" horiz-adv-x="1" 
d="M1 586h-57l49 144h65z" />
    <glyph glyph-name="uni0313" unicode="&#x313;" horiz-adv-x="1" 
d="M11 586h-55l23 144h66z" />
    <glyph glyph-name="uni0316" unicode="&#x316;" horiz-adv-x="1" 
d="M72 -173h-62l-81 135h74z" />
    <glyph glyph-name="uni0317" unicode="&#x317;" horiz-adv-x="1" 
d="M-9 -173h-61l68 135h74z" />
    <glyph glyph-name="uni031B" unicode="&#x31b;" horiz-adv-x="1" 
d="M57 495q0 -59 -24.5 -86.5t-78.5 -28.5h-10v56h8q23 0 32.5 18t9.5 50v42h63v-51z" />
    <glyph glyph-name="uni031C" unicode="&#x31c;" horiz-adv-x="1" 
d="M51 -80q-20 0 -32 -12.5t-12 -30.5t12 -30.5t32 -12.5v-49q-46 0 -73 26t-27 66q0 39 27 65.5t73 26.5v-49z" />
    <glyph glyph-name="dotbelowcomb" unicode="&#x323;" horiz-adv-x="1" 
d="M42 -142h-81v82h81v-82z" />
    <glyph glyph-name="uni0324" unicode="&#x324;" horiz-adv-x="1" 
d="M-35 -142h-82v82h82v-82zM121 -142h-81v82h81v-82z" />
    <glyph glyph-name="uni0325" unicode="&#x325;" horiz-adv-x="1" 
d="M1 -26q41 0 69.5 -28.5t28.5 -69.5t-28.5 -69.5t-69.5 -28.5q-20 0 -37.5 7.5t-31 21t-21 31.5t-7.5 38t7.5 38t21 31.5t31 21t37.5 7.5zM1 -75q-20 0 -34.5 -14.5t-14.5 -34.5t14.5 -34.5t34.5 -14.5t35 14.5t15 34.5t-15 34.5t-35 14.5z" />
    <glyph glyph-name="uni0326" unicode="&#x326;" horiz-adv-x="1" 
d="M9 -182h-64l57 144h57z" />
    <glyph glyph-name="uni0327" unicode="&#x327;" horiz-adv-x="1" 
d="M-49 -31q46 0 73 -26.5t27 -65.5q0 -40 -27 -66.5t-73 -26.5v50q20 0 32 12.5t12 30.5t-12 30.5t-32 12.5v49z" />
    <glyph glyph-name="uni0328" unicode="&#x328;" horiz-adv-x="1" 
d="M9 -182h-64l57 144h57z" />
    <glyph glyph-name="uni032C" unicode="&#x32c;" horiz-adv-x="1" 
d="M34 -173h-67l-93 135h67l59 -87l60 87h67z" />
    <glyph glyph-name="uni032D" unicode="&#x32d;" horiz-adv-x="1" 
d="M128 -173h-67l-60 87l-59 -87h-67l93 135h67z" />
    <glyph glyph-name="uni032E" unicode="&#x32e;" horiz-adv-x="1" 
d="M119 -41q-4 -60 -35.5 -86t-82.5 -26q-50 0 -81.5 26t-35.5 86h58q4 -28 19.5 -40.5t39.5 -12.5q25 0 40.5 12.5t19.5 40.5h58z" />
    <glyph glyph-name="uni032F" unicode="&#x32f;" horiz-adv-x="1" 
d="M0 -30q51 0 82.5 -26t35.5 -86h-58q-4 28 -19.5 40.5t-40.5 12.5q-24 0 -39.5 -12.5t-19.5 -40.5h-58q4 60 35.5 86t81.5 26z" />
    <glyph glyph-name="uni0330" unicode="&#x330;" horiz-adv-x="1" 
d="M-50 -57q17 0 30 -4t28 -13q11 -7 21 -11t22 -4q9 0 18.5 3.5t25.5 19.5l38 -38q-26 -25 -44 -33.5t-36 -8.5q-17 0 -30 4.5t-28 12.5q-11 7 -21 11t-22 4q-10 0 -19 -3t-26 -20l-36 38q25 25 42.5 33.5t36.5 8.5z" />
    <glyph glyph-name="uni0331" unicode="&#x331;" horiz-adv-x="1" 
d="M116 -130h-229v57h229v-57z" />
    <glyph glyph-name="uni0340" unicode="&#x340;" horiz-adv-x="1" 
d="M78 653h-61l-93 135h74z" />
    <glyph glyph-name="uni0341" unicode="&#x341;" horiz-adv-x="1" 
d="M-9 653h-61l68 135h74z" />
    <glyph glyph-name="uni037E" unicode="&#x37e;" horiz-adv-x="242" 
d="M180 -56l-92 -68v224h92v-156zM183 326h-99v99h99v-99z" />
    <glyph glyph-name="tonos" unicode="&#x384;" 
d="M225 664l-73 -54v132h73v-78z" />
    <glyph glyph-name="dieresistonos" unicode="&#x385;" 
d="M224 625l-70 -50v157h70v-107zM117 601h-72v82h72v-82zM330 601h-72v82h72v-82z" />
    <glyph glyph-name="Alphatonos" unicode="&#x386;" horiz-adv-x="425" 
d="M171 712h83l166 -712h-91l-34 168h-166l-34 -168h-90zM279 245l-67 328l-67 -328h134zM67 634l-73 -54v132h73v-78z" />
    <glyph glyph-name="anoteleia" unicode="&#x387;" horiz-adv-x="266" 
d="M182 233h-99v99h99v-99z" />
    <glyph glyph-name="Epsilontonos" unicode="&#x388;" horiz-adv-x="380" 
d="M339 635h-189v-234h163v-77h-163v-247h189v-77h-275v712h275v-77zM-3 634l-73 -54v132h73v-78z" />
    <glyph glyph-name="Etatonos" unicode="&#x389;" horiz-adv-x="458" 
d="M394 0h-86v324h-158v-324h-86v712h86v-311h158v311h86v-712zM-3 634l-73 -54v132h73v-78z" />
    <glyph glyph-name="Iotatonos" unicode="&#x38a;" horiz-adv-x="214" 
d="M150 0h-86v712h86v-712zM-3 634l-73 -54v132h73v-78z" />
    <glyph glyph-name="Omicrontonos" unicode="&#x38c;" horiz-adv-x="442" 
d="M221 -8q-42 0 -72 14.5t-50 37.5q-17 19 -27 42.5t-15.5 59t-7.5 86t-2 124.5t2 124.5t7.5 86t15.5 58.5t27 43q20 23 50 37.5t72 14.5t72.5 -14.5t50.5 -37.5q17 -19 27 -42.5t15.5 -59t7 -86t1.5 -124.5t-1.5 -125t-7 -86t-15.5 -58.5t-27 -42.5q-20 -23 -50.5 -37.5
t-72.5 -14.5zM221 69q21 0 35.5 7.5t22.5 19.5q10 13 16 31.5t9 48t4 73.5t1 107t-1 107t-4 73.5t-9 48t-16 31.5q-8 12 -22.5 19.5t-35.5 7.5t-35.5 -7.5t-22.5 -19.5q-10 -13 -16 -31.5t-9 -48t-4 -73.5t-1 -107t1 -107t4 -73.5t9 -48t16 -31.5q8 -12 22.5 -19.5
t35.5 -7.5zM17 634l-73 -54v132h73v-78z" />
    <glyph glyph-name="Upsilontonos" unicode="&#x38e;" horiz-adv-x="353" 
d="M219 288v-288h-86v288l-131 424h94l80 -304l80 304h95zM-24 634l-73 -54v132h73v-78z" />
    <glyph glyph-name="Omegatonos" unicode="&#x38f;" horiz-adv-x="451" 
d="M226 720q43 0 72.5 -14t49.5 -37q17 -20 27 -44t15.5 -60t7 -86.5t1.5 -122.5q0 -90 -3 -148t-17 -90q-7 -17 -17.5 -27.5t-22.5 -18.5h65v-72h-153v64q17 8 30.5 22t19.5 36q9 31 10.5 86t1.5 148q0 68 -1.5 113t-4.5 73.5t-8.5 45t-14.5 28.5t-23.5 19.5t-34.5 7.5
t-35 -7.5t-23 -19.5q-9 -12 -14.5 -28.5t-9 -45t-5 -73.5t-1.5 -113q0 -93 1.5 -148t10.5 -86q6 -22 19.5 -36t30.5 -22v-64h-153v72h65q-12 8 -22.5 18.5t-17.5 27.5q-13 32 -16.5 90t-3.5 148q0 72 1.5 122.5t7 86.5t15.5 60t28 44q20 23 49 37t73 14zM32 634l-73 -54v132
h73v-78z" />
    <glyph glyph-name="iotadieresistonos" unicode="&#x390;" horiz-adv-x="227" 
d="M134 151q0 -78 78 -78v-73q-33 0 -61.5 6t-51.5 26q-21 18 -33.5 45t-12.5 71v370h81v-367zM130 625l-70 -50v157h70v-107zM23 601h-72v82h72v-82zM236 601h-72v82h72v-82z" />
    <glyph glyph-name="Alpha" unicode="&#x391;" horiz-adv-x="425" 
d="M171 712h83l166 -712h-91l-34 168h-166l-34 -168h-90zM279 245l-67 328l-67 -328h134z" />
    <glyph glyph-name="Beta" unicode="&#x392;" horiz-adv-x="444" 
d="M217 712q48 0 78 -10t52 -33q12 -12 20 -25t13 -30t7 -38.5t2 -50.5q0 -38 -8 -69.5t-34 -57.5q-17 -17 -40 -27q12 -4 23.5 -11t20.5 -15q28 -27 35.5 -63t7.5 -82q0 -32 -2.5 -56t-8.5 -42.5t-14.5 -32.5t-20.5 -26q-22 -23 -52.5 -33t-78.5 -10h-153v712h153zM150 333
v-256h62q24 0 42 6t30 21t18 39.5t6 61.5q0 69 -24 98.5t-72 29.5h-62zM150 635v-228h63q46 0 68 26.5t22 87.5q0 65 -21.5 89.5t-68.5 24.5h-63z" />
    <glyph glyph-name="Gamma" unicode="&#x393;" horiz-adv-x="355" 
d="M333 635h-183v-635h-86v712h269v-77z" />
    <glyph glyph-name="uni0394" unicode="&#x394;" horiz-adv-x="424" 
d="M253 712l166 -712h-414l166 712h82zM212 573l-101 -496h202z" />
    <glyph glyph-name="Epsilon" unicode="&#x395;" horiz-adv-x="380" 
d="M339 635h-189v-234h163v-77h-163v-247h189v-77h-275v712h275v-77z" />
    <glyph glyph-name="Zeta" unicode="&#x396;" horiz-adv-x="349" 
d="M318 647l-197 -570h197v-77h-287v65l198 570h-185v77h274v-65z" />
    <glyph glyph-name="Eta" unicode="&#x397;" horiz-adv-x="458" 
d="M394 0h-86v324h-158v-324h-86v712h86v-311h158v311h86v-712z" />
    <glyph glyph-name="Theta" unicode="&#x398;" horiz-adv-x="442" 
d="M221 -8q-42 0 -72 14.5t-50 37.5q-17 19 -27 42.5t-15.5 59t-7.5 86t-2 124.5t2 124.5t7.5 86t15.5 58.5t27 43q20 23 50 37.5t72 14.5t72.5 -14.5t50.5 -37.5q17 -19 27 -42.5t15.5 -59t7 -86t1.5 -124.5t-1.5 -125t-7 -86t-15.5 -58.5t-27 -42.5q-20 -23 -50.5 -37.5
t-72.5 -14.5zM221 69q21 0 35.5 7.5t22.5 19.5q9 12 14.5 29t9 43t5 64.5t1.5 92.5h-176q0 -54 1.5 -92.5t4.5 -64.5t9 -43t15 -29t23 -19.5t35 -7.5zM163 616q-9 -12 -14.5 -28.5t-9 -41.5t-5 -60.5t-1.5 -86.5h176q0 51 -1.5 86.5t-5 61t-9 41.5t-14.5 28
q-8 12 -22.5 19.5t-35.5 7.5t-35.5 -7.5t-22.5 -19.5z" />
    <glyph glyph-name="Iota" unicode="&#x399;" horiz-adv-x="214" 
d="M150 0h-86v712h86v-712z" />
    <glyph glyph-name="Kappa" unicode="&#x39a;" horiz-adv-x="446" 
d="M266 418l165 -418h-93l-126 322l-62 -123v-199h-86v712h86v-361l172 361h88z" />
    <glyph glyph-name="Lambda" unicode="&#x39b;" horiz-adv-x="394" 
d="M241 712l148 -712h-94l-98 573l-98 -573h-94l148 712h88z" />
    <glyph glyph-name="Mu" unicode="&#x39c;" horiz-adv-x="577" 
d="M513 0h-86v507l-113 -333h-53l-111 325v-499h-86v712h81l144 -396l143 396h81v-712z" />
    <glyph glyph-name="Nu" unicode="&#x39d;" horiz-adv-x="476" 
d="M412 0h-78l-184 487v-487h-86v712h80l182 -487v487h86v-712z" />
    <glyph glyph-name="Xi" unicode="&#x39e;" horiz-adv-x="380" 
d="M148 77v246h-84v78h84v234h-106v77h298v-77h-106v-234h85v-78h-85v-246h106v-77h-298v77h106z" />
    <glyph glyph-name="Omicron" unicode="&#x39f;" horiz-adv-x="442" 
d="M221 -8q-42 0 -72 14.5t-50 37.5q-17 19 -27 42.5t-15.5 59t-7.5 86t-2 124.5t2 124.5t7.5 86t15.5 58.5t27 43q20 23 50 37.5t72 14.5t72.5 -14.5t50.5 -37.5q17 -19 27 -42.5t15.5 -59t7 -86t1.5 -124.5t-1.5 -125t-7 -86t-15.5 -58.5t-27 -42.5q-20 -23 -50.5 -37.5
t-72.5 -14.5zM221 69q21 0 35.5 7.5t22.5 19.5q10 13 16 31.5t9 48t4 73.5t1 107t-1 107t-4 73.5t-9 48t-16 31.5q-8 12 -22.5 19.5t-35.5 7.5t-35.5 -7.5t-22.5 -19.5q-10 -13 -16 -31.5t-9 -48t-4 -73.5t-1 -107t1 -107t4 -73.5t9 -48t16 -31.5q8 -12 22.5 -19.5
t35.5 -7.5z" />
    <glyph glyph-name="Pi" unicode="&#x3a0;" horiz-adv-x="452" 
d="M388 0h-86v635h-152v-635h-86v712h324v-712z" />
    <glyph glyph-name="Rho" unicode="&#x3a1;" horiz-adv-x="435" 
d="M224 712q40 0 71.5 -10.5t53.5 -34.5t33 -64t11 -99t-11.5 -98.5t-33.5 -63.5t-53 -34.5t-71 -10.5h-74v-297h-86v712h160zM150 635v-261h71q44 0 65 29t21 101t-21 101.5t-65 29.5h-71z" />
    <glyph glyph-name="Sigma" unicode="&#x3a3;" horiz-adv-x="350" 
d="M319 635h-191l98 -265l-106 -293h198v-77h-287v65l111 304l-104 278v65h281v-77z" />
    <glyph glyph-name="Tau" unicode="&#x3a4;" horiz-adv-x="367" 
d="M346 635h-119v-635h-86v635h-120v77h325v-77z" />
    <glyph glyph-name="Upsilon" unicode="&#x3a5;" horiz-adv-x="353" 
d="M219 288v-288h-86v288l-131 424h94l80 -304l80 304h95z" />
    <glyph glyph-name="Phi" unicode="&#x3a6;" horiz-adv-x="545" 
d="M315 663q54 -3 89.5 -21.5t56.5 -55.5t29 -92.5t8 -132.5t-8 -132.5t-29 -92t-56.5 -55.5t-89.5 -22v-59h-86v59q-54 3 -89 22t-56 55.5t-29 92t-8 132.5t8 132.5t29 92.5t56 55.5t89 21.5v49h86v-49zM231 588q-33 -2 -52 -16t-29.5 -41.5t-13.5 -70t-3 -99.5t3 -99
t13.5 -70t29.5 -42t52 -15v453zM314 135q33 1 52 15t29.5 42t13.5 70t3 99t-3 99.5t-13.5 70t-29.5 41.5t-52 16v-453z" />
    <glyph glyph-name="Chi" unicode="&#x3a7;" horiz-adv-x="403" 
d="M248 370l140 -370h-94l-93 282l-92 -282h-94l136 370l-125 342h94l81 -260l82 260h94z" />
    <glyph glyph-name="Psi" unicode="&#x3a8;" horiz-adv-x="510" 
d="M212 147q-37 3 -67.5 14.5t-50.5 31.5q-21 20 -34.5 52t-13.5 74v393h86v-392q0 -43 22.5 -66.5t57.5 -28.5v487h86v-487q36 5 58 28.5t22 66.5v392h86v-393q0 -42 -13.5 -74t-33.5 -52t-51 -31.5t-68 -14.5v-147h-86v147z" />
    <glyph glyph-name="uni03A9" unicode="&#x3a9;" horiz-adv-x="451" 
d="M226 720q43 0 72.5 -14t49.5 -37q17 -20 27 -44t15.5 -60t7 -86.5t1.5 -122.5q0 -90 -3 -148t-17 -90q-7 -17 -17.5 -27.5t-22.5 -18.5h65v-72h-153v64q17 8 30.5 22t19.5 36q9 31 10.5 86t1.5 148q0 68 -1.5 113t-4.5 73.5t-8.5 45t-14.5 28.5t-23.5 19.5t-34.5 7.5
t-35 -7.5t-23 -19.5q-9 -12 -14.5 -28.5t-9 -45t-5 -73.5t-1.5 -113q0 -93 1.5 -148t10.5 -86q6 -22 19.5 -36t30.5 -22v-64h-153v72h65q-12 8 -22.5 18.5t-17.5 27.5q-13 32 -16.5 90t-3.5 148q0 72 1.5 122.5t7 86.5t15.5 60t28 44q20 23 49 37t73 14z" />
    <glyph glyph-name="Iotadieresis" unicode="&#x3aa;" horiz-adv-x="214" 
d="M150 0h-86v712h86v-712zM228 777h-82v81h82v-81zM72 777h-82v81h82v-81z" />
    <glyph glyph-name="Upsilondieresis" unicode="&#x3ab;" horiz-adv-x="353" 
d="M219 288v-288h-86v288l-131 424h94l80 -304l80 304h95zM296 777h-82v81h82v-81zM140 777h-82v81h82v-81z" />
    <glyph glyph-name="alphatonos" unicode="&#x3ac;" horiz-adv-x="383" 
d="M165 526q33 0 55 -16q8 -5 17.5 -14t14.5 -17v39h78v-518h-78v39q-5 -8 -14.5 -17t-17.5 -14q-24 -16 -55 -16q-54 0 -86 38q-13 15 -20.5 35.5t-11.5 48t-5 63.5t-1 82t1 82t5 63.5t11.5 48t20.5 35.5q17 20 38 29t48 9zM187 454q-14 0 -25 -6t-19 -16q-7 -8 -11 -21
t-6.5 -33.5t-3 -49.5t-0.5 -69q0 -80 3.5 -118.5t17.5 -54.5q8 -10 19 -16t25 -6q26 0 43 17q19 19 19 60v237q0 40 -19 59q-17 17 -43 17zM227 664l-73 -54v132h73v-78z" />
    <glyph glyph-name="epsilontonos" unicode="&#x3ad;" horiz-adv-x="360" 
d="M82 23q-23 22 -33 47.5t-10 70.5q0 41 7.5 65t24.5 40q8 7 16 12.5t19 10.5q-24 10 -37 27q-14 16 -20 34.5t-6 51.5q0 41 9 66.5t30 45.5q19 18 43 25t59 7t60.5 -10.5t43.5 -27.5q20 -20 30 -48.5t11 -61.5h-81q0 19 -4.5 34.5t-15.5 26.5q-15 15 -44 15q-28 0 -41 -14
q-11 -11 -15 -25.5t-4 -38.5q0 -25 4.5 -39.5t15.5 -23.5q16 -14 44 -14h36v-66h-36q-17 0 -27 -3.5t-19 -11.5q-11 -9 -16.5 -25t-5.5 -47q0 -26 4.5 -41.5t15.5 -25.5q8 -7 18.5 -11t25.5 -4q29 0 43 14q11 11 16 27.5t5 33.5h81q-1 -34 -11.5 -63.5t-31.5 -49.5
q-35 -34 -102 -34q-35 0 -60 8t-42 23zM224 664l-73 -54v132h73v-78z" />
    <glyph glyph-name="etatonos" unicode="&#x3ae;" horiz-adv-x="395" 
d="M223 526q29 0 50 -9.5t38 -28.5q16 -17 23.5 -41t7.5 -66v-381h-81v381q0 35 -18 54t-44 19t-43.5 -19t-17.5 -54v-381h-81v518h78v-40q5 9 14.5 18t17.5 14q26 16 56 16zM237 664l-73 -54v132h73v-78z" />
    <glyph glyph-name="iotatonos" unicode="&#x3af;" horiz-adv-x="227" 
d="M134 151q0 -78 78 -78v-73q-33 0 -61.5 6t-51.5 26q-21 18 -33.5 45t-12.5 71v370h81v-367zM131 664l-73 -54v132h73v-78z" />
    <glyph glyph-name="upsilondieresistonos" unicode="&#x3b0;" horiz-adv-x="391" 
d="M338 137q0 -38 -8.5 -62.5t-25.5 -42.5t-43.5 -29t-65.5 -11q-38 0 -64.5 11t-43.5 29t-25.5 42.5t-8.5 62.5v381h81v-381q0 -36 17.5 -54.5t43.5 -18.5t44 18.5t18 54.5v381h81v-381zM230 625l-70 -50v157h70v-107zM123 601h-72v82h72v-82zM336 601h-72v82h72v-82z" />
    <glyph glyph-name="alpha" unicode="&#x3b1;" horiz-adv-x="383" 
d="M165 526q33 0 55 -16q8 -5 17.5 -14t14.5 -17v39h78v-518h-78v39q-5 -8 -14.5 -17t-17.5 -14q-24 -16 -55 -16q-54 0 -86 38q-13 15 -20.5 35.5t-11.5 48t-5 63.5t-1 82t1 82t5 63.5t11.5 48t20.5 35.5q17 20 38 29t48 9zM187 454q-14 0 -25 -6t-19 -16q-7 -8 -11 -21
t-6.5 -33.5t-3 -49.5t-0.5 -69q0 -80 3.5 -118.5t17.5 -54.5q8 -10 19 -16t25 -6q26 0 43 17q19 19 19 60v237q0 40 -19 59q-17 17 -43 17z" />
    <glyph glyph-name="beta" unicode="&#x3b2;" horiz-adv-x="400" 
d="M286 205q0 82 -19.5 113.5t-61.5 31.5h-25v68h23q20 0 32.5 11.5t19.5 29.5t9.5 40.5t2.5 45.5q0 55 -18.5 79t-47.5 24q-31 0 -47 -25.5t-16 -85.5v-398q0 -37 17 -55t46 -18q51 0 68 34.5t17 104.5zM135 0h-78v546q0 88 39.5 131t106.5 43q66 0 105.5 -42.5
t39.5 -123.5q0 -68 -20.5 -112t-59.5 -56q48 -11 74 -55t26 -130q0 -100 -34 -154.5t-109 -54.5q-58 0 -90 49v-41z" />
    <glyph glyph-name="gamma" unicode="&#x3b3;" horiz-adv-x="343" 
d="M131 -6l-127 524h89l79 -389l78 389h89l-127 -524v-188h-81v188z" />
    <glyph glyph-name="delta" unicode="&#x3b4;" 
d="M80 37q-24 29 -32 81t-8 128q0 84 7.5 132t32.5 76q14 14 33.5 24.5t42.5 10.5q11 0 19 -1t17 -6l-116 164v66h225v-73h-129l95 -135q18 -26 31 -50t21 -52.5t11.5 -65.5t3.5 -90q0 -76 -7.5 -128t-31.5 -81q-20 -24 -46.5 -34.5t-61.5 -10.5t-61 10.5t-46 34.5zM232 86
q14 18 17.5 55.5t3.5 104.5t-4.5 106t-18.5 55q-17 18 -44 18q-29 0 -44 -20q-13 -17 -17 -56.5t-4 -102.5q0 -67 3.5 -104.5t17.5 -55.5q8 -10 19.5 -16t25.5 -6t26 6t19 16z" />
    <glyph glyph-name="epsilon" unicode="&#x3b5;" horiz-adv-x="360" 
d="M82 23q-23 22 -33 47.5t-10 70.5q0 41 7.5 65t24.5 40q8 7 16 12.5t19 10.5q-24 10 -37 27q-14 16 -20 34.5t-6 51.5q0 41 9 66.5t30 45.5q19 18 43 25t59 7t60.5 -10.5t43.5 -27.5q20 -20 30 -48.5t11 -61.5h-81q0 19 -4.5 34.5t-15.5 26.5q-15 15 -44 15q-28 0 -41 -14
q-11 -11 -15 -25.5t-4 -38.5q0 -25 4.5 -39.5t15.5 -23.5q16 -14 44 -14h36v-66h-36q-17 0 -27 -3.5t-19 -11.5q-11 -9 -16.5 -25t-5.5 -47q0 -26 4.5 -41.5t15.5 -25.5q8 -7 18.5 -11t25.5 -4q29 0 43 14q11 11 16 27.5t5 33.5h81q-1 -34 -11.5 -63.5t-31.5 -49.5
q-35 -34 -102 -34q-35 0 -60 8t-42 23z" />
    <glyph glyph-name="zeta" unicode="&#x3b6;" horiz-adv-x="299" 
d="M212 -26q0 14 -4.5 20t-18.5 6h-30q-69 0 -102 33t-33 102q0 44 19 90t63 104l89 117h-155v72h244v-73l-108 -140q-20 -26 -34 -48.5t-22 -42.5t-11.5 -38.5t-3.5 -36.5q0 -66 70 -66h36q35 0 55.5 -15.5t20.5 -60.5q0 -9 -1.5 -26t-3 -36t-3.5 -38.5t-3 -32.5h-72
q1 9 2 24t2.5 31t2.5 31t1 24z" />
    <glyph glyph-name="eta" unicode="&#x3b7;" horiz-adv-x="395" 
d="M223 526q29 0 50 -9.5t38 -28.5q16 -17 23.5 -41t7.5 -66v-381h-81v381q0 35 -18 54t-44 19t-43.5 -19t-17.5 -54v-381h-81v518h78v-40q5 9 14.5 18t17.5 14q26 16 56 16z" />
    <glyph glyph-name="theta" unicode="&#x3b8;" horiz-adv-x="390" 
d="M195 64q14 0 27 6.5t22 21.5q6 10 9.5 26t5 44t2 70t0.5 104h-132q0 -62 0.5 -104t2 -70t5 -44t9.5 -26q9 -15 22 -21.5t27 -6.5zM195 -8q-36 0 -65 12.5t-49 42.5q-12 18 -18.5 42.5t-9.5 61t-4 88.5t-1 124q0 67 1 115.5t4 84t9.5 60t18.5 42.5q20 30 49 42.5t65 12.5
t65 -12.5t49 -42.5q12 -18 18.5 -42.5t9.5 -60t4 -84t1 -115.5q0 -72 -1 -124t-4 -88.5t-9.5 -61t-18.5 -42.5q-20 -30 -49 -42.5t-65 -12.5zM195 648q-14 0 -27 -6.5t-22 -21.5q-6 -10 -9.5 -26t-5 -41.5t-2 -61.5t-0.5 -87h132q0 51 -0.5 87t-2 61.5t-5 41.5t-9.5 26
q-9 15 -22 21.5t-27 6.5z" />
    <glyph glyph-name="iota" unicode="&#x3b9;" horiz-adv-x="227" 
d="M134 151q0 -78 78 -78v-73q-33 0 -61.5 6t-51.5 26q-21 18 -33.5 45t-12.5 71v370h81v-367z" />
    <glyph glyph-name="kappa" unicode="&#x3ba;" horiz-adv-x="398" 
d="M245 316l138 -316h-90l-99 244l-56 -89v-155h-81v518h81v-246l147 246h86z" />
    <glyph glyph-name="lambda" unicode="&#x3bb;" horiz-adv-x="344" 
d="M115 595q-10 44 -53 44h-20v73h41q42 -1 70 -20.5t39 -67.5l150 -624h-89l-79 387l-83 -387h-89l131 518z" />
    <glyph glyph-name="uni03BC" unicode="&#x3bc;" horiz-adv-x="399" 
d="M342 0h-79v40q-8 -15 -22 -28q-21 -16 -46 -16q-38 0 -60 32v-222h-78v712h81v-381q0 -37 17.5 -54.5t43.5 -17.5t44 17.5t18 54.5v381h81v-518z" />
    <glyph glyph-name="nu" unicode="&#x3bd;" horiz-adv-x="343" 
d="M93 518l79 -386l78 386h89l-125 -518h-85l-125 518h89z" />
    <glyph glyph-name="xi" unicode="&#x3be;" horiz-adv-x="329" 
d="M238 -26q0 14 -4.5 20t-18.5 6h-25q-37 0 -66 9.5t-49 32.5t-30.5 61t-10.5 96q0 43 7 74.5t18 53.5t26 36t32 22q-36 17 -50.5 52.5t-14.5 98.5q0 91 34 137.5t103 46.5q63 0 95.5 -39t32.5 -108v-42h-81v46q0 32 -10.5 51.5t-36.5 19.5q-32 0 -44 -28t-12 -88t14.5 -86
t46.5 -26h60v-72h-60q-35 0 -57 -33t-22 -112q0 -38 5.5 -63t16 -40t26 -21.5t36.5 -6.5h38q34 0 54.5 -15t20.5 -60q0 -9 -1 -26t-2.5 -36t-3.5 -38.5t-3 -32.5h-72q1 9 2 24t2.5 31t2.5 31t1 24z" />
    <glyph glyph-name="omicron" unicode="&#x3bf;" 
d="M188 526q35 0 62.5 -11t47.5 -37q24 -31 30.5 -85.5t6.5 -133.5t-6.5 -133.5t-30.5 -85.5q-20 -26 -47.5 -37t-62.5 -11t-62 11t-47 37q-24 31 -31 85.5t-7 133.5t7 133.5t31 85.5q20 26 47 37t62 11zM188 454q-29 0 -45 -23q-14 -20 -17.5 -61t-3.5 -111t3.5 -111
t17.5 -61q16 -23 45 -23q30 0 46 23q14 20 17 61t3 111t-3 111t-17 61q-16 23 -46 23z" />
    <glyph glyph-name="pi" unicode="&#x3c0;" horiz-adv-x="396" 
d="M339 0h-81v446h-120v-446h-81v518h282v-518z" />
    <glyph glyph-name="rho" unicode="&#x3c1;" horiz-adv-x="383" 
d="M53 259q0 90 8.5 143t33.5 82q17 20 39 31t61 11q43 0 65.5 -11t40.5 -31q25 -29 33.5 -82t8.5 -143t-9 -142.5t-33 -81.5q-16 -20 -36.5 -31.5t-49.5 -11.5q-31 0 -52 12q-16 10 -29 27v-225h-81v453zM241 87q14 20 17.5 59.5t3.5 112.5t-3.5 113t-18.5 60
q-7 10 -17.5 16t-25.5 6q-14 0 -24 -6t-18 -16q-14 -20 -17.5 -60t-3.5 -113t3 -112.5t17 -59.5q16 -23 43 -23q28 0 44 23z" />
    <glyph glyph-name="sigma1" unicode="&#x3c2;" horiz-adv-x="364" 
d="M237 -26q0 14 -4.5 20t-18.5 6h-20q-41 0 -69 14.5t-45 37.5q-11 15 -18.5 33t-12 42.5t-6.5 57t-2 74.5q0 79 7 133.5t31 85.5q20 26 48 37t61 11q32 0 56.5 -7.5t44.5 -27.5q24 -23 32 -53.5t9 -63.5h-80q0 16 -2.5 31.5t-13.5 28.5q-17 20 -45 20q-14 0 -26 -6
t-20 -16q-14 -20 -17.5 -61t-3.5 -112q0 -39 1 -66t4 -45t7.5 -29t10.5 -20q9 -12 21.5 -19.5t35.5 -7.5h35q34 0 54.5 -15t20.5 -60q0 -9 -1 -26t-2.5 -36t-3.5 -38.5t-3 -32.5h-72q1 9 2 24t2 31t2 31t1 24z" />
    <glyph glyph-name="sigma" unicode="&#x3c3;" horiz-adv-x="386" 
d="M356 446h-70q14 -11 23.5 -24.5t15 -35t8 -52t2.5 -75.5q0 -79 -7 -133.5t-31 -85.5q-20 -26 -47 -37t-62 -11t-62 11t-47 37q-24 31 -31 85.5t-7 133.5t7.5 129t30.5 81q37 49 114 49h163v-72zM188 446q-14 0 -26 -6t-20 -16q-7 -10 -11 -23.5t-6 -33.5t-2.5 -46.5
t-0.5 -61.5q0 -71 3 -112t17 -60q16 -23 46 -23t45 23q14 19 17.5 60t3.5 112t-3.5 108t-17.5 57q-7 10 -19 16t-26 6z" />
    <glyph glyph-name="tau" unicode="&#x3c4;" horiz-adv-x="283" 
d="M263 446h-81v-446h-81v446h-81v72h243v-72z" />
    <glyph glyph-name="upsilon" unicode="&#x3c5;" horiz-adv-x="391" 
d="M338 137q0 -38 -8.5 -62.5t-25.5 -42.5t-43.5 -29t-65.5 -11q-38 0 -64.5 11t-43.5 29t-25.5 42.5t-8.5 62.5v381h81v-381q0 -36 17.5 -54.5t43.5 -18.5t44 18.5t18 54.5v381h81v-381z" />
    <glyph glyph-name="phi" unicode="&#x3c6;" horiz-adv-x="524" 
d="M222 -6q-40 2 -74 13t-57 34q-15 15 -24.5 34t-15 45t-8 60t-2.5 79t2 79.5t7.5 61.5t15 47t24.5 36q15 17 37 26.5t45 14.5v-76q-14 -7 -21 -14q-18 -17 -23.5 -56.5t-5.5 -118.5q0 -41 1 -69.5t4.5 -48t10 -32t16.5 -21.5q11 -11 29.5 -17.5t39.5 -7.5v463h13
q44 0 75.5 -2.5t54 -8.5t38.5 -15.5t29 -22.5q14 -15 23.5 -34t15.5 -45t8.5 -60t2.5 -79t-2.5 -79t-8 -60t-15 -45t-24.5 -34q-23 -23 -56.5 -34t-74.5 -13v-188h-80v188zM370 88q10 9 16.5 21.5t10 32t4.5 48t1 69.5t-1 69.5t-4.5 48.5t-10 32.5t-16.5 21.5
q-11 10 -29.5 16.5t-39.5 7.5v-392q21 1 39.5 7.5t29.5 17.5z" />
    <glyph glyph-name="chi" unicode="&#x3c7;" horiz-adv-x="356" 
d="M19 518h89l70 -178l70 178h89l-113 -254l119 -264h-89l-77 184l-75 -184h-89l117 264z" />
    <glyph glyph-name="psi" unicode="&#x3c8;" horiz-adv-x="537" 
d="M229 -5q-39 2 -72 15.5t-51 31.5q-14 13 -24 28.5t-16.5 36t-9.5 48.5t-3 67v296h81v-296q0 -59 7.5 -86t26.5 -44q10 -8 26 -15.5t35 -9.5v451h79v-451q18 2 35 9.5t27 15.5q19 17 26.5 44t7.5 86v296h81v-296q0 -39 -3 -67t-9 -49t-16 -36t-24 -28q-19 -18 -52.5 -31.5
t-71.5 -15.5v-189h-80v189z" />
    <glyph glyph-name="omega" unicode="&#x3c9;" horiz-adv-x="524" 
d="M261 70q-10 -33 -31 -55.5t-67 -22.5q-32 0 -56.5 14t-38.5 43q-17 33 -23 82t-6 129q0 45 2 79.5t7.5 61t15 46.5t24.5 36q15 17 37 26.5t45 14.5v-76q-14 -7 -21 -14q-9 -9 -14.5 -22.5t-9 -34t-4.5 -49.5t-1 -68q0 -60 1.5 -100t9.5 -63q11 -32 40 -32t39.5 22
t10.5 78v199h79v-199q0 -56 10.5 -78t39.5 -22t40 32q8 23 9.5 63t1.5 100q0 39 -1 68t-4.5 49.5t-9 34t-14.5 22.5q-7 7 -21 14v76q23 -5 45 -14.5t37 -26.5q15 -16 24.5 -36t15 -46.5t7.5 -61t2 -79.5q0 -80 -6 -129t-23 -82q-14 -29 -38.5 -43t-56.5 -14q-46 0 -67 22.5
t-30 55.5z" />
    <glyph glyph-name="iotadieresis" unicode="&#x3ca;" horiz-adv-x="227" 
d="M134 151q0 -78 78 -78v-73q-33 0 -61.5 6t-51.5 26q-21 18 -33.5 45t-12.5 71v370h81v-367zM56 602h-82v82h82v-82zM213 602h-82v82h82v-82z" />
    <glyph glyph-name="upsilondieresis" unicode="&#x3cb;" horiz-adv-x="391" 
d="M338 137q0 -38 -8.5 -62.5t-25.5 -42.5t-43.5 -29t-65.5 -11q-38 0 -64.5 11t-43.5 29t-25.5 42.5t-8.5 62.5v381h81v-381q0 -36 17.5 -54.5t43.5 -18.5t44 18.5t18 54.5v381h81v-381zM156 602h-82v82h82v-82zM313 602h-82v82h82v-82z" />
    <glyph glyph-name="omicrontonos" unicode="&#x3cc;" 
d="M188 526q35 0 62.5 -11t47.5 -37q24 -31 30.5 -85.5t6.5 -133.5t-6.5 -133.5t-30.5 -85.5q-20 -26 -47.5 -37t-62.5 -11t-62 11t-47 37q-24 31 -31 85.5t-7 133.5t7 133.5t31 85.5q20 26 47 37t62 11zM188 454q-29 0 -45 -23q-14 -20 -17.5 -61t-3.5 -111t3.5 -111
t17.5 -61q16 -23 45 -23q30 0 46 23q14 20 17 61t3 111t-3 111t-17 61q-16 23 -46 23zM225 664l-73 -54v132h73v-78z" />
    <glyph glyph-name="upsilontonos" unicode="&#x3cd;" horiz-adv-x="391" 
d="M338 137q0 -38 -8.5 -62.5t-25.5 -42.5t-43.5 -29t-65.5 -11q-38 0 -64.5 11t-43.5 29t-25.5 42.5t-8.5 62.5v381h81v-381q0 -36 17.5 -54.5t43.5 -18.5t44 18.5t18 54.5v381h81v-381zM231 664l-73 -54v132h73v-78z" />
    <glyph glyph-name="omegatonos" unicode="&#x3ce;" horiz-adv-x="524" 
d="M261 70q-10 -33 -31 -55.5t-67 -22.5q-32 0 -56.5 14t-38.5 43q-17 33 -23 82t-6 129q0 45 2 79.5t7.5 61t15 46.5t24.5 36q15 17 37 26.5t45 14.5v-76q-14 -7 -21 -14q-9 -9 -14.5 -22.5t-9 -34t-4.5 -49.5t-1 -68q0 -60 1.5 -100t9.5 -63q11 -32 40 -32t39.5 22
t10.5 78v199h79v-199q0 -56 10.5 -78t39.5 -22t40 32q8 23 9.5 63t1.5 100q0 39 -1 68t-4.5 49.5t-9 34t-14.5 22.5q-7 7 -21 14v76q23 -5 45 -14.5t37 -26.5q15 -16 24.5 -36t15 -46.5t7.5 -61t2 -79.5q0 -80 -6 -129t-23 -82q-14 -29 -38.5 -43t-56.5 -14q-46 0 -67 22.5
t-30 55.5zM298 664l-73 -54v132h73v-78z" />
    <glyph glyph-name="uni0400" unicode="&#x400;" horiz-adv-x="380" 
d="M339 635h-189v-234h163v-77h-163v-247h189v-77h-275v712h275v-77zM243 762h-62l-81 135h74z" />
    <glyph glyph-name="uni0401" unicode="&#x401;" horiz-adv-x="380" 
d="M339 635h-189v-234h163v-77h-163v-247h189v-77h-275v712h275v-77zM325 777h-82v81h82v-81zM169 777h-82v81h82v-81z" />
    <glyph glyph-name="uni0402" unicode="&#x402;" horiz-adv-x="495" 
d="M345 635h-134v-208h70q43 0 75 -10.5t53.5 -35.5t32.5 -66t11 -102q0 -112 -40.5 -162.5t-128.5 -50.5h-14v77h13q49 0 66.5 35.5t17.5 100.5q0 34 -3.5 60t-13 42.5t-26.5 25t-45 8.5h-68v-349h-86v635h-104v77h324v-77z" />
    <glyph glyph-name="uni0403" unicode="&#x403;" horiz-adv-x="355" 
d="M333 635h-183v-635h-86v712h269v-77zM219 762h-62l69 135h74z" />
    <glyph glyph-name="uni0404" unicode="&#x404;" horiz-adv-x="424" 
d="M221 720q38 0 65 -11t48 -31q25 -24 37.5 -60.5t14.5 -81.5h-86q-1 23 -5 44t-18 38q-10 12 -23 18.5t-33 6.5q-21 0 -35.5 -7.5t-22.5 -19.5t-13.5 -26.5t-9.5 -38.5t-5.5 -60t-1.5 -90h141v-77h-141q0 -58 1.5 -96.5t5 -64t9 -40.5t14.5 -27t23 -19.5t35 -7.5
q20 0 33 6.5t23 18.5q12 14 17 36.5t6 45.5h86q-2 -45 -15.5 -83t-39.5 -62q-21 -19 -48 -29t-62 -10q-42 0 -72 14.5t-50 37.5q-17 19 -27 42t-15.5 58t-7.5 86t-2 126q0 74 1.5 124t7 85t15.5 58.5t28 44.5q20 23 50 37.5t72 14.5z" />
    <glyph glyph-name="uni0405" unicode="&#x405;" horiz-adv-x="420" 
d="M210 718q39 0 68.5 -10.5t49.5 -30.5q27 -26 37 -61.5t10 -84.5h-86q0 29 -4 49t-18 37q-19 24 -58 24q-19 0 -32.5 -6t-22.5 -16q-25 -28 -25 -85q0 -26 2.5 -44t10 -31t21 -22t34.5 -18l80 -33q30 -12 49.5 -28.5t31 -39.5t15.5 -54t4 -73q0 -56 -9 -92.5t-35 -62.5
q-20 -20 -51.5 -31.5t-74.5 -11.5q-82 0 -125 43q-25 25 -34.5 59t-9.5 91h86q0 -35 5 -56.5t19 -36.5q9 -10 24 -16t35 -6q22 0 36.5 6t24.5 17q14 16 18.5 38t4.5 57q0 31 -3 52t-10.5 35.5t-21 24.5t-35.5 19l-81 33q-27 11 -46 25t-30 34.5t-16 49t-5 69.5q0 47 13.5 84
t40.5 62q44 41 113 41z" />
    <glyph glyph-name="uni0406" unicode="&#x406;" horiz-adv-x="214" 
d="M150 0h-86v712h86v-712z" />
    <glyph glyph-name="uni0407" unicode="&#x407;" horiz-adv-x="214" 
d="M150 0h-86v712h86v-712zM228 777h-82v81h82v-81zM72 777h-82v81h82v-81z" />
    <glyph glyph-name="uni0408" unicode="&#x408;" horiz-adv-x="361" 
d="M303 170q0 -41 -11 -74t-34 -56q-47 -48 -126 -48q-40 0 -72 14t-55 40l61 57q11 -14 28.5 -24t37.5 -10q36 0 60.5 25.5t24.5 75.5v542h86v-542z" />
    <glyph glyph-name="uni0409" unicode="&#x409;" horiz-adv-x="705" 
d="M420 415h74q40 0 71.5 -10.5t53.5 -34.5t33 -63.5t11 -98.5t-11.5 -99t-33 -64t-53 -34.5t-71.5 -10.5h-160v635h-129v-315q0 -110 -13.5 -173.5t-36 -96t-52.5 -41.5t-64 -9h-25v76h9q19 0 37.5 6t32 31.5t22 77t8.5 142.5v379h297v-297zM420 338v-261h73q42 0 63 29.5
t21 101.5t-21 101t-63 29h-73z" />
    <glyph glyph-name="uni040A" unicode="&#x40a;" horiz-adv-x="679" 
d="M394 415h74q40 0 71.5 -10.5t53.5 -34.5t33 -63.5t11 -98.5t-11.5 -99t-33 -64t-53 -34.5t-71.5 -10.5h-160v339h-158v-339h-86v712h86v-296h158v296h86v-297zM394 338v-261h73q42 0 63 29.5t21 101.5t-21 101t-63 29h-73z" />
    <glyph glyph-name="uni040B" unicode="&#x40b;" horiz-adv-x="497" 
d="M345 635h-134v-208h72q92 0 130 -45.5t38 -136.5v-245h-86v232q0 64 -21.5 91t-72.5 27h-60v-350h-86v635h-104v77h324v-77z" />
    <glyph glyph-name="uni040C" unicode="&#x40c;" horiz-adv-x="450" 
d="M241 375l201 -375h-97l-193 371l179 341h93zM150 0h-86v712h86v-712zM258 762h-62l69 135h74z" />
    <glyph glyph-name="uni040D" unicode="&#x40d;" horiz-adv-x="468" 
d="M150 712v-494l175 494h79v-712h-86v494l-174 -494h-80v712h86zM271 762h-62l-81 135h74z" />
    <glyph glyph-name="uni040E" unicode="&#x40e;" horiz-adv-x="392" 
d="M203 113q-11 -35 -24.5 -57t-33 -34.5t-46 -17t-63.5 -4.5v77q22 0 37.5 3.5t26.5 11.5t19 22.5t14 36.5l23 79l-152 482h94l99 -363l97 363h94zM316 867q-4 -60 -35.5 -86t-82.5 -26q-50 0 -81.5 26t-35.5 86h58q4 -28 19.5 -40.5t39.5 -12.5q25 0 40.5 12.5t19.5 40.5
h58z" />
    <glyph glyph-name="uni040F" unicode="&#x40f;" horiz-adv-x="458" 
d="M394 0h-124v-142h-82v142h-124v712h86v-635h158v635h86v-712z" />
    <glyph glyph-name="uni0410" unicode="&#x410;" horiz-adv-x="425" 
d="M171 712h83l166 -712h-91l-34 168h-166l-34 -168h-90zM279 245l-67 328l-67 -328h134z" />
    <glyph glyph-name="uni0411" unicode="&#x411;" horiz-adv-x="439" 
d="M365 635h-215v-218h76q40 0 72 -10.5t54 -34.5t33.5 -64t11.5 -99t-11.5 -99t-33.5 -64.5t-54 -35t-72 -10.5h-162v712h301v-77zM150 340v-263h75q42 0 64 30t22 102t-22 101.5t-64 29.5h-75z" />
    <glyph glyph-name="uni0412" unicode="&#x412;" horiz-adv-x="444" 
d="M217 712q48 0 78 -10t52 -33q12 -12 20 -25t13 -30t7 -38.5t2 -50.5q0 -38 -8 -69.5t-34 -57.5q-17 -17 -40 -27q12 -4 23.5 -11t20.5 -15q28 -27 35.5 -63t7.5 -82q0 -32 -2.5 -56t-8.5 -42.5t-14.5 -32.5t-20.5 -26q-22 -23 -52.5 -33t-78.5 -10h-153v712h153zM150 333
v-256h62q24 0 42 6t30 21t18 39.5t6 61.5q0 69 -24 98.5t-72 29.5h-62zM150 635v-228h63q46 0 68 26.5t22 87.5q0 65 -21.5 89.5t-68.5 24.5h-63z" />
    <glyph glyph-name="uni0413" unicode="&#x413;" horiz-adv-x="355" 
d="M333 635h-183v-635h-86v712h269v-77z" />
    <glyph glyph-name="uni0414" unicode="&#x414;" horiz-adv-x="499" 
d="M415 77h56v-219h-82v142h-293v-142h-82v219h45q27 72 42.5 157.5t15.5 191.5v286h298v-635zM200 635v-228q0 -97 -13.5 -178t-39.5 -152h182v558h-129z" />
    <glyph glyph-name="uni0415" unicode="&#x415;" horiz-adv-x="380" 
d="M339 635h-189v-234h163v-77h-163v-247h189v-77h-275v712h275v-77z" />
    <glyph glyph-name="uni0416" unicode="&#x416;" horiz-adv-x="670" 
d="M470 375l192 -375h-95l-187 371l173 341h93zM290 371l-187 -371h-95l192 375l-176 337h93zM378 0h-86v712h86v-712z" />
    <glyph glyph-name="uni0417" unicode="&#x417;" horiz-adv-x="421" 
d="M203 720q78 0 120 -45q29 -29 37 -65.5t8 -87.5q0 -25 -2 -43t-5.5 -32t-9.5 -25.5t-14 -21.5q-20 -25 -47 -39q29 -15 48 -38q8 -10 14.5 -21.5t10.5 -26.5t6 -35.5t2 -47.5q0 -54 -9.5 -89t-36.5 -64q-21 -24 -52 -35.5t-70 -11.5q-75 0 -115 39q-26 25 -37.5 61.5
t-12.5 83.5h86q0 -26 5.5 -48t18.5 -37q20 -22 55 -22q36 0 56 22q15 18 20.5 43t5.5 61q0 46 -7 68.5t-21 37.5q-21 21 -53 21h-57v74h57q32 0 51 20q14 15 20.5 36.5t6.5 66.5q0 36 -4 60t-20 42q-20 22 -55 22q-19 0 -32 -6t-22 -16q-14 -15 -19.5 -37.5t-5.5 -47.5h-86
q1 45 13 81t35 60q43 43 117 43z" />
    <glyph glyph-name="uni0418" unicode="&#x418;" horiz-adv-x="468" 
d="M150 712v-494l175 494h79v-712h-86v494l-174 -494h-80v712h86z" />
    <glyph glyph-name="uni0419" unicode="&#x419;" horiz-adv-x="468" 
d="M150 712v-494l175 494h79v-712h-86v494l-174 -494h-80v712h86zM352 867q-4 -60 -35.5 -86t-82.5 -26q-50 0 -81.5 26t-35.5 86h58q4 -28 19.5 -40.5t39.5 -12.5q25 0 40.5 12.5t19.5 40.5h58z" />
    <glyph glyph-name="uni041A" unicode="&#x41a;" horiz-adv-x="450" 
d="M241 375l201 -375h-97l-193 371l179 341h93zM150 0h-86v712h86v-712z" />
    <glyph glyph-name="uni041B" unicode="&#x41b;" horiz-adv-x="483" 
d="M419 0h-86v635h-128v-315q0 -110 -13.5 -173.5t-36 -96t-52.5 -41.5t-64 -9h-25v77h9q19 0 37.5 6t32 31.5t22 76.5t8.5 142v379h296v-712z" />
    <glyph glyph-name="uni041C" unicode="&#x41c;" horiz-adv-x="577" 
d="M513 0h-86v507l-113 -333h-53l-111 325v-499h-86v712h81l144 -396l143 396h81v-712z" />
    <glyph glyph-name="uni041D" unicode="&#x41d;" horiz-adv-x="458" 
d="M394 0h-86v324h-158v-324h-86v712h86v-311h158v311h86v-712z" />
    <glyph glyph-name="uni041E" unicode="&#x41e;" horiz-adv-x="442" 
d="M221 -8q-42 0 -72 14.5t-50 37.5q-17 19 -27 42.5t-15.5 59t-7.5 86t-2 124.5t2 124.5t7.5 86t15.5 58.5t27 43q20 23 50 37.5t72 14.5t72.5 -14.5t50.5 -37.5q17 -19 27 -42.5t15.5 -59t7 -86t1.5 -124.5t-1.5 -125t-7 -86t-15.5 -58.5t-27 -42.5q-20 -23 -50.5 -37.5
t-72.5 -14.5zM221 69q21 0 35.5 7.5t22.5 19.5q10 13 16 31.5t9 48t4 73.5t1 107t-1 107t-4 73.5t-9 48t-16 31.5q-8 12 -22.5 19.5t-35.5 7.5t-35.5 -7.5t-22.5 -19.5q-10 -13 -16 -31.5t-9 -48t-4 -73.5t-1 -107t1 -107t4 -73.5t9 -48t16 -31.5q8 -12 22.5 -19.5
t35.5 -7.5z" />
    <glyph glyph-name="uni041F" unicode="&#x41f;" horiz-adv-x="458" 
d="M394 0h-86v635h-158v-635h-86v712h330v-712z" />
    <glyph glyph-name="uni0420" unicode="&#x420;" horiz-adv-x="435" 
d="M224 712q40 0 71.5 -10.5t53.5 -34.5t33 -64t11 -99t-11.5 -98.5t-33.5 -63.5t-53 -34.5t-71 -10.5h-74v-297h-86v712h160zM150 635v-261h71q44 0 65 29t21 101t-21 101.5t-65 29.5h-71z" />
    <glyph glyph-name="uni0421" unicode="&#x421;" horiz-adv-x="423" 
d="M221 720q38 0 65 -11t48 -31q25 -24 37.5 -60.5t13.5 -80.5h-85q-1 23 -5.5 44t-17.5 37q-8 11 -22 18t-34 7q-21 0 -35.5 -7.5t-23.5 -19.5q-9 -13 -15 -31.5t-9 -48t-4 -73.5t-1 -107t1 -107t4 -73.5t9 -48t15 -31.5q9 -12 23.5 -19.5t35.5 -7.5q20 0 34 7t22 18
q12 16 17 37.5t6 44.5h85q-1 -45 -14.5 -83t-39.5 -62q-21 -19 -48 -29t-62 -10q-42 0 -72 14.5t-50 37.5q-18 20 -28 43.5t-15.5 58.5t-7 85.5t-1.5 124.5t1.5 124.5t7 85.5t15.5 58.5t28 43.5q20 23 50 37.5t72 14.5z" />
    <glyph glyph-name="uni0422" unicode="&#x422;" horiz-adv-x="367" 
d="M346 635h-119v-635h-86v635h-120v77h325v-77z" />
    <glyph glyph-name="uni0423" unicode="&#x423;" horiz-adv-x="392" 
d="M203 113q-11 -35 -24.5 -57t-33 -34.5t-46 -17t-63.5 -4.5v77q22 0 37.5 3.5t26.5 11.5t19 22.5t14 36.5l23 79l-152 482h94l99 -363l97 363h94z" />
    <glyph glyph-name="uni0424" unicode="&#x424;" horiz-adv-x="571" 
d="M328 676q63 -3 102.5 -23.5t61 -58.5t29 -92.5t7.5 -123.5t-7.5 -123.5t-29 -92.5t-61 -58.5t-102.5 -23.5v-84h-85v84q-63 3 -102.5 23.5t-61 58.5t-29 92.5t-7.5 123.5t7.5 123.5t29 92.5t61 58.5t102.5 23.5v65h85v-65zM244 601q-37 -2 -60 -15.5t-35.5 -40.5
t-16.5 -68.5t-4 -98.5t4 -98.5t16.5 -68t35.5 -40t60 -15.5v445zM327 156q37 2 60 15.5t35.5 40t16.5 68t4 98.5t-4 98.5t-16.5 68.5t-35.5 40.5t-60 15.5v-445z" />
    <glyph glyph-name="uni0425" unicode="&#x425;" horiz-adv-x="403" 
d="M248 370l140 -370h-94l-93 282l-92 -282h-94l136 370l-125 342h94l81 -260l82 260h94z" />
    <glyph glyph-name="uni0426" unicode="&#x426;" horiz-adv-x="477" 
d="M394 77h55v-219h-81v142h-304v712h86v-635h158v635h86v-635z" />
    <glyph glyph-name="uni0427" unicode="&#x427;" horiz-adv-x="438" 
d="M374 0h-86v324q-24 -4 -45.5 -5.5t-43.5 -1.5q-37 0 -65 8t-47 27t-28.5 50t-9.5 77v233h86v-224q0 -29 5.5 -47t15.5 -28.5t24.5 -14.5t32.5 -4q20 0 37.5 1.5t37.5 4.5v312h86v-712z" />
    <glyph glyph-name="uni0428" unicode="&#x428;" horiz-adv-x="674" 
d="M610 0h-546v712h86v-635h144v635h86v-635h144v635h86v-712z" />
    <glyph glyph-name="uni0429" unicode="&#x429;" horiz-adv-x="693" 
d="M610 77h56v-219h-83v142h-519v712h86v-635h144v635h86v-635h144v635h86v-635z" />
    <glyph glyph-name="uni042A" unicode="&#x42a;" horiz-adv-x="498" 
d="M213 415h74q40 0 71.5 -10.5t53.5 -34.5t33 -63.5t11 -98.5t-11.5 -99t-33 -64t-53 -34.5t-71.5 -10.5h-160v635h-106v77h192v-297zM213 338v-261h73q42 0 63 29.5t21 101.5t-21 101t-63 29h-73z" />
    <glyph glyph-name="uni042B" unicode="&#x42b;" horiz-adv-x="629" 
d="M565 0h-86v712h86v-712zM150 415h74q40 0 71.5 -10.5t53.5 -34.5t33 -63.5t11 -98.5t-11.5 -99t-33 -64t-53 -34.5t-71.5 -10.5h-160v712h86v-297zM150 338v-261h73q42 0 63 29.5t21 101.5t-21 101t-63 29h-73z" />
    <glyph glyph-name="uni042C" unicode="&#x42c;" horiz-adv-x="435" 
d="M150 415h74q40 0 71.5 -10.5t53.5 -34.5t33 -63.5t11 -98.5t-11.5 -99t-33 -64t-53 -34.5t-71.5 -10.5h-160v712h86v-297zM150 338v-261h73q42 0 63 29.5t21 101.5t-21 101t-63 29h-73z" />
    <glyph glyph-name="uni042D" unicode="&#x42d;" horiz-adv-x="424" 
d="M203 720q42 0 72 -14.5t50 -37.5q18 -21 28 -44.5t15.5 -58.5t7 -85t1.5 -124q0 -75 -2 -126t-7.5 -86t-15.5 -58t-27 -42q-20 -23 -50 -37.5t-72 -14.5q-35 0 -62 10t-48 29q-26 24 -39.5 62t-15.5 83h86q1 -23 6 -45.5t17 -36.5q10 -12 23 -18.5t33 -6.5q21 0 35 7.5
t23 19.5t14.5 27t9 40.5t5 64t1.5 96.5h-141v77h141q0 54 -1.5 90t-5 60t-9 39t-14.5 26q-8 12 -22.5 19.5t-35.5 7.5q-20 0 -33 -6.5t-23 -18.5q-14 -17 -18 -38t-5 -44h-86q2 45 14.5 81.5t37.5 60.5q21 20 48 31t65 11z" />
    <glyph glyph-name="uni042E" unicode="&#x42e;" horiz-adv-x="629" 
d="M408 720q42 0 72 -14.5t50 -37.5q18 -21 28 -44.5t15.5 -58.5t7 -85t1.5 -124t-1.5 -124.5t-7 -85.5t-16 -58.5t-27.5 -43.5q-21 -24 -50.5 -38t-71.5 -14t-72 14.5t-50 37.5q-16 19 -26 41t-15.5 53.5t-8 76t-2.5 108.5h-84v-323h-86v712h86v-311h84q0 60 2.5 102.5
t8 73t15.5 52t26 39.5q20 23 50 37.5t72 14.5zM408 643q-21 0 -35 -7.5t-23 -19.5q-10 -13 -16 -31.5t-9 -48t-4 -73.5t-1 -107t1 -107t4 -73.5t9 -48t16 -31.5q9 -12 23 -19.5t35 -7.5t35 7.5t23 19.5q10 13 16 31.5t9 48t4 73.5t1 107t-1 107t-4 73.5t-9 48t-16 31.5
q-9 12 -23 19.5t-35 7.5z" />
    <glyph glyph-name="uni042F" unicode="&#x42f;" horiz-adv-x="455" 
d="M391 0h-86v306h-77l-98 -306h-91l109 323q-47 22 -66.5 66.5t-19.5 119.5q0 58 11 97.5t32.5 62.5t52.5 33t72 10h161v-712zM229 635q-25 0 -40.5 -9t-24.5 -25.5t-12.5 -40t-3.5 -51.5q0 -29 3.5 -52t12.5 -40t24.5 -26t40.5 -9h76v253h-76z" />
    <glyph glyph-name="uni0430" unicode="&#x430;" horiz-adv-x="375" 
d="M180 526q65 0 101 -36q19 -20 30 -47t11 -67v-376h-77v46q-6 -11 -14 -20t-16 -15q-12 -9 -26 -14t-35 -5q-29 0 -50 9.5t-39 29.5q-15 17 -24 46t-9 70q0 36 11.5 66.5t34.5 50.5q20 17 44.5 26t65.5 9h53v82q0 74 -61 74q-14 0 -23 -4.5t-17 -12.5q-11 -11 -15 -25
t-4 -35h-81q0 30 8.5 58.5t31.5 51.5q17 17 43.5 27.5t56.5 10.5zM195 240q-19 0 -32.5 -4t-25.5 -15q-11 -11 -17.5 -30.5t-6.5 -40.5q0 -41 15.5 -64t47.5 -23q29 0 47 22.5t18 58.5v96h-46z" />
    <glyph glyph-name="uni0431" unicode="&#x431;" horiz-adv-x="381" 
d="M317 643q-60 -1 -99 -10.5t-59 -36.5q-17 -23 -23 -51.5t-10 -67.5q14 21 37 32.5t50 11.5q24 0 45.5 -8t41.5 -31q25 -29 32.5 -81.5t7.5 -141.5q0 -78 -7 -133t-31 -86q-20 -26 -47.5 -37t-62.5 -11t-62 11t-47 37q-24 31 -31 86t-7 133q0 98 1.5 160t6 101t12.5 62
t21 44q29 48 86 68t145 22v-73zM192 453q-29 0 -45 -22q-14 -19 -17 -60t-3 -112t3 -112t17 -60q16 -23 45 -23q30 0 46 23q14 19 17 60t3 112t-3 112t-17 60q-16 22 -46 22z" />
    <glyph glyph-name="uni0432" unicode="&#x432;" horiz-adv-x="384" 
d="M196 518q39 0 65.5 -7t44.5 -24q20 -19 27.5 -43t7.5 -63q0 -64 -33 -94q-6 -5 -15 -10.5t-16 -8.5q8 -3 17.5 -9t16.5 -11q19 -16 26.5 -40t7.5 -60q0 -45 -8.5 -70t-28.5 -44q-17 -17 -43.5 -25.5t-67.5 -8.5h-140v518h139zM138 232v-162h53q36 0 54.5 16.5t18.5 65.5
q0 46 -18.5 63t-54.5 17h-53zM138 448v-151h55q33 0 50 18t17 59q0 44 -17 59t-50 15h-55z" />
    <glyph glyph-name="uni0433" unicode="&#x433;" horiz-adv-x="314" 
d="M298 446h-160v-446h-81v518h241v-72z" />
    <glyph glyph-name="uni0434" unicode="&#x434;" horiz-adv-x="436" 
d="M366 72h47v-196h-78v124h-243v-124h-78v196h44q11 28 19.5 56t14 61t8.5 72t3 90v167h263v-446zM182 446v-107q0 -50 -2.5 -87.5t-7 -68.5t-12.5 -57.5t-18 -53.5h142v374h-102z" />
    <glyph glyph-name="uni0435" unicode="&#x435;" 
d="M122 240q0 -62 3.5 -99t17.5 -54q7 -10 18.5 -16t27.5 -6q14 0 25 4.5t21 15.5t13.5 26t3.5 34h81q-1 -36 -10.5 -64t-31.5 -51q-37 -38 -102 -38q-33 0 -58 9t-45 31q-29 31 -37.5 88.5t-8.5 138.5q0 82 8 139t37 88q20 22 45 31t57 9t57 -9t45 -31q29 -31 37.5 -90.5
t8.5 -155.5h-213zM253 301q0 57 -4 87t-16 44q-8 10 -18.5 15.5t-27.5 5.5t-27 -5.5t-18 -15.5q-12 -14 -16 -44t-4 -87h131z" />
    <glyph glyph-name="uni0436" unicode="&#x436;" horiz-adv-x="577" 
d="M416 272l155 -272h-92l-148 269l138 249h89zM246 269l-148 -269h-92l155 272l-142 246h89zM329 0h-81v518h81v-518z" />
    <glyph glyph-name="uni0437" unicode="&#x437;" horiz-adv-x="360" 
d="M176 526q35 0 59.5 -7t42.5 -25q21 -20 30.5 -45.5t9.5 -66.5q0 -33 -7 -51.5t-20 -35.5q-14 -17 -36 -28q11 -5 19.5 -11.5t16.5 -13.5q17 -17 24 -38t7 -63q0 -45 -10.5 -70.5t-33.5 -47.5q-34 -31 -102 -31q-66 0 -101 34q-22 20 -32.5 49.5t-11.5 67.5h81
q0 -20 5 -37t16 -28q14 -14 43 -14q15 0 25.5 4t18.5 11q11 10 15.5 25.5t4.5 41.5q0 30 -5.5 45t-16.5 25q-9 8 -19 11t-26 3h-38v67h37q28 0 44 14q10 10 15 24.5t5 40.5q0 45 -19 64q-14 14 -41 14q-29 0 -44 -15q-11 -11 -15.5 -27.5t-4.5 -36.5h-81q2 74 41 113
q18 17 43.5 27.5t60.5 10.5z" />
    <glyph glyph-name="uni0438" unicode="&#x438;" horiz-adv-x="407" 
d="M138 518v-343l137 343h74v-518h-81v343l-137 -343h-74v518h81z" />
    <glyph glyph-name="uni0439" unicode="&#x439;" horiz-adv-x="407" 
d="M138 518v-343l137 343h74v-518h-81v343l-137 -343h-74v518h81zM321 691q-4 -60 -35.5 -86t-82.5 -26q-50 0 -81.5 26t-35.5 86h58q4 -28 19.5 -40.5t39.5 -12.5q25 0 40.5 12.5t19.5 40.5h58z" />
    <glyph glyph-name="uni043A" unicode="&#x43a;" horiz-adv-x="385" 
d="M224 273l155 -273h-91l-149 269l138 249h89zM138 0h-81v518h81v-518z" />
    <glyph glyph-name="uni043B" unicode="&#x43b;" horiz-adv-x="414" 
d="M357 0h-81v446h-98v-239q0 -62 -9.5 -102t-27 -63t-43.5 -32.5t-59 -9.5h-25v72h12q13 0 26 3.5t23.5 18.5t17 45t6.5 83v296h258v-518z" />
    <glyph glyph-name="uni043C" unicode="&#x43c;" horiz-adv-x="492" 
d="M130 519l116 -280l116 280h73v-519h-79v344l-86 -207h-48l-86 207v-344h-79v519h73z" />
    <glyph glyph-name="uni043D" unicode="&#x43d;" horiz-adv-x="396" 
d="M339 0h-81v230h-120v-230h-81v518h81v-216h120v216h81v-518z" />
    <glyph glyph-name="uni043E" unicode="&#x43e;" 
d="M188 526q35 0 62.5 -11t47.5 -37q24 -31 30.5 -85.5t6.5 -133.5t-6.5 -133.5t-30.5 -85.5q-20 -26 -47.5 -37t-62.5 -11t-62 11t-47 37q-24 31 -31 85.5t-7 133.5t7 133.5t31 85.5q20 26 47 37t62 11zM188 454q-29 0 -45 -23q-14 -20 -17.5 -61t-3.5 -111t3.5 -111
t17.5 -61q16 -23 45 -23q30 0 46 23q14 20 17 61t3 111t-3 111t-17 61q-16 23 -46 23z" />
    <glyph glyph-name="uni043F" unicode="&#x43f;" horiz-adv-x="396" 
d="M339 0h-81v446h-120v-446h-81v518h282v-518z" />
    <glyph glyph-name="uni0440" unicode="&#x440;" horiz-adv-x="388" 
d="M309 488q25 -30 31.5 -84t6.5 -145q0 -92 -6.5 -145.5t-31.5 -83.5q-17 -20 -38 -29t-48 -9q-33 0 -56 16q-8 5 -15.5 12.5t-13.5 15.5v-230h-81v712h79v-40q5 8 14 17.5t17 14.5q12 8 25.5 12t30.5 4q52 0 86 -38zM158 437q-20 -20 -20 -60v-237q0 -21 5 -35t15 -24
q17 -17 42 -17q14 0 25 6t19 16q7 8 11.5 21t6.5 33t3 49t1 70q0 40 -1 69t-3 49.5t-6.5 33.5t-11.5 21q-8 10 -19 16t-25 6q-25 0 -42 -17z" />
    <glyph glyph-name="uni0441" unicode="&#x441;" horiz-adv-x="364" 
d="M41 259q0 79 7 133.5t31 85.5q20 26 48 37t61 11q32 0 56.5 -7.5t44.5 -27.5q24 -23 32.5 -53.5t9.5 -63.5h-81q0 16 -2.5 31.5t-13.5 28.5q-17 20 -45 20q-14 0 -26 -6t-20 -16q-14 -20 -17.5 -61t-3.5 -112t3.5 -112t17.5 -61q8 -10 20 -16t26 -6q28 0 45 20
q11 13 13.5 28.5t2.5 31.5h81q-1 -33 -9.5 -63.5t-32.5 -53.5q-20 -20 -44.5 -27.5t-56.5 -7.5q-33 0 -61 11t-48 37q-24 31 -31 85.5t-7 133.5z" />
    <glyph glyph-name="uni0442" unicode="&#x442;" horiz-adv-x="311" 
d="M295 446h-95v-446h-81v446h-103v72h279v-72z" />
    <glyph glyph-name="uni0443" unicode="&#x443;" horiz-adv-x="343" 
d="M193 -83q-8 -35 -24 -56.5t-38 -33.5t-50 -16.5t-60 -4.5v72q38 0 61 12.5t32 47.5l16 63l-126 517h89l79 -389l78 389h89z" />
    <glyph glyph-name="uni0444" unicode="&#x444;" horiz-adv-x="514" 
d="M297 523q42 -2 74.5 -14t55.5 -38q29 -32 38.5 -83t9.5 -129t-9.5 -128.5t-38.5 -82.5q-24 -26 -56 -38.5t-74 -14.5v-189h-81v189q-41 2 -73 14.5t-56 38.5q-29 32 -38.5 82.5t-9.5 128.5t9.5 128.5t38.5 82.5q23 26 55.5 38.5t73.5 14.5v189h81v-189zM218 450
q-21 0 -38 -7t-28 -18q-20 -20 -26 -58t-6 -108q0 -69 6 -107.5t26 -58.5q11 -11 28 -18t38 -7v382zM296 68q21 0 38 7t28 18q20 20 26 58.5t6 107.5q0 70 -6 108t-26 58q-11 11 -28 18t-38 7v-382z" />
    <glyph glyph-name="uni0445" unicode="&#x445;" horiz-adv-x="356" 
d="M19 518h89l70 -178l70 178h89l-113 -254l119 -264h-89l-77 184l-75 -184h-89l117 264z" />
    <glyph glyph-name="uni0446" unicode="&#x446;" horiz-adv-x="409" 
d="M339 73h46v-198h-75v125h-253v518h81v-446h120v446h81v-445z" />
    <glyph glyph-name="uni0447" unicode="&#x447;" horiz-adv-x="367" 
d="M310 0h-81v229q-32 -6 -68 -6q-61 0 -92 29t-31 95v171h81v-160q0 -34 12.5 -48.5t41.5 -14.5q27 0 56 6v217h81v-518z" />
    <glyph glyph-name="uni0448" unicode="&#x448;" horiz-adv-x="561" 
d="M504 0h-447v518h81v-446h102v446h81v-446h102v446h81v-518z" />
    <glyph glyph-name="uni0449" unicode="&#x449;" horiz-adv-x="575" 
d="M504 72h48v-196h-75v124h-420v518h81v-446h102v446h81v-446h102v446h81v-446z" />
    <glyph glyph-name="uni044A" unicode="&#x44a;" horiz-adv-x="414" 
d="M180 317h60q78 0 110.5 -39t32.5 -120t-32.5 -119.5t-110.5 -38.5h-141v446h-85v72h166v-201zM180 245v-173h56q35 0 50.5 20.5t15.5 65.5q0 46 -15.5 66.5t-50.5 20.5h-56z" />
    <glyph glyph-name="uni044B" unicode="&#x44b;" horiz-adv-x="556" 
d="M499 0h-81v518h81v-518zM138 317h60q78 0 110.5 -39t32.5 -120t-32.5 -119.5t-110.5 -38.5h-141v518h81v-201zM138 245v-173h56q35 0 50.5 20.5t15.5 65.5q0 46 -15.5 66.5t-50.5 20.5h-56z" />
    <glyph glyph-name="uni044C" unicode="&#x44c;" horiz-adv-x="372" 
d="M138 317h60q78 0 110.5 -39t32.5 -120t-32.5 -119.5t-110.5 -38.5h-141v518h81v-201zM138 245v-173h56q35 0 50.5 20.5t15.5 65.5q0 46 -15.5 66.5t-50.5 20.5h-56z" />
    <glyph glyph-name="uni044D" unicode="&#x44d;" horiz-adv-x="365" 
d="M176 526q34 0 62 -11t48 -37q24 -31 31 -85.5t7 -133.5q0 -78 -7 -133t-31 -86q-20 -26 -48 -37t-62 -11q-30 0 -54.5 6.5t-44.5 25.5q-23 20 -33 51.5t-12 65.5h79q0 -19 5.5 -35t14.5 -26q14 -16 45 -16q32 0 48 22q13 17 16.5 50t3.5 94h-118v67h118q0 54 -3.5 86
t-16.5 49q-17 22 -48 22q-32 0 -46 -17q-19 -20 -19 -60h-79q2 37 13.5 67t29.5 47q19 18 44.5 26.5t56.5 8.5z" />
    <glyph glyph-name="uni044E" unicode="&#x44e;" horiz-adv-x="550" 
d="M362 526q35 0 62.5 -11t47.5 -37q24 -31 30.5 -85.5t6.5 -133.5t-6.5 -133.5t-30.5 -85.5q-20 -26 -47.5 -37t-62.5 -11t-62 11t-47 37q-22 28 -29.5 75t-8.5 115h-77v-230h-81v518h81v-216h77q2 62 10 106t28 70t47 37t62 11zM362 453q-29 0 -45 -22q-14 -20 -17.5 -61
t-3.5 -111t3.5 -111t17.5 -61q16 -22 45 -22q30 0 46 22q14 20 17 61t3 111t-3 111t-17 61q-16 22 -46 22z" />
    <glyph glyph-name="uni044F" unicode="&#x44f;" horiz-adv-x="375" 
d="M318 0h-81v210h-54l-72 -210h-86l83 226q-37 18 -52 54t-15 84q0 75 31.5 114.5t109.5 39.5h136v-518zM183 446q-35 0 -47.5 -21.5t-12.5 -60.5q0 -38 13 -60t47 -22h54v164h-54z" />
    <glyph glyph-name="uni0450" unicode="&#x450;" 
d="M122 240q0 -62 3.5 -99t17.5 -54q7 -10 18.5 -16t27.5 -6q14 0 25 4.5t21 15.5t13.5 26t3.5 34h81q-1 -36 -10.5 -64t-31.5 -51q-37 -38 -102 -38q-33 0 -58 9t-45 31q-29 31 -37.5 88.5t-8.5 138.5q0 82 8 139t37 88q20 22 45 31t57 9t57 -9t45 -31q29 -31 37.5 -90.5
t8.5 -155.5h-213zM253 301q0 57 -4 87t-16 44q-8 10 -18.5 15.5t-27.5 5.5t-27 -5.5t-18 -15.5q-12 -14 -16 -44t-4 -87h131zM226 586h-62l-81 135h74z" />
    <glyph glyph-name="uni0451" unicode="&#x451;" 
d="M122 240q0 -62 3.5 -99t17.5 -54q7 -10 18.5 -16t27.5 -6q14 0 25 4.5t21 15.5t13.5 26t3.5 34h81q-1 -36 -10.5 -64t-31.5 -51q-37 -38 -102 -38q-33 0 -58 9t-45 31q-29 31 -37.5 88.5t-8.5 138.5q0 82 8 139t37 88q20 22 45 31t57 9t57 -9t45 -31q29 -31 37.5 -90.5
t8.5 -155.5h-213zM253 301q0 57 -4 87t-16 44q-8 10 -18.5 15.5t-27.5 5.5t-27 -5.5t-18 -15.5q-12 -14 -16 -44t-4 -87h131zM150 602h-82v82h82v-82zM307 602h-82v82h82v-82z" />
    <glyph glyph-name="uni0452" unicode="&#x452;" horiz-adv-x="395" 
d="M138 631h148v-63h-148v-100q5 8 13 15.5t16 12.5q25 17 56 17q29 0 50 -9.5t38 -28.5q15 -17 23 -41t8 -66v-406q0 -42 -12 -68t-32 -43q-23 -20 -50 -25.5t-59 -5.5v72q35 0 53.5 16t18.5 57v402q0 37 -18 55.5t-44 18.5t-43.5 -18.5t-17.5 -55.5v-367h-81v568h-53v63
h53v81h81v-81z" />
    <glyph glyph-name="uni0453" unicode="&#x453;" horiz-adv-x="314" 
d="M298 446h-160v-446h-81v518h241v-72zM185 586h-61l68 135h74z" />
    <glyph glyph-name="uni0454" unicode="&#x454;" horiz-adv-x="365" 
d="M189 526q31 0 56.5 -8.5t44.5 -26.5q18 -17 29.5 -47t13.5 -67h-79q0 40 -19 60q-14 17 -46 17q-33 0 -48 -22q-14 -17 -17 -49t-3 -86h118v-67h-118q0 -61 3 -94t17 -50q16 -22 48 -22q31 0 45 16q9 10 14.5 26t5.5 35h79q-2 -34 -12 -65.5t-33 -51.5
q-20 -19 -44.5 -25.5t-54.5 -6.5q-34 0 -62 11t-48 37q-24 31 -31 86t-7 133q0 79 7 133.5t31 85.5q20 26 48 37t62 11z" />
    <glyph glyph-name="uni0455" unicode="&#x455;" horiz-adv-x="359" 
d="M179 526q64 0 101 -37q42 -40 42 -114h-80q0 23 -4.5 37t-14.5 25q-9 10 -20.5 14t-23.5 4q-28 0 -45 -17q-19 -19 -19 -50q0 -22 9 -38q11 -19 43 -34l66 -33q52 -25 73 -59q22 -33 22 -83q0 -35 -12 -61.5t-32 -46.5q-21 -22 -47.5 -31.5t-58.5 -9.5t-58.5 10t-45.5 30
q-44 45 -44 114h80q0 -40 22 -63q9 -9 21.5 -13.5t24.5 -4.5q30 0 49 19q20 20 20 52q0 27 -13 47q-8 11 -19 20t-27 17l-67 34q-50 25 -71 60q-16 28 -16 68q0 34 11.5 59.5t31.5 45.5t46 29.5t56 9.5z" />
    <glyph glyph-name="uni0456" unicode="&#x456;" horiz-adv-x="195" 
d="M138 0h-81v518h81v-518zM145 610h-95v94h95v-94z" />
    <glyph glyph-name="uni0457" unicode="&#x457;" horiz-adv-x="195" 
d="M138 0h-81v518h81v-518zM61 602h-82v82h82v-82zM218 602h-82v82h82v-82z" />
    <glyph glyph-name="uni0458" unicode="&#x458;" horiz-adv-x="195" 
d="M138 -46q0 -43 -12.5 -71t-33.5 -45q-23 -20 -51.5 -26t-61.5 -6v73q38 0 58 17t20 61v561h81v-564zM145 610h-95v94h95v-94z" />
    <glyph glyph-name="uni0459" unicode="&#x459;" horiz-adv-x="592" 
d="M358 317h60q78 0 110.5 -39t32.5 -120t-32.5 -119.5t-110.5 -38.5h-141v446h-99v-239q0 -62 -9.5 -102t-27 -63t-43.5 -32.5t-59 -9.5h-25v73h12q13 0 26 3.5t23.5 18.5t17.5 44.5t7 82.5v296h258v-201zM358 245v-173h56q35 0 50.5 20.5t15.5 65.5q0 46 -15.5 66.5
t-50.5 20.5h-56z" />
    <glyph glyph-name="uni045A" unicode="&#x45a;" horiz-adv-x="572" 
d="M338 317h60q78 0 110.5 -39t32.5 -120t-32.5 -119.5t-110.5 -38.5h-141v245h-119v-245h-81v518h81v-201h119v201h81v-201zM338 245v-173h56q35 0 50.5 20.5t15.5 65.5q0 46 -15.5 66.5t-50.5 20.5h-56z" />
    <glyph glyph-name="uni045B" unicode="&#x45b;" horiz-adv-x="395" 
d="M138 631h148v-63h-148v-100q5 8 13 15.5t16 12.5q25 17 56 17q29 0 50 -9.5t38 -28.5q15 -17 23 -41t8 -66v-368h-81v367q0 37 -18 55.5t-44 18.5t-43.5 -18.5t-17.5 -55.5v-367h-81v568h-53v63h53v81h81v-81z" />
    <glyph glyph-name="uni045C" unicode="&#x45c;" horiz-adv-x="385" 
d="M224 273l155 -273h-91l-149 269l138 249h89zM138 0h-81v518h81v-518zM236 586h-61l68 135h74z" />
    <glyph glyph-name="uni045D" unicode="&#x45d;" horiz-adv-x="407" 
d="M138 518v-343l137 343h74v-518h-81v343l-137 -343h-74v518h81zM242 586h-62l-81 135h74z" />
    <glyph glyph-name="uni045E" unicode="&#x45e;" horiz-adv-x="343" 
d="M193 -83q-8 -35 -24 -56.5t-38 -33.5t-50 -16.5t-60 -4.5v72q38 0 61 12.5t32 47.5l16 63l-126 517h89l79 -389l78 389h89zM291 691q-4 -60 -35.5 -86t-82.5 -26q-50 0 -81.5 26t-35.5 86h58q4 -28 19.5 -40.5t39.5 -12.5q25 0 40.5 12.5t19.5 40.5h58z" />
    <glyph glyph-name="uni045F" unicode="&#x45f;" horiz-adv-x="396" 
d="M339 0h-104v-124h-74v124h-104v518h81v-446h120v446h81v-518z" />
    <glyph glyph-name="uni0462" unicode="&#x462;" horiz-adv-x="448" 
d="M163 623h81v-69h-81v-139h74q40 0 71.5 -10.5t53.5 -34.5t33 -63.5t11 -98.5t-11.5 -99t-33 -64t-53 -34.5t-71.5 -10.5h-160v554h-52v69h52v89h86v-89zM163 338v-261h73q42 0 63 29.5t21 101.5t-21 101t-63 29h-73z" />
    <glyph glyph-name="uni0463" unicode="&#x463;" horiz-adv-x="378" 
d="M144 518h80v-63h-80v-138h60q78 0 110.5 -39t32.5 -120t-32.5 -119.5t-110.5 -38.5h-141v455h-59v63h59v194h81v-194zM144 245v-173h56q35 0 50.5 20.5t15.5 65.5q0 46 -15.5 66.5t-50.5 20.5h-56z" />
    <glyph glyph-name="uni0472" unicode="&#x472;" horiz-adv-x="442" 
d="M221 -8q-42 0 -72 14.5t-50 37.5q-17 19 -27 42.5t-15.5 59t-7.5 86t-2 124.5t2 124.5t7.5 86t15.5 58.5t27 43q20 23 50 37.5t72 14.5t72.5 -14.5t50.5 -37.5q17 -19 27 -42.5t15.5 -59t7 -86t1.5 -124.5t-1.5 -125t-7 -86t-15.5 -58.5t-27 -42.5q-20 -23 -50.5 -37.5
t-72.5 -14.5zM221 69q21 0 35.5 7.5t22.5 19.5q9 12 14.5 29t9 43t5 64.5t1.5 92.5h-176q0 -54 1.5 -92.5t4.5 -64.5t9 -43t15 -29t23 -19.5t35 -7.5zM163 616q-9 -12 -14.5 -28.5t-9 -41.5t-5 -60.5t-1.5 -86.5h176q0 51 -1.5 86.5t-5 61t-9 41.5t-14.5 28
q-8 12 -22.5 19.5t-35.5 7.5t-35.5 -7.5t-22.5 -19.5z" />
    <glyph glyph-name="uni0473" unicode="&#x473;" 
d="M188 526q35 0 62.5 -11t47.5 -37q24 -31 30.5 -85.5t6.5 -133.5t-6.5 -133.5t-30.5 -85.5q-20 -26 -47.5 -37t-62.5 -11t-62 11t-47 37q-24 31 -31 85.5t-7 133.5t7 133.5t31 85.5q20 26 47 37t62 11zM122 240q0 -61 3.5 -98t17.5 -55q16 -23 45 -23q30 0 46 23
q13 18 16.5 55t3.5 98h-132zM188 454q-29 0 -45 -23q-12 -17 -16 -48t-5 -82h132q-1 51 -4.5 82t-15.5 48q-16 23 -46 23z" />
    <glyph glyph-name="uni0474" unicode="&#x474;" horiz-adv-x="392" 
d="M98 712l98 -573l98 573h94l-148 -712h-88l-148 712h94z" />
    <glyph glyph-name="uni0475" unicode="&#x475;" horiz-adv-x="343" 
d="M93 518l79 -386l78 386h89l-125 -518h-85l-125 518h89z" />
    <glyph glyph-name="uni0490" unicode="&#x490;" horiz-adv-x="355" 
d="M333 635h-183v-635h-86v712h187v94h82v-171z" />
    <glyph glyph-name="uni0491" unicode="&#x491;" horiz-adv-x="314" 
d="M298 446h-160v-446h-81v518h166v124h75v-196z" />
    <glyph glyph-name="uni0492" unicode="&#x492;" horiz-adv-x="368" 
d="M346 635h-183v-243h81v-69h-81v-323h-86v323h-52v69h52v320h269v-77z" />
    <glyph glyph-name="uni0493" unicode="&#x493;" horiz-adv-x="335" 
d="M319 446h-160v-149h80v-63h-80v-234h-81v234h-59v63h59v221h241v-72z" />
    <glyph glyph-name="uni0496" unicode="&#x496;" horiz-adv-x="676" 
d="M470 375l153 -298h40v-219h-82v142h-14l-187 371l173 341h93zM290 371l-187 -371h-95l192 375l-176 337h93zM378 0h-86v712h86v-712z" />
    <glyph glyph-name="uni0497" unicode="&#x497;" horiz-adv-x="577" 
d="M416 272l113 -199h42v-198h-75v125h-17l-148 269l138 249h89zM246 269l-148 -269h-92l155 272l-142 246h89zM329 0h-81v518h81v-518z" />
    <glyph glyph-name="uni049A" unicode="&#x49a;" horiz-adv-x="450" 
d="M241 375l160 -298h43v-219h-82v142h-17l-193 371l179 341h93zM150 0h-86v712h86v-712z" />
    <glyph glyph-name="uni049B" unicode="&#x49b;" horiz-adv-x="387" 
d="M224 273l114 -200h43v-197h-75v124h-18l-149 269l138 249h89zM138 0h-81v518h81v-518z" />
    <glyph glyph-name="uni049C" unicode="&#x49c;" horiz-adv-x="519" 
d="M349 375l162 -375h-97l-140 334h-28v-154h-63v154h-33v-334h-86v712h86v-301h33v138h63v-138h30l124 301h93z" />
    <glyph glyph-name="uni049D" unicode="&#x49d;" horiz-adv-x="448" 
d="M319 273l120 -273h-91l-101 233h-25v-126h-54v126h-30v-233h-81v518h81v-213h30v112h54v-112h25l90 213h89z" />
    <glyph glyph-name="uni04A2" unicode="&#x4a2;" horiz-adv-x="456" 
d="M394 77h39v-219h-82v142h-43v324h-158v-324h-86v712h86v-311h158v311h86v-635z" />
    <glyph glyph-name="uni04A3" unicode="&#x4a3;" horiz-adv-x="396" 
d="M339 72h33v-196h-75v124h-39v230h-120v-230h-81v518h81v-216h120v216h81v-446z" />
    <glyph glyph-name="uni04AE" unicode="&#x4ae;" horiz-adv-x="353" 
d="M219 288v-288h-86v288l-131 424h94l80 -304l80 304h95z" />
    <glyph glyph-name="uni04AF" unicode="&#x4af;" horiz-adv-x="343" 
d="M131 -6l-127 524h89l79 -389l78 389h89l-127 -524v-188h-81v188z" />
    <glyph glyph-name="uni04B0" unicode="&#x4b0;" horiz-adv-x="353" 
d="M219 288h67v-69h-67v-219h-86v219h-66v69h66l-131 424h94l80 -304l80 304h95z" />
    <glyph glyph-name="uni04B1" unicode="&#x4b1;" horiz-adv-x="343" 
d="M61 -68v62h70l-127 524h89l79 -389l78 389h89l-127 -524h71v-62h-71v-126h-81v126h-70z" />
    <glyph glyph-name="uni04B2" unicode="&#x4b2;" horiz-adv-x="405" 
d="M248 370l111 -293h31v-219h-82v142h-14l-93 282l-92 -282h-94l136 370l-125 342h94l81 -260l82 260h94z" />
    <glyph glyph-name="uni04B3" unicode="&#x4b3;" horiz-adv-x="356" 
d="M223 264l87 -191h34v-197h-75v124h-16l-75 187l-75 -187h-90l118 264l-112 254h90l69 -181l69 181h90z" />
    <glyph glyph-name="uni04B6" unicode="&#x4b6;" horiz-adv-x="438" 
d="M374 77h39v-219h-82v142h-43v324q-24 -4 -45.5 -5.5t-43.5 -1.5q-37 0 -65 8t-47 27t-28.5 50t-9.5 77v233h86v-224q0 -29 5.5 -47t15.5 -28.5t24.5 -14.5t32.5 -4q20 0 37.5 1.5t37.5 4.5v312h86v-635z" />
    <glyph glyph-name="uni04B7" unicode="&#x4b7;" horiz-adv-x="368" 
d="M310 73h35v-197h-75v124h-41v229q-32 -6 -68 -6q-61 0 -92 29t-31 95v171h81v-160q0 -34 12.5 -48t41.5 -14q14 0 28 1t28 4v217h81v-445z" />
    <glyph glyph-name="uni04B8" unicode="&#x4b8;" horiz-adv-x="461" 
d="M397 0h-86v323q-27 -4 -56 -6v-154h-63v154q-71 2 -107 37.5t-36 124.5v233h86v-224q0 -50 15.5 -69t41.5 -23v136h63v-138q31 2 56 6v312h86v-712z" />
    <glyph glyph-name="uni04B9" unicode="&#x4b9;" horiz-adv-x="389" 
d="M332 0h-81v229q-10 -2 -19.5 -3t-19.5 -2v-127h-54v126h-1q-60 2 -89.5 30.5t-29.5 93.5v171h81v-160q0 -55 39 -61v109h54v-109q11 0 21 1t18 3v217h81v-518z" />
    <glyph glyph-name="uni04BA" unicode="&#x4ba;" horiz-adv-x="438" 
d="M150 394q23 5 45 6.5t44 1.5q37 0 65 -8.5t47 -27.5t28.5 -50t9.5 -77v-239h-86v230q0 29 -5.5 47t-15.5 28.5t-24.5 14.5t-32.5 4q-20 0 -37.5 -1.5t-37.5 -4.5v-318h-86v712h86v-318z" />
    <glyph glyph-name="uni04BB" unicode="&#x4bb;" horiz-adv-x="368" 
d="M138 301q33 6 68 6q62 0 93 -28.5t31 -94.5v-184h-81v173q0 33 -13 47.5t-42 14.5q-28 0 -56 -6v-229h-81v518h81v-217z" />
    <glyph glyph-name="uni04C0" unicode="&#x4c0;" horiz-adv-x="214" 
d="M150 0h-86v712h86v-712z" />
    <glyph glyph-name="uni04CF" unicode="&#x4cf;" horiz-adv-x="195" 
d="M138 0h-81v712h81v-712z" />
    <glyph glyph-name="uni04D8" unicode="&#x4d8;" horiz-adv-x="433" 
d="M212 720q42 0 72 -14.5t50 -37.5q17 -20 27 -43t15.5 -58.5t7.5 -86t2 -124.5t-2 -124.5t-7.5 -86t-15.5 -59t-27 -42.5q-20 -23 -50 -37.5t-72 -14.5q-35 0 -65 11.5t-52.5 34t-35 56t-12.5 77.5v224h253q-1 55 -2.5 92.5t-4.5 62t-8.5 40t-14.5 26.5q-9 12 -23.5 19.5
t-34.5 7.5q-25 0 -40.5 -10t-24 -25.5t-11.5 -35t-3 -37.5h-86q1 44 12.5 80.5t36.5 60.5q21 20 49.5 32t66.5 12zM133 324v-156q0 -44 20.5 -71.5t58.5 -27.5q20 0 34.5 7.5t23.5 19.5q9 11 14.5 26.5t8.5 41t4.5 64t2.5 96.5h-167z" />
    <glyph glyph-name="uni04D9" unicode="&#x4d9;" 
d="M254 278q0 62 -3.5 99t-17.5 54q-7 10 -18.5 16t-27.5 6q-14 0 -25 -4.5t-21 -15.5t-13.5 -26t-3.5 -34h-81q1 36 10.5 64t31.5 51q37 38 102 38q33 0 58 -9t45 -31q29 -31 37.5 -88.5t8.5 -138.5q0 -82 -8 -139t-37 -88q-20 -22 -45 -31t-57 -9t-57 9t-45 31
q-29 31 -37.5 90.5t-8.5 155.5h213zM123 217q0 -57 4 -87t16 -44q8 -10 18.5 -15.5t27.5 -5.5t27 5.5t18 15.5q12 14 16 44t4 87h-131z" />
    <glyph glyph-name="uni04E2" unicode="&#x4e2;" horiz-adv-x="468" 
d="M150 712v-494l175 494h79v-712h-86v494l-174 -494h-80v712h86zM348 780h-228v58h228v-58z" />
    <glyph glyph-name="uni04E3" unicode="&#x4e3;" horiz-adv-x="407" 
d="M138 518v-343l137 343h74v-518h-81v343l-137 -343h-74v518h81zM318 608h-229v57h229v-57z" />
    <glyph glyph-name="uni04E8" unicode="&#x4e8;" horiz-adv-x="442" 
d="M221 -8q-42 0 -72 14.5t-50 37.5q-17 19 -27 42.5t-15.5 59t-7.5 86t-2 124.5t2 124.5t7.5 86t15.5 58.5t27 43q20 23 50 37.5t72 14.5t72.5 -14.5t50.5 -37.5q17 -19 27 -42.5t15.5 -59t7 -86t1.5 -124.5t-1.5 -125t-7 -86t-15.5 -58.5t-27 -42.5q-20 -23 -50.5 -37.5
t-72.5 -14.5zM221 69q21 0 35.5 7.5t22.5 19.5q9 12 14.5 29t9 43t5 64.5t1.5 92.5h-176q0 -54 1.5 -92.5t4.5 -64.5t9 -43t15 -29t23 -19.5t35 -7.5zM163 616q-9 -12 -14.5 -28.5t-9 -41.5t-5 -60.5t-1.5 -86.5h176q0 51 -1.5 86.5t-5 61t-9 41.5t-14.5 28
q-8 12 -22.5 19.5t-35.5 7.5t-35.5 -7.5t-22.5 -19.5z" />
    <glyph glyph-name="uni04E9" unicode="&#x4e9;" 
d="M188 526q35 0 62.5 -11t47.5 -37q24 -31 30.5 -85.5t6.5 -133.5t-6.5 -133.5t-30.5 -85.5q-20 -26 -47.5 -37t-62.5 -11t-62 11t-47 37q-24 31 -31 85.5t-7 133.5t7 133.5t31 85.5q20 26 47 37t62 11zM122 240q0 -61 3.5 -98t17.5 -55q16 -23 45 -23q30 0 46 23
q13 18 16.5 55t3.5 98h-132zM188 454q-29 0 -45 -23q-12 -17 -16 -48t-5 -82h132q-1 51 -4.5 82t-15.5 48q-16 23 -46 23z" />
    <glyph glyph-name="uni04EE" unicode="&#x4ee;" horiz-adv-x="392" 
d="M203 113q-11 -35 -24.5 -57t-33 -34.5t-46 -17t-63.5 -4.5v77q22 0 37.5 3.5t26.5 11.5t19 22.5t14 36.5l23 79l-152 482h94l99 -363l97 363h94zM312 780h-228v58h228v-58z" />
    </font>
</defs>
</svg>
