<?xml version="1.0" standalone="no"?>
<!DOCTYPE svg PUBLIC "-//W3C//DTD SVG 1.1//EN" "http://www.w3.org/Graphics/SVG/1.1/DTD/svg11.dtd" >
<svg xmlns="http://www.w3.org/2000/svg" xmlns:xlink="http://www.w3.org/1999/xlink" version="1.1">
<metadata>
Created by FontForge 20170731 at Sun Sep 23 17:57:53 2001
 By Aleksey,,,
(c) Copyright 2001 by Tom Truong. All Rights Reserved
</metadata>
<defs>
<font id="UVNDoiMoi" horiz-adv-x="713" >
  <font-face 
    font-family="UVN Doi Moi"
    font-weight="400"
    font-stretch="normal"
    units-per-em="2048"
    panose-1="0 0 4 0 0 0 0 0 0 0"
    ascent="1638"
    descent="-410"
    x-height="662"
    cap-height="1227"
    bbox="-156 -721 1997 1854"
    underline-thickness="103"
    underline-position="-358"
    unicode-range="U+0020-F002"
  />
<missing-glyph horiz-adv-x="1024" 
d="M128 0v1854h768v-1854h-768zM256 128h512v1598h-512v-1598z" />
    <glyph glyph-name=".notdef" horiz-adv-x="1024" 
d="M128 0v1854h768v-1854h-768zM256 128h512v1598h-512v-1598z" />
    <glyph glyph-name=".null" horiz-adv-x="0" 
 />
    <glyph glyph-name="nonmarkingreturn" horiz-adv-x="446" 
 />
    <glyph glyph-name="space" unicode=" " horiz-adv-x="446" 
 />
    <glyph glyph-name="exclam" unicode="!" horiz-adv-x="516" 
d="M346 1307q0 -13 -13 -156l-32 -326q-25 -254 -25 -311q0 -21 5.5 -62t5.5 -61q0 -45 -31 -45q-45 0 -45 68q0 89 -12 258q-21 296 -21 585q0 127 70 127h41q57 0 57 -77zM338 96q0 -41 -21 -71q-24 -33 -63 -33q-80 0 -80 92q0 47 22 88q27 49 70 49q72 0 72 -125z" />
    <glyph glyph-name="quotedbl" unicode="&#x22;" horiz-adv-x="559" 
d="M467 1139q0 -42 -24 -146q-26 -113 -46 -127q-11 -8 -20 -8q-21 0 -21 25q0 27 3.5 81t3.5 82q0 45 -3 80l-4 37q0 60 52 60q59 0 59 -84zM217 1139q0 -64 -28 -164.5t-39.5 -108.5t-20.5 -8q-20 0 -20 25q0 27 3.5 82t3.5 82q0 47 -3 79l-4 37q0 60 51 60q57 0 57 -84z
" />
    <glyph glyph-name="numbersign" unicode="#" horiz-adv-x="1055" 
d="M948 600q0 -26 -16 -54q-19 -32 -43 -32q-88 0 -146 2l-22 -272q92 6 160 6q22 0 22 -29q0 -80 -49 -80q-86 0 -139 2l-25 -419q-5 -78 -61 -78q-37 0 -37 65q0 10 14 137l33 297q-55 2 -127 2q-86 0 -123 -2q-2 -26 -24 -362q-3 -45 -12 -59q-12 -19 -46 -19
q-31 0 -31 64q0 18 12 128q11 91 29 244q-19 0 -56 -1t-56 -1q-41 0 -41 41q0 64 37 64h-2h-1h8l21 -1l101 -3q4 29 30 274q-18 -1 -64 -5q-40 -3 -63 -3q-38 0 -38 43q0 88 38 88q24 0 70.5 -4t67.5 -4q17 164 30 338q7 90 50 90q34 0 34 -70q0 -29 -41 -362q35 -2 111 -2
q23 0 68 1t67 1q11 130 23 387q4 82 49 82q37 0 37 -62q0 -76 -17 -202q-23 -161 -26 -203q65 2 172 2q22 0 22 -29zM397 240h130q23 0 124 4q11 94 27 274q-115 4 -135 4q-41 0 -115 -4z" />
    <glyph glyph-name="dollar" unicode="$" horiz-adv-x="758" 
d="M432 694q182 0 208 -94q10 -39 28 -113q6 -25 6 -34q0 -60 -39 -60q-57 0 -57 78v125q0 39 -146 39q-4 -197 -4 -303q105 -31 143 -58q64 -46 64 -133q0 -75 -67 -127q-57 -44 -138 -55q2 -143 2 -272q0 -56 -4 -63q-8 -13 -55 -13q-29 0 -29 70q0 75 12 278
q-211 6 -211 84q0 53 45 53q18 0 41 -16q62 -43 127 -64q3 40 9 197q-141 43 -189 73q-94 60 -94 167q0 99 96 167q81 56 189 70v127q0 84 32 84q35 0 35 -59q0 -78 -4 -148zM369 348v281q-183 -32 -183 -150q0 -69 183 -131zM537 102q0 65 -109 93q0 -30 1 -90.5t1 -90.5
q107 10 107 88z" />
    <glyph glyph-name="percent" unicode="%" horiz-adv-x="1253" 
d="M1165 236q0 -104 -68 -178t-171 -74q-106 0 -169 77q-59 71 -59 179q0 104 64 181q68 81 170 81q233 0 233 -266zM862 850q0 -10 -20 -51l-545 -1125q-31 -63 -53 -63q-58 0 -58 47q0 27 13 51l292 540q169 315 279 546q-70 -29 -164 -73q-22 -9 -65 -30q-11 -7 -11 -20
q0 -11 3.5 -32t3.5 -32q0 -113 -65 -191q-70 -83 -181 -83q-105 0 -173 76q-65 72 -65 178q0 115 74 193.5t188 78.5q38 0 77 -11q54 -16 54 -44q0 -39 -40 -39q-7 0 -38.5 22.5t-56.5 22.5q-135 0 -135 -217q0 -205 123 -205q137 0 137 232q0 11 -7 31.5t-7 31.5
q0 16 18 23q98 37 142 57q76 33 135 70q78 49 106 49q39 0 39 -33zM1047 281q0 172 -117 172q-57 0 -87 -82q-22 -61 -22 -129q0 -203 115 -203q111 0 111 242z" />
    <glyph glyph-name="ampersand" unicode="&#x26;" horiz-adv-x="1430" 
d="M1409 446q0 -47 -84 -47q-43 0 -127 23.5t-127 23.5q-12 0 -12 -108q0 -163 -122 -267q-117 -100 -282 -100q-164 0 -293 82q-151 94 -151 248q0 168 160 250q-269 97 -269 326q0 151 157 262q162 114 403 114q172 0 304 -50q44 -16 68 -30q45 -25 51 -49
q52 -197 52 -293q0 -86 -64 -86q-55 0 -55 91q0 41 9 123.5t9 123.5q0 28 -103 62q-113 37 -247 37q-180 0 -292 -64q-140 -80 -140 -248q0 -244 364 -303q111 -18 111 -57q0 -47 -61 -47q-34 0 -98 31.5t-101 31.5q-29 0 -65 -71q-37 -74 -37 -160q0 -124 80 -196
q76 -68 202 -68t203 92q72 87 72 215q0 41 -9.5 86.5t-9.5 48.5q0 39 74 39h291q139 0 139 -66z" />
    <glyph glyph-name="quotesingle" unicode="'" horiz-adv-x="317" 
d="M217 1139q0 -64 -28 -164.5t-39.5 -108.5t-20.5 -8q-20 0 -20 31q0 28 3.5 83.5t3.5 82.5q0 44 -3 71l-4 37q0 60 51 60q57 0 57 -84z" />
    <glyph glyph-name="parenleft" unicode="(" horiz-adv-x="678" 
d="M555 1257q0 -31 -63 -147q-91 -168 -153 -400q-67 -252 -67 -448q0 -175 53 -355q39 -132 97 -231q14 -24 14 -32q0 -35 -35 -35q-21 0 -79 101q-168 290 -168 601q0 451 229 901q43 84 86 84h49q37 0 37 -39z" />
    <glyph glyph-name="parenright" unicode=")" horiz-adv-x="678" 
d="M512 608q0 -466 -231 -903q-44 -84 -84 -84h-52q-36 0 -36 39q0 32 63 147q92 168 153 399q66 250 66 451q0 177 -52 354q-40 135 -97 230q-15 25 -15 33q0 35 35 35q21 0 81 -101q169 -285 169 -600z" />
    <glyph glyph-name="asterisk" unicode="*" horiz-adv-x="877" 
d="M764 995q0 -69 -299 -69q32 -61 106 -119q103 -80 103 -105q0 -40 -58 -40q-75 0 -133 86q-23 34 -75 151q-145 -229 -179 -229q-20 0 -40 43q-17 38 -17 63q0 42 72 82q85 48 129 86q-36 23 -205 80q-66 22 -66 57q0 43 119 43q43 0 178 -125q6 125 15 168
q24 117 90 117q47 0 47 -55q0 -41 -39 -121q-43 -89 -49 -125q22 5 109 42q68 28 112 28q28 0 52 -15q28 -17 28 -43z" />
    <glyph glyph-name="plus" unicode="+" horiz-adv-x="877" 
d="M756 291q0 -10 -11 -10h-270v-271q0 -10 -10 -10h-53q-11 0 -11 10v271h-270q-10 0 -10 10v53q0 10 10 10h270v271q0 10 11 10h53q10 0 10 -10v-271h270q11 0 11 -10v-53z" />
    <glyph glyph-name="comma" unicode="," horiz-adv-x="446" 
d="M297 125q0 -56 -57 -177q-61 -128 -99 -128q-22 0 -22 30q0 19 22.5 71.5t22.5 94.5q0 21 -8.5 61t-8.5 60q0 62 64 62h33q53 0 53 -74z" />
    <glyph glyph-name="hyphen" unicode="-" horiz-adv-x="532" 
d="M498 336q0 -62 -54 -62q-176 0 -340 19q-75 9 -75 45v20q0 35 49 35q17 0 52 -2t52 -2q169 0 219 12q29 7 56 7q41 0 41 -72z" />
    <glyph glyph-name="hyphen" unicode="&#x2010;" horiz-adv-x="532" 
d="M498 336q0 -62 -54 -62q-176 0 -340 19q-75 9 -75 45v20q0 35 49 35q17 0 52 -2t52 -2q169 0 219 12q29 7 56 7q41 0 41 -72z" />
    <glyph glyph-name="period" unicode="." horiz-adv-x="440" 
d="M301 96q0 -40 -19 -70q-23 -34 -61 -34q-82 0 -82 92q0 45 22 86q27 49 68 49q72 0 72 -123z" />
    <glyph glyph-name="slash" unicode="/" horiz-adv-x="877" 
d="M739 1251q0 -28 -18 -71q-31 -72 -92 -216q-161 -388 -323 -857q-22 -67 -69 -200q-16 -40 -33 -53.5t-61 -13.5q-39 0 -39 64q0 32 19 76q30 68 91 203q186 425 342 845q24 67 73 199q30 76 63 76q47 0 47 -52z" />
    <glyph glyph-name="zero" unicode="0" horiz-adv-x="850" 
d="M764 319q0 -143 -96.5 -240t-239.5 -97q-157 0 -250.5 93.5t-93.5 250.5q0 149 96.5 254.5t243.5 105.5q164 0 254 -102q86 -98 86 -265zM629 383q0 94 -56 170q-60 82 -151 82q-62 0 -119 -62q-76 -83 -76 -245q0 -287 201 -287q110 0 163 124q38 91 38 218z" />
    <glyph glyph-name="one" unicode="1" horiz-adv-x="590" 
d="M418 662q0 -64 -9.5 -191.5t-9.5 -191.5q0 -35 2 -105.5t2 -105.5q0 -76 -71 -76q-66 0 -66 49q0 14 6 92q17 222 17 406q0 26 -15 26q-23 0 -79.5 -68.5t-88.5 -68.5q-36 0 -36 29q0 51 129 133q50 32 82 59q68 58 100 58q37 0 37 -45z" />
    <glyph glyph-name="two" unicode="2" horiz-adv-x="725" 
d="M678 66q0 -74 -66 -74q-49 0 -146.5 5t-146.5 5q-24 0 -70 -11t-69 -11q-41 0 -41 24q0 33 159 252t159 281q0 94 -156 94q-119 0 -119 -62q0 -16 5.5 -48t5.5 -48q0 -74 -54 -74q-35 0 -35 33l4.5 45t4.5 121q0 96 194 96q104 0 176 -39q90 -49 90 -145q0 -69 -36 -119
q-116 -162 -238 -346q49 16 188 38q130 21 158 21q33 0 33 -38z" />
    <glyph glyph-name="three" unicode="3" horiz-adv-x="758" 
d="M692 -20q0 -172 -158 -275q-138 -90 -319 -90q-58 0 -79 7q-40 13 -40 59q0 45 37 45q17 0 60 -15q63 -22 114 -22q115 0 183 89q63 81 63 199q0 90 -47 147q-51 62 -139 62q-32 0 -81.5 -22.5t-64.5 -22.5q-39 0 -39 33q0 45 51 49q242 20 242 201q0 201 -223 201
q-62 0 -62 -66q0 -12 4.5 -35t4.5 -35q0 -79 -43 -79q-37 0 -37 36q0 6 2 60q4 109 15 132q24 48 120 48q340 0 340 -205q0 -105 -127 -227q108 -16 167 -91q56 -72 56 -183z" />
    <glyph glyph-name="four" unicode="4" horiz-adv-x="852" 
d="M862 135q0 -57 -84 -57q-34 0 -102.5 3t-102.5 3q0 -198 21 -324q6 -36 6 -34q0 -31 -32 -55.5t-64 -24.5q-36 0 -43 47q-2 15 -1 183l1 206q-109 0 -254 -11l-140 -12h-1q-37 -1 -37 27q0 18 26 51q80 101 144 305q17 55 88 342q18 72 47 72q63 0 63 -49
q0 -107 -94 -332q-83 -201 -160 -315q48 -15 242 -15q39 0 76 5v274q0 106 59 106q66 0 66 -45q0 -56 -6.5 -167.5t-6.5 -167.5q40 0 116.5 14t113.5 14q59 0 59 -43z" />
    <glyph glyph-name="five" unicode="5" horiz-adv-x="719" 
d="M618 -4q0 -157 -138 -267q-143 -114 -355 -114q-82 0 -82 80q0 35 41 35q21 0 62 -12.5t63 -12.5q134 0 212 63q85 68 85 199q0 221 -301 221q-53 0 -53 54q0 57 10 172t10 172q0 20 19.5 36.5t39.5 16.5q177 0 273 29q60 18 65 18q49 0 49 -47q0 -50 -8 -66
q-11 -23 -51 -30q-80 -15 -323 -15q-10 -72 -15 -217q5 0 16 1t17 1q161 0 258 -77q106 -84 106 -240z" />
    <glyph glyph-name="six" unicode="6" horiz-adv-x="887" 
d="M801 346q0 -178 -134 -281q-108 -83 -233 -83q-126 0 -225 114q-129 149 -129 445q0 229 120 390q133 177 355 177q197 0 197 -104q0 -22 -17 -40t-39 -18l-98 54q-54 26 -109 26q-272 0 -272 -477q0 -268 78 -403q62 -107 137 -107q114 0 183 97q63 86 63 204
q0 82 -28 140q-37 75 -111 75q-47 0 -108 -49t-75 -49q-39 0 -39 37q0 58 92 93q72 27 142 27q105 0 179 -82q71 -80 71 -186z" />
    <glyph glyph-name="seven" unicode="7" horiz-adv-x="743" 
d="M686 623q0 -28 -18 -66q-69 -147 -137 -332l93 1q39 1 40 -28q1 -32 -42 -33q-28 -1 -113 -2q-35 -97 -151 -454q-31 -94 -96 -94q-51 0 -51 66q0 15 37 83q125 229 196 399h-56q-58 0 -152 -12q-23 -4 -66 -8q-45 -2 -47 61q-1 31 44 33q76 -7 221 -13h81q59 155 90 296
q-67 12 -153 12q-80 0 -191 -11t-121 -11q-43 0 -43 41q0 30 25 69.5t53 41.5q1 2 2 0h-2q0 -1 2 -1l19 -2l61 -6q91 -10 205 -10q41 0 124 4t124 4q22 0 22 -28z" />
    <glyph glyph-name="eight" unicode="8" horiz-adv-x="852" 
d="M786 829q0 -210 -233 -309q192 -65 192 -268q0 -90 -75 -172q-92 -100 -244 -100q-129 0 -218 73q-95 78 -95 205q0 73 47 139q45 62 114 95q-200 100 -200 282q0 145 111 247q108 99 255 99q176 0 273 -112q73 -85 73 -179zM651 811q0 96 -59 168q-63 76 -156 76
q-112 0 -180 -65t-68 -177q0 -105 97 -178q77 -58 194 -82q172 81 172 258zM616 240q0 104 -98 155l-186 66q-109 -78 -109 -205q0 -101 56 -159t157 -58q81 0 132 61q48 58 48 140z" />
    <glyph glyph-name="nine" unicode="9" horiz-adv-x="897" 
d="M807 154q0 -221 -125 -377q-134 -168 -350 -168q-180 0 -180 92q0 51 59 51q6 0 69.5 -32.5t110.5 -32.5q277 0 277 458q0 172 -36 294q-57 190 -188 190q-109 0 -172 -101q-53 -87 -53 -202q0 -226 133 -226q57 0 116.5 45t76.5 45q39 0 39 -38q0 -54 -99 -86
q-76 -25 -145 -25q-113 0 -186 84q-70 80 -70 194q0 181 133 285q105 82 225 82q132 0 230 -101q135 -139 135 -431z" />
    <glyph glyph-name="colon" unicode=":" horiz-adv-x="446" 
d="M305 545q0 -40 -21 -69q-24 -32 -63 -32q-80 0 -80 91q0 44 23 84q27 47 67 47q74 0 74 -121zM305 94q0 -41 -21 -70q-24 -32 -63 -32q-80 0 -80 90q0 44 23 84q26 47 67 47q74 0 74 -119z" />
    <glyph glyph-name="semicolon" unicode=";" horiz-adv-x="446" 
d="M305 545q0 -101 -82 -101t-82 91q0 42 24 83q27 48 66 48q74 0 74 -121zM297 125q0 -56 -57 -177q-61 -128 -99 -128q-22 0 -22 30q0 19 22.5 71.5t22.5 94.5q0 21 -8.5 61t-8.5 60q0 62 64 62h33q53 0 53 -74z" />
    <glyph glyph-name="less" unicode="&#x3c;" horiz-adv-x="877" 
d="M690 4q-4 1 -6 2l-520 285q-4 4 -6 8v43q3 6 6 8q524 286 527 286q7 0 21 -25.5t14 -31.5q0 -5 -5 -8l-465 -252l465 -247q6 -3 6 -9q0 -4 -15.5 -31.5t-21.5 -27.5z" />
    <glyph glyph-name="equal" unicode="=" horiz-adv-x="877" 
d="M756 438q0 -10 -10 -10h-616q-9 0 -9 10v54q0 10 10 10h615q10 0 10 -10v-54zM756 143q0 -10 -10 -10h-616q-9 0 -9 10v54q0 10 10 10h615q10 0 10 -10v-54z" />
    <glyph glyph-name="greater" unicode="&#x3e;" horiz-adv-x="877" 
d="M719 299q-3 -6 -6 -8q-522 -286 -525 -286q-8 0 -21.5 25.5t-13.5 32.5q0 4 5 7l465 249l-465 252q-5 3 -5 7q0 5 13.5 31.5t21.5 26.5q3 0 525 -286q4 -3 6 -8v-43z" />
    <glyph glyph-name="question" unicode="?" horiz-adv-x="762" 
d="M721 866q0 -225 -213 -297l-162 -55q-70 -24 -70 -49q0 -19 25 -49.5t25 -36.5q0 -33 -41 -33q-27 0 -64 61q-37 58 -37 93q0 122 111 159l154 52q161 54 161 188q0 122 -104 199q-95 71 -221 71q-40 0 -93 -10q-73 -13 -73 -35q0 -32 6 -95t6 -95q0 -30 -19.5 -57
t-48.5 -27q-53 0 -53 61q0 48 37 224q10 48 99 78q71 24 135 24q203 0 330 -125q110 -108 110 -246zM373 96q0 -40 -21 -70q-23 -34 -61 -34q-82 0 -82 92q0 46 22 87q26 50 68 50q74 0 74 -125z" />
    <glyph glyph-name="at" unicode="@" horiz-adv-x="1421" 
d="M1341 457q0 -246 -166 -370q-113 -85 -231 -85q-111 0 -131 98q-29 -34 -88 -65q-62 -33 -104 -33q-107 0 -170 73q-60 68 -60 177q0 149 91 260q97 119 243 119q81 0 143 -76q0 75 45 100q38 21 60 21q32 0 31 -35v-4q-32 -158 -72 -477l-1 -12q-1 -32 18.5 -59.5
t51.5 -27.5q84 0 156 92q84 107 84 285q0 215 -133.5 352.5t-347.5 137.5q-250 0 -401 -189q-140 -174 -140 -430q0 -229 133 -382q139 -160 365 -160q167 0 254 57l47 38q33 27 45 27q35 0 35 -30q0 -50 -122 -99t-263 -49q-263 0 -446 170q-187 173 -187 434
q0 293 195 478q191 182 485 182q246 0 408 -133q173 -143 173 -385zM843 448q0 59 -35.5 96.5t-94.5 37.5q-54 0 -102 -65q-69 -94 -69 -259q0 -188 101 -188q51 0 106.5 40t63.5 89q30 186 30 249z" />
    <glyph glyph-name="A" unicode="A" horiz-adv-x="1272" 
d="M1065 72q1 -49 -22 -63q-15 -9 -66 -9q-74 0 -74 68l7.5 136t7.5 236v29q-61 -183 -148 -308q-125 -177 -270 -177q-155 0 -267 126q-133 150 -133 433q0 276 165 488q178 229 446 229q266 0 266 -93q0 -22 -16 -50q-19 -30 -39 -30q-17 0 -114 54.5t-175 54.5
q-164 0 -282 -239q-107 -217 -107 -482q0 -184 79 -310q76 -122 177 -122q157 0 295 271q120 236 120 415q0 19 -1 56.5t-1 56.5q0 35 20 65.5t54 30.5h27q47 0 47 -86q0 -13 -7 -125.5t-7 -196.5q0 -152 9 -309z" />
    <glyph glyph-name="B" unicode="B" horiz-adv-x="1286" 
d="M190 61v521q0 276 87 454q115 234 362 234q100 0 171 -58q77 -61 77 -159q0 -125 -113 -222q397 0 397 -395q0 -219 -173 -354q-142 -111 -300 -111q-134 0 -223.5 42.5t-89.5 92.5q0 16 15.5 36t31.5 20t100 -62.5t187 -62.5q159 0 240 137q65 112 65 283q0 133 -74 227
q-81 102 -211 102q-46 0 -133 -35.5t-123 -35.5q-37 0 -37 30q0 41 45.5 49t133.5 27q127 35 127 242q0 154 -156 154q-83 0 -156 -81q-112 -124 -112 -397v-383q0 -67 9 -180.5t9 -109.5q0 -51 -24 -64q-14 -8 -68 -8q-64 0 -64 67z" />
    <glyph glyph-name="C" unicode="C" horiz-adv-x="1296" 
d="M1249 219q0 -95 -160 -173q-153 -75 -337 -75q-259 0 -446 161q-195 170 -195 425q0 343 235 549q187 164 387 164q73 0 104 -12q52 -20 52 -80q0 -211 -6 -283q-11 -127 -49 -127q-64 0 -64 113q0 40 24.5 143.5t24.5 149.5q0 38 -49 38q-201 0 -341 -151
q-155 -168 -155 -455q0 -248 112 -398q126 -169 366 -169q101 0 201 58q43 25 146 107q72 58 107 58q43 0 43 -43z" />
    <glyph glyph-name="D" unicode="D" horiz-adv-x="1208" 
d="M1092 537q0 -232 -101 -384q-117 -176 -338 -176q-81 0 -146 18q-95 26 -95 81q0 61 37 61q7 0 57 -31q98 -61 209 -61q227 0 227 463q0 224 -106 440q-129 260 -328 260q-148 0 -148 -137q0 -165 -9 -496t-9 -497q0 -37 -23.5 -62.5t-93.5 -25.5q-41 0 -41 45
q0 116 16 395q15 274 31 492q13 180 73 257q73 91 245 91q223 0 391 -255q152 -230 152 -478z" />
    <glyph glyph-name="E" unicode="E" horiz-adv-x="1217" 
d="M84 602q0 329 205 514q168 152 391 152q105 0 192 -16q144 -27 144 -89q0 -57 -49 -57q-14 0 -123 49t-185 49q-231 0 -335 -209q-80 -159 -80 -415q0 -8 1 -24t1 -24q21 -2 55 -2h132q96 0 289 7.5t290 7.5q45 0 45 -35q0 -36 -53 -54q-38 -14 -82 -14h-222
q-63 0 -189 13.5t-189 13.5q-47 0 -70 -4q24 -178 122 -294q112 -132 281 -132q180 0 285 86q48 39 76 39q20 0 35.5 -23.5t15.5 -44.5q0 -29 -82 -71q-105 -54 -258 -54q-309 0 -491 216q-152 181 -152 415z" />
    <glyph glyph-name="F" unicode="F" horiz-adv-x="1217" 
d="M324 481q33 -8 102 -8q122 0 305.5 25.5t259.5 25.5q72 0 72 -55q0 -63 -113 -63q-87 0 -579 14q-23 1 -45 -4q12 -324 12 -363q0 -44 -38 -52q-4 -1 -73 -1q-46 0 -45 68l4 220q4 220 4 318q0 290 133 465q149 195 429 195q121 0 221 -40q86 -34 86 -59q0 -19 -9 -48
q-12 -34 -26 -34q6 0 -102 61.5t-203 61.5q-224 0 -323 -221q-72 -160 -72 -416v-90z" />
    <glyph glyph-name="G" unicode="G" horiz-adv-x="1423" 
d="M1348 535q0 -256 -165 -412q-162 -152 -419 -152q-299 0 -484 155q-196 165 -196 458q0 283 218 481q203 184 458 184q60 0 113 -16q75 -23 75 -68q0 -23 -27 -38q-22 -13 -47 -13q-11 0 -73 33t-111 33q-186 0 -313 -158.5t-127 -398.5q0 -268 121 -423
q134 -171 395 -171q227 0 348 187q88 136 88 284q0 45 -28 45q-62 0 -224 -12.5t-164 -12.5q-57 0 -57 31q0 27 26 44q22 15 50 15q2 0 116 -4t345 -4q82 0 82 -67z" />
    <glyph glyph-name="H" unicode="H" horiz-adv-x="1417" 
d="M1026 1544q28 0 27 -39v0v-2v-2l-1 -11l-4 -57l-14 -259q-20 -339 -20 -465q0 -36 1 -107.5t1 -105.5q145 8 303 8q90 0 90 -53q0 -58 -125 -58q-117 0 -268 4l4 -366q0 -43 -62 -43q-79 0 -79 65q0 61 4 174q4 121 4 174q-27 0 -83.5 1t-84.5 1h-297q-15 0 -43.5 -1
t-42.5 -1v-350q0 -63 -60 -63q-79 0 -79 67q0 58 6 173t6 173q0 105 4 314.5t4 314.5q0 64 37 82q53 25 82 25q26 0 26 -60q-2 -3 -14 -284t-12 -334q6 0 19 -1t20 -1q125 0 514 32l-2 852q0 203 61 203h78z" />
    <glyph glyph-name="I" unicode="I" horiz-adv-x="686" 
d="M436 1169q0 -8 -8 -206.5t-8 -311.5q0 -154 5 -374l5 -203q1 -10 0 -8q0 -58 -21 -68q-9 -4 -79 -4q-64 0 -64 67q0 10 15.5 273.5t15.5 333.5q0 80 -2 239.5t-2 239.5q0 24 -27 24q-29 0 -95.5 -18t-98.5 -18q-43 0 -43 36q0 56 84 56h249q74 0 74 -58z" />
    <glyph glyph-name="J" unicode="J" horiz-adv-x="1059" 
d="M848 1169q0 -12 -6 -228q-4 -145 -4 -505q0 -200 -107 -328q-114 -137 -311 -137q-157 0 -256 67q-76 52 -76 93q0 85 -7 219.5l-7 134.5q0 48 26 59q11 5 68 5q35 0 35 -74q0 -47 -11.5 -140t-11.5 -140q0 -158 217 -158q171 0 241 116q56 92 56 275v717q0 26 -32 26
q-25 0 -75 -17t-77 -17q-64 0 -64 39q0 22 22 37q19 14 42 14h287q51 0 51 -58z" />
    <glyph glyph-name="K" unicode="K" horiz-adv-x="1241" 
d="M1245 186q0 -56 -136 -133q-128 -73 -194 -73q-26 0 -37.5 43t-33.5 130q-42 161 -77 279q-11 39 -36 115q-18 47 -49 47q-72 0 -297 -115q0 -125 5 -272l4 -127q0 -5 1 -14v0q0 -50 -24 -63q-15 -9 -68 -9q-55 0 -55 59q0 101 8 304.5t8 304.5q0 81 1 242t1 241
q0 24 -39 24q-24 0 -71.5 -12t-71.5 -12q-57 0 -57 43q0 39 51 39h268q53 0 53 -58q0 -8 -10 -210t-10 -314v-61q299 396 436 620q29 47 51 47q68 0 68 -63q0 -31 -45 -84q-292 -341 -453 -537q323 121 338 121q48 0 70 -82q33 -126 109 -376q12 -40 42 -115q13 -27 29 -27
q27 0 99 64.5t94 64.5q28 0 28 -31z" />
    <glyph glyph-name="L" unicode="L" horiz-adv-x="1167" 
d="M1100 426q0 -14 -13 -167q-3 -59 -16 -175q-14 -80 -96 -80q-35 0 -105.5 -3t-105.5 -3q-26 0 -449 6q-45 1 -54 23q-5 12 -5 34q0 5 7 176l13 336q19 506 19 568q0 28 -27 28q-28 0 -85 -15t-87 -15q-55 0 -55 41q0 47 63 47h246q90 0 90 -58q0 -136 -24.5 -572.5
t-24.5 -522.5q0 -17 19 -17q60 0 179 8.5t179 8.5q32 0 96.5 -4t96.5 -4q40 0 40 47q0 48 -4 143t-4 143q0 70 64 70q15 0 29 -14t14 -29z" />
    <glyph glyph-name="M" unicode="M" horiz-adv-x="1681" 
d="M885 184q59 -140 59 -149q0 -21 -22 -29q-62 -22 -88 -22q-18 0 -27 22l-111 303q-132 348 -270 658h-6q-100 -318 -158 -623q-14 -84 -41 -250q-16 -100 -59 -100q-68 0 -68 51q0 60 86 358q94 326 209 631q-55 132 -55 137q0 21 49 39q41 15 68 15q32 0 57 -66
q31 -89 94 -266q131 -362 238 -612q143 361 334 770q-27 75 -27 108q0 62 115 62q27 0 41 -58q19 -100 59 -299q103 -497 194 -792q3 -11 11 -33q1 -21 -23 -29q-62 -22 -88 -22t-37 39q-6 30 -18 89q-53 262 -199 853h-8q-146 -323 -309 -785z" />
    <glyph glyph-name="N" unicode="N" horiz-adv-x="1251" 
d="M1044 1036q0 -158 -10 -473t-10 -473q0 -106 -23 -106q-22 0 -57 55q-51 81 -155 242q-196 291 -416 559q-43 -271 -82 -497q-14 -84 -45 -249q-23 -106 -74 -106q-41 0 -41 59q0 39 19 107q86 310 180 733q-49 59 -191 215q-39 43 -39 57q0 24 37 51q34 25 60 25
q29 0 61 -35q60 -66 228 -285q241 -314 483 -684v146q0 121 -16 435l-12 211q1 33 -5 97q-1 103 49 103q59 0 59 -187z" />
    <glyph glyph-name="O" unicode="O" horiz-adv-x="1264" 
d="M1180 557q0 -249 -150 -415q-156 -171 -403 -171q-274 0 -424 188q-119 150 -119 343q0 313 174 530q169 211 389 211q229 0 387 -222q146 -205 146 -464zM1022 557q0 307 -153 491q-118 142 -226 142q-146 0 -270 -189q-131 -200 -131 -479q0 -209 91 -340
q105 -151 306 -151q189 0 295 176q88 147 88 350z" />
    <glyph glyph-name="P" unicode="P" horiz-adv-x="1124" 
d="M1036 758q0 -202 -95 -332q-106 -145 -302 -145q-115 0 -172 35q-45 28 -45 53q0 32 35 32q10 0 67.5 -34.5t114.5 -34.5q88 0 160 95q88 116 88 323q0 196 -122 315t-319 119q-109 0 -198 -71q-33 -26 -124 -131q-61 -71 -104 -71q-55 0 -55 45q0 79 147 175
q166 108 369 108q224 0 392 -151q163 -147 163 -330zM403 905q0 -7 -9 -134.5t-9 -238.5q0 -151 6 -313l6 -153q5 -72 -51 -72h-37q-67 0 -67 67q0 3 8 149t8 247v454q0 82 61 82h37q47 0 47 -88z" />
    <glyph glyph-name="Q" unicode="Q" horiz-adv-x="1288" 
d="M1223 346q0 -77 -58 -248q-25 -72 -73 -96q-37 -18 -119 -18q-153 0 -373 84q-142 -84 -264 -84q-72 0 -121 28q-61 35 -61 101q0 73 60 111q51 32 128 32q104 0 289 -70q223 217 223 557q0 180 -106 311q-113 140 -289 140q-167 0 -251 -88q-54 -57 -54 -105
q0 -49 11 -146t11 -146q0 -66 -51 -66q-59 0 -59 64q0 138 12 249q17 152 132 229q102 68 263 68q248 0 392 -123q153 -132 153 -376q0 -339 -299 -600q310 -107 350 -107q37 0 37 64q0 182 10 213q23 71 66 71q41 0 41 -49zM526 104q-161 70 -215 70q-94 0 -94 -68
q0 -31 43 -51q35 -16 70 -16q106 0 196 65z" />
    <glyph glyph-name="R" unicode="R" horiz-adv-x="1286" 
d="M1290 178q0 -54 -104.5 -130.5t-163.5 -76.5q-93 0 -211 144q-76 93 -137 151q-49 -16 -111 -16q-160 0 -160 84q0 80 156 80q77 0 166 -49q158 107 158 385q0 193 -127 318.5t-320 125.5q-126 0 -220 -63q-53 -35 -122 -116q-52 -63 -78 -63q-51 0 -51 39q0 68 131 156
q155 104 363 104q236 0 410 -157q171 -154 171 -357q0 -274 -241 -422q86 -65 160 -155l42 -54q53 -63 68 -63q29 0 90 88t90 88q41 0 41 -41zM387 913q0 -7 -12.5 -254.5t-12.5 -359.5q0 -59 7.5 -143.5t7.5 -89.5q0 -72 -47 -72h-35q-70 0 -70 67q0 4 10.5 228t10.5 325
q0 57 -2 171t-2 171q0 48 51 48h59q35 0 35 -91zM635 309q-71 47 -127 47q-49 0 -49 -22q0 -39 92 -39q41 0 84 14z" />
    <glyph glyph-name="S" unicode="S" horiz-adv-x="1165" 
d="M1055 827q0 -65 -54 -65q-67 0 -67 96q0 41 3 123t3 123q0 29 -66 58q-74 32 -194 32q-201 0 -338 -71q-174 -90 -174 -273q0 -148 258 -246l238 -90q235 -89 235 -276q0 -128 -124 -202q-105 -63 -243 -63q-189 0 -293 41q-92 36 -92 78q0 49 54 49q29 0 104 -35
q144 -67 254 -67q85 0 150 37q79 45 79 123q0 74 -53 118q-35 30 -157 76q-277 106 -346 147q-197 119 -197 294q0 148 131 265q173 154 508 154q284 0 315 -112q66 -239 66 -314z" />
    <glyph glyph-name="T" unicode="T" horiz-adv-x="1423" 
d="M1425 1001q0 -24 -20 -24q-16 0 -53 14q-437 166 -766 166q-342 0 -490 -90q-98 -60 -98 -129q0 -45 59 -86q85 -59 287 -59q101 0 188 18q48 10 56 10q24 0 24 -14q0 -13 -22 -29q-117 -84 -324 -84q-202 0 -297 79q-69 57 -69 126q0 140 229 245q233 107 571 107
q169 0 342 -32q224 -42 310 -119q73 -66 73 -99zM850 1004q0 5 -13.5 -195t-13.5 -291q0 -78 3 -234.5t3 -234.5q0 -27 -24.5 -44t-52.5 -17q-78 0 -78 67q0 79 13 235.5t13 235.5q0 72 2.5 215t2.5 215q0 65 36 82q53 25 82 25q27 0 27 -59z" />
    <glyph glyph-name="U" unicode="U" horiz-adv-x="1370" 
d="M1133 1147q0 -79 -6.5 -236.5t-6.5 -236.5q0 -103 3 -309.5t3 -309.5q0 -18 -14 -36.5t-46 -20.5q30 2 -54 2q-45 0 -45 45q0 25 7 181l38 829q1 26 -11 26q-38 0 -90 -157q-117 -350 -233 -631q-128 -309 -264 -309q-148 0 -148 157q0 167 5 500t5 500q0 30 -26 30
q-9 0 -125.5 -17t-159.5 -17t-43 45t66 45h364q72 0 72 -78q0 -171 -15.5 -522t-15.5 -400q0 -149 53 -149q92 0 209 336q60 174 213 577q94 248 187 248q78 0 78 -92z" />
    <glyph glyph-name="V" unicode="V" horiz-adv-x="1233" 
d="M1161 1204q0 -22 -14 -59q-7 -20 -184 -464l-232 -583q-49 -118 -102 -118q-64 0 -97 81q-67 162 -156 511q-29 113 -89 357q-12 54 -40 161q-15 51 -32 51q-8 0 -20 -13q-45 -49 -136 -124q-109 -91 -141 -91q-41 0 -41 29q0 30 29 59q39 39 258 179q99 63 141 63
q62 0 78 -76q12 -66 38 -197q70 -343 151 -613q45 -152 73 -226q8 -20 17 -20q7 0 22 36q122 290 338 1002q27 90 53 90q86 0 86 -35z" />
    <glyph glyph-name="W" unicode="W" horiz-adv-x="1849" 
d="M1702 950q0 -460 -147 -722q-137 -244 -355 -244q-138 0 -193 79q-46 65 -46 211q0 157 14 486l13 304q1 8 1 7q0 27 -6 27q-14 0 -65 -178q-88 -303 -183 -549q-150 -387 -323 -387q-138 0 -138 174q0 164 12.5 490.5t12.5 490.5q0 32 -27 32q-6 0 -63 -10
q-138 -24 -197 -24q-65 0 -65 43q0 19 24 34q21 13 41 13h363q74 0 74 -78q0 -176 -27 -532l-18 -251q-9 -126 -9 -155q0 -154 54 -154q34 0 95 78q66 85 120 217q18 44 84 234q74 214 110 352q79 301 199 301q67 0 67 -104q0 -147 -21.5 -440.5t-21.5 -440.5
q0 -102 32 -141q36 -43 136 -43q179 0 273 217q73 166 73 372q0 47 -15 277t-19 238q-1 67 59 67t76 -123q6 -43 6 -168z" />
    <glyph glyph-name="X" unicode="X" horiz-adv-x="1204" 
d="M1157 1219q0 -26 -37 -60q-260 -238 -471 -483l293 -541q19 -35 19 -72q0 -24 -23 -46.5t-47 -22.5q-58 0 -92 74q-132 288 -244 501q-246 -294 -399 -520q-51 -76 -64 -76q-26 0 -26 25q0 110 438 670q-74 141 -228 409q-30 47 -49 47q-15 0 -106 -125t-133 -125
q-45 0 -45 37q0 71 243 265q76 61 123 61q36 0 78 -78l205 -381q233 285 377 408q77 65 147 65q41 0 41 -32z" />
    <glyph glyph-name="Y" unicode="Y" horiz-adv-x="1311" 
d="M1116 1149q0 -18 -8 -159l-35 -643q-8 -157 -8 -179q0 -114 5 -287l5 -166q1 -23 -12 -44q-15 -25 -45 -28q8 1 -57 1q-50 0 -50 49q0 243 37 768l26 376q11 170 11 199q0 39 -12 39q-20 0 -74 -133q-146 -363 -272 -659q-77 -181 -122 -234q-53 -63 -124 -63
q-66 0 -103 49q-34 44 -34 112q0 21 7 133q38 654 38 824q0 67 -27 67q-9 0 -63 -12q-141 -31 -217 -31q-45 0 -45 46q0 24 48 40q39 13 70 13h279q98 0 98 -76q0 -100 -26 -495l-19 -295q-8 -129 -8 -162q0 -136 45 -136q43 0 131 224q118 301 192 476q158 372 217 434
q40 42 93 42q26 0 44 -33q15 -29 15 -57z" />
    <glyph glyph-name="Z" unicode="Z" horiz-adv-x="1143" 
d="M1165 39q0 -35 -28 -33q1 -1 1 -0.5t-2 0.5h-5l-138 3q-154 3 -325 3q-43 0 -486 -12q-47 -1 -47 20q0 12 5.5 26t103.5 174q74 120 215 347l200 321q37 61 115 181q25 36 25 51q0 31 -256 31q-9 0 -334 2q-59 0 -59 -57v-293q0 -84 -41 -84q-54 0 -54 82q0 21 15 137
q9 77 30 231q3 20 20 50q14 10 58 10q62 0 186.5 -6t186.5 -6q60 0 180 3t180 3q90 0 90 -33q0 -23 -28 -66q-635 -980 -635 -1046q0 -10 18 -10q6 0 173.5 19t238.5 19q203 0 308 -18q89 -15 89 -31v-18z" />
    <glyph glyph-name="bracketleft" unicode="[" horiz-adv-x="678" 
d="M600 -301q0 -61 -133 -61h-223q-58 0 -58 51q0 130 6.5 389t6.5 389q0 125 -4.5 375t-4.5 375q0 59 74 59h238q82 0 82 -49q0 -45 -43 -45q-36 0 -106 17.5t-93 17.5q-27 0 -27 -35v-601q0 -40 11.5 -396.5t11.5 -454.5q0 -25 20 -25q30 0 86.5 14.5t75.5 14.5
q80 0 80 -35z" />
    <glyph glyph-name="backslash" unicode="\" horiz-adv-x="877" 
d="M772 -96q0 -44 -20 -56q-12 -8 -56 -8q-33 0 -65 86q-23 65 -69 196q-69 189 -169 440l-160 406q-30 75 -85 225q-11 34 -11 58q0 52 47 52q33 0 62 -76l75 -207q160 -430 343 -845q30 -65 88 -195q20 -46 20 -76z" />
    <glyph glyph-name="bracketright" unicode="]" horiz-adv-x="678" 
d="M492 -311q0 -51 -60 -51h-221q-135 0 -135 61q0 35 82 35q18 0 74.5 -14.5t86.5 -14.5q21 0 21 25q0 98 11 455q11 354 11 392v605q0 35 -26 35q-25 0 -94 -17.5t-105 -17.5q-43 0 -43 45q0 49 82 49h238q74 0 73 -59q-6 -620 -6 -750t5.5 -389t5.5 -389z" />
    <glyph glyph-name="asciicircum" unicode="^" horiz-adv-x="625" 
d="M582 807q0 -27 -45 -27q-41 0 -129.5 100t-98.5 101q-14 -10 -109 -112q-80 -87 -108 -87q-35 0 -35 25q0 15 25 41q107 114 172 215q36 57 59 57q30 0 64 -47q60 -89 173 -224q32 -28 32 -42z" />
    <glyph glyph-name="underscore" unicode="_" horiz-adv-x="1024" 
d="M1024 -487h-1024v73h1024v-73z" />
    <glyph glyph-name="grave" unicode="`" horiz-adv-x="584" 
d="M406 764q0 -19 -27 -19q-40 0 -142 69q-106 72 -106 110q0 55 51 55q10 0 54 -45q76 -79 137 -129q33 -27 33 -41z" />
    <glyph glyph-name="a" unicode="a" 
d="M608 334v-264q0 -55 -21 -67q-11 -7 -71 -7q-34 0 -41 90q-135 -100 -244 -100q-68 0 -110.5 43.5t-42.5 111.5q0 153 133 224q91 49 270 67q0 96 -9 125q-21 64 -95 64q-71 0 -106 -49q-13 -18 -38 -91q-17 -49 -45 -49q-57 0 -57 66q0 81 77 131q67 45 152 45
q248 0 248 -340zM195 188q0 -120 104 -120q87 0 174 82q8 63 8 237q-286 -48 -286 -199z" />
    <glyph glyph-name="b" unicode="b" horiz-adv-x="707" 
d="M633 434q0 -171 -71 -296q-86 -152 -245 -152q-198 0 -198 145q0 170 17.5 510t17.5 510q0 20 -19 20q-25 0 -74.5 -18t-74.5 -18q-43 0 -43 36q0 25 31 42q25 14 53 14h198q51 0 51 -58q0 -94 -6 -281.5t-6 -281.5q75 56 150 56q219 0 219 -228zM498 375q0 231 -113 231
q-67 0 -131 -86q-10 -234 -10 -221q0 -156 2 -174q9 -82 104 -82q148 0 148 332z" />
    <glyph glyph-name="c" unicode="c" horiz-adv-x="694" 
d="M608 172q0 -42 -56 -106q-72 -82 -177 -82q-90 0 -175 58q-126 86 -126 263q0 161 91 261q94 104 253 104q146 0 157 -111q9 -88 9 -139q0 -74 -62 -74q-41 0 -41 86q0 23 4 70t4 71q0 17 -36 32q-31 13 -52 13q-180 0 -180 -303q0 -274 154 -274q46 0 105 83t89 83
q39 0 39 -35z" />
    <glyph glyph-name="d" unicode="d" horiz-adv-x="694" 
d="M602 1169q0 -6 -6 -129l-10 -241q-17 -364 -17 -480q0 -144 7.5 -207l7.5 -63q0 -57 -80 -57q-50 0 -58 53q-71 -59 -143 -59q-118 0 -180 109q-51 89 -51 216q0 120 60 226q71 125 181 125q75 0 148 -29q18 310 18 522q0 21 -18 21q-19 0 -58 -14.5t-59 -14.5
q-72 0 -72 51q0 29 39 29h240q51 0 51 -58zM199 299q0 -248 147 -248q49 0 98 49q15 244 15 467q-56 43 -103 43q-157 0 -157 -311z" />
    <glyph glyph-name="e" unicode="e" horiz-adv-x="653" 
d="M596 143q0 -69 -92 -118q-79 -41 -156 -41q-132 0 -207 90q-71 85 -71 219q0 162 102 270q93 99 203 99q162 0 162 -140q0 -128 -104 -217q-97 -85 -228 -90q6 -73 44 -120q43 -54 113 -54q65 0 124 67.5t67 67.5q43 0 43 -33zM416 555q0 57 -37 57q-87 0 -138 -99
q-42 -81 -42 -177q0 -25 4 -70q99 17 158 104q55 80 55 185z" />
    <glyph glyph-name="f" unicode="f" horiz-adv-x="549" 
d="M672 956q0 -53 -43 -53q-41 0 -108 139.5t-136 139.5q-53 0 -66 -122q-4 -33 -4 -161q0 -180 -2 -260q65 0 90 2l138 12q57 0 57 -41q0 -43 -96 -43q-31 0 -93 7.5t-94 7.5q0 -89 4.5 -266.5t4.5 -266.5q0 -40 -30 -48q-9 -3 -63 -3q-49 0 -49 55q0 316 6 527
q-24 0 -71.5 -7.5t-67.5 -7.5q-35 0 -35 29q0 45 84 45h90q7 111 7 205q0 178 57 285.5t149 107.5q64 0 167.5 -109t103.5 -174z" />
    <glyph glyph-name="g" unicode="g" horiz-adv-x="766" 
d="M653 596q0 -101 -9 -303t-9 -303q0 -68 4 -205t4 -205q0 -76 -70 -76q-33 0 -141 42q-98 38 -143 63q-58 32 -58 59q0 43 62 43q33 0 111 -62.5t98 -62.5t20 39q0 70 -2 211t-2 211q-84 -67 -180 -67q-122 0 -196 81q-72 78 -72 201q0 157 69 273q83 139 230 139
q96 0 168 -58q36 41 61 41q55 0 55 -61zM526 522q-36 96 -141 96q-98 0 -145 -115q-35 -84 -35 -198q0 -258 178 -258q30 0 74 29q40 27 59 55q10 92 10 391z" />
    <glyph glyph-name="h" unicode="h" horiz-adv-x="739" 
d="M614 72q0 -80 -67 -80q-70 0 -70 76q0 68 5 205t5 206q0 121 -59 121q-82 0 -158 -63q-6 -50 -6 -203q0 -43 3 -129t3 -129q0 -59 -26 -74q-15 -8 -80 -8q-31 0 -31 41q0 145 8 348q17 430 17 766q0 20 -17 20q-25 0 -75 -17t-76 -17q-62 0 -62 36q0 23 23 39.5t47 16.5
h231q60 0 60 -58q0 -93 -9.5 -278.5t-9.5 -278.5q26 5 87 32q50 22 98 22q149 0 149 -172q0 -70 5 -211t5 -211z" />
    <glyph glyph-name="i" unicode="i" horiz-adv-x="459" 
d="M416 1206q0 -20 -47 -135q-30 -76 -61 -151q-26 -72 -62 -72q-27 0 -27 26q0 65 55 273q24 92 72 92h41q29 0 29 -33zM344 49q0 -57 -80 -57q-63 0 -63 47v126q0 69 9 208.5t9 208.5q0 20 -18 20q-21 0 -62.5 -15.5t-62.5 -15.5q-51 0 -51 39q0 47 96 47h145q70 0 70 -41
q0 -55 -4 -164.5t-4 -164.5q0 -129 4 -166q1 -9 7 -36q5 -23 5 -36z" />
    <glyph glyph-name="j" unicode="j" horiz-adv-x="473" 
d="M426 1198q0 -22 -92 -276q-25 -70 -60 -70q-30 0 -30 25q0 12 10 57q14 65 31 203q11 94 71 94h41q29 0 29 -33zM346 616q0 -21 -12 -261.5t-12 -780.5q0 -38 -13.5 -47.5t-54.5 -9.5q-45 0 -61.5 15.5t-16.5 59.5q0 180 10 316l30 423q13 199 13 253q0 20 -18 20
q-24 0 -72.5 -16.5t-72.5 -16.5q-52 0 -52 39q0 47 97 47h165q70 0 70 -41z" />
    <glyph glyph-name="k" unicode="k" horiz-adv-x="809" 
d="M885 119q0 -35 -35.5 -52t-124.5 -46q-95 -31 -119 -31q-32 0 -49 39q-8 19 -44 171q-13 57 -38 171q-7 32 -31 32q-99 0 -186 -34q0 -50 2 -155t2 -157q0 -45 -33 -57q-16 -6 -71 -6q-31 0 -31 41q0 95 20.5 575.5t20.5 538.5q0 20 -16 20q-22 0 -75.5 -15t-80.5 -15
q-45 0 -45 39q0 49 69 49h213q52 0 52 -58q0 -68 -7 -175q-9 -146 -10 -175q-6 -148 -6 -336q13 9 135 140q100 108 144 108q28 0 28 -20q0 -57 -274 -265q-21 -16 -29 -28q22 0 56 14q106 43 176 43q64 0 84 -53q6 -16 44 -163q15 -53 40 -161q7 -37 24 -37q22 0 81.5 41
t80.5 41q33 0 33 -24z" />
    <glyph glyph-name="l" unicode="l" horiz-adv-x="406" 
d="M37 1227h182q80 0 80 -53q0 -70 -10 -189q-13 -155 -13 -383v-553q0 -36 -16 -47q-12 -8 -51 -8q-44 0 -60 15.5t-16 58.5q0 424 21 786q10 172 10 295q0 20 -17 20q-28 0 -83 -18t-84 -18q-54 0 -54 43q0 51 111 51z" />
    <glyph glyph-name="m" unicode="m" horiz-adv-x="1206" 
d="M1083 74q0 -51 -24 -68q-19 -14 -70 -14q-34 0 -42 20q-3 8 -3 49v0v1v5l2 25l5 122q7 156 7 296q0 82 -102 82q-77 0 -154 -88q11 -236 11 -432q0 -56 -25 -70q-15 -8 -76 -8q-41 0 -41 53q0 70 9.5 211t9.5 211q0 125 -86 125q-44 0 -95 -37q-47 -34 -71 -76v-30
q-1 -69 5 -201q5 -137 5 -201q0 -57 -78 -57q-67 0 -67 47q0 90 8 269.5t8 269.5q0 20 -31 20q-22 0 -66 -13.5t-67 -13.5q-51 0 -51 39q0 47 96 47h176q52 0 61 -33q1 -5 1 -75q96 117 192 117q69 0 102 -24t56 -89q98 113 199 113q121 0 166 -100q30 -67 30 -206v-286z
" />
    <glyph glyph-name="n" unicode="n" horiz-adv-x="821" 
d="M696 70q0 -55 -26 -69q-14 -7 -76 -7q-37 0 -37 51q0 71 8 212t8 212q0 125 -84 125q-96 0 -149 -107v-52q-1 -68 3 -194q3 -133 3 -194q0 -57 -78 -57q-67 0 -67 47q0 195 14 399q5 67 5 115q0 55 -23 55q-17 0 -62.5 -17.5t-68.5 -17.5q-52 0 -52 39q0 47 97 47h161
q42 0 55 -23q9 -16 9 -61q96 93 178 93q97 0 138 -65q35 -55 43 -257q1 -35 1 -274z" />
    <glyph glyph-name="o" unicode="o" horiz-adv-x="723" 
d="M666 346q0 -146 -76 -248q-83 -112 -225 -112q-139 0 -219 103q-72 94 -72 237q0 137 80 233q85 103 219 103q293 0 293 -316zM528 401q0 211 -157 211q-83 0 -124 -108q-30 -78 -30 -178q0 -122 19 -180q33 -101 129 -101q163 0 163 356z" />
    <glyph glyph-name="p" unicode="p" horiz-adv-x="805" 
d="M733 330q0 -171 -92 -267q-74 -77 -160 -77q-60 0 -168 63q-2 -80 -2 -479q0 -39 -14 -48t-53 -9q-45 0 -62.5 15.5t-17.5 59.5q0 -1 13 228l42 766q1 20 -18 20q-29 0 -80.5 -15.5t-77.5 -15.5q-51 0 -51 45q0 41 92 41h182q70 0 70 -61q90 72 178 72q113 0 172 -119
q47 -93 47 -219zM602 354q0 250 -125 250q-50 0 -143 -67q-6 -125 -17 -420q67 -64 123 -64q90 0 132 112q30 80 30 189z" />
    <glyph glyph-name="q" unicode="q" horiz-adv-x="764" 
d="M784 -436q0 -47 -86 -47h-161q-50 0 -50 59q0 7 7.5 183t7.5 284q-94 -57 -174 -57q-118 0 -190 100q-64 90 -64 213q0 152 63 254q75 121 219 121q102 0 164 -80q0 68 39 68h76q20 0 20 -41q0 -139 -30 -596q-15 -228 -15 -433q0 -20 19 -20q18 0 54.5 16.5t55.5 16.5
q45 0 45 -41zM209 274q0 -109 28 -158q38 -69 142 -69q75 0 125 64q10 122 10 403q-53 102 -125 102q-99 0 -147 -130q-33 -91 -33 -212z" />
    <glyph glyph-name="r" unicode="r" horiz-adv-x="731" 
d="M686 430q0 -63 -45 -63q-43 0 -54 45q-1 2 -6 81q-3 43 -3 62q0 33 -43 33t-112 -57q-58 -48 -89 -95q0 -62 2 -184.5t2 -183.5q0 -80 -76 -80q-72 0 -69 47q22 361 22 543q0 20 -29 20q-23 0 -69 -13.5t-70 -13.5q-53 0 -53 39q0 47 112 47h166q65 0 65 -68
q0 -10 -1.5 -32t-1.5 -33q162 144 241 144q50 0 70 -52q41 -104 41 -186z" />
    <glyph glyph-name="s" unicode="s" horiz-adv-x="721" 
d="M637 438q0 -53 -43 -53q-40 0 -49 48q-1 4 -4 80q-2 50 -2 62q0 35 -123 35q-85 0 -153 -29q-89 -38 -89 -112q0 -67 148 -111l120 -36q152 -46 152 -166q0 -77 -78 -127q-69 -43 -151 -43q-230 0 -230 84q0 47 41 47q15 0 81.5 -37t117.5 -37q121 0 121 80q0 45 -109 81
q-167 55 -202 74q-109 61 -109 166t118 174q89 52 226 52q117 0 156 -47q24 -29 55 -154q6 -24 6 -31z" />
    <glyph glyph-name="t" unicode="t" horiz-adv-x="537" 
d="M350 1126q0 3 -11 -190.5t-13 -296.5h47q27 0 81 9t81 9q47 0 47 -34q0 -41 -114 -49q-11 -1 -142 -1l6 -522q0 -40 -29 -48q-9 -3 -63 -3q-50 0 -50 55q0 53 19 523q-139 -9 -162 -9q-41 0 -41 27q0 20 30 34q25 11 48 11h125q4 147 4 463q0 82 39 82h63q35 0 35 -60z
" />
    <glyph glyph-name="u" unicode="u" horiz-adv-x="813" 
d="M682 199q0 -83 8 -115q10 -40 10 -45q0 -22 -40 -36q-31 -11 -58 -11q-31 0 -40 27q-3 11 -3 53q-32 -31 -85 -57q-58 -29 -97 -29q-197 0 -197 204v-1v2v2l1 10l4 55l14 219q2 31 2 107q0 20 -17 20q-26 0 -73.5 -19.5t-71.5 -19.5q-53 0 -53 41q0 51 96 51h182
q70 0 70 -41q0 -138 -15 -327q-6 -75 -6 -121q0 -113 88 -113q94 0 156 90q0 28 -4 445q-1 82 106 82q35 0 35 -39q0 -72 -6 -217t-6 -217z" />
    <glyph glyph-name="v" unicode="v" horiz-adv-x="852" 
d="M764 633q0 -97 -127 -367q-132 -282 -201 -282q-23 0 -47 69q-75 219 -180 467q-14 33 -23 33q-28 0 -85.5 -75t-90.5 -75q-43 0 -43 39q0 42 133 136q127 90 164 90q35 0 53 -58q52 -167 80 -246q47 -135 95 -241q96 127 159 469q15 82 72 82q41 0 41 -41z" />
    <glyph glyph-name="w" unicode="w" horiz-adv-x="1137" 
d="M1026 440q0 -456 -254 -456q-193 0 -203 192q-87 -190 -223 -190q-96 0 -133 58q-29 47 -29 149q0 65 9.5 195.5t9.5 195.5q0 20 -17 20q-25 0 -73.5 -18.5t-73.5 -18.5q-53 0 -53 43q0 47 96 47h205q51 0 51 -45q0 -19 -13.5 -207t-13.5 -233q0 -113 78 -113
q49 0 102 78q19 28 46 87q30 65 30 89v236q0 117 80 117q41 0 50 -66q1 -9 1 -96q0 -62 -6 -186.5t-6 -186.5q0 -80 109 -80q139 0 139 268q0 44 -6 131.5t-6 131.5q0 88 55 88q49 0 49 -60v-170z" />
    <glyph glyph-name="x" unicode="x" horiz-adv-x="782" 
d="M743 623q0 -41 -117 -137q-133 -109 -151 -140q43 -93 137 -227q27 -39 27 -68q0 -57 -59 -57q-36 0 -82 74q-57 91 -109 188q-69 -71 -166 -231q-26 -43 -47 -43q-41 0 -41 34q0 60 211 310l-102 194q-26 49 -47 49q-28 0 -91.5 -76.5t-80.5 -76.5q-11 0 -21 13.5
t-10 25.5q0 31 26 59q37 40 122 97q95 63 134 63q40 0 160 -252q15 14 45 55q38 52 97 113q79 80 110 80q18 0 36.5 -14.5t18.5 -32.5z" />
    <glyph glyph-name="y" unicode="y" horiz-adv-x="805" 
d="M700 602v0v-2l-1 -7l-3 -36l-13 -179q-17 -231 -17 -370q0 -73 3 -219t3 -219q0 -57 -78 -57q-53 0 -53 75q0 81 8 244t8 244q-105 -90 -201 -90q-102 0 -143 54q-35 47 -35 153q0 64 10.5 192.5t10.5 192.5q0 20 -17 20q-24 0 -69 -13.5t-68 -13.5q-65 0 -65 45
q0 41 79 41h205q70 0 70 -41q0 -45 -8 -147q-15 -192 -15 -297q0 -109 90 -109q85 0 154 89q12 178 12 440q0 72 54 72h41q38 0 38 -62z" />
    <glyph glyph-name="z" unicode="z" horiz-adv-x="727" 
d="M666 66q0 -31 -33 -50q-28 -16 -62 -16q-26 0 -78.5 4t-78.5 4q-40 0 -119 -7t-119 -7q-45 0 -45 29q0 10 8 22q37 55 110 168q113 182 218 385q-90 -12 -150 -12q-20 0 -59 3t-59 3q-23 0 -23 -29q0 -23 5 -69.5t5 -69.5q0 -88 -67 -88q-29 0 -29 33q0 38 7 112.5
t7 112.5q0 61 72 61q31 0 93 -1t93 -1q68 0 155 6.5t83 6.5q35 0 35 -17t-31 -63q-108 -160 -301 -525q101 10 205 35q71 17 106 17q52 0 52 -47z" />
    <glyph glyph-name="braceleft" unicode="{" horiz-adv-x="678" 
d="M627 1235q0 -41 -103 -41q-107 0 -168 -68q-57 -65 -57 -174q0 -52 49 -174t49 -157q0 -124 -102 -203q90 -38 90 -127q0 -57 -52 -186.5t-52 -200.5q0 -134 168 -180q145 -40 145 -66q0 -49 -68 -49q-113 0 -226 108q-126 120 -126 275q0 88 30 178q6 20 66 168
q0 51 -49 51q-11 0 -33.5 -5t-33.5 -5q-48 0 -48 39q0 43 39 43q11 0 34 -2t34 -2q25 0 42 35q15 29 15 57q0 36 -44 137.5t-44 190.5q0 176 151 311q123 110 216 110q78 0 78 -63z" />
    <glyph glyph-name="bar" unicode="|" horiz-adv-x="877" 
d="M449 1434q0 -137 -7.5 -410t-7.5 -410q0 -168 6 -504.5t6 -504.5q0 -34 -12 -67q-16 -42 -45 -42q-74 0 -74 103q0 78 14 463q13 372 13 565l2 821q0 96 51 96q54 0 54 -110z" />
    <glyph glyph-name="braceright" unicode="}" horiz-adv-x="678" 
d="M571 418q0 -39 -47 -39q-11 0 -33.5 5t-33.5 5q-50 0 -49 -51q60 -148 66 -168q30 -90 30 -178q0 -155 -125 -275q-112 -108 -225 -108q-70 0 -70 49q0 26 145 66q168 46 168 180q0 71 -52 200.5t-52 186.5q0 89 90 127q-102 82 -102 203q0 35 49 157t49 174
q0 109 -59 175.5t-166 66.5q-103 0 -103 45q0 59 78 59q93 0 216 -110q151 -135 151 -311q0 -89 -44 -190.5t-44 -137.5q0 -29 14 -57q17 -35 43 -35q11 0 33.5 2t33.5 2q39 0 39 -43z" />
    <glyph glyph-name="asciitilde" unicode="~" horiz-adv-x="817" 
d="M698 432q0 -47 -41 -96q-57 -68 -157 -68q-76 0 -158.5 65.5t-95.5 65.5q-25 0 -25 -28q0 -11 4 -33t4 -33q0 -45 -45 -45q-47 0 -47 39q0 69 44 117.5t112 48.5q60 0 140.5 -61.5t109.5 -61.5q43 0 59 64.5t57 64.5q39 0 39 -39z" />
    <glyph glyph-name="exclamdown" unicode="&#xa1;" horiz-adv-x="516" 
d="M344 575q0 -44 -24 -85q-27 -48 -68 -48q-74 0 -74 123q0 42 21 72q23 35 63 35q82 0 82 -97zM338 -594q0 -127 -70 -127h-41q-55 0 -55 78q0 8 14 166l47 515q9 96 9 112q0 21 -5.5 61.5t-5.5 60.5q0 43 27 43q47 0 47 -67q0 -58 14 -256q19 -268 19 -586z" />
    <glyph glyph-name="cent" unicode="&#xa2;" horiz-adv-x="758" 
d="M639 414q0 -52 -39 -52q-47 0 -57 89q-3 64 -6 127q-6 38 -93 40l-4 -325q0 -42 1 -125.5t1 -124.5q53 7 114 70q58 61 81 61q37 0 37 -41q0 -32 -58 -81q-72 -61 -174 -66l4 -320q1 -55 -47 -55q-43 0 -43 70q0 81 13 303q-134 17 -209.5 101.5t-75.5 219.5
q0 137 79 238q83 105 216 123q0 34 -1 101t-1 101q0 41 33 41q34 0 34 -88v-151q121 -6 144 -76q51 -154 51 -180zM379 616q-148 -33 -148 -301q0 -87 31 -157q37 -86 109 -109q8 152 8 262v305z" />
    <glyph glyph-name="sterling" unicode="&#xa3;" horiz-adv-x="1114" 
d="M1032 309q0 -59 -61 -231q-21 -60 -79 -79q-35 -11 -116 -11q-160 0 -383 92q-58 -88 -188 -88q-160 0 -160 127q0 63 55 97q46 28 113 28q87 0 162 -33q0 107 -17 192q-27 0 -81 -6t-78 -6q-64 0 -64 37q0 53 62 53q26 0 77.5 -2t77.5 -2q-14 158 -14 185q0 196 96 316
q105 130 295 130q92 0 159 -29q23 -10 34 -17q22 -14 24 -28q12 -87 12 -145q0 -160 -63 -160q-41 0 -41 80q0 30 18.5 102.5t18.5 73.5q0 33 -54 50q-39 12 -81 12q-161 0 -224 -97q-51 -78 -51 -250q0 -38 13 -229q129 6 172 6q125 0 125 -37q0 -39 -56 -39q-29 0 -86 6.5
t-86 6.5q-41 0 -69 -8q0 -114 -54 -209q106 -48 213 -96q124 -48 226 -48q45 0 45 62v174q0 84 71 84q37 0 37 -64zM336 111q-78 43 -154 43q-71 0 -71 -52q0 -61 88 -61q102 0 137 70z" />
    <glyph glyph-name="currency" unicode="&#xa4;" horiz-adv-x="838" 
d="M784 713q0 -10 -10 -21q-21 -22 -121 -110q49 -75 49 -201q0 -135 -67 -229q43 -40 96 -72q35 -21 35 -39t-22.5 -34.5t-41.5 -16.5q-14 0 -116 108q-74 -61 -172 -61q-107 0 -185 72q-38 -41 -102 -129q-19 -33 -31 -33q-18 0 -41.5 23.5t-23.5 41.5q0 16 155 148
q-51 82 -51 202q0 117 60 201q-57 62 -101 88q-31 18 -31 35q0 20 21 45t41 25q14 0 123 -133q71 61 174 61q118 0 188 -53q28 30 72 104q20 34 36 34q22 0 44 -17.5t22 -38.5zM602 430q0 180 -182 180q-90 0 -138 -82q-40 -67 -40 -163q0 -114 27 -167q40 -77 145 -77
q188 0 188 309z" />
    <glyph glyph-name="yen" unicode="&#xa5;" horiz-adv-x="1092" 
d="M457 618q-121 193 -199 328q-20 35 -29 35q-27 0 -85.5 -89.5t-99.5 -89.5q-44 0 -44 40q0 44 137 160q133 112 166 112q43 0 66 -57q63 -156 247 -473q101 133 143 207q58 102 95 237q21 75 78 75q54 0 54 -43q0 -53 -103 -219q-82 -131 -146 -212q17 1 76 6q48 4 76 4
q29 0 36 -20q3 -8 3 -44q0 -32 -43 -32q-30 0 -101 1q-65 1 -102 1q-51 0 -51 -80v-109l162 12q95 7 98 7q30 0 38 -18q3 -9 3 -44q0 -32 -43 -32q1 -1 1 -0.5t-1 0.5h-11l-53 1q-72 1 -174 1h-18l4 -234q0 -27 -25 -44t-53 -17q-78 0 -78 67v-1v2v1l1 9l3 41l11 172
q-176 -5 -178 -5q-56 0 -56 39q0 43 51 43q143 0 189 -2q6 89 6 140q0 21 -14 47l-177 -4q-61 -1 -61 38q0 43 55 43h146z" />
    <glyph glyph-name="brokenbar" unicode="&#xa6;" horiz-adv-x="877" 
d="M449 1266q0 -45 -7.5 -136t-7.5 -137t6 -138t6 -138q0 -35 -12 -67q-16 -42 -45 -42q-53 0 -53 103q0 28 3 125q5 162 5 444q0 96 51 96q54 0 54 -110zM449 301q0 -45 -7.5 -134t-7.5 -134q0 -47 6 -140.5t6 -140.5q0 -88 -57 -88q-49 0 -49 82q0 49 1 147.5t1 147.5
q0 46 -3 137t-3 137q0 97 59 97q54 0 54 -111z" />
    <glyph glyph-name="section" unicode="&#xa7;" horiz-adv-x="1165" 
d="M1071 233q0 -114 -88.5 -228t-198.5 -140q-37 -121 -158 -181q-102 -51 -241 -51q-75 0 -151 25q-101 33 -101 92q0 72 68 72q1 0 88 -62.5t162 -62.5q80 0 149 45q78 50 78 125q0 168 -215 332q-72 55 -205 175q-135 147 -135 290q0 109 85 215t191 135q27 111 136 172
q96 53 219 53q57 0 113 -20q68 -25 85 -68q7 -17 33 -125q6 -25 6 -33q0 -59 -51 -59q-44 0 -56 46q-2 10 -5 83q-2 45 -2 61q-54 60 -132 60q-231 0 -231 -183q0 -117 144 -246q134 -112 269 -225q144 -143 144 -297zM944 139q0 197 -211 363q-77 58 -154 115
q-91 71 -135 136q-57 84 -57 181q0 13 6 29q-145 -71 -145 -236q0 -153 233 -344q198 -162 211 -176q109 -114 109 -244q0 -27 -6 -43q149 75 149 219z" />
    <glyph glyph-name="dieresis" unicode="&#xa8;" horiz-adv-x="584" 
d="M496 831q0 -67 -88 -67q-66 0 -66 88q0 92 78 92q36 0 58 -40q18 -34 18 -73zM242 844q0 -80 -66 -80q-88 0 -88 72q0 39 18 71q22 37 58 37t59 -33q19 -29 19 -67z" />
    <glyph glyph-name="copyright" unicode="&#xa9;" horiz-adv-x="1036" 
d="M918 317q0 -174 -115 -291.5t-289 -117.5q-194 0 -307 131q-94 109 -94 240q0 204 104 329q111 133 311 133q191 0 293 -118q97 -112 97 -306zM827 317q0 154 -72 248q-80 105 -229 105q-161 0 -247 -109q-78 -99 -78 -264q0 -147 89 -231q86 -82 234 -82q134 0 220 101
q83 96 83 232zM684 221q0 -30 -37 -72q-48 -55 -121 -55q-88 0 -145 62.5t-57 150.5q0 108 61.5 175t167.5 67q50 0 83.5 -29.5t33.5 -79.5q0 -59 -49 -59q-37 0 -37 59q0 7 3 20.5t3 20.5q0 19 -47 19q-107 0 -107 -187q0 -166 90 -166q25 0 63.5 52.5t61.5 52.5
q33 0 33 -31z" />
    <glyph glyph-name="ordfeminine" unicode="&#xaa;" horiz-adv-x="535" 
d="M463 772q0 -45 -18 -55q-10 -6 -58 -6q-30 0 -35 67q-101 -71 -178 -71q-50 0 -84.5 33t-34.5 83q0 193 301 221q0 69 -6 89q-14 43 -67 43q-69 0 -91.5 -52.5t-50.5 -52.5q-47 0 -47 33q0 61 60 95q50 28 116 28q193 0 193 -260v-195zM356 1004q-204 -37 -204 -142
q0 -84 73 -84q70 0 125 60q6 45 6 166z" />
    <glyph glyph-name="guillemotleft" unicode="&#xab;" horiz-adv-x="807" 
d="M743 61q0 -22 -14 -22q-11 0 -297 244q-33 28 -33 41q0 17 27 41q72 63 213 194q62 62 66 62q18 0 18 -19q0 -29 -68 -132q-60 -90 -96 -130q37 -44 105 -143q79 -115 79 -136zM408 61q0 -22 -17 -22q-14 0 -141 109q-76 67 -153 134q-36 29 -36 42q0 14 31 41
q121 105 209 194q61 62 68 62q18 0 18 -19q0 -29 -68 -132q-60 -90 -96 -130q39 -47 105 -142q80 -115 80 -137z" />
    <glyph glyph-name="logicalnot" unicode="&#xac;" horiz-adv-x="877" 
d="M756 10q0 -10 -11 -10h-53q-10 0 -10 10v271h-551q-10 0 -10 10v53q0 10 10 10h615q10 0 10 -10v-334z" />
    <glyph glyph-name="minus" unicode="&#xad;" horiz-adv-x="877" 
d="M756 291q0 -10 -10 -10h-616q-9 0 -9 10v53q0 10 10 10h615q10 0 10 -10v-53z" />
    <glyph glyph-name="minus" unicode="&#x2212;" horiz-adv-x="877" 
d="M756 291q0 -10 -10 -10h-616q-9 0 -9 10v53q0 10 10 10h615q10 0 10 -10v-53z" />
    <glyph glyph-name="registered" unicode="&#xae;" horiz-adv-x="618" 
d="M557 852q0 -107 -70 -179.5t-176 -72.5q-101 0 -173 63q-75 66 -75 166q0 124 65 200q69 79 191 79q117 0 179 -71q59 -67 59 -185zM268 823v-88q0 -26 -28 -26q-31 0 -31 24q0 23 5.5 71.5t5.5 72.5q0 57 -17 90q-1 22 21 22q12 0 34.5 1t34.5 1q131 0 131 -84
q0 -54 -47 -76q36 -35 92 -83q29 53 29 104q0 92 -44 148q-49 61 -139 61q-194 0 -194 -221q0 -88 53 -138.5t141 -50.5q77 0 125 56q-16 9 -78 72q-43 44 -94 44zM268 866h39q62 0 62 35q0 41 -70 41q-14 0 -31 -2v-74z" />
    <glyph glyph-name="macron" unicode="&#xaf;" horiz-adv-x="584" 
d="M469 846q0 -44 -41 -51q-102 -17 -248 -17q-61 0 -61 35q0 49 35 49q109 0 229 35q41 12 45 12q41 0 41 -63z" />
    <glyph glyph-name="macron" unicode="&#x2c9;" horiz-adv-x="584" 
d="M469 846q0 -44 -41 -51q-102 -17 -248 -17q-61 0 -61 35q0 49 35 49q109 0 229 35q41 12 45 12q41 0 41 -63z" />
    <glyph glyph-name="degree" unicode="&#xb0;" horiz-adv-x="584" 
d="M483 879q0 -77 -56.5 -127t-133.5 -50q-82 0 -133 46.5t-51 128.5q0 83 59.5 144.5t142.5 61.5t130 -62q42 -57 42 -142zM416 889q0 53 -30 96q-34 47 -85 47q-58 0 -91 -50q-28 -44 -28 -105q0 -117 117 -117t117 129z" />
    <glyph glyph-name="plusminus" unicode="&#xb1;" horiz-adv-x="877" 
d="M756 414q0 -11 -11 -11h-270v-245q0 -11 -10 -11h-53q-11 0 -11 11v245h-270q-10 0 -10 11v53q0 10 10 10h270v246q0 10 11 10h53q10 0 10 -10v-246h270q11 0 11 -10v-53zM756 10q0 -10 -10 -10h-616q-9 0 -9 10v54q0 10 10 10h614q11 0 11 -11v-53z" />
    <glyph glyph-name="twosuperior" unicode="&#xb2;" horiz-adv-x="545" 
d="M514 768q0 -61 -55 -61q-37 0 -110 4t-109 4q-19 0 -57.5 -9.5t-47.5 -9.5q-35 0 -35 25q0 27 119 190.5t119 210.5q0 72 -113 72q-82 0 -82 -41q0 -12 4.5 -36t4.5 -36q0 -61 -48 -61q-30 0 -30 31q0 19 3 61.5t3 63.5q0 75 151 75q205 0 205 -149q0 -54 -28 -92
q-75 -101 -172 -250q144 41 247 41q31 0 31 -33z" />
    <glyph glyph-name="threesuperior" unicode="&#xb3;" horiz-adv-x="569" 
d="M506 719q0 -100 -103 -156q-84 -45 -194 -45q-35 0 -73 18q-46 21 -46 52q0 47 45 47q16 0 51 -33t80 -33q61 0 95 46q30 41 30 104q0 145 -117 145q-33 0 -59 -6q-6 -1 -25 -9.5t-24 -8.5q-33 0 -33 30q0 41 43 41q86 0 123 19q53 27 53 104q0 146 -164 146
q-38 0 -38 -43q0 -8 3 -22.5t3 -22.5q0 -41 -39 -41q-31 0 -31 43q0 81 13 104q20 37 94 37q260 0 260 -158q0 -85 -91 -153q144 -28 144 -205z" />
    <glyph glyph-name="acute" unicode="&#xb4;" horiz-adv-x="584" 
d="M471 924q0 -38 -104.5 -108.5t-145.5 -70.5q-26 0 -26 19q0 15 32 41q82 67 138 129q41 45 53 45q53 0 53 -55z" />
    <glyph glyph-name="mu" unicode="&#xb5;" horiz-adv-x="813" 
d="M287 20v-432q0 -75 -54 -75q-77 0 -77 57q0 72 13 219q13 142 13 219l-2 582q0 82 119 82q35 0 35 -39q0 -118 -15 -344q-6 -90 -6 -125q0 -109 88 -109q94 0 156 90q0 28 -4 445q-1 82 106 82q35 0 35 -39q0 -72 -6 -217t-6 -217q0 -83 8 -115q10 -40 10 -45
q0 -22 -40 -36q-31 -11 -58 -11q-31 0 -40 27q-3 11 -3 53q-32 -31 -85 -57q-58 -29 -97 -29q-52 0 -90 34z" />
    <glyph glyph-name="mu" unicode="&#x3bc;" horiz-adv-x="813" 
d="M287 20v-432q0 -75 -54 -75q-77 0 -77 57q0 72 13 219q13 142 13 219l-2 582q0 82 119 82q35 0 35 -39q0 -118 -15 -344q-6 -90 -6 -125q0 -109 88 -109q94 0 156 90q0 28 -4 445q-1 82 106 82q35 0 35 -39q0 -72 -6 -217t-6 -217q0 -83 8 -115q10 -40 10 -45
q0 -22 -40 -36q-31 -11 -58 -11q-31 0 -40 27q-3 11 -3 53q-32 -31 -85 -57q-58 -29 -97 -29q-52 0 -90 34z" />
    <glyph glyph-name="paragraph" unicode="&#xb6;" horiz-adv-x="1137" 
d="M862 -221q2 -68 -55 -68h-31q-42 0 -41 72v0v3l4 293q4 304 4 458q0 111 -7 240.5t-7 135.5q0 91 37 91h33q49 0 49 -82v-461q0 -100 14 -682zM1141 965q0 -45 -58 -45q-41 0 -102 72q-90 103 -127 132q-90 72 -201 72q-10 0 -29 -1t-28 -1v-740q0 -127 8 -382.5
t8 -382.5q0 -46 -23 -59q-15 -9 -63 -9q-41 0 -41 72q0 116 4 297q4 253 5 297q-12 -2 -33 -2q-198 0 -307 145q-97 130 -97 334q0 187 166 335q170 152 395 152q208 0 375 -109q148 -97 148 -177z" />
    <glyph glyph-name="periodcentered" unicode="&#xb7;" horiz-adv-x="653" 
d="M410 543q0 -42 -21 -72q-23 -35 -63 -35q-82 0 -82 96q0 44 23 85q26 49 67 49q76 0 76 -123z" />
    <glyph glyph-name="periodcentered" unicode="&#x2219;" horiz-adv-x="653" 
d="M410 543q0 -42 -21 -72q-23 -35 -63 -35q-82 0 -82 96q0 44 23 85q26 49 67 49q76 0 76 -123z" />
    <glyph glyph-name="cedilla" unicode="&#xb8;" horiz-adv-x="584" 
d="M436 -197q0 -82 -74 -131q-64 -43 -151 -43q-82 0 -82 49q0 37 45 37q7 0 40 -11t52 -11q34 0 55 30q19 27 19 62q0 78 -51 78q-17 0 -28 -37t-40 -37q-26 0 -26 23q0 14 6 30q27 74 39 140q7 36 39 36q24 0 24 -20t-29 -94q16 6 31 6q131 0 131 -107z" />
    <glyph glyph-name="onesuperior" unicode="&#xb9;" horiz-adv-x="442" 
d="M319 1219q0 -48 -7 -143.5t-7 -143.5q0 -27 2 -82t2 -82q0 -63 -59 -63q-53 0 -53 40q0 21 4 70q12 148 12 311q0 15 -12 15q-11 0 -54 -51.5t-67 -51.5q-31 0 -31 27q0 45 98 104l68 52q49 36 72 36q32 0 32 -38z" />
    <glyph glyph-name="ordmasculine" unicode="&#xba;" horiz-adv-x="543" 
d="M508 977q0 -113 -58 -191q-64 -86 -174 -86q-105 0 -166 80q-55 73 -55 181q0 104 61 177q66 79 167 79q225 0 225 -240zM395 1018q0 151 -114 151q-59 0 -88 -78q-21 -56 -21 -130q0 -205 104 -205q119 0 119 262z" />
    <glyph glyph-name="guillemotright" unicode="&#xbb;" horiz-adv-x="807" 
d="M76 39q-15 0 -15 22q0 21 79 136q66 95 104 143q-36 42 -94 131q-68 104 -68 131q0 19 20 19q7 0 66 -62q52 -54 211 -194q27 -24 27 -41q0 -12 -33 -41q-281 -244 -297 -244zM741 324q0 -13 -32 -41q-280 -244 -295 -244q-17 0 -17 22t80 137q66 95 105 142
q-37 41 -96 130q-68 104 -68 132q0 19 20 19q5 0 66 -62q45 -46 211 -194q26 -23 26 -41z" />
    <glyph glyph-name="onequarter" unicode="&#xbc;" horiz-adv-x="1227" 
d="M319 1219q0 -48 -7 -143.5t-7 -143.5q0 -27 2 -82t2 -82q0 -63 -59 -63q-53 0 -53 40q0 21 4 70q12 148 12 311q0 15 -12 15q-11 0 -54 -51.5t-67 -51.5q-31 0 -31 27q0 45 98 104l68 52q49 36 72 36q32 0 32 -38zM899 1270q0 -24 -27 -72q-38 -65 -113 -195
q-214 -377 -427 -817q-28 -61 -86 -180q-33 -65 -64 -65q-39 0 -39 45q0 22 31 77q42 71 123 214q194 344 436 829q23 47 70 141q34 64 65 64t31 -41zM1206 102q0 -49 -69 -49q-25 0 -74 2t-74 2q0 -122 15 -235q0 -4 3 -14t3 -15q0 -24 -26.5 -44.5t-51.5 -20.5
q-39 0 -39 75q0 42 1 126t1 126q-79 0 -187 -8t-106 -8q-31 0 -31 27q0 17 19 40q83 102 174 484q14 57 39 57q18 0 36.5 -12t18.5 -29q0 -78 -71 -248q-62 -147 -119 -235q66 -10 174 -10q24 0 53 4v200q0 84 49 84q55 0 55 -36q0 -41 -5 -124t-5 -124q28 0 83 10t83 10
q51 0 51 -35z" />
    <glyph glyph-name="onehalf" unicode="&#xbd;" horiz-adv-x="1180" 
d="M1128 57q0 -61 -55 -61q-37 0 -110 4t-109 4q-53 0 -104 -18q-35 0 -35 24q0 29 118.5 191.5t118.5 210.5q0 71 -112 71q-82 0 -82 -41q0 -12 4 -35.5t4 -35.5q0 -62 -47 -62q-31 0 -31 31q0 19 3 61.5t3 63.5q0 76 152 76q83 0 138 -33q67 -39 67 -117q0 -53 -29 -92
q-71 -97 -172 -250q144 41 248 41q30 0 30 -33zM319 1219q0 -48 -7 -143.5t-7 -143.5q0 -27 2 -82t2 -82q0 -63 -59 -63q-53 0 -53 40q0 21 4 70q12 148 12 311q0 15 -12 15q-11 0 -54 -51.5t-67 -51.5q-31 0 -31 27q0 45 98 104l68 52q49 36 72 36q32 0 32 -38zM899 1270
q0 -24 -27 -72q-38 -65 -113 -195q-214 -377 -427 -817q-28 -61 -86 -180q-33 -65 -64 -65q-39 0 -39 45q0 22 31 77q42 71 123 214q194 344 436 829q23 47 70 141q34 64 65 64t31 -41z" />
    <glyph glyph-name="threequarters" unicode="&#xbe;" horiz-adv-x="1430" 
d="M1102 1270q0 -24 -27 -72q-38 -65 -113 -195q-214 -377 -427 -817q-28 -61 -86 -180q-33 -65 -64 -65q-39 0 -39 45q0 22 31 77q42 71 123 214q194 344 436 829q23 47 70 141q34 64 65 64t31 -41zM1409 102q0 -49 -70 -49q-25 0 -74 2t-73 2q0 -163 14 -235q6 -31 6 -29
q0 -24 -26.5 -44.5t-50.5 -20.5q-39 0 -39 75q0 42 1 126t1 126q-79 0 -187 -8t-106 -8q-31 0 -31 27q0 17 19 40q83 102 174 484q14 57 39 57q18 0 36.5 -12t18.5 -29q0 -79 -71 -248q-63 -148 -120 -235q67 -10 174 -10q25 0 54 4v200q0 84 49 84q55 0 55 -36
q0 -41 -5 -124t-5 -124q28 0 83 10t83 10q51 0 51 -35zM506 719q0 -100 -103 -156q-84 -45 -194 -45q-35 0 -73 18q-46 21 -46 52q0 47 45 47q16 0 51 -33t80 -33q61 0 95 46q30 41 30 104q0 145 -117 145q-33 0 -59 -6q-6 -1 -25 -9.5t-24 -8.5q-33 0 -33 30q0 41 43 41
q86 0 123 19q53 27 53 104q0 146 -164 146q-38 0 -38 -43q0 -8 3 -22.5t3 -22.5q0 -41 -39 -41q-31 0 -31 43q0 81 13 104q20 37 94 37q260 0 260 -158q0 -85 -91 -153q144 -28 144 -205z" />
    <glyph glyph-name="questiondown" unicode="&#xbf;" horiz-adv-x="762" 
d="M608 575q0 -44 -24 -85q-27 -48 -68 -48q-72 0 -72 123q0 41 20 72q23 35 62 35q82 0 82 -97zM807 -250q0 -31 -39 -221q-10 -49 -97 -79q-69 -23 -134 -23q-207 0 -332 123q-109 107 -109 247q0 226 213 297l160 53q72 24 72 52q0 12 -24.5 44.5t-24.5 41.5q0 32 40 32
q27 0 64 -60t37 -93q0 -122 -111 -160l-153 -53q-162 -56 -162 -187q0 -122 104 -199q95 -71 221 -71q37 0 92 10q72 13 72 33q0 32 -5 95.5t-5 95.5q0 30 18.5 58t47.5 28q23 0 39 -20t16 -44z" />
    <glyph glyph-name="Agrave" unicode="&#xc0;" horiz-adv-x="1272" 
d="M1065 72q1 -49 -22 -63q-15 -9 -66 -9q-74 0 -74 68l7.5 136t7.5 236v29q-61 -183 -148 -308q-125 -177 -270 -177q-155 0 -267 126q-133 150 -133 433q0 276 165 488q178 229 446 229q266 0 266 -93q0 -22 -16 -50q-19 -30 -39 -30q-17 0 -114 54.5t-175 54.5
q-164 0 -282 -239q-107 -217 -107 -482q0 -184 79 -310q76 -122 177 -122q157 0 295 271q120 236 120 415q0 19 -1 56.5t-1 56.5q0 35 20 65.5t54 30.5h27q47 0 47 -86q0 -13 -7 -125.5t-7 -196.5q0 -152 9 -309zM739 1362q0 -19 -27 -19q-40 0 -142 69q-106 72 -106 110
q0 55 51 55q10 0 54 -45q76 -79 137 -129q33 -27 33 -41z" />
    <glyph glyph-name="Aacute" unicode="&#xc1;" horiz-adv-x="1272" 
d="M1065 72q1 -49 -22 -63q-15 -9 -66 -9q-74 0 -74 68l7.5 136t7.5 236v29q-61 -183 -148 -308q-125 -177 -270 -177q-155 0 -267 126q-133 150 -133 433q0 276 165 488q178 229 446 229q266 0 266 -93q0 -22 -16 -50q-19 -30 -39 -30q-17 0 -114 54.5t-175 54.5
q-164 0 -282 -239q-107 -217 -107 -482q0 -184 79 -310q76 -122 177 -122q157 0 295 271q120 236 120 415q0 19 -1 56.5t-1 56.5q0 35 20 65.5t54 30.5h27q47 0 47 -86q0 -13 -7 -125.5t-7 -196.5q0 -152 9 -309zM859 1522q0 -38 -104.5 -108.5t-145.5 -70.5q-26 0 -26 19
q0 15 32 41q82 67 138 129q41 45 53 45q53 0 53 -55z" />
    <glyph glyph-name="Acircumflex" unicode="&#xc2;" horiz-adv-x="1272" 
d="M916 1340q0 -19 -37 -19q-58 0 -127 59.5t-72 59.5q-4 0 -65.5 -56t-93.5 -56q-27 0 -27 16q0 10 22 35q41 41 115 131q34 53 53 53q25 0 58 -43q47 -61 147 -145q27 -22 27 -35zM1065 72q1 -49 -22 -63q-15 -9 -66 -9q-74 0 -74 68l7.5 136t7.5 236v29
q-61 -183 -148 -308q-125 -177 -270 -177q-155 0 -267 126q-133 150 -133 433q0 276 165 488q178 229 446 229q266 0 266 -93q0 -22 -16 -50q-19 -30 -39 -30q-17 0 -114 54.5t-175 54.5q-164 0 -282 -239q-107 -217 -107 -482q0 -184 79 -310q76 -122 177 -122
q157 0 295 271q120 236 120 415q0 19 -1 56.5t-1 56.5q0 35 20 65.5t54 30.5h27q47 0 47 -86q0 -13 -7 -125.5t-7 -196.5q0 -152 9 -309z" />
    <glyph glyph-name="Atilde" unicode="&#xc3;" horiz-adv-x="1272" 
d="M1065 72q1 -49 -22 -63q-15 -9 -66 -9q-74 0 -74 68l7.5 136t7.5 236v29q-61 -183 -148 -308q-125 -177 -270 -177q-155 0 -267 126q-133 150 -133 433q0 276 165 488q178 229 446 229q266 0 266 -93q0 -22 -16 -50q-19 -30 -39 -30q-17 0 -114 54.5t-175 54.5
q-164 0 -282 -239q-107 -217 -107 -482q0 -184 79 -310q76 -122 177 -122q157 0 295 271q120 236 120 415q0 19 -1 56.5t-1 56.5q0 35 20 65.5t54 30.5h27q47 0 47 -86q0 -13 -7 -125.5t-7 -196.5q0 -152 9 -309zM876 1492q0 -58 -50 -103.5t-108 -45.5q-51 0 -106 57
t-64 57q-14 0 -14 -20q0 -10 3 -30t3 -30q0 -47 -37 -47t-37 41q0 59 27 104q33 54 88 54q43 0 99.5 -54.5t78.5 -54.5q29 0 39.5 56.5t44.5 56.5q33 0 33 -41z" />
    <glyph glyph-name="Adieresis" unicode="&#xc4;" horiz-adv-x="1272" 
d="M1065 72q1 -49 -22 -63q-15 -9 -66 -9q-74 0 -74 68l7.5 136t7.5 236v29q-61 -183 -148 -308q-125 -177 -270 -177q-155 0 -267 126q-133 150 -133 433q0 276 165 488q178 229 446 229q266 0 266 -93q0 -22 -16 -50q-19 -30 -39 -30q-17 0 -114 54.5t-175 54.5
q-164 0 -282 -239q-107 -217 -107 -482q0 -184 79 -310q76 -122 177 -122q157 0 295 271q120 236 120 415q0 19 -1 56.5t-1 56.5q0 35 20 65.5t54 30.5h27q47 0 47 -86q0 -13 -7 -125.5t-7 -196.5q0 -152 9 -309zM879 1419q0 -76 -97 -76q-75 0 -75 99q0 104 90 104
q41 0 64 -45q18 -37 18 -82zM571 1434q0 -91 -75 -91q-39 0 -67 21q-32 23 -32 61q0 44 20 79q23 42 64 42q42 0 68 -36q22 -32 22 -76z" />
    <glyph glyph-name="Aring" unicode="&#xc5;" horiz-adv-x="1272" 
d="M1065 72q1 -49 -22 -63q-15 -9 -66 -9q-74 0 -74 68l7.5 136t7.5 236v29q-61 -183 -148 -308q-125 -177 -270 -177q-155 0 -267 126q-133 150 -133 433q0 276 165 488q178 229 446 229q266 0 266 -93q0 -22 -16 -50q-19 -30 -39 -30q-17 0 -114 54.5t-175 54.5
q-164 0 -282 -239q-107 -217 -107 -482q0 -184 79 -310q76 -122 177 -122q157 0 295 271q120 236 120 415q0 19 -1 56.5t-1 56.5q0 35 20 65.5t54 30.5h27q47 0 47 -86q0 -13 -7 -125.5t-7 -196.5q0 -152 9 -309zM809 1477q0 -62 -45.5 -102t-108.5 -40q-65 0 -106 38.5
t-41 103.5q0 67 48.5 116t115.5 49t104 -51q33 -45 33 -114zM743 1487q0 37 -20 66q-23 32 -59 32q-41 0 -65 -35q-21 -31 -21 -73q0 -82 84 -82q81 0 81 92z" />
    <glyph glyph-name="AE" unicode="&#xc6;" horiz-adv-x="1872" 
d="M1104 526q41 0 267.5 17.5t318.5 17.5q43 0 43 -35q0 -67 -134 -67h-267q-120 0 -404 8q23 -178 122 -295q111 -133 281 -133q182 0 285 86q47 39 76 39q20 0 35.5 -23.5t15.5 -44.5q0 -28 -83 -71q-104 -54 -257 -54q-239 0 -407.5 132.5t-221.5 363.5q-100 -4 -274 -14
q-41 -100 -82 -201q-59 -138 -98 -193q-53 -75 -123 -75q-88 0 -184 98q-85 86 -85 127q0 49 54 49q50 0 84 -55q92 -150 131 -150q59 0 125 162l94 231q-119 -4 -137 -4q-125 0 -125 43q0 39 88 39h204q173 386 327 536q213 208 570 208q95 0 199 -21q150 -29 150 -84
q0 -57 -50 -57q-21 0 -77 29q-134 69 -230 69q-230 0 -335 -209q-80 -159 -80 -415q0 -9 1 -26.5t1 -25.5q19 -2 182 -2zM526 524h240q-4 27 -4 78q0 333 176 506q-142 -71 -255 -253q-70 -114 -157 -331z" />
    <glyph glyph-name="Ccedilla" unicode="&#xc7;" horiz-adv-x="1296" 
d="M1249 219q0 -95 -160 -173q-154 -75 -337 -75q-40 0 -80 6q-17 -40 -27 -81q19 6 33 6q139 0 139 -113q0 -87 -78 -138q-67 -44 -159 -44q-86 0 -86 45q0 37 45 37q8 0 43 -10.5t55 -10.5q36 0 56 35q18 30 18 68q0 86 -49 86q-21 0 -33 -37t-41 -37q-27 0 -27 22
q0 17 8 35q29 66 41 133q0 4 4 13q-220 45 -358 195q-145 157 -145 376q0 341 235 549q186 164 387 164q73 0 104 -12q52 -20 52 -80q0 -207 -6 -283q-10 -127 -49 -127q-64 0 -64 113q0 39 24.5 143t24.5 150q0 38 -49 38q-202 0 -341 -151q-155 -169 -155 -455
q0 -248 113 -399q126 -168 365 -168q101 0 201 58q43 25 146 107q72 58 107 58q43 0 43 -43z" />
    <glyph glyph-name="Egrave" unicode="&#xc8;" horiz-adv-x="1217" 
d="M739 1362q0 -19 -27 -19q-40 0 -142 69q-106 72 -106 110q0 55 51 55q10 0 54 -45q76 -79 137 -129q33 -27 33 -41zM84 602q0 329 205 514q168 152 391 152q105 0 192 -16q144 -27 144 -89q0 -57 -49 -57q-14 0 -123 49t-185 49q-231 0 -335 -209q-80 -159 -80 -415
q0 -8 1 -24t1 -24q21 -2 55 -2h132q96 0 289 7.5t290 7.5q45 0 45 -35q0 -36 -53 -54q-38 -14 -82 -14h-222q-63 0 -189 13.5t-189 13.5q-47 0 -70 -4q24 -178 122 -294q112 -132 281 -132q180 0 285 86q48 39 76 39q20 0 35.5 -23.5t15.5 -44.5q0 -29 -82 -71
q-105 -54 -258 -54q-309 0 -491 216q-152 181 -152 415z" />
    <glyph glyph-name="Eacute" unicode="&#xc9;" horiz-adv-x="1217" 
d="M829 1522q0 -38 -104.5 -108.5t-145.5 -70.5q-26 0 -26 19q0 15 32 41q82 67 138 129q41 45 53 45q53 0 53 -55zM84 602q0 329 205 514q168 152 391 152q105 0 192 -16q144 -27 144 -89q0 -57 -49 -57q-14 0 -123 49t-185 49q-231 0 -335 -209q-80 -159 -80 -415
q0 -8 1 -24t1 -24q21 -2 55 -2h132q96 0 289 7.5t290 7.5q45 0 45 -35q0 -36 -53 -54q-38 -14 -82 -14h-222q-63 0 -189 13.5t-189 13.5q-47 0 -70 -4q24 -178 122 -294q112 -132 281 -132q180 0 285 86q48 39 76 39q20 0 35.5 -23.5t15.5 -44.5q0 -29 -82 -71
q-105 -54 -258 -54q-309 0 -491 216q-152 181 -152 415z" />
    <glyph glyph-name="Ecircumflex" unicode="&#xca;" horiz-adv-x="1217" 
d="M84 602q0 329 205 514q168 152 391 152q105 0 192 -16q144 -27 144 -89q0 -57 -49 -57q-14 0 -123 49t-185 49q-231 0 -335 -209q-80 -159 -80 -415q0 -8 1 -24t1 -24q21 -2 55 -2h132q96 0 289 7.5t290 7.5q45 0 45 -35q0 -36 -53 -54q-38 -14 -82 -14h-222
q-63 0 -189 13.5t-189 13.5q-47 0 -70 -4q24 -178 122 -294q112 -132 281 -132q180 0 285 86q48 39 76 39q20 0 35.5 -23.5t15.5 -44.5q0 -29 -82 -71q-105 -54 -258 -54q-309 0 -491 216q-152 181 -152 415zM886 1340q0 -19 -37 -19q-58 0 -127 59.5t-72 59.5
q-4 0 -65.5 -56t-93.5 -56q-27 0 -27 16q0 10 22 35q41 41 115 131q34 53 53 53q25 0 58 -43q47 -61 147 -145q27 -22 27 -35z" />
    <glyph glyph-name="Edieresis" unicode="&#xcb;" horiz-adv-x="1217" 
d="M84 602q0 329 205 514q168 152 391 152q105 0 192 -16q144 -27 144 -89q0 -57 -49 -57q-14 0 -123 49t-185 49q-231 0 -335 -209q-80 -159 -80 -415q0 -8 1 -24t1 -24q21 -2 55 -2h132q96 0 289 7.5t290 7.5q45 0 45 -35q0 -36 -53 -54q-38 -14 -82 -14h-222
q-63 0 -189 13.5t-189 13.5q-47 0 -70 -4q24 -178 122 -294q112 -132 281 -132q180 0 285 86q48 39 76 39q20 0 35.5 -23.5t15.5 -44.5q0 -29 -82 -71q-105 -54 -258 -54q-309 0 -491 216q-152 181 -152 415zM860 1419q0 -76 -96 -76q-76 0 -76 99q0 104 90 104q41 0 64 -45
q18 -37 18 -82zM553 1434q0 -91 -76 -91q-38 0 -68 22.5t-30 59.5q0 44 20 79q23 42 64 42t67 -36q23 -33 23 -76z" />
    <glyph glyph-name="Igrave" unicode="&#xcc;" horiz-adv-x="686" 
d="M436 1169q0 -8 -8 -206.5t-8 -311.5q0 -154 5 -374l5 -203q1 -10 0 -8q0 -58 -21 -68q-9 -4 -79 -4q-64 0 -64 67q0 10 15.5 273.5t15.5 333.5q0 80 -2 239.5t-2 239.5q0 24 -27 24q-29 0 -95.5 -18t-98.5 -18q-43 0 -43 36q0 56 84 56h249q74 0 74 -58zM429 1362
q0 -19 -27 -19q-40 0 -142 69q-106 72 -106 110q0 55 51 55q11 0 54 -45q77 -79 137 -129q33 -27 33 -41z" />
    <glyph glyph-name="Iacute" unicode="&#xcd;" horiz-adv-x="686" 
d="M436 1169q0 -8 -8 -206.5t-8 -311.5q0 -154 5 -374l5 -203q1 -10 0 -8q0 -58 -21 -68q-9 -4 -79 -4q-64 0 -64 67q0 10 15.5 273.5t15.5 333.5q0 80 -2 239.5t-2 239.5q0 24 -27 24q-29 0 -95.5 -18t-98.5 -18q-43 0 -43 36q0 56 84 56h249q74 0 74 -58zM499 1522
q0 -38 -107 -110q-103 -69 -143 -69q-26 0 -26 19q0 15 32 41q82 68 138 129q40 45 53 45q53 0 53 -55z" />
    <glyph glyph-name="Icircumflex" unicode="&#xce;" horiz-adv-x="686" 
d="M436 1169q0 -8 -8 -206.5t-8 -311.5q0 -154 5 -374l5 -203q1 -10 0 -8q0 -58 -21 -68q-9 -4 -79 -4q-64 0 -64 67q0 10 15.5 273.5t15.5 333.5q0 80 -2 239.5t-2 239.5q0 24 -27 24q-29 0 -95.5 -18t-98.5 -18q-43 0 -43 36q0 56 84 56h249q74 0 74 -58zM555 1339
q0 -18 -35 -18q-40 0 -107 40q-57 34 -94 71q-22 22 -32 22q-2 0 -73 -62.5t-108 -62.5q-26 0 -26 17q0 6 24 30q50 50 125 156q40 57 62 57q33 0 65 -45q67 -93 169 -174q30 -24 30 -31z" />
    <glyph glyph-name="Idieresis" unicode="&#xcf;" horiz-adv-x="686" 
d="M436 1169q0 -8 -8 -206.5t-8 -311.5q0 -154 5 -374l5 -203q1 -10 0 -8q0 -58 -21 -68q-9 -4 -79 -4q-64 0 -64 67q0 10 15.5 273.5t15.5 333.5q0 80 -2 239.5t-2 239.5q0 24 -27 24q-29 0 -95.5 -18t-98.5 -18q-43 0 -43 36q0 56 84 56h249q74 0 74 -58zM532 1419
q0 -76 -96 -76q-76 0 -76 99q0 104 91 104q40 0 63 -46q18 -36 18 -81zM225 1434q0 -91 -75 -91q-39 0 -67 21q-32 23 -32 61q0 44 20 79q23 42 64 42q42 0 68 -36q22 -32 22 -76z" />
    <glyph glyph-name="Eth" unicode="&#xd0;" horiz-adv-x="1208" 
d="M213 618q9 179 18 304q14 181 73 257q72 91 245 91q223 0 391 -255q152 -231 152 -478q0 -232 -101 -384q-117 -176 -338 -176q-81 0 -146 18q-95 26 -95 81q0 61 37 61q8 0 57 -31q96 -61 209 -61q227 0 227 463q0 224 -106 440q-129 260 -328 260q-148 0 -148 -137
q0 -123 -10 -448q27 2 110 12q70 8 106 8q46 0 46 -31q0 -63 -45 -63q5 0 -66 6t-153 6l-6 -483q0 -34 -21.5 -61t-54.5 -27h-41q-41 0 -41 45q0 41 8 195q7 126 19 329q-104 -4 -107 -4q-43 0 -43 31q0 29 39 30z" />
    <glyph glyph-name="Ntilde" unicode="&#xd1;" horiz-adv-x="1251" 
d="M1044 1036q0 -158 -10 -473t-10 -473q0 -106 -23 -106q-22 0 -57 55q-51 81 -155 242q-196 291 -416 559q-43 -271 -82 -497q-14 -84 -45 -249q-23 -106 -74 -106q-41 0 -41 59q0 39 19 107q86 310 180 733q-49 59 -191 215q-39 43 -39 57q0 24 37 51q34 25 60 25
q29 0 61 -35q60 -66 228 -285q241 -314 483 -684v146q0 121 -16 435l-12 211q1 33 -5 97q-1 103 49 103q59 0 59 -187zM866 1511q0 -66 -57.5 -118t-124.5 -52q-60 0 -126 66t-73 66q-16 0 -16 -25q0 -12 3 -35t3 -35q0 -49 -41 -49q-45 0 -45 45q0 69 32 118q37 56 103 56
q57 0 121 -64.5t86 -64.5q35 0 49.5 68.5t48.5 68.5q37 0 37 -45z" />
    <glyph glyph-name="Ograve" unicode="&#xd2;" horiz-adv-x="1264" 
d="M739 1362q0 -19 -27 -19q-40 0 -142 69q-106 72 -106 110q0 55 51 55q10 0 54 -45q76 -79 137 -129q33 -27 33 -41zM1180 557q0 -249 -150 -415q-156 -171 -403 -171q-274 0 -424 188q-119 150 -119 343q0 313 174 530q169 211 389 211q229 0 387 -222q146 -205 146 -464
zM1022 557q0 307 -153 491q-118 142 -226 142q-146 0 -270 -189q-131 -200 -131 -479q0 -209 91 -340q105 -151 306 -151q189 0 295 176q88 147 88 350z" />
    <glyph glyph-name="Oacute" unicode="&#xd3;" horiz-adv-x="1264" 
d="M839 1522q0 -38 -104.5 -108.5t-145.5 -70.5q-26 0 -26 19q0 15 32 41q82 67 138 129q41 45 53 45q53 0 53 -55zM1180 557q0 -249 -150 -415q-156 -171 -403 -171q-274 0 -424 188q-119 150 -119 343q0 313 174 530q169 211 389 211q229 0 387 -222q146 -205 146 -464z
M1022 557q0 307 -153 491q-118 142 -226 142q-146 0 -270 -189q-131 -200 -131 -479q0 -209 91 -340q105 -151 306 -151q189 0 295 176q88 147 88 350z" />
    <glyph glyph-name="Ocircumflex" unicode="&#xd4;" horiz-adv-x="1264" 
d="M1180 557q0 -249 -150 -415q-156 -171 -403 -171q-274 0 -424 188q-119 150 -119 343q0 313 174 530q169 211 389 211q229 0 387 -222q146 -205 146 -464zM1022 557q0 307 -153 491q-118 142 -226 142q-146 0 -270 -189q-131 -200 -131 -479q0 -209 91 -340
q105 -151 306 -151q189 0 295 176q88 147 88 350zM856 1340q0 -19 -37 -19q-58 0 -127 59.5t-72 59.5q-4 0 -65.5 -56t-93.5 -56q-27 0 -27 16q0 10 22 35q41 41 115 131q34 53 53 53q25 0 58 -43q47 -61 147 -145q27 -22 27 -35z" />
    <glyph glyph-name="Otilde" unicode="&#xd5;" horiz-adv-x="1264" 
d="M845 1492q0 -58 -50 -103.5t-108 -45.5q-51 0 -106 57t-64 57q-14 0 -14 -20q0 -10 3 -30t3 -30q0 -47 -37 -47t-37 41q0 59 27 104q33 54 88 54q43 0 99.5 -54.5t78.5 -54.5q29 0 39.5 56.5t44.5 56.5q33 0 33 -41zM1180 557q0 -249 -150 -415q-156 -171 -403 -171
q-274 0 -424 188q-119 150 -119 343q0 313 174 530q169 211 389 211q229 0 387 -222q146 -205 146 -464zM1022 557q0 307 -153 491q-118 142 -226 142q-146 0 -270 -189q-131 -200 -131 -479q0 -209 91 -340q105 -151 306 -151q189 0 295 176q88 147 88 350z" />
    <glyph glyph-name="Odieresis" unicode="&#xd6;" horiz-adv-x="1264" 
d="M1180 557q0 -249 -150 -415q-156 -171 -403 -171q-274 0 -424 188q-119 150 -119 343q0 313 174 530q169 211 389 211q229 0 387 -222q146 -205 146 -464zM1022 557q0 307 -153 491q-118 142 -226 142q-146 0 -270 -189q-131 -200 -131 -479q0 -209 91 -340
q105 -151 306 -151q189 0 295 176q88 147 88 350zM874 1419q0 -76 -96 -76q-76 0 -76 99q0 104 91 104q41 0 63 -45q18 -36 18 -82zM567 1434q0 -91 -75 -91q-39 0 -67 21q-32 23 -32 61q0 44 20 79q23 42 64 42q42 0 68 -36q22 -32 22 -76z" />
    <glyph glyph-name="multiply" unicode="&#xd7;" horiz-adv-x="877" 
d="M686 21q-4 0 -248 241q-115 -119 -248 -244q-8 2 -28.5 22.5t-20.5 26.5q0 5 4 9l238 241l-238 240q-4 4 -4 8q0 6 21 27.5t27 21.5q4 0 249 -241q116 119 248 244q7 -2 27.5 -23t20.5 -26q0 -3 -240 -249l237 -241q4 -4 4 -9q0 -6 -21.5 -27t-27.5 -21z" />
    <glyph glyph-name="Oslash" unicode="&#xd8;" horiz-adv-x="1264" 
d="M954 909q-280 -303 -622 -725q108 -153 307 -153q189 0 295 176q88 147 88 350q0 200 -68 352zM285 272q369 394 635 705q-46 77 -118 138q-86 75 -159 75q-146 0 -270 -189q-131 -199 -131 -479q0 -140 43 -250zM190 174q-106 147 -106 328q0 311 174 530
q168 211 389 211q200 0 350 -174q24 28 47 56q35 40 54 40q37 0 37 -35q0 -30 -91 -124q136 -203 136 -449q0 -250 -151 -415q-155 -171 -402 -171q-223 0 -365 125q-93 -114 -117 -114q-16 0 -36.5 13.5t-20.5 29.5q0 47 47 92q18 19 55 57z" />
    <glyph glyph-name="Ugrave" unicode="&#xd9;" horiz-adv-x="1370" 
d="M799 1362q0 -19 -27 -19q-40 0 -142 69q-106 72 -106 110q0 55 51 55q10 0 54 -45q76 -79 137 -129q33 -27 33 -41zM1133 1147q0 -79 -6.5 -236.5t-6.5 -236.5q0 -103 3 -309.5t3 -309.5q0 -18 -14 -36.5t-46 -20.5q30 2 -54 2q-45 0 -45 45q0 25 7 181l38 829
q1 26 -11 26q-38 0 -90 -157q-117 -350 -233 -631q-128 -309 -264 -309q-148 0 -148 157q0 167 5 500t5 500q0 30 -26 30q-9 0 -125.5 -17t-159.5 -17t-43 45t66 45h364q72 0 72 -78q0 -171 -15.5 -522t-15.5 -400q0 -149 53 -149q92 0 209 336q60 174 213 577
q94 248 187 248q78 0 78 -92z" />
    <glyph glyph-name="Uacute" unicode="&#xda;" horiz-adv-x="1370" 
d="M899 1522q0 -38 -104.5 -108.5t-145.5 -70.5q-26 0 -26 19q0 15 32 41q82 67 138 129q41 45 53 45q53 0 53 -55zM1133 1147q0 -79 -6.5 -236.5t-6.5 -236.5q0 -103 3 -309.5t3 -309.5q0 -18 -14 -36.5t-46 -20.5q30 2 -54 2q-45 0 -45 45q0 25 7 181l38 829q1 26 -11 26
q-38 0 -90 -157q-117 -350 -233 -631q-128 -309 -264 -309q-148 0 -148 157q0 167 5 500t5 500q0 30 -26 30q-9 0 -125.5 -17t-159.5 -17t-43 45t66 45h364q72 0 72 -78q0 -171 -15.5 -522t-15.5 -400q0 -149 53 -149q92 0 209 336q60 174 213 577q94 248 187 248
q78 0 78 -92z" />
    <glyph glyph-name="Ucircumflex" unicode="&#xdb;" horiz-adv-x="1370" 
d="M1133 1147q0 -79 -6.5 -236.5t-6.5 -236.5q0 -103 3 -309.5t3 -309.5q0 -18 -14 -36.5t-46 -20.5q30 2 -54 2q-45 0 -45 45q0 25 7 181l38 829q1 26 -11 26q-38 0 -90 -157q-117 -350 -233 -631q-128 -309 -264 -309q-148 0 -148 157q0 167 5 500t5 500q0 30 -26 30
q-41 0 -139.5 -17t-145.5 -17q-43 0 -43 45t66 45h364q72 0 72 -78q0 -171 -15.5 -522t-15.5 -400q0 -149 53 -149q92 0 209 336q60 174 213 577q94 248 187 248q78 0 78 -92zM930 1339q0 -18 -35 -18q-40 0 -107 40q-56 34 -94 71q-22 22 -32 22q-2 0 -73 -62.5t-108 -62.5
q-26 0 -26 17q0 6 24 30q50 50 125 156q40 57 62 57q33 0 65 -45q67 -93 169 -174q30 -24 30 -31z" />
    <glyph glyph-name="Udieresis" unicode="&#xdc;" horiz-adv-x="1370" 
d="M1133 1147q0 -79 -6.5 -236.5t-6.5 -236.5q0 -103 3 -309.5t3 -309.5q0 -18 -14 -36.5t-46 -20.5q30 2 -54 2q-45 0 -45 45q0 25 7 181l38 829q1 26 -11 26q-38 0 -90 -157q-117 -350 -233 -631q-128 -309 -264 -309q-148 0 -148 157q0 167 5 500t5 500q0 30 -26 30
q-41 0 -139.5 -17t-145.5 -17q-43 0 -43 45t66 45h364q72 0 72 -78q0 -171 -15.5 -522t-15.5 -400q0 -149 53 -149q92 0 209 336q60 174 213 577q94 248 187 248q78 0 78 -92zM928 1419q0 -76 -97 -76q-75 0 -75 99q0 104 90 104q41 0 64 -45q18 -37 18 -82zM621 1434
q0 -91 -76 -91q-39 0 -67 21q-32 23 -32 61q0 44 20 79q23 42 64 42q42 0 68 -36q23 -32 23 -76z" />
    <glyph glyph-name="Yacute" unicode="&#xdd;" horiz-adv-x="1311" 
d="M879 1522q0 -38 -104.5 -108.5t-145.5 -70.5q-26 0 -26 19q0 15 32 41q82 67 138 129q41 45 53 45q53 0 53 -55zM1116 1149q0 -18 -8 -159l-35 -643q-8 -157 -8 -179q0 -114 5 -287l5 -166q1 -23 -12 -44q-15 -25 -45 -28q8 1 -57 1q-50 0 -50 49q0 243 37 768l26 376
q11 170 11 199q0 39 -12 39q-20 0 -74 -133q-146 -363 -272 -659q-77 -181 -122 -234q-53 -63 -124 -63q-66 0 -103 49q-34 44 -34 112q0 21 7 133q38 654 38 824q0 67 -27 67q-9 0 -63 -12q-141 -31 -217 -31q-45 0 -45 46q0 24 48 40q39 13 70 13h279q98 0 98 -76
q0 -100 -26 -495l-19 -295q-8 -129 -8 -162q0 -136 45 -136q43 0 131 224q118 301 192 476q158 372 217 434q40 42 93 42q26 0 44 -33q15 -29 15 -57z" />
    <glyph glyph-name="Thorn" unicode="&#xde;" horiz-adv-x="1124" 
d="M1032 682q0 -179 -98 -286q-102 -111 -279 -111q-109 0 -167 31q-44 24 -44 44q0 33 39 33q9 0 66 -28.5t106 -28.5q82 0 148 77q82 95 82 261q0 169 -124 266q-114 90 -288 90q-44 0 -74 -8q-10 -271 -10 -371q0 -154 5 -374l4 -193q0 -8 1 -19v1q0 -58 -21 -68
q-9 -4 -79 -4q-63 0 -63 67q0 10 15 273.5t15 333.5q0 80 -2 239.5t-2 239.5q0 24 -26 24q-30 0 -96 -18t-99 -18q-43 0 -43 36q0 26 30 42q25 14 54 14h250q74 0 74 -58q0 -6 -5 -92q50 6 103 6q213 0 373 -126q155 -122 155 -275z" />
    <glyph glyph-name="germandbls" unicode="&#xdf;" horiz-adv-x="944" 
d="M377 401q0 22 55 54q287 168 287 440q0 112 -50 192q-58 95 -163 95q-232 0 -232 -394q0 -159 13 -459l12 -284v-7v1q1 -47 -57 -47q-104 0 -104 266q0 280 4 296q1 -43 1 -128q0 222 15 387q17 187 99 298q97 132 273 132q145 0 238 -105q90 -102 90 -249
q0 -142 -90 -259q-84 -107 -221 -167q305 -42 305 -256q0 -107 -90 -168q-79 -53 -191 -53q-186 0 -186 80q0 45 45 45q9 0 66 -30t131 -30q45 0 84 36.5t39 80.5q0 75 -88 132q-79 52 -158 52h-96q-31 0 -31 49z" />
    <glyph glyph-name="agrave" unicode="&#xe0;" 
d="M471 764q0 -19 -27 -19q-40 0 -142 69q-106 72 -106 110q0 55 51 55q10 0 54 -45q76 -79 137 -129q33 -27 33 -41zM608 334v-264q0 -55 -21 -67q-11 -7 -71 -7q-34 0 -41 90q-135 -100 -244 -100q-68 0 -110.5 43.5t-42.5 111.5q0 153 133 224q91 49 270 67q0 96 -9 125
q-21 64 -95 64q-71 0 -106 -49q-13 -18 -38 -91q-17 -49 -45 -49q-57 0 -57 66q0 81 77 131q67 45 152 45q248 0 248 -340zM195 188q0 -120 104 -120q87 0 174 82q8 63 8 237q-286 -48 -286 -199z" />
    <glyph glyph-name="aacute" unicode="&#xe1;" 
d="M537 924q0 -38 -104.5 -108.5t-145.5 -70.5q-26 0 -26 19q0 15 32 41q82 67 138 129q41 45 53 45q53 0 53 -55zM608 334v-264q0 -55 -21 -67q-11 -7 -71 -7q-34 0 -41 90q-135 -100 -244 -100q-68 0 -110.5 43.5t-42.5 111.5q0 153 133 224q91 49 270 67q0 96 -9 125
q-21 64 -95 64q-71 0 -106 -49q-13 -18 -38 -91q-17 -49 -45 -49q-57 0 -57 66q0 81 77 131q67 45 152 45q248 0 248 -340zM195 188q0 -120 104 -120q87 0 174 82q8 63 8 237q-286 -48 -286 -199z" />
    <glyph glyph-name="acircumflex" unicode="&#xe2;" 
d="M608 334v-264q0 -55 -21 -67q-11 -7 -71 -7q-34 0 -41 90q-135 -100 -244 -100q-68 0 -110.5 43.5t-42.5 111.5q0 153 133 224q91 49 270 67q0 96 -9 125q-21 64 -95 64q-71 0 -106 -49q-13 -18 -38 -91q-17 -49 -45 -49q-57 0 -57 66q0 81 77 131q67 45 152 45
q248 0 248 -340zM195 188q0 -120 104 -120q87 0 174 82q8 63 8 237q-286 -48 -286 -199zM579 760q0 -19 -37 -19q-58 0 -127 59.5t-72 59.5q-4 0 -65.5 -56t-93.5 -56q-27 0 -27 16q0 10 22 35q41 41 115 131q34 53 53 53q25 0 58 -43q47 -61 147 -145q27 -22 27 -35z" />
    <glyph glyph-name="atilde" unicode="&#xe3;" 
d="M570 903q0 -58 -50 -103.5t-108 -45.5q-51 0 -106 57t-64 57q-14 0 -14 -20q0 -10 3 -30t3 -30q0 -47 -37 -47t-37 41q0 59 27 104q33 54 88 54q43 0 99.5 -54.5t78.5 -54.5q29 0 39.5 56.5t44.5 56.5q33 0 33 -41zM608 334v-264q0 -55 -21 -67q-11 -7 -71 -7
q-34 0 -41 90q-135 -100 -244 -100q-68 0 -110.5 43.5t-42.5 111.5q0 153 133 224q91 49 270 67q0 96 -9 125q-21 64 -95 64q-71 0 -106 -49q-13 -18 -38 -91q-17 -49 -45 -49q-57 0 -57 66q0 81 77 131q67 45 152 45q248 0 248 -340zM195 188q0 -120 104 -120q87 0 174 82
q8 63 8 237q-286 -48 -286 -199z" />
    <glyph glyph-name="adieresis" unicode="&#xe4;" 
d="M608 334v-264q0 -55 -21 -67q-11 -7 -71 -7q-34 0 -41 90q-135 -100 -244 -100q-68 0 -110.5 43.5t-42.5 111.5q0 153 133 224q91 49 270 67q0 96 -9 125q-21 64 -95 64q-71 0 -106 -49q-13 -18 -38 -91q-17 -49 -45 -49q-57 0 -57 66q0 81 77 131q67 45 152 45
q248 0 248 -340zM195 188q0 -120 104 -120q87 0 174 82q8 63 8 237q-286 -48 -286 -199zM561 831q0 -67 -88 -67q-65 0 -65 88q0 92 77 92q37 0 58 -40q18 -33 18 -73zM307 844q0 -80 -65 -80q-88 0 -88 72q0 38 18 70q22 38 57 38q36 0 59 -33q19 -29 19 -67z" />
    <glyph glyph-name="aring" unicode="&#xe5;" 
d="M608 334v-264q0 -55 -21 -67q-11 -7 -71 -7q-34 0 -41 90q-135 -100 -244 -100q-68 0 -110.5 43.5t-42.5 111.5q0 153 133 224q91 49 270 67q0 96 -9 125q-21 64 -95 64q-71 0 -106 -49q-13 -18 -38 -91q-17 -49 -45 -49q-57 0 -57 66q0 81 77 131q67 45 152 45
q248 0 248 -340zM195 188q0 -120 104 -120q87 0 174 82q8 63 8 237q-286 -48 -286 -199zM496 881q0 -55 -40.5 -91t-95.5 -36q-57 0 -94 34t-37 91q0 61 43 105t103 44q59 0 92 -46q29 -40 29 -101zM434 889q0 30 -19 57t-48 27q-72 0 -72 -92q0 -70 70 -70q69 0 69 78z" />
    <glyph glyph-name="ae" unicode="&#xe6;" horiz-adv-x="1055" 
d="M999 143q0 -69 -93 -117q-80 -42 -156 -42q-81 0 -148 39q-70 41 -102 112q-117 -141 -269 -141q-61 0 -105 37q-48 39 -48 98q0 217 403 225q0 267 -104 267q-72 0 -106 -57q-8 -14 -37 -104q-18 -57 -52 -57q-51 0 -51 76q0 81 75 140q71 55 154 55q147 0 207 -117
q92 105 217 105q174 0 174 -121q0 -122 -121 -186q-97 -52 -231 -52q0 -86 37 -165q47 -97 123 -97q67 0 123 67.5t67 67.5q43 0 43 -33zM836 555q0 57 -43 57q-87 0 -142 -92q-47 -78 -47 -172q82 3 155 63q77 64 77 144zM481 305q-98 0 -175 -26q-111 -37 -111 -115
q0 -88 90 -88q43 0 105.5 33.5t86.5 68.5q4 53 4 127z" />
    <glyph glyph-name="ccedilla" unicode="&#xe7;" horiz-adv-x="694" 
d="M608 172q0 -43 -56 -106q-74 -83 -168 -83q-16 0 -30 3q-20 -50 -28 -82q15 6 32 6q129 0 129 -107q0 -82 -72 -131q-63 -43 -149 -43t-86 49q0 37 45 37q10 0 42 -11t50 -11q34 0 55 30q19 27 19 62q0 78 -49 78q-20 0 -29.5 -37t-38.5 -37q-28 0 -28 23q0 12 10 30
q16 64 41 156q-223 68 -223 307q0 161 91 261q94 104 253 104q146 0 157 -111q9 -92 9 -139q0 -74 -62 -74q-41 0 -41 86q0 23 4 70t4 71q0 17 -36 32q-31 13 -52 13q-180 0 -180 -303q0 -274 154 -274q46 0 105 83t89 83q39 0 39 -35z" />
    <glyph glyph-name="egrave" unicode="&#xe8;" horiz-adv-x="653" 
d="M440 764q0 -19 -27 -19q-40 0 -142 69q-106 72 -106 110q0 55 51 55q10 0 54 -45q76 -79 137 -129q33 -27 33 -41zM596 143q0 -69 -92 -118q-79 -41 -156 -41q-132 0 -207 90q-71 85 -71 219q0 162 102 270q93 99 203 99q162 0 162 -140q0 -128 -104 -217
q-97 -85 -228 -90q6 -73 44 -120q43 -54 113 -54q65 0 124 67.5t67 67.5q43 0 43 -33zM416 555q0 57 -37 57q-87 0 -138 -99q-42 -81 -42 -177q0 -25 4 -70q99 17 158 104q55 80 55 185z" />
    <glyph glyph-name="eacute" unicode="&#xe9;" horiz-adv-x="653" 
d="M505 924q0 -38 -104.5 -108.5t-145.5 -70.5q-26 0 -26 19q0 15 32 41q82 67 138 129q41 45 53 45q53 0 53 -55zM596 143q0 -69 -92 -118q-79 -41 -156 -41q-132 0 -207 90q-71 85 -71 219q0 162 102 270q93 99 203 99q162 0 162 -140q0 -128 -104 -217q-97 -85 -228 -90
q6 -73 44 -120q43 -54 113 -54q65 0 124 67.5t67 67.5q43 0 43 -33zM416 555q0 57 -37 57q-87 0 -138 -99q-42 -81 -42 -177q0 -25 4 -70q99 17 158 104q55 80 55 185z" />
    <glyph glyph-name="ecircumflex" unicode="&#xea;" horiz-adv-x="653" 
d="M596 143q0 -69 -92 -118q-79 -41 -156 -41q-132 0 -207 90q-71 85 -71 219q0 162 102 270q93 99 203 99q162 0 162 -140q0 -128 -104 -217q-97 -85 -228 -90q6 -73 44 -120q43 -54 113 -54q65 0 124 67.5t67 67.5q43 0 43 -33zM416 555q0 57 -37 57q-87 0 -138 -99
q-42 -81 -42 -177q0 -25 4 -70q99 17 158 104q55 80 55 185zM559 760q0 -19 -37 -19q-58 0 -127 59.5t-72 59.5q-4 0 -65.5 -56t-93.5 -56q-27 0 -27 16q0 10 22 35q41 41 115 131q34 53 53 53q25 0 58 -43q47 -61 147 -145q27 -22 27 -35z" />
    <glyph glyph-name="edieresis" unicode="&#xeb;" horiz-adv-x="653" 
d="M596 143q0 -69 -92 -118q-79 -41 -156 -41q-132 0 -207 90q-71 85 -71 219q0 162 102 270q93 99 203 99q162 0 162 -140q0 -128 -104 -217q-97 -85 -228 -90q6 -73 44 -120q43 -54 113 -54q65 0 124 67.5t67 67.5q43 0 43 -33zM416 555q0 57 -37 57q-87 0 -138 -99
q-42 -81 -42 -177q0 -25 4 -70q99 17 158 104q55 80 55 185zM530 831q0 -67 -88 -67q-65 0 -65 88q0 92 78 92q36 0 57 -40q18 -33 18 -73zM276 844q0 -80 -65 -80q-88 0 -88 72q0 39 18 71q22 37 58 37q37 0 58 -33q19 -29 19 -67z" />
    <glyph glyph-name="igrave" unicode="&#xec;" horiz-adv-x="459" 
d="M344 49q0 -57 -80 -57q-63 0 -63 47v126q0 69 9 208.5t9 208.5q0 20 -18 20q-21 0 -62.5 -15.5t-62.5 -15.5q-51 0 -51 39q0 47 96 47h145q70 0 70 -41q0 -55 -4 -164.5t-4 -164.5q0 -129 4 -166q1 -9 7 -36q5 -23 5 -36zM344 764q0 -19 -27 -19q-40 0 -142 69
q-106 72 -106 110q0 55 51 55q10 0 54 -45q76 -79 137 -129q33 -27 33 -41z" />
    <glyph glyph-name="iacute" unicode="&#xed;" horiz-adv-x="459" 
d="M410 924q0 -38 -104.5 -108.5t-145.5 -70.5q-26 0 -26 19q0 15 32 41q82 67 138 129q41 45 53 45q53 0 53 -55zM344 49q0 -57 -80 -57q-63 0 -63 47v126q0 69 9 208.5t9 208.5q0 20 -18 20q-21 0 -62.5 -15.5t-62.5 -15.5q-51 0 -51 39q0 47 96 47h145q70 0 70 -41
q0 -55 -4 -164.5t-4 -164.5q0 -129 4 -166q1 -9 7 -36q5 -23 5 -36z" />
    <glyph glyph-name="icircumflex" unicode="&#xee;" horiz-adv-x="459" 
d="M344 49q0 -57 -80 -57q-63 0 -63 47v126q0 69 9 208.5t9 208.5q0 20 -18 20q-21 0 -62.5 -15.5t-62.5 -15.5q-51 0 -51 39q0 47 96 47h145q70 0 70 -41q0 -55 -4 -164.5t-4 -164.5q0 -129 4 -166q1 -9 7 -36q5 -23 5 -36zM444 760q0 -19 -36 -19q-58 0 -127 59.5
t-72 59.5q-5 0 -67 -56t-93 -56q-26 0 -26 16q0 10 22 35q41 41 115 131q34 53 53 53q25 0 57 -43q43 -57 148 -145q26 -22 26 -35z" />
    <glyph glyph-name="idieresis" unicode="&#xef;" horiz-adv-x="459" 
d="M344 49q0 -57 -80 -57q-63 0 -63 47v126q0 69 9 208.5t9 208.5q0 20 -18 20q-21 0 -62.5 -15.5t-62.5 -15.5q-51 0 -51 39q0 47 96 47h145q70 0 70 -41q0 -55 -4 -164.5t-4 -164.5q0 -129 4 -166q1 -9 7 -36q5 -23 5 -36zM422 831q0 -67 -88 -67q-66 0 -66 88q0 92 78 92
q36 0 58 -40q18 -34 18 -73zM168 844q0 -80 -66 -80q-88 0 -88 72q0 38 19 70q22 38 57 38q36 0 59 -33q19 -29 19 -67z" />
    <glyph glyph-name="eth" unicode="&#xf0;" horiz-adv-x="723" 
d="M670 346q0 -147 -75 -248q-83 -112 -226 -112q-139 0 -219 103q-72 94 -72 237q0 136 80 233q86 103 219 103q55 0 112 -15q-35 135 -110 271q-58 -18 -117 -37q-87 -27 -104 -27q-29 0 -29 29q0 23 29 32l190 56q-64 103 -151 196q-27 29 -27 45q0 25 29 25
q38 0 128 -100q64 -71 111 -138q178 66 185 66q39 0 39 -57q0 -26 -32 -36q-26 -5 -52 -9q-40 -8 -103 -21q195 -297 195 -596zM532 401q0 211 -157 211q-83 0 -124 -108q-30 -78 -30 -178q0 -122 19 -180q33 -101 129 -101q163 0 163 356z" />
    <glyph glyph-name="ntilde" unicode="&#xf1;" horiz-adv-x="821" 
d="M696 70q0 -55 -26 -69q-14 -7 -76 -7q-37 0 -37 51q0 71 8 212t8 212q0 125 -84 125q-96 0 -149 -107v-52q-1 -68 3 -194q3 -133 3 -194q0 -57 -78 -57q-67 0 -67 47q0 195 14 399q5 67 5 115q0 55 -23 55q-17 0 -62.5 -17.5t-68.5 -17.5q-52 0 -52 39q0 47 97 47h161
q42 0 55 -23q9 -16 9 -61q96 93 178 93q97 0 138 -65q35 -55 43 -257q1 -35 1 -274zM653 903q0 -58 -49 -103.5t-108 -45.5q-52 0 -106.5 57t-63.5 57q-15 0 -15 -20q0 -10 3 -30t3 -30q0 -47 -36 -47q-37 0 -37 41q0 59 27 104q31 54 87 54q44 0 100.5 -54.5t78.5 -54.5
q28 0 38 56.5t46 56.5q32 0 32 -41z" />
    <glyph glyph-name="ograve" unicode="&#xf2;" horiz-adv-x="723" 
d="M496 764q0 -19 -27 -19q-40 0 -142 69q-106 72 -106 110q0 55 51 55q10 0 54 -45q76 -79 137 -129q33 -27 33 -41zM666 346q0 -146 -76 -248q-83 -112 -225 -112q-139 0 -219 103q-72 94 -72 237q0 137 80 233q85 103 219 103q293 0 293 -316zM528 401q0 211 -157 211
q-83 0 -124 -108q-30 -78 -30 -178q0 -122 19 -180q33 -101 129 -101q163 0 163 356z" />
    <glyph glyph-name="oacute" unicode="&#xf3;" horiz-adv-x="723" 
d="M541 924q0 -38 -104.5 -108.5t-145.5 -70.5q-26 0 -26 19q0 15 32 41q82 67 138 129q41 45 53 45q53 0 53 -55zM666 346q0 -146 -76 -248q-83 -112 -225 -112q-139 0 -219 103q-72 94 -72 237q0 137 80 233q85 103 219 103q293 0 293 -316zM528 401q0 211 -157 211
q-83 0 -124 -108q-30 -78 -30 -178q0 -122 19 -180q33 -101 129 -101q163 0 163 356z" />
    <glyph glyph-name="ocircumflex" unicode="&#xf4;" horiz-adv-x="723" 
d="M666 346q0 -146 -76 -248q-83 -112 -225 -112q-139 0 -219 103q-72 94 -72 237q0 137 80 233q85 103 219 103q293 0 293 -316zM528 401q0 211 -157 211q-83 0 -124 -108q-30 -78 -30 -178q0 -122 19 -180q33 -101 129 -101q163 0 163 356zM609 760q0 -19 -37 -19
q-58 0 -127 59.5t-72 59.5q-4 0 -65.5 -56t-93.5 -56q-27 0 -27 16q0 10 22 35q41 41 115 131q34 53 53 53q25 0 58 -43q47 -61 147 -145q27 -22 27 -35z" />
    <glyph glyph-name="otilde" unicode="&#xf5;" horiz-adv-x="723" 
d="M594 903q0 -58 -50 -103.5t-108 -45.5q-51 0 -106 57t-64 57q-14 0 -14 -20q0 -10 3 -30t3 -30q0 -47 -37 -47t-37 41q0 59 27 104q33 54 88 54q43 0 99.5 -54.5t78.5 -54.5q29 0 39.5 56.5t44.5 56.5q33 0 33 -41zM666 346q0 -146 -76 -248q-83 -112 -225 -112
q-139 0 -219 103q-72 94 -72 237q0 137 80 233q85 103 219 103q293 0 293 -316zM528 401q0 211 -157 211q-83 0 -124 -108q-30 -78 -30 -178q0 -122 19 -180q33 -101 129 -101q163 0 163 356z" />
    <glyph glyph-name="odieresis" unicode="&#xf6;" horiz-adv-x="723" 
d="M666 346q0 -146 -76 -248q-83 -112 -225 -112q-139 0 -219 103q-72 94 -72 237q0 137 80 233q85 103 219 103q293 0 293 -316zM528 401q0 211 -157 211q-83 0 -124 -108q-30 -78 -30 -178q0 -122 19 -180q33 -101 129 -101q163 0 163 356zM586 831q0 -67 -88 -67
q-66 0 -66 88q0 92 78 92q36 0 58 -40q18 -34 18 -73zM332 844q0 -80 -66 -80q-88 0 -88 72q0 39 18 71q22 37 58 37t59 -33q19 -29 19 -67z" />
    <glyph glyph-name="divide" unicode="&#xf7;" horiz-adv-x="877" 
d="M500 575q0 -59 -60 -59q-59 0 -59 59q0 60 59 60q60 0 60 -60zM756 291q0 -10 -10 -10h-616q-9 0 -9 10v53q0 10 10 10h615q10 0 10 -10v-53zM500 59q0 -59 -60 -59q-59 0 -59 59q0 60 59 60q60 0 60 -60z" />
    <glyph glyph-name="oslash" unicode="&#xf8;" horiz-adv-x="723" 
d="M528 401q0 29 -6 66q-87 -97 -276 -350q36 -72 119 -72q163 0 163 356zM217 326q0 -91 10 -140q80 107 271 353q-39 73 -127 73q-83 0 -124 -108q-30 -79 -30 -178zM74 326q0 137 80 233q85 103 219 103q115 0 184 -50q66 76 80 76q35 0 35 -33q0 -18 -62 -94
q56 -76 56 -215q0 -146 -76 -248q-83 -112 -225 -112q-100 0 -175 59q-17 -22 -35 -44q-25 -30 -40 -30q-37 0 -37 33q0 22 67 86q-71 89 -71 236z" />
    <glyph glyph-name="ugrave" unicode="&#xf9;" horiz-adv-x="813" 
d="M520 764q0 -19 -27 -19q-40 0 -142 69q-106 72 -106 110q0 55 51 55q10 0 54 -45q76 -79 137 -129q33 -27 33 -41zM682 199q0 -83 8 -115q10 -40 10 -45q0 -22 -40 -36q-31 -11 -58 -11q-31 0 -40 27q-3 11 -3 53q-32 -31 -85 -57q-58 -29 -97 -29q-197 0 -197 204v-1v2
v2l1 10l4 55l14 219q2 31 2 107q0 20 -17 20q-26 0 -73.5 -19.5t-71.5 -19.5q-53 0 -53 41q0 51 96 51h182q70 0 70 -41q0 -138 -15 -327q-6 -75 -6 -121q0 -113 88 -113q94 0 156 90q0 28 -4 445q-1 82 106 82q35 0 35 -39q0 -72 -6 -217t-6 -217z" />
    <glyph glyph-name="uacute" unicode="&#xfa;" horiz-adv-x="813" 
d="M606 924q0 -38 -104.5 -108.5t-145.5 -70.5q-26 0 -26 19q0 15 32 41q82 67 138 129q41 45 53 45q53 0 53 -55zM682 199q0 -83 8 -115q10 -40 10 -45q0 -22 -40 -36q-31 -11 -58 -11q-31 0 -40 27q-3 11 -3 53q-32 -31 -85 -57q-58 -29 -97 -29q-197 0 -197 204v-1v2v2
l1 10l4 55l14 219q2 31 2 107q0 20 -17 20q-26 0 -73.5 -19.5t-71.5 -19.5q-53 0 -53 41q0 51 96 51h182q70 0 70 -41q0 -138 -15 -327q-6 -75 -6 -121q0 -113 88 -113q94 0 156 90q0 28 -4 445q-1 82 106 82q35 0 35 -39q0 -72 -6 -217t-6 -217z" />
    <glyph glyph-name="ucircumflex" unicode="&#xfb;" horiz-adv-x="813" 
d="M682 199q0 -83 8 -115q10 -40 10 -45q0 -22 -40 -36q-31 -11 -58 -11q-31 0 -40 27q-3 11 -3 53q-32 -31 -85 -57q-58 -29 -97 -29q-197 0 -197 204v-1v2v2l1 10l4 55l14 219q2 31 2 107q0 20 -17 20q-26 0 -73.5 -19.5t-71.5 -19.5q-53 0 -53 41q0 51 96 51h182
q70 0 70 -41q0 -138 -15 -327q-6 -75 -6 -121q0 -113 88 -113q94 0 156 90q0 28 -4 445q-1 82 106 82q35 0 35 -39q0 -72 -6 -217t-6 -217zM621 760q0 -19 -37 -19q-58 0 -127 59.5t-72 59.5q-5 0 -67 -56t-93 -56q-26 0 -26 16q0 10 22 35q41 41 115 131q34 53 53 53
q25 0 57 -43q44 -59 148 -145q27 -22 27 -35z" />
    <glyph glyph-name="udieresis" unicode="&#xfc;" horiz-adv-x="813" 
d="M682 199q0 -83 8 -115q10 -40 10 -45q0 -22 -40 -36q-31 -11 -58 -11q-31 0 -40 27q-3 11 -3 53q-32 -31 -85 -57q-58 -29 -97 -29q-197 0 -197 204v-1v2v2l1 10l4 55l14 219q2 31 2 107q0 20 -17 20q-26 0 -73.5 -19.5t-71.5 -19.5q-53 0 -53 41q0 51 96 51h182
q70 0 70 -41q0 -138 -15 -327q-6 -75 -6 -121q0 -113 88 -113q94 0 156 90q0 28 -4 445q-1 82 106 82q35 0 35 -39q0 -72 -6 -217t-6 -217zM610 831q0 -67 -88 -67q-65 0 -65 88q0 92 78 92q36 0 57 -40q18 -33 18 -73zM356 844q0 -80 -65 -80q-88 0 -88 72q0 39 18 71
q22 37 58 37t58 -33q19 -30 19 -67z" />
    <glyph glyph-name="yacute" unicode="&#xfd;" horiz-adv-x="805" 
d="M623 924q0 -38 -104.5 -108.5t-145.5 -70.5q-26 0 -26 19q0 15 32 41q82 67 138 129q41 45 53 45q53 0 53 -55zM700 602v0v-2l-1 -7l-3 -36l-13 -179q-17 -231 -17 -370q0 -73 3 -219t3 -219q0 -57 -78 -57q-53 0 -53 75q0 81 8 244t8 244q-105 -90 -201 -90
q-102 0 -143 54q-35 47 -35 153q0 64 10.5 192.5t10.5 192.5q0 20 -17 20q-24 0 -69 -13.5t-68 -13.5q-65 0 -65 45q0 41 79 41h205q70 0 70 -41q0 -45 -8 -147q-15 -192 -15 -297q0 -109 90 -109q85 0 154 89q12 178 12 440q0 72 54 72h41q38 0 38 -62z" />
    <glyph glyph-name="thorn" unicode="&#xfe;" horiz-adv-x="805" 
d="M86 1227h182q80 0 80 -53q0 -222 -10 -349t-10 -233q101 76 186 76q113 0 172 -119q47 -94 47 -219q0 -171 -92 -267q-74 -77 -160 -77q-61 0 -170 61q-4 -197 -4 -477q0 -36 -13 -45.5t-54 -9.5q-42 0 -54 16q-10 12 -10 57q0 364 39 1106q3 59 3 146q0 52 -2.5 155
t-2.5 154q0 20 -16 20q-28 0 -83.5 -18t-84.5 -18q-54 0 -54 43q0 51 111 51zM326 535q0 -218 -13 -420q65 -62 127 -62q90 0 132 112q30 80 30 189q0 250 -125 250q-49 0 -151 -69z" />
    <glyph glyph-name="ydieresis" unicode="&#xff;" horiz-adv-x="805" 
d="M700 602v0v-2l-1 -7l-3 -36l-13 -179q-17 -231 -17 -370q0 -73 3 -219t3 -219q0 -57 -78 -57q-53 0 -53 75q0 81 8 244t8 244q-105 -90 -201 -90q-102 0 -143 54q-35 47 -35 153q0 64 10.5 192.5t10.5 192.5q0 20 -17 20q-24 0 -69 -13.5t-68 -13.5q-65 0 -65 45
q0 41 79 41h205q70 0 70 -41q0 -45 -8 -147q-15 -192 -15 -297q0 -109 90 -109q85 0 154 89q12 178 12 440q0 72 54 72h41q38 0 38 -62zM627 831q0 -67 -88 -67q-66 0 -66 88q0 92 78 92q36 0 58 -40q18 -34 18 -73zM373 844q0 -80 -66 -80q-88 0 -88 72q0 39 18 71
q22 37 58 37t59 -33q19 -29 19 -67z" />
    <glyph glyph-name="glyph248" unicode="&#x102;" horiz-adv-x="1272" 
d="M1065 72q1 -49 -22 -63q-15 -9 -66 -9q-74 0 -74 68l7.5 136t7.5 236v29q-61 -183 -148 -308q-125 -177 -270 -177q-155 0 -267 126q-133 150 -133 433q0 276 165 488q178 229 446 229q266 0 266 -93q0 -22 -16 -50q-19 -30 -39 -30q-17 0 -114 54.5t-175 54.5
q-164 0 -282 -239q-107 -217 -107 -482q0 -184 79 -310q76 -122 177 -122q157 0 295 271q120 236 120 415q0 19 -1 56.5t-1 56.5q0 35 20 65.5t54 30.5h27q47 0 47 -86q0 -13 -7 -125.5t-7 -196.5q0 -152 9 -309zM863 1519q0 -48 -40 -95q-55 -64 -158 -64q-56 0 -96.5 41.5
t-40.5 97.5q0 51 22 51q3 0 32.5 -51t84.5 -51q54 0 103.5 54t62.5 54q30 0 30 -37z" />
    <glyph glyph-name="glyph249" unicode="&#x103;" 
d="M608 334v-264q0 -55 -21 -67q-11 -7 -71 -7q-34 0 -41 90q-135 -100 -244 -100q-68 0 -110.5 43.5t-42.5 111.5q0 153 133 224q91 49 270 67q0 96 -9 125q-21 64 -95 64q-71 0 -106 -49q-13 -18 -38 -91q-17 -49 -45 -49q-57 0 -57 66q0 81 77 131q67 45 152 45
q248 0 248 -340zM195 188q0 -120 104 -120q87 0 174 82q8 63 8 237q-286 -48 -286 -199zM543 919q0 -48 -40 -95q-55 -64 -158 -64q-56 0 -96.5 41.5t-40.5 97.5q0 51 22 51q3 0 32.5 -51t84.5 -51q54 0 103.5 54t62.5 54q30 0 30 -37z" />
    <glyph glyph-name="Dslash" unicode="&#x110;" horiz-adv-x="1208" 
d="M213 618q9 179 18 304q14 181 73 257q72 91 245 91q223 0 391 -255q152 -231 152 -478q0 -232 -101 -384q-117 -176 -338 -176q-81 0 -146 18q-95 26 -95 81q0 61 37 61q8 0 57 -31q96 -61 209 -61q227 0 227 463q0 224 -106 440q-129 260 -328 260q-148 0 -148 -137
q0 -123 -10 -448q27 2 110 12q70 8 106 8q46 0 46 -31q0 -63 -45 -63q5 0 -66 6t-153 6l-6 -483q0 -34 -21.5 -61t-54.5 -27h-41q-41 0 -41 45q0 41 8 195q7 126 19 329q-104 -4 -107 -4q-43 0 -43 31q0 29 39 30z" />
    <glyph glyph-name="dcroat" unicode="&#x111;" horiz-adv-x="694" 
d="M602 1169q0 -6 -6 -129l-4 -92q28 2 90 2q47 0 47 -34q0 -42 -140 -41l-3 -76q-17 -364 -17 -480q0 -144 7.5 -207l7.5 -63q0 -57 -80 -57q-50 0 -58 53q-71 -59 -143 -59q-118 0 -180 109q-51 89 -51 216q0 120 60 226q71 125 181 125q75 0 148 -29q8 137 12 244
q-19 -1 -249 -1q-41 0 -41 27q0 20 30 34q25 11 48 11l215 -2q3 111 3 209q0 21 -18 21q-19 0 -58 -14.5t-59 -14.5q-72 0 -72 51q0 29 39 29h240q51 0 51 -58zM459 567q-56 43 -103 43q-157 0 -157 -311q0 -248 147 -248q49 0 98 49q15 244 15 467z" />
    <glyph glyph-name="glyph250" unicode="&#x128;" horiz-adv-x="686" 
d="M436 1169q0 -8 -8 -206.5t-8 -311.5q0 -154 5 -374l5 -203q1 -10 0 -8q0 -58 -21 -68q-9 -4 -79 -4q-64 0 -64 67q0 10 15.5 273.5t15.5 333.5q0 80 -2 239.5t-2 239.5q0 24 -27 24q-29 0 -95.5 -18t-98.5 -18q-43 0 -43 36q0 56 84 56h249q74 0 74 -58zM545 1492
q0 -58 -50 -103.5t-108 -45.5q-51 0 -106 57t-64 57q-14 0 -14 -20q0 -10 3 -30t3 -30q0 -47 -37 -47t-37 41q0 59 27 104q33 54 88 54q43 0 99.5 -54.5t78.5 -54.5q29 0 39.5 56.5t44.5 56.5q33 0 33 -41z" />
    <glyph glyph-name="glyph251" unicode="&#x129;" horiz-adv-x="459" 
d="M344 49q0 -57 -80 -57q-63 0 -63 47v126q0 69 9 208.5t9 208.5q0 20 -18 20q-21 0 -62.5 -15.5t-62.5 -15.5q-51 0 -51 39q0 47 96 47h145q70 0 70 -41q0 -55 -4 -164.5t-4 -164.5q0 -129 4 -166q1 -9 7 -36q5 -23 5 -36zM445 903q0 -58 -50 -103.5t-108 -45.5
q-51 0 -106 57t-64 57q-14 0 -14 -20q0 -10 3 -30t3 -30q0 -47 -37 -47t-37 41q0 59 27 104q33 54 88 54q43 0 99.5 -54.5t78.5 -54.5q29 0 39.5 56.5t44.5 56.5q33 0 33 -41z" />
    <glyph glyph-name="dotlessi" unicode="&#x131;" horiz-adv-x="459" 
d="M344 49q0 -57 -80 -57q-63 0 -63 47v126q0 69 9 208.5t9 208.5q0 20 -18 20q-21 0 -62.5 -15.5t-62.5 -15.5q-51 0 -51 39q0 47 96 47h145q70 0 70 -41q0 -55 -4 -164.5t-4 -164.5q0 -129 4 -166q1 -9 7 -36q5 -23 5 -36z" />
    <glyph glyph-name="Lslash" unicode="&#x141;" horiz-adv-x="1167" 
d="M1100 426q0 -14 -13 -167q-3 -59 -16 -175q-13 -80 -96 -80q-35 0 -105.5 -3t-105.5 -3q-26 0 -449 6q-45 1 -54 23q-5 13 -5 34q0 11 6 162q9 217 12 334q-158 -47 -163 -47q-31 0 -31 29q0 23 29 32l167 50q19 427 19 520q0 28 -27 28q-28 0 -85 -15t-87 -15
q-55 0 -55 41q0 47 63 47h246q90 0 90 -58q0 -116 -20 -501q138 53 155 53q37 0 37 -55q0 -29 -34 -39q-17 -3 -50 -8q-42 -8 -112 -23q-25 -434 -25 -522q0 -17 19 -17q60 0 179 8.5t179 8.5q32 0 96.5 -4t96.5 -4q40 0 40 47q0 48 -4 143t-4 143q0 70 64 70q15 0 29 -14
t14 -29z" />
    <glyph glyph-name="lslash" unicode="&#x142;" horiz-adv-x="406" 
d="M37 1227h182q80 0 80 -53q0 -70 -10 -210t-10 -210q73 73 90 73q13 0 27 -19.5t14 -33.5q0 -21 -55 -56q-29 -18 -79 -52v-617q0 -36 -16 -47q-12 -8 -51 -8q-44 0 -60 15.5t-16 58.5q0 256 8 491q-107 -92 -125 -92q-22 0 -22 31q0 17 14 28l135 109q21 533 21 514
q0 20 -17 20q-28 0 -83 -18t-84 -18q-54 0 -54 43q0 51 111 51z" />
    <glyph glyph-name="OE" unicode="&#x152;" horiz-adv-x="2105" 
d="M1176 580q0 -8 1 -24t1 -24q18 -2 182 -2q97 0 291 7.5t291 7.5q45 0 45 -35q0 -36 -52 -54q-38 -14 -82 -14h-223q-64 0 -191 13.5t-190 13.5q-44 0 -67 -4q25 -179 122 -294q110 -132 281 -132q179 0 287 86q49 39 74 39q20 0 35.5 -23.5t15.5 -44.5q0 -28 -83 -71
q-105 -54 -257 -54q-401 0 -551 281q-148 -281 -473 -281q-278 0 -429 190q-120 151 -120 345q0 315 176 536q169 213 393 213q281 0 439 -305q74 144 215 231t303 87q105 0 192 -16q144 -27 144 -89q0 -57 -50 -57q-13 0 -123 49t-184 49q-230 0 -335 -210
q-78 -158 -78 -414zM1032 561q0 312 -153 497q-119 144 -228 144q-147 0 -273 -191q-134 -203 -134 -485q0 -210 94 -343q107 -152 309 -152q189 0 296 178q89 149 89 352z" />
    <glyph glyph-name="oe" unicode="&#x153;" horiz-adv-x="1096" 
d="M1040 143q0 -66 -92 -116q-81 -43 -153 -43q-161 0 -236 122q-77 -120 -203 -120q-140 0 -219 105q-71 94 -71 239q0 138 82 235q86 103 221 103q136 0 223 -129q94 123 229 123q166 0 166 -140q0 -129 -110 -219q-102 -83 -236 -88q6 -74 49 -122q46 -52 119 -52
q61 0 121 67.5t71 67.5q39 0 39 -33zM868 555q0 57 -43 57q-89 0 -143 -98q-45 -81 -45 -178q0 -12 1 -35.5t1 -34.5q102 17 167 102q62 82 62 187zM512 403q0 215 -145 215q-84 0 -126 -109q-30 -79 -30 -179q0 -123 20 -182q33 -103 129 -103q152 0 152 358z" />
    <glyph glyph-name="Scaron" unicode="&#x160;" horiz-adv-x="1165" 
d="M1055 827q0 -65 -54 -65q-67 0 -67 96q0 41 3 123t3 123q0 29 -66 58q-74 32 -194 32q-201 0 -338 -71q-174 -90 -174 -273q0 -148 258 -246l238 -90q235 -89 235 -276q0 -128 -124 -202q-105 -63 -243 -63q-189 0 -293 41q-92 36 -92 78q0 49 54 49q29 0 104 -35
q144 -67 254 -67q85 0 150 37q79 45 79 123q0 74 -53 118q-35 30 -157 76q-277 106 -346 147q-197 119 -197 294q0 148 131 265q173 154 508 154q284 0 315 -112q66 -239 66 -314zM776 1556q0 -11 -22 -32q-81 -78 -116.5 -132.5t-53.5 -54.5q-32 0 -64 43q-61 81 -151 146
q-31 22 -31 35q0 18 41 18q56 0 131 -59.5t76 -59.5t62.5 56.5t103.5 56.5q24 0 24 -17z" />
    <glyph glyph-name="scaron" unicode="&#x161;" horiz-adv-x="721" 
d="M637 438q0 -53 -43 -53q-40 0 -49 48q-1 4 -4 80q-2 50 -2 62q0 35 -123 35q-85 0 -153 -29q-89 -38 -89 -112q0 -67 148 -111l120 -36q152 -46 152 -166q0 -77 -78 -127q-69 -43 -151 -43q-230 0 -230 84q0 47 41 47q15 0 81.5 -37t117.5 -37q121 0 121 80q0 45 -109 81
q-167 55 -202 74q-109 61 -109 166t118 174q89 52 226 52q117 0 156 -47q24 -29 55 -154q6 -24 6 -31zM573 967q0 -11 -22 -33q-84 -82 -118 -134t-52 -52q-31 0 -64 43q-59 78 -151 145q-31 23 -31 35q0 18 41 18q56 0 131 -59.5t76 -59.5q2 0 63.5 56.5t102.5 56.5
q24 0 24 -16z" />
    <glyph glyph-name="glyph252" unicode="&#x168;" horiz-adv-x="1370" 
d="M1133 1147q0 -79 -6.5 -236.5t-6.5 -236.5q0 -103 3 -309.5t3 -309.5q0 -18 -14 -36.5t-46 -20.5q30 2 -54 2q-45 0 -45 45q0 25 7 181l38 829q1 26 -11 26q-38 0 -90 -157q-117 -350 -233 -631q-128 -309 -264 -309q-148 0 -148 157q0 167 5 500t5 500q0 30 -26 30
q-9 0 -125.5 -17t-159.5 -17t-43 45t66 45h364q72 0 72 -78q0 -171 -15.5 -522t-15.5 -400q0 -149 53 -149q92 0 209 336q60 174 213 577q94 248 187 248q78 0 78 -92zM905 1492q0 -58 -50 -103.5t-108 -45.5q-51 0 -106 57t-64 57q-14 0 -14 -20q0 -10 3 -30t3 -30
q0 -47 -37 -47t-37 41q0 59 27 104q33 54 88 54q43 0 99.5 -54.5t78.5 -54.5q29 0 39.5 56.5t44.5 56.5q33 0 33 -41z" />
    <glyph glyph-name="glyph253" unicode="&#x169;" horiz-adv-x="813" 
d="M682 199q0 -83 8 -115q10 -40 10 -45q0 -22 -40 -36q-31 -11 -58 -11q-31 0 -40 27q-3 11 -3 53q-32 -31 -85 -57q-58 -29 -97 -29q-197 0 -197 204v-1v2v2l1 10l4 55l14 219q2 31 2 107q0 20 -17 20q-26 0 -73.5 -19.5t-71.5 -19.5q-53 0 -53 41q0 51 96 51h182
q70 0 70 -41q0 -138 -15 -327q-6 -75 -6 -121q0 -113 88 -113q94 0 156 90q0 28 -4 445q-1 82 106 82q35 0 35 -39q0 -72 -6 -217t-6 -217zM634 903q0 -58 -50 -103.5t-108 -45.5q-51 0 -106 57t-64 57q-14 0 -14 -20q0 -10 3 -30t3 -30q0 -47 -37 -47t-37 41q0 59 27 104
q33 54 88 54q43 0 99.5 -54.5t78.5 -54.5q29 0 39.5 56.5t44.5 56.5q33 0 33 -41z" />
    <glyph glyph-name="Ydieresis" unicode="&#x178;" horiz-adv-x="1311" 
d="M1116 1149q0 -18 -8 -159l-35 -643q-8 -157 -8 -179q0 -114 5 -287l5 -166q1 -23 -12 -44q-15 -25 -45 -28q8 1 -57 1q-50 0 -50 49q0 243 37 768l26 376q11 170 11 199q0 39 -12 39q-20 0 -74 -133q-146 -363 -272 -659q-77 -181 -122 -234q-53 -63 -124 -63
q-66 0 -103 49q-34 44 -34 112q0 21 7 134q38 655 38 823q0 67 -27 67q-9 0 -63 -12q-141 -31 -217 -31q-45 0 -45 46q0 24 48 40q39 13 70 13h279q98 0 98 -76q0 -100 -26 -495l-19 -295q-8 -129 -8 -162q0 -136 45 -136q43 0 131 224q118 301 192 476q158 372 217 434
q40 42 93 42q26 0 44 -33q15 -29 15 -57zM897 1419q0 -76 -96 -76q-76 0 -76 99q0 104 90 104q41 0 64 -45q18 -37 18 -82zM590 1434q0 -91 -76 -91q-38 0 -68 22.5t-30 59.5q0 44 20 79q23 42 64 42t67 -36q23 -33 23 -76z" />
    <glyph glyph-name="Zcaron" unicode="&#x17d;" horiz-adv-x="1143" 
d="M1165 39q0 -35 -28 -33q1 -1 1 -0.5t-2 0.5h-5l-138 3q-154 3 -325 3q-82 0 -245.5 -6t-245.5 -6q-42 0 -42 20q0 12 5.5 26t103.5 174q74 120 215 347l200 321q37 61 115 181q25 36 25 51q0 31 -256 31q-9 0 -334 2q-59 0 -59 -57v-293q0 -84 -41 -84q-54 0 -54 82
q0 21 15 143q9 75 30 225q3 20 20 50q14 10 58 10q62 0 186.5 -6t186.5 -6q60 0 180 3t180 3q90 0 90 -33q0 -23 -28 -66q-150 -229 -347 -546q-288 -461 -288 -500q0 -11 18 -10h-1h2l8 2l28 3q31 4 135 15q166 18 240 18q202 0 308 -18q89 -15 89 -31v-18zM764 1556
q0 -10 -23 -32q-77 -73 -116 -133q-35 -54 -54 -54q-31 0 -63 43q-58 78 -152 146q-30 22 -30 35q0 18 41 18q56 0 131 -59.5l75 -59.5q2 0 63.5 56.5t102.5 56.5q25 0 25 -17z" />
    <glyph glyph-name="zcaron" unicode="&#x17e;" horiz-adv-x="727" 
d="M666 66q0 -31 -33 -50q-28 -16 -62 -16q-26 0 -78.5 4t-78.5 4q-40 0 -119 -7t-119 -7q-45 0 -45 29q0 10 8 22q37 55 110 168q113 182 218 385q-90 -12 -150 -12q-20 0 -59 3t-59 3q-23 0 -23 -29q0 -23 5 -69.5t5 -69.5q0 -88 -67 -88q-29 0 -29 33q0 38 7 112.5
t7 112.5q0 61 72 61q31 0 93 -1t93 -1q68 0 155 6.5t83 6.5q35 0 35 -17t-31 -63q-108 -160 -301 -525q101 10 205 35q71 17 106 17q52 0 52 -47zM586 967q0 -11 -23 -33q-82 -79 -116.5 -132.5t-53.5 -53.5q-30 0 -63 43q-57 76 -152 145q-31 23 -31 35q0 18 41 18
q57 0 132 -59.5l75 -59.5q2 0 64 56.5t102 56.5q25 0 25 -16z" />
    <glyph glyph-name="florin" unicode="&#x192;" horiz-adv-x="610" 
d="M504 154q0 -295 -104 -492q-83 -158 -148 -158q-81 0 -112 341q-17 179 -17 401q0 483 35 776q10 84 10 119q0 20 -16 20q-25 0 -75 -13t-75 -13q-43 0 -43 39q0 24 30 40q26 13 52 13h203q56 0 55 -51q1 1 0 1l-1 -3l-1 -10q-5 -38 -31 -306q-33 -342 -33 -602
q0 -142 9 -361q3 -81 15 -242q7 -59 15 -59q34 0 79 165q50 183 50 384q0 281 -67 439q-25 59 -25 63q0 68 41 68q60 0 108 -171q46 -167 46 -388z" />
    <glyph glyph-name="glyph254" unicode="&#x1a0;" horiz-adv-x="1264" 
d="M1180 557q0 -249 -150 -415q-156 -171 -403 -171q-274 0 -424 188q-119 150 -119 343q0 313 174 530q169 211 389 211q229 0 387 -222q146 -205 146 -464zM1022 557q0 307 -153 491q-118 142 -226 142q-146 0 -270 -189q-131 -200 -131 -479q0 -209 91 -340
q105 -151 306 -151q189 0 295 176q88 147 88 350zM960 990q-23 0 -23 21q0 16 35 66q39 53 47 88q3 38 13 112q15 68 67 68q77 0 77 -66q0 -54 -85 -171q-88 -118 -131 -118z" />
    <glyph glyph-name="glyph255" unicode="&#x1a1;" horiz-adv-x="761" 
d="M666 346q0 -146 -76 -248q-83 -112 -225 -112q-139 0 -219 103q-72 94 -72 237q0 137 80 233q85 103 219 103q293 0 293 -316zM528 401q0 211 -157 211q-83 0 -124 -108q-30 -78 -30 -178q0 -122 19 -180q33 -101 129 -101q163 0 163 356zM572 429q-23 0 -23 21
q0 16 35 66q39 53 47 88q3 38 13 112q15 68 67 68q77 0 77 -66q0 -54 -85 -171q-88 -118 -131 -118z" />
    <glyph glyph-name="glyph256" unicode="&#x1af;" horiz-adv-x="1370" 
d="M1133 1147q0 -79 -6.5 -236.5t-6.5 -236.5q0 -103 3 -309.5t3 -309.5q0 -18 -14 -36.5t-46 -20.5q30 2 -54 2q-45 0 -45 45q0 25 7 181l38 829q1 26 -11 26q-38 0 -90 -157q-117 -350 -233 -631q-128 -309 -264 -309q-148 0 -148 157q0 167 5 500t5 500q0 30 -26 30
q-9 0 -125.5 -17t-159.5 -17t-43 45t66 45h364q72 0 72 -78q0 -171 -15.5 -522t-15.5 -400q0 -149 53 -149q92 0 209 336q60 174 213 577q94 248 187 248q78 0 78 -92zM1100 990q-23 0 -23 21q0 16 35 66q39 53 47 88q3 38 13 112q15 68 67 68q77 0 77 -66q0 -54 -85 -171
q-88 -118 -131 -118z" />
    <glyph glyph-name="glyph257" unicode="&#x1b0;" horiz-adv-x="857" 
d="M682 199q0 -83 8 -115q10 -40 10 -45q0 -22 -40 -36q-31 -11 -58 -11q-31 0 -40 27q-3 11 -3 53q-32 -31 -85 -57q-58 -29 -97 -29q-197 0 -197 204v-1v2v2l1 10l4 55l14 219q2 31 2 107q0 20 -17 20q-26 0 -73.5 -19.5t-71.5 -19.5q-53 0 -53 41q0 51 96 51h182
q70 0 70 -41q0 -138 -15 -327q-6 -75 -6 -121q0 -113 88 -113q94 0 156 90q0 28 -4 445q-1 82 106 82q35 0 35 -39q0 -72 -6 -217t-6 -217zM662 429q-23 0 -23 21q0 16 35 66q39 53 47 88q3 38 13 112q15 68 67 68q77 0 77 -66q0 -54 -85 -171q-88 -118 -131 -118z" />
    <glyph glyph-name="circumflex" unicode="&#x2c6;" horiz-adv-x="584" 
d="M506 760q0 -19 -37 -19q-58 0 -127 59.5t-72 59.5q-4 0 -65.5 -56t-93.5 -56q-27 0 -27 16q0 10 22 35q41 41 115 131q34 53 53 53q25 0 58 -43q47 -61 147 -145q27 -22 27 -35z" />
    <glyph glyph-name="caron" unicode="&#x2c7;" horiz-adv-x="584" 
d="M514 967q0 -11 -22 -33q-84 -82 -118 -134t-52 -52q-32 0 -64 43q-56 74 -152 145q-30 22 -30 35q0 18 41 18q56 0 131 -59.5t76 -59.5t62.5 56.5t102.5 56.5q25 0 25 -16z" />
    <glyph glyph-name="breve" unicode="&#x2d8;" horiz-adv-x="584" 
d="M489 915q0 -48 -40 -95q-55 -64 -158 -64q-56 0 -96.5 41.5t-40.5 97.5q0 51 22 51q3 0 32.5 -51t84.5 -51q54 0 103.5 54t62.5 54q30 0 30 -37z" />
    <glyph glyph-name="dotaccent" unicode="&#x2d9;" horiz-adv-x="584" 
d="M369 848q0 -84 -66 -84q-88 0 -88 76q0 38 19 72q22 40 57 40q38 0 59 -35q19 -29 19 -69z" />
    <glyph glyph-name="ring" unicode="&#x2da;" horiz-adv-x="584" 
d="M430 881q0 -54 -40 -90.5t-95 -36.5q-58 0 -94.5 34t-36.5 91q0 60 42.5 104.5t102.5 44.5q59 0 92 -46q29 -40 29 -101zM369 889q0 31 -19 57.5t-49 26.5q-72 0 -72 -92q0 -70 70 -70t70 78z" />
    <glyph glyph-name="ogonek" unicode="&#x2db;" horiz-adv-x="584" 
d="M481 -274q0 -56 -112 -56q-78 0 -133 40q-60 45 -60 120q0 59 49 126q43 58 62 58q18 0 12 -18q-29 -94 -29 -129q0 -125 74 -125q16 0 46 10t46 10q45 0 45 -36z" />
    <glyph glyph-name="tilde" unicode="&#x2dc;" horiz-adv-x="584" 
d="M504 903q0 -58 -50 -103.5t-108 -45.5q-51 0 -106 57t-64 57q-14 0 -14 -20q0 -10 3 -30t3 -30q0 -47 -37 -47t-37 41q0 59 27 104q33 54 88 54q43 0 99.5 -54.5t78.5 -54.5q29 0 39.5 56.5t44.5 56.5q33 0 33 -41z" />
    <glyph glyph-name="hungarumlaut" unicode="&#x2dd;" horiz-adv-x="584" 
d="M580 932q0 -36 -89 -111.5t-122 -75.5q-19 0 -19 15t23 41q70 79 104 131q30 45 58 45q45 0 45 -45zM362 932q0 -36 -88 -111.5t-122 -75.5q-19 0 -19 15q0 16 23 41q67 72 102 131q27 45 59 45q45 0 45 -45z" />
    <glyph glyph-name="glyph258" unicode="&#x1ea0;" horiz-adv-x="1272" 
d="M1065 72q1 -49 -22 -63q-15 -9 -66 -9q-74 0 -74 68l7.5 136t7.5 236v29q-61 -183 -148 -308q-125 -177 -270 -177q-155 0 -267 126q-133 150 -133 433q0 276 165 488q178 229 446 229q266 0 266 -93q0 -22 -16 -50q-19 -30 -39 -30q-17 0 -114 54.5t-175 54.5
q-164 0 -282 -239q-107 -217 -107 -482q0 -184 79 -310q76 -122 177 -122q157 0 295 271q120 236 120 415q0 19 -1 56.5t-1 56.5q0 35 20 65.5t54 30.5h27q47 0 47 -86q0 -13 -7 -125.5t-7 -196.5q0 -152 9 -309zM703 -249q0 -40 -19 -70q-23 -34 -61 -34q-82 0 -82 92
q0 45 22 86q27 49 68 49q72 0 72 -123z" />
    <glyph glyph-name="glyph259" unicode="&#x1ea1;" 
d="M608 334v-264q0 -55 -21 -67q-11 -7 -71 -7q-34 0 -41 90q-135 -100 -244 -100q-68 0 -110.5 43.5t-42.5 111.5q0 153 133 224q91 49 270 67q0 96 -9 125q-21 64 -95 64q-71 0 -106 -49q-13 -18 -38 -91q-17 -49 -45 -49q-57 0 -57 66q0 81 77 131q67 45 152 45
q248 0 248 -340zM195 188q0 -120 104 -120q87 0 174 82q8 63 8 237q-286 -48 -286 -199zM417 -249q0 -40 -19 -70q-23 -34 -61 -34q-82 0 -82 92q0 45 22 86q27 49 68 49q72 0 72 -123z" />
    <glyph glyph-name="glyph260" unicode="&#x1ea2;" horiz-adv-x="1272" 
d="M1065 72q1 -49 -22 -63q-15 -9 -66 -9q-74 0 -74 68l7.5 136t7.5 236v29q-61 -183 -148 -308q-125 -177 -270 -177q-155 0 -267 126q-133 150 -133 433q0 276 165 488q178 229 446 229q266 0 266 -93q0 -22 -16 -50q-19 -30 -39 -30q-17 0 -114 54.5t-175 54.5
q-164 0 -282 -239q-107 -217 -107 -482q0 -184 79 -310q76 -122 177 -122q157 0 295 271q120 236 120 415q0 19 -1 56.5t-1 56.5q0 35 20 65.5t54 30.5h27q47 0 47 -86q0 -13 -7 -125.5t-7 -196.5q0 -152 9 -309zM832 1470q0 -51 -41 -75.5t-81 -48.5q1 -11 15 -26
q-1 -10 -21 -10q-10 0 -25 21t-15 31q0 32 43.5 59t43.5 60q0 54 -54 54q-26 0 -29 -13q2 13 2 -30q0 -26 -33 -26q-34 0 -34 18q0 104 93 104q55 0 95.5 -32t40.5 -86z" />
    <glyph glyph-name="glyph261" unicode="&#x1ea3;" 
d="M608 334v-264q0 -55 -21 -67q-11 -7 -71 -7q-34 0 -41 90q-135 -100 -244 -100q-68 0 -110.5 43.5t-42.5 111.5q0 153 133 224q91 49 270 67q0 96 -9 125q-21 64 -95 64q-71 0 -106 -49q-13 -18 -38 -91q-17 -49 -45 -49q-57 0 -57 66q0 81 77 131q67 45 152 45
q248 0 248 -340zM195 188q0 -120 104 -120q87 0 174 82q8 63 8 237q-286 -48 -286 -199zM488 897q0 -51 -41 -75.5t-81 -48.5q1 -11 15 -26q-1 -10 -21 -10q-10 0 -25 21t-15 31q0 32 43.5 59t43.5 60q0 54 -54 54q-26 0 -29 -13q2 13 2 -30q0 -26 -33 -26q-34 0 -34 18
q0 104 93 104q55 0 95.5 -32t40.5 -86z" />
    <glyph glyph-name="glyph262" unicode="&#x1ea4;" horiz-adv-x="1272" 
d="M916 1340q0 -19 -37 -19q-58 0 -127 59.5t-72 59.5q-4 0 -65.5 -56t-93.5 -56q-27 0 -27 16q0 10 22 35q41 41 115 131q34 53 53 53q25 0 58 -43q47 -61 147 -145q27 -22 27 -35zM1065 72q1 -49 -22 -63q-15 -9 -66 -9q-74 0 -74 68l7.5 136t7.5 236v29
q-61 -183 -148 -308q-125 -177 -270 -177q-155 0 -267 126q-133 150 -133 433q0 276 165 488q178 229 446 229q266 0 266 -93q0 -22 -16 -50q-19 -30 -39 -30q-17 0 -114 54.5t-175 54.5q-164 0 -282 -239q-107 -217 -107 -482q0 -184 79 -310q76 -122 177 -122
q157 0 295 271q120 236 120 415q0 19 -1 56.5t-1 56.5q0 35 20 65.5t54 30.5h27q47 0 47 -86q0 -13 -7 -125.5t-7 -196.5q0 -152 9 -309zM828 1779q0 -38 -104.5 -108.5t-145.5 -70.5q-26 0 -26 19q0 15 32 41q82 67 138 129q41 45 53 45q53 0 53 -55z" />
    <glyph glyph-name="glyph263" unicode="&#x1ea5;" 
d="M608 334v-264q0 -55 -21 -67q-11 -7 -71 -7q-34 0 -41 90q-135 -100 -244 -100q-68 0 -110.5 43.5t-42.5 111.5q0 153 133 224q91 49 270 67q0 96 -9 125q-21 64 -95 64q-71 0 -106 -49q-13 -18 -38 -91q-17 -49 -45 -49q-57 0 -57 66q0 81 77 131q67 45 152 45
q248 0 248 -340zM195 188q0 -120 104 -120q87 0 174 82q8 63 8 237q-286 -48 -286 -199zM579 760q0 -19 -37 -19q-58 0 -127 59.5t-72 59.5q-4 0 -65.5 -56t-93.5 -56q-27 0 -27 16q0 10 22 35q41 41 115 131q34 53 53 53q25 0 58 -43q47 -61 147 -145q27 -22 27 -35z
M491 1199q0 -38 -104.5 -108.5t-145.5 -70.5q-26 0 -26 19q0 15 32 41q82 67 138 129q41 45 53 45q53 0 53 -55z" />
    <glyph glyph-name="glyph264" unicode="&#x1ea6;" horiz-adv-x="1272" 
d="M916 1340q0 -19 -37 -19q-58 0 -127 59.5t-72 59.5q-4 0 -65.5 -56t-93.5 -56q-27 0 -27 16q0 10 22 35q41 41 115 131q34 53 53 53q25 0 58 -43q47 -61 147 -145q27 -22 27 -35zM1065 72q1 -49 -22 -63q-15 -9 -66 -9q-74 0 -74 68l7.5 136t7.5 236v29
q-61 -183 -148 -308q-125 -177 -270 -177q-155 0 -267 126q-133 150 -133 433q0 276 165 488q178 229 446 229q266 0 266 -93q0 -22 -16 -50q-19 -30 -39 -30q-17 0 -114 54.5t-175 54.5q-164 0 -282 -239q-107 -217 -107 -482q0 -184 79 -310q76 -122 177 -122
q157 0 295 271q120 236 120 415q0 19 -1 56.5t-1 56.5q0 35 20 65.5t54 30.5h27q47 0 47 -86q0 -13 -7 -125.5t-7 -196.5q0 -152 9 -309zM825 1619q0 -19 -27 -19q-40 0 -142 69q-106 72 -106 110q0 55 51 55q10 0 54 -45q76 -79 137 -129q33 -27 33 -41z" />
    <glyph glyph-name="glyph265" unicode="&#x1ea7;" 
d="M608 334v-264q0 -55 -21 -67q-11 -7 -71 -7q-34 0 -41 90q-135 -100 -244 -100q-68 0 -110.5 43.5t-42.5 111.5q0 153 133 224q91 49 270 67q0 96 -9 125q-21 64 -95 64q-71 0 -106 -49q-13 -18 -38 -91q-17 -49 -45 -49q-57 0 -57 66q0 81 77 131q67 45 152 45
q248 0 248 -340zM195 188q0 -120 104 -120q87 0 174 82q8 63 8 237q-286 -48 -286 -199zM579 760q0 -19 -37 -19q-58 0 -127 59.5t-72 59.5q-4 0 -65.5 -56t-93.5 -56q-27 0 -27 16q0 10 22 35q41 41 115 131q34 53 53 53q25 0 58 -43q47 -61 147 -145q27 -22 27 -35z
M488 1039q0 -19 -27 -19q-40 0 -142 69q-106 72 -106 110q0 55 51 55q10 0 54 -45q76 -79 137 -129q33 -27 33 -41z" />
    <glyph glyph-name="glyph266" unicode="&#x1ea8;" horiz-adv-x="1272" 
d="M916 1340q0 -19 -37 -19q-58 0 -127 59.5t-72 59.5q-4 0 -65.5 -56t-93.5 -56q-27 0 -27 16q0 10 22 35q41 41 115 131q34 53 53 53q25 0 58 -43q47 -61 147 -145q27 -22 27 -35zM1065 72q1 -49 -22 -63q-15 -9 -66 -9q-74 0 -74 68l7.5 136t7.5 236v29
q-61 -183 -148 -308q-125 -177 -270 -177q-155 0 -267 126q-133 150 -133 433q0 276 165 488q178 229 446 229q266 0 266 -93q0 -22 -16 -50q-19 -30 -39 -30q-17 0 -114 54.5t-175 54.5q-164 0 -282 -239q-107 -217 -107 -482q0 -184 79 -310q76 -122 177 -122
q157 0 295 271q120 236 120 415q0 19 -1 56.5t-1 56.5q0 35 20 65.5t54 30.5h27q47 0 47 -86q0 -13 -7 -125.5t-7 -196.5q0 -152 9 -309zM927 1690q0 -51 -41 -75.5t-81 -48.5q1 -11 15 -26q-1 -10 -21 -10q-10 0 -25 21t-15 31q0 32 43.5 59t43.5 60q0 54 -54 54
q-26 0 -29 -13q2 13 2 -30q0 -26 -33 -26q-34 0 -34 18q0 104 93 104q55 0 95.5 -32t40.5 -86z" />
    <glyph glyph-name="glyph267" unicode="&#x1ea9;" 
d="M608 334v-264q0 -55 -21 -67q-11 -7 -71 -7q-34 0 -41 90q-135 -100 -244 -100q-68 0 -110.5 43.5t-42.5 111.5q0 153 133 224q91 49 270 67q0 96 -9 125q-21 64 -95 64q-71 0 -106 -49q-13 -18 -38 -91q-17 -49 -45 -49q-57 0 -57 66q0 81 77 131q67 45 152 45
q248 0 248 -340zM195 188q0 -120 104 -120q87 0 174 82q8 63 8 237q-286 -48 -286 -199zM579 760q0 -19 -37 -19q-58 0 -127 59.5t-72 59.5q-4 0 -65.5 -56t-93.5 -56q-27 0 -27 16q0 10 22 35q41 41 115 131q34 53 53 53q25 0 58 -43q47 -61 147 -145q27 -22 27 -35z
M590 1110q0 -51 -41 -75.5t-81 -48.5q1 -11 15 -26q-1 -10 -21 -10q-10 0 -25 21t-15 31q0 32 43.5 59t43.5 60q0 54 -54 54q-26 0 -29 -13q2 13 2 -30q0 -26 -33 -26q-34 0 -34 18q0 104 93 104q55 0 95.5 -32t40.5 -86z" />
    <glyph glyph-name="glyph268" unicode="&#x1eaa;" horiz-adv-x="1272" 
d="M916 1340q0 -19 -37 -19q-58 0 -127 59.5t-72 59.5q-4 0 -65.5 -56t-93.5 -56q-27 0 -27 16q0 10 22 35q41 41 115 131q34 53 53 53q25 0 58 -43q47 -61 147 -145q27 -22 27 -35zM1065 72q1 -49 -22 -63q-15 -9 -66 -9q-74 0 -74 68l7.5 136t7.5 236v29
q-61 -183 -148 -308q-125 -177 -270 -177q-155 0 -267 126q-133 150 -133 433q0 276 165 488q178 229 446 229q266 0 266 -93q0 -22 -16 -50q-19 -30 -39 -30q-17 0 -114 54.5t-175 54.5q-164 0 -282 -239q-107 -217 -107 -482q0 -184 79 -310q76 -122 177 -122
q157 0 295 271q120 236 120 415q0 19 -1 56.5t-1 56.5q0 35 20 65.5t54 30.5h27q47 0 47 -86q0 -13 -7 -125.5t-7 -196.5q0 -152 9 -309zM971 1783q0 -58 -50 -103.5t-108 -45.5q-51 0 -106 57t-64 57q-14 0 -14 -20q0 -10 3 -30t3 -30q0 -47 -37 -47t-37 41q0 59 27 104
q33 54 88 54q43 0 99.5 -54.5t78.5 -54.5q29 0 39.5 56.5t44.5 56.5q33 0 33 -41z" />
    <glyph glyph-name="glyph269" unicode="&#x1eab;" 
d="M608 334v-264q0 -55 -21 -67q-11 -7 -71 -7q-34 0 -41 90q-135 -100 -244 -100q-68 0 -110.5 43.5t-42.5 111.5q0 153 133 224q91 49 270 67q0 96 -9 125q-21 64 -95 64q-71 0 -106 -49q-13 -18 -38 -91q-17 -49 -45 -49q-57 0 -57 66q0 81 77 131q67 45 152 45
q248 0 248 -340zM195 188q0 -120 104 -120q87 0 174 82q8 63 8 237q-286 -48 -286 -199zM579 760q0 -19 -37 -19q-58 0 -127 59.5t-72 59.5q-4 0 -65.5 -56t-93.5 -56q-27 0 -27 16q0 10 22 35q41 41 115 131q34 53 53 53q25 0 58 -43q47 -61 147 -145q27 -22 27 -35z
M634 1203q0 -58 -50 -103.5t-108 -45.5q-51 0 -106 57t-64 57q-14 0 -14 -20q0 -10 3 -30t3 -30q0 -47 -37 -47t-37 41q0 59 27 104q33 54 88 54q43 0 99.5 -54.5t78.5 -54.5q29 0 39.5 56.5t44.5 56.5q33 0 33 -41z" />
    <glyph glyph-name="glyph270" unicode="&#x1eac;" horiz-adv-x="1272" 
d="M916 1340q0 -19 -37 -19q-58 0 -127 59.5t-72 59.5q-4 0 -65.5 -56t-93.5 -56q-27 0 -27 16q0 10 22 35q41 41 115 131q34 53 53 53q25 0 58 -43q47 -61 147 -145q27 -22 27 -35zM1065 72q1 -49 -22 -63q-15 -9 -66 -9q-74 0 -74 68l7.5 136t7.5 236v29
q-61 -183 -148 -308q-125 -177 -270 -177q-155 0 -267 126q-133 150 -133 433q0 276 165 488q178 229 446 229q266 0 266 -93q0 -22 -16 -50q-19 -30 -39 -30q-17 0 -114 54.5t-175 54.5q-164 0 -282 -239q-107 -217 -107 -482q0 -184 79 -310q76 -122 177 -122
q157 0 295 271q120 236 120 415q0 19 -1 56.5t-1 56.5q0 35 20 65.5t54 30.5h27q47 0 47 -86q0 -13 -7 -125.5t-7 -196.5q0 -152 9 -309zM703 -249q0 -40 -19 -70q-23 -34 -61 -34q-82 0 -82 92q0 45 22 86q27 49 68 49q72 0 72 -123z" />
    <glyph glyph-name="glyph271" unicode="&#x1ead;" 
d="M608 334v-264q0 -55 -21 -67q-11 -7 -71 -7q-34 0 -41 90q-135 -100 -244 -100q-68 0 -110.5 43.5t-42.5 111.5q0 153 133 224q91 49 270 67q0 96 -9 125q-21 64 -95 64q-71 0 -106 -49q-13 -18 -38 -91q-17 -49 -45 -49q-57 0 -57 66q0 81 77 131q67 45 152 45
q248 0 248 -340zM195 188q0 -120 104 -120q87 0 174 82q8 63 8 237q-286 -48 -286 -199zM579 760q0 -19 -37 -19q-58 0 -127 59.5t-72 59.5q-4 0 -65.5 -56t-93.5 -56q-27 0 -27 16q0 10 22 35q41 41 115 131q34 53 53 53q25 0 58 -43q47 -61 147 -145q27 -22 27 -35z
M417 -249q0 -40 -19 -70q-23 -34 -61 -34q-82 0 -82 92q0 45 22 86q27 49 68 49q72 0 72 -123z" />
    <glyph glyph-name="glyph272" unicode="&#x1eae;" horiz-adv-x="1272" 
d="M1065 72q1 -49 -22 -63q-15 -9 -66 -9q-74 0 -74 68l7.5 136t7.5 236v29q-61 -183 -148 -308q-125 -177 -270 -177q-155 0 -267 126q-133 150 -133 433q0 276 165 488q178 229 446 229q266 0 266 -93q0 -22 -16 -50q-19 -30 -39 -30q-17 0 -114 54.5t-175 54.5
q-164 0 -282 -239q-107 -217 -107 -482q0 -184 79 -310q76 -122 177 -122q157 0 295 271q120 236 120 415q0 19 -1 56.5t-1 56.5q0 35 20 65.5t54 30.5h27q47 0 47 -86q0 -13 -7 -125.5t-7 -196.5q0 -152 9 -309zM863 1519q0 -48 -40 -95q-55 -64 -158 -64q-56 0 -96.5 41.5
t-40.5 97.5q0 51 22 51q3 0 32.5 -51t84.5 -51q54 0 103.5 54t62.5 54q30 0 30 -37zM901 1799q0 -38 -104.5 -108.5t-145.5 -70.5q-26 0 -26 19q0 15 32 41q82 67 138 129q41 45 53 45q53 0 53 -55z" />
    <glyph glyph-name="glyph273" unicode="&#x1eaf;" 
d="M608 334v-264q0 -55 -21 -67q-11 -7 -71 -7q-34 0 -41 90q-135 -100 -244 -100q-68 0 -110.5 43.5t-42.5 111.5q0 153 133 224q91 49 270 67q0 96 -9 125q-21 64 -95 64q-71 0 -106 -49q-13 -18 -38 -91q-17 -49 -45 -49q-57 0 -57 66q0 81 77 131q67 45 152 45
q248 0 248 -340zM195 188q0 -120 104 -120q87 0 174 82q8 63 8 237q-286 -48 -286 -199zM543 919q0 -48 -40 -95q-55 -64 -158 -64q-56 0 -96.5 41.5t-40.5 97.5q0 51 22 51q3 0 32.5 -51t84.5 -51q54 0 103.5 54t62.5 54q30 0 30 -37zM581 1199q0 -38 -104.5 -108.5
t-145.5 -70.5q-26 0 -26 19q0 15 32 41q82 67 138 129q41 45 53 45q53 0 53 -55z" />
    <glyph glyph-name="glyph274" unicode="&#x1eb0;" horiz-adv-x="1272" 
d="M1065 72q1 -49 -22 -63q-15 -9 -66 -9q-74 0 -74 68l7.5 136t7.5 236v29q-61 -183 -148 -308q-125 -177 -270 -177q-155 0 -267 126q-133 150 -133 433q0 276 165 488q178 229 446 229q266 0 266 -93q0 -22 -16 -50q-19 -30 -39 -30q-17 0 -114 54.5t-175 54.5
q-164 0 -282 -239q-107 -217 -107 -482q0 -184 79 -310q76 -122 177 -122q157 0 295 271q120 236 120 415q0 19 -1 56.5t-1 56.5q0 35 20 65.5t54 30.5h27q47 0 47 -86q0 -13 -7 -125.5t-7 -196.5q0 -152 9 -309zM863 1519q0 -48 -40 -95q-55 -64 -158 -64q-56 0 -96.5 41.5
t-40.5 97.5q0 51 22 51q3 0 32.5 -51t84.5 -51q54 0 103.5 54t62.5 54q30 0 30 -37zM768 1639q0 -19 -27 -19q-40 0 -142 69q-106 72 -106 110q0 55 51 55q10 0 54 -45q76 -79 137 -129q33 -27 33 -41z" />
    <glyph glyph-name="glyph275" unicode="&#x1eb1;" 
d="M608 334v-264q0 -55 -21 -67q-11 -7 -71 -7q-34 0 -41 90q-135 -100 -244 -100q-68 0 -110.5 43.5t-42.5 111.5q0 153 133 224q91 49 270 67q0 96 -9 125q-21 64 -95 64q-71 0 -106 -49q-13 -18 -38 -91q-17 -49 -45 -49q-57 0 -57 66q0 81 77 131q67 45 152 45
q248 0 248 -340zM195 188q0 -120 104 -120q87 0 174 82q8 63 8 237q-286 -48 -286 -199zM543 919q0 -48 -40 -95q-55 -64 -158 -64q-56 0 -96.5 41.5t-40.5 97.5q0 51 22 51q3 0 32.5 -51t84.5 -51q54 0 103.5 54t62.5 54q30 0 30 -37zM448 1039q0 -19 -27 -19
q-40 0 -142 69q-106 72 -106 110q0 55 51 55q10 0 54 -45q76 -79 137 -129q33 -27 33 -41z" />
    <glyph glyph-name="glyph276" unicode="&#x1eb2;" horiz-adv-x="1272" 
d="M1065 72q1 -49 -22 -63q-15 -9 -66 -9q-74 0 -74 68l7.5 136t7.5 236v29q-61 -183 -148 -308q-125 -177 -270 -177q-155 0 -267 126q-133 150 -133 433q0 276 165 488q178 229 446 229q266 0 266 -93q0 -22 -16 -50q-19 -30 -39 -30q-17 0 -114 54.5t-175 54.5
q-164 0 -282 -239q-107 -217 -107 -482q0 -184 79 -310q76 -122 177 -122q157 0 295 271q120 236 120 415q0 19 -1 56.5t-1 56.5q0 35 20 65.5t54 30.5h27q47 0 47 -86q0 -13 -7 -125.5t-7 -196.5q0 -152 9 -309zM863 1519q0 -48 -40 -95q-55 -64 -158 -64q-56 0 -96.5 41.5
t-40.5 97.5q0 51 22 51q3 0 32.5 -51t84.5 -51q54 0 103.5 54t62.5 54q30 0 30 -37zM800 1710q0 -51 -41 -75.5t-81 -48.5q1 -11 15 -26q-1 -10 -21 -10q-10 0 -25 21t-15 31q0 32 43.5 59t43.5 60q0 54 -54 54q-26 0 -29 -13q2 13 2 -30q0 -26 -33 -26q-34 0 -34 18
q0 104 93 104q55 0 95.5 -32t40.5 -86z" />
    <glyph glyph-name="glyph277" unicode="&#x1eb3;" 
d="M608 334v-264q0 -55 -21 -67q-11 -7 -71 -7q-34 0 -41 90q-135 -100 -244 -100q-68 0 -110.5 43.5t-42.5 111.5q0 153 133 224q91 49 270 67q0 96 -9 125q-21 64 -95 64q-71 0 -106 -49q-13 -18 -38 -91q-17 -49 -45 -49q-57 0 -57 66q0 81 77 131q67 45 152 45
q248 0 248 -340zM195 188q0 -120 104 -120q87 0 174 82q8 63 8 237q-286 -48 -286 -199zM543 919q0 -48 -40 -95q-55 -64 -158 -64q-56 0 -96.5 41.5t-40.5 97.5q0 51 22 51q3 0 32.5 -51t84.5 -51q54 0 103.5 54t62.5 54q30 0 30 -37zM480 1110q0 -51 -41 -75.5t-81 -48.5
q1 -11 15 -26q-1 -10 -21 -10q-10 0 -25 21t-15 31q0 32 43.5 59t43.5 60q0 54 -54 54q-26 0 -29 -13q2 13 2 -30q0 -26 -33 -26q-34 0 -34 18q0 104 93 104q55 0 95.5 -32t40.5 -86z" />
    <glyph glyph-name="glyph278" unicode="&#x1eb4;" horiz-adv-x="1272" 
d="M1065 72q1 -49 -22 -63q-15 -9 -66 -9q-74 0 -74 68l7.5 136t7.5 236v29q-61 -183 -148 -308q-125 -177 -270 -177q-155 0 -267 126q-133 150 -133 433q0 276 165 488q178 229 446 229q266 0 266 -93q0 -22 -16 -50q-19 -30 -39 -30q-17 0 -114 54.5t-175 54.5
q-164 0 -282 -239q-107 -217 -107 -482q0 -184 79 -310q76 -122 177 -122q157 0 295 271q120 236 120 415q0 19 -1 56.5t-1 56.5q0 35 20 65.5t54 30.5h27q47 0 47 -86q0 -13 -7 -125.5t-7 -196.5q0 -152 9 -309zM863 1519q0 -48 -40 -95q-55 -64 -158 -64q-56 0 -96.5 41.5
t-40.5 97.5q0 51 22 51q3 0 32.5 -51t84.5 -51q54 0 103.5 54t62.5 54q30 0 30 -37zM954 1803q0 -58 -50 -103.5t-108 -45.5q-51 0 -106 57t-64 57q-14 0 -14 -20q0 -10 3 -30t3 -30q0 -47 -37 -47t-37 41q0 59 27 104q33 54 88 54q43 0 99.5 -54.5t78.5 -54.5
q29 0 39.5 56.5t44.5 56.5q33 0 33 -41z" />
    <glyph glyph-name="glyph279" unicode="&#x1eb5;" 
d="M608 334v-264q0 -55 -21 -67q-11 -7 -71 -7q-34 0 -41 90q-135 -100 -244 -100q-68 0 -110.5 43.5t-42.5 111.5q0 153 133 224q91 49 270 67q0 96 -9 125q-21 64 -95 64q-71 0 -106 -49q-13 -18 -38 -91q-17 -49 -45 -49q-57 0 -57 66q0 81 77 131q67 45 152 45
q248 0 248 -340zM195 188q0 -120 104 -120q87 0 174 82q8 63 8 237q-286 -48 -286 -199zM543 919q0 -48 -40 -95q-55 -64 -158 -64q-56 0 -96.5 41.5t-40.5 97.5q0 51 22 51q3 0 32.5 -51t84.5 -51q54 0 103.5 54t62.5 54q30 0 30 -37zM634 1203q0 -58 -50 -103.5
t-108 -45.5q-51 0 -106 57t-64 57q-14 0 -14 -20q0 -10 3 -30t3 -30q0 -47 -37 -47t-37 41q0 59 27 104q33 54 88 54q43 0 99.5 -54.5t78.5 -54.5q29 0 39.5 56.5t44.5 56.5q33 0 33 -41z" />
    <glyph glyph-name="glyph280" unicode="&#x1eb6;" horiz-adv-x="1272" 
d="M1065 72q1 -49 -22 -63q-15 -9 -66 -9q-74 0 -74 68l7.5 136t7.5 236v29q-61 -183 -148 -308q-125 -177 -270 -177q-155 0 -267 126q-133 150 -133 433q0 276 165 488q178 229 446 229q266 0 266 -93q0 -22 -16 -50q-19 -30 -39 -30q-17 0 -114 54.5t-175 54.5
q-164 0 -282 -239q-107 -217 -107 -482q0 -184 79 -310q76 -122 177 -122q157 0 295 271q120 236 120 415q0 19 -1 56.5t-1 56.5q0 35 20 65.5t54 30.5h27q47 0 47 -86q0 -13 -7 -125.5t-7 -196.5q0 -152 9 -309zM863 1519q0 -48 -40 -95q-55 -64 -158 -64q-56 0 -96.5 41.5
t-40.5 97.5q0 51 22 51q3 0 32.5 -51t84.5 -51q54 0 103.5 54t62.5 54q30 0 30 -37zM703 -249q0 -40 -19 -70q-23 -34 -61 -34q-82 0 -82 92q0 45 22 86q27 49 68 49q72 0 72 -123z" />
    <glyph glyph-name="glyph281" unicode="&#x1eb7;" 
d="M608 334v-264q0 -55 -21 -67q-11 -7 -71 -7q-34 0 -41 90q-135 -100 -244 -100q-68 0 -110.5 43.5t-42.5 111.5q0 153 133 224q91 49 270 67q0 96 -9 125q-21 64 -95 64q-71 0 -106 -49q-13 -18 -38 -91q-17 -49 -45 -49q-57 0 -57 66q0 81 77 131q67 45 152 45
q248 0 248 -340zM195 188q0 -120 104 -120q87 0 174 82q8 63 8 237q-286 -48 -286 -199zM543 919q0 -48 -40 -95q-55 -64 -158 -64q-56 0 -96.5 41.5t-40.5 97.5q0 51 22 51q3 0 32.5 -51t84.5 -51q54 0 103.5 54t62.5 54q30 0 30 -37zM417 -249q0 -40 -19 -70
q-23 -34 -61 -34q-82 0 -82 92q0 45 22 86q27 49 68 49q72 0 72 -123z" />
    <glyph glyph-name="glyph282" unicode="&#x1eb8;" horiz-adv-x="1217" 
d="M84 602q0 329 205 514q168 152 391 152q105 0 192 -16q144 -27 144 -89q0 -57 -49 -57q-14 0 -123 49t-185 49q-231 0 -335 -209q-80 -159 -80 -415q0 -8 1 -24t1 -24q21 -2 55 -2h132q96 0 289 7.5t290 7.5q45 0 45 -35q0 -36 -53 -54q-38 -14 -82 -14h-222
q-63 0 -189 13.5t-189 13.5q-47 0 -70 -4q24 -178 122 -294q112 -132 281 -132q180 0 285 86q48 39 76 39q20 0 35.5 -23.5t15.5 -44.5q0 -29 -82 -71q-105 -54 -258 -54q-309 0 -491 216q-152 181 -152 415zM733 -249q0 -40 -19 -70q-23 -34 -61 -34q-82 0 -82 92
q0 45 22 86q27 49 68 49q72 0 72 -123z" />
    <glyph glyph-name="glyph283" unicode="&#x1eb9;" horiz-adv-x="653" 
d="M596 143q0 -69 -92 -118q-79 -41 -156 -41q-132 0 -207 90q-71 85 -71 219q0 162 102 270q93 99 203 99q162 0 162 -140q0 -128 -104 -217q-97 -85 -228 -90q6 -73 44 -120q43 -54 113 -54q65 0 124 67.5t67 67.5q43 0 43 -33zM416 555q0 57 -37 57q-87 0 -138 -99
q-42 -81 -42 -177q0 -25 4 -70q99 17 158 104q55 80 55 185zM417 -249q0 -40 -19 -70q-23 -34 -61 -34q-82 0 -82 92q0 45 22 86q27 49 68 49q72 0 72 -123z" />
    <glyph glyph-name="glyph284" unicode="&#x1eba;" horiz-adv-x="1217" 
d="M84 602q0 329 205 514q168 152 391 152q105 0 192 -16q144 -27 144 -89q0 -57 -49 -57q-14 0 -123 49t-185 49q-231 0 -335 -209q-80 -159 -80 -415q0 -8 1 -24t1 -24q21 -2 55 -2h132q96 0 289 7.5t290 7.5q45 0 45 -35q0 -36 -53 -54q-38 -14 -82 -14h-222
q-63 0 -189 13.5t-189 13.5q-47 0 -70 -4q24 -178 122 -294q112 -132 281 -132q180 0 285 86q48 39 76 39q20 0 35.5 -23.5t15.5 -44.5q0 -29 -82 -71q-105 -54 -258 -54q-309 0 -491 216q-152 181 -152 415zM802 1470q0 -51 -41 -75.5t-81 -48.5q1 -11 15 -26
q-1 -10 -21 -10q-10 0 -25 21t-15 31q0 32 43.5 59t43.5 60q0 54 -54 54q-26 0 -29 -13q2 13 2 -30q0 -26 -33 -26q-34 0 -34 18q0 104 93 104q55 0 95.5 -32t40.5 -86z" />
    <glyph glyph-name="glyph285" unicode="&#x1ebb;" horiz-adv-x="653" 
d="M596 143q0 -69 -92 -118q-79 -41 -156 -41q-132 0 -207 90q-71 85 -71 219q0 162 102 270q93 99 203 99q162 0 162 -140q0 -128 -104 -217q-97 -85 -228 -90q6 -73 44 -120q43 -54 113 -54q65 0 124 67.5t67 67.5q43 0 43 -33zM416 555q0 57 -37 57q-87 0 -138 -99
q-42 -81 -42 -177q0 -25 4 -70q99 17 158 104q55 80 55 185zM488 897q0 -51 -41 -75.5t-81 -48.5q1 -11 15 -26q-1 -10 -21 -10q-10 0 -25 21t-15 31q0 32 43.5 59t43.5 60q0 54 -54 54q-26 0 -29 -13q2 13 2 -30q0 -26 -33 -26q-34 0 -34 18q0 104 93 104q55 0 95.5 -32
t40.5 -86z" />
    <glyph glyph-name="glyph286" unicode="&#x1ebc;" horiz-adv-x="1217" 
d="M84 602q0 329 205 514q168 152 391 152q105 0 192 -16q144 -27 144 -89q0 -57 -49 -57q-14 0 -123 49t-185 49q-231 0 -335 -209q-80 -159 -80 -415q0 -8 1 -24t1 -24q21 -2 55 -2h132q96 0 289 7.5t290 7.5q45 0 45 -35q0 -36 -53 -54q-38 -14 -82 -14h-222
q-63 0 -189 13.5t-189 13.5q-47 0 -70 -4q24 -178 122 -294q112 -132 281 -132q180 0 285 86q48 39 76 39q20 0 35.5 -23.5t15.5 -44.5q0 -29 -82 -71q-105 -54 -258 -54q-309 0 -491 216q-152 181 -152 415zM905 1492q0 -58 -50 -103.5t-108 -45.5q-51 0 -106 57t-64 57
q-14 0 -14 -20q0 -10 3 -30t3 -30q0 -47 -37 -47t-37 41q0 59 27 104q33 54 88 54q43 0 99.5 -54.5t78.5 -54.5q29 0 39.5 56.5t44.5 56.5q33 0 33 -41z" />
    <glyph glyph-name="glyph287" unicode="&#x1ebd;" horiz-adv-x="653" 
d="M596 143q0 -69 -92 -118q-79 -41 -156 -41q-132 0 -207 90q-71 85 -71 219q0 162 102 270q93 99 203 99q162 0 162 -140q0 -128 -104 -217q-97 -85 -228 -90q6 -73 44 -120q43 -54 113 -54q65 0 124 67.5t67 67.5q43 0 43 -33zM416 555q0 57 -37 57q-87 0 -138 -99
q-42 -81 -42 -177q0 -25 4 -70q99 17 158 104q55 80 55 185zM574 903q0 -58 -50 -103.5t-108 -45.5q-51 0 -106 57t-64 57q-14 0 -14 -20q0 -10 3 -30t3 -30q0 -47 -37 -47t-37 41q0 59 27 104q33 54 88 54q43 0 99.5 -54.5t78.5 -54.5q29 0 39.5 56.5t44.5 56.5
q33 0 33 -41z" />
    <glyph glyph-name="glyph288" unicode="&#x1ebe;" horiz-adv-x="1217" 
d="M84 602q0 329 205 514q168 152 391 152q105 0 192 -16q144 -27 144 -89q0 -57 -49 -57q-14 0 -123 49t-185 49q-231 0 -335 -209q-80 -159 -80 -415q0 -8 1 -24t1 -24q21 -2 55 -2h132q96 0 289 7.5t290 7.5q45 0 45 -35q0 -36 -53 -54q-38 -14 -82 -14h-222
q-63 0 -189 13.5t-189 13.5q-47 0 -70 -4q24 -178 122 -294q112 -132 281 -132q180 0 285 86q48 39 76 39q20 0 35.5 -23.5t15.5 -44.5q0 -29 -82 -71q-105 -54 -258 -54q-309 0 -491 216q-152 181 -152 415zM886 1340q0 -19 -37 -19q-58 0 -127 59.5t-72 59.5
q-4 0 -65.5 -56t-93.5 -56q-27 0 -27 16q0 10 22 35q41 41 115 131q34 53 53 53q25 0 58 -43q47 -61 147 -145q27 -22 27 -35zM798 1779q0 -38 -104.5 -108.5t-145.5 -70.5q-26 0 -26 19q0 15 32 41q82 67 138 129q41 45 53 45q53 0 53 -55z" />
    <glyph glyph-name="glyph289" unicode="&#x1ebf;" horiz-adv-x="653" 
d="M596 143q0 -69 -92 -118q-79 -41 -156 -41q-132 0 -207 90q-71 85 -71 219q0 162 102 270q93 99 203 99q162 0 162 -140q0 -128 -104 -217q-97 -85 -228 -90q6 -73 44 -120q43 -54 113 -54q65 0 124 67.5t67 67.5q43 0 43 -33zM416 555q0 57 -37 57q-87 0 -138 -99
q-42 -81 -42 -177q0 -25 4 -70q99 17 158 104q55 80 55 185zM559 760q0 -19 -37 -19q-58 0 -127 59.5t-72 59.5q-4 0 -65.5 -56t-93.5 -56q-27 0 -27 16q0 10 22 35q41 41 115 131q34 53 53 53q25 0 58 -43q47 -61 147 -145q27 -22 27 -35zM471 1199q0 -38 -104.5 -108.5
t-145.5 -70.5q-26 0 -26 19q0 15 32 41q82 67 138 129q41 45 53 45q53 0 53 -55z" />
    <glyph glyph-name="glyph290" unicode="&#x1ec0;" horiz-adv-x="1217" 
d="M84 602q0 329 205 514q168 152 391 152q105 0 192 -16q144 -27 144 -89q0 -57 -49 -57q-14 0 -123 49t-185 49q-231 0 -335 -209q-80 -159 -80 -415q0 -8 1 -24t1 -24q21 -2 55 -2h132q96 0 289 7.5t290 7.5q45 0 45 -35q0 -36 -53 -54q-38 -14 -82 -14h-222
q-63 0 -189 13.5t-189 13.5q-47 0 -70 -4q24 -178 122 -294q112 -132 281 -132q180 0 285 86q48 39 76 39q20 0 35.5 -23.5t15.5 -44.5q0 -29 -82 -71q-105 -54 -258 -54q-309 0 -491 216q-152 181 -152 415zM886 1340q0 -19 -37 -19q-58 0 -127 59.5t-72 59.5
q-4 0 -65.5 -56t-93.5 -56q-27 0 -27 16q0 10 22 35q41 41 115 131q34 53 53 53q25 0 58 -43q47 -61 147 -145q27 -22 27 -35zM795 1619q0 -19 -27 -19q-40 0 -142 69q-106 72 -106 110q0 55 51 55q10 0 54 -45q76 -79 137 -129q33 -27 33 -41z" />
    <glyph glyph-name="glyph291" unicode="&#x1ec1;" horiz-adv-x="653" 
d="M596 143q0 -69 -92 -118q-79 -41 -156 -41q-132 0 -207 90q-71 85 -71 219q0 162 102 270q93 99 203 99q162 0 162 -140q0 -128 -104 -217q-97 -85 -228 -90q6 -73 44 -120q43 -54 113 -54q65 0 124 67.5t67 67.5q43 0 43 -33zM416 555q0 57 -37 57q-87 0 -138 -99
q-42 -81 -42 -177q0 -25 4 -70q99 17 158 104q55 80 55 185zM559 760q0 -19 -37 -19q-58 0 -127 59.5t-72 59.5q-4 0 -65.5 -56t-93.5 -56q-27 0 -27 16q0 10 22 35q41 41 115 131q34 53 53 53q25 0 58 -43q47 -61 147 -145q27 -22 27 -35zM468 1039q0 -19 -27 -19
q-40 0 -142 69q-106 72 -106 110q0 55 51 55q10 0 54 -45q76 -79 137 -129q33 -27 33 -41z" />
    <glyph glyph-name="glyph292" unicode="&#x1ec2;" horiz-adv-x="1217" 
d="M84 602q0 329 205 514q168 152 391 152q105 0 192 -16q144 -27 144 -89q0 -57 -49 -57q-14 0 -123 49t-185 49q-231 0 -335 -209q-80 -159 -80 -415q0 -8 1 -24t1 -24q21 -2 55 -2h132q96 0 289 7.5t290 7.5q45 0 45 -35q0 -36 -53 -54q-38 -14 -82 -14h-222
q-63 0 -189 13.5t-189 13.5q-47 0 -70 -4q24 -178 122 -294q112 -132 281 -132q180 0 285 86q48 39 76 39q20 0 35.5 -23.5t15.5 -44.5q0 -29 -82 -71q-105 -54 -258 -54q-309 0 -491 216q-152 181 -152 415zM886 1340q0 -19 -37 -19q-58 0 -127 59.5t-72 59.5
q-4 0 -65.5 -56t-93.5 -56q-27 0 -27 16q0 10 22 35q41 41 115 131q34 53 53 53q25 0 58 -43q47 -61 147 -145q27 -22 27 -35zM897 1690q0 -51 -41 -75.5t-81 -48.5q1 -11 15 -26q-1 -10 -21 -10q-10 0 -25 21t-15 31q0 32 43.5 59t43.5 60q0 54 -54 54q-26 0 -29 -13
q2 13 2 -30q0 -26 -33 -26q-34 0 -34 18q0 104 93 104q55 0 95.5 -32t40.5 -86z" />
    <glyph glyph-name="glyph293" unicode="&#x1ec3;" horiz-adv-x="653" 
d="M596 143q0 -69 -92 -118q-79 -41 -156 -41q-132 0 -207 90q-71 85 -71 219q0 162 102 270q93 99 203 99q162 0 162 -140q0 -128 -104 -217q-97 -85 -228 -90q6 -73 44 -120q43 -54 113 -54q65 0 124 67.5t67 67.5q43 0 43 -33zM416 555q0 57 -37 57q-87 0 -138 -99
q-42 -81 -42 -177q0 -25 4 -70q99 17 158 104q55 80 55 185zM559 760q0 -19 -37 -19q-58 0 -127 59.5t-72 59.5q-4 0 -65.5 -56t-93.5 -56q-27 0 -27 16q0 10 22 35q41 41 115 131q34 53 53 53q25 0 58 -43q47 -61 147 -145q27 -22 27 -35zM570 1110q0 -51 -41 -75.5
t-81 -48.5q1 -11 15 -26q-1 -10 -21 -10q-10 0 -25 21t-15 31q0 32 43.5 59t43.5 60q0 54 -54 54q-26 0 -29 -13q2 13 2 -30q0 -26 -33 -26q-34 0 -34 18q0 104 93 104q55 0 95.5 -32t40.5 -86z" />
    <glyph glyph-name="glyph294" unicode="&#x1ec4;" horiz-adv-x="1217" 
d="M84 602q0 329 205 514q168 152 391 152q105 0 192 -16q144 -27 144 -89q0 -57 -49 -57q-14 0 -123 49t-185 49q-231 0 -335 -209q-80 -159 -80 -415q0 -8 1 -24t1 -24q21 -2 55 -2h132q96 0 289 7.5t290 7.5q45 0 45 -35q0 -36 -53 -54q-38 -14 -82 -14h-222
q-63 0 -189 13.5t-189 13.5q-47 0 -70 -4q24 -178 122 -294q112 -132 281 -132q180 0 285 86q48 39 76 39q20 0 35.5 -23.5t15.5 -44.5q0 -29 -82 -71q-105 -54 -258 -54q-309 0 -491 216q-152 181 -152 415zM886 1340q0 -19 -37 -19q-58 0 -127 59.5t-72 59.5
q-4 0 -65.5 -56t-93.5 -56q-27 0 -27 16q0 10 22 35q41 41 115 131q34 53 53 53q25 0 58 -43q47 -61 147 -145q27 -22 27 -35zM941 1783q0 -58 -50 -103.5t-108 -45.5q-51 0 -106 57t-64 57q-14 0 -14 -20q0 -10 3 -30t3 -30q0 -47 -37 -47t-37 41q0 59 27 104q33 54 88 54
q43 0 99.5 -54.5t78.5 -54.5q29 0 39.5 56.5t44.5 56.5q33 0 33 -41z" />
    <glyph glyph-name="glyph295" unicode="&#x1ec5;" horiz-adv-x="653" 
d="M596 143q0 -69 -92 -118q-79 -41 -156 -41q-132 0 -207 90q-71 85 -71 219q0 162 102 270q93 99 203 99q162 0 162 -140q0 -128 -104 -217q-97 -85 -228 -90q6 -73 44 -120q43 -54 113 -54q65 0 124 67.5t67 67.5q43 0 43 -33zM416 555q0 57 -37 57q-87 0 -138 -99
q-42 -81 -42 -177q0 -25 4 -70q99 17 158 104q55 80 55 185zM559 760q0 -19 -37 -19q-58 0 -127 59.5t-72 59.5q-4 0 -65.5 -56t-93.5 -56q-27 0 -27 16q0 10 22 35q41 41 115 131q34 53 53 53q25 0 58 -43q47 -61 147 -145q27 -22 27 -35zM614 1203q0 -58 -50 -103.5
t-108 -45.5q-51 0 -106 57t-64 57q-14 0 -14 -20q0 -10 3 -30t3 -30q0 -47 -37 -47t-37 41q0 59 27 104q33 54 88 54q43 0 99.5 -54.5t78.5 -54.5q29 0 39.5 56.5t44.5 56.5q33 0 33 -41z" />
    <glyph glyph-name="glyph296" unicode="&#x1ec6;" horiz-adv-x="1217" 
d="M84 602q0 329 205 514q168 152 391 152q105 0 192 -16q144 -27 144 -89q0 -57 -49 -57q-14 0 -123 49t-185 49q-231 0 -335 -209q-80 -159 -80 -415q0 -8 1 -24t1 -24q21 -2 55 -2h132q96 0 289 7.5t290 7.5q45 0 45 -35q0 -36 -53 -54q-38 -14 -82 -14h-222
q-63 0 -189 13.5t-189 13.5q-47 0 -70 -4q24 -178 122 -294q112 -132 281 -132q180 0 285 86q48 39 76 39q20 0 35.5 -23.5t15.5 -44.5q0 -29 -82 -71q-105 -54 -258 -54q-309 0 -491 216q-152 181 -152 415zM886 1340q0 -19 -37 -19q-58 0 -127 59.5t-72 59.5
q-4 0 -65.5 -56t-93.5 -56q-27 0 -27 16q0 10 22 35q41 41 115 131q34 53 53 53q25 0 58 -43q47 -61 147 -145q27 -22 27 -35zM733 -249q0 -40 -19 -70q-23 -34 -61 -34q-82 0 -82 92q0 45 22 86q27 49 68 49q72 0 72 -123z" />
    <glyph glyph-name="glyph297" unicode="&#x1ec7;" horiz-adv-x="653" 
d="M596 143q0 -69 -92 -118q-79 -41 -156 -41q-132 0 -207 90q-71 85 -71 219q0 162 102 270q93 99 203 99q162 0 162 -140q0 -128 -104 -217q-97 -85 -228 -90q6 -73 44 -120q43 -54 113 -54q65 0 124 67.5t67 67.5q43 0 43 -33zM416 555q0 57 -37 57q-87 0 -138 -99
q-42 -81 -42 -177q0 -25 4 -70q99 17 158 104q55 80 55 185zM559 760q0 -19 -37 -19q-58 0 -127 59.5t-72 59.5q-4 0 -65.5 -56t-93.5 -56q-27 0 -27 16q0 10 22 35q41 41 115 131q34 53 53 53q25 0 58 -43q47 -61 147 -145q27 -22 27 -35zM417 -249q0 -40 -19 -70
q-23 -34 -61 -34q-82 0 -82 92q0 45 22 86q27 49 68 49q72 0 72 -123z" />
    <glyph glyph-name="glyph298" unicode="&#x1ec8;" horiz-adv-x="686" 
d="M436 1169q0 -8 -8 -206.5t-8 -311.5q0 -154 5 -374l5 -203q1 -10 0 -8q0 -58 -21 -68q-9 -4 -79 -4q-64 0 -64 67q0 10 15.5 273.5t15.5 333.5q0 80 -2 239.5t-2 239.5q0 24 -27 24q-29 0 -95.5 -18t-98.5 -18q-43 0 -43 36q0 56 84 56h249q74 0 74 -58zM472 1470
q0 -51 -41 -75.5t-81 -48.5q1 -11 15 -26q-1 -10 -21 -10q-10 0 -25 21t-15 31q0 32 43.5 59t43.5 60q0 54 -54 54q-26 0 -29 -13q2 13 2 -30q0 -26 -33 -26q-34 0 -34 18q0 104 93 104q55 0 95.5 -32t40.5 -86z" />
    <glyph glyph-name="glyph299" unicode="&#x1ec9;" horiz-adv-x="459" 
d="M344 49q0 -57 -80 -57q-63 0 -63 47v126q0 69 9 208.5t9 208.5q0 20 -18 20q-21 0 -62.5 -15.5t-62.5 -15.5q-51 0 -51 39q0 47 96 47h145q70 0 70 -41q0 -55 -4 -164.5t-4 -164.5q0 -129 4 -166q1 -9 7 -36q5 -23 5 -36zM388 897q0 -51 -41 -75.5t-81 -48.5
q1 -11 15 -26q-1 -10 -21 -10q-10 0 -25 21t-15 31q0 32 43.5 59t43.5 60q0 54 -54 54q-26 0 -29 -13q2 13 2 -30q0 -26 -33 -26q-34 0 -34 18q0 104 93 104q55 0 95.5 -32t40.5 -86z" />
    <glyph glyph-name="glyph300" unicode="&#x1eca;" horiz-adv-x="686" 
d="M436 1169q0 -8 -8 -206.5t-8 -311.5q0 -154 5 -374l5 -203q1 -10 0 -8q0 -58 -21 -68q-9 -4 -79 -4q-64 0 -64 67q0 10 15.5 273.5t15.5 333.5q0 80 -2 239.5t-2 239.5q0 24 -27 24q-29 0 -95.5 -18t-98.5 -18q-43 0 -43 36q0 56 84 56h249q74 0 74 -58zM434 -249
q0 -40 -19 -70q-23 -34 -61 -34q-82 0 -82 92q0 45 22 86q27 49 68 49q72 0 72 -123z" />
    <glyph glyph-name="glyph301" unicode="&#x1ecb;" horiz-adv-x="459" 
d="M416 1206q0 -20 -47 -135q-30 -76 -61 -151q-26 -72 -62 -72q-27 0 -27 26q0 65 55 273q24 92 72 92h41q29 0 29 -33zM344 49q0 -57 -80 -57q-63 0 -63 47v126q0 69 9 208.5t9 208.5q0 20 -18 20q-21 0 -62.5 -15.5t-62.5 -15.5q-51 0 -51 39q0 47 96 47h145q70 0 70 -41
q0 -55 -4 -164.5t-4 -164.5q0 -129 4 -166q1 -9 7 -36q5 -23 5 -36zM350 -249q0 -40 -19 -70q-23 -34 -61 -34q-82 0 -82 92q0 45 22 86q27 49 68 49q72 0 72 -123z" />
    <glyph glyph-name="glyph302" unicode="&#x1ecc;" horiz-adv-x="1264" 
d="M1180 557q0 -249 -150 -415q-156 -171 -403 -171q-274 0 -424 188q-119 150 -119 343q0 313 174 530q169 211 389 211q229 0 387 -222q146 -205 146 -464zM1022 557q0 307 -153 491q-118 142 -226 142q-146 0 -270 -189q-131 -200 -131 -479q0 -209 91 -340
q105 -151 306 -151q189 0 295 176q88 147 88 350zM703 -249q0 -40 -19 -70q-23 -34 -61 -34q-82 0 -82 92q0 45 22 86q27 49 68 49q72 0 72 -123z" />
    <glyph glyph-name="glyph303" unicode="&#x1ecd;" horiz-adv-x="723" 
d="M666 346q0 -146 -76 -248q-83 -112 -225 -112q-139 0 -219 103q-72 94 -72 237q0 137 80 233q85 103 219 103q293 0 293 -316zM528 401q0 211 -157 211q-83 0 -124 -108q-30 -78 -30 -178q0 -122 19 -180q33 -101 129 -101q163 0 163 356zM442 -249q0 -40 -19 -70
q-23 -34 -61 -34q-82 0 -82 92q0 45 22 86q27 49 68 49q72 0 72 -123z" />
    <glyph glyph-name="glyph304" unicode="&#x1ece;" horiz-adv-x="1264" 
d="M1180 557q0 -249 -150 -415q-156 -171 -403 -171q-274 0 -424 188q-119 150 -119 343q0 313 174 530q169 211 389 211q229 0 387 -222q146 -205 146 -464zM1022 557q0 307 -153 491q-118 142 -226 142q-146 0 -270 -189q-131 -200 -131 -479q0 -209 91 -340
q105 -151 306 -151q189 0 295 176q88 147 88 350zM782 1470q0 -51 -41 -75.5t-81 -48.5q1 -11 15 -26q-1 -10 -21 -10q-10 0 -25 21t-15 31q0 32 43.5 59t43.5 60q0 54 -54 54q-26 0 -29 -13q2 13 2 -30q0 -26 -33 -26q-34 0 -34 18q0 104 93 104q55 0 95.5 -32t40.5 -86z
" />
    <glyph glyph-name="glyph305" unicode="&#x1ecf;" horiz-adv-x="723" 
d="M666 346q0 -146 -76 -248q-83 -112 -225 -112q-139 0 -219 103q-72 94 -72 237q0 137 80 233q85 103 219 103q293 0 293 -316zM528 401q0 211 -157 211q-83 0 -124 -108q-30 -78 -30 -178q0 -122 19 -180q33 -101 129 -101q163 0 163 356zM508 897q0 -51 -41 -75.5
t-81 -48.5q1 -11 15 -26q-1 -10 -21 -10q-10 0 -25 21t-15 31q0 32 43.5 59t43.5 60q0 54 -54 54q-26 0 -29 -13q2 13 2 -30q0 -26 -33 -26q-34 0 -34 18q0 104 93 104q55 0 95.5 -32t40.5 -86z" />
    <glyph glyph-name="glyph306" unicode="&#x1ed0;" horiz-adv-x="1264" 
d="M1180 557q0 -249 -150 -415q-156 -171 -403 -171q-274 0 -424 188q-119 150 -119 343q0 313 174 530q169 211 389 211q229 0 387 -222q146 -205 146 -464zM1022 557q0 307 -153 491q-118 142 -226 142q-146 0 -270 -189q-131 -200 -131 -479q0 -209 91 -340
q105 -151 306 -151q189 0 295 176q88 147 88 350zM856 1340q0 -19 -37 -19q-58 0 -127 59.5t-72 59.5q-4 0 -65.5 -56t-93.5 -56q-27 0 -27 16q0 10 22 35q41 41 115 131q34 53 53 53q25 0 58 -43q47 -61 147 -145q27 -22 27 -35zM768 1779q0 -38 -104.5 -108.5
t-145.5 -70.5q-26 0 -26 19q0 15 32 41q82 67 138 129q41 45 53 45q53 0 53 -55z" />
    <glyph glyph-name="glyph307" unicode="&#x1ed1;" horiz-adv-x="723" 
d="M666 346q0 -146 -76 -248q-83 -112 -225 -112q-139 0 -219 103q-72 94 -72 237q0 137 80 233q85 103 219 103q293 0 293 -316zM528 401q0 211 -157 211q-83 0 -124 -108q-30 -78 -30 -178q0 -122 19 -180q33 -101 129 -101q163 0 163 356zM609 760q0 -19 -37 -19
q-58 0 -127 59.5t-72 59.5q-4 0 -65.5 -56t-93.5 -56q-27 0 -27 16q0 10 22 35q41 41 115 131q34 53 53 53q25 0 58 -43q47 -61 147 -145q27 -22 27 -35zM521 1199q0 -38 -104.5 -108.5t-145.5 -70.5q-26 0 -26 19q0 15 32 41q82 67 138 129q41 45 53 45q53 0 53 -55z" />
    <glyph glyph-name="glyph308" unicode="&#x1ed2;" horiz-adv-x="1264" 
d="M1180 557q0 -249 -150 -415q-156 -171 -403 -171q-274 0 -424 188q-119 150 -119 343q0 313 174 530q169 211 389 211q229 0 387 -222q146 -205 146 -464zM1022 557q0 307 -153 491q-118 142 -226 142q-146 0 -270 -189q-131 -200 -131 -479q0 -209 91 -340
q105 -151 306 -151q189 0 295 176q88 147 88 350zM856 1340q0 -19 -37 -19q-58 0 -127 59.5t-72 59.5q-4 0 -65.5 -56t-93.5 -56q-27 0 -27 16q0 10 22 35q41 41 115 131q34 53 53 53q25 0 58 -43q47 -61 147 -145q27 -22 27 -35zM765 1619q0 -19 -27 -19q-40 0 -142 69
q-106 72 -106 110q0 55 51 55q10 0 54 -45q76 -79 137 -129q33 -27 33 -41z" />
    <glyph glyph-name="glyph309" unicode="&#x1ed3;" horiz-adv-x="723" 
d="M666 346q0 -146 -76 -248q-83 -112 -225 -112q-139 0 -219 103q-72 94 -72 237q0 137 80 233q85 103 219 103q293 0 293 -316zM528 401q0 211 -157 211q-83 0 -124 -108q-30 -78 -30 -178q0 -122 19 -180q33 -101 129 -101q163 0 163 356zM609 760q0 -19 -37 -19
q-58 0 -127 59.5t-72 59.5q-4 0 -65.5 -56t-93.5 -56q-27 0 -27 16q0 10 22 35q41 41 115 131q34 53 53 53q25 0 58 -43q47 -61 147 -145q27 -22 27 -35zM518 1039q0 -19 -27 -19q-40 0 -142 69q-106 72 -106 110q0 55 51 55q10 0 54 -45q76 -79 137 -129q33 -27 33 -41z
" />
    <glyph glyph-name="glyph310" unicode="&#x1ed4;" horiz-adv-x="1264" 
d="M1180 557q0 -249 -150 -415q-156 -171 -403 -171q-274 0 -424 188q-119 150 -119 343q0 313 174 530q169 211 389 211q229 0 387 -222q146 -205 146 -464zM1022 557q0 307 -153 491q-118 142 -226 142q-146 0 -270 -189q-131 -200 -131 -479q0 -209 91 -340
q105 -151 306 -151q189 0 295 176q88 147 88 350zM856 1340q0 -19 -37 -19q-58 0 -127 59.5t-72 59.5q-4 0 -65.5 -56t-93.5 -56q-27 0 -27 16q0 10 22 35q41 41 115 131q34 53 53 53q25 0 58 -43q47 -61 147 -145q27 -22 27 -35zM867 1690q0 -51 -41 -75.5t-81 -48.5
q1 -11 15 -26q-1 -10 -21 -10q-10 0 -25 21t-15 31q0 32 43.5 59t43.5 60q0 54 -54 54q-26 0 -29 -13q2 13 2 -30q0 -26 -33 -26q-34 0 -34 18q0 104 93 104q55 0 95.5 -32t40.5 -86z" />
    <glyph glyph-name="glyph311" unicode="&#x1ed5;" horiz-adv-x="723" 
d="M666 346q0 -146 -76 -248q-83 -112 -225 -112q-139 0 -219 103q-72 94 -72 237q0 137 80 233q85 103 219 103q293 0 293 -316zM528 401q0 211 -157 211q-83 0 -124 -108q-30 -78 -30 -178q0 -122 19 -180q33 -101 129 -101q163 0 163 356zM609 760q0 -19 -37 -19
q-58 0 -127 59.5t-72 59.5q-4 0 -65.5 -56t-93.5 -56q-27 0 -27 16q0 10 22 35q41 41 115 131q34 53 53 53q25 0 58 -43q47 -61 147 -145q27 -22 27 -35zM620 1110q0 -51 -41 -75.5t-81 -48.5q1 -11 15 -26q-1 -10 -21 -10q-10 0 -25 21t-15 31q0 32 43.5 59t43.5 60
q0 54 -54 54q-26 0 -29 -13q2 13 2 -30q0 -26 -33 -26q-34 0 -34 18q0 104 93 104q55 0 95.5 -32t40.5 -86z" />
    <glyph glyph-name="glyph312" unicode="&#x1ed6;" horiz-adv-x="1264" 
d="M1180 557q0 -249 -150 -415q-156 -171 -403 -171q-274 0 -424 188q-119 150 -119 343q0 313 174 530q169 211 389 211q229 0 387 -222q146 -205 146 -464zM1022 557q0 307 -153 491q-118 142 -226 142q-146 0 -270 -189q-131 -200 -131 -479q0 -209 91 -340
q105 -151 306 -151q189 0 295 176q88 147 88 350zM856 1340q0 -19 -37 -19q-58 0 -127 59.5t-72 59.5q-4 0 -65.5 -56t-93.5 -56q-27 0 -27 16q0 10 22 35q41 41 115 131q34 53 53 53q25 0 58 -43q47 -61 147 -145q27 -22 27 -35zM911 1783q0 -58 -50 -103.5t-108 -45.5
q-51 0 -106 57t-64 57q-14 0 -14 -20q0 -10 3 -30t3 -30q0 -47 -37 -47t-37 41q0 59 27 104q33 54 88 54q43 0 99.5 -54.5t78.5 -54.5q29 0 39.5 56.5t44.5 56.5q33 0 33 -41z" />
    <glyph glyph-name="glyph313" unicode="&#x1ed7;" horiz-adv-x="723" 
d="M666 346q0 -146 -76 -248q-83 -112 -225 -112q-139 0 -219 103q-72 94 -72 237q0 137 80 233q85 103 219 103q293 0 293 -316zM528 401q0 211 -157 211q-83 0 -124 -108q-30 -78 -30 -178q0 -122 19 -180q33 -101 129 -101q163 0 163 356zM609 760q0 -19 -37 -19
q-58 0 -127 59.5t-72 59.5q-4 0 -65.5 -56t-93.5 -56q-27 0 -27 16q0 10 22 35q41 41 115 131q34 53 53 53q25 0 58 -43q47 -61 147 -145q27 -22 27 -35zM664 1203q0 -58 -50 -103.5t-108 -45.5q-51 0 -106 57t-64 57q-14 0 -14 -20q0 -10 3 -30t3 -30q0 -47 -37 -47t-37 41
q0 59 27 104q33 54 88 54q43 0 99.5 -54.5t78.5 -54.5q29 0 39.5 56.5t44.5 56.5q33 0 33 -41z" />
    <glyph glyph-name="glyph314" unicode="&#x1ed8;" horiz-adv-x="1264" 
d="M1180 557q0 -249 -150 -415q-156 -171 -403 -171q-274 0 -424 188q-119 150 -119 343q0 313 174 530q169 211 389 211q229 0 387 -222q146 -205 146 -464zM1022 557q0 307 -153 491q-118 142 -226 142q-146 0 -270 -189q-131 -200 -131 -479q0 -209 91 -340
q105 -151 306 -151q189 0 295 176q88 147 88 350zM856 1340q0 -19 -37 -19q-58 0 -127 59.5t-72 59.5q-4 0 -65.5 -56t-93.5 -56q-27 0 -27 16q0 10 22 35q41 41 115 131q34 53 53 53q25 0 58 -43q47 -61 147 -145q27 -22 27 -35zM703 -249q0 -40 -19 -70q-23 -34 -61 -34
q-82 0 -82 92q0 45 22 86q27 49 68 49q72 0 72 -123z" />
    <glyph glyph-name="glyph315" unicode="&#x1ed9;" horiz-adv-x="723" 
d="M666 346q0 -146 -76 -248q-83 -112 -225 -112q-139 0 -219 103q-72 94 -72 237q0 137 80 233q85 103 219 103q293 0 293 -316zM528 401q0 211 -157 211q-83 0 -124 -108q-30 -78 -30 -178q0 -122 19 -180q33 -101 129 -101q163 0 163 356zM609 760q0 -19 -37 -19
q-58 0 -127 59.5t-72 59.5q-4 0 -65.5 -56t-93.5 -56q-27 0 -27 16q0 10 22 35q41 41 115 131q34 53 53 53q25 0 58 -43q47 -61 147 -145q27 -22 27 -35zM442 -249q0 -40 -19 -70q-23 -34 -61 -34q-82 0 -82 92q0 45 22 86q27 49 68 49q72 0 72 -123z" />
    <glyph glyph-name="glyph316" unicode="&#x1eda;" horiz-adv-x="1264" 
d="M1180 557q0 -249 -150 -415q-156 -171 -403 -171q-274 0 -424 188q-119 150 -119 343q0 313 174 530q169 211 389 211q229 0 387 -222q146 -205 146 -464zM1022 557q0 307 -153 491q-118 142 -226 142q-146 0 -270 -189q-131 -200 -131 -479q0 -209 91 -340
q105 -151 306 -151q189 0 295 176q88 147 88 350zM960 990q-23 0 -23 21q0 16 35 66q39 53 47 88q3 38 13 112q15 68 67 68q77 0 77 -66q0 -54 -85 -171q-88 -118 -131 -118zM839 1522q0 -38 -104.5 -108.5t-145.5 -70.5q-26 0 -26 19q0 15 32 41q82 67 138 129q41 45 53 45
q53 0 53 -55z" />
    <glyph glyph-name="glyph317" unicode="&#x1edb;" horiz-adv-x="761" 
d="M666 346q0 -146 -76 -248q-83 -112 -225 -112q-139 0 -219 103q-72 94 -72 237q0 137 80 233q85 103 219 103q293 0 293 -316zM528 401q0 211 -157 211q-83 0 -124 -108q-30 -78 -30 -178q0 -122 19 -180q33 -101 129 -101q163 0 163 356zM572 429q-23 0 -23 21
q0 16 35 66q39 53 47 88q3 38 13 112q15 68 67 68q77 0 77 -66q0 -54 -85 -171q-88 -118 -131 -118zM541 924q0 -38 -104.5 -108.5t-145.5 -70.5q-26 0 -26 19q0 15 32 41q82 67 138 129q41 45 53 45q53 0 53 -55z" />
    <glyph glyph-name="glyph318" unicode="&#x1edc;" horiz-adv-x="1264" 
d="M1180 557q0 -249 -150 -415q-156 -171 -403 -171q-274 0 -424 188q-119 150 -119 343q0 313 174 530q169 211 389 211q229 0 387 -222q146 -205 146 -464zM1022 557q0 307 -153 491q-118 142 -226 142q-146 0 -270 -189q-131 -200 -131 -479q0 -209 91 -340
q105 -151 306 -151q189 0 295 176q88 147 88 350zM960 990q-23 0 -23 21q0 16 35 66q39 53 47 88q3 38 13 112q15 68 67 68q77 0 77 -66q0 -54 -85 -171q-88 -118 -131 -118zM739 1362q0 -19 -27 -19q-40 0 -142 69q-106 72 -106 110q0 55 51 55q10 0 54 -45
q76 -79 137 -129q33 -27 33 -41z" />
    <glyph glyph-name="glyph319" unicode="&#x1edd;" horiz-adv-x="761" 
d="M666 346q0 -146 -76 -248q-83 -112 -225 -112q-139 0 -219 103q-72 94 -72 237q0 137 80 233q85 103 219 103q293 0 293 -316zM528 401q0 211 -157 211q-83 0 -124 -108q-30 -78 -30 -178q0 -122 19 -180q33 -101 129 -101q163 0 163 356zM572 429q-23 0 -23 21
q0 16 35 66q39 53 47 88q3 38 13 112q15 68 67 68q77 0 77 -66q0 -54 -85 -171q-88 -118 -131 -118zM496 764q0 -19 -27 -19q-40 0 -142 69q-106 72 -106 110q0 55 51 55q10 0 54 -45q76 -79 137 -129q33 -27 33 -41z" />
    <glyph glyph-name="glyph320" unicode="&#x1ede;" horiz-adv-x="1264" 
d="M1180 557q0 -249 -150 -415q-156 -171 -403 -171q-274 0 -424 188q-119 150 -119 343q0 313 174 530q169 211 389 211q229 0 387 -222q146 -205 146 -464zM1022 557q0 307 -153 491q-118 142 -226 142q-146 0 -270 -189q-131 -200 -131 -479q0 -209 91 -340
q105 -151 306 -151q189 0 295 176q88 147 88 350zM960 990q-23 0 -23 21q0 16 35 66q39 53 47 88q3 38 13 112q15 68 67 68q77 0 77 -66q0 -54 -85 -171q-88 -118 -131 -118zM782 1470q0 -51 -41 -75.5t-81 -48.5q1 -11 15 -26q-1 -10 -21 -10q-10 0 -25 21t-15 31
q0 32 43.5 59t43.5 60q0 54 -54 54q-26 0 -29 -13q2 13 2 -30q0 -26 -33 -26q-34 0 -34 18q0 104 93 104q55 0 95.5 -32t40.5 -86z" />
    <glyph glyph-name="glyph321" unicode="&#x1edf;" horiz-adv-x="761" 
d="M666 346q0 -146 -76 -248q-83 -112 -225 -112q-139 0 -219 103q-72 94 -72 237q0 137 80 233q85 103 219 103q293 0 293 -316zM528 401q0 211 -157 211q-83 0 -124 -108q-30 -78 -30 -178q0 -122 19 -180q33 -101 129 -101q163 0 163 356zM572 429q-23 0 -23 21
q0 16 35 66q39 53 47 88q3 38 13 112q15 68 67 68q77 0 77 -66q0 -54 -85 -171q-88 -118 -131 -118zM508 897q0 -51 -41 -75.5t-81 -48.5q1 -11 15 -26q-1 -10 -21 -10q-10 0 -25 21t-15 31q0 32 43.5 59t43.5 60q0 54 -54 54q-26 0 -29 -13q2 13 2 -30q0 -26 -33 -26
q-34 0 -34 18q0 104 93 104q55 0 95.5 -32t40.5 -86z" />
    <glyph glyph-name="glyph322" unicode="&#x1ee0;" horiz-adv-x="1264" 
d="M1180 557q0 -249 -150 -415q-156 -171 -403 -171q-274 0 -424 188q-119 150 -119 343q0 313 174 530q169 211 389 211q229 0 387 -222q146 -205 146 -464zM1022 557q0 307 -153 491q-118 142 -226 142q-146 0 -270 -189q-131 -200 -131 -479q0 -209 91 -340
q105 -151 306 -151q189 0 295 176q88 147 88 350zM960 990q-23 0 -23 21q0 16 35 66q39 53 47 88q3 38 13 112q15 68 67 68q77 0 77 -66q0 -54 -85 -171q-88 -118 -131 -118zM845 1492q0 -58 -50 -103.5t-108 -45.5q-51 0 -106 57t-64 57q-14 0 -14 -20q0 -10 3 -30t3 -30
q0 -47 -37 -47t-37 41q0 59 27 104q33 54 88 54q43 0 99.5 -54.5t78.5 -54.5q29 0 39.5 56.5t44.5 56.5q33 0 33 -41z" />
    <glyph glyph-name="glyph323" unicode="&#x1ee1;" horiz-adv-x="761" 
d="M666 346q0 -146 -76 -248q-83 -112 -225 -112q-139 0 -219 103q-72 94 -72 237q0 137 80 233q85 103 219 103q293 0 293 -316zM528 401q0 211 -157 211q-83 0 -124 -108q-30 -78 -30 -178q0 -122 19 -180q33 -101 129 -101q163 0 163 356zM572 429q-23 0 -23 21
q0 16 35 66q39 53 47 88q3 38 13 112q15 68 67 68q77 0 77 -66q0 -54 -85 -171q-88 -118 -131 -118zM594 903q0 -58 -50 -103.5t-108 -45.5q-51 0 -106 57t-64 57q-14 0 -14 -20q0 -10 3 -30t3 -30q0 -47 -37 -47t-37 41q0 59 27 104q33 54 88 54q43 0 99.5 -54.5
t78.5 -54.5q29 0 39.5 56.5t44.5 56.5q33 0 33 -41z" />
    <glyph glyph-name="glyph324" unicode="&#x1ee2;" horiz-adv-x="1264" 
d="M1180 557q0 -249 -150 -415q-156 -171 -403 -171q-274 0 -424 188q-119 150 -119 343q0 313 174 530q169 211 389 211q229 0 387 -222q146 -205 146 -464zM1022 557q0 307 -153 491q-118 142 -226 142q-146 0 -270 -189q-131 -200 -131 -479q0 -209 91 -340
q105 -151 306 -151q189 0 295 176q88 147 88 350zM960 990q-23 0 -23 21q0 16 35 66q39 53 47 88q3 38 13 112q15 68 67 68q77 0 77 -66q0 -54 -85 -171q-88 -118 -131 -118zM703 -249q0 -40 -19 -70q-23 -34 -61 -34q-82 0 -82 92q0 45 22 86q27 49 68 49q72 0 72 -123z
" />
    <glyph glyph-name="glyph325" unicode="&#x1ee3;" horiz-adv-x="761" 
d="M666 346q0 -146 -76 -248q-83 -112 -225 -112q-139 0 -219 103q-72 94 -72 237q0 137 80 233q85 103 219 103q293 0 293 -316zM528 401q0 211 -157 211q-83 0 -124 -108q-30 -78 -30 -178q0 -122 19 -180q33 -101 129 -101q163 0 163 356zM572 429q-23 0 -23 21
q0 16 35 66q39 53 47 88q3 38 13 112q15 68 67 68q77 0 77 -66q0 -54 -85 -171q-88 -118 -131 -118zM442 -249q0 -40 -19 -70q-23 -34 -61 -34q-82 0 -82 92q0 45 22 86q27 49 68 49q72 0 72 -123z" />
    <glyph glyph-name="glyph326" unicode="&#x1ee4;" horiz-adv-x="1370" 
d="M1133 1147q0 -79 -6.5 -236.5t-6.5 -236.5q0 -103 3 -309.5t3 -309.5q0 -18 -14 -36.5t-46 -20.5q30 2 -54 2q-45 0 -45 45q0 25 7 181l38 829q1 26 -11 26q-38 0 -90 -157q-117 -350 -233 -631q-128 -309 -264 -309q-148 0 -148 157q0 167 5 500t5 500q0 30 -26 30
q-9 0 -125.5 -17t-159.5 -17t-43 45t66 45h364q72 0 72 -78q0 -171 -15.5 -522t-15.5 -400q0 -149 53 -149q92 0 209 336q60 174 213 577q94 248 187 248q78 0 78 -92zM763 -249q0 -40 -19 -70q-23 -34 -61 -34q-82 0 -82 92q0 45 22 86q27 49 68 49q72 0 72 -123z" />
    <glyph glyph-name="glyph327" unicode="&#x1ee5;" horiz-adv-x="813" 
d="M682 199q0 -83 8 -115q10 -40 10 -45q0 -22 -40 -36q-31 -11 -58 -11q-31 0 -40 27q-3 11 -3 53q-32 -31 -85 -57q-58 -29 -97 -29q-197 0 -197 204v-1v2v2l1 10l4 55l14 219q2 31 2 107q0 20 -17 20q-26 0 -73.5 -19.5t-71.5 -19.5q-53 0 -53 41q0 51 96 51h182
q70 0 70 -41q0 -138 -15 -327q-6 -75 -6 -121q0 -113 88 -113q94 0 156 90q0 28 -4 445q-1 82 106 82q35 0 35 -39q0 -72 -6 -217t-6 -217zM513 -249q0 -40 -19 -70q-23 -34 -61 -34q-82 0 -82 92q0 45 22 86q27 49 68 49q72 0 72 -123z" />
    <glyph glyph-name="glyph328" unicode="&#x1ee6;" horiz-adv-x="1370" 
d="M1133 1147q0 -79 -6.5 -236.5t-6.5 -236.5q0 -103 3 -309.5t3 -309.5q0 -18 -14 -36.5t-46 -20.5q30 2 -54 2q-45 0 -45 45q0 25 7 181l38 829q1 26 -11 26q-38 0 -90 -157q-117 -350 -233 -631q-128 -309 -264 -309q-148 0 -148 157q0 167 5 500t5 500q0 30 -26 30
q-9 0 -125.5 -17t-159.5 -17t-43 45t66 45h364q72 0 72 -78q0 -171 -15.5 -522t-15.5 -400q0 -149 53 -149q92 0 209 336q60 174 213 577q94 248 187 248q78 0 78 -92zM822 1470q0 -51 -41 -75.5t-81 -48.5q1 -11 15 -26q-1 -10 -21 -10q-10 0 -25 21t-15 31q0 32 43.5 59
t43.5 60q0 54 -54 54q-26 0 -29 -13q2 13 2 -30q0 -26 -33 -26q-34 0 -34 18q0 104 93 104q55 0 95.5 -32t40.5 -86z" />
    <glyph glyph-name="glyph329" unicode="&#x1ee7;" horiz-adv-x="813" 
d="M682 199q0 -83 8 -115q10 -40 10 -45q0 -22 -40 -36q-31 -11 -58 -11q-31 0 -40 27q-3 11 -3 53q-32 -31 -85 -57q-58 -29 -97 -29q-197 0 -197 204v-1v2v2l1 10l4 55l14 219q2 31 2 107q0 20 -17 20q-26 0 -73.5 -19.5t-71.5 -19.5q-53 0 -53 41q0 51 96 51h182
q70 0 70 -41q0 -138 -15 -327q-6 -75 -6 -121q0 -113 88 -113q94 0 156 90q0 28 -4 445q-1 82 106 82q35 0 35 -39q0 -72 -6 -217t-6 -217zM568 897q0 -51 -41 -75.5t-81 -48.5q1 -11 15 -26q-1 -10 -21 -10q-10 0 -25 21t-15 31q0 32 43.5 59t43.5 60q0 54 -54 54
q-26 0 -29 -13q2 13 2 -30q0 -26 -33 -26q-34 0 -34 18q0 104 93 104q55 0 95.5 -32t40.5 -86z" />
    <glyph glyph-name="glyph330" unicode="&#x1ee8;" horiz-adv-x="1370" 
d="M1133 1147q0 -79 -6.5 -236.5t-6.5 -236.5q0 -103 3 -309.5t3 -309.5q0 -18 -14 -36.5t-46 -20.5q30 2 -54 2q-45 0 -45 45q0 25 7 181l38 829q1 26 -11 26q-38 0 -90 -157q-117 -350 -233 -631q-128 -309 -264 -309q-148 0 -148 157q0 167 5 500t5 500q0 30 -26 30
q-9 0 -125.5 -17t-159.5 -17t-43 45t66 45h364q72 0 72 -78q0 -171 -15.5 -522t-15.5 -400q0 -149 53 -149q92 0 209 336q60 174 213 577q94 248 187 248q78 0 78 -92zM1100 990q-23 0 -23 21q0 16 35 66q39 53 47 88q3 38 13 112q15 68 67 68q77 0 77 -66q0 -54 -85 -171
q-88 -118 -131 -118zM899 1522q0 -38 -104.5 -108.5t-145.5 -70.5q-26 0 -26 19q0 15 32 41q82 67 138 129q41 45 53 45q53 0 53 -55z" />
    <glyph glyph-name="glyph331" unicode="&#x1ee9;" horiz-adv-x="857" 
d="M682 199q0 -83 8 -115q10 -40 10 -45q0 -22 -40 -36q-31 -11 -58 -11q-31 0 -40 27q-3 11 -3 53q-32 -31 -85 -57q-58 -29 -97 -29q-197 0 -197 204v-1v2v2l1 10l4 55l14 219q2 31 2 107q0 20 -17 20q-26 0 -73.5 -19.5t-71.5 -19.5q-53 0 -53 41q0 51 96 51h182
q70 0 70 -41q0 -138 -15 -327q-6 -75 -6 -121q0 -113 88 -113q94 0 156 90q0 28 -4 445q-1 82 106 82q35 0 35 -39q0 -72 -6 -217t-6 -217zM662 429q-23 0 -23 21q0 16 35 66q39 53 47 88q3 38 13 112q15 68 67 68q77 0 77 -66q0 -54 -85 -171q-88 -118 -131 -118zM606 924
q0 -38 -104.5 -108.5t-145.5 -70.5q-26 0 -26 19q0 15 32 41q82 67 138 129q41 45 53 45q53 0 53 -55z" />
    <glyph glyph-name="glyph332" unicode="&#x1eea;" horiz-adv-x="1370" 
d="M1133 1147q0 -79 -6.5 -236.5t-6.5 -236.5q0 -103 3 -309.5t3 -309.5q0 -18 -14 -36.5t-46 -20.5q30 2 -54 2q-45 0 -45 45q0 25 7 181l38 829q1 26 -11 26q-38 0 -90 -157q-117 -350 -233 -631q-128 -309 -264 -309q-148 0 -148 157q0 167 5 500t5 500q0 30 -26 30
q-9 0 -125.5 -17t-159.5 -17t-43 45t66 45h364q72 0 72 -78q0 -171 -15.5 -522t-15.5 -400q0 -149 53 -149q92 0 209 336q60 174 213 577q94 248 187 248q78 0 78 -92zM1100 990q-23 0 -23 21q0 16 35 66q39 53 47 88q3 38 13 112q15 68 67 68q77 0 77 -66q0 -54 -85 -171
q-88 -118 -131 -118zM799 1362q0 -19 -27 -19q-40 0 -142 69q-106 72 -106 110q0 55 51 55q10 0 54 -45q76 -79 137 -129q33 -27 33 -41z" />
    <glyph glyph-name="glyph333" unicode="&#x1eeb;" horiz-adv-x="857" 
d="M682 199q0 -83 8 -115q10 -40 10 -45q0 -22 -40 -36q-31 -11 -58 -11q-31 0 -40 27q-3 11 -3 53q-32 -31 -85 -57q-58 -29 -97 -29q-197 0 -197 204v-1v2v2l1 10l4 55l14 219q2 31 2 107q0 20 -17 20q-26 0 -73.5 -19.5t-71.5 -19.5q-53 0 -53 41q0 51 96 51h182
q70 0 70 -41q0 -138 -15 -327q-6 -75 -6 -121q0 -113 88 -113q94 0 156 90q0 28 -4 445q-1 82 106 82q35 0 35 -39q0 -72 -6 -217t-6 -217zM662 429q-23 0 -23 21q0 16 35 66q39 53 47 88q3 38 13 112q15 68 67 68q77 0 77 -66q0 -54 -85 -171q-88 -118 -131 -118zM520 764
q0 -19 -27 -19q-40 0 -142 69q-106 72 -106 110q0 55 51 55q10 0 54 -45q76 -79 137 -129q33 -27 33 -41z" />
    <glyph glyph-name="glyph334" unicode="&#x1eec;" horiz-adv-x="1370" 
d="M1133 1147q0 -79 -6.5 -236.5t-6.5 -236.5q0 -103 3 -309.5t3 -309.5q0 -18 -14 -36.5t-46 -20.5q30 2 -54 2q-45 0 -45 45q0 25 7 181l38 829q1 26 -11 26q-38 0 -90 -157q-117 -350 -233 -631q-128 -309 -264 -309q-148 0 -148 157q0 167 5 500t5 500q0 30 -26 30
q-9 0 -125.5 -17t-159.5 -17t-43 45t66 45h364q72 0 72 -78q0 -171 -15.5 -522t-15.5 -400q0 -149 53 -149q92 0 209 336q60 174 213 577q94 248 187 248q78 0 78 -92zM1100 990q-23 0 -23 21q0 16 35 66q39 53 47 88q3 38 13 112q15 68 67 68q77 0 77 -66q0 -54 -85 -171
q-88 -118 -131 -118zM822 1470q0 -51 -41 -75.5t-81 -48.5q1 -11 15 -26q-1 -10 -21 -10q-10 0 -25 21t-15 31q0 32 43.5 59t43.5 60q0 54 -54 54q-26 0 -29 -13q2 13 2 -30q0 -26 -33 -26q-34 0 -34 18q0 104 93 104q55 0 95.5 -32t40.5 -86z" />
    <glyph glyph-name="glyph335" unicode="&#x1eed;" horiz-adv-x="857" 
d="M682 199q0 -83 8 -115q10 -40 10 -45q0 -22 -40 -36q-31 -11 -58 -11q-31 0 -40 27q-3 11 -3 53q-32 -31 -85 -57q-58 -29 -97 -29q-197 0 -197 204v-1v2v2l1 10l4 55l14 219q2 31 2 107q0 20 -17 20q-26 0 -73.5 -19.5t-71.5 -19.5q-53 0 -53 41q0 51 96 51h182
q70 0 70 -41q0 -138 -15 -327q-6 -75 -6 -121q0 -113 88 -113q94 0 156 90q0 28 -4 445q-1 82 106 82q35 0 35 -39q0 -72 -6 -217t-6 -217zM662 429q-23 0 -23 21q0 16 35 66q39 53 47 88q3 38 13 112q15 68 67 68q77 0 77 -66q0 -54 -85 -171q-88 -118 -131 -118zM568 897
q0 -51 -41 -75.5t-81 -48.5q1 -11 15 -26q-1 -10 -21 -10q-10 0 -25 21t-15 31q0 32 43.5 59t43.5 60q0 54 -54 54q-26 0 -29 -13q2 13 2 -30q0 -26 -33 -26q-34 0 -34 18q0 104 93 104q55 0 95.5 -32t40.5 -86z" />
    <glyph glyph-name="glyph336" unicode="&#x1eee;" horiz-adv-x="1370" 
d="M1133 1147q0 -79 -6.5 -236.5t-6.5 -236.5q0 -103 3 -309.5t3 -309.5q0 -18 -14 -36.5t-46 -20.5q30 2 -54 2q-45 0 -45 45q0 25 7 181l38 829q1 26 -11 26q-38 0 -90 -157q-117 -350 -233 -631q-128 -309 -264 -309q-148 0 -148 157q0 167 5 500t5 500q0 30 -26 30
q-9 0 -125.5 -17t-159.5 -17t-43 45t66 45h364q72 0 72 -78q0 -171 -15.5 -522t-15.5 -400q0 -149 53 -149q92 0 209 336q60 174 213 577q94 248 187 248q78 0 78 -92zM1100 990q-23 0 -23 21q0 16 35 66q39 53 47 88q3 38 13 112q15 68 67 68q77 0 77 -66q0 -54 -85 -171
q-88 -118 -131 -118zM905 1492q0 -58 -50 -103.5t-108 -45.5q-51 0 -106 57t-64 57q-14 0 -14 -20q0 -10 3 -30t3 -30q0 -47 -37 -47t-37 41q0 59 27 104q33 54 88 54q43 0 99.5 -54.5t78.5 -54.5q29 0 39.5 56.5t44.5 56.5q33 0 33 -41z" />
    <glyph glyph-name="glyph337" unicode="&#x1eef;" horiz-adv-x="857" 
d="M682 199q0 -83 8 -115q10 -40 10 -45q0 -22 -40 -36q-31 -11 -58 -11q-31 0 -40 27q-3 11 -3 53q-32 -31 -85 -57q-58 -29 -97 -29q-197 0 -197 204v-1v2v2l1 10l4 55l14 219q2 31 2 107q0 20 -17 20q-26 0 -73.5 -19.5t-71.5 -19.5q-53 0 -53 41q0 51 96 51h182
q70 0 70 -41q0 -138 -15 -327q-6 -75 -6 -121q0 -113 88 -113q94 0 156 90q0 28 -4 445q-1 82 106 82q35 0 35 -39q0 -72 -6 -217t-6 -217zM662 429q-23 0 -23 21q0 16 35 66q39 53 47 88q3 38 13 112q15 68 67 68q77 0 77 -66q0 -54 -85 -171q-88 -118 -131 -118zM634 903
q0 -58 -50 -103.5t-108 -45.5q-51 0 -106 57t-64 57q-14 0 -14 -20q0 -10 3 -30t3 -30q0 -47 -37 -47t-37 41q0 59 27 104q33 54 88 54q43 0 99.5 -54.5t78.5 -54.5q29 0 39.5 56.5t44.5 56.5q33 0 33 -41z" />
    <glyph glyph-name="glyph338" unicode="&#x1ef0;" horiz-adv-x="1370" 
d="M1133 1147q0 -79 -6.5 -236.5t-6.5 -236.5q0 -103 3 -309.5t3 -309.5q0 -18 -14 -36.5t-46 -20.5q30 2 -54 2q-45 0 -45 45q0 25 7 181l38 829q1 26 -11 26q-38 0 -90 -157q-117 -350 -233 -631q-128 -309 -264 -309q-148 0 -148 157q0 167 5 500t5 500q0 30 -26 30
q-9 0 -125.5 -17t-159.5 -17t-43 45t66 45h364q72 0 72 -78q0 -171 -15.5 -522t-15.5 -400q0 -149 53 -149q92 0 209 336q60 174 213 577q94 248 187 248q78 0 78 -92zM1100 990q-23 0 -23 21q0 16 35 66q39 53 47 88q3 38 13 112q15 68 67 68q77 0 77 -66q0 -54 -85 -171
q-88 -118 -131 -118zM763 -249q0 -40 -19 -70q-23 -34 -61 -34q-82 0 -82 92q0 45 22 86q27 49 68 49q72 0 72 -123z" />
    <glyph glyph-name="glyph339" unicode="&#x1ef1;" horiz-adv-x="857" 
d="M682 199q0 -83 8 -115q10 -40 10 -45q0 -22 -40 -36q-31 -11 -58 -11q-31 0 -40 27q-3 11 -3 53q-32 -31 -85 -57q-58 -29 -97 -29q-197 0 -197 204v-1v2v2l1 10l4 55l14 219q2 31 2 107q0 20 -17 20q-26 0 -73.5 -19.5t-71.5 -19.5q-53 0 -53 41q0 51 96 51h182
q70 0 70 -41q0 -138 -15 -327q-6 -75 -6 -121q0 -113 88 -113q94 0 156 90q0 28 -4 445q-1 82 106 82q35 0 35 -39q0 -72 -6 -217t-6 -217zM662 429q-23 0 -23 21q0 16 35 66q39 53 47 88q3 38 13 112q15 68 67 68q77 0 77 -66q0 -54 -85 -171q-88 -118 -131 -118zM513 -249
q0 -40 -19 -70q-23 -34 -61 -34q-82 0 -82 92q0 45 22 86q27 49 68 49q72 0 72 -123z" />
    <glyph glyph-name="glyph340" unicode="&#x1ef2;" horiz-adv-x="1311" 
d="M1116 1149q0 -18 -8 -159l-35 -643q-8 -157 -8 -179q0 -114 5 -287l5 -166q1 -23 -12 -44q-15 -25 -45 -28q8 1 -57 1q-50 0 -50 49q0 243 37 768l26 376q11 170 11 199q0 39 -12 39q-20 0 -74 -133q-146 -363 -272 -659q-77 -181 -122 -234q-53 -63 -124 -63
q-66 0 -103 49q-34 44 -34 112q0 21 7 133q38 654 38 824q0 67 -27 67q-9 0 -63 -12q-141 -31 -217 -31q-45 0 -45 46q0 24 48 40q39 13 70 13h279q98 0 98 -76q0 -100 -26 -495l-19 -295q-8 -129 -8 -162q0 -136 45 -136q43 0 131 224q118 301 192 476q158 372 217 434
q40 42 93 42q26 0 44 -33q15 -29 15 -57zM799 1362q0 -19 -27 -19q-40 0 -142 69q-106 72 -106 110q0 55 51 55q10 0 54 -45q76 -79 137 -129q33 -27 33 -41z" />
    <glyph glyph-name="glyph341" unicode="&#x1ef3;" horiz-adv-x="805" 
d="M700 602v0v-2l-1 -7l-3 -36l-13 -179q-17 -231 -17 -370q0 -73 3 -219t3 -219q0 -57 -78 -57q-53 0 -53 75q0 81 8 244t8 244q-105 -90 -201 -90q-102 0 -143 54q-35 47 -35 153q0 64 10.5 192.5t10.5 192.5q0 20 -17 20q-24 0 -69 -13.5t-68 -13.5q-65 0 -65 45
q0 41 79 41h205q70 0 70 -41q0 -45 -8 -147q-15 -192 -15 -297q0 -109 90 -109q85 0 154 89q12 178 12 440q0 72 54 72h41q38 0 38 -62zM520 764q0 -19 -27 -19q-40 0 -142 69q-106 72 -106 110q0 55 51 55q10 0 54 -45q76 -79 137 -129q33 -27 33 -41z" />
    <glyph glyph-name="glyph342" unicode="&#x1ef4;" horiz-adv-x="1311" 
d="M1116 1149q0 -18 -8 -159l-35 -643q-8 -157 -8 -179q0 -114 5 -287l5 -166q1 -23 -12 -44q-15 -25 -45 -28q8 1 -57 1q-50 0 -50 49q0 243 37 768l26 376q11 170 11 199q0 39 -12 39q-20 0 -74 -133q-146 -363 -272 -659q-77 -181 -122 -234q-53 -63 -124 -63
q-66 0 -103 49q-34 44 -34 112q0 21 7 133q38 654 38 824q0 67 -27 67q-9 0 -63 -12q-141 -31 -217 -31q-45 0 -45 46q0 24 48 40q39 13 70 13h279q98 0 98 -76q0 -100 -26 -495l-19 -295q-8 -129 -8 -162q0 -136 45 -136q43 0 131 224q118 301 192 476q158 372 217 434
q40 42 93 42q26 0 44 -33q15 -29 15 -57zM713 -249q0 -40 -19 -70q-23 -34 -61 -34q-82 0 -82 92q0 45 22 86q27 49 68 49q72 0 72 -123z" />
    <glyph glyph-name="glyph343" unicode="&#x1ef5;" horiz-adv-x="805" 
d="M700 602v0v-2l-1 -7l-3 -36l-13 -179q-17 -231 -17 -370q0 -73 3 -219t3 -219q0 -57 -78 -57q-53 0 -53 75q0 81 8 244t8 244q-105 -90 -201 -90q-102 0 -143 54q-35 47 -35 153q0 64 10.5 192.5t10.5 192.5q0 20 -17 20q-24 0 -69 -13.5t-68 -13.5q-65 0 -65 45
q0 41 79 41h205q70 0 70 -41q0 -45 -8 -147q-15 -192 -15 -297q0 -109 90 -109q85 0 154 89q12 178 12 440q0 72 54 72h41q38 0 38 -62zM473 -249q0 -40 -19 -70q-23 -34 -61 -34q-82 0 -82 92q0 45 22 86q27 49 68 49q72 0 72 -123z" />
    <glyph glyph-name="glyph344" unicode="&#x1ef6;" horiz-adv-x="1311" 
d="M1116 1149q0 -18 -8 -159l-35 -643q-8 -157 -8 -179q0 -114 5 -287l5 -166q1 -23 -12 -44q-15 -25 -45 -28q8 1 -57 1q-50 0 -50 49q0 243 37 768l26 376q11 170 11 199q0 39 -12 39q-20 0 -74 -133q-146 -363 -272 -659q-77 -181 -122 -234q-53 -63 -124 -63
q-66 0 -103 49q-34 44 -34 112q0 21 7 133q38 654 38 824q0 67 -27 67q-9 0 -63 -12q-141 -31 -217 -31q-45 0 -45 46q0 24 48 40q39 13 70 13h279q98 0 98 -76q0 -100 -26 -495l-19 -295q-8 -129 -8 -162q0 -136 45 -136q43 0 131 224q118 301 192 476q158 372 217 434
q40 42 93 42q26 0 44 -33q15 -29 15 -57zM812 1470q0 -51 -41 -75.5t-81 -48.5q1 -11 15 -26q-1 -10 -21 -10q-10 0 -25 21t-15 31q0 32 43.5 59t43.5 60q0 54 -54 54q-26 0 -29 -13q2 13 2 -30q0 -26 -33 -26q-34 0 -34 18q0 104 93 104q55 0 95.5 -32t40.5 -86z" />
    <glyph glyph-name="glyph345" unicode="&#x1ef7;" horiz-adv-x="805" 
d="M700 602v0v-2l-1 -7l-3 -36l-13 -179q-17 -231 -17 -370q0 -73 3 -219t3 -219q0 -57 -78 -57q-53 0 -53 75q0 81 8 244t8 244q-105 -90 -201 -90q-102 0 -143 54q-35 47 -35 153q0 64 10.5 192.5t10.5 192.5q0 20 -17 20q-24 0 -69 -13.5t-68 -13.5q-65 0 -65 45
q0 41 79 41h205q70 0 70 -41q0 -45 -8 -147q-15 -192 -15 -297q0 -109 90 -109q85 0 154 89q12 178 12 440q0 72 54 72h41q38 0 38 -62zM578 897q0 -51 -41 -75.5t-81 -48.5q1 -11 15 -26q-1 -10 -21 -10q-10 0 -25 21t-15 31q0 32 43.5 59t43.5 60q0 54 -54 54
q-26 0 -29 -13q2 13 2 -30q0 -26 -33 -26q-34 0 -34 18q0 104 93 104q55 0 95.5 -32t40.5 -86z" />
    <glyph glyph-name="glyph346" unicode="&#x1ef8;" horiz-adv-x="1311" 
d="M1116 1149q0 -18 -8 -159l-35 -643q-8 -157 -8 -179q0 -114 5 -287l5 -166q1 -23 -12 -44q-15 -25 -45 -28q8 1 -57 1q-50 0 -50 49q0 243 37 768l26 376q11 170 11 199q0 39 -12 39q-20 0 -74 -133q-146 -363 -272 -659q-77 -181 -122 -234q-53 -63 -124 -63
q-66 0 -103 49q-34 44 -34 112q0 21 7 133q38 654 38 824q0 67 -27 67q-9 0 -63 -12q-141 -31 -217 -31q-45 0 -45 46q0 24 48 40q39 13 70 13h279q98 0 98 -76q0 -100 -26 -495l-19 -295q-8 -129 -8 -162q0 -136 45 -136q43 0 131 224q118 301 192 476q158 372 217 434
q40 42 93 42q26 0 44 -33q15 -29 15 -57zM905 1492q0 -58 -50 -103.5t-108 -45.5q-51 0 -106 57t-64 57q-14 0 -14 -20q0 -10 3 -30t3 -30q0 -47 -37 -47t-37 41q0 59 27 104q33 54 88 54q43 0 99.5 -54.5t78.5 -54.5q29 0 39.5 56.5t44.5 56.5q33 0 33 -41z" />
    <glyph glyph-name="glyph347" unicode="&#x1ef9;" horiz-adv-x="805" 
d="M700 602v0v-2l-1 -7l-3 -36l-13 -179q-17 -231 -17 -370q0 -73 3 -219t3 -219q0 -57 -78 -57q-53 0 -53 75q0 81 8 244t8 244q-105 -90 -201 -90q-102 0 -143 54q-35 47 -35 153q0 64 10.5 192.5t10.5 192.5q0 20 -17 20q-24 0 -69 -13.5t-68 -13.5q-65 0 -65 45
q0 41 79 41h205q70 0 70 -41q0 -45 -8 -147q-15 -192 -15 -297q0 -109 90 -109q85 0 154 89q12 178 12 440q0 72 54 72h41q38 0 38 -62zM644 903q0 -58 -50 -103.5t-108 -45.5q-51 0 -106 57t-64 57q-14 0 -14 -20q0 -10 3 -30t3 -30q0 -47 -37 -47t-37 41q0 59 27 104
q33 54 88 54q43 0 99.5 -54.5t78.5 -54.5q29 0 39.5 56.5t44.5 56.5q33 0 33 -41z" />
    <glyph glyph-name="endash" unicode="&#x2013;" horiz-adv-x="877" 
d="M838 332q0 -47 -60 -47h1h-4l-3 1l-20 1l-98 7q-130 9 -232 9q-55 0 -164 -4t-164 -4q-61 0 -61 39q0 43 51 43h248q45 0 245 17.5t207 17.5q54 0 54 -45v-35z" />
    <glyph glyph-name="emdash" unicode="&#x2014;" horiz-adv-x="1751" 
d="M1714 332q0 -48 -74 -47q1 -1 1 0l-12 1l-51 1l-223 7q-298 9 -509 9q-124 0 -373 -4t-373 -4q-67 0 -67 39q0 43 78 43h544q94 0 539 18l294 11q151 6 161 6q65 0 65 -45v-35z" />
    <glyph glyph-name="quoteleft" unicode="&#x2018;" horiz-adv-x="346" 
d="M272 1206q0 -20 -25.5 -68t-25.5 -91q0 -19 6 -56.5t6 -56.5q0 -82 -73 -82q-70 0 -70 76q0 52 59 174q62 129 101 129q22 0 22 -25z" />
    <glyph glyph-name="quoteright" unicode="&#x2019;" horiz-adv-x="346" 
d="M272 1155q0 -52 -58 -174q-62 -129 -101 -129q-23 0 -23 25q0 16 24.5 65t24.5 94q0 19 -5 56.5t-5 56.5q0 82 72 82q71 0 71 -76z" />
    <glyph glyph-name="quotesinglbase" unicode="&#x201a;" horiz-adv-x="389" 
d="M256 123q0 -53 -58 -174q-61 -129 -100 -129q-24 0 -24 24q0 20 25.5 67.5t25.5 92.5q0 19 -5 56.5t-5 56.5q0 82 71 82q70 0 70 -76z" />
    <glyph glyph-name="quotedblleft" unicode="&#x201c;" horiz-adv-x="610" 
d="M537 1206q0 -16 -25 -63.5t-25 -95.5q0 -19 5.5 -56.5t5.5 -56.5q0 -82 -74 -82q-70 0 -70 76q0 51 60 173q62 130 100 130q23 0 23 -25zM272 1206q0 -20 -25.5 -68t-25.5 -91q0 -19 6 -56.5t6 -56.5q0 -82 -73 -82q-70 0 -70 76q0 52 59 174q62 129 101 129q22 0 22 -25
z" />
    <glyph glyph-name="quotedblright" unicode="&#x201d;" horiz-adv-x="610" 
d="M537 1155q0 -51 -59 -174q-63 -129 -101 -129q-23 0 -23 25q0 15 23.5 64.5t23.5 94.5q0 19 -5 56.5t-5 56.5q0 82 76 82q70 0 70 -76zM272 1155q0 -52 -58 -174q-62 -129 -101 -129q-23 0 -23 25q0 16 24.5 65t24.5 94q0 19 -5 56.5t-5 56.5q0 82 72 82q71 0 71 -76z
" />
    <glyph glyph-name="quotedblbase" unicode="&#x201e;" horiz-adv-x="653" 
d="M522 123q0 -52 -58 -174q-62 -129 -102 -129q-22 0 -22 24q0 20 24.5 70t24.5 90q0 19 -5 56.5t-5 56.5q0 82 74 82q69 0 69 -76zM256 123q0 -53 -58 -174q-61 -129 -100 -129q-24 0 -24 24q0 20 25.5 67.5t25.5 92.5q0 19 -5 56.5t-5 56.5q0 82 71 82q70 0 70 -76z" />
    <glyph glyph-name="dagger" unicode="&#x2020;" horiz-adv-x="696" 
d="M399 940h222q41 0 41 -43q0 -39 -50 -39q-36 0 -108.5 3t-108.5 3q-9 -329 -16 -1153q0 -53 -31 -53q-35 0 -35 61q0 594 -14 1145q-67 -3 -155 -16l-81 -12q-35 0 -44 26q-3 10 -3 56t43 45h-4l3 -1l8 -1l40 -3q37 -2 191 -12q-8 219 -8 318q0 46 20 57q12 8 60 8
q47 0 47 -74v0v-1v-2l-1 -12l-3 -57z" />
    <glyph glyph-name="daggerdbl" unicode="&#x2021;" horiz-adv-x="696" 
d="M399 940h222q41 0 41 -43q0 -39 -50 -39q-36 0 -108.5 3t-108.5 3q-4 -173 -12 -518q14 1 227 -8q37 -1 37 -39q0 -35 -45 -35q1 -1 1 -0.5t-1 0.5h-3l-12 1l-69 1l-69 1q-23 0 -66 -1l-4 -555q0 -53 -31 -53q-35 0 -35 61l-2 549q-69 -2 -148 -9t-75 -7q-31 0 -38 24
q-3 9 -3 50t37 41h-2l3 -1h9l39 -4q35 -2 178 -12l-12 514q-67 -3 -155 -16l-81 -12q-35 0 -44 26q-3 10 -3 56q0 45 43 45h-2h-2q0 -1 3 -1l9 -1l38 -3q38 -2 192 -12q-8 219 -8 318q0 45 19 57q13 8 61 8q47 0 47 -74v0v-2l-1 -14l-3 -51z" />
    <glyph glyph-name="bullet" unicode="&#x2022;" horiz-adv-x="655" 
d="M483 528q0 -71 -43.5 -119.5t-113.5 -48.5q-158 0 -158 152q0 79 47 145q53 72 129 72q73 0 110 -68q29 -53 29 -133z" />
    <glyph glyph-name="ellipsis" unicode="&#x2026;" horiz-adv-x="1468" 
d="M1309 92q0 -104 -78 -104q-90 0 -90 94q0 42 25 79q29 42 69 42q74 0 74 -111zM821 96q0 -39 -26 -71.5t-64 -32.5q-84 0 -84 92q0 43 23 76q26 37 67 37q84 0 84 -101zM328 96q0 -42 -23.5 -73t-64.5 -31q-80 0 -80 92q0 48 23 89q27 48 71 48q74 0 74 -125z" />
    <glyph glyph-name="perthousand" unicode="&#x2030;" horiz-adv-x="1786" 
d="M1698 236q0 -104 -68 -178t-172 -74q-106 0 -169 77q-58 71 -58 179q0 105 63 181q67 81 170 81q117 0 178 -76q56 -70 56 -190zM1165 236q0 -104 -68 -178t-171 -74q-106 0 -169 77q-59 71 -59 179q0 104 64 181q68 81 170 81q233 0 233 -266zM862 850q0 -10 -20 -51
l-545 -1125q-31 -63 -53 -63q-58 0 -58 47q0 27 13 51l292 540q169 315 279 546q-70 -29 -164 -73q-22 -9 -65 -30q-11 -7 -11 -20q0 -11 3.5 -32t3.5 -32q0 -113 -65 -191q-70 -83 -181 -83q-105 0 -173 76q-65 72 -65 178q0 115 74 193.5t188 78.5q38 0 77 -11
q54 -16 54 -44q0 -39 -40 -39q-7 0 -38.5 22.5t-56.5 22.5q-135 0 -135 -217q0 -205 123 -205q137 0 137 232q0 11 -7 31.5t-7 31.5q0 16 18 23q98 37 142 57q76 33 135 70q78 49 106 49q39 0 39 -33zM1579 281q0 172 -117 172q-56 0 -86 -82q-22 -61 -22 -129
q0 -203 114 -203q111 0 111 242zM1047 281q0 172 -117 172q-57 0 -87 -82q-22 -61 -22 -129q0 -203 115 -203q111 0 111 242z" />
    <glyph glyph-name="guilsinglleft" unicode="&#x2039;" horiz-adv-x="471" 
d="M408 61q0 -22 -17 -22q-14 0 -141 109q-76 67 -153 134q-36 29 -36 42q0 14 31 41q121 105 209 194q61 62 68 62q18 0 18 -19q0 -29 -68 -132q-60 -90 -96 -130q39 -47 105 -142q80 -115 80 -137z" />
    <glyph glyph-name="guilsinglright" unicode="&#x203a;" horiz-adv-x="471" 
d="M76 39q-15 0 -15 22q0 21 79 136q66 95 104 143q-36 42 -94 131q-68 104 -68 131q0 19 20 19q7 0 66 -62q52 -54 211 -194q27 -24 27 -41q0 -12 -33 -41q-281 -244 -297 -244z" />
    <glyph glyph-name="fraction" unicode="&#x2044;" horiz-adv-x="406" 
d="M600 1270q0 -24 -27 -72q-38 -65 -113 -195q-214 -377 -427 -817q-28 -61 -86 -180q-33 -65 -64 -65q-39 0 -39 45q0 22 31 77q42 71 123 214q194 344 436 829q23 47 70 141q34 64 65 64t31 -41z" />
    <glyph glyph-name="u20AB" unicode="&#x20ab;" horiz-adv-x="524" 
d="M431 1217q0 -5 -4 -96l-3 -68q21 1 67 1q35 0 35 -25q0 -31 -104 -30l-3 -57q-12 -270 -12 -357q0 -106 5.5 -153l5.5 -47q0 -42 -59 -42q-38 0 -44 39q-52 -44 -106 -44q-88 0 -134 81q-37 66 -37 161q0 88 44 167q53 93 135 93q55 0 110 -21q6 101 9 180h-185
q-31 0 -31 20q0 34 58 34l159 -2q3 82 3 155q0 16 -13 16q-15 0 -43.5 -11t-43.5 -11q-54 0 -54 38q0 22 29 22h178q38 0 38 -43zM325 770q-41 32 -76 32q-117 0 -117 -231q0 -185 109 -185q37 0 73 37q11 181 11 347zM380 150h-314v55h314v-55z" />
    <glyph glyph-name="trademark" unicode="&#x2122;" horiz-adv-x="803" 
d="M735 1020q0 -21 -3 -67t-3 -70v-43q0 -83 2 -92q4 -18 4 -21q0 -20 -33 -20q-31 0 -31 18q0 -4 3 20q4 30 4 132q0 24 -2 38q-35 -41 -69 -82q-56 -67 -62 -67q-8 0 -15 9q-30 46 -90 136q-10 -138 -10 -166q0 -2 1 -7t1 -7q0 -10 -6 -12q-4 -12 -16 -12q-21 0 -41 20
q1 8 4 23q1 8 18 217q3 42 6 63q6 8 12 8t15 -12q18 -26 131 -174q72 85 152 178q4 2 8 2q11 0 20 -12zM51 1028h277q14 -7 14 -22q0 -39 -20 -39q-1 0 -24.5 5t-36.5 5h-40q-4 -27 -4 -79v-61q0 -19 2 -57t2 -57q-6 -12 -33 -12q-24 0 -30 12q6 95 6 146v36q0 38 -2 72h-40
q-54 0 -67 -10q-16 0 -16 30q0 31 12 31z" />
    <glyph glyph-name="SF370000" unicode="&#x255f;" horiz-adv-x="1272" 
d="M1065 72q1 -49 -22 -63q-15 -9 -66 -9q-74 0 -74 68l7.5 136t7.5 236v29q-61 -183 -148 -308q-125 -177 -270 -177q-155 0 -267 126q-133 150 -133 433q0 276 165 488q178 229 446 229q266 0 266 -93q0 -22 -16 -50q-19 -30 -39 -30q-17 0 -114 54.5t-175 54.5
q-164 0 -282 -239q-107 -217 -107 -482q0 -184 79 -310q76 -122 177 -122q157 0 295 271q120 236 120 415q0 19 -1 56.5t-1 56.5q0 35 20 65.5t54 30.5h27q47 0 47 -86q0 -13 -7 -125.5t-7 -196.5q0 -152 9 -309z" />
    <glyph glyph-name="SF420000" unicode="&#x2560;" horiz-adv-x="1217" 
d="M84 602q0 329 205 514q168 152 391 152q105 0 192 -16q144 -27 144 -89q0 -57 -49 -57q-14 0 -123 49t-185 49q-231 0 -335 -209q-80 -159 -80 -415q0 -8 1 -24t1 -24q21 -2 55 -2h132q96 0 289 7.5t290 7.5q45 0 45 -35q0 -36 -53 -54q-38 -14 -82 -14h-222
q-63 0 -189 13.5t-189 13.5q-47 0 -70 -4q24 -178 122 -294q112 -132 281 -132q180 0 285 86q48 39 76 39q20 0 35.5 -23.5t15.5 -44.5q0 -29 -82 -71q-105 -54 -258 -54q-309 0 -491 216q-152 181 -152 415z" />
    <glyph glyph-name="SF190000" unicode="&#x2561;" horiz-adv-x="686" 
d="M436 1169q0 -8 -8 -206.5t-8 -311.5q0 -154 5 -374l5 -203q1 -10 0 -8q0 -58 -21 -68q-9 -4 -79 -4q-64 0 -64 67q0 10 15.5 273.5t15.5 333.5q0 80 -2 239.5t-2 239.5q0 24 -27 24q-29 0 -95.5 -18t-98.5 -18q-43 0 -43 36q0 56 84 56h249q74 0 74 -58z" />
    <glyph glyph-name="SF200000" unicode="&#x2562;" horiz-adv-x="1264" 
d="M1180 557q0 -249 -150 -415q-156 -171 -403 -171q-274 0 -424 188q-119 150 -119 343q0 313 174 530q169 211 389 211q229 0 387 -222q146 -205 146 -464zM1022 557q0 307 -153 491q-118 142 -226 142q-146 0 -270 -189q-131 -200 -131 -479q0 -209 91 -340
q105 -151 306 -151q189 0 295 176q88 147 88 350z" />
    <glyph glyph-name="SF230000" unicode="&#x2563;" horiz-adv-x="1370" 
d="M1133 1147q0 -79 -6.5 -236.5t-6.5 -236.5q0 -103 3 -309.5t3 -309.5q0 -18 -14 -36.5t-46 -20.5q30 2 -54 2q-45 0 -45 45q0 25 7 181l38 829q1 26 -11 26q-38 0 -90 -157q-117 -350 -233 -631q-128 -309 -264 -309q-148 0 -148 157q0 167 5 500t5 500q0 30 -26 30
q-9 0 -125.5 -17t-159.5 -17t-43 45t66 45h364q72 0 72 -78q0 -171 -15.5 -522t-15.5 -400q0 -149 53 -149q92 0 209 336q60 174 213 577q94 248 187 248q78 0 78 -92z" />
    <glyph glyph-name="SF470000" unicode="&#x2564;" horiz-adv-x="1311" 
d="M1116 1149q0 -18 -8 -159l-35 -643q-8 -157 -8 -179q0 -114 5 -287l5 -166q1 -23 -12 -44q-15 -25 -45 -28q8 1 -57 1q-50 0 -50 49q0 243 37 768l26 376q11 170 11 199q0 39 -12 39q-20 0 -74 -133q-146 -363 -272 -659q-77 -181 -122 -234q-53 -63 -124 -63
q-66 0 -103 49q-34 44 -34 112q0 21 7 133q38 654 38 824q0 67 -27 67q-9 0 -63 -12q-141 -31 -217 -31q-45 0 -45 46q0 24 48 40q39 13 70 13h279q98 0 98 -76q0 -100 -26 -495l-19 -295q-8 -129 -8 -162q0 -136 45 -136q43 0 131 224q118 301 192 476q158 372 217 434
q40 42 93 42q26 0 44 -33q15 -29 15 -57z" />
    <glyph glyph-name="SF480000" unicode="&#x2565;" 
d="M608 334v-264q0 -55 -21 -67q-11 -7 -71 -7q-34 0 -41 90q-135 -100 -244 -100q-68 0 -110.5 43.5t-42.5 111.5q0 153 133 224q91 49 270 67q0 96 -9 125q-21 64 -95 64q-71 0 -106 -49q-13 -18 -38 -91q-17 -49 -45 -49q-57 0 -57 66q0 81 77 131q67 45 152 45
q248 0 248 -340zM195 188q0 -120 104 -120q87 0 174 82q8 63 8 237q-286 -48 -286 -199z" />
    <glyph glyph-name="SF410000" unicode="&#x2566;" horiz-adv-x="653" 
d="M596 143q0 -69 -92 -118q-79 -41 -156 -41q-132 0 -207 90q-71 85 -71 219q0 162 102 270q93 99 203 99q162 0 162 -140q0 -128 -104 -217q-97 -85 -228 -90q6 -73 44 -120q43 -54 113 -54q65 0 124 67.5t67 67.5q43 0 43 -33zM416 555q0 57 -37 57q-87 0 -138 -99
q-42 -81 -42 -177q0 -25 4 -70q99 17 158 104q55 80 55 185z" />
    <glyph glyph-name="SF450000" unicode="&#x2567;" horiz-adv-x="459" 
d="M416 1206q0 -20 -47 -135q-30 -76 -61 -151q-26 -72 -62 -72q-27 0 -27 26q0 65 55 273q24 92 72 92h41q29 0 29 -33zM344 49q0 -57 -80 -57q-63 0 -63 47v126q0 69 9 208.5t9 208.5q0 20 -18 20q-21 0 -62.5 -15.5t-62.5 -15.5q-51 0 -51 39q0 47 96 47h145q70 0 70 -41
q0 -55 -4 -164.5t-4 -164.5q0 -129 4 -166q1 -9 7 -36q5 -23 5 -36z" />
    <glyph glyph-name="SF460000" unicode="&#x2568;" horiz-adv-x="459" 
d="M344 49q0 -57 -80 -57q-63 0 -63 47v126q0 69 9 208.5t9 208.5q0 20 -18 20q-21 0 -62.5 -15.5t-62.5 -15.5q-51 0 -51 39q0 47 96 47h145q70 0 70 -41q0 -55 -4 -164.5t-4 -164.5q0 -129 4 -166q1 -9 7 -36q5 -23 5 -36z" />
    <glyph glyph-name="SF400000" unicode="&#x2569;" horiz-adv-x="723" 
d="M666 346q0 -146 -76 -248q-83 -112 -225 -112q-139 0 -219 103q-72 94 -72 237q0 137 80 233q85 103 219 103q293 0 293 -316zM528 401q0 211 -157 211q-83 0 -124 -108q-30 -78 -30 -178q0 -122 19 -180q33 -101 129 -101q163 0 163 356z" />
    <glyph glyph-name="SF540000" unicode="&#x256a;" horiz-adv-x="813" 
d="M682 199q0 -83 8 -115q10 -40 10 -45q0 -22 -40 -36q-31 -11 -58 -11q-31 0 -40 27q-3 11 -3 53q-32 -31 -85 -57q-58 -29 -97 -29q-197 0 -197 204v-1v2v2l1 10l4 55l14 219q2 31 2 107q0 20 -17 20q-26 0 -73.5 -19.5t-71.5 -19.5q-53 0 -53 41q0 51 96 51h182
q70 0 70 -41q0 -138 -15 -327q-6 -75 -6 -121q0 -113 88 -113q94 0 156 90q0 28 -4 445q-1 82 106 82q35 0 35 -39q0 -72 -6 -217t-6 -217z" />
    <glyph glyph-name="SF530000" unicode="&#x256b;" horiz-adv-x="805" 
d="M700 602v0v-2l-1 -7l-3 -36l-13 -179q-17 -231 -17 -370q0 -73 3 -219t3 -219q0 -57 -78 -57q-53 0 -53 75q0 81 8 244t8 244q-105 -90 -201 -90q-102 0 -143 54q-35 47 -35 153q0 64 10.5 192.5t10.5 192.5q0 20 -17 20q-24 0 -69 -13.5t-68 -13.5q-65 0 -65 45
q0 41 79 41h205q70 0 70 -41q0 -45 -8 -147q-15 -192 -15 -297q0 -109 90 -109q85 0 154 89q12 178 12 440q0 72 54 72h41q38 0 38 -62z" />
    <glyph glyph-name="triaglf" unicode="&#x25c4;" horiz-adv-x="1272" 
d="M916 1340q0 -19 -37 -19q-58 0 -127 59.5t-72 59.5q-4 0 -65.5 -56t-93.5 -56q-27 0 -27 16q0 10 22 35q41 41 115 131q34 53 53 53q25 0 58 -43q47 -61 147 -145q27 -22 27 -35zM828 1779q0 -38 -104.5 -108.5t-145.5 -70.5q-26 0 -26 19q0 15 32 41q82 67 138 129
q41 45 53 45q53 0 53 -55z" />
    <glyph glyph-name="lozenge" unicode="&#x25ca;" horiz-adv-x="1272" 
d="M916 1340q0 -19 -37 -19q-58 0 -127 59.5t-72 59.5q-4 0 -65.5 -56t-93.5 -56q-27 0 -27 16q0 10 22 35q41 41 115 131q34 53 53 53q25 0 58 -43q47 -61 147 -145q27 -22 27 -35zM825 1619q0 -19 -27 -19q-40 0 -142 69q-106 72 -106 110q0 55 51 55q10 0 54 -45
q76 -79 137 -129q33 -27 33 -41z" />
    <glyph glyph-name="circle" unicode="&#x25cb;" horiz-adv-x="1272" 
d="M916 1340q0 -19 -37 -19q-58 0 -127 59.5t-72 59.5q-4 0 -65.5 -56t-93.5 -56q-27 0 -27 16q0 10 22 35q41 41 115 131q34 53 53 53q25 0 58 -43q47 -61 147 -145q27 -22 27 -35zM927 1690q0 -51 -41 -75.5t-81 -48.5q1 -11 15 -26q-1 -10 -21 -10q-10 0 -25 21t-15 31
q0 32 43.5 59t43.5 60q0 54 -54 54q-26 0 -29 -13q2 13 2 -30q0 -26 -33 -26q-34 0 -34 18q0 104 93 104q55 0 95.5 -32t40.5 -86z" />
    <glyph glyph-name="H18533" unicode="&#x25cf;" horiz-adv-x="1272" 
d="M916 1340q0 -19 -37 -19q-58 0 -127 59.5t-72 59.5q-4 0 -65.5 -56t-93.5 -56q-27 0 -27 16q0 10 22 35q41 41 115 131q34 53 53 53q25 0 58 -43q47 -61 147 -145q27 -22 27 -35zM971 1783q0 -58 -50 -103.5t-108 -45.5q-51 0 -106 57t-64 57q-14 0 -14 -20q0 -10 3 -30
t3 -30q0 -47 -37 -47t-37 41q0 59 27 104q33 54 88 54q43 0 99.5 -54.5t78.5 -54.5q29 0 39.5 56.5t44.5 56.5q33 0 33 -41z" />
    <glyph glyph-name="fi" unicode="&#xf001;" horiz-adv-x="870" 
d="M756 49q0 -57 -78 -57q-62 0 -62 47v115q0 70 8.5 210.5t8.5 210.5q0 21 -12 21q-51 0 -153 -6t-153 -6q0 -89 4.5 -266.5t4.5 -266.5q0 -40 -30 -48q-9 -3 -63 -3q-49 0 -49 55q0 316 6 527q-24 0 -71.5 -7.5t-67.5 -7.5q-35 0 -35 29q0 45 84 45h90q7 111 7 205
q0 177 57 285t149 108q68 0 190 -117.5t122 -185.5q0 -53 -41 -53q-58 0 -119 164q-20 55 -64 93q-49 42 -104 42q-53 0 -66 -122q-4 -33 -4 -161q0 -179 -2 -260q53 0 158 11.5t158 11.5q121 0 121 -46q0 -55 -4.5 -164.5t-4.5 -164.5q0 -144 4 -166q11 -59 11 -72z" />
    <glyph glyph-name="fl" unicode="&#xf002;" horiz-adv-x="889" 
d="M782 1174q0 -34 -6 -94q-7 -67 -8 -95q-10 -302 -10 -383q0 -92 6 -276.5t6 -276.5q0 -36 -14 -45.5t-51 -9.5q-46 0 -61 15t-15 59q0 471 16 956q-9 -6 -24 -6q-23 0 -83.5 65.5t-136.5 65.5q-86 0 -86 -277q0 -152 -2 -233q26 0 78 7t78 7q57 0 57 -35q0 -43 -100 -43
q-18 0 -55 4.5t-56 4.5q0 -89 4.5 -266.5t4.5 -266.5q0 -40 -30 -48q-9 -3 -63 -3q-49 0 -49 55q0 316 6 527q-24 0 -71.5 -7.5t-67.5 -7.5q-35 0 -35 29q0 45 84 45h90q7 111 7 178q0 148 48 252q63 139 193 139q97 0 213 -102q0 119 68 119q65 0 65 -53z" />
    <glyph glyph-name="glyph232" horiz-adv-x="346" 
d="M76 872q-23 0 -23 21q0 16 35 66q39 53 47 88q3 38 13 112q15 68 67 68q77 0 77 -66q0 -54 -85 -171q-88 -118 -131 -118z" />
    <glyph glyph-name="glyph233" horiz-adv-x="452" 
d="M438 887q0 -51 -41 -75.5t-81 -48.5q1 -11 15 -26q-1 -10 -21 -10q-10 0 -25 21t-15 31q0 32 43.5 59t43.5 60q0 54 -54 54q-26 0 -29 -13q2 13 2 -30q0 -26 -33 -26q-34 0 -34 18q0 104 93 104q55 0 95.5 -32t40.5 -86z" />
    <glyph glyph-name="glyph234" horiz-adv-x="446" 
 />
    <glyph glyph-name="glyph235" horiz-adv-x="446" 
 />
    <glyph glyph-name="glyph236" horiz-adv-x="446" 
 />
    <glyph glyph-name="glyph237" horiz-adv-x="446" 
 />
    <glyph glyph-name="glyph238" horiz-adv-x="446" 
 />
    <glyph glyph-name="glyph239" horiz-adv-x="446" 
 />
    <glyph glyph-name="glyph240" 
d="M579 760q0 -19 -37 -19q-58 0 -127 59.5t-72 59.5q-4 0 -65.5 -56t-93.5 -56q-27 0 -27 16q0 10 22 35q41 41 115 131q34 53 53 53q25 0 58 -43q47 -61 147 -145q27 -22 27 -35zM491 1199q0 -38 -104.5 -108.5t-145.5 -70.5q-26 0 -26 19q0 15 32 41q82 67 138 129
q41 45 53 45q53 0 53 -55z" />
    <glyph glyph-name="glyph241" 
d="M579 760q0 -19 -37 -19q-58 0 -127 59.5t-72 59.5q-4 0 -65.5 -56t-93.5 -56q-27 0 -27 16q0 10 22 35q41 41 115 131q34 53 53 53q25 0 58 -43q47 -61 147 -145q27 -22 27 -35zM488 1039q0 -19 -27 -19q-40 0 -142 69q-106 72 -106 110q0 55 51 55q10 0 54 -45
q76 -79 137 -129q33 -27 33 -41z" />
    <glyph glyph-name="glyph242" 
d="M579 760q0 -19 -37 -19q-58 0 -127 59.5t-72 59.5q-4 0 -65.5 -56t-93.5 -56q-27 0 -27 16q0 10 22 35q41 41 115 131q34 53 53 53q25 0 58 -43q47 -61 147 -145q27 -22 27 -35zM590 1110q0 -51 -41 -75.5t-81 -48.5q1 -11 15 -26q-1 -10 -21 -10q-10 0 -25 21t-15 31
q0 32 43.5 59t43.5 60q0 54 -54 54q-26 0 -29 -13q2 13 2 -30q0 -26 -33 -26q-34 0 -34 18q0 104 93 104q55 0 95.5 -32t40.5 -86z" />
    <glyph glyph-name="glyph243" 
d="M579 760q0 -19 -37 -19q-58 0 -127 59.5t-72 59.5q-4 0 -65.5 -56t-93.5 -56q-27 0 -27 16q0 10 22 35q41 41 115 131q34 53 53 53q25 0 58 -43q47 -61 147 -145q27 -22 27 -35zM634 1203q0 -58 -50 -103.5t-108 -45.5q-51 0 -106 57t-64 57q-14 0 -14 -20q0 -10 3 -30
t3 -30q0 -47 -37 -47t-37 41q0 59 27 104q33 54 88 54q43 0 99.5 -54.5t78.5 -54.5q29 0 39.5 56.5t44.5 56.5q33 0 33 -41z" />
    <glyph glyph-name="glyph244" 
d="M543 919q0 -48 -40 -95q-55 -64 -158 -64q-56 0 -96.5 41.5t-40.5 97.5q0 51 22 51q3 0 32.5 -51t84.5 -51q54 0 103.5 54t62.5 54q30 0 30 -37zM581 1199q0 -38 -104.5 -108.5t-145.5 -70.5q-26 0 -26 19q0 15 32 41q82 67 138 129q41 45 53 45q53 0 53 -55z" />
    <glyph glyph-name="glyph245" 
d="M543 919q0 -48 -40 -95q-55 -64 -158 -64q-56 0 -96.5 41.5t-40.5 97.5q0 51 22 51q3 0 32.5 -51t84.5 -51q54 0 103.5 54t62.5 54q30 0 30 -37zM448 1039q0 -19 -27 -19q-40 0 -142 69q-106 72 -106 110q0 55 51 55q10 0 54 -45q76 -79 137 -129q33 -27 33 -41z" />
    <glyph glyph-name="glyph246" 
d="M543 919q0 -48 -40 -95q-55 -64 -158 -64q-56 0 -96.5 41.5t-40.5 97.5q0 51 22 51q3 0 32.5 -51t84.5 -51q54 0 103.5 54t62.5 54q30 0 30 -37zM480 1110q0 -51 -41 -75.5t-81 -48.5q1 -11 15 -26q-1 -10 -21 -10q-10 0 -25 21t-15 31q0 32 43.5 59t43.5 60q0 54 -54 54
q-26 0 -29 -13q2 13 2 -30q0 -26 -33 -26q-34 0 -34 18q0 104 93 104q55 0 95.5 -32t40.5 -86z" />
    <glyph glyph-name="glyph247" 
d="M543 919q0 -48 -40 -95q-55 -64 -158 -64q-56 0 -96.5 41.5t-40.5 97.5q0 51 22 51q3 0 32.5 -51t84.5 -51q54 0 103.5 54t62.5 54q30 0 30 -37zM634 1203q0 -58 -50 -103.5t-108 -45.5q-51 0 -106 57t-64 57q-14 0 -14 -20q0 -10 3 -30t3 -30q0 -47 -37 -47t-37 41
q0 59 27 104q33 54 88 54q43 0 99.5 -54.5t78.5 -54.5q29 0 39.5 56.5t44.5 56.5q33 0 33 -41z" />
    </font>
</defs>
</svg>
