<svg xmlns="http://www.w3.org/2000/svg">
<defs>
<font id="UTMSwashes" horiz-adv-x="1767" >
  <font-face 
    font-family="UTMSwashes"
    font-weight="400"
    font-stretch="normal"
    units-per-em="2048"
    panose-1="2 4 6 3 5 5 6 2 2 4"
    ascent="1638"
    descent="-410"
    x-height="729"
    cap-height="1550"
    bbox="-323 -436 4942 2161.91"
    underline-thickness="109"
    underline-position="-143"
    unicode-range="U+0020-2026"
  />
<missing-glyph horiz-adv-x="5040" 
d="M3351 2045h10q37 -10 37 -52q0 -12 -32 -57h-28q0 24 28 54l2 10q-5 13 -10 15h-9q-8 0 -10 -19h-30q6 49 42 49zM2019 2016l29 -31q0 -16 -40 -30h-19l-59 12l-11 -12l-28 25q11 29 43 29h11l42 -11h2q10 0 30 18zM468 1980h142v-60h-94v-75h89v-59h-89v-129l-5 -5h-49
v323zM1155 1980h43l6 -5v-78h30v-52h-30v-188l-6 -5h-49v193h-25v52h25v78zM1621 1980h42l4 -5v-94h3q23 24 54 24h2q58 0 83 -71l2 -39v-143h-52v115q0 80 -42 80h-7q-43 0 -43 -86v-109h-51v323zM2200 1980h49l5 -5v-222q10 -51 45 -51q44 7 44 59v214l5 5h49v-216
q0 -85 -66 -112q-15 -8 -35 -8q-47 0 -82 55q-14 24 -14 57v224zM2435 1980h159v-60h-56v-268h-53v268h-55v55zM2621 1980h71q7 -4 83 -251h2l80 251h73v-328h-54v242h-2l-74 -242h-44q-4 0 -58 182l-19 60h-3v-242h-55v328zM3760 1980h52v-328h-45l-5 5v11l3 2l-3 14
q-29 -40 -78 -40q-67 0 -100 91l-5 39v3q0 94 92 125l23 3q35 0 63 -32h3v107zM2057 1928h36l4 -6v-49h-45v-221h-48v23q-23 -31 -59 -31q-89 14 -89 97v156h51v-104q0 -79 26 -86l18 -5h6q26 0 39 36l3 26v133h53v25zM3476 1928v-55h-31v-221h-47v25h-2q-15 -33 -57 -33
q-68 0 -86 78l-3 29v146h52v-120q0 -50 19 -68l21 -7h9q42 0 42 69v126h27q4 0 4 28l3 3h49zM758 1905q68 0 103 -77q9 -18 12 -54q0 -88 -90 -127l-32 -3q-63 0 -101 73q-12 22 -12 52v10q0 94 101 126h19zM1011 1905h3q74 0 83 -101v-152h-51v119q0 76 -42 76h-5
q-44 0 -44 -76v-119h-52v245h46v-21q30 29 62 29zM1466 1905h7q72 0 105 -89h-60q-16 31 -42 31h-17q-53 -14 -53 -61l-3 -15q12 -69 61 -69h9q22 0 47 27h40l2 3h3l2 -3l2 3l3 -3l2 3l2 -7q-33 -81 -110 -81q-76 0 -110 94l-4 36v3q0 85 77 120q15 8 37 8zM3141 1905h2

<glyph glyph-name=".notdef" horiz-adv-x="5040" 
d="M3351 2045h10q37 -10 37 -52q0 -12 -32 -57h-28q0 24 28 54l2 10q-5 13 -10 15h-9q-8 0 -10 -19h-30q6 49 42 49zM2019 2016l29 -31q0 -16 -40 -30h-19l-59 12l-11 -12l-28 25q11 29 43 29h11l42 -11h2q10 0 30 18zM468 1980h142v-60h-94v-75h89v-59h-89v-129l-5 -5h-49
v323zM1155 1980h43l6 -5v-78h30v-52h-30v-188l-6 -5h-49v193h-25v52h25v78zM1621 1980h42l4 -5v-94h3q23 24 54 24h2q58 0 83 -71l2 -39v-143h-52v115q0 80 -42 80h-7q-43 0 -43 -86v-109h-51v323zM2200 1980h49l5 -5v-222q10 -51 45 -51q44 7 44 59v214l5 5h49v-216
q0 -85 -66 -112q-15 -8 -35 -8q-47 0 -82 55q-14 24 -14 57v224zM2435 1980h159v-60h-56v-268h-53v268h-55v55zM2621 1980h71q7 -4 83 -251h2l80 251h73v-328h-54v242h-2l-74 -242h-44q-4 0 -58 182l-19 60h-3v-242h-55v328zM3760 1980h52v-328h-45l-5 5v11l3 2l-3 14
q-29 -40 -78 -40q-67 0 -100 91l-5 39v3q0 94 92 125l23 3q35 0 63 -32h3v107zM2057 1928h36l4 -6v-49h-45v-221h-48v23q-23 -31 -59 -31q-89 14 -89 97v156h51v-104q0 -79 26 -86l18 -5h6q26 0 39 36l3 26v133h53v25zM3476 1928v-55h-31v-221h-47v25h-2q-15 -33 -57 -33
q-68 0 -86 78l-3 29v146h52v-120q0 -50 19 -68l21 -7h9q42 0 42 69v126h27q4 0 4 28l3 3h49zM758 1905q68 0 103 -77q9 -18 12 -54q0 -88 -90 -127l-32 -3q-63 0 -101 73q-12 22 -12 52v10q0 94 101 126h19zM1011 1905h3q74 0 83 -101v-152h-51v119q0 76 -42 76h-5
q-44 0 -44 -76v-119h-52v245h46v-21q30 29 62 29zM1466 1905h7q72 0 105 -89h-60q-16 31 -42 31h-17q-53 -14 -53 -61l-3 -15q12 -69 61 -69h9q22 0 47 27h40l2 3h3l2 -3l2 3l3 -3l2 3l2 -7q-33 -81 -110 -81q-76 0 -110 94l-4 36v3q0 85 77 120q15 8 37 8zM3141 1905h2
q49 0 70 -60v-14h-52q0 16 -16 16h-4q-14 0 -19 -13v-13q0 -9 68 -35q30 -19 30 -59q0 -58 -61 -80l-23 -3q-76 12 -76 83h54q0 -20 27 -25h4q19 0 24 23q0 22 -68 44q-34 27 -34 59q0 66 74 77zM4203 1905q55 0 77 -63q7 -18 7 -65v-125h-52v112q0 83 -40 83h-11
q-33 0 -40 -54v-141h-52v5h-2l2 2v238h47v-21q25 29 64 29zM4432 1905h5q40 0 69 -40v18l-3 3l3 11h47v-208q0 -97 -85 -132l-33 -4h-7q-70 0 -104 80h59q24 -22 45 -23h13q22 0 43 22q15 13 22 52h-3q-32 -40 -73 -40q-57 0 -96 70q-10 18 -14 63q0 88 87 125zM3851 1897
h53v-136q6 -59 40 -59h7q46 0 46 93v102h51v-245h-47l-3 10h3l-3 3v5l3 2v3h-4q0 -23 -57 -31h-3q-59 0 -84 75l-2 85v93zM690 1771q10 -69 63 -69h7q59 14 59 65v15q-13 65 -59 65h-5q-58 0 -65 -76zM3630 1774q13 -72 61 -72h5q58 0 66 75q0 49 -51 70h-22q-37 0 -56 -57z
M4374 1774q8 -72 65 -72h5q59 12 59 72q0 61 -59 73h-14q-56 -16 -56 -62v-11zM3928 1620h52v-57h-52v57zM1054 1402q43 -11 43 -49v-4q0 -17 -32 -60h-28q0 25 31 57v7q0 12 -7 15h-12q-10 -4 -10 -19h-28v6q0 32 33 44zM3349 1339q92 0 138 -99h-60q-37 42 -80 42
q-55 0 -87 -68q-10 -22 -10 -47q0 -78 81 -110l18 -1q36 0 75 39h61q-44 -97 -138 -97q-93 0 -141 112q-10 31 -10 62q0 97 90 152q29 15 63 15zM3664 1339q57 0 103 -47q46 -51 46 -115v-20q0 -89 -91 -146q-33 -13 -63 -13q-89 0 -138 101q-13 33 -13 60v18q0 98 98 151
q29 11 58 11zM2261 1337h2l47 -11h3q11 0 26 11l18 -36q-18 -19 -35 -19h-3l-54 10l-20 -7l-20 36q18 16 36 16zM716 1334h19q118 0 129 -26q25 -26 25 -62q-10 -57 -30 -57v-6q47 -23 47 -66v-18q0 -63 -69 -88l-54 -5h-67v328zM2550 1334h53v-217q6 -61 45 -61q29 0 44 39
l3 30v203l4 6h45l5 -6v-171q0 -118 -40 -133q-24 -26 -64 -26q-55 0 -91 76l-4 54v206zM2805 1334h59q4 0 122 -237h4v237h50l4 -6v-322h-58q-29 48 -125 238h-3v-238h-53v328zM3101 1334h54v-328h-54v328zM3859 1334h8q155 0 174 -40q23 -11 47 -75l4 -36v-11l3 -2
q0 -94 -82 -149q-35 -15 -99 -15h-55v328zM4141 1334h153v-60h-103v-75h101v-57h-101v-74l4 -5h99v-57h-157v322zM3563 1175v-10q0 -76 79 -108l19 -1q68 0 96 86l3 20v15q0 61 -60 94q-12 8 -39 11q-66 0 -96 -83zM770 1274v-67h9q54 0 54 28l3 14q-11 25 -29 25h-37z
M3912 1274v-206l2 -3v-2q104 0 122 76l2 15v29q0 34 -32 68q-25 23 -78 23h-16zM1041 1259h5q38 0 71 -40v32h49v-245h-49v32q-36 -40 -80 -40q-75 0 -101 97l-5 36q0 89 85 125zM1314 1259h3q74 0 83 -102v-151h-51v128q0 67 -42 67h-10q-34 0 -39 -62v-133h-52v245h47v-21
q28 29 61 29zM1543 1259h5q45 0 71 -40v32h47v-219q0 -95 -104 -126h-16q-74 0 -108 82h59q26 -25 44 -25h14q52 0 64 77q-33 -42 -76 -42q-60 0 -101 81l-7 44v16q0 79 85 117zM1912 1259h2q43 0 61 -37h2q32 37 69 37h4q57 0 79 -55q8 -25 8 -45v-153h-52v138q0 44 -23 55
l-12 2h-15q-32 0 -36 -65v-130h-52v136q0 59 -43 59h-8q-32 0 -36 -57v-138h-54v245h50v-21h2q6 24 54 29zM2282 1259q47 0 75 -42v34h47v-245h-47v32q-36 -40 -78 -40q-74 0 -102 92l-6 41q0 90 85 125zM985 1117q0 -48 61 -61h4q45 0 62 46l3 15v22q-12 62 -57 62h-14
q-41 0 -59 -57v-27zM1487 1128q0 -48 43 -68l18 -4h5q47 0 63 57v23q-11 65 -58 65h-12q-50 0 -59 -73zM2225 1131v-14q15 -61 57 -61h14q58 12 58 64v11q0 45 -37 65l-18 5h-10q-64 -8 -64 -70zM770 1150v-82q0 -5 7 -5q77 0 77 45q0 34 -47 42h-37zM2966 753l24 -28
l-51 -55q-18 12 -27 26zM1524 727l85 -54q0 -15 -21 -42l-87 54q18 41 23 42zM2850 693h38l55 -60h-54l-21 26l-23 -26h-54q54 60 59 60zM3422 693h40l56 -60h-54l-24 26h-1q0 -5 -19 -26h-54zM622 685h52q8 -4 47 -137l34 -110q9 8 34 100l48 147h54v-2l-112 -326h-44z
M1159 685h51v-54h-51v54zM1354 685h46l6 -5v-323h-52v328zM2317 685h45l4 -5v-78h31v-52h-31v-193h-53v193h-26v52h26v78zM2425 685h52v-98h2q23 23 54 23h3q57 0 81 -71l3 -38v-144h-52v115q0 81 -39 81h-10q-42 0 -42 -87v-109h-52v328zM2664 685h52v-54h-52v54zM3028 685
h44l6 -5v-78h29v-52h-29v-193h-54v193h-27v52h27v78zM3234 685h52v-328h-52v328zM3957 685h52v-328h-52v328zM4316 685h51v-54h-51v54zM1555 610h5q83 0 110 -102l3 -23v-11q0 -83 -85 -120l-35 -5q-76 0 -111 97l-4 32q0 97 93 130zM1811 610h4q53 0 78 -60q7 -25 7 -81
v-112h-54v146q-7 50 -37 50h-10q-38 0 -42 -57v-139h-54v245h49v-21q26 29 59 29zM2046 610h4q45 0 63 -39h3v31h49v-206q0 -102 -89 -135l-28 -3h-5q-73 0 -106 81h52l37 -20l15 -3h14q50 0 61 72q-33 -39 -73 -39q-62 0 -98 76q-11 23 -12 60q0 85 86 123zM2866 610h2
q82 0 111 -104l2 -25l-2 -27h-172q15 -45 45 -45l14 -3q29 0 49 22h57v-3q-35 -76 -108 -76q-77 0 -111 97l-1 28v8q0 49 32 89q34 39 82 39zM3429 610h5q41 0 70 -39h2v31h47v-245h-47v31h-2q-35 -39 -77 -39q-71 0 -101 89l-5 36v14q0 86 84 120zM3711 610h7
q88 0 107 -128l-2 -1v-15q0 -65 -66 -106q-21 -11 -46 -11q-34 0 -64 32v-99l-5 -5h-49v325h49v-28q31 36 69 36zM4151 610q44 0 75 -39v31h49v-245h-49v31q-35 -39 -77 -39q-92 0 -108 132q0 84 73 121q15 8 37 8zM922 602h50v-136q3 -60 42 -60h5q44 0 44 87v109h52v-245
h-47v24h-5q0 -23 -56 -32h-3q-55 0 -82 68q-4 35 -4 99v81zM1159 602h51v-245h-51v245zM2664 602h52v-245h-52v245zM4316 602h51v-245h-51v245zM1492 488v-16q13 -66 59 -66h4q59 0 66 76q-13 71 -59 71h-11q-59 -16 -59 -65zM1987 472q15 -66 59 -66h11q48 0 59 75v1
q-13 71 -59 71h-14q-39 0 -56 -57v-24zM2805 506h122v2q-16 45 -59 45h-7q-35 0 -56 -47zM3373 474q13 -68 61 -68h5q52 0 65 63v12q-10 72 -57 72h-16q-56 -14 -56 -63zM3642 478q12 -72 61 -72h3q50 0 65 60v22q0 43 -49 65h-22q-47 0 -58 -72v-3zM4095 472q10 -66 66 -66
q43 0 61 48l2 15v16q0 54 -52 68h-18q-42 0 -59 -60v-21zM3416 321h51v-52h-51v52zM4137 321h51v-52h-51v52zM2733 133h4q35 0 43 -50v-2q0 -16 -24 -41l-10 -17h-28q0 25 28 56l3 2v2q-3 19 -9 19h-10q-8 0 -9 -19h-30q6 50 42 50zM1546 116l52 -60l-26 -19l-52 52zM352 79
h4q75 -48 85 -60l-20 -37q-88 49 -88 58zM3490 79l86 -58l-18 -39q-10 0 -91 55q15 36 23 42zM4578 76l19 -42l-91 -52l-20 39l92 58v-3zM1204 53h51v-19l5 -5h14v-36h-14l-5 -5v-279h-46v31q-34 -40 -81 -40q-72 0 -102 105l-3 26q0 102 101 131h14q33 0 66 -33v59l-6 5
h-43v36h49v24zM1480 45h40l56 -61h-53l-23 27l-23 -27h-53zM2641 45h33q12 0 63 -61h-54l-23 27q-19 -21 -19 -27h-58v4zM49 37h160v-60h-56v-268h-50l-4 5v245l2 3v2l-2 2l2 3l-2 2l2 3l-2 3h-54v54zM699 37h47v-73l2 -2l-2 -3v-3l2 -2l-2 -3v-3l2 -2v-2l-2 -3l2 -3h3
q17 24 51 24h3q53 0 77 -58q7 -17 7 -42v-153h-52v127q0 68 -40 68h-8q-43 0 -43 -86v-109h-52v322zM1297 37h47l5 -6v-49h-52v55zM1987 37h52v-198l70 115h62l-78 -118l90 -125v-2h-70q-10 22 -74 115v-115h-52v328zM2271 37v-99q24 24 53 24q57 0 80 -56q10 -19 10 -77
v-120h-54v133q0 62 -41 62h-11q-31 0 -37 -55v-140h-53v314l-1 3v3l1 2l-1 3l1 3h53zM2458 37h51v-55h-51v55zM3148 37h51v-108q27 33 68 33h3q75 0 105 -94l5 -37q0 -75 -64 -120q-30 -11 -49 -11q-41 0 -72 40v-31h-47v328zM4275 37h52v-99h2q23 24 54 24h3q60 0 82 -74
l2 -41v-138h-52v111q0 82 -32 82l-10 2h-12q-37 0 -37 -80v-115h-52v328zM329 -38h3v-58h-5q-42 0 -42 -57v-138h-53v245h47v-21q18 29 50 29zM564 -38q71 0 86 -87v-166h-51v136q-6 59 -41 59h-6q-45 0 -45 -84v-111h-52v245h50v-21q25 29 59 29zM1504 -38q72 0 105 -94
l5 -39q-2 -24 -7 -24h-169q17 -47 62 -47q24 0 48 21h57q-33 -79 -108 -79q-82 0 -113 105v37q0 81 89 117zM2657 -38h5q77 0 107 -97l3 -26v-21l-3 -13h-170q18 -47 53 -47h12q21 0 42 21h59q-34 -79 -105 -79q-84 0 -115 102l-2 29q0 93 91 128zM2915 -38h4q54 0 78 -60
q7 -25 7 -82v-111h-54v138q0 48 -35 57h-11q-38 0 -43 -57v-138h-54v245h50v-21q25 29 58 29zM3508 -38h6q40 0 70 -40h2v32h47v-245h-47v31h-2q-34 -40 -78 -40q-71 0 -101 90l-4 37v12q0 82 77 117q11 6 30 6zM3781 -38h4q62 0 82 -78l3 -84v-91h-54v138q0 48 -38 57h-9
q-38 0 -42 -52v-143h-54v245h49v-21q26 29 59 29zM4133 -38h1q74 0 104 -93l4 -40q0 -88 -84 -126l-25 -3q-41 0 -68 34v-106h-52v326h47v-29q30 37 73 37zM4714 -38h5q34 0 63 -37q27 37 69 37h6q56 0 79 -66l6 -51v-136h-52v122q0 73 -39 73h-7q-35 0 -41 -50v-140l-5 -5
h-48v140q0 42 -31 55h-17q-40 0 -40 -77v-118h-51v245h47v-21q22 29 56 29zM359 -46h49l5 -6v-234l-5 -5h-49v245zM1297 -46h52v-245h-52v245zM1649 -46h52v-136q4 -60 43 -60h4q44 0 44 81v115h52v-245h-47v24h-5q-12 -33 -59 -33q-52 0 -79 63q-5 12 -5 34v157zM2458 -46
h51v-245h-51v245zM4515 -46h51v-245h-51v245zM1077 -169q0 -53 51 -73h12q54 0 66 66v10q0 53 -54 70h-17q-38 0 -58 -57v-16zM1438 -143h122q-18 47 -53 47h-7q-43 0 -62 -44v-3zM2599 -143h122q-21 47 -54 47h-7q-46 0 -61 -47zM3196 -158v-11q10 -73 61 -73h5q64 8 64 71
v5q0 45 -38 65l-18 5h-14q-60 -14 -60 -62zM3452 -173q14 -69 62 -69h11q41 0 59 60v13q-8 73 -56 73h-17q-47 0 -59 -73v-4zM4062 -158v-22q0 -47 59 -62h9q50 0 61 76q-13 70 -58 70h-15q-56 -17 -56 -62z" />
    <glyph glyph-name=".null" horiz-adv-x="0" 
 />
    <glyph glyph-name="nonmarkingreturn" horiz-adv-x="571" 
 />
    <glyph glyph-name="space" unicode=" " horiz-adv-x="512" 
 />
    <glyph glyph-name="exclam" unicode="!" horiz-adv-x="419" 
d="M547 1204l-336 -860q-6 -16 -13.5 -32.5t-21.5 -16.5q-27 0 -27 20l4 18t8 23l7 13l262 751l14 49q0 7 -6 13q-4 0 -6 2q-8 -4 -17.5 -8.5t-50.5 -30.5q-4 -4 -20 -8q-19 0 -19 18q0 8 8.5 16.5t67.5 49.5l76 49q18 12 36.5 20t26.5 10q29 5 29 -28q0 -8 -7 -26.5
t-15 -41.5zM131 193q6 0 13 -10.5t15 -35.5l11 -22l4 -21q0 -14 -47 -49l-15 -10q-4 -2 -8 -3t-8 -3q-10 0 -25 39l-16 47q0 10 23.5 29.5t35 26.5t17.5 12z" />
    <glyph glyph-name="quotedbl" unicode="&#x22;" horiz-adv-x="450" 
d="M425 1087l-98 -229l-6 -14q-8 -23 -21 -23q-20 0 -20 15q2 6 4 15t8 26l47 149l11 35q0 4 -3.5 7t-5.5 5l-10 -4q-16 -12 -35 -18l-12 12q0 10 45 43q76 51 90 51q21 0 21 -20l-6 -25zM616 1087l-98 -229l-7 -14q-8 -23 -20 -23q-21 0 -21 15l9 30l4 11l47 149l12 35
q0 4 -3 7l-5 5l-10 -4q-27 -18 -37 -18l-12 12q0 6 5 12t40.5 30.5t59.5 38t30 13.5q22 0 22 -20q0 -9 -16 -50z" />
    <glyph glyph-name="numbersign" unicode="#" horiz-adv-x="956" 
d="M231 391h-121q-57 0 -57 29q0 20 10 26.5t49 6.5h146l129 286h-125q-57 0 -57 29q0 20 10 26.5t49 6.5h151l123 272q31 70 39 80t27 10q27 0 27 -18q-5 -19 -9 -25l-8 -20l-131 -299h326l123 272l8 17l12 28q19 45 45 45q27 0 27 -18q-4 -21 -8 -25l-11 -20l-129 -299
h144q49 0 49 -29q0 -33 -62 -33h-159l-125 -286h145q49 0 49 -29q0 -33 -61 -33h-160l-147 -336q-19 -41 -26 -50t-26 -9q-34 0 -34 29q0 12 18 49l6 16l135 301h-319l-146 -336q-16 -37 -25 -48t-26 -11q-37 0 -37 29q0 12 19 49l6 16zM456 739l-124 -286h319l129 286h-324
z" />
    <glyph glyph-name="dollar" unicode="$" horiz-adv-x="956" 
d="M744 1188l-13 -49l62 -21q43 -20 57 -20q19 0 27 23.5t22 23.5q29 0 56.5 -84t27.5 -164q0 -61 -31 -61q-24 0 -34 38q-23 84 -69 132.5t-132 76.5l-107 -413q142 -121 204.5 -220.5t62.5 -207.5q0 -174 -135.5 -309.5t-311.5 -135.5l-43 2l-33 -127q-12 -45 -38 -45
q-31 0 -31 31l8 43l27 106q-369 97 -369 394q0 110 67.5 205.5t147.5 95.5q51 0 51 -49q0 -31 -24 -41q-2 -2 -76 -25q-47 -14 -78 -62.5t-31 -109.5q0 -106 94.5 -196.5t241.5 -122.5l178 696q-112 96 -154 160.5t-42 136.5q0 108 84 186t205 78l49 -2l14 51q10 43 37 43
q33 0 33 -35zM555 723l94 371q-96 0 -151 -49.5t-55 -129.5q0 -92 112 -192zM578 541l-170 -654h43q139 0 239.5 92.5t100.5 219.5q0 153 -213 342z" />
    <glyph glyph-name="percent" unicode="%" horiz-adv-x="940" 
d="M933 1094l-751 -1061q-27 -37 -45 -37q-33 0 -33 31q0 10 4 18t23 35l747 1046q27 39 45 39q10 0 20.5 -8t10.5 -22q0 -13 -21 -41zM413 1153q60 0 97.5 -44t37.5 -118q0 -129 -87 -246.5t-183 -117.5q-61 0 -98 43t-37 116q0 132 87 249.5t183 117.5zM389 1087
q-66 0 -119 -83.5t-53 -190.5q0 -117 92 -117q61 0 112.5 84t51.5 189q0 118 -84 118zM811 539q59 0 97 -44t38 -118q0 -127 -88 -246t-185 -119q-61 0 -98 43t-37 117q0 129 88 248t185 119zM786 473q-68 0 -121 -84t-53 -190q0 -117 92 -117q64 0 115 84t51 188
q0 119 -84 119z" />
    <glyph glyph-name="ampersand" unicode="&#x26;" horiz-adv-x="1249" 
d="M770 201q61 -92 147 -92q97 0 179 67q18 14 37 31q6 4 12 4q18 0 18 -16q0 -11 -19.5 -30.5t-49.5 -39.5q-134 -88 -248 -88q-49 0 -86 20.5t-84 75.5q-92 -51 -164 -72.5t-145 -21.5q-123 0 -202 74.5t-79 191.5q0 139 120 277.5t343 253.5q39 198 136 330t206 132
q49 0 77.5 -26.5t28.5 -71.5q0 -53 -37.5 -114.5t-104.5 -117t-206 -130.5q-8 -56 -8 -93q0 -135 33 -307q20 -106 69 -192q213 184 213 350q0 43 -22.5 72.5t-56.5 29.5l-25 -4l-10 -2l-8 8q0 17 22 39q37 37 84 37q43 0 72.5 -34.5t29.5 -86.5q0 -100 -69.5 -216.5
t-202.5 -237.5zM653 891q262 127 262 280q0 29 -18 49.5t-47 20.5q-64 0 -119 -97t-78 -253zM543 778q-344 -186 -344 -438q0 -98 65.5 -166t163.5 -68q115 0 221 70q-108 197 -108 526z" />
    <glyph glyph-name="quotesingle" unicode="'" horiz-adv-x="272" 
d="M439 1087l-98 -229l-6 -14q-8 -23 -21 -23q-20 0 -20 15q2 6 4 15t8 26l47 149l11 35q0 4 -3.5 7t-5.5 5l-10 -4q-16 -12 -35 -18l-12 12q0 10 45 43q76 51 90 51q21 0 21 -20l-6 -25z" />
    <glyph glyph-name="parenleft" unicode="(" horiz-adv-x="575" 
d="M366 -141q18 0 18 -19q0 -12 -30.5 -36.5t-57.5 -43.5q-71 -49 -106 -49q-54 0 -80 101q-35 139 -35 319q0 285 136 564.5t370 471.5q90 74 198.5 134.5t151.5 60.5q25 0 25 -19q0 -8 -10.5 -14t-45.5 -20q-102 -39 -227 -140.5t-213 -216.5q-127 -166 -200.5 -382
t-73.5 -427q0 -135 24.5 -231t59.5 -96q18 0 32 8q25 16 41 26z" />
    <glyph glyph-name="parenright" unicode=")" horiz-adv-x="575" 
d="M398 1257q-18 0 -33 -8q-24 -16 -41 -26l-22 -9q-19 0 -19 19q0 12 31 36.5t57 43.5q72 49 107 49q53 0 80 -100q35 -140 35 -320q0 -285 -136.5 -564.5t-369.5 -471.5q-90 -74 -198.5 -134.5t-151.5 -60.5q-25 0 -25 19q0 8 10 14t45 20q103 39 228 140.5t213 216.5
q127 166 200.5 382t73.5 427q0 135 -24.5 231t-59.5 96z" />
    <glyph glyph-name="asterisk" unicode="*" horiz-adv-x="956" 
d="M823 1145l55 -92q17 -27 17 -37q0 -33 -35 -33q-21 0 -39 33l-60 98l-79 -90q-17 -16 -26 -23.5t-20 -7.5q-30 0 -30 37q0 12 26 43l74 84l-88 37q-45 18 -45 41q0 33 29 33q10 0 28 -8l17 -7l98 -39l27 105q12 47 37 47q34 0 34 -31l-4 -24l-22 -101l110 27l33 6
q31 0 31 -33q-2 -16 -10.5 -22t-40.5 -14z" />
    <glyph glyph-name="plus" unicode="+" horiz-adv-x="956" 
d="M573 604h274q39 0 46.5 -7t7.5 -22q0 -26 -54 -26h-274v-254q0 -55 -29 -53q-26 0 -26 61v246h-275q-55 0 -53 29q0 26 61 26h267v254q0 25 3 39t21 14q31 0 31 -53v-254z" />
    <glyph glyph-name="comma" unicode="," horiz-adv-x="239" 
d="M45 135q39 0 39 -55q0 -72 -70 -133q-59 -56 -88 -56q-14 0 -14 17q0 10 16 20q54 35 54 84q0 23 -13.5 32t-21.5 22q0 10 22 24l29 19q35 26 47 26z" />
    <glyph glyph-name="hyphen" unicode="-" horiz-adv-x="272" 
d="M199 317h-152q-36 0 -48.5 6.5t-12.5 26.5q0 33 47 33h25h141q35 0 47 -6t12 -27q0 -22 -16 -27.5t-43 -5.5z" />
    <glyph glyph-name="hyphen" unicode="&#x2010;" horiz-adv-x="272" 
d="M199 317h-152q-36 0 -48.5 6.5t-12.5 26.5q0 33 47 33h25h141q35 0 47 -6t12 -27q0 -22 -16 -27.5t-43 -5.5z" />
    <glyph glyph-name="period" unicode="." horiz-adv-x="186" 
d="M29 123l7 -21l8 -26q0 -15 -35 -39l-16 -10q-11 -7 -23 -13q-2 0 -4 -2q-14 0 -25 29l-16 57l9 13.5t24 19.5l8 8q31 23 39 23q14 0 24 -39z" />
    <glyph glyph-name="slash" unicode="/" horiz-adv-x="681" 
d="M957 1288l-1063 -1497q-27 -37 -45 -37q-33 0 -33 31q0 12 2 17t25 36l1058 1483q29 39 45 39q11 0 21 -8.5t10 -22.5q0 -12 -20 -41z" />
    <glyph glyph-name="zero" unicode="0" horiz-adv-x="956" 
d="M690 1135q143 0 228 -89.5t85 -236.5q0 -129 -53 -270.5t-151 -266.5q-187 -243 -404 -243q-139 0 -221 86t-82 237q0 119 53 262.5t146 266.5q188 254 399 254zM645 1049q-172 0 -311.5 -196t-139.5 -439q0 -289 271 -289q141 0 245 123q80 92 133.5 236.5t53.5 269.5
q0 141 -66.5 218t-185.5 77z" />
    <glyph glyph-name="one" unicode="1" horiz-adv-x="956" 
d="M440 125l342 813q-102 -70 -141 -93.5t-107 -53.5q-139 -64 -219 -64q-47 0 -43 41q0 41 72 41q319 0 571 330q17 22 29 22q16 0 16 -14q0 -2 -1 -7t-27 -48q-70 -119 -140 -301l-202 -539l-19 -62q0 -16 14 -16q19 6 29 12l27 9q16 0 16 -19q0 -10 -27.5 -32.5
t-95 -64.5t-94.5 -42q-25 0 -25 18q0 6 7.5 25.5t17.5 44.5z" />
    <glyph glyph-name="two" unicode="2" horiz-adv-x="956" 
d="M344 156q94 -23 166.5 -39.5t111.5 -16.5q62 0 119 27t100 74q25 26 35 26q17 0 17 -16q0 -10 -26 -38t-66 -60q-125 -105 -256 -105q-44 0 -68 6q-41 15 -70 23q-116 35 -176 35q-41 0 -55 -4l-19 -2q-18 0 -18 14q0 12 12 20q21 9 33 15q74 32 195.5 125.5t201.5 179.5
q215 231 215 428q0 108 -59 177t-154 69q-125 0 -231.5 -104.5t-106.5 -231.5q0 -84 44.5 -136.5t113.5 -52.5q64 0 119 43q12 11 18.5 15t12.5 6q12 -10 12 -15q0 -20 -51 -53q-80 -55 -172 -55q-80 0 -134.5 54t-54.5 134q0 166 158 313.5t338 147.5q117 0 190.5 -75.5
t73.5 -198.5q0 -117 -71.5 -249t-202.5 -253q-51 -47 -116 -97t-179 -130z" />
    <glyph glyph-name="three" unicode="3" horiz-adv-x="956" 
d="M665 692q199 -71 199 -282q0 -195 -155.5 -350.5t-354.5 -155.5q-119 0 -227.5 59.5t-108.5 124.5q0 55 51 55q33 0 68 -57q43 -70 101.5 -103.5t137.5 -33.5q142 0 258.5 129t116.5 289q0 100 -53 169.5t-131 69.5l-35 -2l-20 -2q-23 0 -23 19q0 16 31 26
q84 27 145.5 108t61.5 163q0 65 -47.5 112t-114.5 47q-125 0 -234 -137q-8 -12 -13 -15t-7 -3q-21 0 -21 16q0 12 27 48t59 67q58 55 115 81.5t127 26.5q92 0 152.5 -58.5t60.5 -146.5q0 -67 -37 -126.5t-129 -137.5z" />
    <glyph glyph-name="four" unicode="4" horiz-adv-x="956" 
d="M675 283l-33 -95l-12 -45q0 -16 16 -16q5 0 16 4t32 12l16 4q14 0 14 -14q0 -12 -13 -23.5t-58 -33.5q-82 -43 -131 -43q-29 0 -29 20q0 15 14 51l6 15l60 162q-56 12 -74 16q-57 18 -111 35q-127 39 -215 39q-26 0 -63 -9l-19 -4q-20 0 -20 19q0 14 14 37q9 14 88 129
q160 231 384.5 408t361.5 177q39 0 39 -26q0 -19 -6 -39q-15 -39 -27 -74l-225 -635q51 8 87 21.5t70 40.5q13 10 21 13t12 5q19 0 19 -18q0 -17 -64 -60q-80 -53 -170 -73zM601 356l213 574q25 71 25 92q0 18 -20 18q-37 0 -121 -51t-170 -125q-215 -188 -346 -411
q69 0 120.5 -11.5t196.5 -58.5z" />
    <glyph glyph-name="five" unicode="5" horiz-adv-x="956" 
d="M483 1026l-97 -215l70 6q156 0 260.5 -106.5t104.5 -264.5q0 -196 -145.5 -349.5t-332.5 -153.5q-108 0 -211.5 59t-103.5 125q0 49 47 49q29 0 57 -43q93 -145 222 -145q139 0 251.5 129t112.5 286q0 136 -84 226t-207 90q-67 0 -114 -35q-19 -14 -31 -14q-16 0 -16 16
q2 6 6 15.5t20 37.5q25 43 84.5 168t87.5 199q8 20 23 20h16q35 -4 60.5 -4h58.5l127 4q49 0 92 27l29 12l14 -12q0 -12 -57 -78q-37 -39 -62.5 -45t-163.5 -6z" />
    <glyph glyph-name="six" unicode="6" horiz-adv-x="956" 
d="M809 1135q63 0 106 -20.5t43 -51.5q0 -39 -45 -39q-10 0 -49 18.5t-67.5 24.5t-67.5 6q-192 0 -339.5 -188.5t-147.5 -435.5q0 -158 61.5 -252.5t165.5 -94.5q127 0 229.5 131.5t102.5 294.5q0 97 -49.5 160.5t-126.5 63.5q-60 0 -114 -42t-89 -114q-12 -27 -27 -27
q-16 0 -16 17q0 14 14.5 42.5t36.5 61.5q105 152 256 152q94 0 151.5 -72t57.5 -188q0 -201 -155.5 -377t-336.5 -176q-118 0 -196 102t-78 262q0 297 204 519.5t476 222.5z" />
    <glyph glyph-name="seven" unicode="7" horiz-adv-x="956" 
d="M897 1053q-52 -11 -93 -11h-65q-33 7 -49 9l-152 10q-67 0 -123.5 -31t-89.5 -86q-18 -33 -33 -33q-16 0 -16 15q0 14 25.5 57t54.5 78q84 104 194 104q58 0 166 -18q39 -8 81 -13.5t63 -5.5q65 0 135 35l12 4l12 -12q-2 -4 -4 -10t-14 -25q-86 -131 -244 -491
q-82 -187 -143 -357q-10 -32 -19.5 -60t-9.5 -34q0 -22 21 -22q6 0 17 5t28.5 16t26 13.5t12.5 4.5q14 0 14 -19q0 -12 -13.5 -23.5t-64.5 -46.5q-102 -67 -157 -67q-37 0 -33 33q0 34 92 239q151 332 369 742z" />
    <glyph glyph-name="eight" unicode="8" horiz-adv-x="956" 
d="M650 752q121 -125 170.5 -210t49.5 -171q0 -154 -144.5 -274t-333.5 -120q-153 0 -255.5 80t-102.5 203q0 182 217 340q80 55 248 133q-107 115 -107 189q0 41 42 90t108 84q76 41 139 41q74 0 141.5 -61.5t67.5 -127.5q0 -53 -88 -114q-20 -15 -47 -29t-105 -53z
M622 784q88 37 129 75t41 87q0 51 -48 94t-106 43q-51 0 -93 -37.5t-42 -82.5t45 -103l43 -47zM530 705q-189 -78 -293.5 -193t-104.5 -240q0 -110 80 -179.5t209 -69.5q145 0 245.5 90t100.5 221q0 108 -112 241l-84 93z" />
    <glyph glyph-name="nine" unicode="9" horiz-adv-x="956" 
d="M178 139q14 0 18.5 -1t53.5 -24.5t110 -23.5q197 0 344.5 190.5t147.5 446.5q0 150 -62.5 243t-162.5 93q-130 0 -233 -132t-103 -294q0 -98 49 -161.5t129 -63.5q123 0 201 155q16 29 28 29q19 0 19 -18q0 -21 -33 -74q-107 -180 -277 -180q-90 0 -149.5 69.5
t-59.5 177.5q0 209 154 387.5t334 178.5q127 0 202.5 -102.5t75.5 -274.5q0 -281 -204.5 -506t-460.5 -225q-74 0 -119 18.5t-45 50.5q0 41 43 41z" />
    <glyph glyph-name="colon" unicode=":" horiz-adv-x="313" 
d="M110 119l7 -21l8 -26q0 -15 -35 -39l-16 -10q-11 -7 -23 -13q-2 0 -4 -2q-14 0 -25 29l-16 57l9 13.5t24 19.5l8 8q31 23 39 23q14 0 24 -39zM213 639q14 0 24 -39l7 -16l8 -31q0 -14 -35 -39l-16 -10q-11 -6 -23 -12q-2 0 -4 -3q-14 0 -25 29l-16 57q4 7 9 14t24 19l8 8
q31 23 39 23z" />
    <glyph glyph-name="semicolon" unicode=";" horiz-adv-x="366" 
d="M291 598l6 -16l8 -31q0 -14 -35 -39l-16 -10q-10 -6 -23 -13q-2 0 -4 -2q-14 0 -24 29l-17 57q4 7 9.5 14t23.5 19l8 8q31 23 39 23q14 0 25 -39zM139 135q39 0 39 -55q0 -72 -70 -133q-59 -56 -88 -56q-14 0 -14 17q0 10 16 20q54 35 54 84q0 23 -13.5 32t-21.5 22
q0 10 22 24l29 19q35 26 47 26z" />
    <glyph glyph-name="less" unicode="&#x3c;" horiz-adv-x="1024" 
d="M1038 1235v-53l-699 -459l699 -463v-139l-840 555v12z" />
    <glyph glyph-name="equal" unicode="=" horiz-adv-x="956" 
d="M847 453h-604q-35 0 -44 5t-9 23q0 27 61 27h596q39 0 46.5 -7t7.5 -22q0 -26 -54 -26zM847 643h-604q-35 0 -44 5t-9 24q0 26 61 26h596q39 0 46.5 -7t7.5 -21q0 -27 -54 -27z" />
    <glyph glyph-name="greater" unicode="&#x3e;" horiz-adv-x="1024" 
d="M198 121v53l698 459l-698 463v139l840 -555v-12z" />
    <glyph glyph-name="question" unicode="?" horiz-adv-x="712" 
d="M546 420q17 0 17 -19q0 -14 -47 -51l-31 -24q-23 -19 -35 -26t-24 -7q-5 0 -13 6q-14 12 -43.5 54t-33 46t-3.5 13q0 18 33 41q141 100 239.5 260.5t98.5 292.5q0 94 -45 155.5t-117 61.5q-90 0 -176 -98.5t-86 -200.5q0 -29 10 -76l4 -31q0 -20 -18 -20
q-20 0 -32.5 33.5t-12.5 89.5q0 131 116.5 255.5t239.5 124.5q101 0 160 -67.5t59 -183.5q0 -131 -94 -293t-245 -287q-29 -23 -29 -37q0 -10 14 -33q12 -14 25 -14q12 0 15 2t38 27zM368 193q10 0 13.5 -3.5t15.5 -39.5l14 -41q0 -11 -5 -18t-24.5 -21.5t-41.5 -26.5
q-3 -2 -9 -4q-10 0 -18 27l-12 30l-9 31q0 8 7.5 15.5t37.5 31.5q13 10 21 13t10 6z" />
    <glyph glyph-name="at" unicode="@" horiz-adv-x="1382" 
d="M1066 739l-71 -192l-11 -35q0 -37 60 -37q43 0 94 26.5t94 71.5q107 109 107 308q0 192 -104.5 302.5t-289.5 110.5q-266 0 -470.5 -235.5t-204.5 -542.5q0 -197 112.5 -313.5t300.5 -116.5q224 0 439 176q43 33 53 33l12 -12q0 -21 -57 -70q-221 -190 -518 -190
q-213 0 -333 115.5t-120 326.5q0 366 236.5 627.5t568.5 261.5q215 0 351 -134.5t136 -342.5q0 -193 -135 -328t-330 -135q-94 0 -94 65l4 29q-129 -96 -237 -96q-58 0 -94.5 34.5t-36.5 94.5q0 65 36.5 123.5t122.5 126.5q0 94 63.5 153.5t166.5 59.5q80 0 129 -41t49 -107
q0 -37 -29 -117zM1017 840l6 37q0 38 -31.5 66t-80.5 28q-54 0 -97 -35t-43 -78l2 -16q66 35 134 35q57 0 110 -37zM892 842q-92 0 -183 -91.5t-91 -183.5q0 -45 28.5 -71.5t75.5 -26.5q92 0 178 92t86 199q0 37 -24.5 59.5t-69.5 22.5z" />
    <glyph glyph-name="A" unicode="A" horiz-adv-x="2115" 
d="M1735 201l96 243q-78 -28 -227 -45l-101 -10l-149 -10q-197 -369 -484 -506q80 -82 203 -82q146 0 244 88q10 10 16 12.5t8 4.5q17 0 17 -17q0 -16 -47 -49q-121 -84 -250 -84q-154 0 -246 104q-70 -22 -109.5 -30t-89.5 -8q-125 0 -240.5 62.5t-115.5 131.5
q-2 17 10.5 28t30.5 11q23 0 47 -35q60 -84 128.5 -123t158.5 -39q37 0 70.5 7.5t84.5 27.5q-10 23 -12 27q-8 16 -22 65q-76 -30 -142 -30q-61 0 -109 26.5t-48 61.5q0 30 30 30q19 0 47 -28q52 -51 117 -51q47 0 101 26l-2 37q0 121 88 215t251 146q5 6 16 23.5t25 43.5
q93 178 207 424q86 188 147.5 276.5t188.5 208.5q-188 78 -407 78q-56 0 -117 -10q127 -145 127 -334q0 -235 -180.5 -434t-393.5 -199q-133 0 -223 96.5t-90 237.5q0 135 75 267.5t204 224.5q69 49 149 88t186 71q-122 89 -268 89q-147 0 -263 -95.5t-116 -216.5
q0 -26 8.5 -43.5t34.5 -42.5q-20 -18 -39 -18q-30 0 -46.5 22.5t-16.5 63.5q0 143 145.5 260t325.5 117q203 0 340 -109q127 27 252 27q227 0 389 -76q151 113 348 113q92 0 178 -41t86 -86q0 -35 -35 -35q-14 0 -24 8t-25 25q-80 86 -219 86q-135 0 -268 -88q33 -19 65 -37
q5 -2 37 -27q56 27 103 39t90 12q67 0 120.5 -24.5t53.5 -57.5q0 -37 -37 -37q-16 0 -37 19q-65 55 -137 55q-59 0 -121 -35q154 -141 154 -342q0 -143 -49 -295l-48 -137q39 17 73 39.5t75 59.5q6 6 11 8t9 4q13 -10 13 -15q0 -10 -20.5 -34.5t-55.5 -55.5
q-51 -43 -133 -84l-10 -22l-9 -23l-10 -22q-24 -51 -31 -68l-32 -82l-27 -65q-14 -33 -14 -51q0 -29 24 -29q27 0 66 29q22 16 28.5 20t12.5 4q16 0 16 -16q0 -21 -57 -62q-86 -67 -148 -67q-63 0 -63 57q0 16 7 40t26 73zM1491 676l-33 -74l-70 -151l164 10q99 0 165.5 12
t137.5 39q72 184 100.5 289.5t28.5 185.5q0 174 -143 295q-59 -45 -100 -96t-84 -131q-17 -35 -51.5 -113t-53.5 -121l-30 -71zM1317 723l-35 -78q-20 -47 -48 -101.5t-56 -101.5l-11 -16l72 10l51 8l84 181q152 338 233 467t199 219q-12 10 -38.5 27.5t-57.5 31.5
q-100 -80 -195 -237q-57 -101 -129 -256l-34 -78zM1253 371h-14l-76 -6l-39 -7q-143 -243 -325 -362q12 -47 43 -90q88 41 146 91t128 148q29 41 69 104.5t68 121.5zM1055 342q-121 -31 -195 -106.5t-74 -165.5l4 -37q64 39 136.5 124t128.5 185zM1049 1432
q-246 -41 -413 -202t-167 -356q0 -135 82 -223t205 -88q184 0 320 152.5t136 359.5q0 105 -57 217q-35 66 -78 113z" />
    <glyph glyph-name="B" unicode="B" horiz-adv-x="1910" 
d="M1738 825q117 -125 117 -284q0 -236 -211 -414t-494 -178q-108 0 -181 23.5t-253 115.5q-162 -106 -303 -106q-98 0 -174 36.5t-76 85.5q0 35 35 35q18 0 34.5 -8t53.5 -37q76 -59 170 -59q98 0 213 76l-23 12q-51 27 -94 27q-31 0 -31 18q0 10 6.5 14t32.5 15
q52 20 120.5 101t103.5 163l-91 -4q-202 0 -330 113.5t-128 295.5q0 275 263 473.5t626 198.5q55 0 87.5 -2t106.5 -10q166 121 371 121q119 0 222 -47.5t103 -102.5q0 -43 -39 -43q-20 0 -34.5 8t-42.5 41q-95 103 -256 103q-80 0 -138.5 -18.5t-138.5 -69.5
q221 -52 347 -172.5t126 -280.5q0 -70 -22.5 -123t-77.5 -117zM1246 1466q-104 21 -192 21q-297 0 -511 -175t-214 -417q0 -160 117.5 -275.5t279.5 -115.5l80 6q27 68 43 117t43 145q74 275 144.5 413t209.5 281zM687 258l-39 -39q35 -10 60.5 -18t52.5 -23
q66 66 113 139.5t86 184.5l-60 -19l-55 -12q-25 -53 -64.5 -106.5t-93.5 -106.5zM1640 797q-101 118 -215 118q-113 0 -113 -81q0 -97 149 -97q58 0 89.5 10.5t89.5 49.5zM1701 860q27 41 39 81t12 83q0 141 -130 262t-337 172q-63 -57 -101 -109.5t-79 -144.5
q-68 -145 -133 -360l-61 -213q-9 -27 -18 -51.5t-25 -61.5q61 10 110 31q84 223 130 371.5t54 175.5q2 8 2 14q0 12 -20 29l-2 8q0 16 34 44t91 62q121 74 166 74q6 0 16 -10q0 -2 2 -4q0 -15 -26 -27q-60 -26 -94.5 -82.5t-96.5 -222.5l-74 -199l-71 -188l73 45q9 6 16 8
t9 4l12 -12q0 -16 -34.5 -40t-96.5 -52q-59 -137 -115.5 -221t-146.5 -166l160 -74q182 -78 299 -78q178 0 327.5 155.5t149.5 344.5q0 82 -16.5 135t-61.5 121q-123 -76 -241 -76q-84 0 -132.5 35t-48.5 98q0 60 53.5 96.5t143.5 36.5q129 0 262 -94z" />
    <glyph glyph-name="C" unicode="C" horiz-adv-x="1492" 
d="M818 1434v20q-250 -86 -421 -347t-171 -560q0 -277 159 -460t399 -183q188 0 333.5 108.5t210.5 298.5q23 64 58 64q34 0 34 -35q0 -29 -28.5 -82t-75.5 -111q-256 -313 -612 -313q-260 0 -421 181.5t-161 473.5q0 324 203 615t504 395q30 96 120.5 153.5t212.5 57.5
q150 0 250.5 -96t100.5 -242q0 -108 -58 -184q-16 -19 -26 -19q-25 0 -25 45q0 111 -115.5 196t-259.5 85q-39 0 -70.5 -4t-76.5 -16l-6 -31q0 -53 45 -66q0 -41 -39 -41q-27 0 -45.5 28t-18.5 69zM888 1518q41 8 82 15t88 7q141 0 229 -49t162 -168q12 55 12 76
q0 110 -94 192t-223 82q-92 0 -159.5 -41t-96.5 -114zM1042 1255q-222 0 -402 -208.5t-180 -468.5q0 -197 110.5 -325t280.5 -128q76 0 159 42t132 101q22 29 33 29q16 0 16 -16q-2 -31 -82 -101q-149 -129 -328 -129q-178 0 -292.5 133t-114.5 340q0 295 208 531.5
t466 236.5q159 0 261.5 -96t102.5 -250q0 -104 -51 -191t-143 -141q-35 -18 -65 -30.5t-44 -12.5q-12 0 -37 27l-18 25q12 8 20 8q109 0 198 101.5t89 223.5q0 125 -93 212t-226 87z" />
    <glyph glyph-name="D" unicode="D" horiz-adv-x="1906" 
d="M1885 952q15 -82 15 -166q0 -321 -230 -555q-116 -120 -263.5 -190t-289.5 -70q-82 0 -138 18.5t-228 100.5q-160 -100 -307 -100q-101 0 -191 45t-90 94q0 39 41 39q20 0 47 -29q55 -57 106.5 -81.5t114.5 -24.5q111 0 221 86q-94 43 -149 43q-23 0 -30 3t-7 15
q0 17 49 33t105.5 70.5t99.5 130.5l-66 -2q-219 0 -354 122.5t-135 323.5q0 166 110.5 323.5t288.5 250.5q193 98 426 98q131 0 244 -29q107 78 189.5 108.5t187.5 30.5q170 0 280.5 -102t110.5 -260q0 -184 -158 -326zM1181 850l-17 -51l-34 -101l-52 -141q66 31 123 86
q6 6 11.5 7t7.5 3l10 -10q0 -22 -44 -58t-130 -83q-90 -193 -211 -330q137 -76 218 -104.5t157 -28.5q112 0 231 70.5t207 189.5q66 88 104.5 206t38.5 230q0 62 -16 146q-121 -68 -254 -68q-53 0 -53 23q0 14 22 14h11l38 -2q117 0 226 70q-107 358 -529 497
q-104 -115 -172 -287l-75 -215l-23 -63l-20 -64l-21 -63l-16 -45l-17 -47l-14 -45q-12 -39 -18 -51q-19 -37 -31 -62q59 0 123 27l71 205l76 227l21 59q14 47 14 60q0 14 -14 32l-2 7q0 12 27.5 33.5t85 54t107.5 55t70 22.5q19 0 19 -12q0 -14 -19 -22q-79 -47 -118 -97.5
t-82 -169.5q-6 -16 -8 -20q-9 -19 -29 -84zM945 453q-12 -4 -55 -15.5t-78 -17.5q-65 -96 -151 -180q34 -7 44.5 -10t63.5 -23l19 -6q55 61 92 119.5t65 132.5zM749 469h41q24 53 47 121l108 340q60 188 111 290.5t143 206.5q-110 33 -245 33q-275 0 -465.5 -159.5
t-190.5 -391.5q0 -198 123 -319t328 -121zM1326 1489q228 -86 350.5 -196.5t194.5 -297.5q98 99 98 238q0 153 -105.5 256.5t-262.5 103.5q-146 0 -275 -104z" />
    <glyph glyph-name="E" unicode="E" horiz-adv-x="1523" 
d="M849 1409v41q-178 -107 -203 -330q84 15 133 15q140 0 230 -65.5t90 -166.5q0 -86 -62.5 -146.5t-152.5 -60.5q-209 0 -316 224q-79 -54 -128.5 -154t-49.5 -215q0 -197 129 -338t310 -141q129 0 216 82t103 217q10 82 45 82q39 0 39 -47q0 -39 -18.5 -89.5t-51.5 -95.5
q-59 -86 -162.5 -139t-213.5 -53q-203 0 -338.5 137t-135.5 346q0 268 246 442q-12 45 -12 95q-166 -84 -259 -237t-93 -337q0 -244 172 -405.5t428 -161.5q223 0 389 155.5t166 364.5q0 61 -11 107l-6 45q0 59 52 59q63 0 63 -96q0 -289 -219 -494t-529 -205
q-274 0 -446 162t-172 422q0 209 123 383t344 274q20 138 95 237t216 177q33 98 116 156.5t191 58.5q144 0 243 -89t99 -216t-81 -209q-31 -35 -58 -35q-20 0 -20 21l6 22l6 49q0 97 -100.5 170.5t-231.5 73.5q-53 0 -121 -20l-6 -41q0 -60 35 -82q16 -12 27 -25
q2 -6 -4 -12q-15 -14 -33 -14q-33 0 -55.5 28.5t-22.5 73.5zM644 1079v-39l4 -45q68 19 121 19q78 0 136.5 -35t58.5 -82q0 -45 -43 -45q-19 0 -19 12l2 8l2 19q0 31 -52 59.5t-109 28.5q-35 0 -89 -18q76 -222 248 -222q62 0 103 39t41 96q0 91 -87 151t-223 60
q-57 0 -94 -6zM1427 1329q24 47 24 86q0 109 -88 186.5t-213 77.5q-164 0 -231 -155q82 22 145 22q270 0 363 -217z" />
    <glyph glyph-name="F" unicode="F" horiz-adv-x="1740" 
d="M1415 795h34q105 0 168 53l23 12q14 0 14 -14q2 -19 -30.5 -45.5t-81.5 -48.5q-35 -15 -74 -23t-88 -8q-88 -197 -147.5 -309.5t-135.5 -221.5q-215 -313 -540 -313q-209 0 -347 115q-61 53 -61 88q0 47 49 47q29 0 60 -41q131 -164 333 -164q283 0 463 285
q62 96 115 200.5t147 313.5l-102 4q-86 -174 -137 -268q-43 -80 -92 -150q-179 -258 -404 -258q-70 0 -129 31t-59 70q0 16 11 27t28 11q12 0 23 -7t36 -31q59 -56 135 -56q78 0 140.5 46t132.5 159q28 47 69 125q29 53 74 149l20 43l19 41l20 43l13 27h-27
q-158 0 -158 -164q0 -12 -10 -12q-20 0 -20 59q0 88 66.5 141.5t184.5 53.5l117 266q23 57 30 76.5t7 28.5q0 24 -16 20l-19 -4q-16 0 -16 18q2 29 137 103l154 69l41 11l12 -13q0 -10 -16 -20q-93 -51 -150 -168l-76 -158l-73 -162l-31 -69l100 -6q76 159 134.5 256.5
t109.5 155t114.5 92t118.5 34.5q58 0 58 -37q0 -32 -43 -32l-33 2l-31 2q-90 0 -171 -104.5t-193 -370.5zM1497 1444l-60 4q-94 0 -122.5 2t-53.5 6l-119 2q-39 0 -85 -3t-52 -3q66 -125 66 -260q0 -225 -162 -391t-383 -166q-135 0 -220 87t-85 224q0 199 169 345.5
t476 211.5q-123 131 -277 131q-104 0 -188 -61.5t-84 -140.5q0 -23 3 -32t17 -34q-18 -18 -36 -18q-50 0 -50 65q0 98 111 180t246 82q196 0 350 -155q78 8 144.5 12t138.5 4q16 0 209.5 -8t263.5 -8l186 -7q104 0 151.5 10.5t118.5 51.5l17 4q10 -8 10 -12q-2 -8 -7 -15.5
t-30 -27.5l-104 -94l-39 -35q-27 -27 -37 -27t-16.5 17.5t-32 25.5t-99 16.5t-94 9.5t-94.5 1l-74 4zM909 1446q-154 0 -260.5 -41t-200.5 -123q-59 -53 -98 -137t-39 -160q0 -121 77.5 -205t192.5 -84q166 0 301 137.5t135 305.5q0 110 -57 225l-31 53z" />
    <glyph glyph-name="G" unicode="G" horiz-adv-x="1497" 
d="M1224 612h-8q-12 13 -12 17q4 22 98 76q41 22 95.5 42.5t84.5 20.5q23 0 23 -16q0 -11 -11.5 -20t-41 -29.5t-48 -59.5t-67.5 -174q-84 -233 -146.5 -362.5t-136.5 -219.5q-102 -125 -235 -194.5t-273 -69.5q-141 0 -269 78t-128 166q0 49 49 49q35 0 74 -70
q96 -165 301 -165q125 0 233.5 65.5t182.5 185.5q43 72 92 175.5t119 267.5q-240 -221 -498 -221q-221 0 -377 161.5t-156 395.5q0 190 108 381.5t278 304.5q71 47 157 79.5t195 51.5q86 180 286 180q144 0 250.5 -98.5t106.5 -235.5q0 -102 -62 -186q-30 -37 -49 -37
q-6 0 -9 4t-7 43q0 115 -125 209t-272 94l-76 -6l-4 -33q0 -26 14 -53q-12 -12 -25 -12q-41 0 -41 65v25q-262 -45 -437 -255t-175 -478q0 -222 143.5 -375.5t350.5 -153.5q127 0 246.5 63.5t191.5 170.5q49 71 49 123q0 32 -27 32zM962 1536h53q363 0 455 -264
q27 59 27 102q0 125 -89.5 212t-214.5 87q-163 0 -231 -137zM999 1303q-209 0 -360.5 -170t-151.5 -404q0 -160 102.5 -270.5t247.5 -110.5q60 0 119 22.5t104 61.5q23 21 31 33t37 72q6 16 27 16q24 0 24 -25q0 -34 -74 -108q-120 -121 -305 -121q-164 0 -275.5 120
t-111.5 296q0 246 179.5 433t414.5 187q137 0 229.5 -86t92.5 -217q0 -59 -29 -122.5t-76 -106.5q-28 -27 -47 -27l-33 12q-14 9 -20 17q-2 0 -2 2q10 10 33 20q55 25 89.5 82.5t34.5 126.5q0 115 -79.5 191t-200.5 76z" />
    <glyph glyph-name="H" unicode="H" horiz-adv-x="2381" 
d="M1816 784l16 7l17 4l73 20l60 156q71 186 147 325q62 109 163 186t183 77q62 0 96.5 -38t34.5 -106q0 -88 -59 -196.5t-162 -204.5q-149 -142 -383 -228l-49 -127q-31 -77 -61 -155q-2 -4 -86 -242q-13 -31 -22 -59.5t-9 -38.5q0 -25 27 -25q28 2 71 33q33 29 45 29
q17 0 17 -15q0 -22 -103 -92q-90 -59 -145 -59q-49 0 -49 47q0 22 7 43.5t44 114.5l203 505l-82 -24l-19 -4l-59 -15l-27 -59q-22 -49 -31.5 -64.5t-17.5 -15.5l-8 8l18 76l11 43l-52 -12q-20 -4 -35.5 -6t-33.5 -6l-45 -9q-41 -108 -63.5 -162.5t-47.5 -105.5
q-100 -203 -200.5 -305t-278.5 -188q82 -140 229 -140q68 0 133 39l15 6q12 -10 12 -14q0 -14 -59.5 -45t-128.5 -31q-162 0 -267 162q-55 -16 -96 -22.5t-90 -6.5q-115 0 -211 43t-96 97q0 43 47 43q12 0 23.5 -6.5t37.5 -36.5q86 -101 217 -101q43 0 72 4t80 19
q-8 16 -12 28.5t-13 42.5q-34 -8 -48.5 -10t-41.5 -2q-61 0 -109 27.5t-48 60.5q0 31 32 31q17 0 47 -31q50 -49 107 -49q22 0 55 10l-6 62q0 170 121 325.5t319 239.5q70 184 100.5 259t69.5 161q84 178 177 301q-220 92 -400 92l-88 -6q127 -162 127 -352
q0 -234 -156.5 -413t-359.5 -179q-147 0 -239.5 90t-92.5 233q0 146 69.5 277t201.5 231q63 49 124.5 82t169.5 72q-71 53 -130.5 73.5t-141.5 20.5q-135 0 -229.5 -82t-94.5 -196q0 -58 35 -125l-28 -6q-70 0 -70 98q0 145 129 249.5t307 104.5q176 0 318 -117q51 11 89 15
t85 4q116 0 224 -20.5t222 -67.5q168 159 342 159q62 0 112 -22.5t50 -52.5q0 -31 -31 -31q-16 0 -20 2q-27 14 -64 33.5t-106 19.5q-125 0 -246 -121q47 -26 85 -48.5t71 -45.5q-66 -30 -101.5 -68t-66.5 -115t-74 -198t-76 -229l43 8l70 14l49 11q14 57 28.5 79.5
t35.5 22.5q24 0 24 -27l-12 -38l-8 -21zM2027 850q110 39 183 80t138 106q78 76 127 172.5t49 177.5q0 119 -98 119q-125 0 -221 -196q-33 -64 -81 -188t-97 -271zM1423 696l123 357q28 80 55.5 118.5t105.5 106.5l17 12q-19 15 -46.5 31t-56.5 27q-55 -70 -89 -130.5
t-81 -170.5q-37 -91 -71.5 -180t-73.5 -201q39 12 55 16q37 10 62 14zM1007 1436q-103 -17 -174.5 -41.5t-138.5 -71.5q-111 -76 -176.5 -195.5t-65.5 -248.5q0 -142 87 -231t224 -89q154 0 277 157.5t123 354.5q0 127 -62 244q-24 43 -59 84zM1220 580
q-166 -64 -265.5 -192t-99.5 -275q0 -33 11 -76q55 26 98 69.5t88 112.5q96 156 168 361zM1400 635q-31 -6 -58.5 -12.5t-60.5 -20.5q-49 -135 -87 -219t-81 -145q-57 -88 -109 -139.5t-132 -96.5q4 -18 9 -31.5t17 -38.5q105 39 180.5 112t153.5 214q88 156 168 377z" />
    <glyph glyph-name="I" unicode="I" horiz-adv-x="1640" 
d="M1407 754l104 286q29 80 44.5 95.5t111.5 66.5q-166 135 -372 217t-380 82q-243 0 -407 -139t-164 -346q0 -137 96 -235.5t232 -98.5q86 0 190 51l12 2q4 0 13 -10q0 -2 2 -4q0 -14 -49 -37q-105 -45 -222 -45q-164 0 -263 99.5t-99 262.5q0 230 215 389.5t522 159.5
q219 0 437 -84t374 -229q-80 -27 -118 -90.5t-162 -370.5l-11 -26l43 -2q101 0 174 98q9 12 14 14t7 4q4 0 12 -10q0 -2 2 -4q0 -23 -28.5 -57.5t-70.5 -62.5t-82 -42t-85 -14h-14l-35 -88q-80 -203 -161 -325t-196 -214q-208 -166 -454 -166q-99 0 -191 26.5t-166 76.5
q-104 69 -104 125q0 20 13.5 33.5t33.5 13.5q23 0 38 -13.5t63.5 -80t135.5 -103.5t191 -37q215 0 393.5 167t290.5 478l39 109l-55 4h-45q-72 -266 -259.5 -447.5t-389.5 -181.5q-78 0 -151 37t-73 78q0 33 35 33q19 0 35 -23q43 -53 78 -71.5t90 -18.5q174 0 338 168
t233 420q-135 0 -205 -113q-22 -37 -30 -37q-4 0 -9.5 6.5t-5.5 8.5q0 10 17 41q8 14 20 32q41 60 92.5 91.5t133.5 48.5q4 32 8 74t4 87q0 172 -102.5 289t-254.5 117q-110 0 -192 -84t-82 -199q0 -82 42 -136t103 -54h15l18 2q15 0 15 -12q2 -11 -20.5 -19t-59.5 -8
q-78 0 -131.5 59.5t-53.5 147.5q0 139 115 239.5t274 100.5q168 0 279 -121t111 -305q0 -66 -19 -170h17z" />
    <glyph glyph-name="J" unicode="J" horiz-adv-x="1785" 
d="M1652 858l-61 -176l-29 -88q-139 -430 -369.5 -658.5t-515.5 -228.5q-147 0 -245.5 94.5t-98.5 237.5q0 133 105.5 281.5t261.5 238.5q90 53 217 96t191 43q51 0 51 -39q0 -22 -18.5 -31.5t-69.5 -9.5q-92 0 -175 -22.5t-161 -63.5q-139 -77 -225 -204t-86 -258
q0 -136 88 -222t225 -86q149 0 286.5 94.5t246 270.5t202.5 403q10 25 23 52q39 106 115.5 309t186 333t203.5 130q37 0 37 -33q0 -29 -60 -42t-101 -42t-91 -100q-75 -111 -133 -279zM1327 723l98 295q27 78 60.5 113.5t134.5 93.5q-152 129 -318 197.5t-326 68.5
q52 -82 74.5 -156.5t22.5 -163.5q0 -219 -151.5 -384.5t-350.5 -165.5q-139 0 -230.5 95t-91.5 238q0 195 166 357t424 221q-106 92 -243 92q-125 0 -215.5 -69.5t-90.5 -165.5l2 -33q-61 0 -61 53q0 92 115.5 170t255.5 78q194 0 325 -111l90 4q164 0 329 -57t315 -166
q71 -51 71 -78q0 -14 -24 -24q-78 -37 -117 -104.5t-68 -147.5l-30 -92l-31 -95l-33 -92q-82 -229 -145 -356q-72 -143 -160 -244q-191 -217 -395 -217q-72 0 -131.5 35t-59.5 76q0 35 31 35q18 0 43 -33q49 -72 145 -72q201 0 359 279q30 55 66 137t75 188zM888 1487
q-249 -27 -403 -168t-154 -346q0 -127 83 -214t202 -87q162 0 282.5 139t120.5 328q0 135 -69 258l-37 57z" />
    <glyph glyph-name="K" unicode="K" horiz-adv-x="2183" 
d="M1071 1466h-45q73 -80 106 -158.5t33 -168.5q0 -226 -166 -404t-377 -178q-133 0 -227 96.5t-94 235.5q0 145 85 281.5t236 228.5q58 35 109 56.5t139 47.5q-102 64 -207 64q-129 0 -221 -65.5t-92 -158.5q0 -16 2 -22t16 -23l4 -10q0 -18 -34 -18q-23 0 -37.5 16.5
t-14.5 44.5q0 113 115 195t277 82q145 0 276 -82l135 6q213 0 416 -82q207 182 467 182q172 0 283.5 -94t111.5 -242q0 -163 -179 -317t-372 -154q-74 0 -74 35q0 23 27 23l25 -4q30 -11 59 -11q152 0 287 129t135 275q0 133 -103.5 222t-254.5 89q-201 0 -371 -151
q39 -17 83 -42.5t66 -43.5l-24 -21q-43 -35 -63.5 -56.5t-38 -50t-56.5 -126.5l-43 -115l-84 -254l137 174q64 80 142 168q90 100 147 156q207 202 311 202q58 0 58 -47q0 -28 -15.5 -38.5t-87.5 -22.5q-127 -25 -338 -236q-61 -63 -120.5 -128.5t-104.5 -125.5
q23 -32 39 -69t45 -121l98 -287q50 -147 75.5 -186t68.5 -39q26 0 42.5 8t63.5 49q19 13 31 13q18 0 18 -19q0 -8 -7 -17.5t-48 -43.5q-108 -84 -174 -84q-45 0 -76.5 52t-85.5 220l-90 289l-12 35q-17 55 -27 72.5t-24 17.5q-17 0 -37.5 -18.5t-63.5 -69.5
q-75 -201 -121.5 -291t-111.5 -170q-109 -133 -258.5 -209t-306.5 -76q-123 0 -223.5 53.5t-100.5 120.5q0 17 10 29t29 12q22 0 39 -16q4 -4 35 -41q96 -119 245 -119q136 0 276 87t218 218q31 54 84 186t129 345q100 286 140 361t151 173q-15 13 -40.5 27t-74.5 39
q-31 -31 -54.5 -66t-43.5 -76q-47 -102 -78 -184l-92 -252q-115 -315 -169 -430t-122 -184q-135 -137 -299 -137q-84 0 -149.5 34.5t-65.5 81.5q0 17 10 27t27 8q20 0 45 -28q43 -54 75.5 -72.5t90.5 -18.5q98 0 194 86q60 54 102 129.5t103 247.5l168 432q82 207 116 272.5
t103 145.5q-96 45 -187 69.5t-173 24.5zM934 1458q-207 -20 -338 -123q-95 -69 -150 -181t-55 -228q0 -133 83 -218t214 -85q164 0 283.5 142t119.5 337q0 151 -84 274l-47 58z" />
    <glyph glyph-name="L" unicode="L" horiz-adv-x="1900" 
d="M567 119l-25 14q-151 -92 -317 -92q-74 0 -119 30.5t-45 84.5q0 59 61.5 96t161.5 37q111 0 301 -72q86 84 135.5 178t108.5 301l84 285l16 55q23 74 28 96.5t5 41.5q0 24 -14 61q119 111 243.5 174.5t229.5 63.5q129 0 215 -76q22 -21 39.5 -48.5t17.5 -43.5
q0 -37 -33 -37q-14 0 -21 7t-28 46q-28 49 -85.5 82t-118.5 33q-74 0 -145 -38t-122 -108q-30 -41 -59 -114q-35 -91 -80 -241.5t-79 -252.5t-64 -172q-47 -104 -96.5 -171t-135.5 -140l72 -35q139 -72 227 -111q68 -30 131 -51q135 -43 236 -43q190 0 321 114.5t131 282.5
q0 129 -95 222.5t-228 93.5q-148 0 -238 -97q-32 -32 -45.5 -62t-38.5 -116q-12 -43 -45 -43q-41 0 -41 41q0 39 49 121q60 92 165.5 145.5t234.5 53.5q155 0 252.5 -91.5t97.5 -236.5q0 -201 -175 -349.5t-417 -148.5q-86 0 -178 21.5t-184 62.5q-33 15 -76 37
q-135 70 -162 82l-27 12zM499 152q-159 86 -274 86q-47 0 -77 -19.5t-30 -50.5q0 -33 46.5 -57.5t113.5 -24.5q66 0 109 12.5t112 53.5zM1394 893l19 -2q20 -6 36.5 -8t38.5 -2q127 0 219.5 104.5t92.5 249.5q0 154 -110.5 260.5t-274.5 106.5q-228 0 -396 -185
q-75 -84 -128.5 -211t-116.5 -372q-78 -310 -143.5 -421.5t-168.5 -111.5q-18 0 -18 14q0 17 33 21q59 12 102 84q45 82 74 194l59 248q39 166 80 267.5t103 191.5q229 334 563 334q190 0 309 -110.5t119 -287.5q0 -172 -139.5 -301t-327.5 -129q-62 0 -62 33t37 33z" />
    <glyph glyph-name="M" unicode="M" horiz-adv-x="2785" 
d="M1464 649l-54 -102q-164 -316 -385 -483.5t-479 -167.5q-117 0 -229.5 53t-112.5 108q4 41 47 41q21 0 31 -8t61 -63q39 -41 101.5 -65.5t134.5 -24.5q143 0 284.5 69.5t258.5 196.5q104 114 212 315l189 371q45 88 82 148.5t90 131.5q-338 324 -731 324
q-275 0 -452 -140.5t-177 -355.5q0 -172 137.5 -292.5t333.5 -120.5q96 0 182 49l21 8l12 -10q0 -13 -24 -25q-115 -63 -261 -63q-208 0 -349.5 125t-141.5 307q0 235 225.5 409.5t532.5 174.5q215 0 397 -74t360 -234q355 396 793 396q201 0 329 -82t128 -209
q0 -92 -74 -168t-166 -76q-20 0 -20 16q0 13 24 19q58 8 99 63.5t41 124.5q0 107 -110 176.5t-280 69.5q-213 0 -400 -93t-331 -269q47 -54 72 -84q35 -41 74 -105q403 400 854 400q61 0 61 -15q0 -10 -14 -16q-66 -31 -100.5 -76t-81.5 -162l-338 -835q-19 -47 -36.5 -91.5
t-17.5 -58.5q0 -39 43 -39q27 4 66 33l20 12q15 0 15 -16q0 -23 -78 -74q-84 -59 -131 -59q-53 0 -53 67q0 33 30 117l357 932q22 57 50.5 90t108.5 92l-43 2q-155 0 -347.5 -94t-344.5 -246q51 -104 70.5 -180t19.5 -160q0 -178 -84 -309t-200 -131q-64 0 -103 55.5
t-39 145.5q0 231 248 540q-57 86 -139 179q-41 -62 -62 -97q-10 -18 -57 -100l-41 -80l-53 -102zM1892 918q-209 -250 -209 -465q0 -78 30.5 -125t81.5 -47q78 0 129.5 84t51.5 208q0 164 -84 345zM1472 1047l-74 -168l-37 -82q-147 -328 -235 -441q-244 -323 -525 -323
q-71 0 -130.5 32.5t-59.5 71.5q0 31 37 31q10 0 22.5 -7t34.5 -30q61 -59 137 -59q119 0 243 109.5t228 310.5q49 94 122 260t124 299q14 36 14 49q0 24 -24 24q-10 0 -23.5 -5t-50.5 -21q-2 -2 -12 -4l-12 12q0 14 19 27.5t73 33.5q65 29 132.5 49.5t90.5 20.5q18 0 18 -16
q-4 -11 -8 -13q-35 -24 -55 -61z" />
    <glyph glyph-name="N" unicode="N" horiz-adv-x="2498" 
d="M1431 635l-41 -90q-139 -307 -337 -472t-433 -165q-189 0 -328 115q-59 47 -59 77q0 23 14 37.5t37 14.5q16 0 28.5 -8.5t45.5 -45.5q75 -78 144 -110.5t159 -32.5q118 0 238 63.5t223.5 183.5t216.5 382l125 282q69 154 165 301q-335 318 -739 318q-250 0 -412.5 -136.5
t-162.5 -347.5q0 -167 131 -284t321 -117q107 0 205 35l37 12q6 0 12 -6q0 -4 2 -6q0 -19 -54 -40.5t-122 -33.5t-133 -12q-217 0 -363.5 126t-146.5 312q0 227 217 395t512 168q197 0 391.5 -75.5t368.5 -221.5q168 207 320.5 297t334.5 90q152 0 246 -79.5t94 -210.5
q0 -162 -137 -281q-86 -76 -152 -76q-20 0 -20 17q0 14 31 24q71 25 126.5 109t55.5 172q0 117 -85 189.5t-224 72.5q-148 0 -279 -86t-270 -277q98 -98 161.5 -186t129.5 -213q155 320 286 488q50 65 93 100t69 35q41 0 41 -41q0 -19 -13 -34t-73 -63q-86 -71 -184 -217.5
t-189 -339.5q70 -168 70 -342q0 -145 -59.5 -255.5t-139.5 -110.5q-53 0 -85.5 43t-32.5 115q0 100 73 294l95 228q-60 125 -123.5 211t-178.5 196q-63 -94 -122 -219l-41 -90l-41 -88zM2008 643q-26 -57 -47.5 -109.5t-36 -99.5t-27 -110.5t-12.5 -92.5q0 -57 19.5 -89.5
t52.5 -32.5q45 0 78 75.5t33 184.5q0 67 -14.5 134.5t-45.5 139.5zM521 186q15 0 25 -6t61 -45q43 -31 111 -31q51 0 113.5 36t109.5 93q66 78 123.5 190t145.5 329l100 258l10 41q0 26 -24 26q-7 0 -16 -3t-32 -13l-20 -6q-14 0 -14 14q0 10 10 18.5t50 28t89 41t94 37.5
l70 20q14 0 14 -14q-2 -6 -4 -11t-14 -18q-31 -30 -65.5 -96.5t-98.5 -218.5q-117 -276 -193.5 -415.5t-155.5 -219.5t-166 -122t-173 -42q-72 0 -131.5 29t-59.5 64q0 36 41 36z" />
    <glyph glyph-name="O" unicode="O" 
d="M696 -16q-84 -68 -174 -101t-197 -33q-98 0 -178 35t-80 80q0 37 37 37q16 0 22 -4q31 -23 62 -45q84 -64 188 -64q152 0 279 105q-203 72 -311.5 221.5t-108.5 357.5q0 218 121 405t317 275q217 408 588 408q236 0 387.5 -171t151.5 -437q0 -404 -309.5 -742
t-680.5 -338q-53 0 -114 11zM874 918l18 -222q4 -28 4 -67v-78q0 -164 -30.5 -277.5t-104.5 -218.5q74 -16 129 -16q158 0 307.5 86t257 240.5t171 351t63.5 381.5q0 221 -132 371.5t-327 150.5q-231 0 -386.5 -194.5t-155.5 -485.5q0 -84 12 -186l8 -70l10 -70l8 -69
q11 -82 11 -154q0 -108 -24.5 -159.5t-104.5 -106.5q59 -37 118 -57q66 90 92.5 182t26.5 229q0 27 -4 91.5t-4 66.5l-8 102l-6 52q-4 38 -7.5 83.5t-3.5 79.5q0 211 78 336q49 82 144.5 135.5t193.5 53.5q152 0 256.5 -111t104.5 -272q0 -162 -117 -289t-266 -127
q-92 0 -92 51q0 37 40 37q15 0 59 -11.5t75 -11.5q92 0 169.5 99.5t77.5 218.5q0 154 -100 256t-254 102q-143 0 -227 -102t-84 -283v-55t4 -63zM645 1180q-152 -54 -236 -189t-84 -323q0 -162 66.5 -299.5t185.5 -223.5q59 35 82.5 75t23.5 110q0 45 -18 155l-37 174
q-26 134 -26 256q0 127 43 265z" />
    <glyph glyph-name="P" unicode="P" horiz-adv-x="1871" 
d="M1739 1550q141 -98 202.5 -204.5t61.5 -255.5q0 -213 -138.5 -380t-312.5 -167q-71 0 -71 43q0 14 11 25.5t28 11.5l47 -5l22 -2q103 0 172 58q72 63 113 162.5t41 220.5q0 276 -273 430q-57 -43 -91 -81t-64 -91q-17 -29 -64 -133q-33 -72 -47 -109
q-22 -57 -43.5 -120.5t-75.5 -227.5q-133 -406 -261 -571.5t-308 -165.5q-59 0 -107.5 24.5t-48.5 55.5q0 36 39 36q15 0 39 -16q43 -33 68.5 -43t60.5 -10q115 0 211 127q51 69 105.5 197t132.5 368q88 272 140 391t128 232q35 49 58.5 76.5t82.5 80.5q-104 45 -186 63.5
t-184 18.5q-74 0 -137.5 -12t-151.5 -43q229 -164 229 -424q0 -219 -159.5 -405.5t-348.5 -186.5q-135 0 -227 100.5t-92 247.5q0 191 129 377.5t328 278.5q-54 24 -89.5 32.5t-82.5 8.5q-123 0 -213.5 -63.5t-90.5 -151.5q0 -29 27 -68q-22 -14 -37 -14q-51 0 -51 65
q0 109 120 193t273 84q109 0 223 -43q125 53 221.5 73.5t215.5 20.5q110 0 194 -18.5t185 -63.5q145 80 282 80q84 0 148.5 -26.5t64.5 -61.5q0 -39 -41 -39q-10 0 -18 3t-37 21q-74 48 -180 48q-101 0 -172 -52zM850 1499q-199 -88 -307.5 -239.5t-108.5 -344.5
q0 -145 76 -235t196 -90q160 0 277 143.5t117 337.5q0 158 -88 283q-52 73 -121 119zM1567 989l-154 -385q-98 -246 -173 -370.5t-181 -221.5q-84 -78 -193.5 -121t-218.5 -43q-115 0 -212 50.5t-97 107.5q0 47 43 47q22 0 35.5 -9t54.5 -56q84 -92 223 -92q96 0 186.5 47
t165.5 139q56 68 99 144.5t100 215.5q12 27 14 33q19 39 88 225l119 312q17 43 25 67.5t8 32.5q0 29 -25 29q-14 0 -26 -11l-12 -4l-13 11q0 14 82 65q94 60 191 96q55 21 69 21q6 0 10.5 -5t6.5 -7q0 -9 -9.5 -16t-37.5 -27q-50 -35 -82.5 -88.5t-85.5 -186.5z" />
    <glyph glyph-name="Q" unicode="Q" 
d="M1335 166q51 -70 82 -70q18 0 41 21q6 6 12 7t8 3q19 0 19 -14q0 -23 -54 -68q-41 -35 -69 -35q-23 0 -56.5 23.5t-68.5 62.5l-4 6q-213 -129 -435 -129q-53 0 -114 11q-84 -68 -174 -101t-197 -33q-98 0 -178 35t-80 80q0 37 37 37q16 0 22 -4q31 -23 62 -45
q84 -64 188 -64q152 0 279 105q-203 72 -311.5 221.5t-108.5 357.5q0 218 121 405t317 275q217 408 588 408q236 0 387.5 -171t151.5 -437q0 -240 -125 -477.5t-340 -409.5zM874 918l18 -222q4 -30 4 -67v-78q0 -164 -30.5 -277.5t-104.5 -218.5q74 -16 129 -16
q158 0 307.5 86t257 240.5t171 351t63.5 381.5q0 221 -132 371.5t-327 150.5q-231 0 -386.5 -194.5t-155.5 -485.5q0 -84 12 -186l8 -70l10 -70l8 -69q11 -82 11 -154q0 -108 -24.5 -159.5t-104.5 -106.5q59 -37 118 -57q66 90 92.5 182t26.5 229q0 27 -4 91.5t-4 66.5
l-8 102l-6 52q-4 38 -7.5 83.5t-3.5 79.5q0 211 78 336q49 82 144.5 135.5t193.5 53.5q152 0 256.5 -111t104.5 -272q0 -162 -117 -289t-266 -127q-92 0 -92 51q0 37 40 37q15 0 59 -11.5t75 -11.5q92 0 169.5 99.5t77.5 218.5q0 154 -100 256t-254 102q-143 0 -227 -102
t-84 -283v-55t4 -63zM645 1180q-152 -54 -236 -189t-84 -323q0 -162 66.5 -299.5t185.5 -223.5q59 35 82.5 75t23.5 110q0 45 -18 155l-37 174q-26 134 -26 256q0 127 43 265z" />
    <glyph glyph-name="R" unicode="R" horiz-adv-x="1849" 
d="M929 813l17 53q86 277 159.5 407t204.5 236q-76 23 -131 31t-135 8q-305 0 -511 -169t-206 -418q0 -127 88 -217.5t211 -90.5q41 0 68.5 8.5t83.5 34.5l26 11l13 -13q0 -16 -45 -39q-97 -51 -203 -51q-154 0 -252 94.5t-98 243.5q0 119 72.5 245t195.5 224
q137 109 286.5 156t358.5 47q74 0 137.5 -8.5t136.5 -26.5q160 84 320 84q92 0 169 -33t77 -74q0 -47 -50 -47q-18 0 -27 4.5t-84 48.5t-169 44q-80 0 -178 -45q311 -160 311 -461q0 -205 -133 -346.5t-381 -194.5l190 -330q50 -88 109 -88q47 0 113 64q8 8 15 10t9 4
q23 0 23 -18q0 -11 -14.5 -27t-49.5 -49q-104 -92 -155 -92q-35 0 -58.5 21.5t-66.5 95.5l-232 397l-28 4q-95 -244 -211 -412q-84 -121 -209 -189.5t-260 -68.5q-185 0 -310 96q-59 48 -59 78q0 47 45 47q29 0 66 -39q67 -73 132.5 -104t159.5 -31q269 0 435 363
q12 24 53 132.5t82 215.5l104 289l56 159q26 74 26 87q0 20 -31 24l-12 12q0 11 17.5 24t83 52t116.5 62q64 28 84 28q17 0 17 -14q0 -10 -19 -21q-69 -32 -112 -116q-17 -31 -33.5 -73t-42.5 -116l-19 -45l-8 -24l-129 -363l74 -6q86 0 183 43t155.5 104.5t91.5 149.5
t33 176q0 150 -82 258.5t-240 165.5q-110 -86 -176 -203q-25 -45 -60.5 -143t-68.5 -193l-35 -104l-16 -51l-19 -51l-16 -52q-123 -385 -238.5 -532.5t-283.5 -147.5q-56 0 -105 27t-49 57q0 33 37 33q12 0 18.5 -4t30.5 -25q51 -40 113 -40q151 0 250 210q39 86 65.5 156
t69.5 203l43 127z" />
    <glyph glyph-name="S" unicode="S" horiz-adv-x="1464" 
d="M913 801l-31 43q-61 88 -91 154.5t-30 136.5q0 161 168 239q101 178 277 178q147 0 229 -153l2 45q0 98 -84 174t-194 76q-97 0 -168.5 -51.5t-71.5 -120.5q0 -27 20 -56q-18 -16 -36 -16q-45 0 -45 43q0 86 94 159.5t209 73.5q135 0 232 -91t97 -216q0 -86 -51 -170
q-33 -49 -59 -49q-4 0 -9.5 6t-7.5 8l7 23q20 39 20 76q0 73 -66.5 134.5t-148.5 61.5q-117 0 -184 -114l39 4q59 0 116.5 -33t57.5 -68q0 -32 -29 -32q-10 0 -28.5 32.5t-51.5 51t-67 18.5l-52 -6q-8 -16 -12 -37.5t-4 -42.5q0 -57 31.5 -119.5t115.5 -173.5
q152 -198 209.5 -328.5t57.5 -275.5q0 -272 -217.5 -473t-509.5 -201q-244 0 -412 164t-168 401q0 203 137 359t320 156q53 0 87 -14.5t34 -37.5q0 -43 -46 -43q-10 0 -45 13q-47 18 -90 18q-141 0 -235 -116.5t-94 -291.5q0 -223 163.5 -380.5t397.5 -157.5
q264 0 437 156.5t173 394.5q0 88 -24.5 168t-81.5 176q-13 22 -25 47q-25 33 -72 96l-41 55l-39 56q-63 92 -94 164.5t-31 134.5q0 35 2.5 52t12.5 52q-113 -61 -113 -188q0 -53 25.5 -109.5t85.5 -136.5q164 -213 213 -313.5t49 -220.5q0 -187 -125 -312t-313 -125
q-156 0 -261.5 99.5t-105.5 244.5q0 152 108.5 266.5t254.5 114.5q47 0 47 -32q0 -29 -29 -29l-45 6l-23 2q-98 0 -182 -88t-84 -195q0 -135 106.5 -237.5t250.5 -102.5q151 0 255.5 106.5t104.5 262.5q0 80 -25.5 151.5t-87.5 164.5l-41 57z" />
    <glyph glyph-name="T" unicode="T" horiz-adv-x="1734" 
d="M1728 1518l72 -5l129 -2q143 0 223 56q20 12 29 12l10 -10q0 -17 -41 -49l-70 -64q-49 -47 -74.5 -67.5t-33.5 -20.5q-13 10 -19 27.5t-73.5 29t-235.5 11.5l-137 8l-383 12h-54.5t-70.5 -6q41 -76 55.5 -130t14.5 -132q0 -227 -162 -391t-389 -164q-131 0 -215 86
t-84 223q0 201 165.5 345.5t477.5 213.5q-117 131 -275 131q-108 0 -191 -62.5t-83 -142.5q0 -28 20 -65q-18 -16 -37 -16q-20 0 -34.5 20t-14.5 51q0 96 113 176t250 80q205 0 342 -153q170 14 282 14l285 -8l135 -6zM907 1444q-131 0 -223.5 -29t-178.5 -88
q-94 -67 -145 -156.5t-51 -191.5q0 -119 78.5 -202t191.5 -83q168 0 302 136.5t134 306.5q0 104 -57 223l-33 53zM1366 1063l-177 -379q-155 -332 -298.5 -484.5t-301.5 -152.5q-78 0 -138 31t-60 72q0 36 37 36q22 0 57 -34q65 -60 141 -60q96 0 175 80t182 283
q67 137 159 344l101 227q36 80 46.5 107.5t10.5 42.5q0 22 -18 18l-15 -2q-18 -4 -18 18q0 13 26.5 34.5t87 55t129 63.5t87.5 30q6 0 12 -7q0 -4 2 -6q0 -10 -50.5 -42.5t-88.5 -98.5q-13 -18 -27 -48t-21 -44l-14 -29l-12 -28zM1781 1270q-67 0 -127 -49
q-61 -56 -137 -197q-10 -16 -33.5 -68.5t-42.5 -93.5l-86 -188q-202 -453 -375.5 -626t-427.5 -173q-141 0 -272 65.5t-131 137.5q0 47 49 47q23 0 39 -16q27 -33 51 -62q105 -127 303 -127q138 0 242 61.5t203 198.5q33 47 78 127q39 72 92 178l102 220q111 241 183.5 362
t138.5 180q98 88 190 88q60 0 60 -35q0 -14 -10.5 -24t-26.5 -10l-31 2z" />
    <glyph glyph-name="U" unicode="U" horiz-adv-x="2050" 
d="M2109 1239l-375 -1010l-6 -16q-15 -39 -15 -49q0 -27 29 -27t64 29q20 18 30 18q17 0 17 -18q0 -4 -9.5 -15.5t-29.5 -29.5q-99 -90 -162 -90q-64 0 -64 65l7 43q-115 -65 -174.5 -86.5t-124.5 -21.5q-101 0 -165.5 62.5t-64.5 156.5q0 82 60 244l34 92q-75 -23 -147 -33
t-145 -10q-275 0 -449 131t-174 340q0 229 209 391t506 162q180 0 348 -61.5t303 -176.5l-43 -24q-31 -19 -49.5 -48.5t-44.5 -101.5q182 -217 182 -502q0 -202 -86 -345.5t-209 -143.5q-45 0 -78.5 21.5t-33.5 50.5q0 28 30 28q4 0 9.5 -1t33 -28.5t68.5 -27.5
q94 0 160.5 128t66.5 306q0 246 -170 442l-145 -393q65 35 106 72q13 10 19 13t8 5q14 0 14 -14q2 -12 -12 -24.5t-33 -24.5q-37 -25 -72 -49q-10 -6 -49 -29l-90 -240q-16 -41 -24.5 -83t-8.5 -68q0 -74 49.5 -123t125.5 -49q65 0 141 41t131 108q14 19 33.5 58t42.5 100
l305 829q18 50 18 72q0 23 -24 23q-15 0 -15 14q0 12 25 23.5t55 29.5q39 25 133 88q72 47 90 47q7 0 11 -5t6 -7q0 -8 -23 -24q-90 -60 -155 -234zM1179 633l192 524q-114 100 -213.5 143t-214.5 43q-161 0 -273 -91t-112 -224q0 -127 103.5 -208t267.5 -81q18 0 18 -10
q0 -24 -90 -24q-153 0 -258.5 93t-105.5 226q0 152 133 252t336 100q219 0 432 -149l51 35l49 28q-252 221 -585 221q-252 0 -414 -131t-162 -333q0 -203 164 -330t424 -127q78 0 127 8t131 35z" />
    <glyph glyph-name="V" unicode="V" horiz-adv-x="2035" 
d="M1386 1090l-180 -508l71 28l13 4q12 -10 12 -14q-2 -10 -26.5 -23.5t-86.5 -37.5q-38 -105 -52.5 -155t-14.5 -91q0 -88 59.5 -143.5t155.5 -55.5q108 0 243.5 115t243.5 301q90 154 142.5 330t52.5 331q0 76 -8.5 131.5t-28.5 124.5l-10 54q0 55 55 55q45 0 63.5 -61.5
t18.5 -208.5q0 -408 -238 -779q-137 -217 -291.5 -336.5t-295.5 -119.5q-113 0 -188 72.5t-75 179.5q0 45 10.5 93t35.5 118q-84 -19 -146.5 -27t-130.5 -8q-268 0 -434 118.5t-166 313.5q0 102 59.5 203.5t167.5 187.5q45 35 95.5 63.5t132.5 67.5q172 262 508 262
q147 0 283 -65.5t233 -184.5q149 -182 149 -464q0 -293 -150.5 -536t-330.5 -243q-31 0 -55.5 12.5t-24.5 30.5q0 11 11.5 22t21.5 9l30 -10q37 -13 60 -13q37 0 88 33t100 88q92 103 145.5 257.5t53.5 320.5q0 323 -227 526q-195 176 -412 176q-137 0 -227 -45t-160 -151
q72 12 119 16t100 4q158 0 284 -34.5t296 -125.5l-15 -10q-61 -37 -81.5 -65.5t-57.5 -132.5zM1083 539l194 544q27 72 44.5 95.5t78.5 66.5q-211 139 -559 139q-49 0 -69.5 -2t-73.5 -14q-41 -90 -41 -178q0 -135 71.5 -227.5t192.5 -108.5q33 -6 33 -18q0 -15 -31 -15
q-59 0 -127 27q-215 92 -215 336q0 71 27 159q-68 -28 -115 -61t-86 -78q-49 -57 -82 -144t-33 -165q0 -170 145.5 -280.5t373.5 -110.5q133 0 272 35z" />
    <glyph glyph-name="W" unicode="W" horiz-adv-x="2461" 
d="M1839 940l-180 -520q-27 -78 -37 -118t-10 -64q0 -68 46 -108t122 -40q227 0 450 356.5t223 720.5q0 84 -8 125t-45 144l-6 34q0 50 47 50t71.5 -68t24.5 -199q0 -436 -262 -829t-557 -393q-131 0 -188 123q-84 -68 -136.5 -94.5t-105.5 -26.5q-78 0 -129 57t-51 143
q0 60 35 170l30 97q-145 -60 -249.5 -84.5t-213.5 -24.5q-229 0 -380.5 123t-151.5 309q0 138 84 262.5t235 214.5q72 41 150 70t197 55q249 222 612 222q184 0 341 -57.5t261 -164.5q98 -100 155.5 -248.5t57.5 -304.5q0 -243 -151.5 -474.5t-311.5 -231.5q-33 0 -55.5 12
t-22.5 33q0 27 27 27q14 0 47 -17q21 -10 39 -10q37 0 82 28.5t88 77.5q207 240 207 539q0 326 -225.5 534.5t-581.5 208.5q-156 0 -277.5 -38.5t-224.5 -124.5l127 6q338 0 594 -174q-88 -51 -107.5 -75t-58.5 -140l-153 -447l36 21q17 10 29 15t21 9l10 -10
q-2 -12 -34 -35.5t-81 -50.5l-51 -152q-41 -116 -41 -165q0 -58 39 -101t94 -43q88 0 182 101l-2 41q0 38 8.5 70t57.5 177l153 449q27 80 27 90q0 14 -31 27q-6 2 -10 7t-4 7q0 10 9 19.5t50 35.5q181 117 211 117l13 -10q0 -15 -27 -33q-41 -29 -63.5 -73t-69.5 -179z
M1190 545l178 512q27 80 43 99.5t90 64.5q-236 149 -555 149l-109 -2q-57 -68 -83.5 -130t-26.5 -140q0 -142 80 -231t209 -89q39 0 39 -16q0 -17 -35 -17q-158 0 -257.5 91.5t-99.5 236.5q0 148 117 287q-240 -41 -378 -182.5t-138 -343.5q0 -168 139.5 -279t356.5 -111
q202 0 430 101z" />
    <glyph glyph-name="X" unicode="X" horiz-adv-x="2039" 
d="M1439 717l43 -451q10 -98 17 -118.5t38 -20.5q37 0 98 53q7 6 13 7t8 3q14 0 14 -18q0 -25 -82 -90q-63 -49 -112 -49q-47 0 -64.5 43t-32.5 194l-34 381q-197 -295 -340 -454q-275 -308 -584 -308q-123 0 -252 59.5t-129 119.5q-4 38 39 38q29 0 66 -36
q75 -76 138.5 -104.5t158.5 -28.5q124 0 235 53t231 174q52 51 125.5 143t132.5 178l46 66l45 67l47 66l16 25h-45q-35 -7 -78 -11q-129 -202 -291 -389q-243 -278 -462 -278q-68 0 -124.5 28.5t-56.5 63.5q0 29 33 29q14 0 17.5 -2.5t41.5 -28.5q58 -43 117 -43
q94 0 193.5 62.5t214.5 195.5q76 88 151.5 186.5t122.5 171.5q-88 -8 -122.5 -33.5t-53.5 -95.5q-6 -14 -16 -14q-15 0 -15 18q0 80 71 136.5t194 78.5l32 56q17 26 29 44.5t23 35.5l14 24l8 12q-10 103 -26.5 172.5t-45.5 133.5q-51 114 -153.5 179.5t-229.5 65.5
q-184 0 -305 -112.5t-121 -282.5q0 -147 96.5 -247.5t241.5 -100.5q95 0 174 53l15 6l12 -14q-4 -21 -37 -41q-100 -63 -219 -63q-162 0 -264.5 98t-102.5 258q0 203 160 348t385 145q139 0 251 -57t173 -162q23 -39 37 -80t45 -170q168 228 333 334.5t349 106.5
q137 0 221 -62q53 -39 53 -65q0 -39 -36 -39q-15 0 -30 6t-44 37q-47 47 -86 64.5t-98 17.5q-338 0 -656 -453v-8q2 -12 6 -49v-14l9 -80q335 491 649 491q55 0 98 -20.5t43 -48.5q0 -15 -10 -25t-27 -10q-12 0 -45 20q-53 33 -115 33q-129 0 -269 -125t-308 -389
q194 0 248.5 20.5t109.5 94.5q15 16 25 16q14 0 14 -20q-4 -33 -56 -84.5t-104.5 -75t-94.5 -32.5t-144 -9zM1324 899l-69 -106l16 2l61 4z" />
    <glyph glyph-name="Y" unicode="Y" horiz-adv-x="2039" 
d="M1099 459l50 129q-154 -43 -293 -43q-273 0 -449 133t-176 342q0 227 210 388t507 161q370 0 651 -238l-29 -16q-43 -29 -62.5 -56.5t-45.5 -101.5q182 -209 182 -495q0 -211 -85 -353.5t-212 -142.5q-43 0 -75.5 20.5t-32.5 49.5q0 28 28 28q11 0 14 -2t40 -35
q22 -18 55 -18q94 0 161.5 129t67.5 311q0 250 -170 436l-145 -393q41 21 57.5 32t32.5 26q27 26 32 29t11 3q14 0 14 -14q0 -16 -45 -50t-123 -77l-75 -205q-45 -125 -45 -194q0 -70 50 -118t119 -48q70 0 145 40t126 101q22 29 38.5 64.5t61.5 156.5l271 729q6 17 24 70
q12 35 12 47q0 25 -22 25q-10 0 -14.5 4t-4.5 8q0 16 37 31.5t185 113.5q67 45 86 45l14 -12q-2 -6 -6 -11t-15 -13q-59 -41 -93 -97.5t-91 -208.5l-301 -802q-10 -29 -16 -47.5t-37 -96.5q-14 -35 -19.5 -59.5t-5.5 -46.5l13 -84l4 -58q0 -122 -75 -210.5t-202 -144.5
t-260 -56q-172 0 -307 92t-135 209q0 43 37 43q24 0 33.5 -14.5t26.5 -91t115.5 -136t231.5 -59.5q178 0 303 106.5t125 259.5q0 35 -7 74t-9 58.5t-2 35.5l-80 -45q-119 -65 -221 -65q-99 0 -164.5 63.5t-65.5 163.5q0 37 12.5 93.5t32.5 107.5zM1165 633l194 526
q-122 103 -216.5 143.5t-211.5 40.5q-163 0 -274 -90t-111 -221q0 -123 99.5 -207t249.5 -84q41 0 41 -10q0 -24 -99 -24q-147 0 -251.5 94t-104.5 225q0 148 134 250t331 102q225 0 438 -149l55 39l43 26q-247 219 -587 219q-252 0 -413 -132t-161 -337q0 -196 163 -324
t413 -128q79 0 133.5 8t134.5 33z" />
    <glyph glyph-name="Z" unicode="Z" horiz-adv-x="1982" 
d="M1681 1393l-389 -512l57 8l68 6l166 215q204 272 348.5 386t288.5 114q75 0 75 -45q0 -17 -14 -29t-35 -12l-43 4l-20 2q-170 0 -375 -213q-33 -35 -74 -84q-51 -62 -129 -162q-51 -65 -70.5 -92t-52.5 -74q156 17 229.5 53.5t159.5 141.5q7 6 12 8t7 4q18 0 18 -18
q0 -19 -41 -64t-84 -78q-75 -59 -154 -88.5t-220 -54.5q-191 -252 -292.5 -381t-260.5 -317q192 -88 293.5 -119t187.5 -31q182 0 319.5 125t137.5 289q0 98 -49.5 155.5t-131.5 57.5l-49 -2q17 69 96 69q80 0 141.5 -75.5t61.5 -178.5q0 -196 -183 -349.5t-419 -153.5
q-119 0 -258 41l-192 67l-37 14q-234 -239 -441 -239q-69 0 -126.5 28.5t-57.5 65.5t39 37q18 0 22.5 -1t40.5 -26q62 -39 142 -39q147 0 331 187q-26 8 -50.5 13t-45.5 5q-57 0 -57 23q0 8 6 16q18 19 37 35l70 74q131 143 235 280l166 215l57 78q-186 -20 -213 -151
q-6 -35 -24 -35q-15 0 -15 16q0 14 17.5 54t32.5 61q40 55 101.5 90t172.5 59l352 463q-102 60 -256.5 100.5t-277.5 40.5l-45 -2q63 -84 89.5 -154.5t26.5 -156.5q0 -199 -155.5 -369t-337.5 -170q-127 0 -213 90.5t-86 225.5q0 170 135 317.5t381 245.5q-111 66 -225 66
q-111 0 -189 -63.5t-78 -153.5q0 -39 29 -91q-84 9 -84 80q0 107 110.5 191t250.5 84q77 0 133.5 -18.5t148.5 -71.5q100 14 195 14q288 0 563 -141zM886 1456q-219 -45 -356 -176t-137 -299q0 -117 78.5 -195.5t195.5 -78.5q150 0 261.5 123.5t111.5 289.5
q0 68 -20.5 135.5t-59.5 124.5q-16 25 -45 54zM1343 799l-72 -11l-53 -4l-100 -135l-269 -350l-120 -152l69 -18l13 -4q233 260 532 674z" />
    <glyph glyph-name="bracketleft" unicode="[" horiz-adv-x="575" 
d="M511 1282l-484 -1362l-8 -22q-12 -33 -12 -43q0 -29 35 -29l53 12l30 6q21 0 21 -18q0 -10 -39 -27q-59 -24 -86 -35l-125 -49l-24 -4q-23 0 -23 21l14 41l15 37l16 45l551 1456q18 51 47 51q21 0 78 -35q22 -16 22 -29q0 -18 -18 -22l-18 6l-31 12q-14 -8 -14 -12z" />
    <glyph glyph-name="backslash" unicode="\" horiz-adv-x="1024" 
d="M319 1315l559 -1487l10 -41q0 -33 -31 -33q-14 0 -23 11.5t-22 46.5l-553 1476q-12 33 -12 43q0 29 33 29q12 0 20 -9.5t19 -35.5z" />
    <glyph glyph-name="bracketright" unicode="]" horiz-adv-x="575" 
d="M157 -209l485 1362q10 27 15.5 42t5.5 24q0 28 -35 28l-53 -12l-31 -6q-21 0 -21 18q0 10 39 27q60 24 86 35l125 49l25 4q22 0 22 -21l-14 -41l-14 -36l-17 -45l-551 -1457q-18 -51 -47 -51q-24 0 -77 35q-23 14 -23 27q0 22 18 22l19 -6l31 -10q12 8 12 12z" />
    <glyph glyph-name="asciicircum" unicode="^" horiz-adv-x="1024" 
d="M1175 594h-53l-459 698l-463 -698h-139l555 840h12z" />
    <glyph glyph-name="underscore" unicode="_" horiz-adv-x="1024" 
d="M165 -176h903v-57h-903v57z" />
    <glyph glyph-name="grave" unicode="`" horiz-adv-x="1024" 
d="M620 1028q16 0 24 -22q21 -82 80 -115q21 -12 21 -23q0 -18 -23 -18q-47 0 -94 31q-31 18 -53.5 42.5t-22.5 41.5q0 14 25.5 38.5t42.5 24.5z" />
    <glyph glyph-name="a" unicode="a" horiz-adv-x="731" 
d="M438 111l10 43q-153 -115 -284 -115q-72 0 -115 41t-43 113q0 81 43 150t150 151q0 114 75.5 184t196.5 70q98 0 156.5 -48.5t58.5 -126.5q0 -30 -7 -61t-26 -80l-94 -246l-8 -20l-6 -25q0 -12 14 -12l14 4l33 10q18 0 18 -14q0 -23 -53 -51q-76 -41 -112 -41
q-31 0 -31 31q0 12 10 43zM299 575v-20q84 43 162 43q65 0 133 -47l6 43q0 49 -39 82t-96 33q-62 0 -114 -42t-52 -92zM444 557q-112 0 -220.5 -110.5t-108.5 -225.5q0 -49 34.5 -82t89.5 -33q111 0 214.5 110t103.5 239q0 47 -29.5 74.5t-83.5 27.5z" />
    <glyph glyph-name="b" unicode="b" horiz-adv-x="671" 
d="M493 1210l-213 -585q139 116 248 116q139 0 139 -155q0 -88 -63.5 -205t-159.5 -205q-68 -61 -146 -98t-143 -37q-53 0 -89 31.5t-36 83.5q0 34 8 63t43 123l293 791l12 30l9 31q0 12 -15 12q-8 0 -39.5 -15t-40.5 -15q-12 0 -12 14q0 27 119 84q67 33 86 33q22 0 22 -27
l-8 -35zM454 664q-49 0 -105.5 -38t-99.5 -104q-29 -41 -84 -196q-18 -52 -28.5 -86.5t-10.5 -63.5q0 -78 80 -78q57 0 131 55.5t133 145.5q84 127 84 240q0 57 -27.5 91t-72.5 34z" />
    <glyph glyph-name="c" unicode="c" horiz-adv-x="608" 
d="M425 676q-106 0 -202.5 -123t-96.5 -262q0 -76 42 -122t114 -46q82 0 149 63q23 21 35.5 30t20.5 9q16 0 16 -16q0 -25 -82 -88q-106 -82 -209 -82q-80 0 -131 59.5t-51 157.5q0 174 145.5 331.5t307.5 157.5q51 0 94 -26.5t43 -56.5q0 -17 -14.5 -31.5t-32.5 -14.5
q-17 0 -47 23q-52 37 -101 37z" />
    <glyph glyph-name="d" unicode="d" horiz-adv-x="706" 
d="M610 657l172 476l4 10l10 26l7 25q0 12 -15 12q-12 0 -35 -12l-45 -18q-14 0 -14 14q0 27 123 84q67 33 86 33q25 0 25 -27q0 -10 -3 -16q-10 -25 -20 -54l-371 -999l-16 -51q0 -17 14 -17q17 0 22 3.5t54 37.5l14 6q21 0 21 -18q0 -8 -19.5 -26.5t-60.5 -47.5
q-96 -63 -137 -63q-27 0 -27 22v13q6 18 17 49l22 67q-145 -145 -278 -145q-68 0 -109 47t-41 125q0 88 60.5 202.5t150.5 198.5q65 62 131 94.5t125 32.5q47 0 75.5 -17t57.5 -67zM432 676q-111 0 -215.5 -140.5t-104.5 -291.5q0 -56 32 -91.5t79 -35.5q109 0 205 129
q49 67 84 154t35 149q0 57 -31 92t-84 35z" />
    <glyph glyph-name="e" unicode="e" horiz-adv-x="608" 
d="M132 231q23 -120 144 -120q98 0 186 82q23 20 37 20q18 0 18 -18q0 -27 -67 -74q-121 -84 -223 -84q-88 0 -143.5 57.5t-55.5 151.5q0 176 140.5 336.5t291.5 160.5q66 0 106 -35.5t40 -95.5q0 -131 -143.5 -247.5t-330.5 -133.5zM130 299v-27q164 17 274.5 104
t110.5 204q0 49 -26.5 77.5t-73.5 28.5q-96 0 -190.5 -127t-94.5 -260z" />
    <glyph glyph-name="f" unicode="f" horiz-adv-x="483" 
d="M402 745h22q39 0 56.5 4.5t33 15.5t19.5 12t8 3q12 0 12 -16t-32 -49q-23 -23 -47.5 -32t-67.5 -9l-25 -2l-88 -316q-57 -206 -111.5 -328t-121.5 -200q-56 -61 -126.5 -104t-119.5 -43q-39 0 -43 30q0 21 15.5 29t86.5 20q99 19 157 120.5t151 414.5l108 373
q-61 0 -81.5 -6.5t-55.5 -34.5l-12 -4q-13 10 -13 14q0 8 21 37q14 20 22 28q27 27 49.5 34t90.5 7l34 119q60 203 166.5 322t231.5 119q80 0 80 -37q0 -29 -35 -29l-55 10l-35 2q-82 0 -140.5 -85t-115.5 -283z" />
    <glyph glyph-name="g" unicode="g" horiz-adv-x="681" 
d="M598 799l66 43q71 -45 71 -84q0 -27 -16 -45.5t-74 -55.5q25 -57 25 -100q0 -137 -105.5 -238.5t-246.5 -101.5q-70 0 -129 31q-37 -27 -101 -98h43q185 0 267.5 -42t82.5 -137q0 -92 -98 -159.5t-235 -67.5q-109 0 -174.5 41t-65.5 111q0 41 20.5 72.5t92.5 99.5l-35 4
q-27 0 -27 18q0 8 10 19q19 18 33 32l150 138q-45 65 -45 131q0 129 109.5 232t246.5 103q74 0 152 -53q43 23 43 49q0 27 -60 58zM422 694q-86 0 -153.5 -77.5t-67.5 -176.5q0 -82 43 -129t121 -47q82 0 147.5 78t65.5 176q0 80 -42 128t-114 48zM103 70l-13 2
q-104 -90 -104 -160q0 -55 52 -91t130 -36q92 0 159.5 45t67.5 109q0 67 -63.5 99t-206.5 32h-22z" />
    <glyph glyph-name="h" unicode="h" horiz-adv-x="727" 
d="M-24 12l408 1121l12 32l8 31q0 12 -14 12q-6 0 -33 -12t-33 -15t-14 -5q-15 0 -15 14q0 27 121 86q68 33 86 33q25 0 25 -27q0 -8 -2 -15t-19 -55l-215 -589q134 118 260 118q74 0 119 -49t45 -129q0 -90 -55 -195.5t-149 -197.5q-140 -133 -250 -133q-54 0 -54 37
q0 49 58 49h45q112 0 204.5 121t92.5 268q0 68 -33 111t-88 43q-57 0 -112.5 -35t-100.5 -99q-21 -32 -40 -74t-50 -124l-109 -285z" />
    <glyph glyph-name="i" unicode="i" horiz-adv-x="364" 
d="M333 989l53 39q13 8 21 10h2q12 0 23.5 -21.5t11.5 -45.5q0 -68 -90 -140q-33 -26 -41 -26q-19 0 -19 14q6 12 14 19q37 32 37 71q0 21 -18 37q-8 8 -11 13.5t-3 7.5q8 14 20 22zM315 616l-158 -421l-14 -54q0 -14 12 -14q10 0 31 12l32 15q21 0 21 -21q0 -16 -70.5 -57
t-103.5 -41t-33 31q0 4 8 27.5t15 43.5l137 402l10 28l8 31q0 16 -16 16q-12 -4 -21.5 -11t-25.5 -13q-2 0 -4 -2q-19 0 -19 18q0 10 22.5 29.5t71.5 48.5q66 43 93 43q30 0 30 -25q0 -8 -1 -14t-25 -72z" />
    <glyph glyph-name="j" unicode="j" horiz-adv-x="342" 
d="M341 997l43 29q12 8 24 12q37 0 37 -61q0 -76 -94 -148q-43 -30 -64 -30q-6 0 -9 4t-3 6q0 12 29 31q43 26 43 73q0 29 -15.5 38.5t-17.5 12.5t-2 5q2 6 5 10t24 18zM293 578l-26 -82q-53 -162 -55 -168q-11 -25 -21 -47q-80 -220 -137.5 -330.5t-124.5 -177.5
q-109 -109 -229 -109q-23 0 -23 14q0 15 27 19q106 20 184 119.5t164 328.5l33 95q75 223 84 247q2 11 9 33.5t16 53t9 36.5q-8 11 -12 11q-4 -3 -10 -5t-26.5 -13t-28.5 -11q-7 0 -11 4t-4 8q0 8 4 13.5t54 35.5q59 39 91.5 55.5t47.5 16.5q24 0 24 -20q0 -11 -8 -35
q-24 -72 -31 -92z" />
    <glyph glyph-name="k" unicode="k" horiz-adv-x="716" 
d="M375 471l101 -250l12 -28l12 -25q15 -33 35 -33q14 0 32.5 13.5t37.5 19.5q14 0 14 -16q-2 -11 -12 -21q-19 -18 -74 -63q-41 -33 -67 -33q-25 0 -46 53l-14 41l-104 274q-101 -84 -138.5 -138t-76.5 -177l-15 -41l-98 -35l403 1123q11 30 14 40.5t3 16.5q-8 10 -12 10
q-15 0 -37 -14l-41 -17q-17 0 -17 19q0 10 12.5 20.5t45.5 28.5q112 64 153 64q21 0 21 -25q0 -16 -19 -66l-309 -850l47 44l47 40l47 43l45 43q93 84 213 156q56 31 82 31q43 0 43 -41q0 -35 -86 -57q-69 -17 -117.5 -44.5t-136.5 -105.5z" />
    <glyph glyph-name="l" unicode="l" horiz-adv-x="335" 
d="M522 1210l-373 -991q-16 -45 -16 -59q0 -15 14 -15q17 0 72 37l18 8q17 0 17 -18q0 -12 -7.5 -19.5t-41.5 -31.5q-66 -49 -102 -66.5t-64 -17.5q-27 0 -27 24q0 11 2 20t14 40l369 1012l12 30l9 31q0 12 -15 12q-10 0 -35 -12l-47 -18q-14 0 -14 14q0 27 123 84
q67 33 88 33q24 0 24 -27q0 -8 -2 -15.5t-18 -54.5z" />
    <glyph glyph-name="m" unicode="m" horiz-adv-x="1028" 
d="M-6 18l166 502l22 80q0 14 -12 14t-35 -14q-12 -8 -17 -9t-11 -3q-17 0 -17 18q0 12 18.5 26.5t67.5 41.5q94 51 123 51q31 0 31 -27q0 -16 -14 -45l-21 -55q186 129 297 129q66 0 66 -49q0 -19 -9 -43l-6 -27q111 72 167 97.5t104 25.5q81 0 81 -86q0 -27 -10 -59.5
t-41 -104.5l-110 -258q-13 -30 -20 -49.5t-7 -26.5q0 -20 23 -20q22 0 57 20l33 15q14 0 14 -17q-2 -14 -21.5 -28.5t-68.5 -40.5q-80 -41 -125 -41q-31 0 -31 22l6 27l15 39l10 29l141 374q19 47 19 84q0 41 -33 41q-27 0 -73 -20.5t-85 -48.5q-51 -39 -76.5 -78
t-62.5 -133l-121 -312l-88 -28l166 501q18 56 18 82q0 29 -30 29q-29 0 -85.5 -26.5t-90 -56.5t-56 -66.5t-53.5 -116.5l-125 -328z" />
    <glyph glyph-name="n" unicode="n" horiz-adv-x="706" 
d="M4 14l162 484l31 96q0 16 -15 16q-12 0 -16 -2q-17 -10 -33 -20q-4 -4 -23 -8q-16 0 -16 16q0 25 117 90q67 37 100 37q27 0 27 -23q0 -10 -12 -45l-23 -61q193 133 303 133q72 0 72 -72q0 -16 -5 -40.5t-26 -75.5l-129 -336q-20 -56 -20 -68q0 -18 16 -18q12 0 27.5 6
t35.5 16l27 11q4 0 12 -11q0 -2 2 -4q0 -10 -26.5 -29.5t-65.5 -39.5q-61 -33 -100 -33q-33 0 -33 22q0 17 11.5 48.5t21.5 62.5l119 352q18 55 18 82q0 49 -45 49q-27 0 -72 -20.5t-88 -48.5q-55 -37 -81.5 -76t-63.5 -139l-117 -318z" />
    <glyph glyph-name="o" unicode="o" horiz-adv-x="716" 
d="M450 745q104 0 166.5 -66.5t62.5 -176.5q0 -164 -139 -315.5t-291 -151.5q-92 0 -153.5 65.5t-61.5 167.5q0 172 132 324.5t284 152.5zM417 690q-104 0 -191.5 -124t-87.5 -271q0 -88 44.5 -144.5t111.5 -56.5q100 0 189.5 126t89.5 267q0 95 -42 149t-114 54z" />
    <glyph glyph-name="p" unicode="p" horiz-adv-x="708" 
d="M113 80l-41 -103q-39 -98 -58.5 -134t-55 -85t-85 -80.5t-92.5 -31.5q-16 0 -16 14q0 12 14 14q64 19 107 78.5t90 196.5l205 600l18 69q0 5 -4 8t-6 5q-10 0 -19.5 -4t-39.5 -25l-15 -4q-4 0 -9 6t-7 8q0 9 12 21t39 29q98 67 154 67q24 0 24 -20q0 -13 -24 -101
q86 68 146 97.5t116 29.5q59 0 98 -43t39 -108q0 -90 -56.5 -205t-140.5 -201q-139 -145 -284 -145q-60 0 -109 47zM492 664q-65 0 -137 -68t-123 -174q-64 -137 -64 -229q0 -101 97 -101q112 0 219.5 146.5t107.5 298.5q0 127 -100 127z" />
    <glyph glyph-name="q" unicode="q" horiz-adv-x="675" 
d="M733 741h8q-37 -73 -69.5 -146t-59.5 -144l-86 -234l-96 -264q-39 -113 -49.5 -143.5t-10.5 -45.5q0 -16 15 -16l20 6l35 10l10 -12q0 -10 -7 -17t-44 -28q-45 -29 -76.5 -41t-52.5 -12q-24 0 -24 22q0 13 4 25q16 43 34 94l123 355q-82 -64 -137 -89.5t-106 -25.5
q-68 0 -112 46t-44 118q0 106 67.5 226t180.5 210q135 108 250 108q75 0 118 -65q58 63 109 63zM463 682q-52 0 -114 -38t-113.5 -101.5t-84 -146.5t-32.5 -150q0 -60 29.5 -97.5t78.5 -37.5q47 0 99.5 32.5t89.5 83.5q61 88 102 182.5t41 161.5q0 50 -24.5 80.5t-71.5 30.5
z" />
    <glyph glyph-name="r" unicode="r" horiz-adv-x="454" 
d="M301 625l-49 -136q178 234 279 234q28 0 28 -31q0 -45 -67 -69q-248 -93 -406 -574l-92 -31l170 517l8 24l8 37q0 18 -14 18q-6 -2 -11 -3t-16 -9q-26 -20 -41 -20q-16 0 -16 16q0 14 16.5 27.5t51.5 33.5q63 39 94 53.5t53 14.5q27 0 27 -29q0 -10 -13 -45l-6 -18z" />
    <glyph glyph-name="s" unicode="s" horiz-adv-x="534" 
d="M338 709q-31 0 -50.5 -19.5t-19.5 -48.5t12.5 -47.5t90.5 -104.5q59 -67 75.5 -100t16.5 -84q0 -108 -92 -188t-215 -80q-88 0 -147.5 49t-59.5 121q0 29 14.5 63.5t35 55t32.5 20.5q16 0 16 -16l-6 -23q-18 -35 -18 -76q0 -63 47 -108t117 -45q75 0 134.5 53t59.5 121
q0 41 -16.5 73.5t-67.5 88.5q-63 67 -87.5 108t-24.5 78q0 64 40.5 104.5t106.5 40.5q35 0 90 -24l12 -4q13 6 17 10q12 12 20 12q17 0 28 -32.5t11 -90.5q0 -73 -29 -73q-16 0 -22 30q-29 136 -121 136z" />
    <glyph glyph-name="t" unicode="t" horiz-adv-x="387" 
d="M323 641l-156 -418q-18 -47 -18 -61q0 -17 16 -17q12 0 45 21l27 12q16 0 16 -16q0 -12 -16.5 -25.5t-48.5 -36.5q-90 -63 -127 -63q-29 0 -29 26q0 11 4 25t19 53l16 45l156 445q-45 -4 -84 -27l-15 -4l-12 14q4 29 45 55.5t94 32.5l76 218q18 51 18 65q0 16 -12 16
q-10 0 -14 -2q-17 -12 -35 -22l-20 -6q-13 10 -13 14q0 6 10 16q19 17 46 35q114 82 149 82q27 0 27 -24q0 -11 -2 -17q-13 -26 -23 -53l-24 -61l-93 -254q39 0 53.5 4t55.5 22l14 4q6 0 17 -10q0 -2 2 -4q-2 -16 -24.5 -34.5t-53.5 -33.5q-21 -8 -33 -10t-53 -6z" />
    <glyph glyph-name="u" unicode="u" horiz-adv-x="712" 
d="M704 735l-187 -528l-6 -23l-10 -37l12 -12q15 0 43 21q8 6 14.5 8t10.5 4q18 0 18 -16q0 -13 -59 -50q-105 -61 -139 -61q-25 0 -25 25q0 8 5 23t7 22l4 10l19 47q-90 -59 -171 -94t-128 -35q-33 0 -55.5 20.5t-22.5 49.5q0 22 4 36q16 41 33 88l119 318l16 53
q0 17 -14 17q-8 0 -49 -25l-25 -10q-14 0 -14 18q0 14 7 20.5t62 39.5q107 61 142 61q24 0 24 -29q0 -8 -2 -14q-10 -25 -18 -47l-15 -39l-127 -311q-43 -103 -43 -135q0 -46 45 -46q35 0 110 37t124 78q14 12 28.5 40t36.5 91l134 352z" />
    <glyph glyph-name="v" unicode="v" horiz-adv-x="706" 
d="M286 631q96 67 141 86.5t107 19.5q59 0 98 -51t39 -129q0 -184 -147.5 -354t-307.5 -170q-63 0 -104 47t-41 119q0 28 6 59t27 94l33 99l36 112q17 43 17 58q0 12 -15 12q-12 0 -35.5 -17.5t-31.5 -17.5q-17 0 -17 14q0 23 103 86q55 33 86 33q24 0 24 -22l-4 -25z
M462 674q-59 0 -118.5 -43t-88.5 -107q-37 -78 -75 -207q-15 -45 -19 -66.5t-4 -49.5q0 -49 29.5 -83t70.5 -34q105 0 209.5 141.5t104.5 286.5q0 162 -109 162z" />
    <glyph glyph-name="w" unicode="w" horiz-adv-x="1005" 
d="M610 655v-26q83 65 129.5 86.5t101.5 21.5q65 0 103 -52t38 -140q0 -178 -154.5 -343t-320.5 -165q-51 0 -75.5 16.5t-47.5 65.5l-22 -15q-60 -38 -94.5 -52.5t-75.5 -14.5q-49 0 -83 33.5t-34 83.5q0 36 29 125l86 270l10 39l4 18q0 21 -20 21q-9 0 -30.5 -14.5
t-29.5 -17.5t-16 -5q-17 0 -17 14q0 10 14.5 22.5t69.5 47.5q90 55 129 55q23 0 23 -20l-12 -62l-4 -24q98 65 149 87.5t102 22.5q50 0 50 -45zM257 473l-16 -45q-39 -104 -41 -114.5t-4 -20.5q-15 -43 -21 -73t-6 -50q0 -76 66 -76q73 0 145 66l4 24l8 35l7 14q2 11 8 29
l8 27l2 8l4 8l2 8l64 197q12 43 20 75.5t8 49.5q0 31 -28 31q-50 0 -113 -40t-90 -85q-8 -13 -27 -68zM773 664q-61 0 -115.5 -44.5t-83 -112t-59.5 -175.5q-41 -135 -41 -168q0 -72 82 -72q117 0 223.5 135t106.5 283q0 154 -113 154z" />
    <glyph glyph-name="x" unicode="x" horiz-adv-x="632" 
d="M371 457l39 -181q17 -71 21 -90q14 -47 32 -47q9 0 21 7.5t28.5 22.5t24.5 15q16 0 16 -16q0 -12 -26 -43q-17 -19 -37 -37q-59 -51 -90 -51q-35 0 -51 80l-6 30l-39 179l-84 -119q-119 -170 -236 -170q-49 0 -49 35q0 45 70 45q84 10 134 58t150 218l-37 170
q-16 82 -47 82q-12 0 -34 -12l-29 -10q-14 0 -14 14q0 10 15 22.5t59 42t73 29.5q25 0 34 -17.5t27 -92.5l25 -107q80 117 142.5 169t119.5 52q47 0 47 -39q0 -18 -6 -24q-16 -17 -78 -17q-55 -4 -99 -46t-116 -152z" />
    <glyph glyph-name="y" unicode="y" horiz-adv-x="710" 
d="M723 739l-155 -428l-21 -53q-37 -90 -37 -141v-31l2 -47l2 -43q0 -143 -110.5 -243.5t-268.5 -100.5q-98 0 -186 47t-88 100q0 19 14.5 33t30.5 14q14 0 24.5 -7t32.5 -36q35 -47 90.5 -75.5t114.5 -28.5q105 0 180.5 73.5t75.5 178.5q0 88 -18 168
q-113 -49 -177.5 -67.5t-113.5 -18.5q-84 0 -84 63q0 25 37 127l119 338l16 55q0 15 -14 15q-13 0 -32.5 -12.5t-28.5 -16.5t-15 -6q-14 0 -14 14q0 11 18 23t86 49q49 29 68.5 37t35.5 8q13 0 21 -6t8 -16q0 -7 -6 -21q-16 -41 -23 -57l-131 -353q-43 -118 -43 -141
q0 -41 58 -41q32 0 97 22.5t91.5 43t40.5 45t53 119.5l152 374z" />
    <glyph glyph-name="z" unicode="z" horiz-adv-x="602" 
d="M313 399l-213 -221q101 -41 160.5 -58.5t93.5 -17.5q41 0 78 22.5t86 80.5q4 6 9.5 8t9.5 4q6 0 10 -6q0 -4 2 -6q-2 -10 -20.5 -32.5t-51.5 -53.5q-47 -43 -89 -62.5t-93 -19.5q-55 0 -148.5 36t-119.5 36h-8q-25 0 -25 10q0 8 23 31l239 253q-47 0 -76 -16l-22 -10
l-12 12q0 29 49 55.5t102 26.5h25l149 160l-22 2q-33 4 -61.5 9t-67.5 13l-58 4q-88 0 -151 -79q-8 -9 -13.5 -12t-7.5 -3l-10 10q0 19 66 80q45 41 78.5 57.5t78.5 16.5q23 0 54.5 -5t80.5 -13l76 -11l29 2l24 5q5 0 13 -11l4 -4q0 -8 -25 -33l-180 -188l43 -4q41 0 82 25
l14 4l11 -11q0 -16 -56 -59q-35 -27 -92 -27h-68z" />
    <glyph glyph-name="braceleft" unicode="{" horiz-adv-x="575" 
d="M25 170l18 39q31 65 47 96q4 8 10 19l35 69q23 43 31 62.5t8 31.5q0 9 -6 19q-43 -14 -64 -14q-38 0 -38 24q0 29 45 29q22 0 59 -17q20 15 32.5 39.5t33.5 102.5q75 272 156 416.5t202 216.5q43 26 90 43.5t74 17.5q14 0 14 -12q0 -11 -16.5 -19t-63.5 -30
q-104 -50 -156.5 -127.5t-126 -299t-106.5 -276.5t-115 -86q39 -37 39 -84q0 -29 -6 -49.5t-28 -73.5l-13 -26l-20 -43l-21 -41l-20 -43q-94 -201 -94 -263q0 -63 57 -127q10 -12 20.5 -22t10.5 -16l-13 -13q-30 0 -80 54q-63 69 -63 176q0 84 68 227z" />
    <glyph glyph-name="bar" unicode="|" horiz-adv-x="1024" 
d="M585 1366h66v-1708h-66v1708z" />
    <glyph glyph-name="braceright" unicode="}" horiz-adv-x="575" 
d="M560 653l-29 -61q-14 -33 -14 -53l6 -17q41 15 63 15q39 0 39 -25q0 -31 -45 -31q-25 0 -59 19q-19 -13 -32 -42.5t-34 -101.5q-69 -252 -145 -381t-195 -200q-43 -27 -90 -44.5t-74 -17.5q-14 0 -14 13q0 10 16.5 18t63.5 31q113 53 165 138t144 374q37 110 71 154
t105 73q-39 37 -39 82q0 49 49 162l78 166q47 98 71 163.5t24 98.5q0 41 -14.5 68.5t-65.5 82.5l-9 15l13 12q30 0 80 -53q63 -70 63 -176q0 -60 -18.5 -116t-85.5 -192l-39 -73l-19 -37z" />
    <glyph glyph-name="asciitilde" unicode="~" horiz-adv-x="1366" 
d="M1212 1501l21 -14q-51 -78 -130 -129t-151 -51q-24 0 -52 6t-87 24q-174 58 -244 58q-59 0 -97 -24.5t-103 -104.5l-23 12q127 184 285 184q41 0 76.5 -8t121.5 -37q111 -37 160 -37q127 0 223 121z" />
    <glyph glyph-name="dieresis" unicode="&#xa8;" horiz-adv-x="1024" 
 />
    <glyph glyph-name="copyright" unicode="&#xa9;" horiz-adv-x="1536" 
d="M966 1020q-129 0 -228 -126t-99 -290q0 -110 59 -184t152 -74q49 0 97 28.5t73 76.5q10 16 12 22t8 49q10 47 43 47t33 -37q0 -81 -102.5 -159t-210.5 -78q-111 0 -178.5 75.5t-67.5 198.5q0 187 134 343.5t292 156.5q33 0 69.5 -10t53.5 -25l8 -4q6 6 11 21.5t22 15.5
q20 0 32.5 -36t12.5 -95q0 -84 -33 -84q-16 0 -25 31q-30 137 -168 137zM934 1364q270 0 450 -178t180 -449q0 -307 -219 -522t-532 -215q-271 0 -451 178t-180 449q0 307 219 522t533 215zM927 1309q-274 0 -468.5 -199t-194.5 -483q0 -246 158.5 -409t396.5 -163
q274 0 468.5 199t194.5 483q0 246 -158.5 409t-396.5 163z" />
    <glyph glyph-name="registered" unicode="&#xae;" horiz-adv-x="1536" 
d="M1095 584l19 -148q6 -47 18 -47l19 8q12 9 20 11t10 4q15 0 15 -15q0 -12 -5 -17t-48 -36t-68 -31q-31 0 -37 68l-8 123l-4 59l-41 -2q-78 0 -78 51q0 27 24.5 47.5t55.5 20.5q67 0 96 -62q51 23 82 72t31 113q0 102 -98.5 167.5t-249.5 65.5q-136 0 -231 -62.5
t-95 -152.5q0 -53 44 -88t112 -35q22 0 27 -2t5 -14q0 -23 -61 -23q-92 0 -148.5 41t-56.5 111q0 109 128 186.5t310 77.5q168 0 281 -73.5t113 -186.5q0 -153 -181 -231zM1003 604h15q-15 37 -48 37q-4 0 -7 -4t-5 -6q0 -27 45 -27zM999 922l-133 -355q-29 -78 -56.5 -124
t-65.5 -82.5t-98.5 -63.5t-107.5 -27q-22 0 -22 17q0 10 7 14t58.5 14.5t91 45t74.5 108.5l64 149l12 29l10 31q15 43 24 64.5t19 43.5l29 78l6 17l2 10v8q-8 -2 -20.5 -9t-24.5 -7q-14 0 -14 14q0 10 12 18.5t35 22.5q74 43 94 43q18 0 18 -16zM934 1364q270 0 450 -178
t180 -449q0 -307 -219 -522t-532 -215q-271 0 -451 178t-180 449q0 307 219 522t533 215zM927 1309q-274 0 -468.5 -199t-194.5 -483q0 -246 158.5 -409t396.5 -163q274 0 468.5 199t194.5 483q0 246 -158.5 409t-396.5 163z" />
    <glyph glyph-name="acute" unicode="&#xb4;" horiz-adv-x="1024" 
d="M745 1028q16 0 49 -33q19 -18 19 -30q0 -15 -24 -41.5t-52 -42.5q-47 -31 -94 -31q-23 0 -23 18q0 11 20 23q64 35 80 115q6 22 25 22z" />
    <glyph glyph-name="paragraph" unicode="&#xb6;" horiz-adv-x="1024" 
d="M929 1435v-70h-127v-1365h-82v1365h-166v-1365h-84v738q-174 8 -275.5 102.5t-101.5 245.5q0 157 107.5 253t285.5 96h443z" />
    <glyph glyph-name="onequarter" unicode="&#xbc;" horiz-adv-x="1435" 
d="M391 524l194 463q-170 -115 -274 -115q-31 0 -31 29q0 33 53 33q185 0 340 190q13 19 27 19q6 0 12 -6q0 -4 2 -7q0 -6 -18 -36q-4 -7 -33 -68q-10 -20 -21 -41l-8 -16l-6 -17l-8 -18l-6 -19l-119 -317q-4 -8 -7 -20.5t-5 -14.5l4 -4l26 10l9 2q16 0 16 -14
q0 -10 -15.5 -23.5t-62.5 -41t-65 -27.5q-21 0 -21 16l10 31zM1187 1094l-753 -1061q-25 -37 -43 -37q-25 0 -25 27q0 12 4 20t25 37l747 1046q27 39 41 39q25 0 25 -26q0 -17 -21 -45zM1198 168l-19 -49q-6 -17 -6 -25l6 -6l8 2l31 10q6 0 12 -6q0 -4 2 -6q0 -12 -9 -19.5
t-42 -23.5q-53 -27 -84 -27q-22 0 -22 19l10 31l2 10l33 88l-109 31q-29 8 -67.5 15t-63.5 7l-37 -6l-12 -2q-19 0 -19 16q0 9 8.5 22t55.5 81q98 141 236.5 245.5t224.5 104.5q28 0 28 -23q0 -8 -20 -67l-129 -367q47 8 82 35q8 6 16 8t10 4q17 0 17 -16t-49 -46t-94 -40z
M1142 225l123 330l12 53l-8 6q-18 0 -71.5 -31.5t-98.5 -70.5q-125 -104 -201 -231q52 0 93 -11q53 -18 96 -30z" />
    <glyph glyph-name="onehalf" unicode="&#xbd;" horiz-adv-x="1435" 
d="M391 524l194 463q-170 -115 -274 -115q-31 0 -31 29q0 33 53 33q185 0 340 190q13 19 27 19q6 0 12 -6q0 -4 2 -7q0 -6 -18 -36q-4 -7 -33 -68q-10 -20 -21 -41l-8 -16l-6 -17l-8 -18l-6 -19l-119 -317q-4 -8 -7 -20.5t-5 -14.5l4 -4l26 10l9 2q16 0 16 -14
q0 -10 -15.5 -23.5t-62.5 -41t-65 -27.5q-21 0 -21 16l10 31zM1161 1094l-754 -1061q-27 -37 -43 -37q-25 0 -25 27q0 16 29 57l748 1046q26 39 41 39q24 0 24 -26q0 -17 -20 -45zM1005 102q55 -12 95 -20t65 -8q71 0 127 55q18 18 28 18q15 0 15 -14q0 -6 -11.5 -19.5
t-35.5 -33.5q-86 -74 -177 -74q-20 0 -31.5 2t-54.5 15q-71 20 -106 20l-33 -2l-12 -2q-16 0 -16 14q0 15 32 27q45 20 117 73.5t123 104.5q125 131 125 246q0 59 -37 100t-92 41q-76 0 -136.5 -58.5t-60.5 -129.5q0 -45 26.5 -76t67.5 -31q35 0 68 23q10 8 16.5 10t8.5 4
l12 -12q0 -17 -37 -39q-53 -35 -109 -35q-55 0 -88.5 34t-33.5 87q0 100 99 187t212 87q72 0 121 -47t49 -119q0 -151 -168 -301q-49 -47 -168 -127z" />
    <glyph glyph-name="threequarters" unicode="&#xbe;" horiz-adv-x="1435" 
d="M448 799h-14q-18 0 -18 16q0 14 26 23q51 20 84 61t33 88q0 37 -28.5 63.5t-67.5 26.5q-76 0 -133 -76q-13 -14 -25 -14q-14 0 -14 14q0 23 55 72q70 68 158 68q55 0 95 -38t40 -87q0 -78 -94 -154q118 -43 118 -168q0 -121 -97 -214t-222 -93q-78 0 -145.5 36t-67.5 77
t41 41q20 0 45 -37q53 -78 145 -78q86 0 152 71.5t66 166.5q0 55 -33 96t-78 41zM1229 1094l-754 -1061q-27 -37 -43 -37q-25 0 -25 27q0 10 5.5 19t23.5 38l748 1046q26 39 41 39q24 0 24 -26q0 -17 -20 -45zM1198 168l-18 -49l-7 -25l5 -6l8 2l32 10l13 -12
q0 -12 -9.5 -19.5t-39.5 -23.5q-58 -27 -84 -27q-23 0 -23 19l8 31l4 10l33 88l-108 31q-29 8 -68 15t-63 7l-37 -6l-13 -2q-18 0 -18 16q0 9 8 22t55 81q99 141 237 245.5t224 104.5q29 0 29 -23q0 -10 -2 -16q-10 -25 -19 -51l-129 -367q48 8 82 35q9 6 17 8t10 4
q16 0 16 -16q0 -12 -47 -43t-96 -43zM1143 225l121 330l14 53l-8 6q-19 0 -72 -31.5t-98 -70.5q-125 -104 -201 -231q51 0 92 -11q53 -18 96 -30z" />
    <glyph glyph-name="Agrave" unicode="&#xc0;" horiz-adv-x="2115" 
d="M1735 201l96 243q-78 -28 -227 -45l-101 -10l-149 -10q-197 -369 -484 -506q80 -82 203 -82q146 0 244 88q10 10 16 12.5t8 4.5q17 0 17 -17q0 -16 -47 -49q-121 -84 -250 -84q-154 0 -246 104q-70 -22 -109.5 -30t-89.5 -8q-125 0 -240.5 62.5t-115.5 131.5
q-2 17 10.5 28t30.5 11q23 0 47 -35q60 -84 128.5 -123t158.5 -39q37 0 70.5 7.5t84.5 27.5q-10 23 -12 27q-8 16 -22 65q-76 -30 -142 -30q-61 0 -109 26.5t-48 61.5q0 30 30 30q19 0 47 -28q52 -51 117 -51q47 0 101 26l-2 37q0 121 88 215t251 146q5 6 16 23.5t25 43.5
q93 178 207 424q86 188 147.5 276.5t188.5 208.5q-188 78 -407 78q-56 0 -117 -10q127 -145 127 -334q0 -235 -180.5 -434t-393.5 -199q-133 0 -223 96.5t-90 237.5q0 135 75 267.5t204 224.5q69 49 149 88t186 71q-122 89 -268 89q-147 0 -263 -95.5t-116 -216.5
q0 -26 8.5 -43.5t34.5 -42.5q-20 -18 -39 -18q-30 0 -46.5 22.5t-16.5 63.5q0 143 145.5 260t325.5 117q203 0 340 -109q127 27 252 27q227 0 389 -76q151 113 348 113q92 0 178 -41t86 -86q0 -35 -35 -35q-14 0 -24 8t-25 25q-80 86 -219 86q-135 0 -268 -88q33 -19 65 -37
q5 -2 37 -27q56 27 103 39t90 12q67 0 120.5 -24.5t53.5 -57.5q0 -37 -37 -37q-16 0 -37 19q-65 55 -137 55q-59 0 -121 -35q154 -141 154 -342q0 -143 -49 -295l-48 -137q39 17 73 39.5t75 59.5q6 6 11 8t9 4q13 -10 13 -15q0 -10 -20.5 -34.5t-55.5 -55.5
q-51 -43 -133 -84l-10 -22l-9 -23l-10 -22q-24 -51 -31 -68l-32 -82l-27 -65q-14 -33 -14 -51q0 -29 24 -29q27 0 66 29q22 16 28.5 20t12.5 4q16 0 16 -16q0 -21 -57 -62q-86 -67 -148 -67q-63 0 -63 57q0 16 7 40t26 73zM1491 676l-33 -74l-70 -151l164 10q99 0 165.5 12
t137.5 39q72 184 100.5 289.5t28.5 185.5q0 174 -143 295q-59 -45 -100 -96t-84 -131q-17 -35 -51.5 -113t-53.5 -121l-30 -71zM1317 723l-35 -78q-20 -47 -48 -101.5t-56 -101.5l-11 -16l72 10l51 8l84 181q152 338 233 467t199 219q-12 10 -38.5 27.5t-57.5 31.5
q-100 -80 -195 -237q-57 -101 -129 -256l-34 -78zM1253 371h-14l-76 -6l-39 -7q-143 -243 -325 -362q12 -47 43 -90q88 41 146 91t128 148q29 41 69 104.5t68 121.5zM1055 342q-121 -31 -195 -106.5t-74 -165.5l4 -37q64 39 136.5 124t128.5 185zM1049 1432
q-246 -41 -413 -202t-167 -356q0 -135 82 -223t205 -88q184 0 320 152.5t136 359.5q0 105 -57 217q-35 66 -78 113zM1747 1846q16 0 24 -22q21 -82 80 -115q21 -12 21 -22q0 -19 -23 -19q-47 0 -94 31q-31 18 -53.5 42.5t-22.5 41.5q0 14 26 38.5t42 24.5z" />
    <glyph glyph-name="Aacute" unicode="&#xc1;" horiz-adv-x="2115" 
d="M1735 201l96 243q-78 -28 -227 -45l-101 -10l-149 -10q-197 -369 -484 -506q80 -82 203 -82q146 0 244 88q10 10 16 12.5t8 4.5q17 0 17 -17q0 -16 -47 -49q-121 -84 -250 -84q-154 0 -246 104q-70 -22 -109.5 -30t-89.5 -8q-125 0 -240.5 62.5t-115.5 131.5
q-2 17 10.5 28t30.5 11q23 0 47 -35q60 -84 128.5 -123t158.5 -39q37 0 70.5 7.5t84.5 27.5q-10 23 -12 27q-8 16 -22 65q-76 -30 -142 -30q-61 0 -109 26.5t-48 61.5q0 30 30 30q19 0 47 -28q52 -51 117 -51q47 0 101 26l-2 37q0 121 88 215t251 146q5 6 16 23.5t25 43.5
q93 178 207 424q86 188 147.5 276.5t188.5 208.5q-188 78 -407 78q-56 0 -117 -10q127 -145 127 -334q0 -235 -180.5 -434t-393.5 -199q-133 0 -223 96.5t-90 237.5q0 135 75 267.5t204 224.5q69 49 149 88t186 71q-122 89 -268 89q-147 0 -263 -95.5t-116 -216.5
q0 -26 8.5 -43.5t34.5 -42.5q-20 -18 -39 -18q-30 0 -46.5 22.5t-16.5 63.5q0 143 145.5 260t325.5 117q203 0 340 -109q127 27 252 27q227 0 389 -76q151 113 348 113q92 0 178 -41t86 -86q0 -35 -35 -35q-14 0 -24 8t-25 25q-80 86 -219 86q-135 0 -268 -88q33 -19 65 -37
q5 -2 37 -27q56 27 103 39t90 12q67 0 120.5 -24.5t53.5 -57.5q0 -37 -37 -37q-16 0 -37 19q-65 55 -137 55q-59 0 -121 -35q154 -141 154 -342q0 -143 -49 -295l-48 -137q39 17 73 39.5t75 59.5q6 6 11 8t9 4q13 -10 13 -15q0 -10 -20.5 -34.5t-55.5 -55.5
q-51 -43 -133 -84l-10 -22l-9 -23l-10 -22q-24 -51 -31 -68l-32 -82l-27 -65q-14 -33 -14 -51q0 -29 24 -29q27 0 66 29q22 16 28.5 20t12.5 4q16 0 16 -16q0 -21 -57 -62q-86 -67 -148 -67q-63 0 -63 57q0 16 7 40t26 73zM1491 676l-33 -74l-70 -151l164 10q99 0 165.5 12
t137.5 39q72 184 100.5 289.5t28.5 185.5q0 174 -143 295q-59 -45 -100 -96t-84 -131q-17 -35 -51.5 -113t-53.5 -121l-30 -71zM1317 723l-35 -78q-20 -47 -48 -101.5t-56 -101.5l-11 -16l72 10l51 8l84 181q152 338 233 467t199 219q-12 10 -38.5 27.5t-57.5 31.5
q-100 -80 -195 -237q-57 -101 -129 -256l-34 -78zM1253 371h-14l-76 -6l-39 -7q-143 -243 -325 -362q12 -47 43 -90q88 41 146 91t128 148q29 41 69 104.5t68 121.5zM1055 342q-121 -31 -195 -106.5t-74 -165.5l4 -37q64 39 136.5 124t128.5 185zM1049 1432
q-246 -41 -413 -202t-167 -356q0 -135 82 -223t205 -88q184 0 320 152.5t136 359.5q0 105 -57 217q-35 66 -78 113zM1913 1827q16 0 49 -33q18 -18 18 -30q0 -15 -23.5 -41.5t-51.5 -42.5q-48 -31 -95 -31q-22 0 -22 19q0 10 20 22q64 35 80 115q6 22 25 22z" />
    <glyph glyph-name="Acircumflex" unicode="&#xc2;" horiz-adv-x="2115" 
d="M1735 201l96 243q-78 -28 -227 -45l-101 -10l-149 -10q-197 -369 -484 -506q80 -82 203 -82q146 0 244 88q10 10 16 12.5t8 4.5q17 0 17 -17q0 -16 -47 -49q-121 -84 -250 -84q-154 0 -246 104q-70 -22 -109.5 -30t-89.5 -8q-125 0 -240.5 62.5t-115.5 131.5
q-2 17 10.5 28t30.5 11q23 0 47 -35q60 -84 128.5 -123t158.5 -39q37 0 70.5 7.5t84.5 27.5q-10 23 -12 27q-8 16 -22 65q-76 -30 -142 -30q-61 0 -109 26.5t-48 61.5q0 30 30 30q19 0 47 -28q52 -51 117 -51q47 0 101 26l-2 37q0 121 88 215t251 146q5 6 16 23.5t25 43.5
q93 178 207 424q86 188 147.5 276.5t188.5 208.5q-188 78 -407 78q-56 0 -117 -10q127 -145 127 -334q0 -235 -180.5 -434t-393.5 -199q-133 0 -223 96.5t-90 237.5q0 135 75 267.5t204 224.5q69 49 149 88t186 71q-122 89 -268 89q-147 0 -263 -95.5t-116 -216.5
q0 -26 8.5 -43.5t34.5 -42.5q-20 -18 -39 -18q-30 0 -46.5 22.5t-16.5 63.5q0 143 145.5 260t325.5 117q203 0 340 -109q127 27 252 27q227 0 389 -76q151 113 348 113q92 0 178 -41t86 -86q0 -35 -35 -35q-14 0 -24 8t-25 25q-80 86 -219 86q-135 0 -268 -88q33 -19 65 -37
q5 -2 37 -27q56 27 103 39t90 12q67 0 120.5 -24.5t53.5 -57.5q0 -37 -37 -37q-16 0 -37 19q-65 55 -137 55q-59 0 -121 -35q154 -141 154 -342q0 -143 -49 -295l-48 -137q39 17 73 39.5t75 59.5q6 6 11 8t9 4q13 -10 13 -15q0 -10 -20.5 -34.5t-55.5 -55.5
q-51 -43 -133 -84l-10 -22l-9 -23l-10 -22q-24 -51 -31 -68l-32 -82l-27 -65q-14 -33 -14 -51q0 -29 24 -29q27 0 66 29q22 16 28.5 20t12.5 4q16 0 16 -16q0 -21 -57 -62q-86 -67 -148 -67q-63 0 -63 57q0 16 7 40t26 73zM1491 676l-33 -74l-70 -151l164 10q99 0 165.5 12
t137.5 39q72 184 100.5 289.5t28.5 185.5q0 174 -143 295q-59 -45 -100 -96t-84 -131q-17 -35 -51.5 -113t-53.5 -121l-30 -71zM1317 723l-35 -78q-20 -47 -48 -101.5t-56 -101.5l-11 -16l72 10l51 8l84 181q152 338 233 467t199 219q-12 10 -38.5 27.5t-57.5 31.5
q-100 -80 -195 -237q-57 -101 -129 -256l-34 -78zM1253 371h-14l-76 -6l-39 -7q-143 -243 -325 -362q12 -47 43 -90q88 41 146 91t128 148q29 41 69 104.5t68 121.5zM1055 342q-121 -31 -195 -106.5t-74 -165.5l4 -37q64 39 136.5 124t128.5 185zM1049 1432
q-246 -41 -413 -202t-167 -356q0 -135 82 -223t205 -88q184 0 320 152.5t136 359.5q0 105 -57 217q-35 66 -78 113zM2127 1824l97 -111l20 -29q0 -12 -37 -12h-37q-34 0 -55 25l-33 41q-18 20 -35 20q-6 0 -38 -14l-113 -49l-43 -15q-6 0 -10 4.5t-4 6.5q0 12 39 39l149 104
q23 16 31 20.5t20 4.5t19.5 -4.5t29.5 -30.5z" />
    <glyph glyph-name="Atilde" unicode="&#xc3;" horiz-adv-x="2115" 
d="M1735 201l96 243q-78 -28 -227 -45l-101 -10l-149 -10q-197 -369 -484 -506q80 -82 203 -82q146 0 244 88q10 10 16 12.5t8 4.5q17 0 17 -17q0 -16 -47 -49q-121 -84 -250 -84q-154 0 -246 104q-70 -22 -109.5 -30t-89.5 -8q-125 0 -240.5 62.5t-115.5 131.5
q-2 17 10.5 28t30.5 11q23 0 47 -35q60 -84 128.5 -123t158.5 -39q37 0 70.5 7.5t84.5 27.5q-10 23 -12 27q-8 16 -22 65q-76 -30 -142 -30q-61 0 -109 26.5t-48 61.5q0 30 30 30q19 0 47 -28q52 -51 117 -51q47 0 101 26l-2 37q0 121 88 215t251 146q5 6 16 23.5t25 43.5
q93 178 207 424q86 188 147.5 276.5t188.5 208.5q-188 78 -407 78q-56 0 -117 -10q127 -145 127 -334q0 -235 -180.5 -434t-393.5 -199q-133 0 -223 96.5t-90 237.5q0 135 75 267.5t204 224.5q69 49 149 88t186 71q-122 89 -268 89q-147 0 -263 -95.5t-116 -216.5
q0 -26 8.5 -43.5t34.5 -42.5q-20 -18 -39 -18q-30 0 -46.5 22.5t-16.5 63.5q0 143 145.5 260t325.5 117q203 0 340 -109q127 27 252 27q227 0 389 -76q151 113 348 113q92 0 178 -41t86 -86q0 -35 -35 -35q-14 0 -24 8t-25 25q-80 86 -219 86q-135 0 -268 -88q33 -19 65 -37
q5 -2 37 -27q56 27 103 39t90 12q67 0 120.5 -24.5t53.5 -57.5q0 -37 -37 -37q-16 0 -37 19q-65 55 -137 55q-59 0 -121 -35q154 -141 154 -342q0 -143 -49 -295l-48 -137q39 17 73 39.5t75 59.5q6 6 11 8t9 4q13 -10 13 -15q0 -10 -20.5 -34.5t-55.5 -55.5
q-51 -43 -133 -84l-10 -22l-9 -23l-10 -22q-24 -51 -31 -68l-32 -82l-27 -65q-14 -33 -14 -51q0 -29 24 -29q27 0 66 29q22 16 28.5 20t12.5 4q16 0 16 -16q0 -21 -57 -62q-86 -67 -148 -67q-63 0 -63 57q0 16 7 40t26 73zM1491 676l-33 -74l-70 -151l164 10q99 0 165.5 12
t137.5 39q72 184 100.5 289.5t28.5 185.5q0 174 -143 295q-59 -45 -100 -96t-84 -131q-17 -35 -51.5 -113t-53.5 -121l-30 -71zM1317 723l-35 -78q-20 -47 -48 -101.5t-56 -101.5l-11 -16l72 10l51 8l84 181q152 338 233 467t199 219q-12 10 -38.5 27.5t-57.5 31.5
q-100 -80 -195 -237q-57 -101 -129 -256l-34 -78zM1253 371h-14l-76 -6l-39 -7q-143 -243 -325 -362q12 -47 43 -90q88 41 146 91t128 148q29 41 69 104.5t68 121.5zM1055 342q-121 -31 -195 -106.5t-74 -165.5l4 -37q64 39 136.5 124t128.5 185zM1049 1432
q-246 -41 -413 -202t-167 -356q0 -135 82 -223t205 -88q184 0 320 152.5t136 359.5q0 105 -57 217q-35 66 -78 113zM1982 1783l16 -4l66 -22l35 -6q18 0 28.5 6t36.5 31q11 10 21 10q14 0 14 -15q0 -12 -39 -53q-31 -35 -49 -47t-43 -12q-23 0 -37 4t-80 27q-43 14 -61 14
q-31 0 -66 -29q-14 -10 -26 -16q-2 0 -4 -2l-13 12q0 12 31 47q64 68 109 68q10 0 26.5 -4t34.5 -9z" />
    <glyph glyph-name="Egrave" unicode="&#xc8;" horiz-adv-x="1523" 
d="M849 1409v41q-178 -107 -203 -330q84 15 133 15q140 0 230 -65.5t90 -166.5q0 -86 -62.5 -146.5t-152.5 -60.5q-209 0 -316 224q-79 -54 -128.5 -154t-49.5 -215q0 -197 129 -338t310 -141q129 0 216 82t103 217q10 82 45 82q39 0 39 -47q0 -39 -18.5 -89.5t-51.5 -95.5
q-59 -86 -162.5 -139t-213.5 -53q-203 0 -338.5 137t-135.5 346q0 268 246 442q-12 45 -12 95q-166 -84 -259 -237t-93 -337q0 -244 172 -405.5t428 -161.5q223 0 389 155.5t166 364.5q0 61 -11 107l-6 45q0 59 52 59q63 0 63 -96q0 -289 -219 -494t-529 -205
q-274 0 -446 162t-172 422q0 209 123 383t344 274q20 138 95 237t216 177q33 98 116 156.5t191 58.5q144 0 243 -89t99 -216t-81 -209q-31 -35 -58 -35q-20 0 -20 21l6 22l6 49q0 97 -100.5 170.5t-231.5 73.5q-53 0 -121 -20l-6 -41q0 -60 35 -82q16 -12 27 -25
q2 -6 -4 -12q-15 -14 -33 -14q-33 0 -55.5 28.5t-22.5 73.5zM644 1079v-39l4 -45q68 19 121 19q78 0 136.5 -35t58.5 -82q0 -45 -43 -45q-19 0 -19 12l2 8l2 19q0 31 -52 59.5t-109 28.5q-35 0 -89 -18q76 -222 248 -222q62 0 103 39t41 96q0 91 -87 151t-223 60
q-57 0 -94 -6zM1427 1329q24 47 24 86q0 109 -88 186.5t-213 77.5q-164 0 -231 -155q82 22 145 22q270 0 363 -217zM1177 1931q16 0 24 -22q21 -82 80 -115q21 -12 21 -22q0 -19 -23 -19q-47 0 -94 31q-31 18 -53.5 42.5t-22.5 41.5q0 14 25.5 38.5t42.5 24.5z" />
    <glyph glyph-name="Eacute" unicode="&#xc9;" horiz-adv-x="1523" 
d="M849 1409v41q-178 -107 -203 -330q84 15 133 15q140 0 230 -65.5t90 -166.5q0 -86 -62.5 -146.5t-152.5 -60.5q-209 0 -316 224q-79 -54 -128.5 -154t-49.5 -215q0 -197 129 -338t310 -141q129 0 216 82t103 217q10 82 45 82q39 0 39 -47q0 -39 -18.5 -89.5t-51.5 -95.5
q-59 -86 -162.5 -139t-213.5 -53q-203 0 -338.5 137t-135.5 346q0 268 246 442q-12 45 -12 95q-166 -84 -259 -237t-93 -337q0 -244 172 -405.5t428 -161.5q223 0 389 155.5t166 364.5q0 61 -11 107l-6 45q0 59 52 59q63 0 63 -96q0 -289 -219 -494t-529 -205
q-274 0 -446 162t-172 422q0 209 123 383t344 274q20 138 95 237t216 177q33 98 116 156.5t191 58.5q144 0 243 -89t99 -216t-81 -209q-31 -35 -58 -35q-20 0 -20 21l6 22l6 49q0 97 -100.5 170.5t-231.5 73.5q-53 0 -121 -20l-6 -41q0 -60 35 -82q16 -12 27 -25
q2 -6 -4 -12q-15 -14 -33 -14q-33 0 -55.5 28.5t-22.5 73.5zM644 1079v-39l4 -45q68 19 121 19q78 0 136.5 -35t58.5 -82q0 -45 -43 -45q-19 0 -19 12l2 8l2 19q0 31 -52 59.5t-109 28.5q-35 0 -89 -18q76 -222 248 -222q62 0 103 39t41 96q0 91 -87 151t-223 60
q-57 0 -94 -6zM1427 1329q24 47 24 86q0 109 -88 186.5t-213 77.5q-164 0 -231 -155q82 22 145 22q270 0 363 -217zM1330 1931q17 0 49 -33q19 -18 19 -30q0 -15 -23.5 -41.5t-52.5 -42.5q-47 -31 -94 -31q-23 0 -23 19q0 10 21 22q63 35 80 115q6 22 24 22z" />
    <glyph glyph-name="Ecircumflex" unicode="&#xca;" horiz-adv-x="1523" 
d="M849 1409v41q-178 -107 -203 -330q84 15 133 15q140 0 230 -65.5t90 -166.5q0 -86 -62.5 -146.5t-152.5 -60.5q-209 0 -316 224q-79 -54 -128.5 -154t-49.5 -215q0 -197 129 -338t310 -141q129 0 216 82t103 217q10 82 45 82q39 0 39 -47q0 -39 -18.5 -89.5t-51.5 -95.5
q-59 -86 -162.5 -139t-213.5 -53q-203 0 -338.5 137t-135.5 346q0 268 246 442q-12 45 -12 95q-166 -84 -259 -237t-93 -337q0 -244 172 -405.5t428 -161.5q223 0 389 155.5t166 364.5q0 61 -11 107l-6 45q0 59 52 59q63 0 63 -96q0 -289 -219 -494t-529 -205
q-274 0 -446 162t-172 422q0 209 123 383t344 274q20 138 95 237t216 177q33 98 116 156.5t191 58.5q144 0 243 -89t99 -216t-81 -209q-31 -35 -58 -35q-20 0 -20 21l6 22l6 49q0 97 -100.5 170.5t-231.5 73.5q-53 0 -121 -20l-6 -41q0 -60 35 -82q16 -12 27 -25
q2 -6 -4 -12q-15 -14 -33 -14q-33 0 -55.5 28.5t-22.5 73.5zM644 1079v-39l4 -45q68 19 121 19q78 0 136.5 -35t58.5 -82q0 -45 -43 -45q-19 0 -19 12l2 8l2 19q0 31 -52 59.5t-109 28.5q-35 0 -89 -18q76 -222 248 -222q62 0 103 39t41 96q0 91 -87 151t-223 60
q-57 0 -94 -6zM1427 1329q24 47 24 86q0 109 -88 186.5t-213 77.5q-164 0 -231 -155q82 22 145 22q270 0 363 -217zM1347 1909l96 -111l20 -29q0 -12 -36 -12h-37q-35 0 -56 25l-32 41q-19 20 -35 20q-6 0 -39 -14l-113 -49l-43 -15q-6 0 -10 4.5t-4 6.5q0 12 39 39l149 104
q23 16 31 20.5t21 4.5q12 0 19 -4.5t30 -30.5z" />
    <glyph glyph-name="Igrave" unicode="&#xcc;" horiz-adv-x="1640" 
d="M1407 754l104 286q29 80 44.5 95.5t111.5 66.5q-166 135 -372 217t-380 82q-243 0 -407 -139t-164 -346q0 -137 96 -235.5t232 -98.5q86 0 190 51l12 2q4 0 13 -10q0 -2 2 -4q0 -14 -49 -37q-105 -45 -222 -45q-164 0 -263 99.5t-99 262.5q0 230 215 389.5t522 159.5
q219 0 437 -84t374 -229q-80 -27 -118 -90.5t-162 -370.5l-11 -26l43 -2q101 0 174 98q9 12 14 14t7 4q4 0 12 -10q0 -2 2 -4q0 -23 -28.5 -57.5t-70.5 -62.5t-82 -42t-85 -14h-14l-35 -88q-80 -203 -161 -325t-196 -214q-208 -166 -454 -166q-99 0 -191 26.5t-166 76.5
q-104 69 -104 125q0 20 13.5 33.5t33.5 13.5q23 0 38 -13.5t63.5 -80t135.5 -103.5t191 -37q215 0 393.5 167t290.5 478l39 109l-55 4h-45q-72 -266 -259.5 -447.5t-389.5 -181.5q-78 0 -151 37t-73 78q0 33 35 33q19 0 35 -23q43 -53 78 -71.5t90 -18.5q174 0 338 168
t233 420q-135 0 -205 -113q-22 -37 -30 -37q-4 0 -9.5 6.5t-5.5 8.5q0 10 17 41q8 14 20 32q41 60 92.5 91.5t133.5 48.5q4 32 8 74t4 87q0 172 -102.5 289t-254.5 117q-110 0 -192 -84t-82 -199q0 -82 42 -136t103 -54h15l18 2q15 0 15 -12q2 -11 -20.5 -19t-59.5 -8
q-78 0 -131.5 59.5t-53.5 147.5q0 139 115 239.5t274 100.5q168 0 279 -121t111 -305q0 -66 -19 -170h17zM1263 1931q17 0 25 -22q20 -82 80 -115q20 -12 20 -22q0 -19 -22 -19q-47 0 -94 31q-31 18 -53.5 42.5t-22.5 41.5q0 14 25.5 38.5t41.5 24.5z" />
    <glyph glyph-name="Iacute" unicode="&#xcd;" horiz-adv-x="1640" 
d="M1407 754l104 286q29 80 44.5 95.5t111.5 66.5q-166 135 -372 217t-380 82q-243 0 -407 -139t-164 -346q0 -137 96 -235.5t232 -98.5q86 0 190 51l12 2q4 0 13 -10q0 -2 2 -4q0 -14 -49 -37q-105 -45 -222 -45q-164 0 -263 99.5t-99 262.5q0 230 215 389.5t522 159.5
q219 0 437 -84t374 -229q-80 -27 -118 -90.5t-162 -370.5l-11 -26l43 -2q101 0 174 98q9 12 14 14t7 4q4 0 12 -10q0 -2 2 -4q0 -23 -28.5 -57.5t-70.5 -62.5t-82 -42t-85 -14h-14l-35 -88q-80 -203 -161 -325t-196 -214q-208 -166 -454 -166q-99 0 -191 26.5t-166 76.5
q-104 69 -104 125q0 20 13.5 33.5t33.5 13.5q23 0 38 -13.5t63.5 -80t135.5 -103.5t191 -37q215 0 393.5 167t290.5 478l39 109l-55 4h-45q-72 -266 -259.5 -447.5t-389.5 -181.5q-78 0 -151 37t-73 78q0 33 35 33q19 0 35 -23q43 -53 78 -71.5t90 -18.5q174 0 338 168
t233 420q-135 0 -205 -113q-22 -37 -30 -37q-4 0 -9.5 6.5t-5.5 8.5q0 10 17 41q8 14 20 32q41 60 92.5 91.5t133.5 48.5q4 32 8 74t4 87q0 172 -102.5 289t-254.5 117q-110 0 -192 -84t-82 -199q0 -82 42 -136t103 -54h15l18 2q15 0 15 -12q2 -11 -20.5 -19t-59.5 -8
q-78 0 -131.5 59.5t-53.5 147.5q0 139 115 239.5t274 100.5q168 0 279 -121t111 -305q0 -66 -19 -170h17zM1390 1931q17 0 50 -33q18 -18 18 -30q0 -15 -23.5 -41.5t-52.5 -42.5q-47 -31 -94 -31q-23 0 -23 19q0 10 21 22q63 35 80 115q6 22 24 22z" />
    <glyph glyph-name="Ograve" unicode="&#xd2;" 
d="M696 -16q-84 -68 -174 -101t-197 -33q-98 0 -178 35t-80 80q0 37 37 37q16 0 22 -4q31 -23 62 -45q84 -64 188 -64q152 0 279 105q-203 72 -311.5 221.5t-108.5 357.5q0 218 121 405t317 275q217 408 588 408q236 0 387.5 -171t151.5 -437q0 -404 -309.5 -742
t-680.5 -338q-53 0 -114 11zM874 918l18 -222q4 -28 4 -67v-78q0 -164 -30.5 -277.5t-104.5 -218.5q74 -16 129 -16q158 0 307.5 86t257 240.5t171 351t63.5 381.5q0 221 -132 371.5t-327 150.5q-231 0 -386.5 -194.5t-155.5 -485.5q0 -84 12 -186l8 -70l10 -70l8 -69
q11 -82 11 -154q0 -108 -24.5 -159.5t-104.5 -106.5q59 -37 118 -57q66 90 92.5 182t26.5 229q0 27 -4 91.5t-4 66.5l-8 102l-6 52q-4 38 -7.5 83.5t-3.5 79.5q0 211 78 336q49 82 144.5 135.5t193.5 53.5q152 0 256.5 -111t104.5 -272q0 -162 -117 -289t-266 -127
q-92 0 -92 51q0 37 40 37q15 0 59 -11.5t75 -11.5q92 0 169.5 99.5t77.5 218.5q0 154 -100 256t-254 102q-143 0 -227 -102t-84 -283v-55t4 -63zM645 1180q-152 -54 -236 -189t-84 -323q0 -162 66.5 -299.5t185.5 -223.5q59 35 82.5 75t23.5 110q0 45 -18 155l-37 174
q-26 134 -26 256q0 127 43 265zM1327 1931q16 0 24 -22q21 -82 80 -115q20 -12 20 -22q0 -19 -22 -19q-47 0 -94 31q-31 18 -53.5 42.5t-22.5 41.5q0 14 25.5 38.5t42.5 24.5z" />
    <glyph glyph-name="Oacute" unicode="&#xd3;" 
d="M696 -16q-84 -68 -174 -101t-197 -33q-98 0 -178 35t-80 80q0 37 37 37q16 0 22 -4q31 -23 62 -45q84 -64 188 -64q152 0 279 105q-203 72 -311.5 221.5t-108.5 357.5q0 218 121 405t317 275q217 408 588 408q236 0 387.5 -171t151.5 -437q0 -404 -309.5 -742
t-680.5 -338q-53 0 -114 11zM874 918l18 -222q4 -28 4 -67v-78q0 -164 -30.5 -277.5t-104.5 -218.5q74 -16 129 -16q158 0 307.5 86t257 240.5t171 351t63.5 381.5q0 221 -132 371.5t-327 150.5q-231 0 -386.5 -194.5t-155.5 -485.5q0 -84 12 -186l8 -70l10 -70l8 -69
q11 -82 11 -154q0 -108 -24.5 -159.5t-104.5 -106.5q59 -37 118 -57q66 90 92.5 182t26.5 229q0 27 -4 91.5t-4 66.5l-8 102l-6 52q-4 38 -7.5 83.5t-3.5 79.5q0 211 78 336q49 82 144.5 135.5t193.5 53.5q152 0 256.5 -111t104.5 -272q0 -162 -117 -289t-266 -127
q-92 0 -92 51q0 37 40 37q15 0 59 -11.5t75 -11.5q92 0 169.5 99.5t77.5 218.5q0 154 -100 256t-254 102q-143 0 -227 -102t-84 -283v-55t4 -63zM645 1180q-152 -54 -236 -189t-84 -323q0 -162 66.5 -299.5t185.5 -223.5q59 35 82.5 75t23.5 110q0 45 -18 155l-37 174
q-26 134 -26 256q0 127 43 265zM1451 1931q17 0 50 -33q18 -18 18 -30q0 -15 -23.5 -41.5t-52.5 -42.5q-47 -31 -94 -31q-22 0 -22 19q0 10 20 22q63 35 80 115q6 22 24 22z" />
    <glyph glyph-name="Ocircumflex" unicode="&#xd4;" 
d="M696 -16q-84 -68 -174 -101t-197 -33q-98 0 -178 35t-80 80q0 37 37 37q16 0 22 -4q31 -23 62 -45q84 -64 188 -64q152 0 279 105q-203 72 -311.5 221.5t-108.5 357.5q0 218 121 405t317 275q217 408 588 408q236 0 387.5 -171t151.5 -437q0 -404 -309.5 -742
t-680.5 -338q-53 0 -114 11zM874 918l18 -222q4 -28 4 -67v-78q0 -164 -30.5 -277.5t-104.5 -218.5q74 -16 129 -16q158 0 307.5 86t257 240.5t171 351t63.5 381.5q0 221 -132 371.5t-327 150.5q-231 0 -386.5 -194.5t-155.5 -485.5q0 -84 12 -186l8 -70l10 -70l8 -69
q11 -82 11 -154q0 -108 -24.5 -159.5t-104.5 -106.5q59 -37 118 -57q66 90 92.5 182t26.5 229q0 27 -4 91.5t-4 66.5l-8 102l-6 52q-4 38 -7.5 83.5t-3.5 79.5q0 211 78 336q49 82 144.5 135.5t193.5 53.5q152 0 256.5 -111t104.5 -272q0 -162 -117 -289t-266 -127
q-92 0 -92 51q0 37 40 37q15 0 59 -11.5t75 -11.5q92 0 169.5 99.5t77.5 218.5q0 154 -100 256t-254 102q-143 0 -227 -102t-84 -283v-55t4 -63zM645 1180q-152 -54 -236 -189t-84 -323q0 -162 66.5 -299.5t185.5 -223.5q59 35 82.5 75t23.5 110q0 45 -18 155l-37 174
q-26 134 -26 256q0 127 43 265zM1476 1909l96 -111l21 -29q0 -12 -37 -12h-37q-35 0 -55 25l-33 41q-18 20 -35 20q-6 0 -39 -14l-112 -49l-43 -15q-7 0 -11 4.5t-4 6.5q0 12 39 39l150 104q22 16 30.5 20.5t20.5 4.5t19 -4.5t30 -30.5z" />
    <glyph glyph-name="Otilde" unicode="&#xd5;" 
d="M696 -16q-84 -68 -174 -101t-197 -33q-98 0 -178 35t-80 80q0 37 37 37q16 0 22 -4q31 -23 62 -45q84 -64 188 -64q152 0 279 105q-203 72 -311.5 221.5t-108.5 357.5q0 218 121 405t317 275q217 408 588 408q236 0 387.5 -171t151.5 -437q0 -404 -309.5 -742
t-680.5 -338q-53 0 -114 11zM874 918l18 -222q4 -28 4 -67v-78q0 -164 -30.5 -277.5t-104.5 -218.5q74 -16 129 -16q158 0 307.5 86t257 240.5t171 351t63.5 381.5q0 221 -132 371.5t-327 150.5q-231 0 -386.5 -194.5t-155.5 -485.5q0 -84 12 -186l8 -70l10 -70l8 -69
q11 -82 11 -154q0 -108 -24.5 -159.5t-104.5 -106.5q59 -37 118 -57q66 90 92.5 182t26.5 229q0 27 -4 91.5t-4 66.5l-8 102l-6 52q-4 38 -7.5 83.5t-3.5 79.5q0 211 78 336q49 82 144.5 135.5t193.5 53.5q152 0 256.5 -111t104.5 -272q0 -162 -117 -289t-266 -127
q-92 0 -92 51q0 37 40 37q15 0 59 -11.5t75 -11.5q92 0 169.5 99.5t77.5 218.5q0 154 -100 256t-254 102q-143 0 -227 -102t-84 -283v-55t4 -63zM645 1180q-152 -54 -236 -189t-84 -323q0 -162 66.5 -299.5t185.5 -223.5q59 35 82.5 75t23.5 110q0 45 -18 155l-37 174
q-26 134 -26 256q0 127 43 265zM1361 1896l17 -4l65 -22l35 -6q19 0 29 6t37 31q10 10 20 10q14 0 14 -15q0 -12 -38 -53q-31 -35 -49.5 -47t-43.5 -12q-22 0 -36.5 4t-79.5 27q-43 14 -62 14q-31 0 -65 -29q-15 -10 -27 -16q-2 0 -4 -2l-12 12q0 12 30 47q64 68 109 68
q10 0 26.5 -4t34.5 -9z" />
    <glyph glyph-name="Ugrave" unicode="&#xd9;" horiz-adv-x="2050" 
d="M2109 1239l-375 -1010l-6 -16q-15 -39 -15 -49q0 -27 29 -27t64 29q20 18 30 18q17 0 17 -18q0 -4 -9.5 -15.5t-29.5 -29.5q-99 -90 -162 -90q-64 0 -64 65l7 43q-115 -65 -174.5 -86.5t-124.5 -21.5q-101 0 -165.5 62.5t-64.5 156.5q0 82 60 244l34 92q-75 -23 -147 -33
t-145 -10q-275 0 -449 131t-174 340q0 229 209 391t506 162q180 0 348 -61.5t303 -176.5l-43 -24q-31 -19 -49.5 -48.5t-44.5 -101.5q182 -217 182 -502q0 -202 -86 -345.5t-209 -143.5q-45 0 -78.5 21.5t-33.5 50.5q0 28 30 28q4 0 9.5 -1t33 -28.5t68.5 -27.5
q94 0 160.5 128t66.5 306q0 246 -170 442l-145 -393q65 35 106 72q13 10 19 13t8 5q14 0 14 -14q2 -12 -12 -24.5t-33 -24.5q-37 -25 -72 -49q-10 -6 -49 -29l-90 -240q-16 -41 -24.5 -83t-8.5 -68q0 -74 49.5 -123t125.5 -49q65 0 141 41t131 108q14 19 33.5 58t42.5 100
l305 829q18 50 18 72q0 23 -24 23q-15 0 -15 14q0 12 25 23.5t55 29.5q39 25 133 88q72 47 90 47q7 0 11 -5t6 -7q0 -8 -23 -24q-90 -60 -155 -234zM1179 633l192 524q-114 100 -213.5 143t-214.5 43q-161 0 -273 -91t-112 -224q0 -127 103.5 -208t267.5 -81q18 0 18 -10
q0 -24 -90 -24q-153 0 -258.5 93t-105.5 226q0 152 133 252t336 100q219 0 432 -149l51 35l49 28q-252 221 -585 221q-252 0 -414 -131t-162 -333q0 -203 164 -330t424 -127q78 0 127 8t131 35zM1769 1789q16 0 24 -22q21 -82 80 -115q21 -12 21 -22q0 -19 -23 -19
q-47 0 -94 31q-31 18 -53.5 42.5t-22.5 41.5q0 14 25.5 38.5t42.5 24.5z" />
    <glyph glyph-name="Uacute" unicode="&#xda;" horiz-adv-x="2050" 
d="M2109 1239l-375 -1010l-6 -16q-15 -39 -15 -49q0 -27 29 -27t64 29q20 18 30 18q17 0 17 -18q0 -4 -9.5 -15.5t-29.5 -29.5q-99 -90 -162 -90q-64 0 -64 65l7 43q-115 -65 -174.5 -86.5t-124.5 -21.5q-101 0 -165.5 62.5t-64.5 156.5q0 82 60 244l34 92q-75 -23 -147 -33
t-145 -10q-275 0 -449 131t-174 340q0 229 209 391t506 162q180 0 348 -61.5t303 -176.5l-43 -24q-31 -19 -49.5 -48.5t-44.5 -101.5q182 -217 182 -502q0 -202 -86 -345.5t-209 -143.5q-45 0 -78.5 21.5t-33.5 50.5q0 28 30 28q4 0 9.5 -1t33 -28.5t68.5 -27.5
q94 0 160.5 128t66.5 306q0 246 -170 442l-145 -393q65 35 106 72q13 10 19 13t8 5q14 0 14 -14q2 -12 -12 -24.5t-33 -24.5q-37 -25 -72 -49q-10 -6 -49 -29l-90 -240q-16 -41 -24.5 -83t-8.5 -68q0 -74 49.5 -123t125.5 -49q65 0 141 41t131 108q14 19 33.5 58t42.5 100
l305 829q18 50 18 72q0 23 -24 23q-15 0 -15 14q0 12 25 23.5t55 29.5q39 25 133 88q72 47 90 47q7 0 11 -5t6 -7q0 -8 -23 -24q-90 -60 -155 -234zM1179 633l192 524q-114 100 -213.5 143t-214.5 43q-161 0 -273 -91t-112 -224q0 -127 103.5 -208t267.5 -81q18 0 18 -10
q0 -24 -90 -24q-153 0 -258.5 93t-105.5 226q0 152 133 252t336 100q219 0 432 -149l51 35l49 28q-252 221 -585 221q-252 0 -414 -131t-162 -333q0 -203 164 -330t424 -127q78 0 127 8t131 35zM1933 1789q16 0 49 -33q19 -18 19 -30q0 -15 -24 -41.5t-52 -42.5
q-47 -31 -94 -31q-23 0 -23 19q0 10 21 22q63 35 79 115q7 22 25 22z" />
    <glyph glyph-name="Yacute" unicode="&#xdd;" horiz-adv-x="2039" 
d="M1099 459l50 129q-154 -43 -293 -43q-273 0 -449 133t-176 342q0 227 210 388t507 161q370 0 651 -238l-29 -16q-43 -29 -62.5 -56.5t-45.5 -101.5q182 -209 182 -495q0 -211 -85 -353.5t-212 -142.5q-43 0 -75.5 20.5t-32.5 49.5q0 28 28 28q11 0 14 -2t40 -35
q22 -18 55 -18q94 0 161.5 129t67.5 311q0 250 -170 436l-145 -393q41 21 57.5 32t32.5 26q27 26 32 29t11 3q14 0 14 -14q0 -16 -45 -50t-123 -77l-75 -205q-45 -125 -45 -194q0 -70 50 -118t119 -48q70 0 145 40t126 101q22 29 38.5 64.5t61.5 156.5l271 729q6 17 24 70
q12 35 12 47q0 25 -22 25q-10 0 -14.5 4t-4.5 8q0 16 37 31.5t185 113.5q67 45 86 45l14 -12q-2 -6 -6 -11t-15 -13q-59 -41 -93 -97.5t-91 -208.5l-301 -802q-10 -29 -16 -47.5t-37 -96.5q-14 -35 -19.5 -59.5t-5.5 -46.5l13 -84l4 -58q0 -122 -75 -210.5t-202 -144.5
t-260 -56q-172 0 -307 92t-135 209q0 43 37 43q24 0 33.5 -14.5t26.5 -91t115.5 -136t231.5 -59.5q178 0 303 106.5t125 259.5q0 35 -7 74t-9 58.5t-2 35.5l-80 -45q-119 -65 -221 -65q-99 0 -164.5 63.5t-65.5 163.5q0 37 12.5 93.5t32.5 107.5zM1165 633l194 526
q-122 103 -216.5 143.5t-211.5 40.5q-163 0 -274 -90t-111 -221q0 -123 99.5 -207t249.5 -84q41 0 41 -10q0 -24 -99 -24q-147 0 -251.5 94t-104.5 225q0 148 134 250t331 102q225 0 438 -149l55 39l43 26q-247 219 -587 219q-252 0 -413 -132t-161 -337q0 -196 163 -324
t413 -128q79 0 133.5 8t134.5 33zM1908 1846q16 0 49 -33q18 -18 18 -30q0 -15 -23.5 -41.5t-52.5 -42.5q-47 -31 -94 -31q-22 0 -22 19q0 10 20 22q64 35 80 115q6 22 25 22z" />
    <glyph glyph-name="agrave" unicode="&#xe0;" horiz-adv-x="731" 
d="M438 111l10 43q-153 -115 -284 -115q-72 0 -115 41t-43 113q0 81 43 150t150 151q0 114 75.5 184t196.5 70q98 0 156.5 -48.5t58.5 -126.5q0 -30 -7 -61t-26 -80l-94 -246l-8 -20l-6 -25q0 -12 14 -12l14 4l33 10q18 0 18 -14q0 -23 -53 -51q-76 -41 -112 -41
q-31 0 -31 31q0 12 10 43zM299 575v-20q84 43 162 43q65 0 133 -47l6 43q0 49 -39 82t-96 33q-62 0 -114 -42t-52 -92zM444 557q-112 0 -220.5 -110.5t-108.5 -225.5q0 -49 34.5 -82t89.5 -33q111 0 214.5 110t103.5 239q0 47 -29.5 74.5t-83.5 27.5zM452 1028q17 0 25 -22
q21 -82 80 -115q20 -12 20 -23q0 -18 -22 -18q-47 0 -94 31q-31 18 -53.5 42.5t-22.5 41.5q0 14 25.5 38.5t41.5 24.5z" />
    <glyph glyph-name="aacute" unicode="&#xe1;" horiz-adv-x="731" 
d="M438 111l10 43q-153 -115 -284 -115q-72 0 -115 41t-43 113q0 81 43 150t150 151q0 114 75.5 184t196.5 70q98 0 156.5 -48.5t58.5 -126.5q0 -30 -7 -61t-26 -80l-94 -246l-8 -20l-6 -25q0 -12 14 -12l14 4l33 10q18 0 18 -14q0 -23 -53 -51q-76 -41 -112 -41
q-31 0 -31 31q0 12 10 43zM299 575v-20q84 43 162 43q65 0 133 -47l6 43q0 49 -39 82t-96 33q-62 0 -114 -42t-52 -92zM444 557q-112 0 -220.5 -110.5t-108.5 -225.5q0 -49 34.5 -82t89.5 -33q111 0 214.5 110t103.5 239q0 47 -29.5 74.5t-83.5 27.5zM604 1028q16 0 49 -33
q19 -18 19 -30q0 -15 -24 -41.5t-52 -42.5q-47 -31 -94 -31q-23 0 -23 18q0 11 21 23q63 35 79 115q7 22 25 22z" />
    <glyph glyph-name="acircumflex" unicode="&#xe2;" horiz-adv-x="731" 
d="M438 111l10 43q-153 -115 -284 -115q-72 0 -115 41t-43 113q0 81 43 150t150 151q0 114 75.5 184t196.5 70q98 0 156.5 -48.5t58.5 -126.5q0 -30 -7 -61t-26 -80l-94 -246l-8 -20l-6 -25q0 -12 14 -12l14 4l33 10q18 0 18 -14q0 -23 -53 -51q-76 -41 -112 -41
q-31 0 -31 31q0 12 10 43zM299 575v-20q84 43 162 43q65 0 133 -47l6 43q0 49 -39 82t-96 33q-62 0 -114 -42t-52 -92zM444 557q-112 0 -220.5 -110.5t-108.5 -225.5q0 -49 34.5 -82t89.5 -33q111 0 214.5 110t103.5 239q0 47 -29.5 74.5t-83.5 27.5zM631 997l92 -104
q8 -10 12 -16.5t6 -12.5q0 -10 -35 -10h-34q-31 0 -54 25l-32 36q-17 21 -29 21q-21 -4 -39 -12l-109 -47l-38 -15q-7 0 -11 4t-4 6q0 13 37 37l143 99q31 22 48 22q10 0 18 -5t29 -28z" />
    <glyph glyph-name="atilde" unicode="&#xe3;" horiz-adv-x="731" 
d="M438 111l10 43q-153 -115 -284 -115q-72 0 -115 41t-43 113q0 81 43 150t150 151q0 114 75.5 184t196.5 70q98 0 156.5 -48.5t58.5 -126.5q0 -30 -7 -61t-26 -80l-94 -246l-8 -20l-6 -25q0 -12 14 -12l14 4l33 10q18 0 18 -14q0 -23 -53 -51q-76 -41 -112 -41
q-31 0 -31 31q0 12 10 43zM299 575v-20q84 43 162 43q65 0 133 -47l6 43q0 49 -39 82t-96 33q-62 0 -114 -42t-52 -92zM444 557q-112 0 -220.5 -110.5t-108.5 -225.5q0 -49 34.5 -82t89.5 -33q111 0 214.5 110t103.5 239q0 47 -29.5 74.5t-83.5 27.5zM463 926q-31 0 -66 -29
q-14 -10 -26 -16q-3 0 -5 -2l-12 12q0 12 31 47q63 68 108 68q25 0 62 -13l82 -26l35 -6q18 0 28.5 6t36.5 30q10 11 21 11q14 0 14 -15q0 -12 -39 -53q-31 -35 -49.5 -47t-42.5 -12q-23 0 -37 4t-80 26q-43 15 -61 15z" />
    <glyph glyph-name="egrave" unicode="&#xe8;" horiz-adv-x="608" 
d="M132 231q23 -120 144 -120q98 0 186 82q23 20 37 20q18 0 18 -18q0 -27 -67 -74q-121 -84 -223 -84q-88 0 -143.5 57.5t-55.5 151.5q0 176 140.5 336.5t291.5 160.5q66 0 106 -35.5t40 -95.5q0 -131 -143.5 -247.5t-330.5 -133.5zM130 299v-27q164 17 274.5 104
t110.5 204q0 49 -26.5 77.5t-73.5 28.5q-96 0 -190.5 -127t-94.5 -260zM382 1028q17 0 25 -22q20 -82 80 -115q20 -12 20 -23q0 -18 -22 -18q-47 0 -95 31q-30 18 -52.5 42.5t-22.5 41.5q0 14 25.5 38.5t41.5 24.5z" />
    <glyph glyph-name="eacute" unicode="&#xe9;" horiz-adv-x="608" 
d="M132 231q23 -120 144 -120q98 0 186 82q23 20 37 20q18 0 18 -18q0 -27 -67 -74q-121 -84 -223 -84q-88 0 -143.5 57.5t-55.5 151.5q0 176 140.5 336.5t291.5 160.5q66 0 106 -35.5t40 -95.5q0 -131 -143.5 -247.5t-330.5 -133.5zM130 299v-27q164 17 274.5 104
t110.5 204q0 49 -26.5 77.5t-73.5 28.5q-96 0 -190.5 -127t-94.5 -260zM563 1028q16 0 49 -33q18 -18 18 -30q0 -15 -23.5 -41.5t-52.5 -42.5q-47 -31 -94 -31q-22 0 -22 18q0 11 20 23q64 35 80 115q6 22 25 22z" />
    <glyph glyph-name="ecircumflex" unicode="&#xea;" horiz-adv-x="608" 
d="M132 231q23 -120 144 -120q98 0 186 82q23 20 37 20q18 0 18 -18q0 -27 -67 -74q-121 -84 -223 -84q-88 0 -143.5 57.5t-55.5 151.5q0 176 140.5 336.5t291.5 160.5q66 0 106 -35.5t40 -95.5q0 -131 -143.5 -247.5t-330.5 -133.5zM130 299v-27q164 17 274.5 104
t110.5 204q0 49 -26.5 77.5t-73.5 28.5q-96 0 -190.5 -127t-94.5 -260zM575 997l92 -104q8 -10 12 -16.5t6 -12.5q0 -10 -34 -10h-35q-31 0 -53 25l-33 36q-17 21 -29 21q-20 -4 -39 -12l-108 -47l-39 -15q-6 0 -10.5 4t-4.5 6q0 13 37 37l144 99q30 22 47 22q10 0 18 -5
t29 -28z" />
    <glyph glyph-name="igrave" unicode="&#xec;" horiz-adv-x="391" 
d="M328 616l-158 -421l-14 -54q0 -14 12 -14q10 0 31 12l32 15q21 0 21 -21q0 -16 -70.5 -57t-103.5 -41t-33 31q0 4 8 27.5t15 43.5l137 402l10 28l8 31q0 16 -16 16q-12 -4 -21.5 -11t-25.5 -13q-2 0 -4 -2q-19 0 -19 18q0 10 22.5 29.5t71.5 48.5q66 43 93 43
q30 0 30 -25q0 -8 -1 -14t-25 -72zM272 1028q17 0 25 -22q20 -82 80 -115q20 -12 20 -23q0 -18 -22 -18q-47 0 -94 31q-31 18 -53.5 42.5t-22.5 41.5q0 14 25.5 38.5t41.5 24.5z" />
    <glyph glyph-name="iacute" unicode="&#xed;" horiz-adv-x="391" 
d="M328 616l-158 -421l-14 -54q0 -14 12 -14q10 0 31 12l32 15q21 0 21 -21q0 -16 -70.5 -57t-103.5 -41t-33 31q0 4 8 27.5t15 43.5l137 402l10 28l8 31q0 16 -16 16q-12 -4 -21.5 -11t-25.5 -13q-2 0 -4 -2q-19 0 -19 18q0 10 22.5 29.5t71.5 48.5q66 43 93 43
q30 0 30 -25q0 -8 -1 -14t-25 -72zM426 1028q16 0 49 -33q19 -18 19 -30q0 -15 -24 -41.5t-52 -42.5q-47 -31 -94 -31q-23 0 -23 18q0 11 20 23q64 35 80 115q6 22 25 22z" />
    <glyph glyph-name="ograve" unicode="&#xf2;" horiz-adv-x="716" 
d="M450 745q104 0 166.5 -66.5t62.5 -176.5q0 -164 -139 -315.5t-291 -151.5q-92 0 -153.5 65.5t-61.5 167.5q0 172 132 324.5t284 152.5zM417 690q-104 0 -191.5 -124t-87.5 -271q0 -88 44.5 -144.5t111.5 -56.5q100 0 189.5 126t89.5 267q0 95 -42 149t-114 54zM437 1028
q17 0 25 -22q21 -82 80 -115q20 -12 20 -23q0 -18 -22 -18q-47 0 -94 31q-31 18 -53.5 42.5t-22.5 41.5q0 14 25.5 38.5t41.5 24.5z" />
    <glyph glyph-name="oacute" unicode="&#xf3;" horiz-adv-x="716" 
d="M450 745q104 0 166.5 -66.5t62.5 -176.5q0 -164 -139 -315.5t-291 -151.5q-92 0 -153.5 65.5t-61.5 167.5q0 172 132 324.5t284 152.5zM417 690q-104 0 -191.5 -124t-87.5 -271q0 -88 44.5 -144.5t111.5 -56.5q100 0 189.5 126t89.5 267q0 95 -42 149t-114 54zM591 1028
q16 0 49 -33q19 -18 19 -30q0 -15 -23.5 -41.5t-52.5 -42.5q-47 -31 -94 -31q-23 0 -23 18q0 11 21 23q63 35 79 115q7 22 25 22z" />
    <glyph glyph-name="ocircumflex" unicode="&#xf4;" horiz-adv-x="716" 
d="M450 745q104 0 166.5 -66.5t62.5 -176.5q0 -164 -139 -315.5t-291 -151.5q-92 0 -153.5 65.5t-61.5 167.5q0 172 132 324.5t284 152.5zM417 690q-104 0 -191.5 -124t-87.5 -271q0 -88 44.5 -144.5t111.5 -56.5q100 0 189.5 126t89.5 267q0 95 -42 149t-114 54zM616 997
l92 -104q8 -10 12 -16.5t6 -12.5q0 -10 -35 -10h-34q-31 0 -54 25l-32 36q-17 21 -29 21q-21 -4 -39 -12l-109 -47l-38 -15q-7 0 -11 4t-4 6q0 13 37 37l143 99q31 22 48 22q10 0 18 -5t29 -28z" />
    <glyph glyph-name="otilde" unicode="&#xf5;" horiz-adv-x="716" 
d="M450 745q104 0 166.5 -66.5t62.5 -176.5q0 -164 -139 -315.5t-291 -151.5q-92 0 -153.5 65.5t-61.5 167.5q0 172 132 324.5t284 152.5zM417 690q-104 0 -191.5 -124t-87.5 -271q0 -88 44.5 -144.5t111.5 -56.5q100 0 189.5 126t89.5 267q0 95 -42 149t-114 54zM435 926
q-30 0 -65 -29q-14 -10 -27 -16q-2 0 -4 -2l-12 12q0 12 31 47q63 68 108 68q25 0 62 -13l81 -26l35 -6q19 0 29 6t37 30q10 11 20 11q15 0 15 -15q0 -12 -39 -53q-31 -35 -49.5 -47t-42.5 -12q-23 0 -37.5 4t-79.5 26q-43 15 -62 15z" />
    <glyph glyph-name="divide" unicode="&#xf7;" horiz-adv-x="1706" 
 />
    <glyph glyph-name="glyph216" unicode="&#xf9;" horiz-adv-x="712" 
d="M704 735l-187 -528l-6 -23l-10 -37l12 -12q15 0 43 21q8 6 14.5 8t10.5 4q18 0 18 -16q0 -13 -59 -50q-105 -61 -139 -61q-25 0 -25 25q0 8 5 23t7 22l4 10l19 47q-90 -59 -171 -94t-128 -35q-33 0 -55.5 20.5t-22.5 49.5q0 22 4 36q16 41 33 88l119 318l16 53
q0 17 -14 17q-8 0 -49 -25l-25 -10q-14 0 -14 18q0 14 7 20.5t62 39.5q107 61 142 61q24 0 24 -29q0 -8 -2 -14q-10 -25 -18 -47l-15 -39l-127 -311q-43 -103 -43 -135q0 -46 45 -46q35 0 110 37t124 78q14 12 28.5 40t36.5 91l134 352zM435 1028q17 0 25 -22
q20 -82 80 -115q20 -12 20 -23q0 -18 -22 -18q-47 0 -94 31q-31 18 -53.5 42.5t-22.5 41.5q0 14 25.5 38.5t41.5 24.5z" />
    <glyph glyph-name="glyph217" unicode="&#xfa;" horiz-adv-x="712" 
d="M704 735l-187 -528l-6 -23l-10 -37l12 -12q15 0 43 21q8 6 14.5 8t10.5 4q18 0 18 -16q0 -13 -59 -50q-105 -61 -139 -61q-25 0 -25 25q0 8 5 23t7 22l4 10l19 47q-90 -59 -171 -94t-128 -35q-33 0 -55.5 20.5t-22.5 49.5q0 22 4 36q16 41 33 88l119 318l16 53
q0 17 -14 17q-8 0 -49 -25l-25 -10q-14 0 -14 18q0 14 7 20.5t62 39.5q107 61 142 61q24 0 24 -29q0 -8 -2 -14q-10 -25 -18 -47l-15 -39l-127 -311q-43 -103 -43 -135q0 -46 45 -46q35 0 110 37t124 78q14 12 28.5 40t36.5 91l134 352zM587 1028q16 0 49 -33q19 -18 19 -30
q0 -15 -24 -41.5t-52 -42.5q-47 -31 -94 -31q-23 0 -23 18q0 11 21 23q63 35 79 115q7 22 25 22z" />
    <glyph glyph-name="glyph234" unicode="&#xfd;" horiz-adv-x="710" 
d="M723 739l-155 -428l-21 -53q-37 -90 -37 -141v-31l2 -47l2 -43q0 -143 -110.5 -243.5t-268.5 -100.5q-98 0 -186 47t-88 100q0 19 14.5 33t30.5 14q14 0 24.5 -7t32.5 -36q35 -47 90.5 -75.5t114.5 -28.5q105 0 180.5 73.5t75.5 178.5q0 88 -18 168
q-113 -49 -177.5 -67.5t-113.5 -18.5q-84 0 -84 63q0 25 37 127l119 338l16 55q0 15 -14 15q-13 0 -32.5 -12.5t-28.5 -16.5t-15 -6q-14 0 -14 14q0 11 18 23t86 49q49 29 68.5 37t35.5 8q13 0 21 -6t8 -16q0 -7 -6 -21q-16 -41 -23 -57l-131 -353q-43 -118 -43 -141
q0 -41 58 -41q32 0 97 22.5t91.5 43t40.5 45t53 119.5l152 374zM587 1028q17 0 49 -33q19 -18 19 -30q0 -15 -23.5 -41.5t-52.5 -42.5q-47 -31 -94 -31q-23 0 -23 18q0 11 21 23q63 35 80 115q6 22 24 22z" />
    <glyph glyph-name="Abreve" unicode="&#x102;" horiz-adv-x="2115" 
d="M1735 201l96 243q-78 -28 -227 -45l-101 -10l-149 -10q-197 -369 -484 -506q80 -82 203 -82q146 0 244 88q10 10 16 12.5t8 4.5q17 0 17 -17q0 -16 -47 -49q-121 -84 -250 -84q-154 0 -246 104q-70 -22 -109.5 -30t-89.5 -8q-125 0 -240.5 62.5t-115.5 131.5
q-2 17 10.5 28t30.5 11q23 0 47 -35q60 -84 128.5 -123t158.5 -39q37 0 70.5 7.5t84.5 27.5q-10 23 -12 27q-8 16 -22 65q-76 -30 -142 -30q-61 0 -109 26.5t-48 61.5q0 30 30 30q19 0 47 -28q52 -51 117 -51q47 0 101 26l-2 37q0 121 88 215t251 146q5 6 16 23.5t25 43.5
q93 178 207 424q86 188 147.5 276.5t188.5 208.5q-188 78 -407 78q-56 0 -117 -10q127 -145 127 -334q0 -235 -180.5 -434t-393.5 -199q-133 0 -223 96.5t-90 237.5q0 135 75 267.5t204 224.5q69 49 149 88t186 71q-122 89 -268 89q-147 0 -263 -95.5t-116 -216.5
q0 -26 8.5 -43.5t34.5 -42.5q-20 -18 -39 -18q-30 0 -46.5 22.5t-16.5 63.5q0 143 145.5 260t325.5 117q203 0 340 -109q127 27 252 27q227 0 389 -76q151 113 348 113q92 0 178 -41t86 -86q0 -35 -35 -35q-14 0 -24 8t-25 25q-80 86 -219 86q-135 0 -268 -88q33 -19 65 -37
q5 -2 37 -27q56 27 103 39t90 12q67 0 120.5 -24.5t53.5 -57.5q0 -37 -37 -37q-16 0 -37 19q-65 55 -137 55q-59 0 -121 -35q154 -141 154 -342q0 -143 -49 -295l-48 -137q39 17 73 39.5t75 59.5q6 6 11 8t9 4q13 -10 13 -15q0 -10 -20.5 -34.5t-55.5 -55.5
q-51 -43 -133 -84l-10 -22l-9 -23l-10 -22q-24 -51 -31 -68l-32 -82l-27 -65q-14 -33 -14 -51q0 -29 24 -29q27 0 66 29q22 16 28.5 20t12.5 4q16 0 16 -16q0 -21 -57 -62q-86 -67 -148 -67q-63 0 -63 57q0 16 7 40t26 73zM1491 676l-33 -74l-70 -151l164 10q99 0 165.5 12
t137.5 39q72 184 100.5 289.5t28.5 185.5q0 174 -143 295q-59 -45 -100 -96t-84 -131q-17 -35 -51.5 -113t-53.5 -121l-30 -71zM1317 723l-35 -78q-20 -47 -48 -101.5t-56 -101.5l-11 -16l72 10l51 8l84 181q152 338 233 467t199 219q-12 10 -38.5 27.5t-57.5 31.5
q-100 -80 -195 -237q-57 -101 -129 -256l-34 -78zM1253 371h-14l-76 -6l-39 -7q-143 -243 -325 -362q12 -47 43 -90q88 41 146 91t128 148q29 41 69 104.5t68 121.5zM1055 342q-121 -31 -195 -106.5t-74 -165.5l4 -37q64 39 136.5 124t128.5 185zM1049 1432
q-246 -41 -413 -202t-167 -356q0 -135 82 -223t205 -88q184 0 320 152.5t136 359.5q0 105 -57 217q-35 66 -78 113zM1849 1831q2 -2 9 -5t21 -20q46 -53 146 -53q108 0 192 64l19 10l8 -8q0 -19 -49 -68q-82 -82 -182 -82q-72 0 -124.5 42t-52.5 101q0 19 13 19z" />
    <glyph glyph-name="abreve" unicode="&#x103;" horiz-adv-x="731" 
d="M438 111l10 43q-153 -115 -284 -115q-72 0 -115 41t-43 113q0 81 43 150t150 151q0 114 75.5 184t196.5 70q98 0 156.5 -48.5t58.5 -126.5q0 -30 -7 -61t-26 -80l-94 -246l-8 -20l-6 -25q0 -12 14 -12l14 4l33 10q18 0 18 -14q0 -23 -53 -51q-76 -41 -112 -41
q-31 0 -31 31q0 12 10 43zM299 575v-20q84 43 162 43q65 0 133 -47l6 43q0 49 -39 82t-96 33q-62 0 -114 -42t-52 -92zM444 557q-112 0 -220.5 -110.5t-108.5 -225.5q0 -49 34.5 -82t89.5 -33q111 0 214.5 110t103.5 239q0 47 -29.5 74.5t-83.5 27.5zM422 1028q2 -2 9 -5
t21 -20q46 -53 146 -53q108 0 192 64l19 10l8 -8q0 -19 -49 -68q-82 -82 -182 -82q-72 0 -124.5 42t-52.5 101q0 19 13 19z" />
    <glyph glyph-name="Ccaron" unicode="&#x10c;" horiz-adv-x="1274" 
 />
    <glyph glyph-name="ccaron" unicode="&#x10d;" horiz-adv-x="922" 
 />
    <glyph glyph-name="Dslash" unicode="&#x110;" horiz-adv-x="1906" 
d="M1885 952q15 -82 15 -164q0 -321 -230 -555q-116 -120 -263.5 -190t-289.5 -70q-75 0 -137.5 20.5t-228.5 98.5q-160 -102 -307 -102q-101 0 -191 45t-90 96q0 39 41 39q20 0 47 -29q55 -59 105.5 -83.5t115.5 -24.5q111 0 221 86q-55 26 -83.5 34.5t-65.5 8.5t-37 18
q0 17 43 31q55 20 112.5 74.5t98.5 130.5l-66 -4q-219 0 -354 122.5t-135 323.5q0 166 110.5 323.5t288.5 250.5q193 98 426 98q136 0 244 -29q102 76 190.5 108.5t186.5 32.5q170 0 280.5 -102t110.5 -260q0 -186 -158 -328zM1404 645h-293q-61 -164 -119.5 -268.5
t-146.5 -202.5q137 -76 218 -104.5t157 -28.5q112 0 231 70.5t207 189.5q143 193 143 436q0 62 -16 144q-74 -43 -131 -43q-29 0 -29 16q0 12 33 16t55.5 13.5t61.5 36.5q-109 356 -529 495q-106 -117 -172 -285l-75 -217l-23 -63l-20 -64l-21 -61l-4 -10l-2 -8l-4 -9h106
l9 25l16 51l53 158q21 59 31 98q4 14 4 21q0 14 -14 32l-2 7q0 12 27.5 33.5t85 54t108.5 55t69 22.5q19 0 19 -12q0 -14 -19 -22q-55 -33 -83.5 -59.5t-57.5 -74.5q-10 -18 -35.5 -80.5t-42.5 -105.5l-18 -51l-17 -51l-16 -49l-18 -52h282q31 0 40 -5t9 -21q0 -27 -57 -27z
M1013 645h-105l-10 -29q-14 -41 -21 -59t-38 -82q35 0 60.5 6t62.5 19zM872 698l4 7l8 26l22 72q97 301 145 406.5t148 217.5q-110 33 -245 33q-275 0 -465.5 -159.5t-190.5 -391.5q0 -198 123 -319t328 -121h41q6 12 21.5 50t43.5 126h-147q-29 0 -44.5 3t-15.5 24
q0 26 56 26h168zM945 455q-26 -11 -55 -18t-78 -15q-37 -53 -68.5 -93t-82.5 -89q37 -4 44 -7.5t64 -25.5l19 -6q104 118 157 254zM1326 1489q228 -86 350.5 -196.5t194.5 -297.5q98 101 98 240q0 154 -105.5 257t-262.5 103q-146 0 -275 -106z" />
    <glyph glyph-name="dcroat" unicode="&#x111;" horiz-adv-x="706" 
d="M432 676q-110 0 -214.5 -140.5t-104.5 -291.5q0 -56 31.5 -91.5t78.5 -35.5q109 0 205 129q49 67 84 154t35 149q0 57 -31 92t-84 35zM801 930l-266 -719l-17 -51q0 -17 14 -17q17 0 22 3.5t54 37.5l15 6q20 0 20 -18q0 -8 -19.5 -26.5t-60.5 -47.5q-96 -63 -137 -63
q-27 0 -27 22v13q7 18 17 49l22 67q-145 -145 -278 -145q-68 0 -109 47t-41 125q0 88 60.5 202.5t150.5 198.5q66 62 131.5 94.5t124.5 32.5q47 0 76 -17t57 -67l109 300q-21 6 -32 6q-28 0 -60 -26q-13 -10 -24 -15q-2 0 -4 -2l-11 11q0 11 28 43q58 62 99 62q13 0 31 -4
l36 101l4 10l11 26l6 25q0 12 -15 12q-12 0 -34 -12l-45 -18q-15 0 -15 14q0 27 123 84q68 33 86 33q25 0 25 -27q0 -10 -2 -16q-11 -25 -21 -54l-75 -204l16 -5l32 -6q17 0 26.5 5.5t33.5 28.5q10 9 19 9q13 0 13 -13q0 -11 -35 -49q-29 -32 -45.5 -43t-39.5 -11
q-20 0 -33 4q-5 1 -16 4z" />
    <glyph glyph-name="Itilde" unicode="&#x128;" horiz-adv-x="1640" 
d="M1407 754l104 286q29 80 44.5 95.5t111.5 66.5q-166 135 -372 217t-380 82q-243 0 -407 -139t-164 -346q0 -137 96 -235.5t232 -98.5q86 0 190 51l12 2q4 0 13 -10q0 -2 2 -4q0 -14 -49 -37q-105 -45 -222 -45q-164 0 -263 99.5t-99 262.5q0 230 215 389.5t522 159.5
q219 0 437 -84t374 -229q-80 -27 -118 -90.5t-162 -370.5l-11 -26l43 -2q101 0 174 98q9 12 14 14t7 4q4 0 12 -10q0 -2 2 -4q0 -23 -28.5 -57.5t-70.5 -62.5t-82 -42t-85 -14h-14l-35 -88q-80 -203 -161 -325t-196 -214q-208 -166 -454 -166q-99 0 -191 26.5t-166 76.5
q-104 69 -104 125q0 20 13.5 33.5t33.5 13.5q23 0 38 -13.5t63.5 -80t135.5 -103.5t191 -37q215 0 393.5 167t290.5 478l39 109l-55 4h-45q-72 -266 -259.5 -447.5t-389.5 -181.5q-78 0 -151 37t-73 78q0 33 35 33q19 0 35 -23q43 -53 78 -71.5t90 -18.5q174 0 338 168
t233 420q-135 0 -205 -113q-22 -37 -30 -37q-4 0 -9.5 6.5t-5.5 8.5q0 10 17 41q8 14 20 32q41 60 92.5 91.5t133.5 48.5q4 32 8 74t4 87q0 172 -102.5 289t-254.5 117q-110 0 -192 -84t-82 -199q0 -82 42 -136t103 -54h15l18 2q15 0 15 -12q2 -11 -20.5 -19t-59.5 -8
q-78 0 -131.5 59.5t-53.5 147.5q0 139 115 239.5t274 100.5q168 0 279 -121t111 -305q0 -66 -19 -170h17zM1528 1698l16 -4l66 -22l35 -6q18 0 28.5 6t36.5 31q10 10 21 10q14 0 14 -15q0 -12 -39 -53q-31 -35 -49.5 -47t-42.5 -12q-23 0 -37 4t-80 27q-43 14 -61 14
q-31 0 -66 -29q-14 -10 -26 -16q-2 0 -5 -2l-12 12q0 12 31 47q63 68 108 68q11 0 27 -4t35 -9z" />
    <glyph glyph-name="itilde" unicode="&#x129;" horiz-adv-x="364" 
d="M315 616l-158 -421l-14 -54q0 -14 12 -14q10 0 31 12l32 15q21 0 21 -21q0 -16 -70.5 -57t-103.5 -41t-33 31q0 4 8 27.5t15 43.5l137 402l10 28l8 31q0 16 -16 16q-12 -4 -21.5 -11t-25.5 -13q-2 0 -4 -2q-19 0 -19 18q0 10 22.5 29.5t71.5 48.5q66 43 93 43
q30 0 30 -25q0 -8 -1 -14t-25 -72zM283 897q-31 0 -66 -29q-14 -10 -26 -16q-2 0 -4 -2l-13 12q0 12 31 47q64 68 109 68q24 0 61 -13l82 -26l35 -6q18 0 28.5 6t36.5 30q11 11 21 11q14 0 14 -15q0 -12 -39 -53q-30 -35 -48.5 -47t-43.5 -12q-22 0 -36.5 4t-80.5 26
q-43 15 -61 15z" />
    <glyph glyph-name="Utilde" unicode="&#x168;" horiz-adv-x="2050" 
d="M2109 1239l-375 -1010l-6 -16q-15 -39 -15 -49q0 -27 29 -27t64 29q20 18 30 18q17 0 17 -18q0 -4 -9.5 -15.5t-29.5 -29.5q-99 -90 -162 -90q-64 0 -64 65l7 43q-115 -65 -174.5 -86.5t-124.5 -21.5q-101 0 -165.5 62.5t-64.5 156.5q0 82 60 244l34 92q-75 -23 -147 -33
t-145 -10q-275 0 -449 131t-174 340q0 229 209 391t506 162q180 0 348 -61.5t303 -176.5l-43 -24q-31 -19 -49.5 -48.5t-44.5 -101.5q182 -217 182 -502q0 -202 -86 -345.5t-209 -143.5q-45 0 -78.5 21.5t-33.5 50.5q0 28 30 28q4 0 9.5 -1t33 -28.5t68.5 -27.5
q94 0 160.5 128t66.5 306q0 246 -170 442l-145 -393q65 35 106 72q13 10 19 13t8 5q14 0 14 -14q2 -12 -12 -24.5t-33 -24.5q-37 -25 -72 -49q-10 -6 -49 -29l-90 -240q-16 -41 -24.5 -83t-8.5 -68q0 -74 49.5 -123t125.5 -49q65 0 141 41t131 108q14 19 33.5 58t42.5 100
l305 829q18 50 18 72q0 23 -24 23q-15 0 -15 14q0 12 25 23.5t55 29.5q39 25 133 88q72 47 90 47q7 0 11 -5t6 -7q0 -8 -23 -24q-90 -60 -155 -234zM1179 633l192 524q-114 100 -213.5 143t-214.5 43q-161 0 -273 -91t-112 -224q0 -127 103.5 -208t267.5 -81q18 0 18 -10
q0 -24 -90 -24q-153 0 -258.5 93t-105.5 226q0 152 133 252t336 100q219 0 432 -149l51 35l49 28q-252 221 -585 221q-252 0 -414 -131t-162 -333q0 -203 164 -330t424 -127q78 0 127 8t131 35zM1899 1764l16 -4l65 -22l35 -6q19 0 29 6t37 31q10 10 20 10q15 0 15 -15
q0 -12 -39 -53q-31 -35 -49.5 -47t-42.5 -12q-23 0 -37.5 4t-79.5 27q-43 14 -62 14q-30 0 -65 -29q-14 -10 -27 -16q-2 0 -4 -2l-12 12q0 12 31 47q63 68 108 68q10 0 26.5 -4t35.5 -9z" />
    <glyph glyph-name="utilde" unicode="&#x169;" horiz-adv-x="712" 
d="M704 735l-187 -528l-6 -23l-10 -37l12 -12q15 0 43 21q8 6 14.5 8t10.5 4q18 0 18 -16q0 -13 -59 -50q-105 -61 -139 -61q-25 0 -25 25q0 8 5 23t7 22l4 10l19 47q-90 -59 -171 -94t-128 -35q-33 0 -55.5 20.5t-22.5 49.5q0 22 4 36q16 41 33 88l119 318l16 53
q0 17 -14 17q-8 0 -49 -25l-25 -10q-14 0 -14 18q0 14 7 20.5t62 39.5q107 61 142 61q24 0 24 -29q0 -8 -2 -14q-10 -25 -18 -47l-15 -39l-127 -311q-43 -103 -43 -135q0 -46 45 -46q35 0 110 37t124 78q14 12 28.5 40t36.5 91l134 352zM453 897q-31 0 -66 -29
q-14 -10 -26 -16q-2 0 -4 -2l-13 12q0 12 31 47q64 68 109 68q24 0 61 -13l82 -26l35 -6q18 0 28.5 6t36.5 30q11 11 21 11q14 0 14 -15q0 -12 -39 -53q-30 -35 -48.5 -47t-43.5 -12q-22 0 -36.5 4t-80.5 26q-43 15 -61 15z" />
    <glyph glyph-name="Ohorn" unicode="&#x1a0;" 
d="M873 918l19 -222q4 -28 4 -67v-78q0 -164 -30.5 -277.5t-104.5 -218.5q74 -16 129 -16q158 0 307.5 86t257 240.5t171 351t63.5 381.5q0 221 -132.5 371.5t-326.5 150.5q-232 0 -387.5 -194.5t-155.5 -485.5q0 -84 12 -186l9 -70l10 -70l8 -69q10 -82 10 -154
q0 -108 -24.5 -159.5t-104.5 -106.5q60 -37 119 -57q66 90 92.5 182t26.5 229q0 27 -4 91.5t-4 66.5l-9 102l-6 52q-4 38 -7 83.5t-3 79.5q0 211 78 336q49 82 144 135.5t194 53.5q151 0 255.5 -111t104.5 -272q0 -162 -116.5 -289t-266.5 -127q-92 0 -92 51q0 37 41 37
q14 0 58 -11.5t75 -11.5q92 0 170 99.5t78 218.5q0 154 -100.5 256t-253.5 102q-144 0 -228 -102t-84 -283v-55t4 -63zM644 1180q-151 -54 -235 -189t-84 -323q0 -162 66.5 -299.5t185.5 -223.5q59 35 82.5 75t23.5 110q0 45 -18 155l-37 174q-27 134 -27 256q0 127 43 265z
M1710 1405q89 -148 89 -352q0 -404 -309 -742t-680 -338q-53 0 -115 11q-84 -68 -174 -101t-196 -33q-99 0 -178.5 35t-79.5 80q0 37 36 37q17 0 23 -4q31 -23 61 -45q84 -64 189 -64q151 0 278 105q-202 72 -310.5 221.5t-108.5 357.5q0 218 120.5 405t317.5 275
q217 408 588 408q235 0 387 -171q20 -23 37 -47q66 18 84 69q8 24 -3 39t-15 31q4 11 33 18l37 9q47 16 60 12q42 -15 22 -74q-26 -76 -123 -117q-41 -18 -70 -25z" />
    <glyph glyph-name="ohorn" unicode="&#x1a1;" horiz-adv-x="716" 
d="M417 690q-105 0 -192 -124t-87 -271q0 -88 44 -144.5t112 -56.5q100 0 189 126t89 267q0 95 -42 149t-113 54zM644 642q35 -58 35 -140q0 -164 -139.5 -315.5t-290.5 -151.5q-92 0 -153.5 65.5t-61.5 167.5q0 172 132 324.5t284 152.5q104 0 167 -66q4 -5 7 -9h2
q52 13 65 52q6 18 -2 29t-12 23q3 8 25 13l27 7q35 12 45 8q30 -10 16 -54q-19 -56 -91 -86q-33 -15 -55 -20z" />
    <glyph glyph-name="Uhorn" unicode="&#x1af;" horiz-adv-x="2050" 
d="M1179 633l192 524q-114 100 -213.5 143t-214.5 43q-161 0 -273 -91t-112 -224q0 -127 103.5 -208t267.5 -81q18 0 18 -10q0 -24 -90 -24q-153 0 -258.5 93t-105.5 226q0 152 133 252t336 100q219 0 432 -149l51 35l49 28q-252 221 -585 221q-252 0 -414 -131t-162 -333
q0 -203 164 -330t424 -127q78 0 127 8t131 35zM2197 1408q-48 -63 -88 -169l-375 -1010l-6 -16q-15 -39 -15 -49q0 -27 29 -27t64 29q20 18 30 18q17 0 17 -18q0 -4 -9.5 -15.5t-29.5 -29.5q-99 -90 -162 -90q-64 0 -64 65l7 43q-115 -65 -174.5 -86.5t-124.5 -21.5
q-101 0 -165.5 62.5t-64.5 156.5q0 82 60 244l34 92q-75 -23 -147 -33t-145 -10q-275 0 -449 131t-174 340q0 229 209 391t506 162q180 0 348 -61.5t303 -176.5l-43 -24q-31 -19 -49.5 -48.5t-44.5 -101.5q182 -217 182 -502q0 -202 -86 -345.5t-209 -143.5
q-45 0 -78.5 21.5t-33.5 50.5q0 28 30 28q4 0 9.5 -1t33 -28.5t68.5 -27.5q94 0 160.5 128t66.5 306q0 246 -170 442l-145 -393q65 35 106 72q13 10 19 13t8 5q14 0 14 -14q2 -12 -12 -24.5t-33 -24.5q-37 -25 -72 -49q-10 -6 -49 -29l-90 -240q-16 -41 -24.5 -83t-8.5 -68
q0 -74 49.5 -123t125.5 -49q65 0 141 41t131 108q14 19 33.5 58t42.5 100l305 829q18 50 18 72q0 23 -24 23q-15 0 -15 14q0 12 25 23.5t55 29.5q39 25 133 88q72 47 90 47q7 0 11 -5t6 -7q0 -8 -23 -24q-18 -12 -35 -29q63 19 79 68q8 24 -2.5 39t-15.5 31q4 11 33 18l38 9
q46 16 59 12q42 -15 22 -74q-26 -76 -122 -117q-84 -37 -114 -27q-6 2 -9 5z" />
    <glyph glyph-name="uhorn" unicode="&#x1b0;" horiz-adv-x="712" 
d="M671 640l-154 -433l-6 -23l-10 -37l12 -12q14 0 43 21q8 6 14.5 8t10.5 4q18 0 18 -16q0 -13 -59 -50q-105 -61 -140 -61q-24 0 -24 25q0 8 5 23t7 22l4 10l19 47q-90 -59 -171 -94t-128 -35q-33 0 -55.5 20.5t-22.5 49.5q0 22 4 36q16 41 33 88l118 318l17 53
q0 17 -14 17q-9 0 -50 -25l-24 -10q-15 0 -15 18q0 14 7.5 20.5t62.5 39.5q107 61 141 61q25 0 25 -29q0 -8 -2 -14q-10 -25 -19 -47l-14 -39l-127 -311q-43 -103 -43 -135q0 -46 45 -46q35 0 110 37t124 78q14 12 28.5 40t36.5 91l133 352l93 33l-20 -57q32 14 42 44
q6 18 -2 29t-12 23q3 8 25 13l27 7q35 12 45 8q30 -10 16 -54q-19 -56 -91 -86q-40 -18 -63 -22z" />
    <glyph glyph-name="uni1EA0" unicode="&#x1ea0;" horiz-adv-x="2115" 
d="M1735 201l96 243q-78 -28 -227 -45l-101 -10l-149 -10q-197 -369 -484 -506q80 -82 203 -82q146 0 244 88q10 10 16 12.5t8 4.5q17 0 17 -17q0 -16 -47 -49q-121 -84 -250 -84q-154 0 -246 104q-70 -22 -109.5 -30t-89.5 -8q-125 0 -240.5 62.5t-115.5 131.5
q-2 17 10.5 28t30.5 11q23 0 47 -35q60 -84 128.5 -123t158.5 -39q37 0 70.5 7.5t84.5 27.5q-10 23 -12 27q-8 16 -22 65q-76 -30 -142 -30q-61 0 -109 26.5t-48 61.5q0 30 30 30q19 0 47 -28q52 -51 117 -51q47 0 101 26l-2 37q0 121 88 215t251 146q5 6 16 23.5t25 43.5
q93 178 207 424q86 188 147.5 276.5t188.5 208.5q-188 78 -407 78q-56 0 -117 -10q127 -145 127 -334q0 -235 -180.5 -434t-393.5 -199q-133 0 -223 96.5t-90 237.5q0 135 75 267.5t204 224.5q69 49 149 88t186 71q-122 89 -268 89q-147 0 -263 -95.5t-116 -216.5
q0 -26 8.5 -43.5t34.5 -42.5q-20 -18 -39 -18q-30 0 -46.5 22.5t-16.5 63.5q0 143 145.5 260t325.5 117q203 0 340 -109q127 27 252 27q227 0 389 -76q151 113 348 113q92 0 178 -41t86 -86q0 -35 -35 -35q-14 0 -24 8t-25 25q-80 86 -219 86q-135 0 -268 -88q33 -19 65 -37
q5 -2 37 -27q56 27 103 39t90 12q67 0 120.5 -24.5t53.5 -57.5q0 -37 -37 -37q-16 0 -37 19q-65 55 -137 55q-59 0 -121 -35q154 -141 154 -342q0 -143 -49 -295l-48 -137q39 17 73 39.5t75 59.5q6 6 11 8t9 4q13 -10 13 -15q0 -10 -20.5 -34.5t-55.5 -55.5
q-51 -43 -133 -84l-10 -22l-9 -23l-10 -22q-24 -51 -31 -68l-32 -82l-27 -65q-14 -33 -14 -51q0 -29 24 -29q27 0 66 29q22 16 28.5 20t12.5 4q16 0 16 -16q0 -21 -57 -62q-86 -67 -148 -67q-63 0 -63 57q0 16 7 40t26 73zM1491 676l-33 -74l-70 -151l164 10q99 0 165.5 12
t137.5 39q72 184 100.5 289.5t28.5 185.5q0 174 -143 295q-59 -45 -100 -96t-84 -131q-17 -35 -51.5 -113t-53.5 -121l-30 -71zM1317 723l-35 -78q-20 -47 -48 -101.5t-56 -101.5l-11 -16l72 10l51 8l84 181q152 338 233 467t199 219q-12 10 -38.5 27.5t-57.5 31.5
q-100 -80 -195 -237q-57 -101 -129 -256l-34 -78zM1253 371h-14l-76 -6l-39 -7q-143 -243 -325 -362q12 -47 43 -90q88 41 146 91t128 148q29 41 69 104.5t68 121.5zM1055 342q-121 -31 -195 -106.5t-74 -165.5l4 -37q64 39 136.5 124t128.5 185zM1049 1432
q-246 -41 -413 -202t-167 -356q0 -135 82 -223t205 -88q184 0 320 152.5t136 359.5q0 105 -57 217q-35 66 -78 113zM1438 -210q6 -4 11 -9t20.5 -35t15.5 -36q0 -8 -5 -15t-29 -33t-38 -26q-12 0 -35 41q-12 23 -14 29t-2 12q0 11 9 20t32 27l8 9q10 8 17.5 11t9.5 5z" />
    <glyph glyph-name="uni1EA1" unicode="&#x1ea1;" horiz-adv-x="731" 
d="M438 111l10 43q-153 -115 -284 -115q-72 0 -115 41t-43 113q0 81 43 150t150 151q0 114 75.5 184t196.5 70q98 0 156.5 -48.5t58.5 -126.5q0 -30 -7 -61t-26 -80l-94 -246l-8 -20l-6 -25q0 -12 14 -12l14 4l33 10q18 0 18 -14q0 -23 -53 -51q-76 -41 -112 -41
q-31 0 -31 31q0 12 10 43zM299 575v-20q84 43 162 43q65 0 133 -47l6 43q0 49 -39 82t-96 33q-62 0 -114 -42t-52 -92zM444 557q-112 0 -220.5 -110.5t-108.5 -225.5q0 -49 34.5 -82t89.5 -33q111 0 214.5 110t103.5 239q0 47 -29.5 74.5t-83.5 27.5zM276 -40q6 -4 11 -9
t20.5 -35t15.5 -36q0 -8 -5 -15t-28.5 -33t-38.5 -26q-12 0 -35 41q-12 23 -14 29t-2 12q0 11 9 20t32 27l8 9q10 8 17.5 11t9.5 5z" />
    <glyph glyph-name="uni1EA2" unicode="&#x1ea2;" horiz-adv-x="2115" 
d="M1735 201l96 243q-78 -28 -227 -45l-101 -10l-149 -10q-197 -369 -484 -506q80 -82 203 -82q146 0 244 88q10 10 16 12.5t8 4.5q17 0 17 -17q0 -16 -47 -49q-121 -84 -250 -84q-154 0 -246 104q-70 -22 -109.5 -30t-89.5 -8q-125 0 -240.5 62.5t-115.5 131.5
q-2 17 10.5 28t30.5 11q23 0 47 -35q60 -84 128.5 -123t158.5 -39q37 0 70.5 7.5t84.5 27.5q-10 23 -12 27q-8 16 -22 65q-76 -30 -142 -30q-61 0 -109 26.5t-48 61.5q0 30 30 30q19 0 47 -28q52 -51 117 -51q47 0 101 26l-2 37q0 121 88 215t251 146q5 6 16 23.5t25 43.5
q93 178 207 424q86 188 147.5 276.5t188.5 208.5q-188 78 -407 78q-56 0 -117 -10q127 -145 127 -334q0 -235 -180.5 -434t-393.5 -199q-133 0 -223 96.5t-90 237.5q0 135 75 267.5t204 224.5q69 49 149 88t186 71q-122 89 -268 89q-147 0 -263 -95.5t-116 -216.5
q0 -26 8.5 -43.5t34.5 -42.5q-20 -18 -39 -18q-30 0 -46.5 22.5t-16.5 63.5q0 143 145.5 260t325.5 117q203 0 340 -109q127 27 252 27q227 0 389 -76q151 113 348 113q92 0 178 -41t86 -86q0 -35 -35 -35q-14 0 -24 8t-25 25q-80 86 -219 86q-135 0 -268 -88q33 -19 65 -37
q5 -2 37 -27q56 27 103 39t90 12q67 0 120.5 -24.5t53.5 -57.5q0 -37 -37 -37q-16 0 -37 19q-65 55 -137 55q-59 0 -121 -35q154 -141 154 -342q0 -143 -49 -295l-48 -137q39 17 73 39.5t75 59.5q6 6 11 8t9 4q13 -10 13 -15q0 -10 -20.5 -34.5t-55.5 -55.5
q-51 -43 -133 -84l-10 -22l-9 -23l-10 -22q-24 -51 -31 -68l-32 -82l-27 -65q-14 -33 -14 -51q0 -29 24 -29q27 0 66 29q22 16 28.5 20t12.5 4q16 0 16 -16q0 -21 -57 -62q-86 -67 -148 -67q-63 0 -63 57q0 16 7 40t26 73zM1491 676l-33 -74l-70 -151l164 10q99 0 165.5 12
t137.5 39q72 184 100.5 289.5t28.5 185.5q0 174 -143 295q-59 -45 -100 -96t-84 -131q-17 -35 -51.5 -113t-53.5 -121l-30 -71zM1317 723l-35 -78q-20 -47 -48 -101.5t-56 -101.5l-11 -16l72 10l51 8l84 181q152 338 233 467t199 219q-12 10 -38.5 27.5t-57.5 31.5
q-100 -80 -195 -237q-57 -101 -129 -256l-34 -78zM1253 371h-14l-76 -6l-39 -7q-143 -243 -325 -362q12 -47 43 -90q88 41 146 91t128 148q29 41 69 104.5t68 121.5zM1055 342q-121 -31 -195 -106.5t-74 -165.5l4 -37q64 39 136.5 124t128.5 185zM1049 1432
q-246 -41 -413 -202t-167 -356q0 -135 82 -223t205 -88q184 0 320 152.5t136 359.5q0 105 -57 217q-35 66 -78 113zM2031 1658q24 -2 22 -12q-1 -5 -32 -16l-17 -6q-14 -4 -23 -6t-19 -2q-7 1 -14 6q-9 5 -21.5 19t-14.5 16t-1 4q1 7 25 14q75 22 133 63.5t67 80.5
q6 27 -10 44.5t-45 19.5q-39 4 -84.5 -19t-52.5 -53q-2 -8 0 -23l1 -9q-3 -10 -26 -8q-20 1 -25 14.5t-2 29.5q9 38 80 71.5t139 27.5q57 -5 85.5 -30t20.5 -60q-8 -38 -67.5 -82t-145.5 -75q-11 -3 -12 -7q-1 -3 4 -9v0q2 0 1.5 -0.5t20.5 5.5z" />
    <glyph glyph-name="uni1EA3" unicode="&#x1ea3;" horiz-adv-x="731" 
d="M438 111l10 43q-153 -115 -284 -115q-72 0 -115 41t-43 113q0 81 43 150t150 151q0 114 75.5 184t196.5 70q98 0 156.5 -48.5t58.5 -126.5q0 -30 -7 -61t-26 -80l-94 -246l-8 -20l-6 -25q0 -12 14 -12l14 4l33 10q18 0 18 -14q0 -23 -53 -51q-76 -41 -112 -41
q-31 0 -31 31q0 12 10 43zM299 575v-20q84 43 162 43q65 0 133 -47l6 43q0 49 -39 82t-96 33q-62 0 -114 -42t-52 -92zM444 557q-112 0 -220.5 -110.5t-108.5 -225.5q0 -49 34.5 -82t89.5 -33q111 0 214.5 110t103.5 239q0 47 -29.5 74.5t-83.5 27.5zM577 857q24 -2 22 -12
q-2 -5 -32 -16l-17 -6q-14 -4 -23 -6t-19 -2q-7 1 -15 6t-20.5 19t-14.5 16t-1 4q1 7 25 14q75 22 133 63.5t67 80.5q6 27 -10.5 44.5t-44.5 19.5q-39 4 -84.5 -19t-52.5 -53q-2 -8 0 -23v-9q-2 -10 -25 -8q-20 1 -25 14.5t-2 29.5q9 38 80 71.5t139 27.5q57 -5 85.5 -30
t20.5 -60q-8 -38 -67.5 -82t-145.5 -75q-12 -3 -12 -7q-1 -3 4 -9v0q2 0 1.5 -0.5t19.5 5.5z" />
    <glyph glyph-name="uni1EA4" unicode="&#x1ea4;" horiz-adv-x="2115" 
d="M1735 201l96 243q-78 -28 -227 -45l-101 -10l-149 -10q-197 -369 -484 -506q80 -82 203 -82q146 0 244 88q10 10 16 12.5t8 4.5q17 0 17 -17q0 -16 -47 -49q-121 -84 -250 -84q-154 0 -246 104q-70 -22 -109.5 -30t-89.5 -8q-125 0 -240.5 62.5t-115.5 131.5
q-2 17 10.5 28t30.5 11q23 0 47 -35q60 -84 128.5 -123t158.5 -39q37 0 70.5 7.5t84.5 27.5q-10 23 -12 27q-8 16 -22 65q-76 -30 -142 -30q-61 0 -109 26.5t-48 61.5q0 30 30 30q19 0 47 -28q52 -51 117 -51q47 0 101 26l-2 37q0 121 88 215t251 146q5 6 16 23.5t25 43.5
q93 178 207 424q86 188 147.5 276.5t188.5 208.5q-188 78 -407 78q-56 0 -117 -10q127 -145 127 -334q0 -235 -180.5 -434t-393.5 -199q-133 0 -223 96.5t-90 237.5q0 135 75 267.5t204 224.5q69 49 149 88t186 71q-122 89 -268 89q-147 0 -263 -95.5t-116 -216.5
q0 -26 8.5 -43.5t34.5 -42.5q-20 -18 -39 -18q-30 0 -46.5 22.5t-16.5 63.5q0 143 145.5 260t325.5 117q203 0 340 -109q127 27 252 27q227 0 389 -76q151 113 348 113q92 0 178 -41t86 -86q0 -35 -35 -35q-14 0 -24 8t-25 25q-80 86 -219 86q-135 0 -268 -88q33 -19 65 -37
q5 -2 37 -27q56 27 103 39t90 12q67 0 120.5 -24.5t53.5 -57.5q0 -37 -37 -37q-16 0 -37 19q-65 55 -137 55q-59 0 -121 -35q154 -141 154 -342q0 -143 -49 -295l-48 -137q39 17 73 39.5t75 59.5q6 6 11 8t9 4q13 -10 13 -15q0 -10 -20.5 -34.5t-55.5 -55.5
q-51 -43 -133 -84l-10 -22l-9 -23l-10 -22q-24 -51 -31 -68l-32 -82l-27 -65q-14 -33 -14 -51q0 -29 24 -29q27 0 66 29q22 16 28.5 20t12.5 4q16 0 16 -16q0 -21 -57 -62q-86 -67 -148 -67q-63 0 -63 57q0 16 7 40t26 73zM1491 676l-33 -74l-70 -151l164 10q99 0 165.5 12
t137.5 39q72 184 100.5 289.5t28.5 185.5q0 174 -143 295q-59 -45 -100 -96t-84 -131q-17 -35 -51.5 -113t-53.5 -121l-30 -71zM1317 723l-35 -78q-20 -47 -48 -101.5t-56 -101.5l-11 -16l72 10l51 8l84 181q152 338 233 467t199 219q-12 10 -38.5 27.5t-57.5 31.5
q-100 -80 -195 -237q-57 -101 -129 -256l-34 -78zM1253 371h-14l-76 -6l-39 -7q-143 -243 -325 -362q12 -47 43 -90q88 41 146 91t128 148q29 41 69 104.5t68 121.5zM1055 342q-121 -31 -195 -106.5t-74 -165.5l4 -37q64 39 136.5 124t128.5 185zM1049 1432
q-246 -41 -413 -202t-167 -356q0 -135 82 -223t205 -88q184 0 320 152.5t136 359.5q0 105 -57 217q-35 66 -78 113zM2326 1975q16 0 49 -33q18 -18 18 -30q0 -15 -23.5 -41.5t-51.5 -42.5q-48 -31 -95 -31q-22 0 -22 19q0 10 20 22q64 35 80 115q6 22 25 22zM2127 1824
l97 -111l20 -29q0 -12 -37 -12h-37q-34 0 -55 25l-33 41q-18 20 -35 20q-6 0 -38 -14l-113 -49l-43 -15q-6 0 -10 4.5t-4 6.5q0 12 39 39l149 104q23 16 31 20.5t20 4.5t19.5 -4.5t29.5 -30.5z" />
    <glyph glyph-name="uni1EA5" unicode="&#x1ea5;" horiz-adv-x="731" 
d="M438 111l10 43q-153 -115 -284 -115q-72 0 -115 41t-43 113q0 81 43 150t150 151q0 114 75.5 184t196.5 70q98 0 156.5 -48.5t58.5 -126.5q0 -30 -7 -61t-26 -80l-94 -246l-8 -20l-6 -25q0 -12 14 -12l14 4l33 10q18 0 18 -14q0 -23 -53 -51q-76 -41 -112 -41
q-31 0 -31 31q0 12 10 43zM299 575v-20q84 43 162 43q65 0 133 -47l6 43q0 49 -39 82t-96 33q-62 0 -114 -42t-52 -92zM444 557q-112 0 -220.5 -110.5t-108.5 -225.5q0 -49 34.5 -82t89.5 -33q111 0 214.5 110t103.5 239q0 47 -29.5 74.5t-83.5 27.5zM807 1164q16 0 49 -33
q19 -18 19 -30q0 -15 -24 -41.5t-52 -42.5q-47 -31 -94 -31q-23 0 -23 18q0 11 21 23q63 35 79 115q7 22 25 22zM631 997l92 -104q8 -10 12 -16.5t6 -12.5q0 -10 -35 -10h-34q-31 0 -54 25l-32 36q-17 21 -29 21q-21 -4 -39 -12l-109 -47l-38 -15q-7 0 -11 4t-4 6
q0 13 37 37l143 99q31 22 48 22q10 0 18 -5t29 -28z" />
    <glyph glyph-name="uni1EA6" unicode="&#x1ea6;" horiz-adv-x="2115" 
d="M1735 201l96 243q-78 -28 -227 -45l-101 -10l-149 -10q-197 -369 -484 -506q80 -82 203 -82q146 0 244 88q10 10 16 12.5t8 4.5q17 0 17 -17q0 -16 -47 -49q-121 -84 -250 -84q-154 0 -246 104q-70 -22 -109.5 -30t-89.5 -8q-125 0 -240.5 62.5t-115.5 131.5
q-2 17 10.5 28t30.5 11q23 0 47 -35q60 -84 128.5 -123t158.5 -39q37 0 70.5 7.5t84.5 27.5q-10 23 -12 27q-8 16 -22 65q-76 -30 -142 -30q-61 0 -109 26.5t-48 61.5q0 30 30 30q19 0 47 -28q52 -51 117 -51q47 0 101 26l-2 37q0 121 88 215t251 146q5 6 16 23.5t25 43.5
q93 178 207 424q86 188 147.5 276.5t188.5 208.5q-188 78 -407 78q-56 0 -117 -10q127 -145 127 -334q0 -235 -180.5 -434t-393.5 -199q-133 0 -223 96.5t-90 237.5q0 135 75 267.5t204 224.5q69 49 149 88t186 71q-122 89 -268 89q-147 0 -263 -95.5t-116 -216.5
q0 -26 8.5 -43.5t34.5 -42.5q-20 -18 -39 -18q-30 0 -46.5 22.5t-16.5 63.5q0 143 145.5 260t325.5 117q203 0 340 -109q127 27 252 27q227 0 389 -76q151 113 348 113q92 0 178 -41t86 -86q0 -35 -35 -35q-14 0 -24 8t-25 25q-80 86 -219 86q-135 0 -268 -88q33 -19 65 -37
q5 -2 37 -27q56 27 103 39t90 12q67 0 120.5 -24.5t53.5 -57.5q0 -37 -37 -37q-16 0 -37 19q-65 55 -137 55q-59 0 -121 -35q154 -141 154 -342q0 -143 -49 -295l-48 -137q39 17 73 39.5t75 59.5q6 6 11 8t9 4q13 -10 13 -15q0 -10 -20.5 -34.5t-55.5 -55.5
q-51 -43 -133 -84l-10 -22l-9 -23l-10 -22q-24 -51 -31 -68l-32 -82l-27 -65q-14 -33 -14 -51q0 -29 24 -29q27 0 66 29q22 16 28.5 20t12.5 4q16 0 16 -16q0 -21 -57 -62q-86 -67 -148 -67q-63 0 -63 57q0 16 7 40t26 73zM1491 676l-33 -74l-70 -151l164 10q99 0 165.5 12
t137.5 39q72 184 100.5 289.5t28.5 185.5q0 174 -143 295q-59 -45 -100 -96t-84 -131q-17 -35 -51.5 -113t-53.5 -121l-30 -71zM1317 723l-35 -78q-20 -47 -48 -101.5t-56 -101.5l-11 -16l72 10l51 8l84 181q152 338 233 467t199 219q-12 10 -38.5 27.5t-57.5 31.5
q-100 -80 -195 -237q-57 -101 -129 -256l-34 -78zM1253 371h-14l-76 -6l-39 -7q-143 -243 -325 -362q12 -47 43 -90q88 41 146 91t128 148q29 41 69 104.5t68 121.5zM1055 342q-121 -31 -195 -106.5t-74 -165.5l4 -37q64 39 136.5 124t128.5 185zM1049 1432
q-246 -41 -413 -202t-167 -356q0 -135 82 -223t205 -88q184 0 320 152.5t136 359.5q0 105 -57 217q-35 66 -78 113zM1850 2006q16 0 24 -22q21 -82 80 -115q21 -12 21 -22q0 -19 -23 -19q-47 0 -94 31q-31 18 -53.5 42.5t-22.5 41.5q0 14 26 38.5t42 24.5zM2127 1824
l97 -111l20 -29q0 -12 -37 -12h-37q-34 0 -55 25l-33 41q-18 20 -35 20q-6 0 -38 -14l-113 -49l-43 -15q-6 0 -10 4.5t-4 6.5q0 12 39 39l149 104q23 16 31 20.5t20 4.5t19.5 -4.5t29.5 -30.5z" />
    <glyph glyph-name="uni1EA7" unicode="&#x1ea7;" horiz-adv-x="731" 
d="M438 111l10 43q-153 -115 -284 -115q-72 0 -115 41t-43 113q0 81 43 150t150 151q0 114 75.5 184t196.5 70q98 0 156.5 -48.5t58.5 -126.5q0 -30 -7 -61t-26 -80l-94 -246l-8 -20l-6 -25q0 -12 14 -12l14 4l33 10q18 0 18 -14q0 -23 -53 -51q-76 -41 -112 -41
q-31 0 -31 31q0 12 10 43zM299 575v-20q84 43 162 43q65 0 133 -47l6 43q0 49 -39 82t-96 33q-62 0 -114 -42t-52 -92zM444 557q-112 0 -220.5 -110.5t-108.5 -225.5q0 -49 34.5 -82t89.5 -33q111 0 214.5 110t103.5 239q0 47 -29.5 74.5t-83.5 27.5zM576 1219q17 0 25 -22
q21 -82 80 -115q20 -12 20 -23q0 -18 -22 -18q-47 0 -94 31q-31 18 -53.5 42.5t-22.5 41.5q0 14 25.5 38.5t41.5 24.5zM631 997l92 -104q8 -10 12 -16.5t6 -12.5q0 -10 -35 -10h-34q-31 0 -54 25l-32 36q-17 21 -29 21q-21 -4 -39 -12l-109 -47l-38 -15q-7 0 -11 4t-4 6
q0 13 37 37l143 99q31 22 48 22q10 0 18 -5t29 -28z" />
    <glyph glyph-name="uni1EA8" unicode="&#x1ea8;" horiz-adv-x="2115" 
d="M1735 201l96 243q-78 -28 -227 -45l-101 -10l-149 -10q-197 -369 -484 -506q80 -82 203 -82q146 0 244 88q10 10 16 12.5t8 4.5q17 0 17 -17q0 -16 -47 -49q-121 -84 -250 -84q-154 0 -246 104q-70 -22 -109.5 -30t-89.5 -8q-125 0 -240.5 62.5t-115.5 131.5
q-2 17 10.5 28t30.5 11q23 0 47 -35q60 -84 128.5 -123t158.5 -39q37 0 70.5 7.5t84.5 27.5q-10 23 -12 27q-8 16 -22 65q-76 -30 -142 -30q-61 0 -109 26.5t-48 61.5q0 30 30 30q19 0 47 -28q52 -51 117 -51q47 0 101 26l-2 37q0 121 88 215t251 146q5 6 16 23.5t25 43.5
q93 178 207 424q86 188 147.5 276.5t188.5 208.5q-188 78 -407 78q-56 0 -117 -10q127 -145 127 -334q0 -235 -180.5 -434t-393.5 -199q-133 0 -223 96.5t-90 237.5q0 135 75 267.5t204 224.5q69 49 149 88t186 71q-122 89 -268 89q-147 0 -263 -95.5t-116 -216.5
q0 -26 8.5 -43.5t34.5 -42.5q-20 -18 -39 -18q-30 0 -46.5 22.5t-16.5 63.5q0 143 145.5 260t325.5 117q203 0 340 -109q127 27 252 27q227 0 389 -76q151 113 348 113q92 0 178 -41t86 -86q0 -35 -35 -35q-14 0 -24 8t-25 25q-80 86 -219 86q-135 0 -268 -88q33 -19 65 -37
q5 -2 37 -27q56 27 103 39t90 12q67 0 120.5 -24.5t53.5 -57.5q0 -37 -37 -37q-16 0 -37 19q-65 55 -137 55q-59 0 -121 -35q154 -141 154 -342q0 -143 -49 -295l-48 -137q39 17 73 39.5t75 59.5q6 6 11 8t9 4q13 -10 13 -15q0 -10 -20.5 -34.5t-55.5 -55.5
q-51 -43 -133 -84l-10 -22l-9 -23l-10 -22q-24 -51 -31 -68l-32 -82l-27 -65q-14 -33 -14 -51q0 -29 24 -29q27 0 66 29q22 16 28.5 20t12.5 4q16 0 16 -16q0 -21 -57 -62q-86 -67 -148 -67q-63 0 -63 57q0 16 7 40t26 73zM1491 676l-33 -74l-70 -151l164 10q99 0 165.5 12
t137.5 39q72 184 100.5 289.5t28.5 185.5q0 174 -143 295q-59 -45 -100 -96t-84 -131q-17 -35 -51.5 -113t-53.5 -121l-30 -71zM1317 723l-35 -78q-20 -47 -48 -101.5t-56 -101.5l-11 -16l72 10l51 8l84 181q152 338 233 467t199 219q-12 10 -38.5 27.5t-57.5 31.5
q-100 -80 -195 -237q-57 -101 -129 -256l-34 -78zM1253 371h-14l-76 -6l-39 -7q-143 -243 -325 -362q12 -47 43 -90q88 41 146 91t128 148q29 41 69 104.5t68 121.5zM1055 342q-121 -31 -195 -106.5t-74 -165.5l4 -37q64 39 136.5 124t128.5 185zM1049 1432
q-246 -41 -413 -202t-167 -356q0 -135 82 -223t205 -88q184 0 320 152.5t136 359.5q0 105 -57 217q-35 66 -78 113zM2283 1828q24 -2 22 -12q-1 -5 -32 -16l-17 -6q-14 -4 -23 -6t-19 -2q-7 1 -14 6q-9 5 -21.5 19t-14.5 16t-1 4q1 7 25 14q75 22 133 63.5t67 80.5
q6 27 -10 44.5t-45 19.5q-39 4 -84.5 -19t-52.5 -53q-2 -8 0 -23l1 -9q-3 -10 -26 -8q-20 1 -25 14.5t-2 29.5q9 38 80 71.5t139 27.5q57 -5 85.5 -30t20.5 -60q-8 -38 -67.5 -82t-145.5 -75q-11 -3 -12 -7q-1 -3 4 -9v0q2 0 1.5 -0.5t20.5 5.5zM2127 1824l97 -111l20 -29
q0 -12 -37 -12h-37q-34 0 -55 25l-33 41q-18 20 -35 20q-6 0 -38 -14l-113 -49l-43 -15q-6 0 -10 4.5t-4 6.5q0 12 39 39l149 104q23 16 31 20.5t20 4.5t19.5 -4.5t29.5 -30.5z" />
    <glyph glyph-name="uni1EA9" unicode="&#x1ea9;" horiz-adv-x="731" 
d="M438 111l10 43q-153 -115 -284 -115q-72 0 -115 41t-43 113q0 81 43 150t150 151q0 114 75.5 184t196.5 70q98 0 156.5 -48.5t58.5 -126.5q0 -30 -7 -61t-26 -80l-94 -246l-8 -20l-6 -25q0 -12 14 -12l14 4l33 10q18 0 18 -14q0 -23 -53 -51q-76 -41 -112 -41
q-31 0 -31 31q0 12 10 43zM299 575v-20q84 43 162 43q65 0 133 -47l6 43q0 49 -39 82t-96 33q-62 0 -114 -42t-52 -92zM444 557q-112 0 -220.5 -110.5t-108.5 -225.5q0 -49 34.5 -82t89.5 -33q111 0 214.5 110t103.5 239q0 47 -29.5 74.5t-83.5 27.5zM792 998q24 -2 22 -12
q-2 -5 -32 -16l-17 -6q-14 -4 -23 -6t-19 -2q-7 1 -15 6t-20.5 19t-14.5 16t-1 4q1 7 25 14q75 22 133 63.5t67 80.5q6 27 -10.5 44.5t-44.5 19.5q-39 4 -84.5 -19t-52.5 -53q-2 -8 0 -23v-9q-2 -10 -25 -8q-20 1 -25 14.5t-2 29.5q9 38 80 71.5t139 27.5q57 -5 85.5 -30
t20.5 -60q-8 -38 -67.5 -82t-145.5 -75q-12 -3 -12 -7q-1 -3 4 -9v0q2 0 1.5 -0.5t19.5 5.5zM631 997l92 -104q8 -10 12 -16.5t6 -12.5q0 -10 -35 -10h-34q-31 0 -54 25l-32 36q-17 21 -29 21q-21 -4 -39 -12l-109 -47l-38 -15q-7 0 -11 4t-4 6q0 13 37 37l143 99
q31 22 48 22q10 0 18 -5t29 -28z" />
    <glyph glyph-name="uni1EAA" unicode="&#x1eaa;" horiz-adv-x="2115" 
d="M1735 201l96 243q-78 -28 -227 -45l-101 -10l-149 -10q-197 -369 -484 -506q80 -82 203 -82q146 0 244 88q10 10 16 12.5t8 4.5q17 0 17 -17q0 -16 -47 -49q-121 -84 -250 -84q-154 0 -246 104q-70 -22 -109.5 -30t-89.5 -8q-125 0 -240.5 62.5t-115.5 131.5
q-2 17 10.5 28t30.5 11q23 0 47 -35q60 -84 128.5 -123t158.5 -39q37 0 70.5 7.5t84.5 27.5q-10 23 -12 27q-8 16 -22 65q-76 -30 -142 -30q-61 0 -109 26.5t-48 61.5q0 30 30 30q19 0 47 -28q52 -51 117 -51q47 0 101 26l-2 37q0 121 88 215t251 146q5 6 16 23.5t25 43.5
q93 178 207 424q86 188 147.5 276.5t188.5 208.5q-188 78 -407 78q-56 0 -117 -10q127 -145 127 -334q0 -235 -180.5 -434t-393.5 -199q-133 0 -223 96.5t-90 237.5q0 135 75 267.5t204 224.5q69 49 149 88t186 71q-122 89 -268 89q-147 0 -263 -95.5t-116 -216.5
q0 -26 8.5 -43.5t34.5 -42.5q-20 -18 -39 -18q-30 0 -46.5 22.5t-16.5 63.5q0 143 145.5 260t325.5 117q203 0 340 -109q127 27 252 27q227 0 389 -76q151 113 348 113q92 0 178 -41t86 -86q0 -35 -35 -35q-14 0 -24 8t-25 25q-80 86 -219 86q-135 0 -268 -88q33 -19 65 -37
q5 -2 37 -27q56 27 103 39t90 12q67 0 120.5 -24.5t53.5 -57.5q0 -37 -37 -37q-16 0 -37 19q-65 55 -137 55q-59 0 -121 -35q154 -141 154 -342q0 -143 -49 -295l-48 -137q39 17 73 39.5t75 59.5q6 6 11 8t9 4q13 -10 13 -15q0 -10 -20.5 -34.5t-55.5 -55.5
q-51 -43 -133 -84l-10 -22l-9 -23l-10 -22q-24 -51 -31 -68l-32 -82l-27 -65q-14 -33 -14 -51q0 -29 24 -29q27 0 66 29q22 16 28.5 20t12.5 4q16 0 16 -16q0 -21 -57 -62q-86 -67 -148 -67q-63 0 -63 57q0 16 7 40t26 73zM1491 676l-33 -74l-70 -151l164 10q99 0 165.5 12
t137.5 39q72 184 100.5 289.5t28.5 185.5q0 174 -143 295q-59 -45 -100 -96t-84 -131q-17 -35 -51.5 -113t-53.5 -121l-30 -71zM1317 723l-35 -78q-20 -47 -48 -101.5t-56 -101.5l-11 -16l72 10l51 8l84 181q152 338 233 467t199 219q-12 10 -38.5 27.5t-57.5 31.5
q-100 -80 -195 -237q-57 -101 -129 -256l-34 -78zM1253 371h-14l-76 -6l-39 -7q-143 -243 -325 -362q12 -47 43 -90q88 41 146 91t128 148q29 41 69 104.5t68 121.5zM1055 342q-121 -31 -195 -106.5t-74 -165.5l4 -37q64 39 136.5 124t128.5 185zM1049 1432
q-246 -41 -413 -202t-167 -356q0 -135 82 -223t205 -88q184 0 320 152.5t136 359.5q0 105 -57 217q-35 66 -78 113zM2148 1976l16 -4l66 -22l35 -6q18 0 28.5 6t36.5 31q11 10 21 10q14 0 14 -15q0 -12 -39 -53q-31 -35 -49 -47t-43 -12q-23 0 -37 4t-80 27q-43 14 -61 14
q-31 0 -66 -29q-14 -10 -26 -16q-2 0 -4 -2l-13 12q0 12 31 47q64 68 109 68q10 0 26.5 -4t34.5 -9zM2127 1824l97 -111l20 -29q0 -12 -37 -12h-37q-34 0 -55 25l-33 41q-18 20 -35 20q-6 0 -38 -14l-113 -49l-43 -15q-6 0 -10 4.5t-4 6.5q0 12 39 39l149 104q23 16 31 20.5
t20 4.5t19.5 -4.5t29.5 -30.5z" />
    <glyph glyph-name="uni1EAB" unicode="&#x1eab;" horiz-adv-x="731" 
d="M438 111l10 43q-153 -115 -284 -115q-72 0 -115 41t-43 113q0 81 43 150t150 151q0 114 75.5 184t196.5 70q98 0 156.5 -48.5t58.5 -126.5q0 -30 -7 -61t-26 -80l-94 -246l-8 -20l-6 -25q0 -12 14 -12l14 4l33 10q18 0 18 -14q0 -23 -53 -51q-76 -41 -112 -41
q-31 0 -31 31q0 12 10 43zM299 575v-20q84 43 162 43q65 0 133 -47l6 43q0 49 -39 82t-96 33q-62 0 -114 -42t-52 -92zM444 557q-112 0 -220.5 -110.5t-108.5 -225.5q0 -49 34.5 -82t89.5 -33q111 0 214.5 110t103.5 239q0 47 -29.5 74.5t-83.5 27.5zM555 1086
q-31 0 -66 -29q-14 -10 -26 -16q-3 0 -5 -2l-12 12q0 12 31 47q63 68 108 68q25 0 62 -13l82 -26l35 -6q18 0 28.5 6t36.5 30q10 11 21 11q14 0 14 -15q0 -12 -39 -53q-31 -35 -49.5 -47t-42.5 -12q-23 0 -37 4t-80 26q-43 15 -61 15zM631 997l92 -104q8 -10 12 -16.5
t6 -12.5q0 -10 -35 -10h-34q-31 0 -54 25l-32 36q-17 21 -29 21q-21 -4 -39 -12l-109 -47l-38 -15q-7 0 -11 4t-4 6q0 13 37 37l143 99q31 22 48 22q10 0 18 -5t29 -28z" />
    <glyph glyph-name="uni1EAC" unicode="&#x1eac;" horiz-adv-x="2115" 
d="M1735 201l96 243q-78 -28 -227 -45l-101 -10l-149 -10q-197 -369 -484 -506q80 -82 203 -82q146 0 244 88q10 10 16 12.5t8 4.5q17 0 17 -17q0 -16 -47 -49q-121 -84 -250 -84q-154 0 -246 104q-70 -22 -109.5 -30t-89.5 -8q-125 0 -240.5 62.5t-115.5 131.5
q-2 17 10.5 28t30.5 11q23 0 47 -35q60 -84 128.5 -123t158.5 -39q37 0 70.5 7.5t84.5 27.5q-10 23 -12 27q-8 16 -22 65q-76 -30 -142 -30q-61 0 -109 26.5t-48 61.5q0 30 30 30q19 0 47 -28q52 -51 117 -51q47 0 101 26l-2 37q0 121 88 215t251 146q5 6 16 23.5t25 43.5
q93 178 207 424q86 188 147.5 276.5t188.5 208.5q-188 78 -407 78q-56 0 -117 -10q127 -145 127 -334q0 -235 -180.5 -434t-393.5 -199q-133 0 -223 96.5t-90 237.5q0 135 75 267.5t204 224.5q69 49 149 88t186 71q-122 89 -268 89q-147 0 -263 -95.5t-116 -216.5
q0 -26 8.5 -43.5t34.5 -42.5q-20 -18 -39 -18q-30 0 -46.5 22.5t-16.5 63.5q0 143 145.5 260t325.5 117q203 0 340 -109q127 27 252 27q227 0 389 -76q151 113 348 113q92 0 178 -41t86 -86q0 -35 -35 -35q-14 0 -24 8t-25 25q-80 86 -219 86q-135 0 -268 -88q33 -19 65 -37
q5 -2 37 -27q56 27 103 39t90 12q67 0 120.5 -24.5t53.5 -57.5q0 -37 -37 -37q-16 0 -37 19q-65 55 -137 55q-59 0 -121 -35q154 -141 154 -342q0 -143 -49 -295l-48 -137q39 17 73 39.5t75 59.5q6 6 11 8t9 4q13 -10 13 -15q0 -10 -20.5 -34.5t-55.5 -55.5
q-51 -43 -133 -84l-10 -22l-9 -23l-10 -22q-24 -51 -31 -68l-32 -82l-27 -65q-14 -33 -14 -51q0 -29 24 -29q27 0 66 29q22 16 28.5 20t12.5 4q16 0 16 -16q0 -21 -57 -62q-86 -67 -148 -67q-63 0 -63 57q0 16 7 40t26 73zM1491 676l-33 -74l-70 -151l164 10q99 0 165.5 12
t137.5 39q72 184 100.5 289.5t28.5 185.5q0 174 -143 295q-59 -45 -100 -96t-84 -131q-17 -35 -51.5 -113t-53.5 -121l-30 -71zM1317 723l-35 -78q-20 -47 -48 -101.5t-56 -101.5l-11 -16l72 10l51 8l84 181q152 338 233 467t199 219q-12 10 -38.5 27.5t-57.5 31.5
q-100 -80 -195 -237q-57 -101 -129 -256l-34 -78zM1253 371h-14l-76 -6l-39 -7q-143 -243 -325 -362q12 -47 43 -90q88 41 146 91t128 148q29 41 69 104.5t68 121.5zM1055 342q-121 -31 -195 -106.5t-74 -165.5l4 -37q64 39 136.5 124t128.5 185zM1049 1432
q-246 -41 -413 -202t-167 -356q0 -135 82 -223t205 -88q184 0 320 152.5t136 359.5q0 105 -57 217q-35 66 -78 113zM1438 -210q6 -4 11 -9t20.5 -35t15.5 -36q0 -8 -5 -15t-29 -33t-38 -26q-12 0 -35 41q-12 23 -14 29t-2 12q0 11 9 20t32 27l8 9q10 8 17.5 11t9.5 5z
M2127 1824l97 -111l20 -29q0 -12 -37 -12h-37q-34 0 -55 25l-33 41q-18 20 -35 20q-6 0 -38 -14l-113 -49l-43 -15q-6 0 -10 4.5t-4 6.5q0 12 39 39l149 104q23 16 31 20.5t20 4.5t19.5 -4.5t29.5 -30.5z" />
    <glyph glyph-name="uni1EAD" unicode="&#x1ead;" horiz-adv-x="731" 
d="M438 111l10 43q-153 -115 -284 -115q-72 0 -115 41t-43 113q0 81 43 150t150 151q0 114 75.5 184t196.5 70q98 0 156.5 -48.5t58.5 -126.5q0 -30 -7 -61t-26 -80l-94 -246l-8 -20l-6 -25q0 -12 14 -12l14 4l33 10q18 0 18 -14q0 -23 -53 -51q-76 -41 -112 -41
q-31 0 -31 31q0 12 10 43zM299 575v-20q84 43 162 43q65 0 133 -47l6 43q0 49 -39 82t-96 33q-62 0 -114 -42t-52 -92zM444 557q-112 0 -220.5 -110.5t-108.5 -225.5q0 -49 34.5 -82t89.5 -33q111 0 214.5 110t103.5 239q0 47 -29.5 74.5t-83.5 27.5zM276 -40q6 -4 11 -9
t20.5 -35t15.5 -36q0 -8 -5 -15t-28.5 -33t-38.5 -26q-12 0 -35 41q-12 23 -14 29t-2 12q0 11 9 20t32 27l8 9q10 8 17.5 11t9.5 5zM631 997l92 -104q8 -10 12 -16.5t6 -12.5q0 -10 -35 -10h-34q-31 0 -54 25l-32 36q-17 21 -29 21q-21 -4 -39 -12l-109 -47l-38 -15
q-7 0 -11 4t-4 6q0 13 37 37l143 99q31 22 48 22q10 0 18 -5t29 -28z" />
    <glyph glyph-name="uni1EAE" unicode="&#x1eae;" horiz-adv-x="2115" 
d="M1735 201l96 243q-78 -28 -227 -45l-101 -10l-149 -10q-197 -369 -484 -506q80 -82 203 -82q146 0 244 88q10 10 16 12.5t8 4.5q17 0 17 -17q0 -16 -47 -49q-121 -84 -250 -84q-154 0 -246 104q-70 -22 -109.5 -30t-89.5 -8q-125 0 -240.5 62.5t-115.5 131.5
q-2 17 10.5 28t30.5 11q23 0 47 -35q60 -84 128.5 -123t158.5 -39q37 0 70.5 7.5t84.5 27.5q-10 23 -12 27q-8 16 -22 65q-76 -30 -142 -30q-61 0 -109 26.5t-48 61.5q0 30 30 30q19 0 47 -28q52 -51 117 -51q47 0 101 26l-2 37q0 121 88 215t251 146q5 6 16 23.5t25 43.5
q93 178 207 424q86 188 147.5 276.5t188.5 208.5q-188 78 -407 78q-56 0 -117 -10q127 -145 127 -334q0 -235 -180.5 -434t-393.5 -199q-133 0 -223 96.5t-90 237.5q0 135 75 267.5t204 224.5q69 49 149 88t186 71q-122 89 -268 89q-147 0 -263 -95.5t-116 -216.5
q0 -26 8.5 -43.5t34.5 -42.5q-20 -18 -39 -18q-30 0 -46.5 22.5t-16.5 63.5q0 143 145.5 260t325.5 117q203 0 340 -109q127 27 252 27q227 0 389 -76q151 113 348 113q92 0 178 -41t86 -86q0 -35 -35 -35q-14 0 -24 8t-25 25q-80 86 -219 86q-135 0 -268 -88q33 -19 65 -37
q5 -2 37 -27q56 27 103 39t90 12q67 0 120.5 -24.5t53.5 -57.5q0 -37 -37 -37q-16 0 -37 19q-65 55 -137 55q-59 0 -121 -35q154 -141 154 -342q0 -143 -49 -295l-48 -137q39 17 73 39.5t75 59.5q6 6 11 8t9 4q13 -10 13 -15q0 -10 -20.5 -34.5t-55.5 -55.5
q-51 -43 -133 -84l-10 -22l-9 -23l-10 -22q-24 -51 -31 -68l-32 -82l-27 -65q-14 -33 -14 -51q0 -29 24 -29q27 0 66 29q22 16 28.5 20t12.5 4q16 0 16 -16q0 -21 -57 -62q-86 -67 -148 -67q-63 0 -63 57q0 16 7 40t26 73zM1491 676l-33 -74l-70 -151l164 10q99 0 165.5 12
t137.5 39q72 184 100.5 289.5t28.5 185.5q0 174 -143 295q-59 -45 -100 -96t-84 -131q-17 -35 -51.5 -113t-53.5 -121l-30 -71zM1317 723l-35 -78q-20 -47 -48 -101.5t-56 -101.5l-11 -16l72 10l51 8l84 181q152 338 233 467t199 219q-12 10 -38.5 27.5t-57.5 31.5
q-100 -80 -195 -237q-57 -101 -129 -256l-34 -78zM1253 371h-14l-76 -6l-39 -7q-143 -243 -325 -362q12 -47 43 -90q88 41 146 91t128 148q29 41 69 104.5t68 121.5zM1055 342q-121 -31 -195 -106.5t-74 -165.5l4 -37q64 39 136.5 124t128.5 185zM1049 1432
q-246 -41 -413 -202t-167 -356q0 -135 82 -223t205 -88q184 0 320 152.5t136 359.5q0 105 -57 217q-35 66 -78 113zM2166 1975q16 0 49 -33q18 -18 18 -30q0 -15 -23.5 -41.5t-51.5 -42.5q-48 -31 -95 -31q-22 0 -22 19q0 10 20 22q64 35 80 115q6 22 25 22zM1849 1831
q2 -2 9 -5t21 -20q46 -53 146 -53q108 0 192 64l19 10l8 -8q0 -19 -49 -68q-82 -82 -182 -82q-72 0 -124.5 42t-52.5 101q0 19 13 19z" />
    <glyph glyph-name="uni1EAF" unicode="&#x1eaf;" horiz-adv-x="731" 
d="M438 111l10 43q-153 -115 -284 -115q-72 0 -115 41t-43 113q0 81 43 150t150 151q0 114 75.5 184t196.5 70q98 0 156.5 -48.5t58.5 -126.5q0 -30 -7 -61t-26 -80l-94 -246l-8 -20l-6 -25q0 -12 14 -12l14 4l33 10q18 0 18 -14q0 -23 -53 -51q-76 -41 -112 -41
q-31 0 -31 31q0 12 10 43zM299 575v-20q84 43 162 43q65 0 133 -47l6 43q0 49 -39 82t-96 33q-62 0 -114 -42t-52 -92zM444 557q-112 0 -220.5 -110.5t-108.5 -225.5q0 -49 34.5 -82t89.5 -33q111 0 214.5 110t103.5 239q0 47 -29.5 74.5t-83.5 27.5zM713 1183q16 0 49 -33
q19 -18 19 -30q0 -15 -24 -41.5t-52 -42.5q-47 -31 -94 -31q-23 0 -23 18q0 11 21 23q63 35 79 115q7 22 25 22zM422 980q2 -2 9 -5t21 -20q46 -53 146 -53q108 0 192 64l19 10l8 -8q0 -19 -49 -68q-82 -82 -182 -82q-72 0 -124.5 42t-52.5 101q0 19 13 19z" />
    <glyph glyph-name="uni1EB0" unicode="&#x1eb0;" horiz-adv-x="2115" 
d="M1735 201l96 243q-78 -28 -227 -45l-101 -10l-149 -10q-197 -369 -484 -506q80 -82 203 -82q146 0 244 88q10 10 16 12.5t8 4.5q17 0 17 -17q0 -16 -47 -49q-121 -84 -250 -84q-154 0 -246 104q-70 -22 -109.5 -30t-89.5 -8q-125 0 -240.5 62.5t-115.5 131.5
q-2 17 10.5 28t30.5 11q23 0 47 -35q60 -84 128.5 -123t158.5 -39q37 0 70.5 7.5t84.5 27.5q-10 23 -12 27q-8 16 -22 65q-76 -30 -142 -30q-61 0 -109 26.5t-48 61.5q0 30 30 30q19 0 47 -28q52 -51 117 -51q47 0 101 26l-2 37q0 121 88 215t251 146q5 6 16 23.5t25 43.5
q93 178 207 424q86 188 147.5 276.5t188.5 208.5q-188 78 -407 78q-56 0 -117 -10q127 -145 127 -334q0 -235 -180.5 -434t-393.5 -199q-133 0 -223 96.5t-90 237.5q0 135 75 267.5t204 224.5q69 49 149 88t186 71q-122 89 -268 89q-147 0 -263 -95.5t-116 -216.5
q0 -26 8.5 -43.5t34.5 -42.5q-20 -18 -39 -18q-30 0 -46.5 22.5t-16.5 63.5q0 143 145.5 260t325.5 117q203 0 340 -109q127 27 252 27q227 0 389 -76q151 113 348 113q92 0 178 -41t86 -86q0 -35 -35 -35q-14 0 -24 8t-25 25q-80 86 -219 86q-135 0 -268 -88q33 -19 65 -37
q5 -2 37 -27q56 27 103 39t90 12q67 0 120.5 -24.5t53.5 -57.5q0 -37 -37 -37q-16 0 -37 19q-65 55 -137 55q-59 0 -121 -35q154 -141 154 -342q0 -143 -49 -295l-48 -137q39 17 73 39.5t75 59.5q6 6 11 8t9 4q13 -10 13 -15q0 -10 -20.5 -34.5t-55.5 -55.5
q-51 -43 -133 -84l-10 -22l-9 -23l-10 -22q-24 -51 -31 -68l-32 -82l-27 -65q-14 -33 -14 -51q0 -29 24 -29q27 0 66 29q22 16 28.5 20t12.5 4q16 0 16 -16q0 -21 -57 -62q-86 -67 -148 -67q-63 0 -63 57q0 16 7 40t26 73zM1491 676l-33 -74l-70 -151l164 10q99 0 165.5 12
t137.5 39q72 184 100.5 289.5t28.5 185.5q0 174 -143 295q-59 -45 -100 -96t-84 -131q-17 -35 -51.5 -113t-53.5 -121l-30 -71zM1317 723l-35 -78q-20 -47 -48 -101.5t-56 -101.5l-11 -16l72 10l51 8l84 181q152 338 233 467t199 219q-12 10 -38.5 27.5t-57.5 31.5
q-100 -80 -195 -237q-57 -101 -129 -256l-34 -78zM1253 371h-14l-76 -6l-39 -7q-143 -243 -325 -362q12 -47 43 -90q88 41 146 91t128 148q29 41 69 104.5t68 121.5zM1055 342q-121 -31 -195 -106.5t-74 -165.5l4 -37q64 39 136.5 124t128.5 185zM1049 1432
q-246 -41 -413 -202t-167 -356q0 -135 82 -223t205 -88q184 0 320 152.5t136 359.5q0 105 -57 217q-35 66 -78 113zM1897 2006q16 0 24 -22q21 -82 80 -115q21 -12 21 -22q0 -19 -23 -19q-47 0 -94 31q-31 18 -53.5 42.5t-22.5 41.5q0 14 26 38.5t42 24.5zM1849 1831
q2 -2 9 -5t21 -20q46 -53 146 -53q108 0 192 64l19 10l8 -8q0 -19 -49 -68q-82 -82 -182 -82q-72 0 -124.5 42t-52.5 101q0 19 13 19z" />
    <glyph glyph-name="uni1EB1" unicode="&#x1eb1;" horiz-adv-x="731" 
d="M438 111l10 43q-153 -115 -284 -115q-72 0 -115 41t-43 113q0 81 43 150t150 151q0 114 75.5 184t196.5 70q98 0 156.5 -48.5t58.5 -126.5q0 -30 -7 -61t-26 -80l-94 -246l-8 -20l-6 -25q0 -12 14 -12l14 4l33 10q18 0 18 -14q0 -23 -53 -51q-76 -41 -112 -41
q-31 0 -31 31q0 12 10 43zM299 575v-20q84 43 162 43q65 0 133 -47l6 43q0 49 -39 82t-96 33q-62 0 -114 -42t-52 -92zM444 557q-112 0 -220.5 -110.5t-108.5 -225.5q0 -49 34.5 -82t89.5 -33q111 0 214.5 110t103.5 239q0 47 -29.5 74.5t-83.5 27.5zM567 1181q17 0 25 -22
q21 -82 80 -115q20 -12 20 -23q0 -18 -22 -18q-47 0 -94 31q-31 18 -53.5 42.5t-22.5 41.5q0 14 25.5 38.5t41.5 24.5zM422 980q2 -2 9 -5t21 -20q46 -53 146 -53q108 0 192 64l19 10l8 -8q0 -19 -49 -68q-82 -82 -182 -82q-72 0 -124.5 42t-52.5 101q0 19 13 19z" />
    <glyph glyph-name="uni1EB2" unicode="&#x1eb2;" horiz-adv-x="2115" 
d="M1735 201l96 243q-78 -28 -227 -45l-101 -10l-149 -10q-197 -369 -484 -506q80 -82 203 -82q146 0 244 88q10 10 16 12.5t8 4.5q17 0 17 -17q0 -16 -47 -49q-121 -84 -250 -84q-154 0 -246 104q-70 -22 -109.5 -30t-89.5 -8q-125 0 -240.5 62.5t-115.5 131.5
q-2 17 10.5 28t30.5 11q23 0 47 -35q60 -84 128.5 -123t158.5 -39q37 0 70.5 7.5t84.5 27.5q-10 23 -12 27q-8 16 -22 65q-76 -30 -142 -30q-61 0 -109 26.5t-48 61.5q0 30 30 30q19 0 47 -28q52 -51 117 -51q47 0 101 26l-2 37q0 121 88 215t251 146q5 6 16 23.5t25 43.5
q93 178 207 424q86 188 147.5 276.5t188.5 208.5q-188 78 -407 78q-56 0 -117 -10q127 -145 127 -334q0 -235 -180.5 -434t-393.5 -199q-133 0 -223 96.5t-90 237.5q0 135 75 267.5t204 224.5q69 49 149 88t186 71q-122 89 -268 89q-147 0 -263 -95.5t-116 -216.5
q0 -26 8.5 -43.5t34.5 -42.5q-20 -18 -39 -18q-30 0 -46.5 22.5t-16.5 63.5q0 143 145.5 260t325.5 117q203 0 340 -109q127 27 252 27q227 0 389 -76q151 113 348 113q92 0 178 -41t86 -86q0 -35 -35 -35q-14 0 -24 8t-25 25q-80 86 -219 86q-135 0 -268 -88q33 -19 65 -37
q5 -2 37 -27q56 27 103 39t90 12q67 0 120.5 -24.5t53.5 -57.5q0 -37 -37 -37q-16 0 -37 19q-65 55 -137 55q-59 0 -121 -35q154 -141 154 -342q0 -143 -49 -295l-48 -137q39 17 73 39.5t75 59.5q6 6 11 8t9 4q13 -10 13 -15q0 -10 -20.5 -34.5t-55.5 -55.5
q-51 -43 -133 -84l-10 -22l-9 -23l-10 -22q-24 -51 -31 -68l-32 -82l-27 -65q-14 -33 -14 -51q0 -29 24 -29q27 0 66 29q22 16 28.5 20t12.5 4q16 0 16 -16q0 -21 -57 -62q-86 -67 -148 -67q-63 0 -63 57q0 16 7 40t26 73zM1491 676l-33 -74l-70 -151l164 10q99 0 165.5 12
t137.5 39q72 184 100.5 289.5t28.5 185.5q0 174 -143 295q-59 -45 -100 -96t-84 -131q-17 -35 -51.5 -113t-53.5 -121l-30 -71zM1317 723l-35 -78q-20 -47 -48 -101.5t-56 -101.5l-11 -16l72 10l51 8l84 181q152 338 233 467t199 219q-12 10 -38.5 27.5t-57.5 31.5
q-100 -80 -195 -237q-57 -101 -129 -256l-34 -78zM1253 371h-14l-76 -6l-39 -7q-143 -243 -325 -362q12 -47 43 -90q88 41 146 91t128 148q29 41 69 104.5t68 121.5zM1055 342q-121 -31 -195 -106.5t-74 -165.5l4 -37q64 39 136.5 124t128.5 185zM1049 1432
q-246 -41 -413 -202t-167 -356q0 -135 82 -223t205 -88q184 0 320 152.5t136 359.5q0 105 -57 217q-35 66 -78 113zM2117 1840q24 -2 22 -12q-1 -5 -32 -16l-17 -6q-14 -4 -23 -6t-19 -2q-7 1 -14 6q-9 5 -21.5 19t-14.5 16t-1 4q1 7 25 14q75 22 133 63.5t67 80.5
q6 27 -10 44.5t-45 19.5q-39 4 -84.5 -19t-52.5 -53q-2 -8 0 -23l1 -9q-3 -10 -26 -8q-20 1 -25 14.5t-2 29.5q9 38 80 71.5t139 27.5q57 -5 85.5 -30t20.5 -60q-8 -38 -67.5 -82t-145.5 -75q-11 -3 -12 -7q-1 -3 4 -9v0q2 0 1.5 -0.5t20.5 5.5zM1849 1831q2 -2 9 -5t21 -20
q46 -53 146 -53q108 0 192 64l19 10l8 -8q0 -19 -49 -68q-82 -82 -182 -82q-72 0 -124.5 42t-52.5 101q0 19 13 19z" />
    <glyph glyph-name="uni1EB3" unicode="&#x1eb3;" horiz-adv-x="731" 
d="M438 111l10 43q-153 -115 -284 -115q-72 0 -115 41t-43 113q0 81 43 150t150 151q0 114 75.5 184t196.5 70q98 0 156.5 -48.5t58.5 -126.5q0 -30 -7 -61t-26 -80l-94 -246l-8 -20l-6 -25q0 -12 14 -12l14 4l33 10q18 0 18 -14q0 -23 -53 -51q-76 -41 -112 -41
q-31 0 -31 31q0 12 10 43zM299 575v-20q84 43 162 43q65 0 133 -47l6 43q0 49 -39 82t-96 33q-62 0 -114 -42t-52 -92zM444 557q-112 0 -220.5 -110.5t-108.5 -225.5q0 -49 34.5 -82t89.5 -33q111 0 214.5 110t103.5 239q0 47 -29.5 74.5t-83.5 27.5zM679 998q24 -2 22 -12
q-2 -5 -32 -16l-17 -6q-14 -4 -23 -6t-19 -2q-7 1 -15 6t-20.5 19t-14.5 16t-1 4q1 7 25 14q75 22 133 63.5t67 80.5q6 27 -10.5 44.5t-44.5 19.5q-39 4 -84.5 -19t-52.5 -53q-2 -8 0 -23v-9q-2 -10 -25 -8q-20 1 -25 14.5t-2 29.5q9 38 80 71.5t139 27.5q57 -5 85.5 -30
t20.5 -60q-8 -38 -67.5 -82t-145.5 -75q-12 -3 -12 -7q-1 -3 4 -9v0q2 0 1.5 -0.5t19.5 5.5zM422 980q2 -2 9 -5t21 -20q46 -53 146 -53q108 0 192 64l19 10l8 -8q0 -19 -49 -68q-82 -82 -182 -82q-72 0 -124.5 42t-52.5 101q0 19 13 19z" />
    <glyph glyph-name="uni1EB4" unicode="&#x1eb4;" horiz-adv-x="2115" 
d="M1735 201l96 243q-78 -28 -227 -45l-101 -10l-149 -10q-197 -369 -484 -506q80 -82 203 -82q146 0 244 88q10 10 16 12.5t8 4.5q17 0 17 -17q0 -16 -47 -49q-121 -84 -250 -84q-154 0 -246 104q-70 -22 -109.5 -30t-89.5 -8q-125 0 -240.5 62.5t-115.5 131.5
q-2 17 10.5 28t30.5 11q23 0 47 -35q60 -84 128.5 -123t158.5 -39q37 0 70.5 7.5t84.5 27.5q-10 23 -12 27q-8 16 -22 65q-76 -30 -142 -30q-61 0 -109 26.5t-48 61.5q0 30 30 30q19 0 47 -28q52 -51 117 -51q47 0 101 26l-2 37q0 121 88 215t251 146q5 6 16 23.5t25 43.5
q93 178 207 424q86 188 147.5 276.5t188.5 208.5q-188 78 -407 78q-56 0 -117 -10q127 -145 127 -334q0 -235 -180.5 -434t-393.5 -199q-133 0 -223 96.5t-90 237.5q0 135 75 267.5t204 224.5q69 49 149 88t186 71q-122 89 -268 89q-147 0 -263 -95.5t-116 -216.5
q0 -26 8.5 -43.5t34.5 -42.5q-20 -18 -39 -18q-30 0 -46.5 22.5t-16.5 63.5q0 143 145.5 260t325.5 117q203 0 340 -109q127 27 252 27q227 0 389 -76q151 113 348 113q92 0 178 -41t86 -86q0 -35 -35 -35q-14 0 -24 8t-25 25q-80 86 -219 86q-135 0 -268 -88q33 -19 65 -37
q5 -2 37 -27q56 27 103 39t90 12q67 0 120.5 -24.5t53.5 -57.5q0 -37 -37 -37q-16 0 -37 19q-65 55 -137 55q-59 0 -121 -35q154 -141 154 -342q0 -143 -49 -295l-48 -137q39 17 73 39.5t75 59.5q6 6 11 8t9 4q13 -10 13 -15q0 -10 -20.5 -34.5t-55.5 -55.5
q-51 -43 -133 -84l-10 -22l-9 -23l-10 -22q-24 -51 -31 -68l-32 -82l-27 -65q-14 -33 -14 -51q0 -29 24 -29q27 0 66 29q22 16 28.5 20t12.5 4q16 0 16 -16q0 -21 -57 -62q-86 -67 -148 -67q-63 0 -63 57q0 16 7 40t26 73zM1491 676l-33 -74l-70 -151l164 10q99 0 165.5 12
t137.5 39q72 184 100.5 289.5t28.5 185.5q0 174 -143 295q-59 -45 -100 -96t-84 -131q-17 -35 -51.5 -113t-53.5 -121l-30 -71zM1317 723l-35 -78q-20 -47 -48 -101.5t-56 -101.5l-11 -16l72 10l51 8l84 181q152 338 233 467t199 219q-12 10 -38.5 27.5t-57.5 31.5
q-100 -80 -195 -237q-57 -101 -129 -256l-34 -78zM1253 371h-14l-76 -6l-39 -7q-143 -243 -325 -362q12 -47 43 -90q88 41 146 91t128 148q29 41 69 104.5t68 121.5zM1055 342q-121 -31 -195 -106.5t-74 -165.5l4 -37q64 39 136.5 124t128.5 185zM1049 1432
q-246 -41 -413 -202t-167 -356q0 -135 82 -223t205 -88q184 0 320 152.5t136 359.5q0 105 -57 217q-35 66 -78 113zM2130 1958l16 -4l66 -22l35 -6q18 0 28.5 6t36.5 31q11 10 21 10q14 0 14 -15q0 -12 -39 -53q-31 -35 -49 -47t-43 -12q-23 0 -37 4t-80 27q-43 14 -61 14
q-31 0 -66 -29q-14 -10 -26 -16q-2 0 -4 -2l-13 12q0 12 31 47q64 68 109 68q10 0 26.5 -4t34.5 -9zM1849 1831q2 -2 9 -5t21 -20q46 -53 146 -53q108 0 192 64l19 10l8 -8q0 -19 -49 -68q-82 -82 -182 -82q-72 0 -124.5 42t-52.5 101q0 19 13 19z" />
    <glyph glyph-name="uni1EB5" unicode="&#x1eb5;" horiz-adv-x="731" 
d="M438 111l10 43q-153 -115 -284 -115q-72 0 -115 41t-43 113q0 81 43 150t150 151q0 114 75.5 184t196.5 70q98 0 156.5 -48.5t58.5 -126.5q0 -30 -7 -61t-26 -80l-94 -246l-8 -20l-6 -25q0 -12 14 -12l14 4l33 10q18 0 18 -14q0 -23 -53 -51q-76 -41 -112 -41
q-31 0 -31 31q0 12 10 43zM299 575v-20q84 43 162 43q65 0 133 -47l6 43q0 49 -39 82t-96 33q-62 0 -114 -42t-52 -92zM444 557q-112 0 -220.5 -110.5t-108.5 -225.5q0 -49 34.5 -82t89.5 -33q111 0 214.5 110t103.5 239q0 47 -29.5 74.5t-83.5 27.5zM584 1058
q-31 0 -66 -29q-14 -10 -26 -16q-3 0 -5 -2l-12 12q0 12 31 47q63 68 108 68q25 0 62 -13l82 -26l35 -6q18 0 28.5 6t36.5 30q10 11 21 11q14 0 14 -15q0 -12 -39 -53q-31 -35 -49.5 -47t-42.5 -12q-23 0 -37 4t-80 26q-43 15 -61 15zM422 980q2 -2 9 -5t21 -20
q46 -53 146 -53q108 0 192 64l19 10l8 -8q0 -19 -49 -68q-82 -82 -182 -82q-72 0 -124.5 42t-52.5 101q0 19 13 19z" />
    <glyph glyph-name="uni1EB6" unicode="&#x1eb6;" horiz-adv-x="2115" 
d="M1735 201l96 243q-78 -28 -227 -45l-101 -10l-149 -10q-197 -369 -484 -506q80 -82 203 -82q146 0 244 88q10 10 16 12.5t8 4.5q17 0 17 -17q0 -16 -47 -49q-121 -84 -250 -84q-154 0 -246 104q-70 -22 -109.5 -30t-89.5 -8q-125 0 -240.5 62.5t-115.5 131.5
q-2 17 10.5 28t30.5 11q23 0 47 -35q60 -84 128.5 -123t158.5 -39q37 0 70.5 7.5t84.5 27.5q-10 23 -12 27q-8 16 -22 65q-76 -30 -142 -30q-61 0 -109 26.5t-48 61.5q0 30 30 30q19 0 47 -28q52 -51 117 -51q47 0 101 26l-2 37q0 121 88 215t251 146q5 6 16 23.5t25 43.5
q93 178 207 424q86 188 147.5 276.5t188.5 208.5q-188 78 -407 78q-56 0 -117 -10q127 -145 127 -334q0 -235 -180.5 -434t-393.5 -199q-133 0 -223 96.5t-90 237.5q0 135 75 267.5t204 224.5q69 49 149 88t186 71q-122 89 -268 89q-147 0 -263 -95.5t-116 -216.5
q0 -26 8.5 -43.5t34.5 -42.5q-20 -18 -39 -18q-30 0 -46.5 22.5t-16.5 63.5q0 143 145.5 260t325.5 117q203 0 340 -109q127 27 252 27q227 0 389 -76q151 113 348 113q92 0 178 -41t86 -86q0 -35 -35 -35q-14 0 -24 8t-25 25q-80 86 -219 86q-135 0 -268 -88q33 -19 65 -37
q5 -2 37 -27q56 27 103 39t90 12q67 0 120.5 -24.5t53.5 -57.5q0 -37 -37 -37q-16 0 -37 19q-65 55 -137 55q-59 0 -121 -35q154 -141 154 -342q0 -143 -49 -295l-48 -137q39 17 73 39.5t75 59.5q6 6 11 8t9 4q13 -10 13 -15q0 -10 -20.5 -34.5t-55.5 -55.5
q-51 -43 -133 -84l-10 -22l-9 -23l-10 -22q-24 -51 -31 -68l-32 -82l-27 -65q-14 -33 -14 -51q0 -29 24 -29q27 0 66 29q22 16 28.5 20t12.5 4q16 0 16 -16q0 -21 -57 -62q-86 -67 -148 -67q-63 0 -63 57q0 16 7 40t26 73zM1491 676l-33 -74l-70 -151l164 10q99 0 165.5 12
t137.5 39q72 184 100.5 289.5t28.5 185.5q0 174 -143 295q-59 -45 -100 -96t-84 -131q-17 -35 -51.5 -113t-53.5 -121l-30 -71zM1317 723l-35 -78q-20 -47 -48 -101.5t-56 -101.5l-11 -16l72 10l51 8l84 181q152 338 233 467t199 219q-12 10 -38.5 27.5t-57.5 31.5
q-100 -80 -195 -237q-57 -101 -129 -256l-34 -78zM1253 371h-14l-76 -6l-39 -7q-143 -243 -325 -362q12 -47 43 -90q88 41 146 91t128 148q29 41 69 104.5t68 121.5zM1055 342q-121 -31 -195 -106.5t-74 -165.5l4 -37q64 39 136.5 124t128.5 185zM1049 1432
q-246 -41 -413 -202t-167 -356q0 -135 82 -223t205 -88q184 0 320 152.5t136 359.5q0 105 -57 217q-35 66 -78 113zM1438 -210q6 -4 11 -9t20.5 -35t15.5 -36q0 -8 -5 -15t-29 -33t-38 -26q-12 0 -35 41q-12 23 -14 29t-2 12q0 11 9 20t32 27l8 9q10 8 17.5 11t9.5 5z
M1849 1831q2 -2 9 -5t21 -20q46 -53 146 -53q108 0 192 64l19 10l8 -8q0 -19 -49 -68q-82 -82 -182 -82q-72 0 -124.5 42t-52.5 101q0 19 13 19z" />
    <glyph glyph-name="uni1EB7" unicode="&#x1eb7;" horiz-adv-x="731" 
d="M438 111l10 43q-153 -115 -284 -115q-72 0 -115 41t-43 113q0 81 43 150t150 151q0 114 75.5 184t196.5 70q98 0 156.5 -48.5t58.5 -126.5q0 -30 -7 -61t-26 -80l-94 -246l-8 -20l-6 -25q0 -12 14 -12l14 4l33 10q18 0 18 -14q0 -23 -53 -51q-76 -41 -112 -41
q-31 0 -31 31q0 12 10 43zM299 575v-20q84 43 162 43q65 0 133 -47l6 43q0 49 -39 82t-96 33q-62 0 -114 -42t-52 -92zM444 557q-112 0 -220.5 -110.5t-108.5 -225.5q0 -49 34.5 -82t89.5 -33q111 0 214.5 110t103.5 239q0 47 -29.5 74.5t-83.5 27.5zM276 -40q6 -4 11 -9
t20.5 -35t15.5 -36q0 -8 -5 -15t-28.5 -33t-38.5 -26q-12 0 -35 41q-12 23 -14 29t-2 12q0 11 9 20t32 27l8 9q10 8 17.5 11t9.5 5zM422 980q2 -2 9 -5t21 -20q46 -53 146 -53q108 0 192 64l19 10l8 -8q0 -19 -49 -68q-82 -82 -182 -82q-72 0 -124.5 42t-52.5 101
q0 19 13 19z" />
    <glyph glyph-name="uni1EB8" unicode="&#x1eb8;" horiz-adv-x="1523" 
d="M849 1409v41q-178 -107 -203 -330q84 15 133 15q140 0 230 -65.5t90 -166.5q0 -86 -62.5 -146.5t-152.5 -60.5q-209 0 -316 224q-79 -54 -128.5 -154t-49.5 -215q0 -197 129 -338t310 -141q129 0 216 82t103 217q10 82 45 82q39 0 39 -47q0 -39 -18.5 -89.5t-51.5 -95.5
q-59 -86 -162.5 -139t-213.5 -53q-203 0 -338.5 137t-135.5 346q0 268 246 442q-12 45 -12 95q-166 -84 -259 -237t-93 -337q0 -244 172 -405.5t428 -161.5q223 0 389 155.5t166 364.5q0 61 -11 107l-6 45q0 59 52 59q63 0 63 -96q0 -289 -219 -494t-529 -205
q-274 0 -446 162t-172 422q0 209 123 383t344 274q20 138 95 237t216 177q33 98 116 156.5t191 58.5q144 0 243 -89t99 -216t-81 -209q-31 -35 -58 -35q-20 0 -20 21l6 22l6 49q0 97 -100.5 170.5t-231.5 73.5q-53 0 -121 -20l-6 -41q0 -60 35 -82q16 -12 27 -25
q2 -6 -4 -12q-15 -14 -33 -14q-33 0 -55.5 28.5t-22.5 73.5zM644 1079v-39l4 -45q68 19 121 19q78 0 136.5 -35t58.5 -82q0 -45 -43 -45q-19 0 -19 12l2 8l2 19q0 31 -52 59.5t-109 28.5q-35 0 -89 -18q76 -222 248 -222q62 0 103 39t41 96q0 91 -87 151t-223 60
q-57 0 -94 -6zM1427 1329q24 47 24 86q0 109 -88 186.5t-213 77.5q-164 0 -231 -155q82 22 145 22q270 0 363 -217zM446 -210q6 -4 11 -9t20.5 -35t15.5 -36q0 -8 -5 -15t-28.5 -33t-38.5 -26q-12 0 -35 41q-12 23 -14 29t-2 12q0 11 9 20t32 27l8 9q10 8 17.5 11t9.5 5z
" />
    <glyph glyph-name="uni1EB9" unicode="&#x1eb9;" horiz-adv-x="608" 
d="M132 231q23 -120 144 -120q98 0 186 82q23 20 37 20q18 0 18 -18q0 -27 -67 -74q-121 -84 -223 -84q-88 0 -143.5 57.5t-55.5 151.5q0 176 140.5 336.5t291.5 160.5q66 0 106 -35.5t40 -95.5q0 -131 -143.5 -247.5t-330.5 -133.5zM130 299v-27q164 17 274.5 104
t110.5 204q0 49 -26.5 77.5t-73.5 28.5q-96 0 -190.5 -127t-94.5 -260zM171 -40q6 -4 11 -9t20.5 -35t15.5 -36q0 -8 -5 -15t-28.5 -33t-37.5 -26q-13 0 -35 41q-13 23 -15 29t-2 12q0 11 9.5 20t31.5 27l8 9q11 8 18 11t9 5z" />
    <glyph glyph-name="uni1EBA" unicode="&#x1eba;" horiz-adv-x="1523" 
d="M849 1409v41q-178 -107 -203 -330q84 15 133 15q140 0 230 -65.5t90 -166.5q0 -86 -62.5 -146.5t-152.5 -60.5q-209 0 -316 224q-79 -54 -128.5 -154t-49.5 -215q0 -197 129 -338t310 -141q129 0 216 82t103 217q10 82 45 82q39 0 39 -47q0 -39 -18.5 -89.5t-51.5 -95.5
q-59 -86 -162.5 -139t-213.5 -53q-203 0 -338.5 137t-135.5 346q0 268 246 442q-12 45 -12 95q-166 -84 -259 -237t-93 -337q0 -244 172 -405.5t428 -161.5q223 0 389 155.5t166 364.5q0 61 -11 107l-6 45q0 59 52 59q63 0 63 -96q0 -289 -219 -494t-529 -205
q-274 0 -446 162t-172 422q0 209 123 383t344 274q20 138 95 237t216 177q33 98 116 156.5t191 58.5q144 0 243 -89t99 -216t-81 -209q-31 -35 -58 -35q-20 0 -20 21l6 22l6 49q0 97 -100.5 170.5t-231.5 73.5q-53 0 -121 -20l-6 -41q0 -60 35 -82q16 -12 27 -25
q2 -6 -4 -12q-15 -14 -33 -14q-33 0 -55.5 28.5t-22.5 73.5zM644 1079v-39l4 -45q68 19 121 19q78 0 136.5 -35t58.5 -82q0 -45 -43 -45q-19 0 -19 12l2 8l2 19q0 31 -52 59.5t-109 28.5q-35 0 -89 -18q76 -222 248 -222q62 0 103 39t41 96q0 91 -87 151t-223 60
q-57 0 -94 -6zM1427 1329q24 47 24 86q0 109 -88 186.5t-213 77.5q-164 0 -231 -155q82 22 145 22q270 0 363 -217zM1332 1791q24 -2 22 -12q-1 -5 -32 -16l-17 -6q-14 -4 -23 -6t-19 -2q-7 1 -14 6q-8 5 -21 19t-15 16t-1 4q1 7 25 14q75 22 133 63.5t67 80.5
q6 27 -10 44.5t-45 19.5q-39 4 -84.5 -19t-52.5 -53q-2 -8 1 -23v-9q-3 -10 -25 -8q-21 1 -26 14.5t-2 29.5q9 38 80 71.5t139 27.5q57 -5 85.5 -30t20.5 -60q-8 -38 -67 -82t-146 -75q-11 -3 -12 -7q-1 -3 4 -9q1 0 0 0q2 0 1.5 -0.5t20.5 5.5z" />
    <glyph glyph-name="uni1EBB" unicode="&#x1ebb;" horiz-adv-x="608" 
d="M132 231q23 -120 144 -120q98 0 186 82q23 20 37 20q18 0 18 -18q0 -27 -67 -74q-121 -84 -223 -84q-88 0 -143.5 57.5t-55.5 151.5q0 176 140.5 336.5t291.5 160.5q66 0 106 -35.5t40 -95.5q0 -131 -143.5 -247.5t-330.5 -133.5zM130 299v-27q164 17 274.5 104
t110.5 204q0 49 -26.5 77.5t-73.5 28.5q-96 0 -190.5 -127t-94.5 -260zM555 835q24 -2 22 -13q-1 -5 -32 -15l-17 -6q-13 -5 -22.5 -7t-19.5 -1q-6 1 -14 5q-8 6 -20.5 20t-14.5 16t-2 4q2 7 25 13q75 23 133.5 64.5t66.5 79.5q6 28 -10 45t-45 20q-38 3 -84 -19.5
t-52 -52.5q-2 -9 0 -23v-9q-2 -11 -25 -9q-21 2 -26 15.5t-1 28.5q8 39 79 72.5t139 26.5q57 -5 85.5 -30t20.5 -59q-8 -38 -67 -82t-146 -75q-11 -4 -12 -7q0 -3 4 -9q1 -1 0 -1q2 0 1.5 0t20.5 6z" />
    <glyph glyph-name="uni1EBC" unicode="&#x1ebc;" horiz-adv-x="1523" 
d="M849 1409v41q-178 -107 -203 -330q84 15 133 15q140 0 230 -65.5t90 -166.5q0 -86 -62.5 -146.5t-152.5 -60.5q-209 0 -316 224q-79 -54 -128.5 -154t-49.5 -215q0 -197 129 -338t310 -141q129 0 216 82t103 217q10 82 45 82q39 0 39 -47q0 -39 -18.5 -89.5t-51.5 -95.5
q-59 -86 -162.5 -139t-213.5 -53q-203 0 -338.5 137t-135.5 346q0 268 246 442q-12 45 -12 95q-166 -84 -259 -237t-93 -337q0 -244 172 -405.5t428 -161.5q223 0 389 155.5t166 364.5q0 61 -11 107l-6 45q0 59 52 59q63 0 63 -96q0 -289 -219 -494t-529 -205
q-274 0 -446 162t-172 422q0 209 123 383t344 274q20 138 95 237t216 177q33 98 116 156.5t191 58.5q144 0 243 -89t99 -216t-81 -209q-31 -35 -58 -35q-20 0 -20 21l6 22l6 49q0 97 -100.5 170.5t-231.5 73.5q-53 0 -121 -20l-6 -41q0 -60 35 -82q16 -12 27 -25
q2 -6 -4 -12q-15 -14 -33 -14q-33 0 -55.5 28.5t-22.5 73.5zM644 1079v-39l4 -45q68 19 121 19q78 0 136.5 -35t58.5 -82q0 -45 -43 -45q-19 0 -19 12l2 8l2 19q0 31 -52 59.5t-109 28.5q-35 0 -89 -18q76 -222 248 -222q62 0 103 39t41 96q0 91 -87 151t-223 60
q-57 0 -94 -6zM1427 1329q24 47 24 86q0 109 -88 186.5t-213 77.5q-164 0 -231 -155q82 22 145 22q270 0 363 -217zM1292 1877l16 -4l66 -22l35 -6q18 0 28.5 6t36.5 31q11 10 21 10q14 0 14 -15q0 -12 -39 -53q-30 -35 -48.5 -47t-43.5 -12q-22 0 -36.5 4t-80.5 27
q-43 14 -61 14q-31 0 -66 -29q-14 -10 -26 -16q-2 0 -4 -2l-13 12q0 12 31 47q64 68 109 68q10 0 26.5 -4t34.5 -9z" />
    <glyph glyph-name="uni1EBD" unicode="&#x1ebd;" horiz-adv-x="608" 
d="M132 231q23 -120 144 -120q98 0 186 82q23 20 37 20q18 0 18 -18q0 -27 -67 -74q-121 -84 -223 -84q-88 0 -143.5 57.5t-55.5 151.5q0 176 140.5 336.5t291.5 160.5q66 0 106 -35.5t40 -95.5q0 -131 -143.5 -247.5t-330.5 -133.5zM130 299v-27q164 17 274.5 104
t110.5 204q0 49 -26.5 77.5t-73.5 28.5q-96 0 -190.5 -127t-94.5 -260zM462 897q-31 0 -66 -29q-14 -10 -26 -16q-2 0 -4 -2l-13 12q0 12 31 47q64 68 109 68q24 0 61 -13l82 -26l35 -6q18 0 28.5 6t36.5 30q11 11 21 11q14 0 14 -15q0 -12 -39 -53q-30 -35 -48.5 -47
t-43.5 -12q-22 0 -36.5 4t-80.5 26q-43 15 -61 15z" />
    <glyph glyph-name="uni1EBE" unicode="&#x1ebe;" horiz-adv-x="1523" 
d="M849 1409v41q-178 -107 -203 -330q84 15 133 15q140 0 230 -65.5t90 -166.5q0 -86 -62.5 -146.5t-152.5 -60.5q-209 0 -316 224q-79 -54 -128.5 -154t-49.5 -215q0 -197 129 -338t310 -141q129 0 216 82t103 217q10 82 45 82q39 0 39 -47q0 -39 -18.5 -89.5t-51.5 -95.5
q-59 -86 -162.5 -139t-213.5 -53q-203 0 -338.5 137t-135.5 346q0 268 246 442q-12 45 -12 95q-166 -84 -259 -237t-93 -337q0 -244 172 -405.5t428 -161.5q223 0 389 155.5t166 364.5q0 61 -11 107l-6 45q0 59 52 59q63 0 63 -96q0 -289 -219 -494t-529 -205
q-274 0 -446 162t-172 422q0 209 123 383t344 274q20 138 95 237t216 177q33 98 116 156.5t191 58.5q144 0 243 -89t99 -216t-81 -209q-31 -35 -58 -35q-20 0 -20 21l6 22l6 49q0 97 -100.5 170.5t-231.5 73.5q-53 0 -121 -20l-6 -41q0 -60 35 -82q16 -12 27 -25
q2 -6 -4 -12q-15 -14 -33 -14q-33 0 -55.5 28.5t-22.5 73.5zM644 1079v-39l4 -45q68 19 121 19q78 0 136.5 -35t58.5 -82q0 -45 -43 -45q-19 0 -19 12l2 8l2 19q0 31 -52 59.5t-109 28.5q-35 0 -89 -18q76 -222 248 -222q62 0 103 39t41 96q0 91 -87 151t-223 60
q-57 0 -94 -6zM1427 1329q24 47 24 86q0 109 -88 186.5t-213 77.5q-164 0 -231 -155q82 22 145 22q270 0 363 -217zM1538 2054q17 0 49 -33q19 -18 19 -30q0 -15 -23.5 -41.5t-52.5 -42.5q-47 -31 -94 -31q-23 0 -23 19q0 10 21 22q63 35 80 115q6 22 24 22zM1347 1909
l96 -111l20 -29q0 -12 -36 -12h-37q-35 0 -56 25l-32 41q-19 20 -35 20q-6 0 -39 -14l-113 -49l-43 -15q-6 0 -10 4.5t-4 6.5q0 12 39 39l149 104q23 16 31 20.5t21 4.5q12 0 19 -4.5t30 -30.5z" />
    <glyph glyph-name="uni1EBF" unicode="&#x1ebf;" horiz-adv-x="608" 
d="M132 231q23 -120 144 -120q98 0 186 82q23 20 37 20q18 0 18 -18q0 -27 -67 -74q-121 -84 -223 -84q-88 0 -143.5 57.5t-55.5 151.5q0 176 140.5 336.5t291.5 160.5q66 0 106 -35.5t40 -95.5q0 -131 -143.5 -247.5t-330.5 -133.5zM130 299v-27q164 17 274.5 104
t110.5 204q0 49 -26.5 77.5t-73.5 28.5q-96 0 -190.5 -127t-94.5 -260zM752 1160q16 0 49 -33q18 -18 18 -30q0 -15 -23.5 -41.5t-52.5 -42.5q-47 -31 -94 -31q-22 0 -22 18q0 11 20 23q64 35 80 115q6 22 25 22zM575 997l93 -104q8 -10 12 -16.5t6 -12.5q0 -10 -35 -10h-35
q-30 0 -53 25l-33 36q-16 21 -28 21q-21 -4 -39 -12l-109 -47l-39 -15q-6 0 -10 4t-4 6q0 13 37 37l143 99q31 22 47 22q11 0 19 -5t28 -28z" />
    <glyph glyph-name="uni1EC0" unicode="&#x1ec0;" horiz-adv-x="1523" 
d="M849 1409v41q-178 -107 -203 -330q84 15 133 15q140 0 230 -65.5t90 -166.5q0 -86 -62.5 -146.5t-152.5 -60.5q-209 0 -316 224q-79 -54 -128.5 -154t-49.5 -215q0 -197 129 -338t310 -141q129 0 216 82t103 217q10 82 45 82q39 0 39 -47q0 -39 -18.5 -89.5t-51.5 -95.5
q-59 -86 -162.5 -139t-213.5 -53q-203 0 -338.5 137t-135.5 346q0 268 246 442q-12 45 -12 95q-166 -84 -259 -237t-93 -337q0 -244 172 -405.5t428 -161.5q223 0 389 155.5t166 364.5q0 61 -11 107l-6 45q0 59 52 59q63 0 63 -96q0 -289 -219 -494t-529 -205
q-274 0 -446 162t-172 422q0 209 123 383t344 274q20 138 95 237t216 177q33 98 116 156.5t191 58.5q144 0 243 -89t99 -216t-81 -209q-31 -35 -58 -35q-20 0 -20 21l6 22l6 49q0 97 -100.5 170.5t-231.5 73.5q-53 0 -121 -20l-6 -41q0 -60 35 -82q16 -12 27 -25
q2 -6 -4 -12q-15 -14 -33 -14q-33 0 -55.5 28.5t-22.5 73.5zM644 1079v-39l4 -45q68 19 121 19q78 0 136.5 -35t58.5 -82q0 -45 -43 -45q-19 0 -19 12l2 8l2 19q0 31 -52 59.5t-109 28.5q-35 0 -89 -18q76 -222 248 -222q62 0 103 39t41 96q0 91 -87 151t-223 60
q-57 0 -94 -6zM1427 1329q24 47 24 86q0 109 -88 186.5t-213 77.5q-164 0 -231 -155q82 22 145 22q270 0 363 -217zM1101 2101q16 0 24 -22q21 -82 80 -115q21 -12 21 -22q0 -19 -23 -19q-47 0 -94 31q-31 18 -53.5 42.5t-22.5 41.5q0 14 25.5 38.5t42.5 24.5zM1347 1909
l96 -111l20 -29q0 -12 -36 -12h-37q-35 0 -56 25l-32 41q-19 20 -35 20q-6 0 -39 -14l-113 -49l-43 -15q-6 0 -10 4.5t-4 6.5q0 12 39 39l149 104q23 16 31 20.5t21 4.5q12 0 19 -4.5t30 -30.5z" />
    <glyph glyph-name="uni1EC1" unicode="&#x1ec1;" horiz-adv-x="608" 
d="M132 231q23 -120 144 -120q98 0 186 82q23 20 37 20q18 0 18 -18q0 -27 -67 -74q-121 -84 -223 -84q-88 0 -143.5 57.5t-55.5 151.5q0 176 140.5 336.5t291.5 160.5q66 0 106 -35.5t40 -95.5q0 -131 -143.5 -247.5t-330.5 -133.5zM130 299v-27q164 17 274.5 104
t110.5 204q0 49 -26.5 77.5t-73.5 28.5q-96 0 -190.5 -127t-94.5 -260zM542 1207q17 0 25 -22q20 -82 80 -115q20 -12 20 -23q0 -18 -22 -18q-47 0 -95 31q-30 18 -52.5 42.5t-22.5 41.5q0 14 25.5 38.5t41.5 24.5zM575 997l93 -104q8 -10 12 -16.5t6 -12.5q0 -10 -35 -10
h-35q-30 0 -53 25l-33 36q-16 21 -28 21q-21 -4 -39 -12l-109 -47l-39 -15q-6 0 -10 4t-4 6q0 13 37 37l143 99q31 22 47 22q11 0 19 -5t28 -28z" />
    <glyph glyph-name="uni1EC2" unicode="&#x1ec2;" horiz-adv-x="1523" 
d="M849 1409v41q-178 -107 -203 -330q84 15 133 15q140 0 230 -65.5t90 -166.5q0 -86 -62.5 -146.5t-152.5 -60.5q-209 0 -316 224q-79 -54 -128.5 -154t-49.5 -215q0 -197 129 -338t310 -141q129 0 216 82t103 217q10 82 45 82q39 0 39 -47q0 -39 -18.5 -89.5t-51.5 -95.5
q-59 -86 -162.5 -139t-213.5 -53q-203 0 -338.5 137t-135.5 346q0 268 246 442q-12 45 -12 95q-166 -84 -259 -237t-93 -337q0 -244 172 -405.5t428 -161.5q223 0 389 155.5t166 364.5q0 61 -11 107l-6 45q0 59 52 59q63 0 63 -96q0 -289 -219 -494t-529 -205
q-274 0 -446 162t-172 422q0 209 123 383t344 274q20 138 95 237t216 177q33 98 116 156.5t191 58.5q144 0 243 -89t99 -216t-81 -209q-31 -35 -58 -35q-20 0 -20 21l6 22l6 49q0 97 -100.5 170.5t-231.5 73.5q-53 0 -121 -20l-6 -41q0 -60 35 -82q16 -12 27 -25
q2 -6 -4 -12q-15 -14 -33 -14q-33 0 -55.5 28.5t-22.5 73.5zM644 1079v-39l4 -45q68 19 121 19q78 0 136.5 -35t58.5 -82q0 -45 -43 -45q-19 0 -19 12l2 8l2 19q0 31 -52 59.5t-109 28.5q-35 0 -89 -18q76 -222 248 -222q62 0 103 39t41 96q0 91 -87 151t-223 60
q-57 0 -94 -6zM1427 1329q24 47 24 86q0 109 -88 186.5t-213 77.5q-164 0 -231 -155q82 22 145 22q270 0 363 -217zM1521 1905q24 -2 22 -12q-1 -5 -32 -16l-17 -6q-14 -4 -23 -6t-19 -2q-7 1 -14 6q-8 5 -21 19t-15 16t-1 4q1 7 25 14q75 22 133 63.5t67 80.5
q6 27 -10 44.5t-45 19.5q-39 4 -84.5 -19t-52.5 -53q-2 -8 1 -23v-9q-3 -10 -25 -8q-21 1 -26 14.5t-2 29.5q9 38 80 71.5t139 27.5q57 -5 85.5 -30t20.5 -60q-8 -38 -67 -82t-146 -75q-11 -3 -12 -7q-1 -3 4 -9q1 0 0 0q2 0 1.5 -0.5t20.5 5.5zM1347 1909l96 -111l20 -29
q0 -12 -36 -12h-37q-35 0 -56 25l-32 41q-19 20 -35 20q-6 0 -39 -14l-113 -49l-43 -15q-6 0 -10 4.5t-4 6.5q0 12 39 39l149 104q23 16 31 20.5t21 4.5q12 0 19 -4.5t30 -30.5z" />
    <glyph glyph-name="uni1EC3" unicode="&#x1ec3;" horiz-adv-x="608" 
d="M132 231q23 -120 144 -120q98 0 186 82q23 20 37 20q18 0 18 -18q0 -27 -67 -74q-121 -84 -223 -84q-88 0 -143.5 57.5t-55.5 151.5q0 176 140.5 336.5t291.5 160.5q66 0 106 -35.5t40 -95.5q0 -131 -143.5 -247.5t-330.5 -133.5zM130 299v-27q164 17 274.5 104
t110.5 204q0 49 -26.5 77.5t-73.5 28.5q-96 0 -190.5 -127t-94.5 -260zM744 1004q24 -2 22 -13q-1 -5 -32 -15l-17 -6q-13 -5 -22.5 -7t-19.5 -1q-6 1 -14 5q-8 6 -20.5 20t-14.5 16t-2 4q2 7 25 13q75 23 133.5 64.5t66.5 79.5q6 28 -10 45t-45 20q-38 3 -84 -19.5
t-52 -52.5q-2 -9 0 -23v-9q-2 -11 -25 -9q-21 2 -26 15.5t-1 28.5q8 39 79 72.5t139 26.5q57 -5 85.5 -30t20.5 -59q-8 -38 -67 -82t-146 -75q-11 -4 -12 -7q0 -3 4 -9q1 -1 0 -1q2 0 1.5 0t20.5 6zM575 997l92 -104q8 -10 12 -16.5t6 -12.5q0 -10 -34 -10h-35q-31 0 -53 25
l-33 36q-17 21 -29 21q-20 -4 -39 -12l-108 -47l-39 -15q-6 0 -10.5 4t-4.5 6q0 13 37 37l144 99q30 22 47 22q10 0 18 -5t29 -28z" />
    <glyph glyph-name="uni1EC4" unicode="&#x1ec4;" horiz-adv-x="1523" 
d="M849 1409v41q-178 -107 -203 -330q84 15 133 15q140 0 230 -65.5t90 -166.5q0 -86 -62.5 -146.5t-152.5 -60.5q-209 0 -316 224q-79 -54 -128.5 -154t-49.5 -215q0 -197 129 -338t310 -141q129 0 216 82t103 217q10 82 45 82q39 0 39 -47q0 -39 -18.5 -89.5t-51.5 -95.5
q-59 -86 -162.5 -139t-213.5 -53q-203 0 -338.5 137t-135.5 346q0 268 246 442q-12 45 -12 95q-166 -84 -259 -237t-93 -337q0 -244 172 -405.5t428 -161.5q223 0 389 155.5t166 364.5q0 61 -11 107l-6 45q0 59 52 59q63 0 63 -96q0 -289 -219 -494t-529 -205
q-274 0 -446 162t-172 422q0 209 123 383t344 274q20 138 95 237t216 177q33 98 116 156.5t191 58.5q144 0 243 -89t99 -216t-81 -209q-31 -35 -58 -35q-20 0 -20 21l6 22l6 49q0 97 -100.5 170.5t-231.5 73.5q-53 0 -121 -20l-6 -41q0 -60 35 -82q16 -12 27 -25
q2 -6 -4 -12q-15 -14 -33 -14q-33 0 -55.5 28.5t-22.5 73.5zM644 1079v-39l4 -45q68 19 121 19q78 0 136.5 -35t58.5 -82q0 -45 -43 -45q-19 0 -19 12l2 8l2 19q0 31 -52 59.5t-109 28.5q-35 0 -89 -18q76 -222 248 -222q62 0 103 39t41 96q0 91 -87 151t-223 60
q-57 0 -94 -6zM1427 1329q24 47 24 86q0 109 -88 186.5t-213 77.5q-164 0 -231 -155q82 22 145 22q270 0 363 -217zM1358 2056l16 -4l66 -22l35 -6q18 0 28.5 6t36.5 31q11 10 21 10q14 0 14 -15q0 -12 -39 -53q-30 -35 -48.5 -47t-43.5 -12q-22 0 -36.5 4t-80.5 27
q-43 14 -61 14q-31 0 -66 -29q-14 -10 -26 -16q-2 0 -4 -2l-13 12q0 12 31 47q64 68 109 68q10 0 26.5 -4t34.5 -9zM1347 1909l96 -111l20 -29q0 -12 -36 -12h-37q-35 0 -56 25l-32 41q-19 20 -35 20q-6 0 -39 -14l-113 -49l-43 -15q-6 0 -10 4.5t-4 6.5q0 12 39 39l149 104
q23 16 31 20.5t21 4.5q12 0 19 -4.5t30 -30.5z" />
    <glyph glyph-name="uni1EC5" unicode="&#x1ec5;" horiz-adv-x="608" 
d="M132 231q23 -120 144 -120q98 0 186 82q23 20 37 20q18 0 18 -18q0 -27 -67 -74q-121 -84 -223 -84q-88 0 -143.5 57.5t-55.5 151.5q0 176 140.5 336.5t291.5 160.5q66 0 106 -35.5t40 -95.5q0 -131 -143.5 -247.5t-330.5 -133.5zM130 299v-27q164 17 274.5 104
t110.5 204q0 49 -26.5 77.5t-73.5 28.5q-96 0 -190.5 -127t-94.5 -260zM500 1077q-31 0 -66 -29q-14 -10 -26 -16q-2 0 -4 -2l-13 12q0 12 31 47q64 68 109 68q24 0 61 -13l82 -26l35 -6q18 0 28.5 6t36.5 30q11 11 21 11q14 0 14 -15q0 -12 -39 -53q-30 -35 -48.5 -47
t-43.5 -12q-22 0 -36.5 4t-80.5 26q-43 15 -61 15zM575 997l92 -104q8 -10 12 -16.5t6 -12.5q0 -10 -34 -10h-35q-31 0 -53 25l-33 36q-17 21 -29 21q-20 -4 -39 -12l-108 -47l-39 -15q-6 0 -10.5 4t-4.5 6q0 13 37 37l144 99q30 22 47 22q10 0 18 -5t29 -28z" />
    <glyph glyph-name="uni1EC6" unicode="&#x1ec6;" horiz-adv-x="1523" 
d="M849 1409v41q-178 -107 -203 -330q84 15 133 15q140 0 230 -65.5t90 -166.5q0 -86 -62.5 -146.5t-152.5 -60.5q-209 0 -316 224q-79 -54 -128.5 -154t-49.5 -215q0 -197 129 -338t310 -141q129 0 216 82t103 217q10 82 45 82q39 0 39 -47q0 -39 -18.5 -89.5t-51.5 -95.5
q-59 -86 -162.5 -139t-213.5 -53q-203 0 -338.5 137t-135.5 346q0 268 246 442q-12 45 -12 95q-166 -84 -259 -237t-93 -337q0 -244 172 -405.5t428 -161.5q223 0 389 155.5t166 364.5q0 61 -11 107l-6 45q0 59 52 59q63 0 63 -96q0 -289 -219 -494t-529 -205
q-274 0 -446 162t-172 422q0 209 123 383t344 274q20 138 95 237t216 177q33 98 116 156.5t191 58.5q144 0 243 -89t99 -216t-81 -209q-31 -35 -58 -35q-20 0 -20 21l6 22l6 49q0 97 -100.5 170.5t-231.5 73.5q-53 0 -121 -20l-6 -41q0 -60 35 -82q16 -12 27 -25
q2 -6 -4 -12q-15 -14 -33 -14q-33 0 -55.5 28.5t-22.5 73.5zM644 1079v-39l4 -45q68 19 121 19q78 0 136.5 -35t58.5 -82q0 -45 -43 -45q-19 0 -19 12l2 8l2 19q0 31 -52 59.5t-109 28.5q-35 0 -89 -18q76 -222 248 -222q62 0 103 39t41 96q0 91 -87 151t-223 60
q-57 0 -94 -6zM1427 1329q24 47 24 86q0 109 -88 186.5t-213 77.5q-164 0 -231 -155q82 22 145 22q270 0 363 -217zM446 -210q6 -4 11 -9t20.5 -35t15.5 -36q0 -8 -5 -15t-28.5 -33t-38.5 -26q-12 0 -35 41q-12 23 -14 29t-2 12q0 11 9 20t32 27l8 9q10 8 17.5 11t9.5 5z
M1347 1909l96 -111l20 -29q0 -12 -36 -12h-37q-35 0 -56 25l-32 41q-19 20 -35 20q-6 0 -39 -14l-113 -49l-43 -15q-6 0 -10 4.5t-4 6.5q0 12 39 39l149 104q23 16 31 20.5t21 4.5q12 0 19 -4.5t30 -30.5z" />
    <glyph glyph-name="uni1EC7" unicode="&#x1ec7;" horiz-adv-x="608" 
d="M132 231q23 -120 144 -120q98 0 186 82q23 20 37 20q18 0 18 -18q0 -27 -67 -74q-121 -84 -223 -84q-88 0 -143.5 57.5t-55.5 151.5q0 176 140.5 336.5t291.5 160.5q66 0 106 -35.5t40 -95.5q0 -131 -143.5 -247.5t-330.5 -133.5zM130 299v-27q164 17 274.5 104
t110.5 204q0 49 -26.5 77.5t-73.5 28.5q-96 0 -190.5 -127t-94.5 -260zM171 -40q6 -4 11 -9t20.5 -35t15.5 -36q0 -8 -5 -15t-28.5 -33t-37.5 -26q-13 0 -35 41q-13 23 -15 29t-2 12q0 11 9.5 20t31.5 27l8 9q11 8 18 11t9 5zM575 997l92 -104q8 -10 12 -16.5t6 -12.5
q0 -10 -34 -10h-35q-31 0 -53 25l-33 36q-17 21 -29 21q-20 -4 -39 -12l-108 -47l-39 -15q-6 0 -10.5 4t-4.5 6q0 13 37 37l144 99q30 22 47 22q10 0 18 -5t29 -28z" />
    <glyph glyph-name="uni1EC8" unicode="&#x1ec8;" horiz-adv-x="1640" 
d="M1407 754l104 286q29 80 44.5 95.5t111.5 66.5q-166 135 -372 217t-380 82q-243 0 -407 -139t-164 -346q0 -137 96 -235.5t232 -98.5q86 0 190 51l12 2q4 0 13 -10q0 -2 2 -4q0 -14 -49 -37q-105 -45 -222 -45q-164 0 -263 99.5t-99 262.5q0 230 215 389.5t522 159.5
q219 0 437 -84t374 -229q-80 -27 -118 -90.5t-162 -370.5l-11 -26l43 -2q101 0 174 98q9 12 14 14t7 4q4 0 12 -10q0 -2 2 -4q0 -23 -28.5 -57.5t-70.5 -62.5t-82 -42t-85 -14h-14l-35 -88q-80 -203 -161 -325t-196 -214q-208 -166 -454 -166q-99 0 -191 26.5t-166 76.5
q-104 69 -104 125q0 20 13.5 33.5t33.5 13.5q23 0 38 -13.5t63.5 -80t135.5 -103.5t191 -37q215 0 393.5 167t290.5 478l39 109l-55 4h-45q-72 -266 -259.5 -447.5t-389.5 -181.5q-78 0 -151 37t-73 78q0 33 35 33q19 0 35 -23q43 -53 78 -71.5t90 -18.5q174 0 338 168
t233 420q-135 0 -205 -113q-22 -37 -30 -37q-4 0 -9.5 6.5t-5.5 8.5q0 10 17 41q8 14 20 32q41 60 92.5 91.5t133.5 48.5q4 32 8 74t4 87q0 172 -102.5 289t-254.5 117q-110 0 -192 -84t-82 -199q0 -82 42 -136t103 -54h15l18 2q15 0 15 -12q2 -11 -20.5 -19t-59.5 -8
q-78 0 -131.5 59.5t-53.5 147.5q0 139 115 239.5t274 100.5q168 0 279 -121t111 -305q0 -66 -19 -170h17zM1502 1603q24 -2 22 -12q-2 -5 -33 -16l-16 -6q-14 -4 -23 -6t-19 -2q-7 1 -15 6t-20.5 19t-14.5 16t-1 4q1 7 25 14q75 22 133 63.5t67 80.5q6 27 -10.5 44.5
t-44.5 19.5q-39 4 -84.5 -19t-52.5 -53q-2 -8 0 -23v-9q-2 -10 -25 -8q-20 1 -25 14.5t-2 29.5q9 38 80 71.5t139 27.5q57 -5 85.5 -30t20.5 -60q-8 -38 -67.5 -82t-145.5 -75q-12 -3 -12 -7q-1 -3 4 -9v0q2 0 1.5 -0.5t19.5 5.5z" />
    <glyph glyph-name="uni1EC9" unicode="&#x1ec9;" horiz-adv-x="364" 
d="M315 616l-158 -421l-14 -54q0 -14 12 -14q10 0 31 12l32 15q21 0 21 -21q0 -16 -70.5 -57t-103.5 -41t-33 31q0 4 8 27.5t15 43.5l137 402l10 28l8 31q0 16 -16 16q-12 -4 -21.5 -11t-25.5 -13q-2 0 -4 -2q-19 0 -19 18q0 10 22.5 29.5t71.5 48.5q66 43 93 43
q30 0 30 -25q0 -8 -1 -14t-25 -72zM357 835q24 -2 22 -13q-1 -5 -32 -15l-17 -6q-14 -5 -23 -7t-19 -1q-7 1 -14 5q-8 6 -20.5 20t-14.5 16t-2 4q2 7 25 13q75 23 133.5 64.5t66.5 79.5q6 28 -10 45t-45 20q-39 3 -84.5 -19.5t-51.5 -52.5q-2 -9 0 -23v-9q-3 -11 -25 -9
q-21 2 -26 15.5t-1 28.5q8 39 79 72.5t139 26.5q57 -5 85.5 -30t20.5 -59q-8 -38 -67 -82t-146 -75q-11 -4 -12 -7t4 -9q1 -1 0 -1q2 0 1.5 0t20.5 6z" />
    <glyph glyph-name="uni1ECA" unicode="&#x1eca;" horiz-adv-x="1640" 
d="M1407 754l104 286q29 80 44.5 95.5t111.5 66.5q-166 135 -372 217t-380 82q-243 0 -407 -139t-164 -346q0 -137 96 -235.5t232 -98.5q86 0 190 51l12 2q4 0 13 -10q0 -2 2 -4q0 -14 -49 -37q-105 -45 -222 -45q-164 0 -263 99.5t-99 262.5q0 230 215 389.5t522 159.5
q219 0 437 -84t374 -229q-80 -27 -118 -90.5t-162 -370.5l-11 -26l43 -2q101 0 174 98q9 12 14 14t7 4q4 0 12 -10q0 -2 2 -4q0 -23 -28.5 -57.5t-70.5 -62.5t-82 -42t-85 -14h-14l-35 -88q-80 -203 -161 -325t-196 -214q-208 -166 -454 -166q-99 0 -191 26.5t-166 76.5
q-104 69 -104 125q0 20 13.5 33.5t33.5 13.5q23 0 38 -13.5t63.5 -80t135.5 -103.5t191 -37q215 0 393.5 167t290.5 478l39 109l-55 4h-45q-72 -266 -259.5 -447.5t-389.5 -181.5q-78 0 -151 37t-73 78q0 33 35 33q19 0 35 -23q43 -53 78 -71.5t90 -18.5q174 0 338 168
t233 420q-135 0 -205 -113q-22 -37 -30 -37q-4 0 -9.5 6.5t-5.5 8.5q0 10 17 41q8 14 20 32q41 60 92.5 91.5t133.5 48.5q4 32 8 74t4 87q0 172 -102.5 289t-254.5 117q-110 0 -192 -84t-82 -199q0 -82 42 -136t103 -54h15l18 2q15 0 15 -12q2 -11 -20.5 -19t-59.5 -8
q-78 0 -131.5 59.5t-53.5 147.5q0 139 115 239.5t274 100.5q168 0 279 -121t111 -305q0 -66 -19 -170h17zM711 -210q6 -4 11 -9t20.5 -35t15.5 -36q0 -8 -5.5 -15t-29 -33t-37.5 -26q-12 0 -35 41q-12 23 -14 29t-2 12q0 11 9 20t32 27l8 9q10 8 17.5 11t9.5 5z" />
    <glyph glyph-name="uni1ECB" unicode="&#x1ecb;" horiz-adv-x="364" 
d="M333 989l53 39q12 8 21 10h2q12 0 23 -21.5t11 -45.5q0 -68 -90 -140q-32 -26 -41 -26q-18 0 -18 14q6 12 14 19q37 32 37 71q0 21 -18 37q-9 8 -12 13.5t-3 7.5q9 14 21 22zM314 616l-157 -421l-15 -54q0 -14 13 -14q10 0 30 12l33 15q21 0 21 -21q0 -16 -71 -57
t-103 -41q-33 0 -33 31q0 4 8 27.5t14 43.5l138 402l10 28l8 31q0 16 -16 16q-13 -4 -22 -11t-26 -13q-2 0 -4 -2q-18 0 -18 18q0 10 22.5 29.5t71.5 48.5q66 43 92 43q31 0 31 -25q0 -8 -1 -14t-26 -72zM77 -40q6 -4 11 -9t20.5 -35t15.5 -36q0 -8 -5 -15t-28.5 -33
t-38.5 -26q-12 0 -35 41q-12 23 -14 29t-2 12q0 11 9 20t32 27l8 9q10 8 17.5 11t9.5 5z" />
    <glyph glyph-name="uni1ECC" unicode="&#x1ecc;" 
d="M696 -16q-84 -68 -174 -101t-197 -33q-98 0 -178 35t-80 80q0 37 37 37q16 0 22 -4q31 -23 62 -45q84 -64 188 -64q152 0 279 105q-203 72 -311.5 221.5t-108.5 357.5q0 218 121 405t317 275q217 408 588 408q236 0 387.5 -171t151.5 -437q0 -404 -309.5 -742
t-680.5 -338q-53 0 -114 11zM874 918l18 -222q4 -28 4 -67v-78q0 -164 -30.5 -277.5t-104.5 -218.5q74 -16 129 -16q158 0 307.5 86t257 240.5t171 351t63.5 381.5q0 221 -132 371.5t-327 150.5q-231 0 -386.5 -194.5t-155.5 -485.5q0 -84 12 -186l8 -70l10 -70l8 -69
q11 -82 11 -154q0 -108 -24.5 -159.5t-104.5 -106.5q59 -37 118 -57q66 90 92.5 182t26.5 229q0 27 -4 91.5t-4 66.5l-8 102l-6 52q-4 38 -7.5 83.5t-3.5 79.5q0 211 78 336q49 82 144.5 135.5t193.5 53.5q152 0 256.5 -111t104.5 -272q0 -162 -117 -289t-266 -127
q-92 0 -92 51q0 37 40 37q15 0 59 -11.5t75 -11.5q92 0 169.5 99.5t77.5 218.5q0 154 -100 256t-254 102q-143 0 -227 -102t-84 -283v-55t4 -63zM645 1180q-152 -54 -236 -189t-84 -323q0 -162 66.5 -299.5t185.5 -223.5q59 35 82.5 75t23.5 110q0 45 -18 155l-37 174
q-26 134 -26 256q0 127 43 265zM710 -210q6 -4 11.5 -9t20.5 -35t15 -36q0 -8 -5 -15t-28.5 -33t-37.5 -26q-13 0 -35 41q-12 23 -14.5 29t-2.5 12q0 11 9.5 20t31.5 27l9 9q10 8 17 11t9 5z" />
    <glyph glyph-name="uni1ECD" unicode="&#x1ecd;" horiz-adv-x="716" 
d="M450 745q104 0 166.5 -66.5t62.5 -176.5q0 -164 -139 -315.5t-291 -151.5q-92 0 -153.5 65.5t-61.5 167.5q0 172 132 324.5t284 152.5zM417 690q-104 0 -191.5 -124t-87.5 -271q0 -88 44.5 -144.5t111.5 -56.5q100 0 189.5 126t89.5 267q0 95 -42 149t-114 54zM171 -40
q6 -4 11 -9t20.5 -35t15.5 -36q0 -8 -5 -15t-28.5 -33t-38.5 -26q-12 0 -34 41q-13 23 -15 29t-2 12q0 11 9.5 20t31.5 27l8 9q11 8 18 11t9 5z" />
    <glyph glyph-name="uni1ECE" unicode="&#x1ece;" 
d="M696 -16q-84 -68 -174 -101t-197 -33q-98 0 -178 35t-80 80q0 37 37 37q16 0 22 -4q31 -23 62 -45q84 -64 188 -64q152 0 279 105q-203 72 -311.5 221.5t-108.5 357.5q0 218 121 405t317 275q217 408 588 408q236 0 387.5 -171t151.5 -437q0 -404 -309.5 -742
t-680.5 -338q-53 0 -114 11zM874 918l18 -222q4 -28 4 -67v-78q0 -164 -30.5 -277.5t-104.5 -218.5q74 -16 129 -16q158 0 307.5 86t257 240.5t171 351t63.5 381.5q0 221 -132 371.5t-327 150.5q-231 0 -386.5 -194.5t-155.5 -485.5q0 -84 12 -186l8 -70l10 -70l8 -69
q11 -82 11 -154q0 -108 -24.5 -159.5t-104.5 -106.5q59 -37 118 -57q66 90 92.5 182t26.5 229q0 27 -4 91.5t-4 66.5l-8 102l-6 52q-4 38 -7.5 83.5t-3.5 79.5q0 211 78 336q49 82 144.5 135.5t193.5 53.5q152 0 256.5 -111t104.5 -272q0 -162 -117 -289t-266 -127
q-92 0 -92 51q0 37 40 37q15 0 59 -11.5t75 -11.5q92 0 169.5 99.5t77.5 218.5q0 154 -100 256t-254 102q-143 0 -227 -102t-84 -283v-55t4 -63zM645 1180q-152 -54 -236 -189t-84 -323q0 -162 66.5 -299.5t185.5 -223.5q59 35 82.5 75t23.5 110q0 45 -18 155l-37 174
q-26 134 -26 256q0 127 43 265zM1501 1725q24 -2 22 -12q-1 -5 -32 -16l-17 -6q-13 -4 -22 -6t-19 -2q-7 1 -15 6t-20.5 19t-14.5 16t-2 4q2 7 25 14q75 22 133.5 63.5t66.5 80.5q6 27 -10 44.5t-45 19.5q-38 4 -84 -19t-52 -53q-2 -8 0 -23v-9q-2 -10 -25 -8
q-21 1 -26 14.5t-1 29.5q8 38 79 71.5t139 27.5q57 -5 85.5 -30t21.5 -60q-9 -38 -68 -82t-146 -75q-11 -3 -12 -7q0 -3 4 -9q1 0 0 0q2 0 1.5 -0.5t20.5 5.5z" />
    <glyph glyph-name="uni1ECF" unicode="&#x1ecf;" horiz-adv-x="716" 
d="M450 745q104 0 166.5 -66.5t62.5 -176.5q0 -164 -139 -315.5t-291 -151.5q-92 0 -153.5 65.5t-61.5 167.5q0 172 132 324.5t284 152.5zM417 690q-104 0 -191.5 -124t-87.5 -271q0 -88 44.5 -144.5t111.5 -56.5q100 0 189.5 126t89.5 267q0 95 -42 149t-114 54zM555 835
q24 -2 22 -13q-1 -5 -32 -15l-17 -6q-14 -5 -23 -7t-19 -1q-7 1 -14 5q-8 6 -21 20t-14.5 16t-1.5 4q2 7 25 13q75 23 133.5 64.5t66.5 79.5q6 28 -10 45t-45 20q-39 3 -84.5 -19.5t-51.5 -52.5q-2 -9 0 -23v-9q-3 -11 -25 -9q-21 2 -26 15.5t-1 28.5q8 39 79 72.5t139 26.5
q57 -5 85.5 -30t20.5 -59q-8 -38 -67 -82t-146 -75q-11 -4 -12 -7t4 -9q1 -1 0 -1q2 0 1.5 0t20.5 6z" />
    <glyph glyph-name="uni1ED0" unicode="&#x1ed0;" 
d="M696 -16q-84 -68 -174 -101t-197 -33q-98 0 -178 35t-80 80q0 37 37 37q16 0 22 -4q31 -23 62 -45q84 -64 188 -64q152 0 279 105q-203 72 -311.5 221.5t-108.5 357.5q0 218 121 405t317 275q217 408 588 408q236 0 387.5 -171t151.5 -437q0 -404 -309.5 -742
t-680.5 -338q-53 0 -114 11zM874 918l18 -222q4 -28 4 -67v-78q0 -164 -30.5 -277.5t-104.5 -218.5q74 -16 129 -16q158 0 307.5 86t257 240.5t171 351t63.5 381.5q0 221 -132 371.5t-327 150.5q-231 0 -386.5 -194.5t-155.5 -485.5q0 -84 12 -186l8 -70l10 -70l8 -69
q11 -82 11 -154q0 -108 -24.5 -159.5t-104.5 -106.5q59 -37 118 -57q66 90 92.5 182t26.5 229q0 27 -4 91.5t-4 66.5l-8 102l-6 52q-4 38 -7.5 83.5t-3.5 79.5q0 211 78 336q49 82 144.5 135.5t193.5 53.5q152 0 256.5 -111t104.5 -272q0 -162 -117 -289t-266 -127
q-92 0 -92 51q0 37 40 37q15 0 59 -11.5t75 -11.5q92 0 169.5 99.5t77.5 218.5q0 154 -100 256t-254 102q-143 0 -227 -102t-84 -283v-55t4 -63zM645 1180q-152 -54 -236 -189t-84 -323q0 -162 66.5 -299.5t185.5 -223.5q59 35 82.5 75t23.5 110q0 45 -18 155l-37 174
q-26 134 -26 256q0 127 43 265zM1650 2063q17 0 50 -33q18 -18 18 -30q0 -15 -23.5 -41.5t-52.5 -42.5q-47 -31 -94 -31q-22 0 -22 19q0 10 20 22q63 35 80 115q6 22 24 22zM1476 1909l96 -111l21 -29q0 -12 -37 -12h-37q-35 0 -55 25l-33 41q-18 20 -35 20q-6 0 -39 -14
l-112 -49l-43 -15q-7 0 -11 4.5t-4 6.5q0 12 39 39l150 104q22 16 30.5 20.5t20.5 4.5t19 -4.5t30 -30.5z" />
    <glyph glyph-name="uni1ED1" unicode="&#x1ed1;" horiz-adv-x="716" 
d="M450 745q104 0 166.5 -66.5t62.5 -176.5q0 -164 -139 -315.5t-291 -151.5q-92 0 -153.5 65.5t-61.5 167.5q0 172 132 324.5t284 152.5zM417 690q-104 0 -191.5 -124t-87.5 -271q0 -88 44.5 -144.5t111.5 -56.5q100 0 189.5 126t89.5 267q0 95 -42 149t-114 54zM789 1150
q16 0 49 -33q19 -18 19 -30q0 -15 -23.5 -41.5t-52.5 -42.5q-47 -31 -94 -31q-23 0 -23 18q0 11 21 23q63 35 79 115q7 22 25 22zM616 997l92 -104q8 -10 12 -16.5t6 -12.5q0 -10 -35 -10h-34q-31 0 -54 25l-32 36q-17 21 -29 21q-21 -4 -39 -12l-109 -47l-38 -15
q-7 0 -11 4t-4 6q0 13 37 37l143 99q31 22 48 22q10 0 18 -5t29 -28z" />
    </font>
</defs>
</svg>
