<svg xmlns="http://www.w3.org/2000/svg">
<defs>
<font id="UTMIsadoraBold" horiz-adv-x="1214" >
  <font-face 
    font-family="UTM Isadora"
    font-weight="700"
    font-stretch="normal"
    units-per-em="2048"
    panose-1="2 4 6 3 5 5 6 2 2 4"
    ascent="1638"
    descent="-410"
    x-height="966.998"
    cap-height="1366"
    bbox="-863.998 -532.002 4942 2070"
    underline-thickness="109"
    underline-position="-143"
    unicode-range="U+0020-U+2026"
  />
<missing-glyph horiz-adv-x="5040" 
d="M3351 2045h10c24.667 -6.66699 37 -24 37 -52c0 -8 -10.667 -27 -32 -57h-28c0 16 9.33301 34 28 54l2 10c-3.33301 8.66699 -6.66602 13.667 -10 15h-9c-5.33301 0 -8.66602 -6.33301 -10 -19h-30c4 32.667 18 49 42 49zM2019 2016l29.001 -31
c0 -10.667 -13.333 -20.667 -40 -30h-19l-59 12l-11 -12l-28 25c7.33301 19.333 21.666 29 42.999 29h11l42 -11h2c6.66699 0 16.667 6 30 18zM468.001 1980h142v-60h-94v-75h89v-59h-89v-129l-5 -5h-49v323zM1155 1980h43l6 -5v-78h30v-52h-30v-188l-6 -5h-49v193h-25v52
h25v78zM1621 1980h41.999l4 -5v-94h3c15.333 16 33.333 24 54 24h2c38.667 0 66.334 -23.667 83.001 -71l2 -39v-143h-52v115c0 53.333 -14 80 -42 80h-7c-28.667 0 -43 -28.667 -43 -86v-109h-51v323zM2200 1980l49 -0.000976562l5 -5v-222c6.66699 -34 21.667 -51 45 -51
c29.333 4.66699 44 24.334 44 59.001v214l5 5h49v-216c0 -56.667 -22 -94 -66 -112c-10 -5.33301 -21.667 -8 -35 -8c-31.333 0 -58.666 18.333 -82 55c-9.33301 16 -14 35 -14 57v224zM2435 1980h159v-60h-56v-268h-53v268h-55v55zM2621 1980l71 0.000976562
c4.66699 -2.66699 32.334 -86.334 83 -251.001h2l80 251h73v-328h-54v242h-2l-74 -242h-44c-2.66699 0 -22 60.667 -58 182l-19 60h-3v-242h-55v328zM3760 1980l52 -0.000976562v-328h-45l-5 5v11l3 2l-3 14c-19.333 -26.667 -45.333 -40 -78 -40
c-44.667 0 -78 30.333 -100 91l-5 39v3c0 62.667 30.667 104.334 92 125.001l23 3c23.333 0 44.333 -10.667 63 -32h3v107zM2057 1928l36 0.00195312l4 -6v-49h-45v-221h-48v23c-15.333 -20.667 -35 -31 -59 -31c-59.333 9.33301 -89 41.666 -89 96.999v156h51v-104

<glyph glyph-name=".notdef" horiz-adv-x="5040" 
d="M3351 2045h10c24.667 -6.66699 37 -24 37 -52c0 -8 -10.667 -27 -32 -57h-28c0 16 9.33301 34 28 54l2 10c-3.33301 8.66699 -6.66602 13.667 -10 15h-9c-5.33301 0 -8.66602 -6.33301 -10 -19h-30c4 32.667 18 49 42 49zM2019 2016l29.001 -31
c0 -10.667 -13.333 -20.667 -40 -30h-19l-59 12l-11 -12l-28 25c7.33301 19.333 21.666 29 42.999 29h11l42 -11h2c6.66699 0 16.667 6 30 18zM468.001 1980h142v-60h-94v-75h89v-59h-89v-129l-5 -5h-49v323zM1155 1980h43l6 -5v-78h30v-52h-30v-188l-6 -5h-49v193h-25v52
h25v78zM1621 1980h41.999l4 -5v-94h3c15.333 16 33.333 24 54 24h2c38.667 0 66.334 -23.667 83.001 -71l2 -39v-143h-52v115c0 53.333 -14 80 -42 80h-7c-28.667 0 -43 -28.667 -43 -86v-109h-51v323zM2200 1980l49 -0.000976562l5 -5v-222c6.66699 -34 21.667 -51 45 -51
c29.333 4.66699 44 24.334 44 59.001v214l5 5h49v-216c0 -56.667 -22 -94 -66 -112c-10 -5.33301 -21.667 -8 -35 -8c-31.333 0 -58.666 18.333 -82 55c-9.33301 16 -14 35 -14 57v224zM2435 1980h159v-60h-56v-268h-53v268h-55v55zM2621 1980l71 0.000976562
c4.66699 -2.66699 32.334 -86.334 83 -251.001h2l80 251h73v-328h-54v242h-2l-74 -242h-44c-2.66699 0 -22 60.667 -58 182l-19 60h-3v-242h-55v328zM3760 1980l52 -0.000976562v-328h-45l-5 5v11l3 2l-3 14c-19.333 -26.667 -45.333 -40 -78 -40
c-44.667 0 -78 30.333 -100 91l-5 39v3c0 62.667 30.667 104.334 92 125.001l23 3c23.333 0 44.333 -10.667 63 -32h3v107zM2057 1928l36 0.00195312l4 -6v-49h-45v-221h-48v23c-15.333 -20.667 -35 -31 -59 -31c-59.333 9.33301 -89 41.666 -89 96.999v156h51v-104
c0 -52.667 8.66699 -81.334 26 -86.001l18 -5h6c17.333 0 30.333 12 39 36l3 26v133h53v25zM3476 1928v-55h-31v-221h-47v25h-2c-10 -22 -29 -33 -57 -33c-45.333 0 -74 26 -86 78l-3 29v146h52v-120c0 -33.333 6.33301 -56 19 -68l21 -7h9c28 0 42 23 42 69v126h27
c2.66699 0 4 9.33301 4 28l3 3h49zM758 1905c45.333 0 79.667 -25.667 103 -77c6 -12 10 -30 12 -54c0 -58.667 -30 -101 -90 -127l-32 -3c-42 0 -75.667 24.333 -101 73c-8 14.667 -12 32 -12 52v10c0 62.667 33.667 104.667 101 126h19zM1011 1905h3
c49.333 0 77 -33.667 83 -101v-152h-51v119c0 50.667 -14 76 -42 76h-5c-29.333 0 -44 -25.333 -44 -76v-119h-52v245h46v-21c20 19.333 40.667 29 62 29zM1466 1905l7 -0.000976562c48 0 83 -29.667 105 -89h-60c-10.667 20.667 -24.667 31 -42 31h-17
c-35.333 -9.33301 -53 -29.666 -53 -60.999l-3 -15c8 -46 28.333 -69 61 -69h9c14.667 0 30.334 9 47.001 27h40l2 3h3l2 -3l2 3l3 -3l2 3l2 -7c-22 -54 -58.667 -81 -110 -81c-50.667 0 -87.334 31.333 -110.001 94l-4 36v3c0 56.667 25.667 96.667 77 120
c10 5.33301 22.333 8 37 8zM3141 1905h1.99902c32.667 0 56 -20 70 -60v-14h-52c0 10.667 -5.33301 16 -16 16h-4c-9.33301 0 -15.666 -4.33301 -18.999 -13v-13c0 -6 22.667 -17.667 68 -35c20 -12.667 30 -32.334 30 -59.001c0 -38.667 -20.333 -65.334 -61 -80.001
l-23 -3c-50.667 8 -76 35.667 -76 83h54c0 -13.333 9 -21.666 27 -24.999h4c12.667 0 20.667 7.66699 24 23c0 14.667 -22.667 29.334 -68 44.001c-22.667 18 -34 37.667 -34 59c0 44 24.667 69.667 74 77zM4203 1905c36.666 0 62.333 -21 77 -63
c4.66602 -12 7 -33.667 7 -65v-125h-52v112c0 55.333 -13.334 83 -40 83h-11c-22 0 -35.334 -18 -40 -54v-141h-52v5h-2l2 2v238h47v-21c16.666 19.333 38 29 64 29zM4432 1905h5c26.666 0 49.666 -13.333 69 -40v18l-3 3l3 11h47v-208c0 -64.667 -28.334 -108.667 -85 -132
l-33 -4h-7c-46.666 0 -81.333 26.667 -104 80h59c16 -14.667 31 -22.334 45 -23.001h13c14.666 0 29 7.33301 43 22c10 8.66699 17.334 26 22 52h-3c-21.334 -26.667 -45.667 -40 -73 -40c-38 0 -70 23.333 -96 70c-6.66602 12 -11.333 33 -14 63
c0 58.667 29 100.334 87 125.001zM3851 1897l53 -0.000976562v-136c4 -39.333 17.333 -59 40 -59h7c30.667 0 46 31 46 93v102h51v-245h-47l-3 10h3l-3 3v5l3 2v3h-4c0 -15.333 -19 -25.666 -57 -30.999h-3c-39.333 0 -67.333 25 -84 75l-2 85v93zM690 1771
c6.66699 -46 27.6689 -69 63.002 -69h7c39.333 9.33301 59 31 59 65v15c-8.66699 43.333 -28.334 65 -59.001 65h-5c-38.667 0 -60.334 -25.333 -65.001 -76zM3630 1774c8.66699 -48 29 -72 61 -72h5c38.667 0 60.667 25 66 75c0 32.667 -17 56 -51 70h-22
c-24.667 0 -43.334 -19 -56 -57zM4374 1774c5.33398 -48 27 -71.999 65 -71.999h5c39.334 8 59 32 59 72c0 40.667 -19.666 65 -59 73h-14c-37.334 -10.667 -56 -31.334 -56 -62.001v-11zM3928 1620h52v-57h-52v57zM1054 1402c28.667 -7.33301 43 -23.667 43 -49v-4
c0 -11.333 -10.667 -31.333 -32 -60h-28c0 16.667 10.333 35.667 31 57v7c0 8 -2.33301 13 -7 15h-12c-6.66699 -2.66699 -10 -9 -10 -19h-28v6c0 21.333 11 36 33 44zM3349 1339c61.333 0 107.333 -33.001 138 -99.001h-60c-24.667 28 -51.334 42 -80 42
c-36.667 0 -65.667 -22.667 -87 -68c-6.66699 -14.667 -10 -30.334 -10 -47.001c0 -52 27 -88.667 81 -110l18 -1c24 0 49 13 75 39h61c-29.333 -64.667 -75.333 -97 -138 -97c-62 0 -109 37.333 -141 112c-6.66699 20.667 -10 41.334 -10 62.001
c0 64.667 30 115.334 90 152.001c19.333 10 40.333 15 63 15zM3664 1339c38 0 72.333 -15.666 103 -46.999c30.667 -34 46 -72.333 46 -115v-20c0 -59.333 -30.333 -108 -91 -146c-22 -8.66699 -43 -13 -63 -13c-59.333 0 -105.333 33.667 -138 101
c-8.66699 22 -13 42 -13 60v18c0 65.333 32.667 115.666 98 150.999c19.333 7.33301 38.666 11 58 11zM2261 1337h2l47 -11h3c7.33301 0 16 3.66699 26 11l18 -36c-12 -12.667 -23.667 -19 -35 -19h-3l-54 10l-20 -7l-20 36c12 10.667 24 16 36 16zM716.002 1334h19
c78.667 0 121.667 -8.66699 129 -26c16.667 -17.333 25 -38 25 -62c-6.66699 -38 -16.667 -57 -30 -57v-6c31.333 -15.333 47 -37.333 47 -66v-18c0 -42 -23 -71.333 -69 -88l-54 -5h-67v328zM2550 1334h53v-217c4 -40.667 19 -61 45 -61c19.333 0 34 13 44 39l3 30v203l4 6
h45l5 -6v-171c0 -78.667 -13.333 -123 -40 -133c-16 -17.333 -37.333 -26 -64 -26c-36.667 0 -67 25.333 -91 76l-4 54v206zM2805 1334h59c2.66699 0 43.334 -79 122 -237h4v237h50l4 -6v-322h-58c-19.333 32 -61 111.333 -125 238h-3v-238h-53v328zM3101 1334h54v-328h-54
v328zM3859 1334l8 0.000976562c103.333 0 161.333 -13.333 174 -40c15.333 -7.33301 31 -32.333 47 -75l4 -36v-11l3 -2c0 -62.667 -27.333 -112.334 -82 -149.001c-23.333 -10 -56.333 -15 -99 -15h-55v328zM4141 1334h153v-60h-103v-75h101v-57h-101v-74l4 -5h99v-57h-157
v322zM3563 1175v-10c0 -50.667 26.333 -86.667 79 -108l19 -1c45.333 0 77.333 28.667 96 86l3 20v15c0 40.667 -20 72 -60 94c-8 5.33301 -21 9 -39 11c-44 0 -76 -27.667 -96 -83zM770.002 1274v-67h9c36 0 54 9.33301 54 28l3 14c-7.33301 16.667 -17 25 -29 25h-37z
M3912 1274v-206.001l2 -3v-2c69.333 0 110 25.333 122 76l2 15v29c0 22.667 -10.667 45.334 -32 68.001c-16.667 15.333 -42.667 23 -78 23h-16zM1041 1259h5c25.333 0 49 -13.333 71 -40v32h49v-245h-49v32c-24 -26.667 -50.667 -40 -80 -40c-50 0 -83.667 32.333 -101 97
l-5 36c0 59.333 28.333 101 85 125zM1314 1259h3c49.333 0 77 -34 83 -102v-151h-51v128c0 44.667 -14 67 -42 67h-10c-22.667 0 -35.667 -20.667 -39 -62v-133h-52v245h47v-21c18.667 19.333 39 29 61 29zM1543 1259h5c30 0 53.667 -13.333 71 -40v32h47v-219
c0 -63.333 -34.667 -105.333 -104 -126h-16c-49.333 0 -85.333 27.333 -108 82h59c17.333 -16.667 32 -25 44 -25h14c34.667 0 56 25.667 64 77c-22 -28 -47.333 -42 -76 -42c-40 0 -73.667 27 -101 81l-7 44v16c0 52.667 28.333 91.667 85 117zM1912 1259l2 0.000976562
c28.667 0 49 -12.333 61 -37h2c21.333 24.667 44.333 37 69 37h4c38 0 64.333 -18.333 79 -55c5.33301 -16.667 8 -31.667 8 -45v-153h-52v138c0 29.333 -7.66699 47.666 -23 54.999l-12 2h-15c-21.333 0 -33.333 -21.667 -36 -65v-130h-52v136c0 39.333 -14.333 59 -43 59
h-8c-21.333 0 -33.333 -19 -36 -57v-138h-54v245h50v-21h2c4 16 22 25.667 54 29zM2282 1259c31.333 0 56.333 -14 75 -42v34h47v-245h-47v32c-24 -26.667 -50 -40 -78 -40c-49.333 0 -83.333 30.667 -102 92l-6 41c0 60 28.333 101.667 85 125zM985.002 1117
c0 -32 20.333 -52.333 61 -61h4c30 0 50.667 15.333 62 46l3 15v22c-8 41.333 -27 62 -57 62h-14c-27.333 0 -47 -19 -59 -57v-27zM1487 1128c0 -32 14.332 -54.667 42.999 -68l18 -4h5c31.333 0 52.333 19 63 57v23c-7.33301 43.333 -26.666 65 -57.999 65h-12
c-33.333 0 -53 -24.333 -59 -73zM2225 1131v-14.001c10 -40.667 29 -61 57 -61h14c38.667 8 58 29.333 58 64v11c0 30 -12.333 51.667 -37 65l-18 5h-10c-42.667 -5.33301 -64 -28.666 -64 -69.999zM770.001 1150v-82c0 -3.33301 2.33301 -5 7 -5c51.333 0 77 15 77 45
c0 22.667 -15.667 36.667 -47 42h-37zM2966 752.999l24 -28l-51 -55c-12 8 -21 16.667 -27 26zM1524 726.999l85 -54c0 -10 -7 -24 -21 -42l-87 54c12 27.333 19.667 41.333 23 42zM2850 692.999h38l55 -60h-54l-21 26l-23 -26h-54c36 40 55.667 60 59 60zM3422 692.999h40
l56 -60h-54l-24 26h-1c0 -3.33301 -6.33301 -12 -19 -26h-54zM622.001 684.999l52 0.00195312c5.33301 -2.66699 21 -48.334 47 -137.001l34 -110c6 5.33301 17.333 38.666 34 99.999l48 147h54v-2l-112 -326h-44zM1159 685.001h51v-54h-51v54zM1354 685.001h46l6 -5v-323
h-52v328zM2317 685.001h45l4 -5v-78h31v-52h-31v-193h-53v193h-26v52h26v78zM2425 685.001h52v-98h2c15.333 15.333 33.333 23 54 23h3c38 0 65 -23.667 81 -71l3 -38v-144h-52v115c0 54 -13 81 -39 81h-10c-28 0 -42 -29 -42 -87v-109h-52v328zM2664 685.001h52v-54h-52v54
zM3028 685.001h44l6 -5v-78h29v-52h-29v-193h-54v193h-27v52h27v78zM3234 685.001h52v-328h-52v328zM3957 685.001h52v-328h-52v328zM4316 685.001h51v-54h-51v54zM1555 610.001h5c55.333 0 92 -34 110 -102l3 -23v-11c0 -55.333 -28.333 -95.333 -85 -120l-35 -5
c-50.667 0 -87.667 32.333 -111 97l-4 32c0 64.667 31 108 93 130zM1811 610.001h4c35.333 0 61.333 -20 78 -60c4.66699 -16.667 7 -43.667 7 -81v-112h-54v146c-4.66699 33.333 -17 50 -37 50h-10c-25.333 0 -39.333 -19 -42 -57v-139h-54v245h49v-21
c17.333 19.333 37 29 59 29zM2046 610.001h4.00098c30 0 51 -13 63 -39h3v31h49v-206c0 -68 -29.667 -113 -89 -135l-28 -3h-5c-48.667 0 -84 27 -106 81h52l37 -20l15 -3h14c33.333 0 53.666 24 60.999 72c-22 -26 -46.333 -39 -73 -39c-41.333 0 -74 25.333 -98 76
c-7.33301 15.333 -11.333 35.333 -12 60c0 56.667 28.667 97.667 86 123zM2866 610.001l2 -0.000976562c54.667 0 91.667 -34.667 111 -104l2 -25l-2 -27h-172c10 -30 25 -45 45 -45l14 -3c19.333 0 35.666 7.33301 49 22h57v-3c-23.333 -50.667 -59.333 -76 -108 -76
c-51.333 0 -88.333 32.333 -111 97l-1 28v8c0 32.667 10.667 62.334 32 89.001c22.667 26 50 39 82 39zM3429 610h5c27.333 0 50.666 -13 70 -39h2v31h47v-245h-47v31h-2c-23.333 -26 -49 -39 -77 -39c-47.333 0 -81 29.667 -101 89l-5 36v14c0 57.333 28 97.333 84 120z
M3711 610l7 -0.000976562c58.667 0 94.334 -42.667 107 -128l-2 -1v-15c0 -43.333 -22 -78.666 -66 -105.999c-14 -7.33301 -29.333 -11 -46 -11c-22.667 0 -44 10.667 -64 32v-99l-5 -5h-49v325h49v-28c20.667 24 43.667 36 69 36zM4151 609.999
c29.334 0 54.334 -13 75 -39v31h49v-245h-49v31c-23.334 -26 -49 -39 -77 -39c-61.333 0 -97.333 44 -108 132c0 56 24.333 96.333 73 121c10 5.33301 22.334 8 37 8zM922.002 601.999h50v-136c2 -40 16 -60 42 -60h5c29.333 0 44 29 44 87v109h52v-245h-47v24h-5
c0 -15.333 -18.667 -26 -56 -32h-3c-36.667 0 -64 22.667 -82 68c-2.66699 23.333 -4 56.333 -4 99v81zM1159 601.999h51v-245h-51v245zM2664 601.999h52v-245h-52v245zM4316 601.999h51v-245h-51v245zM1492 487.999v-15.999c8.66699 -44 28.334 -66 59.001 -66h4
c39.333 0 61.333 25.333 66 76c-8.66699 47.333 -28.334 71 -59.001 71h-11c-39.333 -10.667 -59 -32.334 -59 -65.001zM1987 472c10 -44 29.667 -66 59 -66h11c32 0 51.667 25 59 75v1c-8.66699 47.333 -28.334 71 -59 71h-14c-26 0 -44.667 -19 -56 -57v-24zM2805 506h122
v2c-10.667 30 -30.334 45 -59 45h-7c-23.333 0 -42 -15.667 -56 -47zM3373 474c8.66699 -45.333 29 -68 61 -68h5c34.667 0 56.334 21 65 63v12c-6.66699 48 -25.667 72 -57 72h-16c-37.333 -9.33301 -56 -30.333 -56 -63zM3642 478c8 -48 28.333 -72.001 61 -72.001h3
c33.333 0 55 20 65 60v22c0 28.667 -16.333 50.334 -49 65.001h-22c-31.333 0 -50.666 -24 -58 -72v-3zM4095 471.999c6.66602 -44 28.666 -66 66 -66c28.666 0 49 16 61 48l2 15v16c0 36 -17.334 58.667 -52 68h-18c-28 0 -47.666 -20 -59 -60v-21zM3416 320.999h51v-52
h-51v52zM4137 320.999h51v-52h-51v52zM2733 132.999h4c23.333 0 37.666 -16.667 43 -50v-2c0 -10.667 -8 -24.334 -24 -41.001l-10 -17h-28c0 16.667 9.33301 35.334 28 56.001l3 2v2c-2 12.667 -5 19 -9 19h-10c-5.33301 0 -8.33301 -6.33301 -9 -19h-30
c4 33.333 18 50 42 50zM1546 115.999l52 -60l-26 -19l-52 52zM352.002 78.999h4c50 -32 78.333 -52 85 -60l-20 -37c-58.667 32.667 -88 52 -88 58zM3490 78.999l86 -58l-18 -39c-6.66699 0 -37 18.333 -91 55c10 24 17.667 38 23 42zM4578 75.999l19 -42l-91 -52l-20 39
l92 58v-3zM1204 52.999h51v-19l5 -5h14v-36h-14l-5 -5v-279h-46v31c-22.667 -26.667 -49.667 -40 -81 -40c-48 0 -82 35 -102 105l-3 26c0 68 33.667 111.667 101 131h14c22 0 44 -11 66 -33v59l-6 5h-43v36h49v24zM1480 44.999h40l56 -61h-53l-23 27l-23 -27h-53z
M2641 44.999h33c8 0 29 -20.333 63 -61h-54l-23 27c-12.667 -14 -19 -23 -19 -27h-58v4zM49.002 36.999h160v-60h-56v-268h-50l-4 5v245l2 3v2l-2 2l2 3l-2 2l2 3l-2 3h-54v54zM699.002 36.999h47v-73l2 -2l-2 -3v-3l2 -2l-2 -3v-3l2 -2v-2l-2 -3l2 -3h3
c11.333 16 28.333 24 51 24h3c35.333 0 61 -19.333 77 -58c4.66699 -11.333 7 -25.333 7 -42v-153h-52v127c0 45.333 -13.333 68 -40 68h-8c-28.667 0 -43 -28.667 -43 -86v-109h-52v322zM1297 36.999h47l5 -6v-49h-52v55zM1987 36.999h52v-198l70 115h62l-78 -118l90 -125
v-2h-70c-6.66699 14.667 -31.334 53 -74 115v-115h-52v328zM2271 36.999v-98.999c16 16 33.667 24 53 24c38 0 64.667 -18.667 80 -56c6.66699 -12.667 10 -38.334 10 -77.001v-120h-54v133c0 41.333 -13.667 62 -41 62h-11c-20.667 0 -33 -18.333 -37 -55v-140h-53v314
l-1 3v3l1 2l-1 3l1 3h53zM2458 37h51v-55h-51v55zM3148 37h51v-108c18 22 40.667 33 68 33h3c50 0 85 -31.333 105 -94l5 -37c0 -50 -21.333 -90 -64 -120c-20 -7.33301 -36.333 -11 -49 -11c-27.333 0 -51.333 13.333 -72 40v-31h-47v328zM4275 37h52v-99h2
c15.334 16 33.334 24 54 24h3c40 0 67.334 -24.667 82 -74l2 -41v-138h-52v111c0 54.667 -10.666 82 -32 82l-10 2h-12c-24.666 0 -37 -26.667 -37 -80v-115h-52v328zM329.002 -38h3v-58h-5c-28 0 -42 -19 -42 -57v-138h-53v245h47v-21c12 19.333 28.667 29 50 29z
M564.002 -38c47.333 0 75.999 -29 85.999 -87v-166h-51v136c-4 39.333 -17.667 59 -41 59h-6c-30 0 -45 -28 -45 -84v-111h-52v245h50v-21c16.667 19.333 36.334 29 59.001 29zM1504 -38c48 0 83 -31.333 105 -94l5 -39c-1.33301 -16 -3.66602 -24 -6.99902 -24h-169
c11.333 -31.333 32 -47 62 -47c16 0 32 7 48 21h57c-22 -52.667 -58 -79 -108 -79c-54.667 0 -92.334 35 -113.001 105v37c0 54 29.667 93 89 117zM2657 -38h5c51.333 0 87 -32.333 107 -97l3 -26v-21l-3 -13h-170c12 -31.333 29.667 -47 53 -47h12c14 0 28 7 42 21h59
c-22.667 -52.667 -57.667 -79 -105 -79c-56 0 -94.333 34 -115 102l-2 29c0 62 30.333 104.667 91 128zM2915 -38h3.99902c36 0 62 -20 78 -60c4.66699 -16.667 7 -44 7 -82v-111h-54v138c0 32 -11.667 51 -35 57h-11c-25.333 0 -39.666 -19 -42.999 -57v-138h-54v245h50
v-21c16.667 19.333 36 29 58 29zM3508 -38h6c26.667 0 50 -13.333 70 -40h2v32h47v-245h-47v31h-2c-22.667 -26.667 -48.667 -40 -78 -40c-47.333 0 -81 30 -101 90l-4 37v12c0 54.667 25.667 93.667 77 117c7.33301 4 17.333 6 30 6zM3781 -38h4
c41.333 0 68.666 -26 82 -78l3 -84v-91h-54v138c0 32 -12.667 51 -38 57h-9c-25.333 0 -39.333 -17.333 -42 -52v-143h-54v245h49v-21c17.333 19.333 37 29 59 29zM4133 -38h1c49.334 0 84 -31 104 -93l4 -40c0 -58.667 -28 -100.667 -84 -126l-25 -3
c-27.333 0 -50 11.333 -68 34v-106h-52v326h47v-29c20 24.667 44.334 37 73 37zM4714 -38h5c22.666 0 43.666 -12.333 63 -37c18 24.667 41 37 69 37h6c37.334 0 63.667 -22 79 -66l6 -51v-136h-52v122c0 48.667 -13 73 -39 73h-7c-23.334 0 -37 -16.667 -41 -50v-140l-5 -5
h-48v140c0 28 -10.334 46.333 -31 55h-17c-26.666 0 -40 -25.667 -40 -77v-118h-51v245h47v-21c14.666 19.333 33.333 29 56 29zM359 -46h49l5 -6v-234l-5 -5h-49v245zM1297 -46h52v-245h-52v245zM1649 -46h52v-136c2.66699 -40 17 -60 43 -60h4c29.333 0 44 27 44 81v115
h52v-245h-47v24h-5c-8 -22 -27.667 -33 -59 -33c-34.667 0 -61 21 -79 63c-3.33301 8 -5 19.333 -5 34v157zM2458 -46h51v-245h-51v245zM4515 -46h51v-245h-51v245zM1077 -169c0 -35.333 16.999 -59.666 50.999 -72.999h12c36 0 58 22 66 66v10
c0 35.333 -18 58.666 -54 69.999h-17c-25.333 0 -44.666 -19 -57.999 -57v-16zM1438 -143h122.001c-12 31.333 -29.667 47 -53 47h-7c-28.667 0 -49.334 -14.667 -62.001 -44v-3zM2599 -143h122c-14 31.333 -32 47 -54 47h-7c-30.667 0 -51 -15.667 -61 -47zM3196 -158v-11
c6.66699 -48.667 27 -73 61 -73h5c42.667 5.33301 64 29 64 71v5c0 30 -12.667 51.667 -38 65l-18 5h-14c-40 -9.33301 -60 -30 -60 -62zM3452 -173c9.33301 -46 30 -69 62 -69h11c27.333 0 47 20 59 60v13c-5.33301 48.667 -24 73 -56 73h-17
c-31.333 0 -51 -24.333 -59 -73v-4zM4062 -158v-22c0 -31.333 19.667 -52 59 -62h9c33.334 0 53.667 25.333 61 76c-8.66602 46.667 -28 70 -58 70h-15c-37.333 -11.333 -56 -32 -56 -62z" />
    <glyph glyph-name="space" unicode=" " horiz-adv-x="606" 
 />
    <glyph glyph-name="exclam" unicode="!" horiz-adv-x="854" 
d="M772 1356l-0.000976562 37l-225 -80c-1.33301 -24.667 -3.16602 -45.834 -5.49902 -63.501s-4.83301 -35.5 -7.5 -53.5s-6.33398 -36.5 -11.001 -55.5l-17 -69.5l-31 -116.5c-10.667 -41 -23 -84.833 -37 -131.5c-14.667 -54.667 -27.5 -99.667 -38.5 -135l-31 -98
c-9.66699 -30 -19.667 -59.333 -30 -88s-22.166 -63.667 -35.499 -105l-12 -35l131 62l21 46c6 12.667 10.667 23.334 14 32.001l45.5 110l91.5 219l71.5 179.5l44.5 113.5c23.333 62 39.5 110.333 48.5 145s13.5 63.667 13.5 87zM365.999 96c0 34 -10.167 61.667 -30.5 83
s-47.5 32 -81.5 32c-32.667 0 -60.667 -11.667 -84 -35s-35 -52 -35 -86c0 -32.667 9.83301 -59.667 29.5 -81s47.5 -32 83.5 -32h8c32.667 0 59.167 11 79.5 33s30.5 50.667 30.5 86z" />
    <glyph glyph-name="quotedbl" unicode="&#x22;" horiz-adv-x="720" 
d="M366 872h92l41 408h-174zM610 872h92l41 408h-174z" />
    <glyph glyph-name="numbersign" unicode="#" horiz-adv-x="1138" 
d="M118 -31l131 25l105 330h208l-114 -355l131 25l106 330h176l78 112h-219l57 176h179l77 113h-219l117 360l-129 -22l-111 -338h-206l116 360l-131 -22l-108 -338h-158l-78 -113h199l-57 -176h-158l-78 -112h199zM448 612h207l-58 -176h-207z" />
    <glyph glyph-name="dollar" unicode="$" horiz-adv-x="1138" 
d="M336 -31l101.998 35.0039l35 107c23.333 -4.66699 45 -7 65 -7c40 0 78.333 7.66699 115 23s69.334 35.833 98.001 61.5s50.834 55.667 66.501 90s23.5 70.5 23.5 108.5c0 34 -6.83301 69.5 -20.5 106.5s-29.667 71.167 -48 102.5s-35.333 57.666 -51 78.999
s-29.5 39.333 -41.5 54l-4 4l112 348c37.333 -22.667 64.833 -49.167 82.5 -79.5s31.834 -67.166 42.501 -110.499l86 149c-28.667 28.667 -57 50.5 -85 65.5s-63 27.5 -105 37.5l37 119l-101 -29l-26 -82c-76.667 -2.66699 -144.667 -27.834 -204 -75.501
s-89 -114.834 -89 -201.501c0 -26.667 4.66699 -54.834 14 -84.501s20.5 -56 33.5 -79s24.667 -42 35 -57l31.5 -45.5c1.33301 0 2 -0.666992 2 -2l-133 -403c-35.333 27.333 -65 61.833 -89 103.5s-40.667 85.5 -50 131.5l-88 -157
c31.333 -38.667 62.666 -69.834 93.999 -93.501s68.333 -42.5 111 -56.5zM611.998 817.004c-2.66699 4 -4.66699 7.33301 -6 10c-15.333 24.667 -27 46.667 -35 66s-12 39 -12 59c0 44 14 79 42 105s61.667 40.333 101 43zM607.998 528.004
c1.33301 -2.66699 2.66797 -4.66699 4.00098 -6c23.333 -34 43.5 -68 60.5 -102s25.5 -68.333 25.5 -103c0 -40.667 -15.333 -76 -46 -106s-68.667 -45 -114 -45c-8 0 -18 1.33301 -30 4c-4.66699 0 -10.334 0.666992 -17.001 2z" />
    <glyph glyph-name="percent" unicode="%" horiz-adv-x="1662" 
d="M1562 510c0 38 -5.99609 73.5 -17.9961 106.5s-29.333 61 -52 84s-49 41.333 -79 55s-62.667 20.5 -98 20.5c-46.667 0 -89.667 -9.33301 -129 -28c-42.667 -19.333 -82.334 -46.5 -119.001 -81.5s-68.334 -74.333 -95.001 -118s-47.834 -90 -63.501 -139
s-23.5 -98.167 -23.5 -147.5c0 -78 22.5 -141.167 67.5 -189.5s104.167 -72.5 177.5 -72.5c63.333 0 123.666 19 180.999 57c36.667 24.667 70.667 54.5 102 89.5s58 72.167 80 111.5s39 80.5 51 123.5s18 85.833 18 128.5zM1452 1325l-46.9971 37.0049
c-100 -74 -200.833 -132.5 -302.5 -175.5s-191.5 -64.5 -269.5 -64.5c-14.667 0 -26.834 0.666992 -36.501 2s-22.5 5.66602 -38.5 12.999c-19.333 65.333 -47.5 112.333 -84.5 141s-89.5 43 -157.5 43c-48 0 -92.333 -9.66699 -133 -29
c-42.667 -20 -81.667 -47.167 -117 -81.5s-66 -72.333 -92 -114s-46.167 -85.667 -60.5 -132s-21.5 -92.833 -21.5 -139.5c0 -86 21.833 -152.5 65.5 -199.5s105.834 -70.5 186.501 -70.5c34 0 64.667 4.16699 92 12.5s56.666 22.5 87.999 42.5
c24.667 15.333 48 33.166 70 53.499s42.333 42.166 61 65.499c19.333 24.667 35.833 47.167 49.5 67.5s24.834 42.5 33.501 66.5s16.167 50.333 22.5 79s12.166 62.667 17.499 102c12.667 -2.66699 22 -4.33398 28 -5.00098s13.667 -1 23 -1c60 0 142 24 246 72
c22 9.33301 41.5 18.5 58.5 27.5s33.667 18.667 50 29s33 21.666 50 33.999l60.5 44.5l-82 -82c-40.667 -40.667 -85.334 -88.334 -134.001 -143.001l-146.5 -168l-143 -170l-121.5 -152l-90 -125.5l-100 -146.5l-61.5 -93c-16.333 -25.333 -30 -48.166 -41 -68.499
s-21.167 -40.5 -30.5 -60.5l-31 -69l244 35l7 32.5c2 9.66699 4.33301 17.834 7 24.501c15.333 56 39.666 117.167 72.999 183.5s80.666 148.5 141.999 246.5c54.667 88 108.334 169.5 161.001 244.5s106 146.333 160 214s109 132.167 165 193.5s116 122.666 180 183.999z
M1429.01 545.005c0 -54.667 -6.83008 -110.333 -20.4971 -167s-34.167 -109 -61.5 -157c-30 -56 -63 -99.333 -99 -130s-71 -46 -105 -46c-38.667 0 -69.834 17 -93.501 51s-35.5 79.667 -35.5 137c0 28.667 2.66699 59.5 8 92.5s13.166 65.833 23.499 98.5
s22.666 64 36.999 94s29.5 57.333 45.5 82c61.333 88.667 120 133 176 133c40 0 70.833 -16.667 92.5 -50s32.5 -79.333 32.5 -138zM643.01 1081.01c0 -103.333 -28 -205.666 -84 -306.999c-31.333 -56 -65.166 -99 -101.499 -129s-72.166 -45 -107.499 -45
c-39.333 0 -71 18.5 -95 55.5s-36 84.833 -36 143.5c0 57.333 9.5 115.666 28.5 174.999s46.5 115 82.5 167c61.333 90 122.666 135 183.999 135c39.333 0 70.666 -17.5 93.999 -52.5s35 -82.5 35 -142.5z" />
    <glyph glyph-name="ampersand" unicode="&#x26;" horiz-adv-x="1716" 
d="M1824 -342c-48 15.333 -85.6738 29.3281 -113.007 41.9951s-58.666 30.667 -93.999 54c-82 54.667 -160.167 117.834 -234.5 189.501s-141.5 149.167 -201.5 232.5c122.667 131.333 194.334 302 215.001 512h12c54.667 0 100.5 2.33301 137.5 7
s68.833 13.834 95.5 27.501s49.5 31.834 68.5 54.501s38.833 52.334 59.5 89.001c-16.667 -6.66699 -33.5 -12.334 -50.5 -17.001s-35.167 -8.33398 -54.5 -11.001s-41.166 -4.5 -65.499 -5.5s-52.166 -1.5 -83.499 -1.5l-170 3c-66 1.33301 -121.5 -4.5 -166.5 -17.5
s-91.167 -33.167 -138.5 -60.5c-14 -8.66699 -25.833 -16.334 -35.5 -23.001s-19.167 -13.834 -28.5 -21.501s-18.5 -16.167 -27.5 -25.5l-31.5 -33c-11.333 24.667 -20.333 45.5 -27 62.5s-12.5 33 -17.5 48s-9.5 30.833 -13.5 47.5s-8.66699 35 -14 55
c126.667 46.667 218.334 93.834 275.001 141.501s85 103.834 85 168.501c0 27.333 -6.83301 52.5 -20.5 75.5s-32.667 43 -57 60s-53.333 30.333 -87 40s-69.5 14.5 -107.5 14.5c-102.667 0 -183.667 -30.333 -243 -91s-89 -143.667 -89 -249
c0 -18 0.333008 -33.833 1 -47.5s2.33398 -26.834 5.00098 -39.501s6.16699 -26.667 10.5 -42s9.83301 -33 16.5 -53l-135.5 -62.5c-38.333 -18.333 -72.166 -36.166 -101.499 -53.499s-55.166 -34.5 -77.499 -51.5s-43.833 -34.833 -64.5 -53.5
c-40.667 -40 -73 -86.167 -97 -138.5s-36 -104.5 -36 -156.5c0 -50.667 11.333 -97.5 34 -140.5s54 -80.167 94 -111.5s87 -56 141 -74s113 -27 177 -27h19c8 0 17.667 0.666992 29 2c-169.333 74 -254 192.333 -254 355c0 84.667 24.167 165.834 72.5 243.501
s118.166 149.5 209.499 215.5c40 -130 90.333 -256.5 151 -379.5s131.334 -238.167 212.001 -345.5c-20.667 -11.333 -38.834 -20.333 -54.501 -27s-30.334 -12.167 -44.001 -16.5s-27.334 -7.5 -41.001 -9.5s-29.5 -3 -47.5 -3c-44.667 0 -87.167 9.33301 -127.5 28
s-76.166 43.334 -107.499 74.001s-56.333 65.667 -75 105s-28 81 -28 125c0 49.333 9.66699 94.5 29 135.5s50.666 84.5 93.999 130.5l-73 -22c-33.333 -44 -56.833 -83.667 -70.5 -119s-20.5 -73.666 -20.5 -114.999c0 -52 10.333 -100.5 31 -145.5
s48.334 -84.5 83.001 -118.5s75 -61 121 -81s94.667 -30 146 -30c20.667 0 38.834 1.16699 54.501 3.5s31 5.5 46 9.5s30.667 9.66699 47 17s35.5 17.333 57.5 30l53.5 -66.5l45 -53.5c15 -17.333 31.667 -34.833 50 -52.5l64.5 -63.5l87 -81.5
c24 -21.667 47 -40.667 69 -57s44.5 -31 67.5 -44s50.833 -27.167 83.5 -42.5zM1020.99 1202c0 -57.333 -17 -111.501 -51 -162.501s-79.667 -90.833 -137 -119.5c-18 66.667 -27 125.334 -27 176.001c0 58.667 13.667 109.167 41 151.5s60 63.5 98 63.5
c23.333 0 41.833 -10.333 55.5 -31s20.5 -46.667 20.5 -78zM1301.99 574.994c0 -72 -12.333 -140.166 -37 -204.499s-59.667 -119.5 -105 -165.5c-27.333 38 -50.5 71.667 -69.5 101s-36.667 58.666 -53 87.999s-32 60.833 -47 94.5l-53.5 121.5
c19.333 15.333 37.833 27.833 55.5 37.5s36 17.5 55 23.5s40.167 10.333 63.5 13s50 4 80 4h10h60h28c6 -26 9.66699 -46.167 11 -60.5s2 -31.833 2 -52.5z" />
    <glyph glyph-name="quotesingle" unicode="'" horiz-adv-x="454" 
d="M350 872h92l41 408h-174z" />
    <glyph glyph-name="parenleft" unicode="(" horiz-adv-x="745" 
d="M983 1563l-32.998 48.999c-513.333 -314 -770 -718.333 -770 -1213c0 -113.333 12.667 -225.166 38 -335.499s64 -226.5 116 -348.5l57 27c-10.667 36.667 -19.834 70.667 -27.501 102s-13.834 61.333 -18.501 90s-8 57.334 -10 86.001s-3 59.667 -3 93
c0 61.333 4.66699 127.5 14 198.5s22.833 144.333 40.5 220s39.5 152.167 65.5 229.5s54.667 152.666 86 225.999c26 61.333 54 118.333 84 171s63.167 102.167 99.5 148.5s76 90.333 119 132s90.5 83.167 142.5 124.5z" />
    <glyph glyph-name="parenright" unicode=")" horiz-adv-x="745" 
d="M589 926c0 114.667 -12.335 227.332 -37.002 337.999s-63 226.667 -115 348l-57 -27c10.667 -39.333 19.834 -75.5 27.501 -108.5s13.834 -64.167 18.501 -93.5s8 -57.666 10 -84.999s3 -56 3 -86c0 -60 -4.66699 -125.833 -14 -197.5s-23.333 -145.334 -42 -221.001
s-40.5 -152.5 -65.5 -230.5s-53.5 -153 -85.5 -225c-27.333 -61.333 -56 -118.333 -86 -171s-63 -102.167 -99 -148.5s-75.167 -90.333 -117.5 -132s-89.5 -82.5 -141.5 -122.5l33 -49c512 312.667 768 716.334 768 1211z" />
    <glyph glyph-name="asterisk" unicode="*" horiz-adv-x="1138" 
d="M647 643c1.33301 12.667 4 31.1641 8 55.4971s8.33301 49.166 13 74.499s10.167 51.666 16.5 78.999l13.5 59l57 -90l74 -114l61 88c-24.667 20 -53 45.5 -85 76.5s-59.667 59.167 -83 84.5l62 33.5l64.5 33.5l72.5 35.5l55 26.5l-82 70
c-24 -26 -46.667 -48.167 -68 -66.5s-51 -40.5 -89 -66.5l-4 4c6.66699 16.667 23.667 56.334 51 119.001c47.333 106.667 72 162 74 166l-142 -19c-1.33301 -13.333 -3.33301 -31.666 -6 -54.999s-6.33398 -49.666 -11.001 -78.999s-9.16699 -55.666 -13.5 -78.999
l-10.5 -57c-26 32.667 -50.5 66.834 -73.5 102.501s-42.833 69.834 -59.5 102.501l-63 -84l44.5 -43.5l41 -41l41 -41l41.5 -42.5c-3.33301 -1.33301 -21 -9.83301 -53 -25.5l-78.5 -39l-61.5 -31c-20.667 -10.333 -35.667 -17.5 -45 -21.5l76 -76
c10.667 12.667 21.834 24 33.501 34l56.5 48c16 12.667 36.333 29.667 61 51l4 -4c-2.66699 -6.66699 -10.5 -24.334 -23.5 -53.001l-42 -93l-41 -89l-26.5 -55z" />
    <glyph glyph-name="plus" unicode="+" horiz-adv-x="1138" 
d="M450 -31h133v393h340v113h-340v416h-133v-416h-340v-113h340v-393z" />
    <glyph glyph-name="comma" unicode="," horiz-adv-x="638" 
d="M362 106c0 36 -10.4971 64.165 -31.4971 84.498s-48.5 30.5 -82.5 30.5c-34.667 0 -62.5 -9.5 -83.5 -28.5s-31.5 -44.167 -31.5 -75.5s13.667 -58 41 -80c13.333 -11.333 21.833 -20.333 25.5 -27s5.5 -16.667 5.5 -30c0 -32 -17.167 -62.667 -51.5 -92
s-82.166 -54 -143.499 -74l20 -60c22 6.66699 40.5 12.834 55.5 18.501s28.667 11.167 41 16.5s24.666 11.833 36.999 19.5s26.166 16.834 41.499 27.501c22.667 16.667 43.667 35.5 63 56.5s36.166 43.5 50.499 67.5s25.166 48.667 32.499 74s11 49.333 11 72z" />
    <glyph glyph-name="hyphen" unicode="-" horiz-adv-x="595" 
d="M532 623c-36.667 -4.66699 -84 -7.99902 -142 -9.99902s-121.333 -3 -190 -3h-81l-109 -164c35.333 7.33301 73.833 12.666 115.5 15.999s95.167 5 160.5 5h150z" />
    <glyph glyph-name="hyphen" unicode="&#x2010;" horiz-adv-x="595" 
d="M532 623c-36.667 -4.66699 -84 -7.99902 -142 -9.99902s-121.333 -3 -190 -3h-81l-109 -164c35.333 7.33301 73.833 12.666 115.5 15.999s95.167 5 160.5 5h150z" />
    <glyph glyph-name="period" unicode="." horiz-adv-x="649" 
d="M334 94c0 37.333 -11.333 67.5 -34 90.5s-51.667 34.5 -87 34.5s-64.333 -12.333 -87 -37s-34 -54.667 -34 -90c0 -34 10.167 -61.667 30.5 -83s47.833 -33.333 82.5 -36h8c34 0 62.667 11.667 86 35s35 52 35 86z" />
    <glyph glyph-name="slash" unicode="/" horiz-adv-x="980" 
d="M1061 1399l-208.998 -32.999c-6.66699 -12 -12.334 -21.833 -17.001 -29.5s-9.5 -16.334 -14.5 -26.001s-11.5 -20.5 -19.5 -32.5s-18.333 -29 -31 -51l-84 -142l-65 -104l-576 -899l-49 -78l-82 -119l-75 -112l-23 -35l184 31l19 33.5l16 27.5
c5.33301 9.33301 12.166 20.166 20.499 32.499s18.5 28.833 30.5 49.5c16.667 24.667 32.5 49.334 47.5 74.001l44.5 71l46.5 77c11.667 20 20.167 34 25.5 42l504 778l68 101l112 166c16.667 22.667 30.167 42 40.5 58s19.833 30 28.5 42l26.5 35.5z" />
    <glyph glyph-name="zero" unicode="0" 
d="M1142 868c0 71.333 -9.16602 136.664 -27.499 195.997s-44 110.5 -77 153.5s-72.333 76.5 -118 100.5s-95.834 36 -150.501 36c-95.333 0 -191 -37 -287 -111c-61.333 -46 -116.833 -98.833 -166.5 -158.5s-92 -122.834 -127 -189.501s-62 -136.167 -81 -208.5
s-28.5 -144.166 -28.5 -215.499c0 -142 32.833 -257 98.5 -345s155.167 -137.667 268.5 -149h18c36.667 0 77.167 8 121.5 24s86.5 37.667 126.5 65c65.333 44.667 124.333 97.334 177 158.001s97.667 125.834 135 195.501s66.333 142.834 87 219.501s31 153 31 229z
M939.001 1006c0 -57.333 -5.16699 -118.831 -15.5 -184.498s-24.666 -131.334 -42.999 -197.001s-40.5 -129.5 -66.5 -191.5s-54 -119 -84 -171c-92.667 -159.333 -186 -239 -280 -239c-54.667 0 -97.334 25.833 -128.001 77.5s-46 124.5 -46 218.5v25c0 8 0.666992 17 2 27
c9.33301 120 30.333 236.333 63 349s72 212.667 118 300s95.833 157.666 149.5 210.999s107.167 80 160.5 80c113.333 0 170 -101.667 170 -305z" />
    <glyph glyph-name="one" unicode="1" 
d="M1026 1354l-235 -23l-424 -401l36 -142l21 25l136 163l157 191l33 41l-195 -604l-96 -289l-105 -297l-12 -41l244 23c2.66699 9.33301 4.66699 17.5 6 24.5s2.66602 12.5 3.99902 16.5l26.5 89l38.5 130c19.333 68 36.5 125.333 51.5 172l35.5 111l120 379l24.5 68
l49.5 143l44.5 123.5c11.667 32.333 20.834 55.833 27.501 70.5c1.33301 4 5.33301 13 12 27z" />
    <glyph glyph-name="two" unicode="2" 
d="M1086 1063c0 91.333 -36.502 162.665 -109.502 213.998s-174.833 77 -305.5 77c-59.333 0 -112.5 -4.16699 -159.5 -12.5s-95.167 -22.166 -144.5 -41.499l21 -98c44.667 24.667 82.834 41.5 114.501 50.5s67.167 13.5 106.5 13.5c74 0 133.833 -18.167 179.5 -54.5
s68.5 -84.5 68.5 -144.5c0 -45.333 -14.333 -93.166 -43 -143.499s-75.667 -108.166 -141 -173.499l-168 -166l-174 -162l-167 -146.5l-147 -119.5l-51 -156h899l90 186c-61.333 -10.667 -132.333 -18.334 -213 -23.001s-166 -7 -256 -7h-346l45 34l270 205l299 223
c56 42.667 108 86.5 156 131.5s85.667 86.5 113 124.5c18.667 27.333 33.834 57.833 45.501 91.5s17.5 66.167 17.5 97.5z" />
    <glyph glyph-name="three" unicode="3" 
d="M1036 1114c0 34 -8.49902 65.6699 -25.499 95.0029s-41 54.666 -72 75.999s-67.167 38.166 -108.5 50.499s-86 18.5 -134 18.5c-50.667 0 -103 -4.16699 -157 -12.5s-100 -19.833 -138 -34.5l20 -78c42.667 17.333 80 29.5 112 36.5s65.667 10.5 101 10.5
c66 0 117.667 -15 155 -45s56 -71 56 -123c0 -44 -10.167 -84 -30.5 -120s-48.666 -67.333 -84.999 -94s-79.333 -47.5 -129 -62.5s-104.5 -22.5 -164.5 -22.5c-20.667 0 -36.834 0.666992 -48.501 2s-27.5 4 -47.5 8l-70 -121h27c61.333 0 118.166 -8.16699 170.499 -24.5
s98 -38.5 137 -66.5s69.833 -61 92.5 -99s34 -79.667 34 -125s-9.66699 -87.333 -29 -126s-46 -72.334 -80 -101.001s-74.167 -50.834 -120.5 -66.501s-96.833 -23.5 -151.5 -23.5c-44 0 -84.667 4.33301 -122 13s-79.333 22.667 -126 42l-41 -86
c48 -19.333 100 -33.833 156 -43.5s114 -14.5 174 -14.5c79.333 0 152.333 10.667 219 32s124.667 50.833 174 88.5s88 82.334 116 134.001s42 107.5 42 167.5c0 52 -11 100.167 -33 144.5s-53.333 82.833 -94 115.5c-18 14 -35.167 26.5 -51.5 37.5s-34 20.5 -53 28.5
s-40.5 15.5 -64.5 22.5s-53 13.833 -87 20.5c32.667 2.66699 60.5 5.66699 83.5 9s44.5 7.5 64.5 12.5s39.167 10.833 57.5 17.5s38.5 15.667 60.5 27c65.333 32.667 116.833 73.5 154.5 122.5s56.5 101.5 56.5 157.5z" />
    <glyph glyph-name="four" unicode="4" 
d="M1147 596c-19.333 -1.33301 -36.1729 -2.6709 -50.5059 -4.00391s-28.666 -2.33301 -42.999 -3s-29.833 -1 -46.5 -1h-59h-104l32 104l44.5 136.5l54 159.5l59.5 169c20.667 57.333 41.667 112.666 63 165.999l13 31l-238 -23l-239 -743h-410l92 95l73 78l66.5 77
l75.5 92c27.333 32.667 53 65 77 97l69 95l41.5 63.5c11.667 17.667 21.667 34.834 30 51.501s15.5 33.5 21.5 50.5s12.333 37.167 19 60.5l-194 -17c-2.66699 -16 -4.66699 -28.333 -6 -37c-11.333 -57.333 -34 -120.5 -68 -189.5s-82.333 -147.833 -145 -236.5l-79 -105
l-76 -92c-25.333 -29.333 -51.666 -57.666 -78.999 -84.999s-56.666 -54.666 -87.999 -81.999l29 -90c20 4 38.333 7.33301 55 10s32.5 4.33398 47.5 5.00098s31.333 1.33398 49 2.00098s38.834 1 63.501 1h284l-20 -59l-129 -373l-8 -20l245 20l13 43l94 334l16 55h52h55
h47c14.667 0 30.334 -0.333008 47.001 -1s36.334 -1.66699 59.001 -3z" />
    <glyph glyph-name="five" unicode="5" 
d="M1171 1331l-605.998 0.00195312l-22 -60.5c-5.33301 -14.333 -14.333 -34.5 -27 -60.5l-42.5 -87c-15 -30.667 -32.167 -63 -51.5 -97l-40 -74.5l-32.5 -58.5c-10.333 -18 -21.333 -36.167 -33 -54.5l-40.5 -62.5c70 -2.66699 133.333 -12.5 190 -29.5
s105.5 -40.167 146.5 -69.5s72.333 -64.833 94 -106.5s32.5 -87.167 32.5 -136.5c0 -52 -10.167 -101.167 -30.5 -147.5s-48.333 -86.5 -84 -120.5s-77.334 -61 -125.001 -81s-98.834 -30 -153.501 -30c-94 0 -185.333 24 -274 72l-29 -70
c53.333 -27.333 108.333 -47.5 165 -60.5s118.334 -19.5 185.001 -19.5c79.333 0 152.5 12 219.5 36s124.667 57.167 173 99.5s86.166 92.5 113.499 150.5s41 121.333 41 190c0 113.333 -43 210.166 -129 290.499s-205.333 136.166 -358 167.499l145 277h485z" />
    <glyph glyph-name="six" unicode="6" 
d="M1244 1315c-21.333 8 -40.335 14.3301 -57.002 18.9971s-33.167 8.83398 -49.5 12.501s-33.666 5.83398 -51.999 6.50098s-40.5 1 -66.5 1c-87.333 0 -166.5 -12.333 -237.5 -37s-141.167 -63.667 -210.5 -117c-63.333 -48 -119.833 -102.333 -169.5 -163
s-92.334 -124.834 -128.001 -192.501s-63 -137.667 -82 -210s-28.5 -143.833 -28.5 -214.5c0 -67.333 9.5 -127.833 28.5 -181.5s46.333 -100 82 -139s78 -69.167 127 -90.5s104.167 -32 165.5 -32c66 0 128.333 13.667 187 41s110.167 64 154.5 110s79.833 99 106.5 159
s40 122.667 40 188c0 48 -7.83301 91.833 -23.5 131.5s-37.167 73.834 -64.5 102.501s-60.5 50.834 -99.5 66.501s-81.833 23.5 -128.5 23.5c-65.333 0 -123.5 -13 -174.5 -39s-101.833 -67.667 -152.5 -125c8 49.333 20.833 96.5 38.5 141.5s42.834 94.833 75.501 149.5
c136.667 226.667 308.334 340 515.001 340c17.333 0 32.5 -0.333008 45.5 -1s25.333 -2.5 37 -5.5s23.667 -6.5 36 -10.5s25.833 -9.33301 40.5 -16zM858.998 476.997c0 -61.333 -7.49805 -119.332 -22.498 -173.999s-35.5 -102.834 -61.5 -144.501s-55.667 -74.667 -89 -99
s-69 -36.5 -107 -36.5c-54.667 0 -101.5 21.833 -140.5 65.5s-61.833 100.167 -68.5 169.5c-1.33301 8 -2 16.333 -2 25v24c0 56 7.83301 109.333 23.5 160s37.167 94.667 64.5 132s58.666 67 93.999 89s73.666 33 114.999 33c58.667 0 105.667 -22.167 141 -66.5
s53 -103.5 53 -177.5z" />
    <glyph glyph-name="seven" unicode="7" 
d="M1269 1313l-37.002 35.001c-19.333 -3.33301 -38.833 -6 -58.5 -8s-42.167 -3.66699 -67.5 -5s-53.666 -2.33301 -84.999 -3s-68 -1 -110 -1c-86 0 -166.667 1.33301 -242 4s-137.666 7 -186.999 13l-120 -230c38 10 73.333 18 106 24s65.5 10.667 98.5 14
s67.5 5.66602 103.5 6.99902s76.667 2 122 2h229l-403 -442l-98.5 -112.5l-106.5 -131l-102.5 -132c-33 -43 -61.167 -81.833 -84.5 -116.5c-32.667 -47.333 -57.167 -90.5 -73.5 -129.5s-27.166 -79.5 -32.499 -121.5l285 20c0 9.33301 0.333008 17.833 1 25.5
s1 13.5 1 17.5c6.66699 48 23.667 106.5 51 175.5s62 139.5 104 211.5c20.667 35.333 43.667 71.833 69 109.5s53.666 77.5 84.999 119.5c34 48 68.5 93.833 103.5 137.5l116 140.5l143 165z" />
    <glyph glyph-name="eight" unicode="8" 
d="M1126 1141c0 64 -29.333 115.497 -88 154.497s-135.667 58.5 -231 58.5c-62.667 0 -120.334 -9 -173.001 -27s-98.167 -43 -136.5 -75s-68 -70.167 -89 -114.5s-31.5 -93.166 -31.5 -146.499c0 -87.333 49.667 -176.666 149 -267.999
c-65.333 -16.667 -125 -39.667 -179 -69s-100.5 -63 -139.5 -101s-69 -79.667 -90 -125s-31.5 -92.333 -31.5 -141c0 -96 35.5 -171.667 106.5 -227s168.5 -83 292.5 -83c71.333 0 138.333 11.333 201 34s117.334 53.5 164.001 92.5s83.5 84.333 110.5 136
s40.5 107.167 40.5 166.5c0 30 -2.66699 57.167 -8 81.5s-15.5 48.833 -30.5 73.5s-35.5 51 -61.5 79s-58.667 60.333 -98 97l-29 29c124 58.667 213.667 117.334 269 176.001s83 125 83 199zM956 1139c0 -64.667 -18.6699 -125.668 -56.0029 -183.001s-93 -109 -167 -155
l-13 10c-3.33301 2.66699 -6.33301 5.33398 -9 8.00098c-36 30 -64.167 55 -84.5 75s-35.666 38.167 -45.999 54.5s-17.166 32.333 -20.499 48s-5 34.5 -5 56.5c0 32.667 6.5 64.667 19.5 96s30.333 59 52 83s46.5 43.167 74.5 57.5s57 21.5 87 21.5
c50.667 0 91.334 -15.667 122.001 -47s46 -73 46 -125zM808.997 351.996c0 -47.333 -7.16797 -91.168 -21.501 -131.501s-34.5 -75.166 -60.5 -104.499s-56.667 -52.166 -92 -68.499s-73.666 -24.5 -114.999 -24.5c-69.333 0 -123.5 20.667 -162.5 62
s-58.5 100.333 -58.5 177c0 83.333 23.333 165.333 70 246c24 40.667 51.5 74.667 82.5 102s70.833 52.666 119.5 75.999l35 -33l86 -73c78 -68.667 117 -144.667 117 -228z" />
    <glyph glyph-name="nine" unicode="9" 
d="M1093 913c0 67.333 -9.83398 128.336 -29.501 183.003s-47.167 101 -82.5 139s-78.333 67.333 -129 88s-107.334 31 -170.001 31c-64 0 -125.5 -13.333 -184.5 -40s-110.667 -62.5 -155 -107.5s-79.5 -96.833 -105.5 -155.5s-39 -121 -39 -187
c0 -48.667 7.66699 -93.167 23 -133.5s36.833 -75.166 64.5 -104.499s60.667 -52.333 99 -69s80.833 -25 127.5 -25c120 0 230 56 330 168l-26 -85.5c-7.33301 -24.333 -15.166 -46.833 -23.499 -67.5s-17.333 -40.834 -27 -60.501s-21.167 -41.834 -34.5 -66.501
c-64 -116 -141.5 -205.833 -232.5 -269.5s-188.167 -95.5 -291.5 -95.5c-16.667 0 -31.5 0.666992 -44.5 2s-25.333 3.5 -37 6.5s-23.667 7.16699 -36 12.5s-25.833 12 -40.5 20l-41 -82c22 -8 41.833 -14.333 59.5 -19s34.667 -8.33398 51 -11.001s33.333 -4.5 51 -5.5
s38.834 -1.5 63.501 -1.5c161.333 0 310.333 50 447 150c60 44 115.167 96.667 165.5 158s94 126.833 131 196.5s65.667 141.667 86 216s30.5 146.166 30.5 215.499zM881.999 1006c0 -52 -8.16602 -102.001 -24.499 -150.001s-38.5 -90 -66.5 -126s-60 -65 -96 -87
s-74 -33 -114 -33c-57.333 0 -103 23.333 -137 70s-51 108.667 -51 186v29c0 9.33301 1.33301 19 4 29c5.33301 54.667 17 105.834 35 153.501s39.167 88.5 63.5 122.5s52.166 61 83.499 81s64.333 30 99 30c28.667 0 55.5 -7.83301 80.5 -23.5s46.833 -37.167 65.5 -64.5
s33 -59.5 43 -96.5s15 -77.167 15 -120.5z" />
    <glyph glyph-name="colon" unicode=":" horiz-adv-x="649" 
d="M575 850c0 35.333 -10.168 63.668 -30.501 85.001s-48.166 32 -83.499 32c-37.333 0 -67.833 -12 -91.5 -36s-35.5 -54.333 -35.5 -91c0 -36 10.833 -64.833 32.5 -86.5s51.167 -32.5 88.5 -32.5c34 0 62.5 12.667 85.5 38s34.5 55.666 34.5 90.999zM329.999 96.002
c0 36 -10.999 66.167 -32.999 90.5s-49.333 36.5 -82 36.5c-35.333 0 -65 -12.167 -89 -36.5s-36 -54.5 -36 -90.5c0 -34 10.5 -62.333 31.5 -85s49.5 -34 85.5 -34h6c35.333 0 63.666 11 84.999 33s32 50.667 32 86z" />
    <glyph glyph-name="semicolon" unicode=";" horiz-adv-x="638" 
d="M368 100c0 36 -10.8301 65.167 -32.4971 87.5s-48.834 33.5 -81.501 33.5s-61 -10.833 -85 -32.5s-36 -48.167 -36 -79.5c0 -27.333 12.333 -51.333 37 -72c14.667 -14 24.167 -24.333 28.5 -31s6.5 -15.334 6.5 -26.001c0 -32 -16.833 -62.333 -50.5 -91
s-81.834 -53.667 -144.501 -75l23 -60c50 15.333 95.5 34.833 136.5 58.5s76.167 51 105.5 82s52.166 63.833 68.499 98.5s24.5 70.334 24.5 107.001zM608.003 846c0 35.333 -10.5 64.333 -31.5 87s-49.5 34 -85.5 34c-34 0 -63 -12.333 -87 -37s-36 -54.667 -36 -90
c0 -34.667 11.333 -63.167 34 -85.5s51.667 -33.5 87 -33.5c32.667 0 60.667 12 84 36s35 53.667 35 89z" />
    <glyph glyph-name="less" unicode="&#x3c;" horiz-adv-x="1138" 
d="M923 -25v134l-676 311l676 332v133l-813 -410v-113z" />
    <glyph glyph-name="equal" unicode="=" horiz-adv-x="1138" 
d="M110 260h813v113h-813v-113zM110 465h813v113h-813v-113z" />
    <glyph glyph-name="greater" unicode="&#x3e;" horiz-adv-x="1138" 
d="M180 -25l813 387v113l-813 410v-133l676 -332l-676 -311v-134z" />
    <glyph glyph-name="question" unicode="?" horiz-adv-x="1087" 
d="M1013 1137c0 76 -27.666 136.505 -82.999 181.505s-129.333 68.5 -222 70.5c-48 0 -92.5 -5.83301 -133.5 -17.5s-81.167 -29.834 -120.5 -54.501l31 -68c58.667 41.333 120 62 184 62c49.333 0 87.666 -14.667 114.999 -44s41 -70 41 -122
c0 -57.333 -16.5 -110.333 -49.5 -159s-88.167 -103 -165.5 -163c-36 -27.333 -67.667 -52.5 -95 -75.5s-50.333 -44.167 -69 -63.5c-38.667 -39.333 -69.167 -86.666 -91.5 -141.999s-33.5 -109.666 -33.5 -162.999c0 -14 0.666992 -26 2 -36l6 -44l160 53
c-19.333 31.333 -32 56.666 -38 75.999s-9 44.666 -9 75.999c0 27.333 4 52.166 12 74.499s22 44.166 42 65.499s46.667 43.166 80 65.499s76 47.166 128 74.499c206 109.333 309 227 309 353zM431.001 94.0049c0 35.333 -10.167 63.668 -30.5 85.001s-47.5 32 -81.5 32
c-36 0 -64.5 -11.333 -85.5 -34s-31.5 -51.667 -31.5 -87c0 -32.667 10.5 -59.667 31.5 -81s49.5 -32 85.5 -32c32.667 0 59.5 10.667 80.5 32s31.5 49.666 31.5 84.999z" />
    <glyph glyph-name="at" unicode="@" horiz-adv-x="2048" 
d="M1638 -23c-1.33301 -1.33301 -3.99902 -3.33301 -7.99902 -6c-23.333 -18.667 -49 -37.667 -77 -57s-66.167 -40.5 -114.5 -63.5s-107 -42.333 -176 -58s-143.833 -23.5 -224.5 -23.5c-108 0 -206 14.667 -294 44s-163.333 70.5 -226 123.5s-110.5 115.333 -143.5 187
s-49.5 149.167 -49.5 232.5c0 98.667 21.833 196.5 65.5 293.5s103.5 184.333 179.5 262s161 139 255 184s189.667 67.5 287 67.5c86 0 167.167 -12.667 243.5 -38s144.166 -62.166 203.499 -110.499s105.833 -107.333 139.5 -177s50.5 -147.5 50.5 -233.5
c0 -82 -13.667 -157.5 -41 -226.5s-62.166 -127.333 -104.499 -175s-87.5 -84.167 -135.5 -109.5s-91 -38 -129 -38c-22 0 -37.667 4.83301 -47 14.5s-14 23.5 -14 41.5c0 9.33301 4 26.666 12 51.999s18.167 55 30.5 89s26.666 71.167 42.999 111.5l39.5 95.5l169 424h-176
l-45 -111c-1.33301 2.66699 -2 4.66699 -2 6c-9.33301 16.667 -18.833 32.167 -28.5 46.5s-23.334 29.333 -41.001 45s-40.5 28.667 -68.5 39s-61 15.5 -99 15.5c-64.667 0 -128.667 -20.167 -192 -60.5s-120.666 -94.333 -171.999 -162s-91.666 -141.167 -120.999 -220.5
s-44 -155 -44 -227c0 -92.667 25.667 -164.667 77 -216s116 -77 194 -77c65.333 0 118.5 13.667 159.5 41s75.833 57.333 104.5 90l2 2c0 -16 2 -31.833 6 -47.5s11.167 -31.167 21.5 -46.5s25.666 -27.666 45.999 -36.999s45.5 -14 75.5 -14c70 0 139.5 16.667 208.5 50
s131.5 80 187.5 140s100 130.333 132 211s48 165.334 48 254.001c0 96 -18.833 184.833 -56.5 266.5s-90.334 152.167 -158.001 211.5s-146.5 105.166 -236.5 137.499s-186.667 48.5 -290 48.5c-122 0 -238.333 -24.333 -349 -73s-209 -116 -295 -202
s-153.167 -184.333 -201.5 -295s-72.5 -225.334 -72.5 -344.001c0 -98 20.833 -188.667 62.5 -272s100.334 -155.333 176.001 -216s165.5 -107.5 269.5 -140.5s216 -49.5 336 -49.5c80.667 0 158.167 9.66699 232.5 29s140.833 43 199.5 71s107.5 56 146.5 84
s66.5 51.333 82.5 70zM745.001 182c0 49.333 12.332 111.5 36.999 186.5s57.167 149 97.5 222s85 133.5 134 181.5s96.833 72 143.5 72c39.333 0 70.333 -13 93 -39s34 -56.667 34 -92c0 -15.333 -3.83301 -41.333 -11.5 -78s-18.667 -78.667 -33 -126
s-32.333 -96.5 -54 -147.5s-46.167 -98.5 -73.5 -142.5l-8 -14c-27.333 -45.333 -57.166 -83.333 -89.499 -114s-74.5 -46 -126.5 -46c-43.333 0 -78 11.333 -104 34s-39 57 -39 103z" />
    <glyph glyph-name="A" unicode="A" horiz-adv-x="1736" 
d="M1653 1397l-338.001 -32.998l-80 -89l-58.5 -69.5l-50 -62.5l-51.5 -68c-22.667 -30 -44.667 -60.667 -66 -92l-65 -98l-43.5 -69c-13 -20 -25.333 -40.167 -37 -60.5l-37 -64.5c-13 -22.667 -27.5 -49.667 -43.5 -81h-41l-109 -2c-98 -2.66699 -189 -10.167 -273 -22.5
s-157.333 -30.833 -220 -55.5c-34.667 -13.333 -66.334 -31.333 -95.001 -54s-53.5 -47.334 -74.5 -74.001s-37.333 -55.334 -49 -86.001s-17.5 -61 -17.5 -91c0 -38 7.5 -72.667 22.5 -104s36.5 -58.333 64.5 -81s60.833 -40.5 98.5 -53.5s78.834 -19.5 123.501 -19.5
c58.667 0 114.334 11 167.001 33s104.334 56.5 155.001 103.5s100.167 106.667 148.5 179s97.833 159.833 148.5 262.5h291c-3.33301 -31.333 -5.33301 -58 -6 -80s-1.66699 -42.5 -3 -61.5s-2 -38.167 -2 -57.5v-65c0 -36 0.333008 -66.833 1 -92.5
s2.83398 -49.834 6.50098 -72.501s8.16699 -45.667 13.5 -69s12.666 -50 21.999 -80h328l29 88c-37.333 0 -67.5 5.16699 -90.5 15.5s-41.333 29.166 -55 56.499s-23 64.5 -28 111.5s-7.5 108.167 -7.5 183.5c0 70.667 3.16699 139.834 9.5 207.501s16.333 136.667 30 207
s30.667 142.666 51 216.999s44.166 153.166 71.499 236.499l15 43l79 8c-9.33301 -25.333 -17 -47.666 -23 -66.999s-12.167 -38.166 -18.5 -56.499s-12.5 -37.833 -18.5 -58.5l-21 -72c-16.667 -57.333 -30.834 -110.833 -42.501 -160.5s-21.167 -97.334 -28.5 -143.001
s-12.833 -91 -16.5 -136s-5.5 -90.833 -5.5 -137.5c0 -86 5.16699 -156.667 15.5 -212s27.833 -107 52.5 -155l98 90c-72 68.667 -108 188.334 -108 359.001c0 40.667 3 86 9 136s14.667 103.667 26 161c6.66699 36.667 14.334 72.834 23.001 108.501
s18.167 72.167 28.5 109.5s22.333 76.833 36 118.5s29.5 87.167 47.5 136.5zM1282 1247l-24.499 -73.501l-19.5 -58.5l-17 -53.5c-5.33301 -17 -11 -36.167 -17 -57.5c-10.667 -37.333 -19.334 -71 -26.001 -101l-19.5 -90c-6.33301 -30 -11.833 -61.333 -16.5 -94l-15 -109
h-260c12 24.667 23.167 46.167 33.5 64.5l28.5 52.5c8.66699 16.667 18.167 33.834 28.5 51.501s23.166 38.167 38.499 61.5l51.5 85c15.667 25.333 31.834 49.833 48.501 73.5l53.5 73.5l65.5 87zM746 545.001l-34.998 -62.002l-81 -140
c-22.667 -38.667 -42.834 -71.667 -60.501 -99s-34.334 -51 -50.001 -71s-32.5 -38 -50.5 -54c-23.333 -23.333 -52.333 -41.5 -87 -54.5s-69.667 -19.5 -105 -19.5c-31.333 0 -60.666 5.16699 -87.999 15.5s-51 24.333 -71 42s-35.667 38.834 -47 63.501
s-17 51.334 -17 80.001c0 52 17.667 98.833 53 140.5s83.666 73.167 144.999 94.5c60 22 128.333 37.5 205 46.5s173 14.833 289 17.5z" />
    <glyph glyph-name="B" unicode="B" horiz-adv-x="1822" 
d="M1763 1174c0 65.333 -22.332 119.166 -66.999 161.499s-101.667 63.5 -171 63.5c-50.667 0 -101.834 -11.667 -153.501 -35s-101.167 -55.833 -148.5 -97.5s-91.5 -91.5 -132.5 -149.5s-75.833 -121.667 -104.5 -191c-8 -19.333 -17.167 -43.666 -27.5 -72.999
s-20.5 -61.333 -30.5 -96l-30.5 -107.5c-10.333 -37 -19.5 -71.833 -27.5 -104.5c-14 -54.667 -24 -105.5 -30 -152.5s-9 -87.167 -9 -120.5c0 -99.333 27 -175 81 -227s134 -78 240 -78c66 0 128 10.333 186 31s108.833 49 152.5 85s78.167 78 103.5 126s38 98.333 38 151
c0 57.333 -14.333 110.666 -43 159.999c-24.667 45.333 -58.334 83 -101.001 113c-20.667 14.667 -40.5 27.5 -59.5 38.5s-39.333 21 -61 30s-46.5 17.167 -74.5 24.5s-62 15.333 -102 24l56.5 10c15.667 2.66699 28.834 5.33398 39.501 8.00098
c74 15.333 136 33.5 186 54.5s96.667 47.167 140 78.5c48 35.333 85 77.333 111 126s39 97.667 39 147zM1087 1366h-48.999c-28.667 0 -52.334 -0.333008 -71.001 -1s-33.334 -1 -44.001 -1c-126 -4 -238 -18.333 -336 -43s-186 -62.334 -264 -113.001
c-64 -40.667 -114.5 -92 -151.5 -154s-55.5 -127.333 -55.5 -196l240 21c-8.66699 24 -14.334 42.5 -17.001 55.5s-4 30.5 -4 52.5c0 95.333 38.667 171 116 227s181.333 84 312 84h41c12.667 0 30.334 -1.33301 53.001 -4l-26 -59c-12.667 -27.333 -24 -53.333 -34 -78
l-28 -67l-37.5 -96.5l-44 -117l-44 -124l-40.5 -117.5c-27.333 -80.667 -52.5 -159.834 -75.5 -237.501s-44.167 -155.5 -63.5 -233.5c-6.66699 -23.333 -11.667 -42.833 -15 -58.5l-9.5 -44c-3 -13.667 -5.5 -27.334 -7.5 -41.001s-3.66699 -29.5 -5 -47.5l416 25
l-71.5 49.5c-19 13.667 -42.833 33.167 -71.5 58.5c4 27.333 7.66699 51.333 11 72l9 55.5c2.66699 16.333 5.66699 32 9 47l12 51.5c4 20 9.33301 44 16 72s15.667 60.667 27 98c14.667 60 28.834 113.5 42.501 160.5s26.167 88.167 37.5 123.5
c8 28.667 16 55.334 24 80.001s16.833 50.334 26.5 77.001l33 88l42.5 110l28 71.5c7.33301 19 14.5 36.333 21.5 52l20.5 47c6.66699 15.667 15.667 33.834 27 54.501zM1529 1163c0 -48.667 -13.332 -96.332 -39.999 -142.999s-62.167 -88 -106.5 -124
s-94.833 -65 -151.5 -87s-115 -33 -175 -33c-13.333 0 -23.833 0.666992 -31.5 2s-18.167 3.33301 -31.5 6c20 71.333 45.667 137.666 77 198.999s66.166 114.5 104.499 159.5s78.333 80.5 120 106.5s82.167 39 121.5 39c34.667 0 62.167 -11.167 82.5 -33.5
s30.5 -52.833 30.5 -91.5zM1406 340.002c0 -49.333 -6.50098 -94.167 -19.501 -134.5s-31 -75.166 -54 -104.499s-51 -51.833 -84 -67.5s-69.167 -23.5 -108.5 -23.5c-78 0 -139.833 24 -185.5 72s-68.5 112.667 -68.5 194c0 45.333 7.83301 108.666 23.5 189.999
s37.167 167 64.5 257c136.667 -4 242.834 -39.5 318.501 -106.5s113.5 -159.167 113.5 -276.5z" />
    <glyph glyph-name="C" unicode="C" horiz-adv-x="1290" 
d="M1406 1296c-44.667 19.333 -85.834 35.501 -123.501 48.501s-73.5 23.667 -107.5 32s-66.833 14.166 -98.5 17.499s-63.834 5 -96.501 5c-117.333 0 -230.5 -25.667 -339.5 -77s-205.833 -119.666 -290.5 -204.999s-152.334 -183 -203.001 -293s-76 -224.333 -76 -343
c0 -53.333 5.16699 -103.5 15.5 -150.5s25.5 -89.5 45.5 -127.5c19.333 -35.333 44 -67.5 74 -96.5s63.833 -53.667 101.5 -74s78.334 -36.333 122.001 -48s88.167 -17.5 133.5 -17.5c48.667 0 103.834 4.5 165.501 13.5s120.5 20.833 176.5 35.5l54.5 16
c16.333 4.66699 32.5 10 48.5 16s32.5 12.833 49.5 20.5l60.5 27.5l28 88l-48.5 -21c-13.667 -6 -27.334 -11.5 -41.001 -16.5s-28 -9.83301 -43 -14.5s-32.833 -9.66699 -53.5 -15c-62.667 -19.333 -114.5 -32.666 -155.5 -39.999s-81.5 -11 -121.5 -11
c-110.667 0 -197.667 36.5 -261 109.5s-95 172.167 -95 297.5c0 66.667 12 143 36 229s55.667 168.667 95 248c60 120 128.667 212.833 206 278.5s169 109.5 275 131.5l-6 -25c-60 -21.333 -113.167 -50.833 -159.5 -88.5s-90.166 -86.5 -131.499 -146.5
c-27.333 -40 -52.166 -83.833 -74.499 -131.5s-41.333 -96.334 -57 -146.001s-28 -99.5 -37 -149.5s-13.5 -97.667 -13.5 -143c0 -95.333 18.5 -175.333 55.5 -240s89.5 -108 157.5 -130l154 159c-178 3.33301 -267 104.666 -267 303.999c0 58.667 9.33301 123.5 28 194.5
s43.667 138.5 75 202.5c22 44.667 47.333 85.5 76 122.5s59 68.833 91 95.5s64.667 47.167 98 61.5s65.666 21.5 96.999 21.5c56 0 108.333 -28.333 157 -85s85.334 -132 110.001 -226z" />
    <glyph glyph-name="D" unicode="D" horiz-adv-x="2056" 
d="M1986 831c0 132.667 -41.0029 244.666 -123.003 335.999c-64 72.667 -150.667 125.667 -260 159s-250.666 50 -423.999 50c-121.333 0 -244.333 -6 -369 -18c-116 -11.333 -213.833 -29.166 -293.5 -53.499s-148.834 -58.5 -207.501 -102.5
c-63.333 -48 -111.333 -101.333 -144 -160s-49 -121.334 -49 -188.001l240 23c-8.66699 24 -14.334 43.5 -17.001 58.5s-4 32.833 -4 53.5c0 110.667 50.167 192 150.5 244s255.833 78 466.5 78c518.667 0 778 -168.667 778 -506c0 -48 -5.5 -98.667 -16.5 -152
s-26.667 -106.5 -47 -159.5s-44.166 -104.167 -71.499 -153.5s-57.333 -93 -90 -131c-46.667 -54.667 -103.5 -97.667 -170.5 -129s-137.167 -47 -210.5 -47c-154.667 0 -232 79.667 -232 239c0 56 7.83301 124.333 23.5 205s37.834 168 66.501 262
c20.667 66 40.834 122.5 60.501 169.5s41.834 92.167 66.501 135.5c18 33.333 34.5 59.166 49.5 77.499s36.167 41.166 63.5 68.499l-117 -27c-5.33301 -8 -9.66602 -15 -12.999 -21s-6.33301 -12 -9 -18c-50.667 -90 -100.667 -212.667 -150 -368
c-31.333 -102.667 -55.5 -194.667 -72.5 -276s-25.5 -147.666 -25.5 -198.999c0 -101.333 27 -179 81 -233s130.667 -81 230 -81c71.333 0 141.333 11.333 210 34s134.167 53.834 196.5 93.501s120.166 86.667 173.499 141s99 113.333 137 177s68 131.334 90 203.001
s33 143.5 33 215.5zM1036 1253l-38.9971 0.000976562h-33h-35c-12 0 -27 -0.666992 -45 -2l-47 -2c-41.333 -90 -80 -182.167 -116 -276.5s-73.667 -202.166 -113 -323.499c-26 -78 -50.333 -155.833 -73 -233.5s-41.667 -145.167 -57 -202.5l-17 -66.5
c-4.66699 -18.333 -8.66699 -36.333 -12 -54s-6.5 -35.834 -9.5 -54.501s-5.83301 -40.334 -8.5 -65.001l414 25c-35.333 22 -61.833 39.5 -79.5 52.5s-39.5 30.833 -65.5 53.5c5.33301 42.667 10.666 79.667 15.999 111s12.166 64.166 20.499 98.499s18.333 73.333 30 117
l45.5 165.5l38.5 134c10.333 36 20.166 68.333 29.499 97l28.5 85l34.5 100l26 75.5c7.33301 20.333 14.5 39 21.5 56l20.5 50.5c6.66699 16.667 15 36.334 25 59.001z" />
    <glyph glyph-name="E" unicode="E" horiz-adv-x="1630" 
d="M1873 1393c-32.667 -10 -63 -18.0039 -91 -24.0039s-56.333 -11 -85 -15s-58.334 -6.83301 -89.001 -8.5s-65 -2.5 -103 -2.5h-56c-16 0 -32.667 0.833008 -50 2.5s-35.833 2.83398 -55.5 3.50098s-43.167 2.33398 -70.5 5.00098c-36.667 2.66699 -69 4.66699 -97 6
s-53.667 2.66602 -77 3.99902s-45 2 -65 2h-62c-155.333 0 -289.333 -15 -402 -45s-208.667 -77.667 -288 -143c-56 -44 -97 -92 -123 -144s-40.333 -111.333 -43 -178l244 23c-8.66699 24 -14.334 44.333 -17.001 61s-4 34.334 -4 53.001
c0 94.667 39.667 169.167 119 223.5s188.666 81.5 327.999 81.5c53.333 0 104.833 -2.33301 154.5 -7s101.167 -11 154.5 -19l41 -6l-20.5 -43.5c-5.66699 -12.333 -11.167 -25 -16.5 -38l-18.5 -43c-7 -15.667 -15.167 -35.834 -24.5 -60.501l-61 -155
c-26 -67.333 -50 -136.5 -72 -207.5s-40.833 -140.5 -56.5 -208.5s-28 -132.167 -37 -192.5s-13.5 -112.833 -13.5 -157.5c0 -16.667 0.333008 -31.834 1 -45.501s2.66699 -32.167 6 -55.5c138.667 -46 284 -69 436 -69c18.667 0 34.167 0.333008 46.5 1
s28.833 2.33398 49.5 5.00098l25 24l41.5 49.5l28 33c8.33301 9.66699 15.833 19.5 22.5 29.5l26 38c-47.333 -10.667 -96 -19.5 -146 -26.5s-94.667 -10.5 -134 -10.5c-53.333 0 -107 5.5 -161 16.5s-104 26.833 -150 47.5c-2 12 -3 22.667 -3 32v25
c0 31.333 2.16699 66.833 6.5 106.5s9.83301 80.334 16.5 122.001s14.5 82.667 23.5 123s18.833 77.5 29.5 111.5l37 -2c28.667 -1.33301 53.334 -3 74.001 -5s40.5 -4.83301 59.5 -8.5s39 -8.5 60 -14.5s45.833 -14.333 74.5 -25l101 114h-387l16 47l14 54
c6 18.667 17.167 49.834 33.5 93.501l52.5 135.5c7.33301 16 13.333 30.167 18 42.5s9.33398 24 14.001 35s9.83398 22.333 15.501 34s12.5 24.834 20.5 39.501l47 -8l117 -14l153 -25l136 -16l55 -6zM1027 1237c-17.333 2.66699 -31.499 4.33496 -42.499 5.00195
s-28.167 1 -51.5 1c-28.667 0 -49.167 -0.333008 -61.5 -1s-25.833 -2.33398 -40.5 -5.00098l-17 -35c-39.333 -86 -75 -174.333 -107 -265l-93 -273l-71 -223.5c-24 -79 -45.667 -154.833 -65 -227.5c-8 -30 -14.333 -54.833 -19 -74.5s-8.66699 -38.167 -12 -55.5
l-9.5 -50.5c-3 -16.333 -5.16699 -35.5 -6.5 -57.5l420 27l-33 21c-35.333 21.333 -59.833 36.833 -73.5 46.5s-27.834 21.834 -42.501 36.501l6 44c6.66699 43.333 13.834 83.166 21.501 119.499s15.5 70.166 23.5 101.499l22.5 88.5l36.5 136.5
c15.333 57.333 29.166 105.833 41.499 145.5s22.5 71.167 30.5 94.5l49 141l39 113l43 112z" />
    <glyph glyph-name="F" unicode="F" horiz-adv-x="1480" 
d="M1875 1391c-31.333 -8.66699 -61.3359 -15.9971 -90.0029 -21.9971s-57.334 -11 -86.001 -15s-58.334 -6.83301 -89.001 -8.5s-63.667 -2.5 -99 -2.5c-15.333 0 -33.833 0.5 -55.5 1.5l-73.5 3.5l-138 6l-139 6l-106 6c-14 1.33301 -27 2 -39 2h-39
c-60 0 -121.333 -4 -184 -12c-104 -12.667 -192.5 -33 -265.5 -61s-138.167 -66.333 -195.5 -115c-46.667 -41.333 -84.334 -91 -113.001 -149s-44.334 -117 -47.001 -177l244 23c-11.333 25.333 -19 46.666 -23 63.999s-6 36.666 -6 57.999
c0 93.333 41.333 166.5 124 219.5s195 79.5 337 79.5c28.667 0 56.334 -0.666992 83.001 -2s53.334 -3.33301 80.001 -6s55 -6 85 -10s62.667 -9.33301 98 -16l-20.5 -40.5c-5.66699 -11.667 -10.834 -23.667 -15.501 -36s-10.5 -26.333 -17.5 -42
s-15.167 -35.834 -24.5 -60.501l-41.5 -108l-32 -82c-9.66699 -24.667 -18.167 -48.167 -25.5 -70.5l-24 -74.5c-39.333 -123.333 -70 -237.166 -92 -341.499s-33 -193.5 -33 -267.5c0 -16 0.333008 -30.5 1 -43.5s1.66699 -25.667 3 -38s3.5 -25 6.5 -38l10.5 -46.5l106 19
c-9.33301 16 -16.666 31.167 -21.999 45.5s-9.83301 29.5 -13.5 45.5s-6.16699 33.167 -7.5 51.5s-2 41.166 -2 68.499c0 66.667 6.16699 139 18.5 217s32.166 166 59.499 264c57.333 0 108.833 -4.5 154.5 -13.5s94.5 -22.833 146.5 -41.5l100 112h-383
c4.66699 16.667 8.33398 31.167 11.001 43.5s6 25 10 38s9.16699 27.667 15.5 44l23.5 63.5c12 34 23.833 65.333 35.5 94l33 81c10.333 25.333 21 50 32 74l34.5 74c16.667 -2.66699 30.334 -5 41.001 -7s21.834 -3.66699 33.501 -5s24.334 -3 38.001 -5
s30.834 -4.33301 51.501 -7c35.333 -5.33301 65.333 -9.5 90 -12.5s44.334 -5.83301 59.001 -8.5l140 -20l53 -6zM1029 1237c-24 2.66699 -44.6699 4.33301 -62.0029 5s-41.666 1 -72.999 1c-14.667 0 -25.167 -0.333008 -31.5 -1s-16.166 -2.33398 -29.499 -5.00098
l-17 -39l-65 -164c-12.667 -28.667 -27.5 -66.5 -44.5 -113.5l-53 -151.5l-55 -164l-48.5 -152c-26 -86 -47.5 -162.167 -64.5 -228.5s-31.5 -132.166 -43.5 -197.499c-6 -28.667 -10.667 -53.334 -14 -74.001s-6 -40.167 -8 -58.5s-3.33301 -37.5 -4 -57.5
s-1.66699 -42.667 -3 -68l270 86c-2.66699 17.333 -4 29.333 -4 36v31c0 48 6.16699 108.167 18.5 180.5s30.833 159.833 55.5 262.5c8 35.333 17.167 72 27.5 110l33.5 121l32.5 107.5l32.5 107.5c10 34 19.833 65.333 29.5 94s17.834 51.334 24.501 68.001l43 112l39 115z
" />
    <glyph glyph-name="G" unicode="G" horiz-adv-x="1490" 
d="M1425 1298c-57.333 32 -123.338 56.8281 -198.005 74.4951s-148.667 26.5 -222 26.5c-150 0 -289.5 -36.833 -418.5 -110.5s-240.833 -180.167 -335.5 -319.5c-57.333 -86 -101.666 -175.5 -132.999 -268.5s-47 -182.5 -47 -268.5c0 -69.333 10.5 -132.666 31.5 -189.999
s51 -106.166 90 -146.499s85.833 -71.833 140.5 -94.5s115.334 -34 182.001 -34c62 0 119.5 10.333 172.5 31s99.667 48.667 140 84s71.833 77 94.5 125s34 99.667 34 155c0 36 -4.83301 67.667 -14.5 95s-27.5 59.333 -53.5 96c26 -1.33301 48 -2 66 -2h69h60
c13.333 0 30.333 0.666992 51 2c-4 -10.667 -7.66699 -19.5 -11 -26.5s-6.66602 -13.167 -9.99902 -18.5l-22 -57l-43 -106.5c-18 -43.667 -32.333 -80.667 -43 -111s-19.667 -54.166 -27 -71.499l-51 -150c-16.667 -47.333 -34.167 -93.666 -52.5 -138.999
s-34.833 -81.666 -49.5 -108.999c-53.333 -94 -135.333 -141 -246 -141c-131.333 0 -197 56 -197 168c0 9.33301 0.333008 18.5 1 27.5s2.33398 21.833 5.00098 38.5l-215 -90c27.333 -68.667 72.5 -119 135.5 -151s145.5 -48 247.5 -48c144.667 0 265.667 40.333 363 121
c48 38 91 87.667 129 149c34 53.333 63.333 113.333 88 180c6.66699 16.667 15.5 41.667 26.5 75s25.5 74.666 43.5 123.999c22.667 71.333 45 132 67 182l26 60.5l22.5 50.5c7.66699 16.667 16.167 33.167 25.5 49.5l35 58.5
c-20.667 -1.33301 -38.5 -2.66602 -53.5 -3.99902s-29.667 -2.33301 -44 -3s-29.833 -1 -46.5 -1h-55c-68 0 -136.167 1.83301 -204.5 5.5s-131.166 8.83398 -188.499 15.501l-47 -66c47.333 -14.667 84.333 -38.834 111 -72.501s40 -74.167 40 -121.5
c0 -40 -8.16699 -77.667 -24.5 -113s-38.5 -66.333 -66.5 -93s-60.667 -47.834 -98 -63.501s-77.333 -23.5 -120 -23.5c-82 0 -146.5 32.333 -193.5 97s-70.5 152.334 -70.5 263.001c0 90 11.167 179.167 33.5 267.5s56.833 174.833 103.5 259.5
c70 128 144.167 221 222.5 279s169.5 87 273.5 87c206 0 324.667 -99.667 356 -299z" />
    <glyph glyph-name="H" unicode="H" horiz-adv-x="1959" 
d="M2166 1348c0 57.333 -12.3389 102.338 -37.0059 135.005s-58 49 -100 49c-32.667 0 -67.834 -7.5 -105.501 -22.5s-75.667 -35.5 -114 -61.5s-75.5 -57.167 -111.5 -93.5s-68.333 -75.5 -97 -117.5c-52 -75.333 -99.5 -157 -142.5 -245s-76.167 -171 -99.5 -249h-379
c8.66699 27.333 15.667 50.666 21 69.999l16 55.5c5.33301 17.667 11.5 36.334 18.5 56.001s15.833 43.167 26.5 70.5l47.5 124l38 94l33.5 78l35 75h-49l-29 -64.5l-22.5 -52l-20.5 -48l-23 -54.5c-28.667 -74 -54.834 -145.5 -78.501 -214.5s-44.5 -132.167 -62.5 -189.5
h-78l11 33l57 176c6.66699 19.333 15.5 43.333 26.5 72l38.5 104l33 83.5c8 21 15.5 39.333 22.5 55s13.5 31 19.5 46s14 32.833 24 53.5l-45 -2c-30 -1.33301 -60.5 -2.33301 -91.5 -3s-62.167 -2.33398 -93.5 -5.00098c-74.667 -4 -136.667 -9.83301 -186 -17.5
s-97.666 -18.167 -144.999 -31.5c-59.333 -16.667 -113.5 -40.334 -162.5 -71.001s-91.167 -65.834 -126.5 -105.501s-63.666 -83 -84.999 -130s-33.333 -95.833 -36 -146.5l240 27c-10 20 -17 39.333 -21 58s-6 39.334 -6 62.001c0 42.667 10.833 82.167 32.5 118.5
s52 67.666 91 93.999s85.167 47 138.5 62s110.666 22.5 171.999 22.5c16.667 0 30.834 -0.333008 42.501 -1s28.167 -2.33398 49.5 -5.00098l-21 -49.5l-18.5 -43c-6.33301 -14.333 -12.5 -29.5 -18.5 -45.5s-14 -35.333 -24 -58l-60 -160l-50 -139l-19 -54h-49
c-166.667 0 -291.167 -20.833 -373.5 -62.5s-131.166 -108.834 -146.499 -201.501l207 21c16 132 115 198 297 198h51l-20 -65l-52 -154l-44.5 -148l-45.5 -161c-6.66699 -23.333 -11.667 -43.166 -15 -59.499s-6.33301 -31.666 -9 -45.999s-5.16699 -28.666 -7.5 -42.999
s-4.16602 -31.833 -5.49902 -52.5l260 31c0 20.667 0.333008 38.5 1 53.5s1.83398 29.667 3.50098 44s4.16699 29.666 7.5 45.999s7 35.5 11 57.5c5.33301 28.667 11.833 58.334 19.5 89.001s14.5 60 20.5 88s11.833 52.833 17.5 74.5s9.83398 38.167 12.501 49.5l43 151
l14 45h78c-72.667 -228 -109 -412.333 -109 -553c0 -17.333 0.333008 -32.5 1 -45.5s2 -25.667 4 -38s4.5 -25 7.5 -38s7.16699 -27.5 12.5 -43.5l98 20c-9.33301 23.333 -17.166 44.166 -23.499 62.499s-11.166 35.666 -14.499 51.999s-5.66602 33.5 -6.99902 51.5
s-2 37.667 -2 59c0 60 5.5 124.167 16.5 192.5s28.167 144.833 51.5 229.5l14 51h379c-12.667 -39.333 -24 -80.833 -34 -124.5s-18.5 -87.334 -25.5 -131.001s-12.5 -86.334 -16.5 -128.001s-6 -79.5 -6 -113.5c0 -19.333 0.333008 -36.5 1 -51.5s1.66699 -29.667 3 -44
s3.33301 -30 6 -47s6 -36.5 10 -58.5h418l14 47c-42 1.33301 -76.333 5.5 -103 12.5s-47.834 19 -63.501 36s-26.167 39.833 -31.5 68.5s-8 65.334 -8 110.001c0 32 1 60.167 3 84.5s5.33301 50.166 10 77.499s10.834 58.166 18.501 92.499l27.5 124.5l10 45
c122 6 241.667 63.333 359 172c73.333 68.667 129.833 144.334 169.499 227.001c39.667 82.667 59.5 166.334 59.5 251.001zM2061.99 1425c0 -86 -33.001 -194.997 -99.001 -326.997c-16 -34 -31.5 -64 -46.5 -90s-30 -49.667 -45 -71s-30.333 -40.833 -46 -58.5
s-32.5 -34.834 -50.5 -51.501c-16.667 -14.667 -31.834 -26.834 -45.501 -36.501s-27.334 -17.5 -41.001 -23.5s-28.334 -11.167 -44.001 -15.5s-33.5 -7.16602 -53.5 -8.49902l18 54c28.667 83.333 51.334 146.666 68.001 189.999c22.667 60 47.334 118.667 74.001 176
s50.334 104.666 71.001 141.999c75.333 129.333 140.333 194 195 194c14.667 0 25.834 -6.83301 33.501 -20.5s11.5 -31.5 11.5 -53.5z" />
    <glyph glyph-name="I" unicode="I" horiz-adv-x="1161" 
d="M1220 1366l-128.996 -0.00488281c-53.333 0 -121 -2 -203 -6c-42 -2.66699 -79.167 -5.33398 -111.5 -8.00098s-61.333 -5.5 -87 -8.5s-49.834 -6.83301 -72.501 -11.5s-45.667 -9.66699 -69 -15c-49.333 -12.667 -96.5 -30.834 -141.5 -54.501
s-85.5 -51.167 -121.5 -82.5s-67 -66.166 -93 -104.499s-46 -78.166 -60 -119.499c-4 -13.333 -7 -27.166 -9 -41.499s-4.33301 -33.833 -7 -58.5l242 25c-11.333 26 -18.333 46.167 -21 60.5s-4 32.166 -4 53.499c0 42.667 11 82.667 33 120s52.333 69.333 91 96
s84.667 47.834 138 63.501s110.666 23.5 171.999 23.5c18 0 32.167 -0.666992 42.5 -2s24.833 -3.33301 43.5 -6l-18 -45l-44.5 -109.5l-39.5 -99.5l-75 -204.5c-26.667 -75 -56.334 -163.167 -89.001 -264.5l-36.5 -115.5l-31 -97.5c-9.66699 -30 -18.167 -59 -25.5 -87
s-15.333 -56.333 -24 -85c-6.66699 -24.667 -11.667 -45.834 -15 -63.501l-9 -49c-2.66699 -15 -5.16699 -30 -7.5 -45s-4.16602 -32.833 -5.49902 -53.5l265 29c0 31.333 1.66699 64.5 5 99.5s9 74.333 17 118s18.5 92 31.5 145s29.167 113.833 48.5 182.5l30.5 111.5
c9.66699 33.667 19.667 66.834 30 99.501l33 103l41.5 124c12.667 32.667 23.334 61.667 32.001 87s17.167 49 25.5 71l25.5 65.5l30 71.5l18 43h82l-24.5 -56.5c-7 -15.667 -13.167 -30.667 -18.5 -45s-11 -28.666 -17 -42.999s-12.667 -31.166 -20 -50.499l-62 -164.5
c-20 -55 -36 -102.5 -48 -142.5l-26 -86c-10 -32.667 -20.5 -70.167 -31.5 -112.5l-30 -113.5c-9 -33.333 -16.167 -62.333 -21.5 -87c-10.667 -48 -19.167 -95.167 -25.5 -141.5s-9.5 -85.833 -9.5 -118.5c0 -19.333 0.333008 -36.166 1 -50.499s2.16699 -28 4.5 -41
s5.16602 -26.333 8.49902 -40s7.66602 -29.167 12.999 -46.5l96 18c-18.667 36.667 -32.167 73.5 -40.5 110.5s-12.5 81.5 -12.5 133.5c0 34 2 68.333 6 103s11 76 21 124c12 58.667 25.167 116.334 39.5 173.001s31.166 113.667 50.499 171l26.5 76l29.5 84l30.5 84
l27.5 74l24 55.5l22.5 51.5l25.5 55.5z" />
    <glyph glyph-name="J" unicode="J" horiz-adv-x="1150" 
d="M1211 1356c-12.667 1.33301 -27.4961 2.66895 -44.4961 4.00195s-35.667 2.33301 -56 3l-63.5 2c-22 0.666992 -42.333 1 -61 1c-134 0 -254 -11.667 -360 -35s-196.167 -56.5 -270.5 -99.5s-131.666 -95.833 -171.999 -158.5s-61.833 -133.667 -64.5 -213l244 21
c-9.33301 27.333 -15.833 49.166 -19.5 65.499s-5.5 33.166 -5.5 50.499c0 38.667 7.5 74.667 22.5 108s36.167 61.666 63.5 84.999c24.667 20.667 50 37.834 76 51.501s55.333 24.834 88 33.501s69.5 14.667 110.5 18s87.5 5 139.5 5c56 0 103.5 -0.333008 142.5 -1
s76.167 -2.33398 111.5 -5.00098l35 -2l-19 -49l-55 -143l-20.5 -53.5c-8.33301 -21.667 -17.833 -48.167 -28.5 -79.5c-15.333 -41.333 -27.333 -76 -36 -104l-24.5 -76.5c-7.66699 -23 -14.834 -46.5 -21.501 -70.5l-24 -85c-11.333 -40 -21.333 -77 -30 -111l-24 -92
c-14.667 -72.667 -26.834 -141 -36.501 -205s-14.5 -116.667 -14.5 -158c0 -17.333 0.666992 -30.833 2 -40.5l6 -42.5l90 22l-10 39c-2.66699 10.667 -4.33398 21.5 -5.00098 32.5s-1.33398 22.667 -2.00098 35s-1 27.5 -1 45.5c0 94 12.667 202.5 38 325.5
s62.333 259.5 111 409.5l54.5 155.5c18.333 51.667 33.833 92.5 46.5 122.5l18 42.5c5.33301 13 11.166 26.333 17.499 40l21.5 46c8 17 18.333 37.167 31 60.5zM1033 1237c-19.333 2.66699 -37.1621 4.33203 -53.4951 4.99902s-38.166 1 -65.499 1
c-20.667 0 -36.167 -0.333008 -46.5 -1s-23.5 -2.33398 -39.5 -5.00098l-16 -39l-31 -70.5l-18.5 -42c-4.33301 -9.66699 -10.166 -24.334 -17.499 -44.001l-28 -76.5c-24.667 -72.667 -39 -113.667 -43 -123l-26.5 -84l-26.5 -90.5c-9.33301 -33 -19.5 -71 -30.5 -114
s-23.5 -94.5 -37.5 -154.5l-55 -227l-30.5 -123c-8.33301 -32.667 -15.5 -59.5 -21.5 -80.5s-11.833 -39.167 -17.5 -54.5s-11.834 -29.666 -18.501 -42.999c-23.333 -52 -51 -89.5 -83 -112.5s-72 -34.5 -120 -34.5c-53.333 0 -96.333 15.667 -129 47s-49 73 -49 125
c0 6.66699 0.333008 14.334 1 23.001s1.66699 18.667 3 30l-182 -135c27.333 -56 62.166 -96.333 104.499 -121s98.166 -37 167.499 -37c66 0 127.333 11.667 184 35s113.667 59.333 171 108c26 23.333 49.5 47 70.5 71s39.167 47.667 54.5 71
c13.333 20 25.166 40.667 35.499 62s20.666 45.333 30.999 72s20.166 57 29.499 91s19.666 75 30.999 123c9.33301 39.333 17 73 23 101s12 51.667 18 71c13.333 54.667 29.5 113.334 48.5 176.001s36.833 118 53.5 166c4 13.333 18.333 56.333 43 129
c12 34 22.167 61.667 30.5 83s13.833 37.333 16.5 48l22.5 54c9.66699 22.667 21.167 51.667 34.5 87z" />
    <glyph glyph-name="K" unicode="K" horiz-adv-x="1716" 
d="M2242 -186l-218.998 -76.002c1.33301 -6.66699 2 -14.334 2 -23.001c0 -27.333 -9 -49.5 -27 -66.5s-40.333 -25.5 -67 -25.5c-70 0 -165 65 -285 195c-40 42 -75.667 82.833 -107 122.5s-61.333 81.667 -90 126s-57 93.5 -85 147.5s-58.333 115.667 -91 185l-54.5 117
c-14.333 31.333 -26.5 60 -36.5 86l-28.5 76c-9 24.667 -18.833 54 -29.5 88c24 62.667 59.333 124 106 184s99 113.667 157 161s118 85 180 113s120.333 42 175 42c34 0 60.333 -6.5 79 -19.5s33.334 -35.833 44.001 -68.5l174 172
c-10.667 9.33301 -20.834 17.333 -30.501 24s-20 11.834 -31 15.501s-23.667 6.16699 -38 7.5s-31.5 2 -51.5 2c-44 0 -85 -6.33301 -123 -19c-52 -14.667 -110.5 -38.834 -175.5 -72.501s-127.5 -72.167 -187.5 -115.5c-83.333 -60 -156.666 -124.5 -219.999 -193.5
s-119 -146.5 -167 -232.5h-25l17 51c16 52 34 105.667 54 161s39.667 107 59 155c9.33301 22.667 17.333 43 24 61s13.834 35.5 21.501 52.5l23.5 53c8 18.333 18.333 40.5 31 66.5h-131c-24.667 0 -53 -0.666992 -85 -2s-68.5 -3.33301 -109.5 -6
s-76.833 -5.33398 -107.5 -8.00098s-59 -5.5 -85 -8.5s-51 -6.83301 -75 -11.5s-49 -10.334 -75 -17.001c-128 -34 -231 -91.667 -309 -173s-120.333 -176 -127 -284l242 25c-11.333 26 -18.666 46.167 -21.999 60.5s-5 30.833 -5 49.5c0 45.333 11.333 86.666 34 123.999
s54 69.666 94 96.999s88 48.5 144 63.5s117 22.5 183 22.5h30c10 0 23 -1.33301 39 -4l-20 -51l-84 -207c-22 -50 -48.667 -123 -80 -219l-41.5 -125.5l-41 -125l-36 -110.5c-11 -33.333 -19.167 -60.333 -24.5 -81c-27.333 -90 -48.5 -168.5 -63.5 -235.5
s-26.167 -123.167 -33.5 -168.5l267 29v25v6c0 66.667 11.333 146.334 34 239.001l33.5 132.5l37 141l37.5 137.5c12.667 44.667 24.667 84.667 36 120c14.667 50.667 31.334 102.167 50.001 154.5l67 181.5l21 56c6 16 11.833 30.333 17.5 43l16.5 38.5l20 46.5h80l-20 -49
c-15.333 -35.333 -30.5 -72.5 -45.5 -111.5l-45 -118l-43 -117c-13.667 -38.333 -25.167 -73.833 -34.5 -106.5l-28 -90c-10 -32.667 -19.833 -66.834 -29.5 -102.501l-28 -106.5c-9 -35.333 -16.833 -68.666 -23.5 -99.999c-12 -53.333 -21.167 -103.166 -27.5 -149.499
s-9.5 -85.166 -9.5 -116.499c0 -19.333 0.333008 -35.833 1 -49.5s2.16699 -27 4.5 -40s5.16602 -26 8.49902 -39s7.66602 -27.5 12.999 -43.5l96 18c-18.667 36.667 -31.834 72.834 -39.501 108.501s-11.5 79.5 -11.5 131.5c0 52.667 6.16699 115.334 18.5 188.001
s32.166 159.334 59.499 260.001c43.333 -155.333 101.166 -300.333 173.499 -435s152 -252.167 239 -352.5s177.833 -179.166 272.5 -236.499s187 -86 277 -86c79.333 0 146.333 20.167 200.999 60.5c54.667 40.333 93 98.833 115 175.5z" />
    <glyph glyph-name="L" unicode="L" horiz-adv-x="1171" 
d="M1174 1266c-27.333 47.333 -59.8311 81.332 -97.498 101.999s-85.167 31 -142.5 31c-65.333 0 -128.666 -11 -189.999 -33s-116 -52.667 -164 -92c-57.333 -48 -104.833 -107.5 -142.5 -178.5s-66.5 -159.167 -86.5 -264.5l-13 -63
c-10.667 -53.333 -21.834 -105.166 -33.501 -155.499s-22.834 -91.5 -33.501 -123.5l-35 -104c-11.333 -32.667 -19.333 -57.5 -24 -74.5s-7.66699 -27 -9 -30s-3 -7.16699 -5 -12.5s-4.33301 -12 -7 -20l231 43l8 28l21 68c5.33301 14 13.333 44 24 90l25 105
c2.66699 8 5.66699 21.167 9 39.5s8 41.166 14 68.499l34 176c8.66699 42.667 16.334 78.667 23.001 108s13.5 55.166 20.5 77.499s14.167 42.5 21.5 60.5s15.666 37 24.999 57c53.333 108 121.666 162 204.999 162c46.667 0 82.667 -14.667 108 -44s38 -71.333 38 -126
c0 -13.333 -0.666992 -27.166 -2 -41.499s-4.33301 -35.166 -9 -62.499zM1106 175.999c-156.667 -50.667 -301.999 -76.0039 -435.999 -76.0039c-27.333 0 -57 1.5 -89 4.5s-70 7.83301 -114 14.5c15.333 18.667 26.333 33.834 33 45.501s15.667 30.5 27 56.5l26.5 69
c8.33301 22.667 15.833 47.667 22.5 75l21.5 92c7.66699 34 16.167 75 25.5 123c12 65.333 22.5 120.166 31.5 164.499s17.167 82.5 24.5 114.5s14.166 60 20.499 84s13.5 47.667 21.5 71c5.33301 17.333 11.166 33.166 17.499 47.499s13.166 28.333 20.499 42
s16.5 28.834 27.5 45.501l41.5 61c-23.333 -4 -40.166 -7 -50.499 -9s-24.166 -6.33301 -41.499 -13c-11.333 -16.667 -19 -29.667 -23 -39s-8.66699 -21 -14 -35c-11.333 -27.333 -24.5 -75.166 -39.5 -143.499l-50.5 -239.5l-29 -143l-14.5 -69l-18.5 -91l-14 -54.5
l-10 -39.5c-14 -44 -29.167 -82 -45.5 -114s-36.833 -61.667 -61.5 -89l-45 10l-98 31l-105 35l-55.5 17c-15 4.66699 -28.5 8.16699 -40.5 10.5s-24.167 3.83301 -36.5 4.5s-25.5 1 -39.5 1c-39.333 0 -72 -12 -98 -36s-39 -53.667 -39 -89c0 -48 22.5 -84.667 67.5 -110
s109.833 -38 194.5 -38c58.667 0 107.167 4.83301 145.5 14.5s77.166 26.834 116.499 51.501c72.667 -23.333 142.834 -40.166 210.501 -50.499s143.167 -15.5 226.5 -15.5h49c14.667 0 28.167 0.666992 40.5 2s25 2.33301 38 3s28.5 2.33398 46.5 5.00098l55 91l22 38
l19 33zM320.003 52.9951c-36.667 -14.667 -69.5 -25.5 -98.5 -32.5s-61.167 -10.5 -96.5 -10.5c-64 0 -114.167 9.33301 -150.5 28s-54.5 43.667 -54.5 75c0 17.333 6.83301 31.833 20.5 43.5s31.5 17.5 53.5 17.5c20.667 0 43 -3.33301 67 -10s55.667 -19.667 95 -39
c22 -10.667 40.167 -19.167 54.5 -25.5s27.333 -11.833 39 -16.5s22.5 -9.5 32.5 -14.5s22.667 -10.167 38 -15.5z" />
    <glyph glyph-name="M" unicode="M" horiz-adv-x="2238" 
d="M2221 1386l-155.004 -20.0059l-28 -23.5c-7.33301 -6.33301 -13.666 -12.166 -18.999 -17.499c-52 -43.333 -108.833 -97.166 -170.5 -161.499s-123.167 -133.5 -184.5 -207.5l-76.5 -96l-80.5 -104l-50.5 -70c-14.333 -19.333 -27.666 -38.166 -39.999 -56.499l-38 -56
c-13 -19 -27.5 -41.5 -43.5 -67.5c-4.66699 26 -10.667 54.333 -18 85s-15.5 62 -24.5 94l-27.5 95c-9.33301 31.333 -19 60.666 -29 87.999l-69 195c-15.333 43.333 -28.166 88.333 -38.499 135s-15.5 85 -15.5 115c0 6.66699 0.333008 13.834 1 21.501
s2.66699 18.167 6 31.5l-97 -6c-53.333 -4 -98.666 -7 -135.999 -9s-70 -3.83301 -98 -5.5s-53 -3.5 -75 -5.5s-44.667 -5 -68 -9c-80 -10.667 -147.667 -27.667 -203 -51s-108.333 -55.333 -159 -96c-52 -42.667 -92.333 -92 -121 -148s-44.334 -116 -47.001 -180l246 25
c-10 22.667 -16.333 41.667 -19 57s-4 33.666 -4 54.999c0 40 7.16699 75.333 21.5 106s37.833 61 70.5 91c20.667 19.333 42 35 64 47s47 21.833 75 29.5s60.667 13.167 98 16.5s82 5 134 5h78h192c6 -46 13.333 -88.167 22 -126.5s20.667 -79.5 36 -123.5l63 -186
c23.333 -66.667 44.166 -136.167 62.499 -208.5s32.5 -140.166 42.5 -203.499l-68 -98c-2.66699 32.667 -5.33398 61 -8.00098 85s-6 46.5 -10 67.5s-8.83301 43.167 -14.5 66.5s-12.5 50 -20.5 80c-9.33301 35.333 -23.666 83.833 -42.999 145.5
s-42.666 132.5 -69.999 212.5c-10.667 32 -19.167 58.833 -25.5 80.5s-11.5 41.334 -15.5 59.001s-7.33301 35.5 -10 53.5s-5.33398 38.333 -8.00098 61h-162l-22 -45c-15.333 -28.667 -28.166 -56.667 -38.499 -84s-20.833 -52.333 -31.5 -75l-25.5 -65l-38.5 -97
l-38.5 -105l-26.5 -69c-9.33301 -27.333 -19.5 -59.166 -30.5 -95.499l-35 -116l-37 -126l-34.5 -125.5c-8.66699 -32.667 -15.667 -60.334 -21 -83.001s-9.66602 -43.5 -12.999 -62.5s-6 -38.167 -8 -57.5s-3.66699 -41.666 -5 -66.999l184 20
c-1.33301 9.33301 -2 17 -2 23v16c0 53.333 7.16699 118.166 21.5 194.499s37.833 173.833 70.5 292.5c14.667 53.333 31.667 110.833 51 172.5l55 173.5l27 82l19 60l20 -68l70 -219c38 -121.333 65.833 -229.166 83.5 -323.499s26.5 -181.833 26.5 -262.5
c0 -16 -0.333008 -29.833 -1 -41.5l-2 -34c-0.666992 -11 -2 -22 -4 -33s-5 -24.5 -9 -40.5l186 108c4 18 8.16699 31.5 12.5 40.5l22.5 45.5l119 217c20.667 38.667 55.5 95.834 104.5 171.501l165.5 246.5l60.5 84l49 64.5l49 59.5c17 20 37.833 43 62.5 69
c-14.667 -37.333 -26.834 -70 -36.501 -98s-18.5 -55.167 -26.5 -81.5s-15.167 -53.5 -21.5 -81.5l-21.5 -98c-10 -47.333 -18.667 -96.333 -26 -147s-13.666 -100.5 -18.999 -149.5s-9.83301 -96.167 -13.5 -141.5s-5.5 -86.333 -5.5 -123c0 -42 2.16699 -76 6.5 -102
s11.833 -58 22.5 -96l383 20l18 55h-18c-65.333 0 -110.666 18.167 -135.999 54.5s-38 102.166 -38 197.499c0 35.333 2.33301 78.333 7 129s10.334 99.334 17.001 146.001c7.33301 40.667 15.666 84.5 24.999 131.5s19.166 93.5 29.499 139.5s21 89.333 32 130
s21.167 74.667 30.5 102c19.333 53.333 38.833 103 58.5 149s44.5 96.667 74.5 152z" />
    <glyph glyph-name="N" unicode="N" horiz-adv-x="1865" 
d="M2518 1403c-34 100.667 -107.671 151.002 -221.004 151.002c-121.333 0 -231.166 -46.667 -329.499 -140s-189.833 -238.333 -274.5 -435c-27.333 -64 -50.833 -124.667 -70.5 -182s-40.5 -124.333 -62.5 -201c-5.33301 -19.333 -10.166 -35.833 -14.499 -49.5
s-7.83301 -26.667 -10.5 -39l-8 -37.5l-10 -46c-6.66699 9.33301 -12.5 17.166 -17.5 23.499s-8.83301 12.166 -11.5 17.499l-53 85c-19.333 32 -38.166 66.5 -56.499 103.5l-54 113.5c-17.667 38.667 -33.5 76.667 -47.5 114
c-17.333 44.667 -32.166 87.834 -44.499 129.501s-22.333 83 -30 124s-13.5 82.333 -17.5 124s-6 85.834 -6 132.501l-98 -74c12 -72.667 32 -152.334 60 -239.001s60.833 -173.334 98.5 -260.001s79 -169.5 124 -248.5s89.833 -147.167 134.5 -204.5
c-2.66699 -15.333 -4.66699 -27.166 -6 -35.499l-6 -38.5l-4 -27c-53.333 65.333 -106.333 142.5 -159 231.5s-101.5 183 -146.5 282s-85.167 199.333 -120.5 301s-62 197.5 -80 287.5l-53 -4c-87.333 -6.66699 -164.166 -14.5 -230.499 -23.5s-125.833 -21 -178.5 -36
s-99 -33.833 -139 -56.5s-78.667 -50.334 -116 -83.001c-95.333 -84.667 -143 -176 -143 -274v-15c0 -4 0.666992 -10 2 -18l242 23c-11.333 26 -18.666 46.167 -21.999 60.5s-5 32.833 -5 55.5c0 94.667 40.667 168.834 122 222.501s194.333 80.5 339 80.5h29
c8 0 20 -1.33301 36 -4l-16 -41l-94 -237c-26 -67.333 -64.333 -172 -115 -314l-74 -221c-32.667 -103.333 -60.167 -197.666 -82.5 -282.999s-37.166 -157.333 -44.499 -216l177 16c1.33301 10.667 2 20.334 2 29.001c0 9.33301 0.666992 16.666 2 21.999
c5.33301 61.333 15.166 130 29.499 206s35.166 165 62.499 267c10.667 44 22.167 86.5 34.5 127.5s25.5 81.833 39.5 122.5c6.66699 23.333 13 44.5 19 63.5s12.5 38.5 19.5 58.5l22.5 63.5l29 78.5c5.33301 -14.667 9.66602 -27.834 12.999 -39.501s6.33301 -21.5 9 -29.5
c11.333 -31.333 25.833 -68.5 43.5 -111.5l63.5 -148.5c48.667 -109.333 89 -194 121 -254l66 -122.5c22.667 -40.333 47.667 -80.833 75 -121.5l56.5 -82c15.667 -22 30.667 -41.5 45 -58.5s29.333 -33.667 45 -50s34.5 -34.833 56.5 -55.5l59 57l4 27
c30 192.667 70.333 373.334 121 542.001s107.667 315.5 171 440.5s130.833 223.333 202.5 295s142.5 107.5 212.5 107.5c27.333 0 50.5 -9.33301 69.5 -28s28.5 -40.334 28.5 -65.001c0 -9.33301 -1.33301 -18.833 -4 -28.5s-7.33398 -21.834 -14 -36.501z" />
    <glyph glyph-name="O" unicode="O" horiz-adv-x="1533" 
d="M1462 895c0 75.333 -11.6699 144.002 -35.0029 206.002s-56.166 115.167 -98.499 159.5s-93.166 78.5 -152.499 102.5s-126 36 -200 36c-114.667 0 -226.167 -26 -334.5 -78s-204.833 -120.333 -289.5 -205s-152.667 -182 -204 -292s-77 -223 -77 -339
c0 -74.667 11.667 -143.167 35 -205.5s56.5 -116 99.5 -161s94.5 -79.833 154.5 -104.5s126 -37 198 -37c92 0 184 17.833 276 53.5s177 86.167 255 151.5c57.333 49.333 108.833 102.666 154.5 159.999s84.834 116.666 117.501 177.999s57.667 123.833 75 187.5
s26 126.167 26 187.5zM1208 942.002c0 -82 -12.3379 -170.341 -37.0049 -265.008s-58.334 -184.334 -101.001 -269.001c-60 -118 -130.5 -210 -211.5 -276s-164.5 -99 -250.5 -99c-41.333 0 -78.666 9.83301 -111.999 29.5s-62 47.334 -86 83.001
s-42.5 78.334 -55.5 128.001s-19.5 104.5 -19.5 164.5c0 83.333 11.667 169 35 257s56.666 176.667 99.999 266c30 58.667 61.5 110.834 94.5 156.501s68.5 84.834 106.5 117.501s79.667 60.334 125 83.001s94.333 40 147 52l-10 -27
c-113.333 -38 -209.666 -115.667 -288.999 -233c-27.333 -39.333 -52.166 -82.666 -74.499 -129.999s-41.333 -95.166 -57 -143.499s-28 -96.833 -37 -145.5s-13.5 -94 -13.5 -136c0 -52 5.5 -99.833 16.5 -143.5s26 -82.5 45 -116.5s42.167 -62 69.5 -84
s57.333 -35.667 90 -41l154 162h-4c-173.333 0 -260 99.667 -260 299c0 27.333 2.33301 58 7 92s11.834 68.833 21.501 104.5s20.334 70.834 32.001 105.501s24.834 67 39.501 97c19.333 41.333 43 80 71 116s57 68 87 96s59.667 50.167 89 66.5s56.333 24.5 81 24.5
c28.667 0 55.334 -10.167 80.001 -30.5s46.5 -48.666 65.5 -84.999s34 -78 45 -125s16.5 -97.167 16.5 -150.5z" />
    <glyph glyph-name="P" unicode="P" horiz-adv-x="1652" 
d="M1744 1143c0 78 -19.167 140.166 -57.5 186.499s-88.833 69.5 -151.5 69.5c-128 0 -246 -60.167 -354 -180.5s-198 -293.833 -270 -520.5c-8.66699 -26 -17 -53.667 -25 -83l-23.5 -90c-7.66699 -30.667 -14.5 -60.334 -20.5 -89.001s-11 -55.334 -15 -80.001
c-7.33301 -32.667 -12.666 -66.667 -15.999 -102s-5 -66.666 -5 -93.999c0 -40 2 -71.167 6 -93.5s13 -50.5 27 -84.5l96 16c-10.667 22 -19.5 41.5 -26.5 58.5s-12.167 33.667 -15.5 50s-5.66602 33 -6.99902 50s-2 37.167 -2 60.5c0 32.667 2 69.167 6 109.5
s10.167 82.333 18.5 126s18.333 88 30 133s24.167 88.833 37.5 131.5c27.333 82 57.666 155.333 90.999 220s69.166 119.5 107.499 164.5s78 79.833 119 104.5s81.833 37 122.5 37c71.333 0 107 -52 107 -156c0 -61.333 -6.16699 -119.333 -18.5 -174
s-28.666 -101.667 -48.999 -141s-44.833 -70.666 -73.5 -93.999s-59.334 -35 -92.001 -35c-94.667 0 -153.667 62 -177 186l-96 -157c72.667 -56 150.667 -84 234 -84c46 0 95 12.333 147 37s102 58.667 150 102c62.667 57.333 111 121.833 145 193.5s51 145.834 51 222.501
zM1089 1366l-35 0.00195312c-40.667 0 -83 -1.33301 -127 -4s-89.667 -6.66699 -137 -12c-52 -6 -99.167 -12.667 -141.5 -20s-82 -16.833 -119 -28.5s-71.5 -24.667 -103.5 -39s-63.667 -31.833 -95 -52.5c-66.667 -43.333 -118.5 -95 -155.5 -155s-56.833 -127 -59.5 -201
l240 27c-8.66699 24.667 -14.667 44.5 -18 59.5s-5 31.833 -5 50.5c0 46.667 10.667 88.834 32 126.501s51.333 69.667 90 96s85.667 47 141 62s116.666 22.5 183.999 22.5h34c11.333 0 26.333 -1.33301 45 -4l-28.5 -64.5l-22.5 -50l-19 -44l-20 -48.5l-21.5 -59l-33.5 -92
l-67.5 -185.5l-41.5 -115.5l-34.5 -107.5l-37 -121c-12.333 -41.667 -23.833 -83.334 -34.5 -125.001l-31 -117.5l-14 -56.5c-4 -15.667 -7.33301 -30.334 -10 -44.001l-8.5 -42c-3 -14.333 -5.83301 -31.166 -8.5 -50.499l269 27c-1.33301 9.33301 -2 16.666 -2 21.999v15
c0 10.667 1.33301 27 4 49s6.66699 48.667 12 80c5.33301 32.667 10.666 62.667 15.999 90s10.833 53.666 16.5 78.999s11.834 51.333 18.501 78l23 89l79.5 271c25.667 84 50.167 158.667 73.5 224c20.667 57.333 44.334 118.5 71.001 183.5s53.667 127.5 81 187.5z" />
    <glyph glyph-name="Q" unicode="Q" horiz-adv-x="1449" 
d="M1377 901c0 72.667 -11.668 139.334 -35.001 200.001s-56.166 113.167 -98.499 157.5s-92.5 78.833 -150.5 103.5s-121.667 37 -191 37c-56 0 -112.333 -8.83301 -169 -26.5s-111.667 -43 -165 -76s-103.833 -72.333 -151.5 -118s-90.167 -96.5 -127.5 -152.5
c-44.667 -68 -80.334 -143.333 -107.001 -226s-40 -159.667 -40 -231c0 -98 25.667 -174.667 77 -230s122 -83 212 -83c22 0 41.833 1 59.5 3s39.5 5.66699 65.5 11l141 222c-39.333 -23.333 -69.666 -39.166 -90.999 -47.499s-43.666 -12.5 -66.999 -12.5
c-106 0 -159 65.667 -159 197c0 58.667 9.16699 120.334 27.5 185.001s45.166 128 80.499 190c57.333 102 121.5 182 192.5 240s139.833 87 206.5 87c34.667 0 66 -9.16699 94 -27.5s52.167 -44.5 72.5 -78.5s36 -74.333 47 -121s16.5 -97.334 16.5 -152.001
c0 -109.333 -19.167 -214.5 -57.5 -315.5s-88.833 -190.333 -151.5 -268s-135 -140 -217 -187s-166.667 -70.5 -254 -70.5c-54.667 0 -102.5 8.5 -143.5 25.5s-83.167 45.167 -126.5 84.5l-324 -170l53 -24l204 -94.5l130 -59.5l100.5 -45.5l116.5 -48.5l144.5 -58.5
l140.5 -52.5c40.667 -14.667 75.334 -26.5 104.001 -35.5s55.334 -16.5 80.001 -22.5s50 -10.833 76 -14.5s56 -7.5 90 -11.5l289 123c-15.333 1.33301 -28.333 2.33301 -39 3s-19.667 1 -27 1c-39.333 4 -84 10.5 -134 19.5s-101.833 19.667 -155.5 32
s-108.5 26.333 -164.5 42s-110.667 32.5 -164 50.5c-110.667 35.333 -216.5 75.166 -317.5 119.499s-200.833 95.166 -299.5 152.499l80 45c50.667 -38 107.667 -67 171 -87s130.666 -30 201.999 -30c109.333 0 215.166 24 317.499 72s193.5 111.167 273.5 189.5
s143.833 168.333 191.5 270s71.5 206.5 71.5 314.5z" />
    <glyph glyph-name="R" unicode="R" horiz-adv-x="1798" 
d="M2326 -166v2.00098l-223 -67l2 -2c5.33301 -12.667 8.66602 -22.334 10 -29.001c1.33301 -6.66699 2 -14.334 2 -23.001c0 -22.667 -9.5 -41.167 -28.5 -55.5s-43.5 -21.5 -73.5 -21.5c-67.333 0 -137 32 -209 96c-83.333 72 -177.666 194 -282.999 366
c-28.667 45.333 -54 87.5 -76 126.5s-44.167 80.667 -66.5 125l-74.5 149.5l-100 201l-29 58c79.333 12 153.833 33.333 223.5 64s130 66.834 181 108.501s91.167 87.834 120.5 138.501s44 102.667 44 156c0 66.667 -21.167 121.167 -63.5 163.5s-96.833 63.5 -163.5 63.5
c-48 0 -95.833 -10.833 -143.5 -32.5s-93.334 -53 -137.001 -94s-84.667 -90.5 -123 -148.5s-72.5 -124 -102.5 -198c-12 -28.667 -24.167 -60 -36.5 -94l-37 -104.5l-36 -106.5c-11.667 -35.333 -21.5 -68 -29.5 -98c-22 -78 -38.833 -153.833 -50.5 -227.5
s-17.5 -136.5 -17.5 -188.5c0 -22 0.333008 -40.167 1 -54.5s2 -28 4 -41s4.83301 -25.667 8.5 -38s8.83398 -27.166 15.501 -44.499v-2l96 22c-16 30 -28.167 64.167 -36.5 102.5s-12.5 79.166 -12.5 122.499c0 37.333 2.66699 78.166 8 122.499s14.333 95.166 27 152.499
c4 22 8 41.5 12 58.5s8.16699 33.333 12.5 49l14.5 50l20 63.5c6.66699 -15.333 12.167 -28.666 16.5 -39.999l10.5 -28c48 -116 101 -231 159 -345s118.333 -220.667 181 -320c47.333 -78 93.666 -143.667 138.999 -197s91.5 -97 138.5 -131s95.333 -58.5 145 -73.5
s104.167 -22.5 163.5 -22.5c106 0 193.833 22.833 263.5 68.5s114.167 111.5 133.5 197.5zM1087 1364l-2 -0.00390625h-49c-26 0 -55.5 -1 -88.5 -3s-69.167 -4.33301 -108.5 -7c-62.667 -5.33301 -118 -11.5 -166 -18.5s-91.667 -16.333 -131 -28
s-75.833 -25.334 -109.5 -41.001s-67.5 -34.5 -101.5 -56.5c-48 -31.333 -89.667 -69.166 -125 -113.499s-60 -88.833 -74 -133.5c-5.33301 -15.333 -9.66602 -30.833 -12.999 -46.5s-5 -35.167 -5 -58.5v-2l246 23v2c-10 27.333 -16.333 47.833 -19 61.5
s-4 29.834 -4 48.501c0 100 42.333 175.833 127 227.5s207.667 77.5 369 77.5h20l-40.5 -95l-36 -84l-34 -85c-11 -28.667 -22.5 -60.667 -34.5 -96l-104.5 -289c-33 -94 -61.667 -181.667 -86 -263s-44.5 -153.333 -60.5 -216s-25.333 -112 -28 -148l-4 -45v-2l42 4.5
l93.5 10.5l93.5 11l42 5v37c0 30 4 71.667 12 125c4 28.667 8.33301 55.334 13 80.001s10.167 49.834 16.5 75.501l19.5 83c6.66699 29.667 15.667 62.834 27 99.501c16 61.333 30.833 115.166 44.5 161.499l37.5 122.5c12 40 26.5 84.167 43.5 132.5l52 143.5l52.5 134.5
l44 106.5c8 16 14.167 28.833 18.5 38.5s7.16602 15.834 8.49902 18.501zM1533 1159c0 -49.333 -12.167 -95.168 -36.5 -137.501s-58 -79.166 -101 -110.499s-93.667 -56.5 -152 -75.5s-120.166 -29.833 -185.499 -32.5l-57 -2l42.5 106c12.333 30 24.333 57 36 81
s24 46.5 37 67.5s27.833 43.167 44.5 66.5c80 116 161 174 243 174c41.333 0 73.166 -11.833 95.499 -35.5s33.5 -57.5 33.5 -101.5z" />
    <glyph glyph-name="S" unicode="S" horiz-adv-x="1118" 
d="M965 1325c-27.333 15.333 -51.502 27.668 -72.502 37.001s-41 16.833 -60 22.5s-38.167 9.5 -57.5 11.5s-41.333 3 -66 3c-40.667 0 -78.167 -6.5 -112.5 -19.5s-63.666 -31.5 -87.999 -55.5s-43.333 -52.333 -57 -85s-20.5 -68 -20.5 -106c0 -30.667 4.33301 -61 13 -91
s21.334 -56.333 38.001 -79c15.333 -23.333 36.166 -50 62.499 -80l93.5 -111l26 -33l83 -103c29.333 -37.333 53 -70.333 71 -99c16 -28.667 28.833 -59.5 38.5 -92.5s14.5 -63.167 14.5 -90.5c0 -60 -15.667 -110.5 -47 -151.5s-75.666 -68.167 -132.999 -81.5
c32.667 34 55.5 66 68.5 96s19.5 65.667 19.5 107c0 43.333 -8.5 88.833 -25.5 136.5s-39.833 89.5 -68.5 125.5l-74 92l-37 45l-80 96c-43.333 52 -73.833 98.5 -91.5 139.5s-26.5 83.833 -26.5 128.5c0 48 8.5 91.833 25.5 131.5s43.833 81.167 80.5 124.5l-217 -155
c-15.333 -36.667 -25.666 -68.334 -30.999 -95.001s-8 -56.334 -8 -89.001c0 -56 10.167 -110.333 30.5 -163s58.5 -112.334 114.5 -179.001l27 -33c53.333 -66 93.333 -129.333 120 -190s40 -112.667 40 -156c0 -76.667 -19.5 -139.167 -58.5 -187.5
s-89.167 -72.5 -150.5 -72.5c-32.667 0 -64 7.5 -94 22.5s-56 35.333 -78 61s-39.5 56.334 -52.5 92.001s-19.5 73.167 -19.5 112.5c0 22 1.66699 41.833 5 59.5s10 42.167 20 73.5l-203 -151c13.333 -102.667 56.666 -182.667 129.999 -240s168.666 -86 285.999 -86
c43.333 0 81.833 4.16699 115.5 12.5s70.167 22.833 109.5 43.5c112 14.667 200.5 51.334 265.5 110.001s97.5 133 97.5 223c0 27.333 -3.5 53.333 -10.5 78s-18 51 -33 79s-34.833 59.333 -59.5 94l-92 126l-25 33c-66.667 88.667 -115 158 -145 208s-45 94.667 -45 134
c0 56 16 101.667 48 137s72.667 53 122 53c52 0 92.333 -15.333 121 -46s48.334 -80 59.001 -148z" />
    <glyph glyph-name="T" unicode="T" horiz-adv-x="1396" 
d="M1802 1380c-26 -4 -50.6641 -7.33496 -73.9971 -10.002s-48.333 -4.66699 -75 -6s-56.334 -2.33301 -89.001 -3s-71.667 -1 -117 -1c-72 0 -149.333 1.33301 -232 4l-300 10l-104 4c-20.667 1.33301 -39.834 2.33301 -57.501 3s-34.167 1 -49.5 1
c-88.667 0 -171.167 -12.5 -247.5 -37.5s-142.833 -60.5 -199.5 -106.5s-102.167 -100.667 -136.5 -164s-53.5 -132.666 -57.5 -207.999l190 68c-10.667 23.333 -17.667 41.833 -21 55.5s-5 31.167 -5 52.5c0 74 28.333 128 85 162s147 51 271 51h25
c10.667 0 24.5 -0.333008 41.5 -1s38.167 -1.33398 63.5 -2.00098s57 -1.66699 95 -3l240 -8h49l-12 -37l-68 -172l-34.5 -94c-11 -30 -21.667 -60.667 -32 -92s-20.5 -64.166 -30.5 -98.499l-34 -112.5c-31.333 -110.667 -53.5 -203.167 -66.5 -277.5
s-19.5 -142.166 -19.5 -203.499c0 -19.333 0.333008 -35.833 1 -49.5s1.66699 -26.667 3 -39s3.83301 -25 7.5 -38s7.5 -27.5 11.5 -43.5l108 16c-10.667 22 -19.5 41.167 -26.5 57.5s-12.167 33 -15.5 50s-5.66602 34.667 -6.99902 53s-2 40.5 -2 66.5
c0 80.667 11.667 175 35 283s56.666 226.667 99.999 356c20.667 61.333 43.667 125.833 69 193.5s49.666 128.167 72.999 181.5l28 -2l148 -6c66.667 -2.66699 129 -7.16699 187 -13.5s109.667 -12.833 155 -19.5zM1003 1210l-199.002 -0.000976562l-12 -32l-55 -144
l-63.5 -164.5l-53.5 -142.5c-16.667 -45.333 -32.167 -89.5 -46.5 -132.5s-28.166 -86.833 -41.499 -131.5l-34.5 -122l-33.5 -120l-20 -77.5c-5.33301 -20.333 -9.33301 -39.5 -12 -57.5l-7.5 -52.5c-2.33301 -17 -4.16602 -37.167 -5.49902 -60.5l262 29v18
c0 53.333 9 126.833 27 220.5s42 195.834 72 306.501s64.5 224 103.5 340s78.833 223.667 119.5 323z" />
    <glyph glyph-name="U" unicode="U" horiz-adv-x="1832" 
d="M1898 1366l-386.998 0.00195312l-20 -80c-4.66699 -19.333 -11 -42.333 -19 -69c-16.667 -60.667 -36.167 -123.334 -58.5 -188.001l-74.5 -212l-67 -175c-20 -51.333 -38.833 -96.833 -56.5 -136.5s-34 -74.5 -49 -104.5s-29.833 -57.333 -44.5 -82
c-33.333 -55.333 -73.5 -100.166 -120.5 -134.499s-91.5 -51.5 -133.5 -51.5c-52 0 -93.667 23.5 -125 70.5s-47 111.5 -47 193.5c0 52 6 107.667 18 167s29.667 125.333 53 198c26 76.667 54 147.667 84 213s63 124.666 99 177.999c13.333 22 25.833 41.5 37.5 58.5
s23.667 33 36 48s26.333 31 42 48l54.5 58.5h-95c-174.667 0 -321 -14.667 -439 -44s-218.667 -76.666 -302 -141.999c-24.667 -19.333 -47.167 -41 -67.5 -65s-38 -49.333 -53 -76s-26.667 -53.167 -35 -79.5s-12.5 -51.833 -12.5 -76.5c0 -10 0.666992 -18.333 2 -25
l240 25c-8.66699 23.333 -14.667 42.166 -18 56.499s-5 31.5 -5 51.5c0 49.333 11.333 93.5 34 132.5s54.834 72.5 96.501 100.5s92.167 49.5 151.5 64.5s125.666 22.5 198.999 22.5h27c8 0 22.333 -0.666992 43 -2l43 -2l-107.5 -115
c-32.333 -35.333 -61.333 -70.5 -87 -105.5s-49.5 -69.833 -71.5 -104.5s-43.333 -72 -64 -112c-46 -90 -81.333 -179.333 -106 -268s-37 -171.334 -37 -248.001c0 -113.333 27.333 -203.333 82 -270s127.667 -100 219 -100c194 0 356.333 155.667 487 467
c20.667 47.333 41 96.666 61 147.999s40 105.666 60 162.999l47.5 137l42 126l35 105.5c10.333 31.667 18.166 57.5 23.499 77.5l22 82l8 31h129c-9.33301 -20.667 -17.666 -38.167 -24.999 -52.5s-14.5 -29.333 -21.5 -45l-21.5 -50l-26 -65.5
c-27.333 -66.667 -52.833 -133.5 -76.5 -200.5l-68.5 -192.5l-73 -220.5c-24 -73 -45.333 -144.833 -64 -215.5c-10 -36 -18 -66.167 -24 -90.5s-11 -46.833 -15 -67.5s-7.5 -41.167 -10.5 -61.5s-5.83301 -44.166 -8.5 -71.499l414 14l16 49h-20
c-50.667 0 -84.167 7.5 -100.5 22.5s-24.5 44.5 -24.5 88.5c0 52 13.333 132.5 40 241.5s63 234.5 109 376.5l32.5 96.5l31.5 89.5l32.5 89c11 30 23.5 62 37.5 96c9.33301 24.667 17.666 45.5 24.999 62.5l20.5 49c6.33301 15.667 13.166 31.334 20.499 47.001z" />
    <glyph glyph-name="V" unicode="V" horiz-adv-x="1746" 
d="M1818 1182c0 52 -5.83496 96.334 -17.502 133.001s-31.167 79 -58.5 127l-256 -115c88.667 -52 133 -141.333 133 -268c0 -123.333 -41.667 -250.333 -125 -381l-61.5 -94.5l-71.5 -102.5c-24.667 -34 -49.667 -66.333 -75 -97l-68 -81l-154 -172l-51 -61
c6.66699 17.333 12.334 33.166 17.001 47.499l12.5 39c3.66699 11.667 6.83398 23 9.50098 34s5.33398 23.167 8.00098 36.5c8 32.667 15.167 68.5 21.5 107.5s11.5 79 15.5 120s7.33301 81.333 10 121s4 77.167 4 112.5c0 54.667 -3.33301 111.667 -10 171
s-16.167 119 -28.5 179s-27.5 118.667 -45.5 176s-37.667 111.333 -59 162l-156 -10c87.333 -98 151.5 -207.833 192.5 -329.5s61.5 -262.5 61.5 -422.5c0 -86 -6.83301 -171 -20.5 -255s-32.834 -164.667 -57.501 -242c-8 -24.667 -15.5 -46.5 -22.5 -65.5l-30.5 -80.5
l74 31l32 35l162 178l185 205l97 111.5l76.5 94.5l64.5 86c20 28 39.667 57.667 59 89c46 73.333 79.667 140.5 101 201.5s32 120.833 32 179.5zM989.998 680.001c0 95.333 -11.835 185.332 -35.502 269.999s-56 158.834 -97 222.501s-88.833 113.5 -143.5 149.5
s-113.334 54 -176.001 54c-34.667 0 -70 -7.83301 -106 -23.5s-70.667 -37.167 -104 -64.5s-63.666 -59 -90.999 -95s-50 -75.333 -68 -118l39 -55c56 118.667 131 178 225 178c54.667 0 106.334 -19.167 155.001 -57.5s90.667 -90.833 126 -157.5
s63.166 -145.167 83.499 -235.5s30.5 -187.166 30.5 -290.499v-47c0 -16.667 -0.666992 -32.667 -2 -48c-2.66699 -40.667 -5.66699 -76 -9 -106s-7.66602 -59.333 -12.999 -88s-12.5 -58.334 -21.5 -89.001s-20.167 -66.667 -33.5 -108l92 35l39.5 97
c11.667 28 20.834 51.667 27.501 71c27.333 76.667 47.833 159 61.5 247s20.5 174.333 20.5 259z" />
    <glyph glyph-name="W" unicode="W" horiz-adv-x="2281" 
d="M2308 1165c0 64.667 -5.83203 119.505 -17.499 164.505s-31.167 89.167 -58.5 132.5l-227 -149c39.333 -40 68.166 -85.833 86.499 -137.5s27.5 -114.5 27.5 -188.5c0 -70.667 -9.83301 -143.334 -29.5 -218.001s-47.834 -146.667 -84.501 -216
c-11.333 -22 -24.833 -46 -40.5 -72s-34.5 -54.667 -56.5 -86l-43.5 -64.5l-38 -52l-39 -50l-46.5 -58.5l14 126c4 34.667 7.33301 66 10 94s4.33398 54.333 5.00098 79s1 51.334 1 80.001c0 82 -5.83301 163.167 -17.5 243.5s-28 158.166 -49 233.499
s-46.833 145.666 -77.5 210.999s-65.334 124.666 -104.001 177.999l-98 -43c100 -113.333 173.5 -239.333 220.5 -378s70.5 -298.667 70.5 -480c0 -98 -5.83301 -193.167 -17.5 -285.5s-29.167 -178.166 -52.5 -257.499l58 39c8 18 15.667 33.167 23 45.5
s15.833 25.666 25.5 39.999s22 30.666 37 48.999l59.5 70.5l110 134.5c30.667 39 57.834 75.167 81.501 108.5s45.167 65.666 64.5 96.999s39 65.333 59 102c50.667 90.667 87.334 176.5 110 257.5c22.667 81 34 164.5 34 250.5zM1642 557.005
c0 181.333 -28.998 344.832 -86.998 490.499s-143 267.5 -255 365.5l-184 -135l46 -39c12.667 -10.667 24.5 -21.834 35.5 -33.501l34 -37l40.5 -46.5l67 -88c18 -24.667 33.167 -48.5 45.5 -71.5s22.833 -47.167 31.5 -72.5s18 -55 28 -89l-20 -76
c-6 -22 -13.167 -42.833 -21.5 -62.5s-17.833 -39.834 -28.5 -60.501s-24.334 -44 -41.001 -70l-71.5 -113c-20.333 -32 -42.166 -63 -65.499 -93s-49.666 -61.833 -78.999 -95.5l-108 -119.5c20.667 61.333 37.5 114.833 50.5 160.5s23 89.667 30 132
s11.833 85.333 14.5 129s4 94.167 4 151.5c0 263.333 -58 502.333 -174 717l-105 -31c151.333 -203.333 227 -443.666 227 -720.999c0 -57.333 -2.66699 -110.166 -8 -158.499s-13.5 -96.833 -24.5 -145.5s-25.333 -99.5 -43 -152.5s-38.834 -113.167 -63.501 -180.5
l-14 -39l70 27l34 39l162 182c23.333 26 47.666 54.667 72.999 86l79 101l55 73.5c15.333 20.333 28.666 39.333 39.999 57s22.5 36.167 33.5 55.5l39.5 68l14 -81.5c4 -22.333 7 -43.833 9 -64.5s3.33301 -42.5 4 -65.5s1 -49.5 1 -79.5c0 -72.667 -3 -142.167 -9 -208.5
s-16.667 -134.166 -32 -203.499l78 41c30 96.667 52.167 190.167 66.5 280.5s21.5 182.5 21.5 276.5zM979.003 694.004c0 102.667 -10.998 197.002 -32.998 283.002s-52.833 160 -92.5 222s-86.334 110.833 -140.001 146.5s-112.834 53.5 -177.501 53.5
c-78.667 0 -149.5 -28 -212.5 -84s-110.167 -133.333 -141.5 -232l37 -57c22 61.333 53.5 109.166 94.5 143.499s86.5 51.5 136.5 51.5c52 0 100.167 -16.5 144.5 -49.5s83 -78.5 116 -136.5s58.667 -126.833 77 -206.5s27.5 -166.167 27.5 -259.5
c0 -95.333 -7.83301 -193.833 -23.5 -295.5s-39.167 -203.834 -70.5 -306.501l77 33c63.333 132.667 109.333 253.5 138 362.5s43 219.5 43 331.5z" />
    <glyph glyph-name="X" unicode="X" horiz-adv-x="1916" 
d="M2114 1364c-19.333 49.333 -49.834 88.0049 -91.501 116.005s-88.834 42 -141.501 42c-57.333 0 -117.166 -17.5 -179.499 -52.5s-121.5 -83.167 -177.5 -144.5c-78 -86 -136.667 -190.167 -176 -312.5s-59 -261.833 -59 -418.5c0 -161.333 24.167 -283 72.5 -365
s119.5 -123 213.5 -123c32 0 60.167 5.16699 84.5 15.5s57.166 31.166 98.499 62.499c-40 -44.667 -79.667 -77.334 -119 -98.001s-83 -31 -131 -31c-53.333 0 -100.833 15.833 -142.5 47.5s-74.167 78.167 -97.5 139.5c-9.33301 24.667 -17.166 48.834 -23.499 72.501
s-11.5 49.5 -15.5 77.5s-6.66699 59.167 -8 93.5s-2 73.833 -2 118.5v215c0 56 -2.66699 105.833 -8 149.5s-14.166 83.667 -26.499 120s-28.833 69.5 -49.5 99.5s-45.334 58.667 -74.001 86c-22.667 22 -43.667 40.167 -63 54.5s-39.5 25.833 -60.5 34.5
s-44.167 15.167 -69.5 19.5s-55 7.83301 -89 10.5l-201 -224c18 6 33.833 11 47.5 15s25.834 7.33301 36.501 10s21.167 4.33398 31.5 5.00098s22.5 1 36.5 1c90 0 160.5 -32.667 211.5 -98s76.5 -156.333 76.5 -273c0 -25.333 -2 -45 -6 -59
c-2.66699 -16.667 -9.83398 -37.834 -21.501 -63.501s-26 -52.834 -43 -81.501s-35.667 -57.667 -56 -87s-40.833 -56.333 -61.5 -81c-44 -52 -90.167 -99.5 -138.5 -142.5s-96.666 -79.5 -144.999 -109.5s-95.833 -53.167 -142.5 -69.5s-89.667 -24.5 -129 -24.5
c-48 0 -86.667 13.667 -116 41s-44 63.333 -44 108c0 31.333 5.83301 61.666 17.5 90.999s31.167 62 58.5 98l-297 -175c6.66699 -98 37 -173.667 91 -227s126 -80 216 -80c192.667 0 381.667 103 567 309l75.5 86.5c21 24.333 40 49.166 57 74.499s33.333 52.333 49 81
s33.167 63 52.5 103v-37c0 -70 6 -142.333 18 -217c45.333 -266.667 173 -400 383 -400c49.333 0 97.166 7.5 143.499 22.5s89 35.833 128 62.5s73.5 59.167 103.5 97.5s53.333 79.833 70 124.5l-43 21c-23.333 -46.667 -55.166 -83.667 -95.499 -111
s-82.833 -41 -127.5 -41c-78 0 -137.5 38.333 -178.5 115s-61.5 188 -61.5 334c0 62.667 4.83301 126.834 14.5 192.501s23.167 127.167 40.5 184.5c16.667 53.333 39.667 103.833 69 151.5s61.666 90 96.999 127s72.833 66 112.5 87s77.834 31.5 114.501 31.5
c33.333 0 59.5 -9.83301 78.5 -29.5s28.5 -46.834 28.5 -81.501v-18c0 -6.66699 -0.666992 -14.334 -2 -23.001z" />
    <glyph glyph-name="Y" unicode="Y" horiz-adv-x="1513" 
d="M1546 1366l-341.998 -0.000976562l-4 -18c-14 -62 -28.167 -118.5 -42.5 -169.5s-30 -100.833 -47 -149.5s-35.333 -98.167 -55 -148.5l-66.5 -163.5c-88.667 -218.667 -176.667 -328 -264 -328c-31.333 0 -51.333 14.333 -60 43c-2.66699 8 -4.66699 16.833 -6 26.5
s-2 19.834 -2 30.501l-6 139c-2.66699 60.667 -5.33398 136 -8.00098 226l-7 171c-2 50 -4.83301 95.833 -8.5 137.5s-7.83398 80.167 -12.501 115.5s-9.66699 70.666 -15 105.999l-334 -16l-18 -55h18c30 0 54.5 -3.83301 73.5 -11.5s33.667 -24.167 44 -49.5
s18.166 -61.5 23.499 -108.5s10.333 -110.167 15 -189.5l16 -321c2.66699 -38.667 4.33398 -71.167 5.00098 -97.5s1.66699 -47.166 3 -62.499c4 -66.667 15.667 -130 35 -190c10.667 -31.333 28.667 -56.666 54 -75.999s53.666 -29 84.999 -29
c41.333 0 85.166 16 131.499 48s87.166 75.333 122.499 130c60 93.333 113.333 200.666 160 321.999c18 46.667 36.833 98.667 56.5 156l58 171c19 56.667 36.333 111.167 52 163.5s27.834 97.166 36.501 134.499l6 28h82l-10 -33l-172 -577l-104 -351.5l-64 -219.5
l-38.5 -131.5c-10.333 -34.333 -21.166 -64.5 -32.499 -90.5s-24.166 -50.5 -38.499 -73.5s-31.833 -48.833 -52.5 -77.5c-35.333 -50.667 -76 -87.334 -122 -110.001s-101 -34 -165 -34c-82 0 -145.167 18.5 -189.5 55.5s-71.833 94.5 -82.5 172.5l-201 -129
c82 -104 220 -156 414 -156c106 0 198.333 15.667 277 47s146.667 80 204 146c60 70.667 114.667 154.334 164 251.001c24.667 52 47.5 104.333 68.5 157s39.833 106.334 56.5 161.001l76 252l79 278l44.5 150l33 106.5l32.5 103.5z" />
    <glyph glyph-name="Z" unicode="Z" horiz-adv-x="1267" 
d="M1252 1364c-16 -6.66699 -30.5127 -12.166 -43.5127 -16.499s-25.667 -7.83301 -38 -10.5s-25.333 -4.33398 -39 -5.00098s-29.5 -1 -47.5 -1c-16 0 -37 1 -63 3s-53.333 4.5 -82 7.5s-58 6.83301 -88 11.5l-84 13c-57.333 9.33301 -111.666 17.166 -162.999 23.499
s-90.666 9.5 -117.999 9.5c-22 0 -41.833 -1.33301 -59.5 -4s-42.167 -7.66699 -73.5 -15l-164 -247c90 43.333 200.667 65 332 65c19.333 0 42.333 -0.666992 69 -2s57.667 -4 93 -8c24.667 -2.66699 44.834 -4.66699 60.501 -6s29.667 -2.33301 42 -3
s23.833 -1.33398 34.5 -2.00098s24.334 -1 41.001 -1l-81 -79.5c-22.667 -22.333 -44.167 -44.833 -64.5 -67.5l-63.5 -71.5l-76 -89.5c-88.667 -108.667 -159.167 -206.167 -211.5 -292.5s-90.166 -166.833 -113.499 -241.5l223 61c8 20.667 15.5 38.834 22.5 54.501
l21.5 47c7.33301 15.667 16.166 33.167 26.499 52.5s23.833 43.333 40.5 72c14.667 27.333 28.834 52.5 42.501 75.5l38.5 63.5l57.5 88c17.667 26 38.167 53.333 61.5 82l83 98l122 137h104c-57.333 -52 -113.5 -110.333 -168.5 -175s-107.167 -132.834 -156.5 -204.501
s-94.166 -145 -134.499 -220s-74.833 -148.167 -103.5 -219.5c-8 -23.333 -14.667 -41.5 -20 -54.5s-10.166 -23.833 -14.499 -32.5s-8.83301 -16.5 -13.5 -23.5s-9.66699 -15.167 -15 -24.5c-67.333 16.667 -123.166 30 -167.499 40s-81.166 17.833 -110.499 23.5
s-54.166 9.5 -74.499 11.5s-40.833 3 -61.5 3c-65.333 0 -117.833 -14.333 -157.5 -43s-59.5 -66.334 -59.5 -113.001c0 -49.333 26.333 -89.333 79 -120s120.667 -46 204 -46c58.667 0 108.167 6.5 148.5 19.5s79.5 35.167 117.5 66.5l39 -12
c42 -14 80.5 -25.333 115.5 -34s67.833 -16.167 98.5 -22.5s60.334 -10.833 89.001 -13.5s58.667 -4 90 -4c28.667 0 52.834 0.333008 72.501 1s37.834 2.83398 54.501 6.50098s33.167 8.16699 49.5 13.5s34.5 12.666 54.5 21.999l131 271
c-125.333 -83.333 -250 -125 -374 -125c-16.667 0 -31.834 0.333008 -45.501 1s-29.667 2.33398 -48 5.00098s-40.166 6.33398 -65.499 11.001s-57 11.334 -95 20.001l-31 6c5.33301 9.33301 9.66602 17.333 12.999 24s6.83301 14.167 10.5 22.5s7.83398 18.333 12.501 30
l19 48.5c68.667 163.333 151 315.333 247 456s206.333 269 331 385zM334.987 72.001c-31.333 -26 -63.1641 -44.501 -95.4971 -55.501s-69.5 -16.5 -111.5 -16.5c-56 0 -104.167 10.5 -144.5 31.5s-60.5 46.833 -60.5 77.5c0 18.667 8.16699 34.834 24.5 48.501
s36.166 20.5 59.499 20.5s48.666 -4 75.999 -12s67.666 -22.333 120.999 -43c14.667 -6.66699 33 -14.167 55 -22.5z" />
    <glyph glyph-name="bracketleft" unicode="[" horiz-adv-x="681" 
d="M319 -244l37 33l-150 231l430 1321l244 103l-19 51l-391 -92l-436 -1344z" />
    <glyph glyph-name="backslash" unicode="\" horiz-adv-x="909" 
d="M850 -233c-48 132 -89.667 272.997 -125 422.997l-136 566c-28.667 121.333 -51.167 222.333 -67.5 303s-28.5 154.334 -36.5 221.001l-170 31c6.66699 -22 15 -47.333 25 -76c16 -49.333 30.5 -97.166 43.5 -143.499s31.167 -117.833 54.5 -214.5l180 -754l2 -8
c41.333 -169.333 65.333 -274.666 72 -315.999z" />
    <glyph glyph-name="bracketright" unicode="]" horiz-adv-x="681" 
d="M-156 -244l392 92l436 1344l-285 303l-37 -33l150 -231l-430 -1321l-244 -103z" />
    <glyph glyph-name="asciicircum" unicode="^" horiz-adv-x="1138" 
d="M245 846h113l245 536l263 -536h112l-330 649h-90z" />
    <glyph glyph-name="underscore" unicode="_" horiz-adv-x="1024" 
d="M0 -256h1024v102h-1024v-102z" />
    <glyph glyph-name="grave" unicode="`" horiz-adv-x="542" 
d="M526 1126l39 43l-180 242l-109 -154z" />
    <glyph glyph-name="a" unicode="a" horiz-adv-x="1150" 
d="M1389 600l-72.4961 -101.003c-21 -28 -41.833 -54.333 -62.5 -79l-65.5 -75l-80.5 -85c-102 -106.667 -179 -160 -231 -160c-35.333 0 -53 19.333 -53 58c0 9.33301 1.66699 22.5 5 39.5s7 32.5 11 46.5l238 721l-232 -19l-51 -158h-18
c0 11.333 0.333008 19.666 1 24.999s1 10 1 14c0 93.333 -43.667 140 -131 140c-48 0 -100.333 -14.333 -157 -43s-115.667 -69.667 -177 -123c-50.667 -45.333 -96.834 -94.666 -138.501 -147.999s-77.167 -107.166 -106.5 -161.499s-51.833 -109.166 -67.5 -164.499
s-23.5 -107.666 -23.5 -156.999c0 -128.667 52 -193 156 -193c54.667 0 109.5 15.833 164.5 47.5s108.167 75.5 159.5 131.5s99.166 123.5 143.499 202.5s82.166 167.167 113.499 264.5h27l-143 -443c-14 -39.333 -21 -71.333 -21 -96c0 -31.333 12 -57 36 -77
s55.667 -30 95 -30c40 0 81.5 7.66699 124.5 23s82.833 36.333 119.5 63c23.333 16.667 46.166 34.5 68.499 53.5s45.166 40.167 68.499 63.5c32.667 31.333 60.334 59 83.001 83s43.834 47.667 63.501 71s38.667 47.833 57 73.5s39.166 56.5 62.499 92.5zM683.004 704.997
c0 -38.667 -8.00098 -82.167 -24.001 -130.5s-38.333 -96.5 -67 -144.5s-57.334 -91.333 -86.001 -130s-57 -72 -85 -100s-53.833 -49.833 -77.5 -65.5s-44.5 -23.5 -62.5 -23.5c-48 0 -72 43 -72 129c0 34 3 64.667 9 92c32.667 169.333 78.334 302.5 137.001 399.5
s123.334 145.5 194.001 145.5c40 0 72.333 -15.833 97 -47.5s37 -73.167 37 -124.5z" />
    <glyph glyph-name="b" unicode="b" horiz-adv-x="1097" 
d="M1346 600c-71.333 -94 -141.836 -179.005 -211.503 -255.005s-131.167 -134.333 -184.5 -175c-34 -26 -71.5 -46.167 -112.5 -60.5s-83.167 -21.5 -126.5 -21.5c-23.333 0 -41.5 1.33301 -54.5 4s-31.167 8.33398 -54.5 17.001c60 43.333 115.667 92.333 167 147
s95.333 111.334 132 170.001s65.667 117.667 87 177s32 115 32 167c0 138 -66.333 207 -199 207c-87.333 0 -167.5 -28.667 -240.5 -86s-133.5 -140 -181.5 -248h-18l319 967l-407 -23l-14 -47c4 -1.33301 7.33301 -2 10 -2h10c44 0 73.833 -5.83301 89.5 -17.5
s23.5 -33.167 23.5 -64.5c0 -16 -1.16699 -32.667 -3.5 -50s-6.83301 -39.666 -13.5 -66.999s-15.834 -61.333 -27.501 -102l-45.5 -156l-56 -184l-75.5 -239.5c-19 -61.667 -32.833 -104.167 -41.5 -127.5c-20 -65.333 -37.167 -119.166 -51.5 -161.499
s-24.833 -75.166 -31.5 -98.499c-15.333 -51.333 -23 -95.666 -23 -132.999c0 -50.667 17.667 -90 53 -118s86 -42 152 -42c47.333 0 92.166 5.5 134.499 16.5s84.833 28.167 127.5 51.5c13.333 -9.33301 25.833 -16.833 37.5 -22.5s23.334 -10.167 35.001 -13.5
s24 -5.66602 37 -6.99902s28.5 -2 46.5 -2c44.667 0 88.834 8.16699 132.501 24.5s89.834 42.666 138.501 78.999s101.334 84.166 158.001 143.499s120.334 132 191.001 218l29 35zM769.997 671.995c0 -110.667 -19.168 -213.5 -57.501 -308.5
s-92.166 -173.167 -161.499 -234.5c-49.333 20.667 -88.333 55.5 -117 104.5s-43 105.5 -43 169.5c0 48 6.83301 97 20.5 147s32.167 94.667 55.5 134c27.333 48 60.5 86.667 99.5 116s74.833 44 107.5 44c64 0 96 -57.333 96 -172zM472.996 71.9951
c-19.333 -7.33301 -34.333 -12 -45 -14s-23.667 -3 -39 -3c-43.333 0 -77 11.333 -101 34s-36 53.667 -36 93c0 31.333 7.33301 71 22 119l58 176h16l-6 -49c-1.33301 -10.667 -2 -25 -2 -43c0 -130 44.333 -234.333 133 -313z" />
    <glyph glyph-name="c" unicode="c" horiz-adv-x="831" 
d="M1106 600c-138.667 -187.333 -275.665 -322.332 -410.998 -404.999c-23.333 -14 -48.333 -27.167 -75 -39.5s-53.334 -22.833 -80.001 -31.5s-52.167 -15.834 -76.5 -21.501s-46.166 -8.5 -65.499 -8.5c-57.333 0 -102.833 15.667 -136.5 47s-50.5 74.333 -50.5 129
c0 26 3.16699 56.167 9.5 90.5s14.833 69.166 25.5 104.499c11.333 34 25.166 69.167 41.499 105.5s35.5 73.5 57.5 111.5c87.333 151.333 182.666 227 285.999 227c41.333 0 76 -14.667 104 -44s46.667 -70.666 56 -123.999l90 193c-66.667 22 -130.667 33 -192 33
c-41.333 0 -81.666 -5.66699 -120.999 -17c-64 -17.333 -132.333 -54.333 -205 -111s-139.667 -126 -201 -208c-57.333 -76.667 -102.333 -154.167 -135 -232.5s-49 -148.5 -49 -210.5c0 -140.667 82 -211 246 -211c65.333 0 133.166 9.33301 203.499 28
s135.5 43.667 195.5 75c72.667 39.333 145.5 92.833 218.5 160.5s150.5 154.167 232.5 259.5z" />
    <glyph glyph-name="d" unicode="d" horiz-adv-x="1150" 
d="M1391 600l-75.5 -102.999c-21.667 -29.333 -42.834 -56.333 -63.501 -81l-63.5 -74c-21.667 -24.667 -47.5 -52.667 -77.5 -84c-101.333 -105.333 -180 -158 -236 -158c-16.667 0 -30 5.16699 -40 15.5s-15 25.166 -15 44.499c0 8 1.66699 20.167 5 36.5
s7 32.166 11 47.499l434 1366l-403 -23l-15 -47h19c46.667 0 77.834 -5.83301 93.501 -17.5s23.5 -35.167 23.5 -70.5c0 -38 -7.66699 -83 -23 -135c-20.667 -68.667 -45.334 -146.667 -74.001 -234l-94 -295h-20c1.33301 11.333 2 19.666 2 24.999v16
c0 92 -42.333 138 -127 138c-48 0 -101 -14.333 -159 -43s-117 -69.667 -177 -123c-50.667 -45.333 -96.834 -94.666 -138.501 -147.999s-77.167 -107.5 -106.5 -162.5s-52.166 -110.167 -68.499 -165.5s-24.5 -108.333 -24.5 -159c0 -126 53.333 -189 160 -189
c39.333 0 79.5 8.33301 120.5 25s79.167 40 114.5 70c37.333 32.667 73.333 69.5 108 110.5s66.667 85.333 96 133s56 97.5 80 149.5s44 104.667 60 158h25l-143 -441c-14 -42 -21 -75.333 -21 -100c0 -31.333 11.333 -56.666 34 -75.999s52.334 -29 89.001 -29
c188.667 0 407 174.333 655 523zM683 698.001c0 -78.667 -29.668 -167.999 -89.001 -267.999c-60 -102.667 -117.333 -181.5 -172 -236.5s-101.667 -82.5 -141 -82.5c-46.667 0 -70 44.333 -70 133c0 14.667 0.833008 29.167 2.5 43.5s3.83398 29.166 6.50098 44.499
c13.333 83.333 31.333 158.333 54 225s48.334 123.667 77.001 171s59.667 84 93 110s67.666 39 102.999 39c41.333 0 74.333 -16.167 99 -48.5s37 -75.833 37 -130.5z" />
    <glyph glyph-name="e" unicode="e" horiz-adv-x="831" 
d="M1100 600l-50.499 -75.499c-15 -21.667 -30.333 -41.834 -46 -60.501s-32.167 -37.167 -49.5 -55.5l-60 -64.5c-169.333 -174.667 -332 -262 -488 -262c-72 0 -123.5 14.333 -154.5 43s-46.5 77 -46.5 145c0 11.333 0.833008 22.833 2.5 34.5l6.5 45.5
c6.66699 -1.33301 13.334 -2 20.001 -2c75.333 0 152.166 21.5 230.499 64.5s150.5 102.833 216.5 179.5c39.333 46.667 70.666 93.5 93.999 140.5s35 88.833 35 125.5c0 72.667 -41.667 109 -125 109c-28.667 0 -60.5 -3.83301 -95.5 -11.5s-64.167 -16.834 -87.5 -27.501
c-66.667 -31.333 -131.667 -75.666 -195 -132.999s-119.666 -120.833 -168.999 -190.5s-89 -141.834 -119 -216.501s-45 -144.667 -45 -210c0 -69.333 19.167 -120.166 57.5 -152.499s99.166 -48.5 182.499 -48.5c72 0 143.5 9 214.5 27s137.167 44 198.5 78
c76.667 40.667 153.167 97.5 229.5 170.5s146.833 155.5 211.5 247.5zM599.001 801.001c0 -49.333 -7.50098 -98.5 -22.501 -147.5s-36.167 -92.833 -63.5 -131.5c-22 -31.333 -46.333 -54.166 -73 -68.499s-58.334 -21.5 -95.001 -21.5c-19.333 0 -35.833 1.66699 -49.5 5
s-32.167 10.666 -55.5 21.999l23 70.5c6.66699 19.667 13.334 37.667 20.001 54s13.834 32 21.501 47l27.5 51.5c34.667 61.333 71.667 112.833 111 154.5s72 62.5 98 62.5c38.667 0 58 -32.667 58 -98z" />
    <glyph glyph-name="f" unicode="f" horiz-adv-x="585" 
d="M1112 1559c-34 22.667 -66.999 38.498 -98.999 47.498s-72 13.5 -120 13.5c-44.667 0 -84.834 -4.5 -120.501 -13.5s-71.834 -24.167 -108.501 -45.5c-101.333 -58.667 -176.333 -138.667 -225 -240c-6 -10.667 -12 -22.5 -18 -35.5s-13.167 -31.167 -21.5 -54.5l-31 -88
c-12.333 -35.333 -27.166 -81 -44.499 -137l-21 -62h-180l-78 -94l47.5 14c13.667 4 28 6.66699 43 8s32 2.5 51 3.5s42.833 1.5 71.5 1.5h25l-281 -865c-27.333 -86 -53.166 -156 -77.499 -210s-50.166 -100.667 -77.499 -140c-30 -43.333 -68.667 -77.333 -116 -102
s-97 -37 -149 -37c-34 0 -66.333 5.5 -97 16.5s-57.167 25.667 -79.5 44s-40 39.833 -53 64.5s-19.5 51.334 -19.5 80.001c0 18.667 2 34.834 6 48.501s12 31.5 24 53.5l-227 -109c23.333 -86 69.166 -149.667 137.499 -191s162.5 -62 282.5 -62
c83.333 0 159.166 12.167 227.499 36.5s130 62.166 185 113.499s105.167 116.833 150.5 196.5s85.666 174.167 120.999 283.5l254 779h94c61.333 0 108.833 -0.833008 142.5 -2.5s64.167 -4.5 91.5 -8.5l67 78h-375l39 121l45 154
c16.667 57.333 33.834 107.833 51.501 151.5s35.5 79.834 53.5 108.501c31.333 50 75.666 75 132.999 75c43.333 0 74.333 -11.5 93 -34.5s33.334 -67.5 44.001 -133.5z" />
    <glyph glyph-name="g" unicode="g" horiz-adv-x="1150" 
d="M1399 600l-65.499 -99.0029c-19 -28 -38.667 -54.667 -59 -80s-42.833 -50.666 -67.5 -75.999l-88 -89c-64.667 -61.333 -121.167 -105.666 -169.5 -132.999s-97.833 -43 -148.5 -47l10 33l37 135l54 184l45 141c24 76.667 49.333 151.5 76 224.5s49 130.833 67 173.5
l-231 -23l-52 -156h-20c0 6 0.333008 11 1 15s1 8 1 12s0.333008 8.16699 1 12.5s1 9.16602 1 14.499c0 83.333 -41 125 -123 125c-52 0 -106.667 -14.333 -164 -43s-116.666 -70.334 -177.999 -125.001c-52 -46.667 -98.833 -96.667 -140.5 -150
s-77.167 -107.166 -106.5 -161.499s-51.833 -109.166 -67.5 -164.499s-23.5 -108.333 -23.5 -159c0 -35.333 3.16699 -63.333 9.5 -84s17.5 -41.334 33.5 -62.001c-113.333 -47.333 -199.333 -97.666 -258 -150.999s-88 -108.666 -88 -165.999
c0 -75.333 37.167 -133 111.5 -173s181.166 -60 320.499 -60c176 0 317 41.167 423 123.5s182.667 210.833 230 385.5c45.333 11.333 81 22.833 107 34.5s53.333 27.5 82 47.5c34 24.667 69.167 53.5 105.5 86.5s73.5 69.833 111.5 110.5l54.5 59.5l45 53
c14.333 17.667 28.666 37.167 42.999 58.5l47.5 73zM693.001 710.997c0 -36 -8.33203 -78.8291 -24.999 -128.496s-38.334 -100.5 -65.001 -152.5c-24.667 -46.667 -51 -89.334 -79 -128.001s-55.667 -72.334 -83 -101.001s-53.666 -50.834 -78.999 -66.501
s-48.333 -23.5 -69 -23.5c-17.333 0 -31.833 7.83301 -43.5 23.5s-18.834 36.5 -21.501 62.5c-1.33301 5.33301 -2 10.666 -2 15.999v16c0 40 4.66699 85.167 14 135.5s22.333 101.5 39 153.5c74 239.333 167.333 359 280 359c38.667 0 70.667 -15.833 96 -47.5
s38 -71.167 38 -118.5zM754.002 623.001l-164 -521.003c-1.33301 -6.66699 -3.66602 -16.834 -6.99902 -30.501s-8.33301 -32.167 -15 -55.5c-24.667 -91.333 -51 -168.666 -79 -231.999s-58.333 -115.166 -91 -155.499s-69.167 -69.666 -109.5 -87.999
s-85.166 -27.5 -134.499 -27.5c-80.667 0 -145.167 20.333 -193.5 61s-72.5 95.334 -72.5 164.001c0 100.667 58 188 174 262c16 -9.33301 30.5 -15.5 43.5 -18.5s29.833 -4.5 50.5 -4.5c39.333 0 79.833 7.16699 121.5 21.5s78.167 33.833 109.5 58.5
c67.333 54.667 129.666 129.5 186.999 224.5s107.666 208.833 150.999 341.5h29z" />
    <glyph glyph-name="h" unicode="h" 
d="M1472 600c-50 -69.333 -102.334 -136.831 -157.001 -202.498s-106.667 -123.834 -156 -174.501c-38 -39.333 -74.5 -69.666 -109.5 -90.999s-64.833 -32 -89.5 -32c-14.667 0 -26.834 4.5 -36.501 13.5s-14.5 20.167 -14.5 33.5c0 11.333 1.33301 25.833 4 43.5
s6.33398 33.5 11.001 47.5l141 444c10.667 36.667 19.5 68.667 26.5 96s10.5 48.666 10.5 63.999c0 39.333 -11.667 71.666 -35 96.999s-54.666 38 -93.999 38c-62 0 -125 -21.167 -189 -63.5s-122 -101.166 -174 -176.499c-58.667 -84.667 -117.334 -185 -176.001 -301
s-112.667 -247.667 -162 -395l-6 -18h-24l301 938c77.333 10.667 152.5 32 225.5 64s137.5 70.5 193.5 115.5s100.833 94.167 134.5 147.5s50.5 106 50.5 158c0 56 -18.5 99 -55.5 129s-89.5 45 -157.5 45c-134 0 -255.667 -53.333 -365 -160
c-23.333 -23.333 -44.5 -46.833 -63.5 -70.5s-36.667 -49.834 -53 -78.501s-32 -61.5 -47 -98.5s-30.167 -80.833 -45.5 -131.5l-6 -20c-24.667 26 -41.667 49.833 -51 71.5s-14.666 48.167 -15.999 79.5l-154 -104c15.333 -31.333 40 -60 74 -86s72.667 -46.333 116 -61
l-317 -990l299 31c13.333 45.333 31 95.666 53 150.999s45.667 111.333 71 168s52 111.834 80 165.501s55.667 102.5 83 146.5c38 64 77.5 115.167 118.5 153.5s77.167 57.5 108.5 57.5c36.667 0 55 -22 55 -66c0 -24.667 -5.33301 -54.667 -16 -90l-156 -483
c-6.66699 -22 -11.667 -39.5 -15 -52.5l-8 -30.5c-2 -7.33301 -3.33301 -13.5 -4 -18.5s-1 -10.167 -1 -15.5c0 -34 10.167 -61 30.5 -81s48.166 -30 83.499 -30c44 0 89.5 9.33301 136.5 28s91.167 44.334 132.5 77.001c32.667 27.333 66.667 57.666 102 90.999
s69.833 68.5 103.5 105.5s65.834 74.167 96.501 111.5s57.667 74 81 110zM945.999 1423c0 -51.333 -10.167 -101.668 -30.5 -151.001s-48 -92.833 -83 -130.5s-75 -67.667 -120 -90s-91.5 -33.5 -139.5 -33.5h-22l59 182l34 99c10 28 19.833 53.333 29.5 76
s20 42.834 31 60.501l34.5 55.5c32.667 49.333 67.667 74 105 74c30 0 54.5 -13 73.5 -39s28.5 -60.333 28.5 -103z" />
    <glyph glyph-name="i" unicode="i" horiz-adv-x="608" 
d="M844 600l-72 -101.999c-20.667 -28.667 -40.834 -55.334 -60.501 -80.001s-40.834 -49.667 -63.501 -75l-79 -85c-51.333 -54.667 -96.166 -94.667 -134.499 -120s-71.833 -38 -100.5 -38c-40 0 -60 16.667 -60 50c0 14.667 8.33301 46.667 25 96l133 409l55 148l48 137
l8 27l-406 -23l-14 -45h20c63.333 0 95 -24 95 -72c0 -77.333 -29.667 -205 -89 -383l-47 -141l-32 -102c-7.33301 -23.333 -13.666 -47 -18.999 -71s-8 -41.333 -8 -52c0 -67.333 43.667 -101 131 -101c76.667 0 154.667 29.667 234 89c48.667 34 95 72.667 139 116
c28.667 27.333 53.167 52 73.5 74l60.5 67.5c20 23 39.833 48.5 59.5 76.5l70.5 100zM569 1256c0 38.667 -11.333 68.501 -34 89.501s-53.667 31.5 -93 31.5c-36 0 -66.167 -12.333 -90.5 -37s-36.5 -55.334 -36.5 -92.001c0 -38 11.5 -68.333 34.5 -91s53.833 -34 92.5 -34
c38 0 68.667 12.333 92 37s35 56.667 35 96z" />
    <glyph glyph-name="j" unicode="j" horiz-adv-x="585" 
d="M553 973l-406.995 -29.0039l-15 -45h17c38 0 64.833 -6.16699 80.5 -18.5s23.5 -34.166 23.5 -65.499c0 -19.333 -7.5 -57.666 -22.5 -114.999s-40.167 -144 -75.5 -260l-158 -512c-23.333 -74.667 -45.833 -137.667 -67.5 -189s-43.834 -93 -66.501 -125
s-47 -55.167 -73 -69.5s-54 -21.5 -84 -21.5c-90 0 -141 62.667 -153 188l-117 -184c36.667 -22 71.167 -37.333 103.5 -46s70.166 -13 113.499 -13c31.333 0 62.666 2.66699 93.999 8s60.666 13.333 87.999 24c72.667 28.667 137 75.334 193 140.001
c27.333 32.667 51.5 65 72.5 97s41.833 70.167 62.5 114.5s42.167 97.833 64.5 160.5l80.5 236l134 409l51 150c14.667 43.333 26.167 76.333 34.5 99s13.166 35.334 14.499 38.001c2.66699 8 6.66699 17.667 12 29zM579.005 1256c0 38.667 -11.333 68.501 -34 89.501
s-53.667 31.5 -93 31.5c-36 0 -66.167 -12.333 -90.5 -37s-36.5 -55.334 -36.5 -92.001c0 -38 11.5 -68.333 34.5 -91s53.833 -34 92.5 -34c38 0 68.667 12.333 92 37s35 56.667 35 96z" />
    <glyph glyph-name="k" unicode="k" horiz-adv-x="1150" 
d="M1417 600l-71.4932 -102.004c-20.333 -28.667 -40.833 -55.334 -61.5 -80.001s-42.5 -49 -65.5 -73l-81.5 -83c-105.333 -100.667 -187.333 -151 -246 -151c-22 0 -40.5 4.33301 -55.5 13s-29.333 26 -43 52s-27.334 61.833 -41.001 107.5s-29.167 104.834 -46.5 177.501
l-9 33c109.333 22.667 196.166 63 260.499 121s96.5 124.667 96.5 200c0 44 -14 80.333 -42 109s-63.333 43 -106 43c-58.667 0 -115.334 -24 -170.001 -72s-113.334 -125 -176.001 -231c-60 -101.333 -114.5 -206.666 -163.5 -315.999s-91.5 -217.666 -127.5 -324.999h-26
l516 1587l-420 -23l-14 -47l28 2c64.667 4 97 -20.667 97 -74c0 -38 -6.83301 -87.667 -20.5 -149s-36.5 -140.666 -68.5 -237.999l-258 -807l-49 -141l-43 -127l-10 -29l305 23c5.33301 19.333 10.166 36.166 14.499 50.499s9.16602 29 14.499 44s12.166 32.667 20.499 53
l32.5 79.5l40 90.5c10 23 19.167 43 27.5 60l23.5 48.5c7.33301 15.333 16.666 33 27.999 53c16 -94 32.667 -172.833 50 -236.5s36.5 -115.167 57.5 -154.5s44.5 -67.666 70.5 -84.999s56 -26 90 -26c68.667 0 139.667 29.667 213 89
c42.667 32.667 88.334 73.334 137.001 122.001c30 30 56 57 78 81l61.5 70c19 22.667 37.833 46.667 56.5 72l64 89zM874.007 757.996c0 -31.333 -8.16699 -61.333 -24.5 -90s-37.833 -53.667 -64.5 -75s-58 -38.5 -94 -51.5s-73 -19.5 -111 -19.5h-21
c-6.66699 0 -15.667 0.666992 -27 2c20.667 45.333 43.334 86.833 68.001 124.5s49.667 70 75 97s49.5 48.5 72.5 64.5s44.167 24 63.5 24s34.666 -6.83301 45.999 -20.5s17 -32.167 17 -55.5z" />
    <glyph glyph-name="l" unicode="l" horiz-adv-x="608" 
d="M844 600l-81.5 -108.501c-22.333 -30.333 -43.833 -58 -64.5 -83l-62.5 -73.5l-72.5 -79c-98 -104 -175 -156 -231 -156c-36 0 -54 18.667 -54 56c0 9.33301 1.83301 22.5 5.5 39.5s8.16699 33.167 13.5 48.5l438 1366l-414 -23l-14 -47h33
c35.333 0 61.166 -7.16699 77.499 -21.5s24.5 -38.5 24.5 -72.5c0 -26 -7.16699 -68 -21.5 -126s-37.166 -136.333 -68.499 -235l-272 -868c-10 -31.333 -17.333 -57.166 -22 -77.499s-7 -36.833 -7 -49.5c0 -75.333 40.333 -113 121 -113c54.667 0 114.667 18 180 54
c31.333 16 62.333 36 93 60s63.167 53 97.5 87s70.5 74 108.5 120l127 159l33 43z" />
    <glyph glyph-name="m" unicode="m" horiz-adv-x="1822" 
d="M2077 600l-72.001 -100.995c-20.667 -28 -41.167 -54.333 -61.5 -79s-41.833 -49.334 -64.5 -74.001l-81 -84c-104 -108 -182.667 -162 -236 -162c-30 0 -45 17.333 -45 52c0 9.33301 1.83301 22.166 5.5 38.499s8.83398 35.5 15.501 57.5l160 489
c8 27.333 14.333 50.666 19 69.999s7 34.333 7 45c0 76.667 -39.667 115 -119 115c-116 0 -225.667 -59.667 -329 -179c-26 -31.333 -50.333 -62.333 -73 -93s-44.5 -63 -65.5 -97s-42.167 -70.833 -63.5 -110.5s-42.666 -84.167 -63.999 -133.5l-42.5 -94
c-11.667 -26 -22.334 -50.833 -32.001 -74.5s-18.834 -48.167 -27.501 -73.5l-30 -89h-24l233 716c16.667 49.333 25 88.333 25 117c0 34 -11 61 -33 81s-52 30 -90 30c-54.667 0 -112 -16.5 -172 -49.5s-114 -76.833 -162 -131.5
c-24.667 -28.667 -47.5 -57.334 -68.5 -86.001s-41.5 -60 -61.5 -94s-39.833 -71.167 -59.5 -111.5s-41.167 -87.166 -64.5 -140.499l-41.5 -95l-32 -76c-9.66699 -24 -18.834 -48.5 -27.501 -73.5l-30 -86.5h-26l165 507l70 209l64 197l8 31l-385 -23l-15 -47h27
c32.667 0 55.834 -5.16699 69.501 -15.5s20.5 -27.833 20.5 -52.5v-4c0 -26 -2.66699 -51.833 -8 -77.5s-11.333 -52.167 -18 -79.5c-11.333 -36 -22.166 -73 -32.499 -111s-22.833 -77.667 -37.5 -119l-41.5 -114.5l-44 -121l-39.5 -110.5l-31 -86l-10 -29l299 23l14 41
c44 125.333 87.5 233.5 130.5 324.5s86.167 171.833 129.5 242.5c45.333 72.667 90.166 130.167 134.499 172.5s82.166 63.5 113.499 63.5c15.333 0 27.333 -5.5 36 -16.5s13 -24.167 13 -39.5c0 -13.333 -2.33301 -32 -7 -56s-11 -48.333 -19 -73l-70 -215l-40.5 -123.5
l-45 -131l-42 -121c-13 -37.667 -24.5 -68.167 -34.5 -91.5l293 23c40 114.667 83.833 223.167 131.5 325.5s95.334 192.166 143.001 269.499s93.334 138.166 137.001 182.499s81.5 66.5 113.5 66.5c31.333 0 47 -19.333 47 -58c0 -30 -8.33301 -72.333 -25 -127l-147 -473
c-15.333 -48.667 -23 -84.667 -23 -108c0 -67.333 37 -101 111 -101c38 0 78.5 8 121.5 24s82.833 37.667 119.5 65c44 32.667 89 72 135 118l87.5 89.5c23.667 25 45.167 48.833 64.5 71.5s37.833 46 55.5 70l59.5 85z" />
    <glyph glyph-name="n" unicode="n" 
d="M1472 600c-22.667 -34 -42.9961 -63.3311 -60.9961 -87.998s-36.833 -49 -56.5 -73s-41.5 -49.167 -65.5 -75.5l-91 -97.5c-56 -58.667 -103.167 -101 -141.5 -127s-73.166 -39 -104.499 -39c-35.333 0 -53 17.333 -53 52c0 8 2 19.167 6 33.5s11 35.833 21 64.5l155 479
c6.66699 19.333 11.834 38.833 15.501 58.5s5.5 35.834 5.5 48.501c0 40.667 -11.667 72.667 -35 96s-54.666 35 -93.999 35c-54.667 0 -109.334 -15.5 -164.001 -46.5s-105.334 -75.167 -152.001 -132.5c-66.667 -80 -127.334 -174 -182.001 -282
c-35.333 -70 -69.833 -144.167 -103.5 -222.5l-95.5 -230.5l-12 -30h-22l163 505l70 213l63 201l11 27l-387 -25l-15 -49h13c61.333 0 92 -25.333 92 -76c0 -18.667 -1.33301 -39.334 -4 -62.001s-7.83398 -49 -15.501 -79s-17 -64.5 -28 -103.5l-40.5 -138.5l-30 -92
l-40 -117l-44 -125.5l-34 -95.5l-10 -29l297 23c13.333 45.333 30.333 93.5 51 144.5s43 103.167 67 156.5s49.167 106 75.5 158s53.166 100.333 80.499 145c41.333 68.667 84.833 124.167 130.5 166.5s84.167 63.5 115.5 63.5c16.667 0 30 -5.83301 40 -17.5
s15 -27.167 15 -46.5c0 -16.667 -2.66699 -30.334 -8 -41.001l-14 -43l-162 -500c-14.667 -47.333 -22 -82 -22 -104c0 -32.667 10.833 -58.334 32.5 -77.001s52.5 -28 92.5 -28c39.333 0 80.166 8 122.499 24s83.166 39 122.499 69c122 90 254.667 233.333 398 430z" />
    <glyph glyph-name="o" unicode="o" horiz-adv-x="1024" 
d="M1286 600c-35.333 -48 -72.502 -94.832 -111.502 -140.499s-78.167 -88.667 -117.5 -129s-78.833 -76.833 -118.5 -109.5s-77.167 -60 -112.5 -82c-32 -18.667 -67 -33.5 -105 -44.5s-74.667 -16.5 -110 -16.5c-15.333 0 -28.166 0.666992 -38.499 2
s-24.833 5.33301 -43.5 12c52.667 36.667 104.667 83 156 139s96.5 114.833 135.5 176.5s70.5 123.167 94.5 184.5s36 116 36 164c0 140.667 -74.667 211 -224 211c-64 0 -124.333 -11.667 -181 -35s-115 -59 -175 -107c-56 -44.667 -107.167 -94.334 -153.5 -149.001
s-86.666 -110.667 -120.999 -168s-60.666 -114 -78.999 -170s-27.5 -108 -27.5 -156c0 -65.333 18.5 -115.833 55.5 -151.5s88.833 -53.5 155.5 -53.5c38 0 74.167 4.16699 108.5 12.5s78.166 22.833 131.499 43.5c22.667 -14 41.5 -23 56.5 -27s36.833 -6 65.5 -6
c104 -0 211.667 40.333 323 121s234 207 368 379zM718.998 723.001c0 -53.333 -6.16895 -109.333 -18.502 -168s-28.666 -115.667 -48.999 -171s-44.5 -106.833 -72.5 -154.5s-58.333 -87.167 -91 -118.5c-92 42 -138 125.667 -138 251c0 64.667 9 129 27 193
s43.333 122 76 174c28.667 46.667 58.334 83 89.001 109s59.667 39 87 39c60 0 90 -51.333 90 -154zM577.996 911.001l-7.99902 -18.002c-37.333 -19.333 -72.333 -49.166 -105 -89.499s-61.334 -86.333 -86.001 -138s-44.5 -106.5 -59.5 -164.5s-22.5 -115 -22.5 -171
c0 -54.667 7.16699 -102.5 21.5 -143.5s37.166 -79.167 68.499 -114.5c-16 -6 -29.667 -9 -41 -9c-43.333 0 -78 19.833 -104 59.5s-39 93.167 -39 160.5c0 50 8.5 105.833 25.5 167.5s40.5 123.167 70.5 184.5c50.667 104 109.334 180.333 176.001 229
c15.333 11.333 29.833 20.333 43.5 27s33.5 13.334 59.5 20.001z" />
    <glyph glyph-name="p" unicode="p" horiz-adv-x="1130" 
d="M1072 748c0 70.667 -13.6641 124.829 -40.9971 162.496s-67 56.5 -119 56.5c-58.667 0 -119.334 -28 -182.001 -84s-123.334 -136 -182.001 -240c-32 -56 -62.333 -114 -91 -174s-56.667 -123.333 -84 -190l-66 -169.5c-20 -52.333 -39.833 -107.166 -59.5 -164.499
l-61.5 -188.5l-75 -243.5h-47l473 1454l-385 -23l-14 -49c4 1.33301 10 2 18 2c58.667 0 88 -27.333 88 -82c0 -19.333 -1.33301 -39.166 -4 -59.499s-7.66699 -45.166 -15 -74.499s-16.833 -63.833 -28.5 -103.5s-26.5 -86.834 -44.5 -141.501l-192 -596l-53 -168l-58 -176
l-8 -24l311 22l11 35l35.5 116.5l45.5 147.5l84.5 250c25.667 72.667 50.5 138.334 74.5 197.001s47.667 112.5 71 161.5s48 97.5 74 145.5c43.333 79.333 87.5 141.166 132.5 185.499s85.5 66.5 121.5 66.5c22.667 0 39.167 -10 49.5 -30s15.5 -51.667 15.5 -95
c0 -34 -3.33301 -71.833 -10 -113.5s-15.834 -84 -27.501 -127s-25.667 -85.333 -42 -127s-33.5 -79.5 -51.5 -113.5c-49.333 -92 -104.666 -138 -165.999 -138c-27.333 0 -49.166 7.5 -65.499 22.5s-24.5 34.833 -24.5 59.5v10c0 6 0.666992 12.333 2 19l-149 -117
c25.333 -27.333 49.666 -46.166 72.999 -56.499s52 -15.5 86 -15.5c134 0 264.333 91.667 391 275c28.667 40.667 54.667 82.834 78 126.501s43.166 87 59.499 130s29 84.667 38 125s13.5 78.5 13.5 114.5z" />
    <glyph glyph-name="q" unicode="q" horiz-adv-x="1087" 
d="M1068 967l-221.998 -23.001l-49 -156h-20c1.33301 11.333 2 19 2 23v16c0 44 -11 78.333 -33 103s-52.667 37 -92 37c-49.333 0 -103 -14.333 -161 -43s-117.667 -69.667 -179 -123c-50.667 -45.333 -96.834 -94.666 -138.501 -147.999s-77.167 -107.5 -106.5 -162.5
s-51.833 -110.167 -67.5 -165.5s-23.5 -108.333 -23.5 -159c0 -126 54 -189 162 -189c53.333 0 108.666 16.833 165.999 50.5s111.833 79.834 163.5 138.501s99 127.167 142 205.5s77.5 162.166 103.5 251.499h27l-72 -222l-71 -221l-144 -442
c-2.66699 -11.333 -8 -27.5 -16 -48.5l-29 -78.5l-22.5 -63.5c-7 -19 -13.167 -37.5 -18.5 -55.5l-6 -20l233 30zM683.002 701.999c0 -78.667 -29.668 -168.669 -89.001 -270.002c-28.667 -49.333 -57.334 -93.666 -86.001 -132.999s-56.5 -73 -83.5 -101
s-52.833 -49.5 -77.5 -64.5s-46.667 -22.5 -66 -22.5c-46.667 0 -70 45.667 -70 137c0 14.667 0.833008 28.834 2.5 42.501s3.83398 27.5 6.50098 41.5c12 68 29.333 136.5 52 205.5s48.334 129.5 77.001 181.5c57.333 105.333 123.333 158 198 158
c40 0 72.667 -16.167 98 -48.5s38 -74.5 38 -126.5z" />
    <glyph glyph-name="r" unicode="r" horiz-adv-x="884" 
d="M994 958c-15.333 3.33301 -26.833 5.66699 -34.5 7s-16.834 2 -27.501 2c-23.333 0 -48 -4.16699 -74 -12.5s-49 -18.5 -69 -30.5c-45.333 -27.333 -90.5 -69 -135.5 -125s-89.667 -122 -134 -198s-88 -160.667 -131 -254s-85.167 -191.333 -126.5 -294l-12 -30h-27
l310 944l-387 -23l-13 -43h15c36.667 0 62.167 -6.5 76.5 -19.5s21.5 -35.167 21.5 -66.5c0 -20.667 -1 -40.167 -3 -58.5s-6.5 -40.833 -13.5 -67.5s-16.5 -59.5 -28.5 -98.5s-29 -89.167 -51 -150.5l-74 -211l-76 -217l-10 -35l299 23
c40.667 126.667 83.334 239.167 128.001 337.5s92.667 187.166 144 266.499c40 61.333 76 105.333 108 132s64.333 40 97 40c23.333 0 46.333 -6.16699 69 -18.5s47.667 -32.166 75 -59.499z" />
    <glyph glyph-name="s" unicode="s" horiz-adv-x="894" 
d="M1150 600l-36.001 -53.4922c-10 -15 -20.833 -29.667 -32.5 -44s-25.334 -29.666 -41.001 -45.999l-56.5 -59.5c-31.333 -32.667 -62.333 -63.334 -93 -92.001s-62 -55.334 -94 -80.001l-42.5 -31.5c-12.333 -9 -24.666 -16.833 -36.999 -23.5
s-25.666 -12.834 -39.999 -18.501s-30.833 -11.167 -49.5 -16.5c38 52 57 108.667 57 170c0 34 -9.16699 76 -27.5 126s-50.833 120 -97.5 210c-23.333 46.667 -39.5 83.667 -48.5 111s-13.5 53 -13.5 77c0 26 7.16699 48 21.5 66s33.166 27 56.499 27
c24.667 0 45.167 -12.333 61.5 -37s24.5 -55.334 24.5 -92.001c0 -16.667 -1 -30.834 -3 -42.501s-6.33301 -27.834 -13 -48.501l174 101c-19.333 57.333 -48 99 -86 125s-88.667 39 -152 39c-74.667 0 -135.667 -22.167 -183 -66.5s-71 -101.5 -71 -171.5
c0 -32.667 5.16699 -65.667 15.5 -99s29.166 -75.333 56.499 -126l-207 102c-68 -24.667 -122.833 -66.667 -164.5 -126s-62.5 -125 -62.5 -197c0 -45.333 8.5 -86.5 25.5 -123.5s40.5 -69 70.5 -96s65.833 -48.167 107.5 -63.5s87.834 -23 138.501 -23
c32.667 0 59.334 2.5 80.001 7.5s46.667 14.833 78 29.5c39.333 7.33301 70.333 14.666 93 21.999s45.667 16.333 69 27c82.667 41.333 166 99.166 250 173.499s163.667 162.166 239 263.499zM493.999 223.008c0 -57.333 -17.333 -105 -52 -143s-78 -57 -130 -57
c-54.667 0 -100 19.667 -136 59s-54 89.666 -54 150.999c0 75.333 26.167 135.833 78.5 181.5s121.5 69.834 207.5 72.501c27.333 -52.667 48.5 -102 63.5 -148s22.5 -84.667 22.5 -116z" />
    <glyph glyph-name="t" unicode="t" horiz-adv-x="661" 
d="M927 600l-45.5 -69.501c-13 -19 -26.333 -37.333 -40 -55l-43 -54.5l-53.5 -65c-139.333 -163.333 -261.333 -245 -366 -245c-60 0 -90 33.333 -90 100c0 13.333 2.66699 32 8 56s11.333 47.667 18 71l176 545h21c27.333 0 50.5 -0.666992 69.5 -2
s42.833 -4.33301 71.5 -9l49 72h-190l98 301l-233 -59c-11.333 -31.333 -22.166 -63.5 -32.499 -96.5l-33.5 -102.5l-14 -43h-148l-47 -82c23.333 8 45.166 13.833 65.499 17.5s48.5 5.5 84.5 5.5c2.66699 0 6 -0.333008 10 -1s9.33301 -1 16 -1l-184 -531
c-27.333 -79.333 -41 -149.666 -41 -210.999c0 -116 56 -174 168 -174c53.333 0 105.833 10 157.5 30s104.5 51.5 158.5 94.5s110.333 98.167 169 165.5s121.667 148.333 189 243z" />
    <glyph glyph-name="u" unicode="u" 
d="M1460 600c-45.333 -68 -92.502 -132.498 -141.502 -193.498s-96.667 -114 -143 -159s-89.333 -80.833 -129 -107.5s-72.5 -40 -98.5 -40c-35.333 0 -53 18.667 -53 56c0 6.66699 1.33301 15.5 4 26.5s6 23.833 10 38.5l19 60l120 374l16.5 47.5l35.5 102.5
c13.333 35.333 23.833 64.333 31.5 87s13.5 38.667 17.5 48c2.66699 5.33301 6 14.333 10 27l-303 -23c-15.333 -46.667 -33.5 -96.167 -54.5 -148.5s-43.5 -105.166 -67.5 -158.499s-49 -104.833 -75 -154.5s-51.333 -95.834 -76 -138.501
c-42 -70.667 -85.167 -127.167 -129.5 -169.5s-82.833 -63.5 -115.5 -63.5c-16.667 0 -30.167 5.33301 -40.5 16s-15.5 25 -15.5 43c0 15.333 3.66699 35 11 59l8 22c2.66699 7.33301 5.33398 15.666 8.00098 24.999l123 373l19.5 53.5l34 94
c13.667 38.333 25.167 69.166 34.5 92.499s15.333 39.666 18 48.999c1.33301 2.66699 2.83301 6.33398 4.5 11.001l6.5 18l-412 -23l-14 -53l28 2c37.333 2.66699 63.166 -1.83301 77.499 -13.5s21.5 -29.167 21.5 -52.5v-4c0 -27.333 -2.83301 -54.333 -8.5 -81
s-12.5 -54.334 -20.5 -83.001l-51.5 -159c-19 -60 -37.5 -114.667 -55.5 -164c-13.333 -35.333 -24.166 -65 -32.499 -89s-14.833 -44.167 -19.5 -60.5s-7.66699 -30 -9 -41s-2 -22.5 -2 -34.5c0 -89.333 44.333 -134 133 -134c54.667 0 110 15.833 166 47.5
s108.667 76.834 158 135.501c26 30 49.833 61 71.5 93s43.5 67.167 65.5 105.5s44.167 81 66.5 128l74.5 164.5l35 82l25.5 62.5c7.66699 19.667 14.834 39.167 21.501 58.5s15 42 25 68h30l-239 -734c-14 -40.667 -21 -76 -21 -106c0 -32.667 11 -58.334 33 -77.001
s52.667 -28 92 -28c44 0 89.5 9.66699 136.5 29s91.833 46 134.5 80c30 24.667 61 52.667 93 84s64 64.833 96 100.5s63.333 72.834 94 111.501s59 78 85 118z" />
    <glyph glyph-name="v" unicode="v" horiz-adv-x="1097" 
d="M1345 600l-42.499 -60.499c-11.667 -17 -23.5 -33 -35.5 -48s-25.167 -30.333 -39.5 -46l-50.5 -54.5c-72.667 -76.667 -135.5 -131.334 -188.5 -164.001s-104.167 -49 -153.5 -49c-26 0 -46.167 2.5 -60.5 7.5s-31.166 14.833 -50.499 29.5c44 45.333 84 93.5 120 144.5
s67.333 102.167 94 153.5s47.167 100.833 61.5 148.5s21.5 90.834 21.5 129.501c0 51.333 -9.83301 91.333 -29.5 120s-48.834 43 -87.501 43c-48.667 0 -97 -22.333 -145 -67c-52 -52 -93 -115.167 -123 -189.5s-45 -152.5 -45 -234.5c0 -52 5.5 -97.5 16.5 -136.5
s28.167 -76.167 51.5 -111.5c-50.667 -48 -97.5 -82.833 -140.5 -104.5s-84.167 -32.5 -123.5 -32.5c-44 0 -79.333 15 -106 45s-40 71 -40 123c0 39.333 7.83301 84 23.5 134s39.167 108.333 70.5 175c34.667 71.333 72.667 138.666 114 201.999s92.333 133.333 153 210
l-418 -23l-15 -47h19c61.333 0 92 -19 92 -57c0 -18 -11.667 -45.333 -35 -82l-23.5 -36.5c-9 -14.333 -18.833 -30.833 -29.5 -49.5l-78 -137c-31.333 -60.667 -54.5 -114.5 -69.5 -161.5s-22.5 -92.167 -22.5 -135.5c0 -80.667 24.167 -144.334 72.5 -191.001
s114.166 -70 197.499 -70c67.333 0 134 17.5 200 52.5s130 85.833 192 152.5c26.667 -18.667 49 -31.5 67 -38.5s42.667 -10.5 74 -10.5c35.333 0 70.5 6.5 105.5 19.5s67.5 31.833 97.5 56.5c21.333 16 43.333 34.667 66 56l71 69l50 51.5l33.5 37.5
c9.66699 11.333 18.667 22.833 27 34.5s17.833 25.834 28.5 42.501zM864.001 705.001c0 -37.333 -4.49805 -76.167 -13.498 -116.5s-21 -80.5 -36 -120.5s-33.167 -78.5 -54.5 -115.5s-45 -69.833 -71 -98.5c-16 27.333 -28.167 57 -36.5 89s-12.5 70 -12.5 114
c0 52 7.16699 103.5 21.5 154.5s35.166 97.833 62.499 140.5c27.333 39.333 54.666 59 81.999 59c20.667 0 35.5 -8.16699 44.5 -24.5s13.5 -43.5 13.5 -81.5z" />
    <glyph glyph-name="w" unicode="w" horiz-adv-x="1503" 
d="M1756 600c-22.667 -32.667 -54.834 -72.8281 -96.501 -120.495l-128.5 -141.5c-58.667 -61.333 -109.5 -105.333 -152.5 -132s-83.5 -40 -121.5 -40c-27.333 0 -49.5 3.33301 -66.5 10s-37.167 19.667 -60.5 39l20 23c94.667 102 165.5 200.833 212.5 296.5
s70.5 184.5 70.5 266.5c0 47.333 -11.333 84.666 -34 111.999s-52.334 41 -89.001 41c-35.333 0 -72.5 -13.333 -111.5 -40s-74.167 -63.667 -105.5 -111c-66.667 -97.333 -100 -208 -100 -332c0 -53.333 5.33301 -99.5 16 -138.5s29.667 -77.5 57 -115.5
c-43.333 -42 -80.333 -72 -111 -90s-59.667 -27 -87 -27c-31.333 0 -55.666 15.833 -72.999 47.5s-26 76.834 -26 135.501c0 44.667 5.83301 94.667 17.5 150s27.834 112.666 48.501 171.999s45.667 119 75 179s61.666 118 96.999 174l-197 -14l-38.5 -56.5
c-11 -15.667 -21 -30.667 -30 -45s-17.833 -29.333 -26.5 -45s-18 -33.834 -28 -54.501c-35.333 -69.333 -63.5 -139.833 -84.5 -211.5s-32.833 -131.5 -35.5 -179.5c0 -23.333 -1.66699 -39 -5 -47c-1.33301 -10.667 -7.33301 -26.334 -18 -47.001
c-58.667 -113.333 -122 -170 -190 -170c-32 0 -56.833 13.333 -74.5 40s-26.5 62.667 -26.5 108c0 46 9.33301 99.333 28 160s45 124 79 190c32.667 64 72.167 130.167 118.5 198.5s92.166 129.166 137.499 182.499l-424 -23l-15 -45h7c36.667 0 63.167 -4.83301 79.5 -14.5
s24.5 -25.167 24.5 -46.5c0 -18 -11 -44.667 -33 -80l-55 -86c-13.333 -20.667 -26.5 -42.334 -39.5 -65.001l-38.5 -70c-32.667 -63.333 -56.167 -118.166 -70.5 -164.499s-21.5 -93.5 -21.5 -141.5c0 -77.333 19.833 -139 59.5 -185s92.167 -69 157.5 -69
c28.667 0 56 4.16699 82 12.5s52 21.666 78 39.999s52.333 42.166 79 71.499s55 65.333 85 108c20 -154.667 87.333 -232 202 -232c48 0 96.333 14.833 145 44.5s109 81.834 181 156.501c28.667 -23.333 53.334 -38.333 74.001 -45s47.334 -10 80.001 -10
c27.333 0 55 5.16699 83 15.5s55.667 25.5 83 45.5c47.333 36 97 80.833 149 134.5s104 114.167 156 181.5zM1275 713.006c0 -38.667 -4.33301 -79.167 -13 -121.5s-21 -83.5 -37 -123.5s-34.833 -78.5 -56.5 -115.5s-45.5 -69.833 -71.5 -98.5
c-36.667 58.667 -55 129.667 -55 213c0 46.667 6.16699 93.5 18.5 140.5s29.166 88.167 50.499 123.5c31.333 53.333 65 80 101 80c18.667 0 33.834 -8.5 45.501 -25.5s17.5 -41.167 17.5 -72.5z" />
    <glyph glyph-name="x" unicode="x" horiz-adv-x="1320" 
d="M1579 600c-53.333 -74 -109.664 -141.336 -168.997 -202.003s-119.333 -113.167 -180 -157.5s-119.334 -78.833 -176.001 -103.5s-108.334 -37 -155.001 -37c-24.667 0 -45.5 5.5 -62.5 16.5s-30.667 29.833 -41 56.5s-17.833 61.5 -22.5 104.5s-7 96.5 -7 160.5v37
c0 11.333 0.666992 27 2 47c68 104 129.667 179.833 185 227.5s109.666 71.5 162.999 71.5c23.333 0 40.5 -2.66699 51.5 -8s21.833 -17.666 32.5 -36.999l96 137c-16 20.667 -31.167 34.834 -45.5 42.501s-35.166 11.5 -62.499 11.5c-28.667 0 -59.5 -7.16699 -92.5 -21.5
s-66.5 -35.166 -100.5 -62.499l-45.5 -40.5c-14.333 -13 -28.666 -28 -42.999 -45s-30.5 -37.5 -48.5 -61.5l-64 -89c-2.66699 -5.33301 -6.33398 -11 -11.001 -17s-10.334 -14 -17.001 -24v43l-2 125c-1.33301 68.667 -10.5 118 -27.5 148s-45.5 45 -85.5 45
c-43.333 0 -89.666 -24.667 -138.999 -74c-50.667 -48 -97.167 -97.5 -139.5 -148.5s-78.5 -99.167 -108.5 -144.5l-33 -100l27 39.5c8 11.667 16.167 22.667 24.5 33l26.5 33c9.33301 11.667 21 24.834 35 39.501c48 56 84.167 93.833 108.5 113.5s46.166 29.5 65.499 29.5
s31.666 -7.16699 36.999 -21.5s8 -46.5 8 -96.5v-13v-157v-37c-27.333 -50.667 -56.666 -97.834 -87.999 -141.501s-62.333 -81.834 -93 -114.501s-59.667 -58.667 -87 -78s-51.333 -29 -72 -29c-18 0 -33 5.83301 -45 17.5s-18 26.5 -18 44.5
c0 9.33301 0.666992 17.333 2 24l-156 -143c18 -23.333 36.833 -40.166 56.5 -50.499s44.5 -15.5 74.5 -15.5c32.667 0 64.334 6.83301 95.001 20.5s63.167 36 97.5 67s70.166 71.333 107.499 121s79.333 110.167 126 181.5c0 -34.667 0.666992 -60.834 2 -78.501
s3.33301 -38.167 6 -61.5c18 -166.667 91.667 -250 221 -250c48 0 100 10.333 156 31s111.333 49.334 166 86.001c86 57.333 167.5 121.833 244.5 193.5s139.5 142.5 187.5 212.5z" />
    <glyph glyph-name="y" unicode="y" 
d="M1465 600c-58.667 -84.667 -114.333 -159.001 -167 -223.001s-104.334 -120.667 -155.001 -170c-44.667 -44 -88.834 -76.833 -132.501 -98.5s-90.834 -33.834 -141.501 -36.501l293 895l-310 -23l-12 -37l-23.5 -73.5l-21.5 -63.5l-46 -126l-52.5 -134.5l-51 -121.5
c-16.333 -37.333 -29.833 -67 -40.5 -89c-18 -35.333 -33.5 -64.333 -46.5 -87s-24.667 -40.5 -35 -53.5s-20.166 -22.167 -29.499 -27.5s-19 -8 -29 -8c-8 0 -14.333 1.66699 -19 5s-8.5 9.83301 -11.5 19.5s-5.16699 23 -6.5 40s-2.66602 39.167 -3.99902 66.5l-20 713
l-350 -23l-17 -49c10 1.33301 17.667 2 23 2h14c28.667 0 51.5 -2.33301 68.5 -7s30.333 -15.667 40 -33s16.167 -41.666 19.5 -72.999s6.33301 -73.666 9 -126.999l17 -417c1.33301 -52 3.66602 -88.333 6.99902 -109s9 -40.334 17 -59.001l-22 -9
c-136.667 -48.667 -240.5 -104.834 -311.5 -168.501s-106.5 -130.167 -106.5 -199.5c0 -70 35.5 -125.333 106.5 -166s167.167 -61 288.5 -61c74 0 144.833 9.83301 212.5 29.5s128.834 47.834 183.501 84.501c48.667 34 89.5 77 122.5 129s63.167 117.667 90.5 197l22 65
c96.667 18 198.334 77.667 305.001 179c44 40.667 91.833 92.334 143.5 155.001s100.167 127 145.5 193zM916.001 908.999l-329.999 -1034c-13.333 -43.333 -31.333 -87.333 -54 -132s-45.667 -83.334 -69 -116.001c-56 -76 -130.333 -114 -223 -114
c-68 0 -123.167 18.667 -165.5 56s-63.5 86.666 -63.5 147.999c0 50.667 16.333 100 49 148c23.333 35.333 50.666 65.333 81.999 90s74.333 50 129 76c26 -36 59.333 -54 100 -54c65.333 0 123.333 41 174 123c20.667 33.333 43 74.833 67 124.5s48.833 104.5 74.5 164.5
l78.5 189.5c26.667 66.333 51.667 132.166 75 197.499l41 115l6 18h29z" />
    <glyph glyph-name="z" unicode="z" horiz-adv-x="1097" 
d="M1074 967c-66.667 -14 -137.168 -24.3291 -211.501 -30.9961s-142.166 -10 -203.499 -10c-24.667 0 -45.834 0.333008 -63.501 1s-34.834 2.66699 -51.501 6s-33.167 7.66602 -49.5 12.999s-34.5 12.333 -54.5 21c-10 -36 -18.667 -64.5 -26 -85.5s-18 -46.5 -32 -76.5
c-9.33301 -19.333 -18.166 -36.5 -26.499 -51.5l-25.5 -45c-8.66699 -15 -18.834 -31 -30.501 -48l-42.5 -60.5l-32 -100l24 30c35.333 44 67.666 89.167 96.999 135.5l83 131.5c31.333 -11.333 61.833 -19.333 91.5 -24s66.834 -7 111.501 -7
c50.667 0 95.834 3.33301 135.501 10s82.5 18.334 128.5 35.001l-39 -35l-68.5 -62.5c-19.667 -18.333 -38.5 -34.833 -56.5 -49.5l-147 -121l-218 -189l-198 -188l-53 -166h762l92 203c-23.333 -8.66699 -43.833 -15.334 -61.5 -20.001s-35.667 -8.33398 -54 -11.001
s-39.5 -4.33398 -63.5 -5.00098s-53.667 -1 -89 -1h-334c6.66699 24.667 13.167 43.834 19.5 57.501s16.833 30.5 31.5 50.5c15.333 22 30.833 42.167 46.5 60.5s32.834 37.166 51.501 56.499c23.333 23.333 50 48.666 80 75.999l101 90l147 129l154 127l32 27z" />
    <glyph glyph-name="braceleft" unicode="{" horiz-adv-x="1138" 
d="M925 -369c-70.667 16.667 -124.834 51.666 -162.501 104.999s-56.5 111.333 -56.5 174c0 39.333 4.66699 97.333 14 174c4 28.667 7.5 58.334 10.5 89.001s4.5 55 4.5 73c0 50.667 -10.667 95.667 -32 135s-48.333 73 -81 101s-64.667 50.5 -96 67.5
s-66.333 33.833 -105 50.5l-4 2l6 2c38.667 16.667 73.667 33.167 105 49.5s63 38.166 95 65.499s58.667 61.166 80 101.499s32 86.166 32 137.499c0 18 -1.5 42.333 -4.5 73s-6.5 60.334 -10.5 89.001c-9.33301 76.667 -14 134.667 -14 174
c0 63.333 18.833 121.5 56.5 174.5s91.834 87.833 162.501 104.5v51c-50.667 -1.33301 -101.834 -11.166 -153.501 -29.499s-98.334 -43.166 -140.001 -74.499s-75.167 -67.833 -100.5 -109.5s-38 -86.5 -38 -134.5c0 -49.333 8.33301 -115 25 -197
c1.33301 -5.33301 4.66602 -22.333 9.99902 -51c14.667 -66.667 22 -113.667 22 -141c0 -64 -21.5 -118.333 -64.5 -163s-96.5 -77 -160.5 -97v-49c62.667 -19.333 115.834 -52.5 159.501 -99.5s65.5 -100.833 65.5 -161.5c0 -27.333 -7.33301 -74.333 -22 -141l-10 -51
c-16.667 -82 -25 -147.667 -25 -197c0 -47.333 12.667 -91.833 38 -133.5s58.833 -78.167 100.5 -109.5s88.334 -56.333 140.001 -75s102.834 -28.667 153.501 -30v51z" />
    <glyph glyph-name="bar" unicode="|" horiz-adv-x="681" 
d="M290 -512h102v2048h-102v-2048z" />
    <glyph glyph-name="braceright" unicode="}" horiz-adv-x="1138" 
d="M235 -420c50.667 1.33301 101.833 11.334 153.5 30.001s98.667 43.667 141 75s75.833 67.833 100.5 109.5s37 86.167 37 133.5c0 49.333 -8 115 -24 197c-1.33301 6.66699 -5 23.667 -11 51c-14.667 66.667 -22 113.667 -22 141c0 60.667 21.833 114.5 65.5 161.5
s96.834 80.167 159.501 99.5v49c-64 20 -117.5 52.333 -160.5 97s-64.5 99 -64.5 163c0 27.333 7.33301 74.333 22 141c6 28.667 9.66699 45.667 11 51c16 82 24 147.667 24 197c0 48 -12.333 92.833 -37 134.5s-58.167 78.167 -100.5 109.5s-89.333 56.166 -141 74.499
s-102.834 28.166 -153.501 29.499v-51c70.667 -16.667 124.834 -51.5 162.501 -104.5s56.5 -111.167 56.5 -174.5c0 -39.333 -4.66699 -97.333 -14 -174c-4 -28.667 -7.5 -58.334 -10.5 -89.001s-4.5 -55 -4.5 -73c0 -51.333 10.667 -97.166 32 -137.499
s48 -74.166 80 -101.499s63.333 -49.166 94 -65.499s66 -32.833 106 -49.5l6 -2l-4 -2c-35.333 -14.667 -69.5 -31 -102.5 -49s-65.833 -41 -98.5 -69s-59.667 -61.667 -81 -101s-32 -84.333 -32 -135c0 -18 1.5 -42.333 4.5 -73s6.5 -60.334 10.5 -89.001
c9.33301 -76.667 14 -134.667 14 -174c0 -62.667 -18.833 -120.667 -56.5 -174s-91.834 -88.333 -162.501 -105v-51z" />
    <glyph glyph-name="asciitilde" unicode="~" horiz-adv-x="1138" 
d="M70 281c2.66699 18.667 6.33105 37.999 10.998 57.999s12.834 39.833 24.501 59.5s28.834 36.334 51.501 50.001s51 20.5 85 20.5c24.667 0 56.5 -7.16699 95.5 -21.5s74.167 -30.5 105.5 -48.5l123 -69c47.333 -27.333 90.5 -48.5 129.5 -63.5s78.833 -22.5 119.5 -22.5
c84.667 0 151.334 32 200.001 96s73 135.667 73 215h-82v-4c-4 -22 -8.5 -42.167 -13.5 -60.5s-13.167 -37 -24.5 -56s-28 -35 -50 -48s-50 -19.5 -84 -19.5c-24.667 0 -55.5 7.16699 -92.5 21.5s-72.5 30.833 -106.5 49.5l-125 70c-47.333 26 -90.833 46.5 -130.5 61.5
s-79.5 22.5 -119.5 22.5c-54.667 0 -100.334 -13 -137.001 -39s-64.5 -57.833 -83.5 -95.5s-32.333 -72.5 -40 -104.5s-11.5 -56 -11.5 -72h82z" />
    <glyph glyph-name="dieresis" unicode="&#xa8;" horiz-adv-x="1024" 
 />
    <glyph glyph-name="copyright" unicode="&#xa9;" horiz-adv-x="1024" 
d="M839 952c-2.66699 -16 -6.33594 -31.501 -11.0029 -46.501s-12.167 -30.333 -22.5 -46s-24.333 -29 -42 -40s-40.167 -16.5 -67.5 -16.5c-49.333 0 -87 20.5 -113 61.5s-39 96.833 -39 167.5c0 166.667 48.667 250 146 250c36.667 0 65.667 -14 87 -42
s41.333 -66.667 60 -116c4.66699 -9.33301 7 -14.666 7 -15.999l30 6v209h-30c-2 -2.66699 -4.33301 -5.33398 -7 -8.00098c-10.667 -15.333 -20 -23 -28 -23c-10 0 -23.667 4.33301 -41 13c-18 5.33301 -34.5 10 -49.5 14s-33.5 6 -55.5 6
c-30 0 -59.667 -7.16699 -89 -21.5s-56.666 -35.166 -81.999 -62.499s-45.166 -59 -59.499 -95s-21.5 -74.667 -21.5 -116c0 -79.333 25 -144.833 75 -196.5s113.333 -77.5 190 -77.5c42 0 76.667 6.83301 104 20.5s47.833 30.334 61.5 50.001s22.834 38.667 27.501 57
s9 41.166 13 68.499v2zM660.998 572.999c64 0 125.168 11.667 183.501 35s109.666 56.166 153.999 98.499s79 91.833 104 148.5s37.5 116.334 37.5 179.001s-12.5 122.334 -37.5 179.001s-60 106.167 -105 148.5s-96.333 75.166 -154 98.499s-118.5 35 -182.5 35
c-62.667 0 -123.334 -11.667 -182.001 -35s-110.167 -56.166 -154.5 -98.499s-79.166 -91.833 -104.499 -148.5s-38 -116.334 -38 -179.001s12.667 -122 38 -178s60.5 -105.5 105.5 -148.5s96.5 -76.167 154.5 -99.5s118.333 -35 181 -35zM253.999 1034
c0 53.333 10.501 103.833 31.501 151.5s50.667 89.334 89 125.001s82 63.334 131 83.001s100.833 29.5 155.5 29.5s107 -9.83301 157 -29.5s93.667 -47.334 131 -83.001s66.666 -77.334 87.999 -125.001s32 -98.167 32 -151.5s-10.667 -103.5 -32 -150.5
s-51 -88.5 -89 -124.5s-81.667 -64 -131 -84s-101.333 -30 -156 -30s-106.5 10 -155.5 30s-92.667 48 -131 84s-68 77.5 -89 124.5s-31.5 97.167 -31.5 150.5z" />
    <glyph glyph-name="registered" unicode="&#xae;" horiz-adv-x="1024" 
d="M422 780l266.001 -0.000976562v39c-4 0 -6.66699 0.666992 -8 2c-32.667 4 -52.5 10.167 -59.5 18.5s-10.5 30.833 -10.5 67.5v123h23c32.667 0 55.167 -9.83301 67.5 -29.5s22.5 -49.5 30.5 -89.5c8 -42 19.5 -74.333 34.5 -97s43.167 -34 84.5 -34
c39.333 0 67.166 15.333 83.499 46s24.5 62.667 24.5 96h-41c0 -15.333 -2 -30.5 -6 -45.5s-12.667 -22.5 -26 -22.5c-10 0 -17.333 3.33301 -22 10s-9.66699 19 -15 37c-8.66699 30 -19.834 56.333 -33.501 79s-36.834 43.334 -69.501 62.001l6 2
c42.667 10 77.334 23.833 104.001 41.5s40 47.834 40 90.501c0 51.333 -19.167 86.333 -57.5 105s-93.5 28 -165.5 28h-250v-41l10 -2c27.333 -2.66699 45 -7.83398 53 -15.501s12 -26.5 12 -56.5v-293c0 -34 -4.66699 -55.5 -14 -64.5s-29.666 -14.833 -60.999 -17.5v-39z
M610.001 1190c0 30 4.16699 50.5 12.5 61.5s28.166 16.5 59.499 16.5c32.667 0 55.5 -9 68.5 -27s19.5 -43.333 19.5 -76c0 -35.333 -10.667 -59.5 -32 -72.5s-49.666 -19.5 -84.999 -19.5h-43v117zM659.001 572.999c64 0 125.168 11.667 183.501 35
s109.666 56.166 153.999 98.499s79 91.833 104 148.5s37.5 116.334 37.5 179.001s-12.5 122.334 -37.5 179.001s-60 106.167 -105 148.5s-96.333 75.166 -154 98.499s-118.5 35 -182.5 35c-62.667 0 -123.334 -11.667 -182.001 -35s-110.167 -56.166 -154.5 -98.499
s-79.166 -91.833 -104.499 -148.5s-38 -116.334 -38 -179.001s12.667 -122 38 -178s60.5 -105.5 105.5 -148.5s96.5 -76.167 154.5 -99.5s118.333 -35 181 -35zM252.002 1034c0 53.333 10.5 103.833 31.5 151.5s50.667 89.334 89 125.001s82 63.334 131 83.001
s100.833 29.5 155.5 29.5s106.667 -9.83301 156 -29.5s93 -47.334 131 -83.001s67.667 -77.334 89 -125.001s32 -98.167 32 -151.5s-10.667 -103.5 -32 -150.5s-51 -88.5 -89 -124.5s-81.667 -64 -131 -84s-101.333 -30 -156 -30s-106.5 10 -155.5 30s-92.667 48 -131 84
s-68 77.5 -89 124.5s-31.5 97.167 -31.5 150.5z" />
    <glyph glyph-name="acute" unicode="&#xb4;" horiz-adv-x="542" 
d="M344 1126l362 113l-43 172l-344 -233z" />
    <glyph glyph-name="paragraph" unicode="&#xb6;" horiz-adv-x="1138" 
d="M700 -356l75.0029 0.000976562v1775h125v-1775h76v1775h119v76h-236c-74.667 0 -148.167 -9.16699 -220.5 -27.5s-138.333 -47.333 -198 -87s-106.834 -91.334 -141.501 -155.001s-52 -137.5 -52 -221.5c0 -78 14.333 -145.667 43 -203s66.167 -104.5 112.5 -141.5
s95.166 -65 146.499 -84s101.666 -31.167 150.999 -36.5v-895z" />
    <glyph glyph-name="onequarter" unicode="&#xbc;" horiz-adv-x="1554" 
d="M405 537c1.33301 2.66699 2.00098 4.66699 2.00098 6l34.5 120.5c14.333 50.333 30.166 102.833 47.499 157.5l64 199c14.667 49.333 30.5 95.833 47.5 139.5s29.167 73.5 36.5 89.5l-158 -14l-238 -211l31 -98l98 127l74 92l4 -4l-96 -287l-31 -92l-46.5 -141.5
c-12.333 -35.667 -24.833 -68.5 -37.5 -98.5zM454.001 2c22 90 62.667 191.336 122 304.003s129.666 227.334 210.999 344.001s165.333 226.667 252 330s168.334 191.666 245.001 264.999l-41 35c-92.667 -92.667 -189.667 -195.334 -291 -308.001
s-200.333 -229.834 -297 -351.501s-183 -238.834 -259 -351.501s-133 -212.667 -171 -300zM1145 0.00292969c1.33301 6.66699 5.33301 23.001 12 49.001s14.5 53.667 23.5 83s15.5 51.166 19.5 65.499s6.66699 24.166 8 29.499h55c30 0 60 -2 90 -6l56 94
c-10 0 -24.333 -0.666992 -43 -2c-36 -2.66699 -64 -4 -84 -4h-45l39 125c17.333 58.667 36.666 115.667 57.999 171s36 92 44 110l-149 -15l-125 -391h-228l100 102c29.333 30.667 58.333 63.667 87 99s53.834 70.5 75.501 105.5s37.5 67.5 47.5 97.5l-130 -13
c-5.33301 -35.333 -17.5 -73.166 -36.5 -113.499s-42.5 -79.833 -70.5 -118.5s-58 -75.5 -90 -110.5s-63.667 -65.5 -95 -91.5l18 -49c48 6.66699 92.333 10 133 10h162l-24.5 -69l-24.5 -70l-37 -98z" />
    <glyph glyph-name="onehalf" unicode="&#xbd;" horiz-adv-x="1554" 
d="M425 537c1.33301 2.66699 2.00098 4.66699 2.00098 6l34.5 120.5c14.333 50.333 30.166 102.833 47.499 157.5l64 199c14.667 49.333 30.5 95.833 47.5 139.5s29.167 73.5 36.5 89.5l-158 -14l-238 -211l31 -98l98 127l74 92l4 -4l-96 -287l-31 -92l-46.5 -141.5
c-12.333 -35.667 -24.833 -68.5 -37.5 -98.5zM474.001 2c22 90 62.667 191.336 122 304.003s129.666 227.334 210.999 344.001s165.333 226.667 252 330s168.334 191.666 245.001 264.999l-41 35c-92.667 -92.667 -189.667 -195.334 -291 -308.001
s-200.333 -229.834 -297 -351.501s-183 -238.834 -259 -351.501s-133 -212.667 -171 -300zM751.001 0.00292969l533.999 -0.00195312l66 117l-23 -4c-40.667 -6 -80.167 -11 -118.5 -15s-84.166 -6 -137.499 -6h-182c2.66699 2.66699 6 5.33398 10 8.00098
c7.33301 6 11.666 10.333 12.999 13l106 73l148.5 101c39 27.333 76.667 56.666 113 87.999s65 62 86 92s31.5 58.667 31.5 86c0 45.333 -20.5 83.333 -61.5 114s-103.833 46 -188.5 46c-42 0 -76 -2.5 -102 -7.5s-54 -12.833 -84 -23.5l16 -61l8 4
c23.333 8 43.833 14.333 61.5 19s38.167 7 61.5 7c42.667 0 75.834 -8.16699 99.501 -24.5s35.5 -38.166 35.5 -65.499c0 -30 -19.333 -68.833 -58 -116.5s-84.667 -95.5 -138 -143.5s-103.5 -90.667 -150.5 -128s-87.167 -67.666 -120.5 -90.999z" />
    <glyph glyph-name="threequarters" unicode="&#xbe;" horiz-adv-x="1554" 
d="M257 1174l22.999 5.99805c44 12 78.667 18 104 18c34.667 0 62.167 -6.83301 82.5 -20.5s30.5 -34.834 30.5 -63.501c0 -39.333 -19.5 -73.333 -58.5 -102s-91.167 -43 -156.5 -43c-10.667 0 -26.334 2 -47.001 6c-10.667 2.66699 -16.667 4 -18 4l-44 -82h27
c68.667 0 126.5 -15 173.5 -45s70.5 -67.667 70.5 -113c0 -44.667 -18.167 -81.667 -54.5 -111s-86.5 -44 -150.5 -44c-40.667 0 -87 8 -139 24c-2.66699 1.33301 -4.66699 2 -6 2l-27 -55c31.333 -9.33301 62.333 -17.166 93 -23.499s66 -9.5 106 -9.5
c95.333 0 172.666 21.167 231.999 63.5s89 94.833 89 157.5c0 32 -7.5 59.833 -22.5 83.5s-33.667 43 -56 58s-45.166 26.667 -68.499 35s-45.333 14.5 -66 18.5v4c24.667 2.66699 51.334 7.83398 80.001 15.501s56.334 18 83.001 31s48.834 30.333 66.501 52
s26.5 46.834 26.5 75.501c0 41.333 -20.833 73.833 -62.5 97.5s-89.834 35.5 -144.501 35.5c-60 0 -120 -8.66699 -180 -26zM517.999 1.99805c21.333 90 61.833 191.336 121.5 304.003s130 227.334 211 344.001s164.833 226.667 251.5 330s168.334 191.666 245.001 264.999
l-41 35c-92.667 -92.667 -189.5 -195.334 -290.5 -308.001s-200 -229.834 -297 -351.501s-183.333 -238.834 -259 -351.501s-132.834 -212.667 -171.501 -300zM1208 0.000976562c1.33301 6.66699 5.33203 23.001 11.999 49.001s14.5 53.667 23.5 83s15.5 51.166 19.5 65.499
s6.66699 24.166 8 29.499h56c30 0 60 -2 90 -6l55 94c-9.33301 0 -23.666 -0.666992 -42.999 -2c-35.333 -2.66699 -63.333 -4 -84 -4h-45l39 125c17.333 58.667 36.666 115.667 57.999 171s36 92 44 110l-149 -15l-125 -391h-228l100 102
c29.333 30.667 58.333 63.667 87 99s53.834 70.5 75.501 105.5s37.5 67.5 47.5 97.5l-129 -13c-6 -35.333 -18.5 -73.166 -37.5 -113.499s-42.5 -79.833 -70.5 -118.5s-58 -75.5 -90 -110.5s-63.667 -65.5 -95 -91.5l18 -49c48 6.66699 92.333 10 133 10h162l-24.5 -69
l-24.5 -70l-37 -98z" />
    <glyph glyph-name="Agrave" unicode="&#xc0;" horiz-adv-x="1736" 
d="M1694 1526l-145 221l-144 -135l244 -123zM1653 1397l-338.001 -32.998l-80 -89l-58.5 -69.5l-50 -62.5l-51.5 -68c-22.667 -30 -44.667 -60.667 -66 -92l-65 -98l-43.5 -69c-13 -20 -25.333 -40.167 -37 -60.5l-37 -64.5c-13 -22.667 -27.5 -49.667 -43.5 -81h-41
l-109 -2c-98 -2.66699 -189 -10.167 -273 -22.5s-157.333 -30.833 -220 -55.5c-34.667 -13.333 -66.334 -31.333 -95.001 -54s-53.5 -47.334 -74.5 -74.001s-37.333 -55.334 -49 -86.001s-17.5 -61 -17.5 -91c0 -38 7.5 -72.667 22.5 -104s36.5 -58.333 64.5 -81
s60.833 -40.5 98.5 -53.5s78.834 -19.5 123.501 -19.5c58.667 0 114.334 11 167.001 33s104.334 56.5 155.001 103.5s100.167 106.667 148.5 179s97.833 159.833 148.5 262.5h291c-3.33301 -31.333 -5.33301 -58 -6 -80s-1.66699 -42.5 -3 -61.5s-2 -38.167 -2 -57.5v-65
c0 -36 0.333008 -66.833 1 -92.5s2.83398 -49.834 6.50098 -72.501s8.16699 -45.667 13.5 -69s12.666 -50 21.999 -80h328l29 88c-37.333 0 -67.5 5.16699 -90.5 15.5s-41.333 29.166 -55 56.499s-23 64.5 -28 111.5s-7.5 108.167 -7.5 183.5
c0 70.667 3.16699 139.834 9.5 207.501s16.333 136.667 30 207s30.667 142.666 51 216.999s44.166 153.166 71.499 236.499l15 43l79 8c-9.33301 -25.333 -17 -47.666 -23 -66.999s-12.167 -38.166 -18.5 -56.499s-12.5 -37.833 -18.5 -58.5l-21 -72
c-16.667 -57.333 -30.834 -110.833 -42.501 -160.5s-21.167 -97.334 -28.5 -143.001s-12.833 -91 -16.5 -136s-5.5 -90.833 -5.5 -137.5c0 -86 5.16699 -156.667 15.5 -212s27.833 -107 52.5 -155l98 90c-72 68.667 -108 188.334 -108 359.001c0 40.667 3 86 9 136
s14.667 103.667 26 161c6.66699 36.667 14.334 72.834 23.001 108.501s18.167 72.167 28.5 109.5s22.333 76.833 36 118.5s29.5 87.167 47.5 136.5zM1282 1247l-24.499 -73.501l-19.5 -58.5l-17 -53.5c-5.33301 -17 -11 -36.167 -17 -57.5
c-10.667 -37.333 -19.334 -71 -26.001 -101l-19.5 -90c-6.33301 -30 -11.833 -61.333 -16.5 -94l-15 -109h-260c12 24.667 23.167 46.167 33.5 64.5l28.5 52.5c8.66699 16.667 18.167 33.834 28.5 51.501s23.166 38.167 38.499 61.5l51.5 85
c15.667 25.333 31.834 49.833 48.501 73.5l53.5 73.5l65.5 87zM746 545.001l-34.998 -62.002l-81 -140c-22.667 -38.667 -42.834 -71.667 -60.501 -99s-34.334 -51 -50.001 -71s-32.5 -38 -50.5 -54c-23.333 -23.333 -52.333 -41.5 -87 -54.5s-69.667 -19.5 -105 -19.5
c-31.333 0 -60.666 5.16699 -87.999 15.5s-51 24.333 -71 42s-35.667 38.834 -47 63.501s-17 51.334 -17 80.001c0 52 17.667 98.833 53 140.5s83.666 73.167 144.999 94.5c60 22 128.333 37.5 205 46.5s173 14.833 289 17.5z" />
    <glyph glyph-name="Aacute" unicode="&#xc1;" horiz-adv-x="1736" 
d="M1733 1577l-76 168l-309 -207l31 -47zM1653 1397l-338.001 -32.998l-80 -89l-58.5 -69.5l-50 -62.5l-51.5 -68c-22.667 -30 -44.667 -60.667 -66 -92l-65 -98l-43.5 -69c-13 -20 -25.333 -40.167 -37 -60.5l-37 -64.5c-13 -22.667 -27.5 -49.667 -43.5 -81h-41l-109 -2
c-98 -2.66699 -189 -10.167 -273 -22.5s-157.333 -30.833 -220 -55.5c-34.667 -13.333 -66.334 -31.333 -95.001 -54s-53.5 -47.334 -74.5 -74.001s-37.333 -55.334 -49 -86.001s-17.5 -61 -17.5 -91c0 -38 7.5 -72.667 22.5 -104s36.5 -58.333 64.5 -81
s60.833 -40.5 98.5 -53.5s78.834 -19.5 123.501 -19.5c58.667 0 114.334 11 167.001 33s104.334 56.5 155.001 103.5s100.167 106.667 148.5 179s97.833 159.833 148.5 262.5h291c-3.33301 -31.333 -5.33301 -58 -6 -80s-1.66699 -42.5 -3 -61.5s-2 -38.167 -2 -57.5v-65
c0 -36 0.333008 -66.833 1 -92.5s2.83398 -49.834 6.50098 -72.501s8.16699 -45.667 13.5 -69s12.666 -50 21.999 -80h328l29 88c-37.333 0 -67.5 5.16699 -90.5 15.5s-41.333 29.166 -55 56.499s-23 64.5 -28 111.5s-7.5 108.167 -7.5 183.5
c0 70.667 3.16699 139.834 9.5 207.501s16.333 136.667 30 207s30.667 142.666 51 216.999s44.166 153.166 71.499 236.499l15 43l79 8c-9.33301 -25.333 -17 -47.666 -23 -66.999s-12.167 -38.166 -18.5 -56.499s-12.5 -37.833 -18.5 -58.5l-21 -72
c-16.667 -57.333 -30.834 -110.833 -42.501 -160.5s-21.167 -97.334 -28.5 -143.001s-12.833 -91 -16.5 -136s-5.5 -90.833 -5.5 -137.5c0 -86 5.16699 -156.667 15.5 -212s27.833 -107 52.5 -155l98 90c-72 68.667 -108 188.334 -108 359.001c0 40.667 3 86 9 136
s14.667 103.667 26 161c6.66699 36.667 14.334 72.834 23.001 108.501s18.167 72.167 28.5 109.5s22.333 76.833 36 118.5s29.5 87.167 47.5 136.5zM1282 1247l-24.499 -73.501l-19.5 -58.5l-17 -53.5c-5.33301 -17 -11 -36.167 -17 -57.5
c-10.667 -37.333 -19.334 -71 -26.001 -101l-19.5 -90c-6.33301 -30 -11.833 -61.333 -16.5 -94l-15 -109h-260c12 24.667 23.167 46.167 33.5 64.5l28.5 52.5c8.66699 16.667 18.167 33.834 28.5 51.501s23.166 38.167 38.499 61.5l51.5 85
c15.667 25.333 31.834 49.833 48.501 73.5l53.5 73.5l65.5 87zM746 545.001l-34.998 -62.002l-81 -140c-22.667 -38.667 -42.834 -71.667 -60.501 -99s-34.334 -51 -50.001 -71s-32.5 -38 -50.5 -54c-23.333 -23.333 -52.333 -41.5 -87 -54.5s-69.667 -19.5 -105 -19.5
c-31.333 0 -60.666 5.16699 -87.999 15.5s-51 24.333 -71 42s-35.667 38.834 -47 63.501s-17 51.334 -17 80.001c0 52 17.667 98.833 53 140.5s83.666 73.167 144.999 94.5c60 22 128.333 37.5 205 46.5s173 14.833 289 17.5z" />
    <glyph glyph-name="Acircumflex" unicode="&#xc2;" horiz-adv-x="1736" 
d="M1743 1528l-129 217l-321 -205l30 -49l232 76l141 -76zM1653 1397l-338.001 -32.998l-80 -89l-58.5 -69.5l-50 -62.5l-51.5 -68c-22.667 -30 -44.667 -60.667 -66 -92l-65 -98l-43.5 -69c-13 -20 -25.333 -40.167 -37 -60.5l-37 -64.5
c-13 -22.667 -27.5 -49.667 -43.5 -81h-41l-109 -2c-98 -2.66699 -189 -10.167 -273 -22.5s-157.333 -30.833 -220 -55.5c-34.667 -13.333 -66.334 -31.333 -95.001 -54s-53.5 -47.334 -74.5 -74.001s-37.333 -55.334 -49 -86.001s-17.5 -61 -17.5 -91
c0 -38 7.5 -72.667 22.5 -104s36.5 -58.333 64.5 -81s60.833 -40.5 98.5 -53.5s78.834 -19.5 123.501 -19.5c58.667 0 114.334 11 167.001 33s104.334 56.5 155.001 103.5s100.167 106.667 148.5 179s97.833 159.833 148.5 262.5h291c-3.33301 -31.333 -5.33301 -58 -6 -80
s-1.66699 -42.5 -3 -61.5s-2 -38.167 -2 -57.5v-65c0 -36 0.333008 -66.833 1 -92.5s2.83398 -49.834 6.50098 -72.501s8.16699 -45.667 13.5 -69s12.666 -50 21.999 -80h328l29 88c-37.333 0 -67.5 5.16699 -90.5 15.5s-41.333 29.166 -55 56.499s-23 64.5 -28 111.5
s-7.5 108.167 -7.5 183.5c0 70.667 3.16699 139.834 9.5 207.501s16.333 136.667 30 207s30.667 142.666 51 216.999s44.166 153.166 71.499 236.499l15 43l79 8c-9.33301 -25.333 -17 -47.666 -23 -66.999s-12.167 -38.166 -18.5 -56.499s-12.5 -37.833 -18.5 -58.5
l-21 -72c-16.667 -57.333 -30.834 -110.833 -42.501 -160.5s-21.167 -97.334 -28.5 -143.001s-12.833 -91 -16.5 -136s-5.5 -90.833 -5.5 -137.5c0 -86 5.16699 -156.667 15.5 -212s27.833 -107 52.5 -155l98 90c-72 68.667 -108 188.334 -108 359.001c0 40.667 3 86 9 136
s14.667 103.667 26 161c6.66699 36.667 14.334 72.834 23.001 108.501s18.167 72.167 28.5 109.5s22.333 76.833 36 118.5s29.5 87.167 47.5 136.5zM1282 1247l-24.499 -73.501l-19.5 -58.5l-17 -53.5c-5.33301 -17 -11 -36.167 -17 -57.5
c-10.667 -37.333 -19.334 -71 -26.001 -101l-19.5 -90c-6.33301 -30 -11.833 -61.333 -16.5 -94l-15 -109h-260c12 24.667 23.167 46.167 33.5 64.5l28.5 52.5c8.66699 16.667 18.167 33.834 28.5 51.501s23.166 38.167 38.499 61.5l51.5 85
c15.667 25.333 31.834 49.833 48.501 73.5l53.5 73.5l65.5 87zM746 545.001l-34.998 -62.002l-81 -140c-22.667 -38.667 -42.834 -71.667 -60.501 -99s-34.334 -51 -50.001 -71s-32.5 -38 -50.5 -54c-23.333 -23.333 -52.333 -41.5 -87 -54.5s-69.667 -19.5 -105 -19.5
c-31.333 0 -60.666 5.16699 -87.999 15.5s-51 24.333 -71 42s-35.667 38.834 -47 63.501s-17 51.334 -17 80.001c0 52 17.667 98.833 53 140.5s83.666 73.167 144.999 94.5c60 22 128.333 37.5 205 46.5s173 14.833 289 17.5z" />
    <glyph glyph-name="Atilde" unicode="&#xc3;" horiz-adv-x="1736" 
d="M1782 1651l-46.999 32.002c-19.333 -22.667 -36.5 -38.834 -51.5 -48.501s-31.167 -14.5 -48.5 -14.5c-8.66699 0 -18.334 1.33301 -29.001 4s-26.334 7.33398 -47.001 14.001c-31.333 11.333 -54.833 18.666 -70.5 21.999s-29.167 5 -40.5 5
c-58.667 0 -112 -49 -160 -147l52 -31c18.667 26 34.834 43.667 48.501 53s32.167 14 55.5 14c10.667 0 21.5 -1 32.5 -3s28.167 -6.33301 51.5 -13s42.5 -11.334 57.5 -14.001s27.833 -4 38.5 -4c30 0 56.333 9.5 79 28.5s49 53.167 79 102.5zM1653 1397l-338.001 -32.998
l-80 -89l-58.5 -69.5l-50 -62.5l-51.5 -68c-22.667 -30 -44.667 -60.667 -66 -92l-65 -98l-43.5 -69c-13 -20 -25.333 -40.167 -37 -60.5l-37 -64.5c-13 -22.667 -27.5 -49.667 -43.5 -81h-41l-109 -2c-98 -2.66699 -189 -10.167 -273 -22.5s-157.333 -30.833 -220 -55.5
c-34.667 -13.333 -66.334 -31.333 -95.001 -54s-53.5 -47.334 -74.5 -74.001s-37.333 -55.334 -49 -86.001s-17.5 -61 -17.5 -91c0 -38 7.5 -72.667 22.5 -104s36.5 -58.333 64.5 -81s60.833 -40.5 98.5 -53.5s78.834 -19.5 123.501 -19.5c58.667 0 114.334 11 167.001 33
s104.334 56.5 155.001 103.5s100.167 106.667 148.5 179s97.833 159.833 148.5 262.5h291c-3.33301 -31.333 -5.33301 -58 -6 -80s-1.66699 -42.5 -3 -61.5s-2 -38.167 -2 -57.5v-65c0 -36 0.333008 -66.833 1 -92.5s2.83398 -49.834 6.50098 -72.501
s8.16699 -45.667 13.5 -69s12.666 -50 21.999 -80h328l29 88c-37.333 0 -67.5 5.16699 -90.5 15.5s-41.333 29.166 -55 56.499s-23 64.5 -28 111.5s-7.5 108.167 -7.5 183.5c0 70.667 3.16699 139.834 9.5 207.501s16.333 136.667 30 207s30.667 142.666 51 216.999
s44.166 153.166 71.499 236.499l15 43l79 8c-9.33301 -25.333 -17 -47.666 -23 -66.999s-12.167 -38.166 -18.5 -56.499s-12.5 -37.833 -18.5 -58.5l-21 -72c-16.667 -57.333 -30.834 -110.833 -42.501 -160.5s-21.167 -97.334 -28.5 -143.001s-12.833 -91 -16.5 -136
s-5.5 -90.833 -5.5 -137.5c0 -86 5.16699 -156.667 15.5 -212s27.833 -107 52.5 -155l98 90c-72 68.667 -108 188.334 -108 359.001c0 40.667 3 86 9 136s14.667 103.667 26 161c6.66699 36.667 14.334 72.834 23.001 108.501s18.167 72.167 28.5 109.5
s22.333 76.833 36 118.5s29.5 87.167 47.5 136.5zM1282 1247l-24.499 -73.501l-19.5 -58.5l-17 -53.5c-5.33301 -17 -11 -36.167 -17 -57.5c-10.667 -37.333 -19.334 -71 -26.001 -101l-19.5 -90c-6.33301 -30 -11.833 -61.333 -16.5 -94l-15 -109h-260
c12 24.667 23.167 46.167 33.5 64.5l28.5 52.5c8.66699 16.667 18.167 33.834 28.5 51.501s23.166 38.167 38.499 61.5l51.5 85c15.667 25.333 31.834 49.833 48.501 73.5l53.5 73.5l65.5 87zM746.001 545.003l-34.998 -62.002l-81 -140
c-22.667 -38.667 -42.834 -71.667 -60.501 -99s-34.334 -51 -50.001 -71s-32.5 -38 -50.5 -54c-23.333 -23.333 -52.333 -41.5 -87 -54.5s-69.667 -19.5 -105 -19.5c-31.333 0 -60.666 5.16699 -87.999 15.5s-51 24.333 -71 42s-35.667 38.834 -47 63.501
s-17 51.334 -17 80.001c0 52 17.667 98.833 53 140.5s83.666 73.167 144.999 94.5c60 22 128.333 37.5 205 46.5s173 14.833 289 17.5z" />
    <glyph glyph-name="Egrave" unicode="&#xc8;" horiz-adv-x="1630" 
d="M1271 1526l-145 221l-144 -135l244 -123zM1873 1393c-32.667 -10 -63 -18.0039 -91 -24.0039s-56.333 -11 -85 -15s-58.334 -6.83301 -89.001 -8.5s-65 -2.5 -103 -2.5h-56c-16 0 -32.667 0.833008 -50 2.5s-35.833 2.83398 -55.5 3.50098s-43.167 2.33398 -70.5 5.00098
c-36.667 2.66699 -69 4.66699 -97 6s-53.667 2.66602 -77 3.99902s-45 2 -65 2h-62c-155.333 0 -289.333 -15 -402 -45s-208.667 -77.667 -288 -143c-56 -44 -97 -92 -123 -144s-40.333 -111.333 -43 -178l244 23c-8.66699 24 -14.334 44.333 -17.001 61
s-4 34.334 -4 53.001c0 94.667 39.667 169.167 119 223.5s188.666 81.5 327.999 81.5c53.333 0 104.833 -2.33301 154.5 -7s101.167 -11 154.5 -19l41 -6l-20.5 -43.5c-5.66699 -12.333 -11.167 -25 -16.5 -38l-18.5 -43c-7 -15.667 -15.167 -35.834 -24.5 -60.501l-61 -155
c-26 -67.333 -50 -136.5 -72 -207.5s-40.833 -140.5 -56.5 -208.5s-28 -132.167 -37 -192.5s-13.5 -112.833 -13.5 -157.5c0 -16.667 0.333008 -31.834 1 -45.501s2.66699 -32.167 6 -55.5c138.667 -46 284 -69 436 -69c18.667 0 34.167 0.333008 46.5 1
s28.833 2.33398 49.5 5.00098l25 24l41.5 49.5l28 33c8.33301 9.66699 15.833 19.5 22.5 29.5l26 38c-47.333 -10.667 -96 -19.5 -146 -26.5s-94.667 -10.5 -134 -10.5c-53.333 0 -107 5.5 -161 16.5s-104 26.833 -150 47.5c-2 12 -3 22.667 -3 32v25
c0 31.333 2.16699 66.833 6.5 106.5s9.83301 80.334 16.5 122.001s14.5 82.667 23.5 123s18.833 77.5 29.5 111.5l37 -2c28.667 -1.33301 53.334 -3 74.001 -5s40.5 -4.83301 59.5 -8.5s39 -8.5 60 -14.5s45.833 -14.333 74.5 -25l101 114h-387l16 47l14 54
c6 18.667 17.167 49.834 33.5 93.501l52.5 135.5c7.33301 16 13.333 30.167 18 42.5s9.33398 24 14.001 35s9.83398 22.333 15.501 34s12.5 24.834 20.5 39.501l47 -8l117 -14l153 -25l136 -16l55 -6zM1027 1237c-17.333 2.66699 -31.499 4.33496 -42.499 5.00195
s-28.167 1 -51.5 1c-28.667 0 -49.167 -0.333008 -61.5 -1s-25.833 -2.33398 -40.5 -5.00098l-17 -35c-39.333 -86 -75 -174.333 -107 -265l-93 -273l-71 -223.5c-24 -79 -45.667 -154.833 -65 -227.5c-8 -30 -14.333 -54.833 -19 -74.5s-8.66699 -38.167 -12 -55.5
l-9.5 -50.5c-3 -16.333 -5.16699 -35.5 -6.5 -57.5l420 27l-33 21c-35.333 21.333 -59.833 36.833 -73.5 46.5s-27.834 21.834 -42.501 36.501l6 44c6.66699 43.333 13.834 83.166 21.501 119.499s15.5 70.166 23.5 101.499l22.5 88.5l36.5 136.5
c15.333 57.333 29.166 105.833 41.499 145.5s22.5 71.167 30.5 94.5l49 141l39 113l43 112z" />
    <glyph glyph-name="Eacute" unicode="&#xc9;" horiz-adv-x="1630" 
d="M1378 1577l-74 168l-309 -207l28 -47zM1873 1393c-32.667 -10 -63 -18.0039 -91 -24.0039s-56.333 -11 -85 -15s-58.334 -6.83301 -89.001 -8.5s-65 -2.5 -103 -2.5h-56c-16 0 -32.667 0.833008 -50 2.5s-35.833 2.83398 -55.5 3.50098s-43.167 2.33398 -70.5 5.00098
c-36.667 2.66699 -69 4.66699 -97 6s-53.667 2.66602 -77 3.99902s-45 2 -65 2h-62c-155.333 0 -289.333 -15 -402 -45s-208.667 -77.667 -288 -143c-56 -44 -97 -92 -123 -144s-40.333 -111.333 -43 -178l244 23c-8.66699 24 -14.334 44.333 -17.001 61
s-4 34.334 -4 53.001c0 94.667 39.667 169.167 119 223.5s188.666 81.5 327.999 81.5c53.333 0 104.833 -2.33301 154.5 -7s101.167 -11 154.5 -19l41 -6l-20.5 -43.5c-5.66699 -12.333 -11.167 -25 -16.5 -38l-18.5 -43c-7 -15.667 -15.167 -35.834 -24.5 -60.501l-61 -155
c-26 -67.333 -50 -136.5 -72 -207.5s-40.833 -140.5 -56.5 -208.5s-28 -132.167 -37 -192.5s-13.5 -112.833 -13.5 -157.5c0 -16.667 0.333008 -31.834 1 -45.501s2.66699 -32.167 6 -55.5c138.667 -46 284 -69 436 -69c18.667 0 34.167 0.333008 46.5 1
s28.833 2.33398 49.5 5.00098l25 24l41.5 49.5l28 33c8.33301 9.66699 15.833 19.5 22.5 29.5l26 38c-47.333 -10.667 -96 -19.5 -146 -26.5s-94.667 -10.5 -134 -10.5c-53.333 0 -107 5.5 -161 16.5s-104 26.833 -150 47.5c-2 12 -3 22.667 -3 32v25
c0 31.333 2.16699 66.833 6.5 106.5s9.83301 80.334 16.5 122.001s14.5 82.667 23.5 123s18.833 77.5 29.5 111.5l37 -2c28.667 -1.33301 53.334 -3 74.001 -5s40.5 -4.83301 59.5 -8.5s39 -8.5 60 -14.5s45.833 -14.333 74.5 -25l101 114h-387l16 47l14 54
c6 18.667 17.167 49.834 33.5 93.501l52.5 135.5c7.33301 16 13.333 30.167 18 42.5s9.33398 24 14.001 35s9.83398 22.333 15.501 34s12.5 24.834 20.5 39.501l47 -8l117 -14l153 -25l136 -16l55 -6zM1027 1237c-17.333 2.66699 -31.499 4.33496 -42.499 5.00195
s-28.167 1 -51.5 1c-28.667 0 -49.167 -0.333008 -61.5 -1s-25.833 -2.33398 -40.5 -5.00098l-17 -35c-39.333 -86 -75 -174.333 -107 -265l-93 -273l-71 -223.5c-24 -79 -45.667 -154.833 -65 -227.5c-8 -30 -14.333 -54.833 -19 -74.5s-8.66699 -38.167 -12 -55.5
l-9.5 -50.5c-3 -16.333 -5.16699 -35.5 -6.5 -57.5l420 27l-33 21c-35.333 21.333 -59.833 36.833 -73.5 46.5s-27.834 21.834 -42.501 36.501l6 44c6.66699 43.333 13.834 83.166 21.501 119.499s15.5 70.166 23.5 101.499l22.5 88.5l36.5 136.5
c15.333 57.333 29.166 105.833 41.499 145.5s22.5 71.167 30.5 94.5l49 141l39 113l43 112z" />
    <glyph glyph-name="Ecircumflex" unicode="&#xca;" horiz-adv-x="1630" 
d="M1525 1528l-129 217l-319 -205l29 -49l233 76l141 -76zM1873 1393c-32.667 -10 -63 -18.0039 -91 -24.0039s-56.333 -11 -85 -15s-58.334 -6.83301 -89.001 -8.5s-65 -2.5 -103 -2.5h-56c-16 0 -32.667 0.833008 -50 2.5s-35.833 2.83398 -55.5 3.50098
s-43.167 2.33398 -70.5 5.00098c-36.667 2.66699 -69 4.66699 -97 6s-53.667 2.66602 -77 3.99902s-45 2 -65 2h-62c-155.333 0 -289.333 -15 -402 -45s-208.667 -77.667 -288 -143c-56 -44 -97 -92 -123 -144s-40.333 -111.333 -43 -178l244 23
c-8.66699 24 -14.334 44.333 -17.001 61s-4 34.334 -4 53.001c0 94.667 39.667 169.167 119 223.5s188.666 81.5 327.999 81.5c53.333 0 104.833 -2.33301 154.5 -7s101.167 -11 154.5 -19l41 -6l-20.5 -43.5c-5.66699 -12.333 -11.167 -25 -16.5 -38l-18.5 -43
c-7 -15.667 -15.167 -35.834 -24.5 -60.501l-61 -155c-26 -67.333 -50 -136.5 -72 -207.5s-40.833 -140.5 -56.5 -208.5s-28 -132.167 -37 -192.5s-13.5 -112.833 -13.5 -157.5c0 -16.667 0.333008 -31.834 1 -45.501s2.66699 -32.167 6 -55.5c138.667 -46 284 -69 436 -69
c18.667 0 34.167 0.333008 46.5 1s28.833 2.33398 49.5 5.00098l25 24l41.5 49.5l28 33c8.33301 9.66699 15.833 19.5 22.5 29.5l26 38c-47.333 -10.667 -96 -19.5 -146 -26.5s-94.667 -10.5 -134 -10.5c-53.333 0 -107 5.5 -161 16.5s-104 26.833 -150 47.5
c-2 12 -3 22.667 -3 32v25c0 31.333 2.16699 66.833 6.5 106.5s9.83301 80.334 16.5 122.001s14.5 82.667 23.5 123s18.833 77.5 29.5 111.5l37 -2c28.667 -1.33301 53.334 -3 74.001 -5s40.5 -4.83301 59.5 -8.5s39 -8.5 60 -14.5s45.833 -14.333 74.5 -25l101 114h-387
l16 47l14 54c6 18.667 17.167 49.834 33.5 93.501l52.5 135.5c7.33301 16 13.333 30.167 18 42.5s9.33398 24 14.001 35s9.83398 22.333 15.501 34s12.5 24.834 20.5 39.501l47 -8l117 -14l153 -25l136 -16l55 -6zM1027 1237
c-17.333 2.66699 -31.499 4.33496 -42.499 5.00195s-28.167 1 -51.5 1c-28.667 0 -49.167 -0.333008 -61.5 -1s-25.833 -2.33398 -40.5 -5.00098l-17 -35c-39.333 -86 -75 -174.333 -107 -265l-93 -273l-71 -223.5c-24 -79 -45.667 -154.833 -65 -227.5
c-8 -30 -14.333 -54.833 -19 -74.5s-8.66699 -38.167 -12 -55.5l-9.5 -50.5c-3 -16.333 -5.16699 -35.5 -6.5 -57.5l420 27l-33 21c-35.333 21.333 -59.833 36.833 -73.5 46.5s-27.834 21.834 -42.501 36.501l6 44c6.66699 43.333 13.834 83.166 21.501 119.499
s15.5 70.166 23.5 101.499l22.5 88.5l36.5 136.5c15.333 57.333 29.166 105.833 41.499 145.5s22.5 71.167 30.5 94.5l49 141l39 113l43 112z" />
    <glyph glyph-name="Igrave" unicode="&#xcc;" horiz-adv-x="1161" 
d="M1240 1526l-145 221l-141 -135l243 -123zM1220 1366l-128.996 -0.00488281c-53.333 0 -121 -2 -203 -6c-42 -2.66699 -79.167 -5.33398 -111.5 -8.00098s-61.333 -5.5 -87 -8.5s-49.834 -6.83301 -72.501 -11.5s-45.667 -9.66699 -69 -15
c-49.333 -12.667 -96.5 -30.834 -141.5 -54.501s-85.5 -51.167 -121.5 -82.5s-67 -66.166 -93 -104.499s-46 -78.166 -60 -119.499c-4 -13.333 -7 -27.166 -9 -41.499s-4.33301 -33.833 -7 -58.5l242 25c-11.333 26 -18.333 46.167 -21 60.5s-4 32.166 -4 53.499
c0 42.667 11 82.667 33 120s52.333 69.333 91 96s84.667 47.834 138 63.501s110.666 23.5 171.999 23.5c18 0 32.167 -0.666992 42.5 -2s24.833 -3.33301 43.5 -6l-18 -45l-44.5 -109.5l-39.5 -99.5l-75 -204.5c-26.667 -75 -56.334 -163.167 -89.001 -264.5l-36.5 -115.5
l-31 -97.5c-9.66699 -30 -18.167 -59 -25.5 -87s-15.333 -56.333 -24 -85c-6.66699 -24.667 -11.667 -45.834 -15 -63.501l-9 -49c-2.66699 -15 -5.16699 -30 -7.5 -45s-4.16602 -32.833 -5.49902 -53.5l265 29c0 31.333 1.66699 64.5 5 99.5s9 74.333 17 118
s18.5 92 31.5 145s29.167 113.833 48.5 182.5l30.5 111.5c9.66699 33.667 19.667 66.834 30 99.501l33 103l41.5 124c12.667 32.667 23.334 61.667 32.001 87s17.167 49 25.5 71l25.5 65.5l30 71.5l18 43h82l-24.5 -56.5c-7 -15.667 -13.167 -30.667 -18.5 -45
s-11 -28.666 -17 -42.999s-12.667 -31.166 -20 -50.499l-62 -164.5c-20 -55 -36 -102.5 -48 -142.5l-26 -86c-10 -32.667 -20.5 -70.167 -31.5 -112.5l-30 -113.5c-9 -33.333 -16.167 -62.333 -21.5 -87c-10.667 -48 -19.167 -95.167 -25.5 -141.5s-9.5 -85.833 -9.5 -118.5
c0 -19.333 0.333008 -36.166 1 -50.499s2.16699 -28 4.5 -41s5.16602 -26.333 8.49902 -40s7.66602 -29.167 12.999 -46.5l96 18c-18.667 36.667 -32.167 73.5 -40.5 110.5s-12.5 81.5 -12.5 133.5c0 34 2 68.333 6 103s11 76 21 124c12 58.667 25.167 116.334 39.5 173.001
s31.166 113.667 50.499 171l26.5 76l29.5 84l30.5 84l27.5 74l24 55.5l22.5 51.5l25.5 55.5z" />
    <glyph glyph-name="Iacute" unicode="&#xcd;" horiz-adv-x="1161" 
d="M1281 1577l-75 168l-310 -207l31 -47zM1220 1366l-128.996 -0.00488281c-53.333 0 -121 -2 -203 -6c-42 -2.66699 -79.167 -5.33398 -111.5 -8.00098s-61.333 -5.5 -87 -8.5s-49.834 -6.83301 -72.501 -11.5s-45.667 -9.66699 -69 -15
c-49.333 -12.667 -96.5 -30.834 -141.5 -54.501s-85.5 -51.167 -121.5 -82.5s-67 -66.166 -93 -104.499s-46 -78.166 -60 -119.499c-4 -13.333 -7 -27.166 -9 -41.499s-4.33301 -33.833 -7 -58.5l242 25c-11.333 26 -18.333 46.167 -21 60.5s-4 32.166 -4 53.499
c0 42.667 11 82.667 33 120s52.333 69.333 91 96s84.667 47.834 138 63.501s110.666 23.5 171.999 23.5c18 0 32.167 -0.666992 42.5 -2s24.833 -3.33301 43.5 -6l-18 -45l-44.5 -109.5l-39.5 -99.5l-75 -204.5c-26.667 -75 -56.334 -163.167 -89.001 -264.5l-36.5 -115.5
l-31 -97.5c-9.66699 -30 -18.167 -59 -25.5 -87s-15.333 -56.333 -24 -85c-6.66699 -24.667 -11.667 -45.834 -15 -63.501l-9 -49c-2.66699 -15 -5.16699 -30 -7.5 -45s-4.16602 -32.833 -5.49902 -53.5l265 29c0 31.333 1.66699 64.5 5 99.5s9 74.333 17 118
s18.5 92 31.5 145s29.167 113.833 48.5 182.5l30.5 111.5c9.66699 33.667 19.667 66.834 30 99.501l33 103l41.5 124c12.667 32.667 23.334 61.667 32.001 87s17.167 49 25.5 71l25.5 65.5l30 71.5l18 43h82l-24.5 -56.5c-7 -15.667 -13.167 -30.667 -18.5 -45
s-11 -28.666 -17 -42.999s-12.667 -31.166 -20 -50.499l-62 -164.5c-20 -55 -36 -102.5 -48 -142.5l-26 -86c-10 -32.667 -20.5 -70.167 -31.5 -112.5l-30 -113.5c-9 -33.333 -16.167 -62.333 -21.5 -87c-10.667 -48 -19.167 -95.167 -25.5 -141.5s-9.5 -85.833 -9.5 -118.5
c0 -19.333 0.333008 -36.166 1 -50.499s2.16699 -28 4.5 -41s5.16602 -26.333 8.49902 -40s7.66602 -29.167 12.999 -46.5l96 18c-18.667 36.667 -32.167 73.5 -40.5 110.5s-12.5 81.5 -12.5 133.5c0 34 2 68.333 6 103s11 76 21 124c12 58.667 25.167 116.334 39.5 173.001
s31.166 113.667 50.499 171l26.5 76l29.5 84l30.5 84l27.5 74l24 55.5l22.5 51.5l25.5 55.5z" />
    <glyph glyph-name="Eth" unicode="&#xd0;" horiz-adv-x="2056" 
d="M861 480c-17.333 -81.333 -25.9951 -147.665 -25.9951 -198.998c0 -101.333 26.833 -179 80.5 -233s130.5 -81 230.5 -81c70.667 0 140.5 11.333 209.5 34s134.667 53.834 197 93.501s120 86.667 173 141s98.667 113.333 137 177s68.5 131.334 90.5 203.001
s33 143.5 33 215.5c0 132.667 -41 244.667 -123 336c-64.667 72.667 -151.5 125.667 -260.5 159s-250.167 50 -423.5 50c-122 0 -245 -6 -369 -18c-116 -11.333 -214 -29.166 -294 -53.499s-149.333 -58.5 -208 -102.5c-62.667 -48 -110.334 -101.333 -143.001 -160
s-49 -121.334 -49 -188.001l239 23c-8 24 -13.333 43.5 -16 58.5s-4 32.833 -4 53.5c0 110.667 50.167 192 150.5 244s255.5 78 465.5 78c519.333 0 779 -168.667 779 -506c0 -48 -5.5 -98.667 -16.5 -152s-26.833 -106.5 -47.5 -159.5s-44.667 -104.167 -72 -153.5
s-57.333 -93 -90 -131c-46 -54.667 -102.5 -97.667 -169.5 -129s-137.5 -47 -211.5 -47c-154 0 -231 79.667 -231 239c0 56 8 124.333 24 205c9.33301 48.667 21 100 35 154h210l21 72h-211c3.33301 12 7 24 11 36c20.667 66 40.834 122.5 60.501 169.5
s41.834 92.167 66.501 135.5c18 33.333 34.5 59.166 49.5 77.499s36.167 41.166 63.5 68.499l-117 -27c-5.33301 -8 -9.83301 -15 -13.5 -21s-6.83398 -12 -9.50098 -18c-50 -90 -99.667 -212.667 -149 -368l-16 -53h-75l8 27c10 36 19.833 68.333 29.5 97l29 85l34.5 100
c9.33301 30 17.833 55.167 25.5 75.5l21.5 56l20.5 50.5l24.5 59h-106c-12.667 0 -27.667 -0.666992 -45 -2l-47 -2c-41.333 -90 -80 -182 -116 -276c-30.667 -80.667 -62.667 -170.667 -96 -270h-213l-17 -72h206c-24 -72 -46 -143.667 -66 -215l-57 -203l-17 -66.5
c-4.66699 -18.333 -8.83398 -36.333 -12.501 -54s-6.83398 -35.834 -9.50098 -54.501s-5.33398 -40.334 -8.00098 -65.001l414 25c-35.333 22 -62 39.5 -80 52.5s-40 30.833 -66 53.5c6 42.667 11.667 79.667 17 111s12.166 64.166 20.499 98.499l29.5 117
c11.333 43.667 26.666 98.834 45.999 165.501l10 35h75c-14.667 -54 -26.667 -104.333 -36 -151z" />
    <glyph glyph-name="Ograve" unicode="&#xd2;" horiz-adv-x="1533" 
d="M1167 1526l-144 221l-143 -135l244 -123zM1462 895c0 75.333 -11.6699 144.002 -35.0029 206.002s-56.166 115.167 -98.499 159.5s-93.166 78.5 -152.499 102.5s-126 36 -200 36c-114.667 0 -226.167 -26 -334.5 -78s-204.833 -120.333 -289.5 -205
s-152.667 -182 -204 -292s-77 -223 -77 -339c0 -74.667 11.667 -143.167 35 -205.5s56.5 -116 99.5 -161s94.5 -79.833 154.5 -104.5s126 -37 198 -37c92 0 184 17.833 276 53.5s177 86.167 255 151.5c57.333 49.333 108.833 102.666 154.5 159.999
s84.834 116.666 117.501 177.999s57.667 123.833 75 187.5s26 126.167 26 187.5zM1208 942.002c0 -82 -12.3379 -170.341 -37.0049 -265.008s-58.334 -184.334 -101.001 -269.001c-60 -118 -130.5 -210 -211.5 -276s-164.5 -99 -250.5 -99
c-41.333 0 -78.666 9.83301 -111.999 29.5s-62 47.334 -86 83.001s-42.5 78.334 -55.5 128.001s-19.5 104.5 -19.5 164.5c0 83.333 11.667 169 35 257s56.666 176.667 99.999 266c30 58.667 61.5 110.834 94.5 156.501s68.5 84.834 106.5 117.501s79.667 60.334 125 83.001
s94.333 40 147 52l-10 -27c-113.333 -38 -209.666 -115.667 -288.999 -233c-27.333 -39.333 -52.166 -82.666 -74.499 -129.999s-41.333 -95.166 -57 -143.499s-28 -96.833 -37 -145.5s-13.5 -94 -13.5 -136c0 -52 5.5 -99.833 16.5 -143.5s26 -82.5 45 -116.5
s42.167 -62 69.5 -84s57.333 -35.667 90 -41l154 162h-4c-173.333 0 -260 99.667 -260 299c0 27.333 2.33301 58 7 92s11.834 68.833 21.501 104.5s20.334 70.834 32.001 105.501s24.834 67 39.501 97c19.333 41.333 43 80 71 116s57 68 87 96s59.667 50.167 89 66.5
s56.333 24.5 81 24.5c28.667 0 55.334 -10.167 80.001 -30.5s46.5 -48.666 65.5 -84.999s34 -78 45 -125s16.5 -97.167 16.5 -150.5z" />
    <glyph glyph-name="Oacute" unicode="&#xd3;" horiz-adv-x="1533" 
d="M1234 1577l-73 168l-312 -207l31 -47zM1462 895c0 75.333 -11.6699 144.002 -35.0029 206.002s-56.166 115.167 -98.499 159.5s-93.166 78.5 -152.499 102.5s-126 36 -200 36c-114.667 0 -226.167 -26 -334.5 -78s-204.833 -120.333 -289.5 -205s-152.667 -182 -204 -292
s-77 -223 -77 -339c0 -74.667 11.667 -143.167 35 -205.5s56.5 -116 99.5 -161s94.5 -79.833 154.5 -104.5s126 -37 198 -37c92 0 184 17.833 276 53.5s177 86.167 255 151.5c57.333 49.333 108.833 102.666 154.5 159.999s84.834 116.666 117.501 177.999
s57.667 123.833 75 187.5s26 126.167 26 187.5zM1208 942.002c0 -82 -12.3379 -170.341 -37.0049 -265.008s-58.334 -184.334 -101.001 -269.001c-60 -118 -130.5 -210 -211.5 -276s-164.5 -99 -250.5 -99c-41.333 0 -78.666 9.83301 -111.999 29.5s-62 47.334 -86 83.001
s-42.5 78.334 -55.5 128.001s-19.5 104.5 -19.5 164.5c0 83.333 11.667 169 35 257s56.666 176.667 99.999 266c30 58.667 61.5 110.834 94.5 156.501s68.5 84.834 106.5 117.501s79.667 60.334 125 83.001s94.333 40 147 52l-10 -27
c-113.333 -38 -209.666 -115.667 -288.999 -233c-27.333 -39.333 -52.166 -82.666 -74.499 -129.999s-41.333 -95.166 -57 -143.499s-28 -96.833 -37 -145.5s-13.5 -94 -13.5 -136c0 -52 5.5 -99.833 16.5 -143.5s26 -82.5 45 -116.5s42.167 -62 69.5 -84
s57.333 -35.667 90 -41l154 162h-4c-173.333 0 -260 99.667 -260 299c0 27.333 2.33301 58 7 92s11.834 68.833 21.501 104.5s20.334 70.834 32.001 105.501s24.834 67 39.501 97c19.333 41.333 43 80 71 116s57 68 87 96s59.667 50.167 89 66.5s56.333 24.5 81 24.5
c28.667 0 55.334 -10.167 80.001 -30.5s46.5 -48.666 65.5 -84.999s34 -78 45 -125s16.5 -97.167 16.5 -150.5z" />
    <glyph glyph-name="Ocircumflex" unicode="&#xd4;" horiz-adv-x="1533" 
d="M1218 1528l-129 217l-322 -205l31 -49l231 76l142 -76zM1462 895c0 75.333 -11.6699 144.002 -35.0029 206.002s-56.166 115.167 -98.499 159.5s-93.166 78.5 -152.499 102.5s-126 36 -200 36c-114.667 0 -226.167 -26 -334.5 -78s-204.833 -120.333 -289.5 -205
s-152.667 -182 -204 -292s-77 -223 -77 -339c0 -74.667 11.667 -143.167 35 -205.5s56.5 -116 99.5 -161s94.5 -79.833 154.5 -104.5s126 -37 198 -37c92 0 184 17.833 276 53.5s177 86.167 255 151.5c57.333 49.333 108.833 102.666 154.5 159.999
s84.834 116.666 117.501 177.999s57.667 123.833 75 187.5s26 126.167 26 187.5zM1208 942.002c0 -82 -12.3379 -170.341 -37.0049 -265.008s-58.334 -184.334 -101.001 -269.001c-60 -118 -130.5 -210 -211.5 -276s-164.5 -99 -250.5 -99
c-41.333 0 -78.666 9.83301 -111.999 29.5s-62 47.334 -86 83.001s-42.5 78.334 -55.5 128.001s-19.5 104.5 -19.5 164.5c0 83.333 11.667 169 35 257s56.666 176.667 99.999 266c30 58.667 61.5 110.834 94.5 156.501s68.5 84.834 106.5 117.501s79.667 60.334 125 83.001
s94.333 40 147 52l-10 -27c-113.333 -38 -209.666 -115.667 -288.999 -233c-27.333 -39.333 -52.166 -82.666 -74.499 -129.999s-41.333 -95.166 -57 -143.499s-28 -96.833 -37 -145.5s-13.5 -94 -13.5 -136c0 -52 5.5 -99.833 16.5 -143.5s26 -82.5 45 -116.5
s42.167 -62 69.5 -84s57.333 -35.667 90 -41l154 162h-4c-173.333 0 -260 99.667 -260 299c0 27.333 2.33301 58 7 92s11.834 68.833 21.501 104.5s20.334 70.834 32.001 105.501s24.834 67 39.501 97c19.333 41.333 43 80 71 116s57 68 87 96s59.667 50.167 89 66.5
s56.333 24.5 81 24.5c28.667 0 55.334 -10.167 80.001 -30.5s46.5 -48.666 65.5 -84.999s34 -78 45 -125s16.5 -97.167 16.5 -150.5z" />
    <glyph glyph-name="Otilde" unicode="&#xd5;" horiz-adv-x="1533" 
d="M1257 1651l-46.998 32.002c-19.333 -22.667 -36.5 -38.834 -51.5 -48.501s-31.5 -14.5 -49.5 -14.5c-8 0 -17.5 1.33301 -28.5 4s-26.5 7.33398 -46.5 14.001c-32 11.333 -55.833 18.666 -71.5 21.999s-28.834 5 -39.501 5c-58.667 0 -112 -49 -160 -147l51 -31
c18 26 34.167 43.667 48.5 53s33.166 14 56.499 14c10.667 0 21.5 -1 32.5 -3s28.167 -6.33301 51.5 -13s42.5 -11.334 57.5 -14.001s27.833 -4 38.5 -4c30 0 56.333 9.5 79 28.5s49 53.167 79 102.5zM1462 895.002c0 75.333 -11.6699 144.002 -35.0029 206.002
s-56.166 115.167 -98.499 159.5s-93.166 78.5 -152.499 102.5s-126 36 -200 36c-114.667 0 -226.167 -26 -334.5 -78s-204.833 -120.333 -289.5 -205s-152.667 -182 -204 -292s-77 -223 -77 -339c0 -74.667 11.667 -143.167 35 -205.5s56.5 -116 99.5 -161
s94.5 -79.833 154.5 -104.5s126 -37 198 -37c92 0 184 17.833 276 53.5s177 86.167 255 151.5c57.333 49.333 108.833 102.666 154.5 159.999s84.834 116.666 117.501 177.999s57.667 123.833 75 187.5s26 126.167 26 187.5zM1208 942.004
c0 -82 -12.3379 -170.341 -37.0049 -265.008s-58.334 -184.334 -101.001 -269.001c-60 -118 -130.5 -210 -211.5 -276s-164.5 -99 -250.5 -99c-41.333 0 -78.666 9.83301 -111.999 29.5s-62 47.334 -86 83.001s-42.5 78.334 -55.5 128.001s-19.5 104.5 -19.5 164.5
c0 83.333 11.667 169 35 257s56.666 176.667 99.999 266c30 58.667 61.5 110.834 94.5 156.501s68.5 84.834 106.5 117.501s79.667 60.334 125 83.001s94.333 40 147 52l-10 -27c-113.333 -38 -209.666 -115.667 -288.999 -233
c-27.333 -39.333 -52.166 -82.666 -74.499 -129.999s-41.333 -95.166 -57 -143.499s-28 -96.833 -37 -145.5s-13.5 -94 -13.5 -136c0 -52 5.5 -99.833 16.5 -143.5s26 -82.5 45 -116.5s42.167 -62 69.5 -84s57.333 -35.667 90 -41l154 162h-4
c-173.333 0 -260 99.667 -260 299c0 27.333 2.33301 58 7 92s11.834 68.833 21.501 104.5s20.334 70.834 32.001 105.501s24.834 67 39.501 97c19.333 41.333 43 80 71 116s57 68 87 96s59.667 50.167 89 66.5s56.333 24.5 81 24.5c28.667 0 55.334 -10.167 80.001 -30.5
s46.5 -48.666 65.5 -84.999s34 -78 45 -125s16.5 -97.167 16.5 -150.5z" />
    <glyph glyph-name="Ugrave" unicode="&#xd9;" horiz-adv-x="1832" 
d="M1535 1526l-145 221l-141 -135l243 -123zM1898 1366l-386.998 0.00195312l-20 -80c-4.66699 -19.333 -11 -42.333 -19 -69c-16.667 -60.667 -36.167 -123.334 -58.5 -188.001l-74.5 -212l-67 -175c-20 -51.333 -38.833 -96.833 -56.5 -136.5s-34 -74.5 -49 -104.5
s-29.833 -57.333 -44.5 -82c-33.333 -55.333 -73.5 -100.166 -120.5 -134.499s-91.5 -51.5 -133.5 -51.5c-52 0 -93.667 23.5 -125 70.5s-47 111.5 -47 193.5c0 52 6 107.667 18 167s29.667 125.333 53 198c26 76.667 54 147.667 84 213s63 124.666 99 177.999
c13.333 22 25.833 41.5 37.5 58.5s23.667 33 36 48s26.333 31 42 48l54.5 58.5h-95c-174.667 0 -321 -14.667 -439 -44s-218.667 -76.666 -302 -141.999c-24.667 -19.333 -47.167 -41 -67.5 -65s-38 -49.333 -53 -76s-26.667 -53.167 -35 -79.5s-12.5 -51.833 -12.5 -76.5
c0 -10 0.666992 -18.333 2 -25l240 25c-8.66699 23.333 -14.667 42.166 -18 56.499s-5 31.5 -5 51.5c0 49.333 11.333 93.5 34 132.5s54.834 72.5 96.501 100.5s92.167 49.5 151.5 64.5s125.666 22.5 198.999 22.5h27c8 0 22.333 -0.666992 43 -2l43 -2l-107.5 -115
c-32.333 -35.333 -61.333 -70.5 -87 -105.5s-49.5 -69.833 -71.5 -104.5s-43.333 -72 -64 -112c-46 -90 -81.333 -179.333 -106 -268s-37 -171.334 -37 -248.001c0 -113.333 27.333 -203.333 82 -270s127.667 -100 219 -100c194 0 356.333 155.667 487 467
c20.667 47.333 41 96.666 61 147.999s40 105.666 60 162.999l47.5 137l42 126l35 105.5c10.333 31.667 18.166 57.5 23.499 77.5l22 82l8 31h129c-9.33301 -20.667 -17.666 -38.167 -24.999 -52.5s-14.5 -29.333 -21.5 -45l-21.5 -50l-26 -65.5
c-27.333 -66.667 -52.833 -133.5 -76.5 -200.5l-68.5 -192.5l-73 -220.5c-24 -73 -45.333 -144.833 -64 -215.5c-10 -36 -18 -66.167 -24 -90.5s-11 -46.833 -15 -67.5s-7.5 -41.167 -10.5 -61.5s-5.83301 -44.166 -8.5 -71.499l414 14l16 49h-20
c-50.667 0 -84.167 7.5 -100.5 22.5s-24.5 44.5 -24.5 88.5c0 52 13.333 132.5 40 241.5s63 234.5 109 376.5l32.5 96.5l31.5 89.5l32.5 89c11 30 23.5 62 37.5 96c9.33301 24.667 17.666 45.5 24.999 62.5l20.5 49c6.33301 15.667 13.166 31.334 20.499 47.001z" />
    <glyph glyph-name="Uacute" unicode="&#xda;" horiz-adv-x="1832" 
d="M1562 1577l-76 168l-309 -207l31 -47zM1898 1366l-386.998 0.00195312l-20 -80c-4.66699 -19.333 -11 -42.333 -19 -69c-16.667 -60.667 -36.167 -123.334 -58.5 -188.001l-74.5 -212l-67 -175c-20 -51.333 -38.833 -96.833 -56.5 -136.5s-34 -74.5 -49 -104.5
s-29.833 -57.333 -44.5 -82c-33.333 -55.333 -73.5 -100.166 -120.5 -134.499s-91.5 -51.5 -133.5 -51.5c-52 0 -93.667 23.5 -125 70.5s-47 111.5 -47 193.5c0 52 6 107.667 18 167s29.667 125.333 53 198c26 76.667 54 147.667 84 213s63 124.666 99 177.999
c13.333 22 25.833 41.5 37.5 58.5s23.667 33 36 48s26.333 31 42 48l54.5 58.5h-95c-174.667 0 -321 -14.667 -439 -44s-218.667 -76.666 -302 -141.999c-24.667 -19.333 -47.167 -41 -67.5 -65s-38 -49.333 -53 -76s-26.667 -53.167 -35 -79.5s-12.5 -51.833 -12.5 -76.5
c0 -10 0.666992 -18.333 2 -25l240 25c-8.66699 23.333 -14.667 42.166 -18 56.499s-5 31.5 -5 51.5c0 49.333 11.333 93.5 34 132.5s54.834 72.5 96.501 100.5s92.167 49.5 151.5 64.5s125.666 22.5 198.999 22.5h27c8 0 22.333 -0.666992 43 -2l43 -2l-107.5 -115
c-32.333 -35.333 -61.333 -70.5 -87 -105.5s-49.5 -69.833 -71.5 -104.5s-43.333 -72 -64 -112c-46 -90 -81.333 -179.333 -106 -268s-37 -171.334 -37 -248.001c0 -113.333 27.333 -203.333 82 -270s127.667 -100 219 -100c194 0 356.333 155.667 487 467
c20.667 47.333 41 96.666 61 147.999s40 105.666 60 162.999l47.5 137l42 126l35 105.5c10.333 31.667 18.166 57.5 23.499 77.5l22 82l8 31h129c-9.33301 -20.667 -17.666 -38.167 -24.999 -52.5s-14.5 -29.333 -21.5 -45l-21.5 -50l-26 -65.5
c-27.333 -66.667 -52.833 -133.5 -76.5 -200.5l-68.5 -192.5l-73 -220.5c-24 -73 -45.333 -144.833 -64 -215.5c-10 -36 -18 -66.167 -24 -90.5s-11 -46.833 -15 -67.5s-7.5 -41.167 -10.5 -61.5s-5.83301 -44.166 -8.5 -71.499l414 14l16 49h-20
c-50.667 0 -84.167 7.5 -100.5 22.5s-24.5 44.5 -24.5 88.5c0 52 13.333 132.5 40 241.5s63 234.5 109 376.5l32.5 96.5l31.5 89.5l32.5 89c11 30 23.5 62 37.5 96c9.33301 24.667 17.666 45.5 24.999 62.5l20.5 49c6.33301 15.667 13.166 31.334 20.499 47.001z" />
    <glyph glyph-name="Yacute" unicode="&#xdd;" horiz-adv-x="1513" 
d="M1546 1366l-341.998 -0.000976562l-4 -18c-14 -62 -28.167 -118.5 -42.5 -169.5s-30 -100.833 -47 -149.5s-35.333 -98.167 -55 -148.5l-66.5 -163.5c-88.667 -218.667 -176.667 -328 -264 -328c-31.333 0 -51.333 14.333 -60 43c-2.66699 8 -4.66699 16.833 -6 26.5
s-2 19.834 -2 30.501l-6 139c-2.66699 60.667 -5.33398 136 -8.00098 226l-7 171c-2 50 -4.83301 95.833 -8.5 137.5s-7.83398 80.167 -12.501 115.5s-9.66699 70.666 -15 105.999l-334 -16l-18 -55h18c30 0 54.5 -3.83301 73.5 -11.5s33.667 -24.167 44 -49.5
s18.166 -61.5 23.499 -108.5s10.333 -110.167 15 -189.5l16 -321c2.66699 -38.667 4.33398 -71.167 5.00098 -97.5s1.66699 -47.166 3 -62.499c4 -66.667 15.667 -130 35 -190c10.667 -31.333 28.667 -56.666 54 -75.999s53.666 -29 84.999 -29
c41.333 0 85.166 16 131.499 48s87.166 75.333 122.499 130c60 93.333 113.333 200.666 160 321.999c18 46.667 36.833 98.667 56.5 156l58 171c19 56.667 36.333 111.167 52 163.5s27.834 97.166 36.501 134.499l6 28h82l-10 -33l-172 -577l-104 -351.5l-64 -219.5
l-38.5 -131.5c-10.333 -34.333 -21.166 -64.5 -32.499 -90.5s-24.166 -50.5 -38.499 -73.5s-31.833 -48.833 -52.5 -77.5c-35.333 -50.667 -76 -87.334 -122 -110.001s-101 -34 -165 -34c-82 0 -145.167 18.5 -189.5 55.5s-71.833 94.5 -82.5 172.5l-201 -129
c82 -104 220 -156 414 -156c106 0 198.333 15.667 277 47s146.667 80 204 146c60 70.667 114.667 154.334 164 251.001c24.667 52 47.5 104.333 68.5 157s39.833 106.334 56.5 161.001l76 252l79 278l44.5 150l33 106.5l32.5 103.5zM1196 1577l-75 168l-310 -207l31 -47z
" />
    <glyph glyph-name="agrave" unicode="&#xe0;" horiz-adv-x="1150" 
d="M830 1097l-195 258l-117 -162l271 -143zM1389 600l-72.4961 -101.003c-21 -28 -41.833 -54.333 -62.5 -79l-65.5 -75l-80.5 -85c-102 -106.667 -179 -160 -231 -160c-35.333 0 -53 19.333 -53 58c0 9.33301 1.66699 22.5 5 39.5s7 32.5 11 46.5l238 721l-232 -19
l-51 -158h-18c0 11.333 0.333008 19.666 1 24.999s1 10 1 14c0 93.333 -43.667 140 -131 140c-48 0 -100.333 -14.333 -157 -43s-115.667 -69.667 -177 -123c-50.667 -45.333 -96.834 -94.666 -138.501 -147.999s-77.167 -107.166 -106.5 -161.499
s-51.833 -109.166 -67.5 -164.499s-23.5 -107.666 -23.5 -156.999c0 -128.667 52 -193 156 -193c54.667 0 109.5 15.833 164.5 47.5s108.167 75.5 159.5 131.5s99.166 123.5 143.499 202.5s82.166 167.167 113.499 264.5h27l-143 -443c-14 -39.333 -21 -71.333 -21 -96
c0 -31.333 12 -57 36 -77s55.667 -30 95 -30c40 0 81.5 7.66699 124.5 23s82.833 36.333 119.5 63c23.333 16.667 46.166 34.5 68.499 53.5s45.166 40.167 68.499 63.5c32.667 31.333 60.334 59 83.001 83s43.834 47.667 63.501 71s38.667 47.833 57 73.5
s39.166 56.5 62.499 92.5zM683.004 704.997c0 -38.667 -8.00098 -82.167 -24.001 -130.5s-38.333 -96.5 -67 -144.5s-57.334 -91.333 -86.001 -130s-57 -72 -85 -100s-53.833 -49.833 -77.5 -65.5s-44.5 -23.5 -62.5 -23.5c-48 0 -72 43 -72 129c0 34 3 64.667 9 92
c32.667 169.333 78.334 302.5 137.001 399.5s123.334 145.5 194.001 145.5c40 0 72.333 -15.833 97 -47.5s37 -73.167 37 -124.5z" />
    <glyph glyph-name="aacute" unicode="&#xe1;" horiz-adv-x="1150" 
d="M1104 1180l-45 184l-370 -252l24 -53zM1389 600l-72.4961 -101.003c-21 -28 -41.833 -54.333 -62.5 -79l-65.5 -75l-80.5 -85c-102 -106.667 -179 -160 -231 -160c-35.333 0 -53 19.333 -53 58c0 9.33301 1.66699 22.5 5 39.5s7 32.5 11 46.5l238 721l-232 -19l-51 -158
h-18c0 11.333 0.333008 19.666 1 24.999s1 10 1 14c0 93.333 -43.667 140 -131 140c-48 0 -100.333 -14.333 -157 -43s-115.667 -69.667 -177 -123c-50.667 -45.333 -96.834 -94.666 -138.501 -147.999s-77.167 -107.166 -106.5 -161.499s-51.833 -109.166 -67.5 -164.499
s-23.5 -107.666 -23.5 -156.999c0 -128.667 52 -193 156 -193c54.667 0 109.5 15.833 164.5 47.5s108.167 75.5 159.5 131.5s99.166 123.5 143.499 202.5s82.166 167.167 113.499 264.5h27l-143 -443c-14 -39.333 -21 -71.333 -21 -96c0 -31.333 12 -57 36 -77
s55.667 -30 95 -30c40 0 81.5 7.66699 124.5 23s82.833 36.333 119.5 63c23.333 16.667 46.166 34.5 68.499 53.5s45.166 40.167 68.499 63.5c32.667 31.333 60.334 59 83.001 83s43.834 47.667 63.501 71s38.667 47.833 57 73.5s39.166 56.5 62.499 92.5zM683.004 704.997
c0 -38.667 -8.00098 -82.167 -24.001 -130.5s-38.333 -96.5 -67 -144.5s-57.334 -91.333 -86.001 -130s-57 -72 -85 -100s-53.833 -49.833 -77.5 -65.5s-44.5 -23.5 -62.5 -23.5c-48 0 -72 43 -72 129c0 34 3 64.667 9 92c32.667 169.333 78.334 302.5 137.001 399.5
s123.334 145.5 194.001 145.5c40 0 72.333 -15.833 97 -47.5s37 -73.167 37 -124.5z" />
    <glyph glyph-name="acircumflex" unicode="&#xe2;" horiz-adv-x="1150" 
d="M1037 1111l-127 270l-357 -258l31 -51l270 137l131 -137zM1389 600l-72.4961 -101.003c-21 -28 -41.833 -54.333 -62.5 -79l-65.5 -75l-80.5 -85c-102 -106.667 -179 -160 -231 -160c-35.333 0 -53 19.333 -53 58c0 9.33301 1.66699 22.5 5 39.5s7 32.5 11 46.5l238 721
l-232 -19l-51 -158h-18c0 11.333 0.333008 19.666 1 24.999s1 10 1 14c0 93.333 -43.667 140 -131 140c-48 0 -100.333 -14.333 -157 -43s-115.667 -69.667 -177 -123c-50.667 -45.333 -96.834 -94.666 -138.501 -147.999s-77.167 -107.166 -106.5 -161.499
s-51.833 -109.166 -67.5 -164.499s-23.5 -107.666 -23.5 -156.999c0 -128.667 52 -193 156 -193c54.667 0 109.5 15.833 164.5 47.5s108.167 75.5 159.5 131.5s99.166 123.5 143.499 202.5s82.166 167.167 113.499 264.5h27l-143 -443c-14 -39.333 -21 -71.333 -21 -96
c0 -31.333 12 -57 36 -77s55.667 -30 95 -30c40 0 81.5 7.66699 124.5 23s82.833 36.333 119.5 63c23.333 16.667 46.166 34.5 68.499 53.5s45.166 40.167 68.499 63.5c32.667 31.333 60.334 59 83.001 83s43.834 47.667 63.501 71s38.667 47.833 57 73.5
s39.166 56.5 62.499 92.5zM683.004 704.997c0 -38.667 -8.00098 -82.167 -24.001 -130.5s-38.333 -96.5 -67 -144.5s-57.334 -91.333 -86.001 -130s-57 -72 -85 -100s-53.833 -49.833 -77.5 -65.5s-44.5 -23.5 -62.5 -23.5c-48 0 -72 43 -72 129c0 34 3 64.667 9 92
c32.667 169.333 78.334 302.5 137.001 399.5s123.334 145.5 194.001 145.5c40 0 72.333 -15.833 97 -47.5s37 -73.167 37 -124.5z" />
    <glyph glyph-name="atilde" unicode="&#xe3;" horiz-adv-x="1150" 
d="M1076 1292l-50.001 23.001c-21.333 -36 -40.666 -61.5 -57.999 -76.5s-36.666 -22.5 -57.999 -22.5c-11.333 0 -23.833 2.5 -37.5 7.5s-31.167 12.833 -52.5 23.5l-59.5 28.5c-15 7 -28 12.5 -39 16.5s-20.333 6.66699 -28 8s-15.5 2 -23.5 2
c-31.333 0 -60.666 -12.833 -87.999 -38.5s-56 -68.834 -86 -129.501l47 -28c20.667 32.667 39.5 55.5 56.5 68.5s37.167 19.5 60.5 19.5c14.667 0 30.167 -3.16699 46.5 -9.5s40.5 -17.5 72.5 -33.5c25.333 -14 45.666 -23.333 60.999 -28s31.666 -7 48.999 -7
c40 0 74.333 13.667 103 41s56.667 72.333 84 135zM1389 600.001l-72.4961 -101.003c-21 -28 -41.833 -54.333 -62.5 -79l-65.5 -75l-80.5 -85c-102 -106.667 -179 -160 -231 -160c-35.333 0 -53 19.333 -53 58c0 9.33301 1.66699 22.5 5 39.5s7 32.5 11 46.5l238 721
l-232 -19l-51 -158h-18c0 11.333 0.333008 19.666 1 24.999s1 10 1 14c0 93.333 -43.667 140 -131 140c-48 0 -100.333 -14.333 -157 -43s-115.667 -69.667 -177 -123c-50.667 -45.333 -96.834 -94.666 -138.501 -147.999s-77.167 -107.166 -106.5 -161.499
s-51.833 -109.166 -67.5 -164.499s-23.5 -107.666 -23.5 -156.999c0 -128.667 52 -193 156 -193c54.667 0 109.5 15.833 164.5 47.5s108.167 75.5 159.5 131.5s99.166 123.5 143.499 202.5s82.166 167.167 113.499 264.5h27l-143 -443c-14 -39.333 -21 -71.333 -21 -96
c0 -31.333 12 -57 36 -77s55.667 -30 95 -30c40 0 81.5 7.66699 124.5 23s82.833 36.333 119.5 63c23.333 16.667 46.166 34.5 68.499 53.5s45.166 40.167 68.499 63.5c32.667 31.333 60.334 59 83.001 83s43.834 47.667 63.501 71s38.667 47.833 57 73.5
s39.166 56.5 62.499 92.5zM683.003 704.998c0 -38.667 -8.00098 -82.167 -24.001 -130.5s-38.333 -96.5 -67 -144.5s-57.334 -91.333 -86.001 -130s-57 -72 -85 -100s-53.833 -49.833 -77.5 -65.5s-44.5 -23.5 -62.5 -23.5c-48 0 -72 43 -72 129c0 34 3 64.667 9 92
c32.667 169.333 78.334 302.5 137.001 399.5s123.334 145.5 194.001 145.5c40 0 72.333 -15.833 97 -47.5s37 -73.167 37 -124.5z" />
    <glyph glyph-name="egrave" unicode="&#xe8;" horiz-adv-x="831" 
d="M786 1114l-192 258l-117 -162l269 -143zM1100 600l-50.499 -75.499c-15 -21.667 -30.333 -41.834 -46 -60.501s-32.167 -37.167 -49.5 -55.5l-60 -64.5c-169.333 -174.667 -332 -262 -488 -262c-72 0 -123.5 14.333 -154.5 43s-46.5 77 -46.5 145
c0 11.333 0.833008 22.833 2.5 34.5l6.5 45.5c6.66699 -1.33301 13.334 -2 20.001 -2c75.333 0 152.166 21.5 230.499 64.5s150.5 102.833 216.5 179.5c39.333 46.667 70.666 93.5 93.999 140.5s35 88.833 35 125.5c0 72.667 -41.667 109 -125 109
c-28.667 0 -60.5 -3.83301 -95.5 -11.5s-64.167 -16.834 -87.5 -27.501c-66.667 -31.333 -131.667 -75.666 -195 -132.999s-119.666 -120.833 -168.999 -190.5s-89 -141.834 -119 -216.501s-45 -144.667 -45 -210c0 -69.333 19.167 -120.166 57.5 -152.499
s99.166 -48.5 182.499 -48.5c72 0 143.5 9 214.5 27s137.167 44 198.5 78c76.667 40.667 153.167 97.5 229.5 170.5s146.833 155.5 211.5 247.5zM599.001 801.001c0 -49.333 -7.50098 -98.5 -22.501 -147.5s-36.167 -92.833 -63.5 -131.5
c-22 -31.333 -46.333 -54.166 -73 -68.499s-58.334 -21.5 -95.001 -21.5c-19.333 0 -35.833 1.66699 -49.5 5s-32.167 10.666 -55.5 21.999l23 70.5c6.66699 19.667 13.334 37.667 20.001 54s13.834 32 21.501 47l27.5 51.5c34.667 61.333 71.667 112.833 111 154.5
s72 62.5 98 62.5c38.667 0 58 -32.667 58 -98z" />
    <glyph glyph-name="eacute" unicode="&#xe9;" horiz-adv-x="831" 
d="M945 1198l-45 184l-371 -252l25 -53zM1100 600l-50.499 -75.499c-15 -21.667 -30.333 -41.834 -46 -60.501s-32.167 -37.167 -49.5 -55.5l-60 -64.5c-169.333 -174.667 -332 -262 -488 -262c-72 0 -123.5 14.333 -154.5 43s-46.5 77 -46.5 145
c0 11.333 0.833008 22.833 2.5 34.5l6.5 45.5c6.66699 -1.33301 13.334 -2 20.001 -2c75.333 0 152.166 21.5 230.499 64.5s150.5 102.833 216.5 179.5c39.333 46.667 70.666 93.5 93.999 140.5s35 88.833 35 125.5c0 72.667 -41.667 109 -125 109
c-28.667 0 -60.5 -3.83301 -95.5 -11.5s-64.167 -16.834 -87.5 -27.501c-66.667 -31.333 -131.667 -75.666 -195 -132.999s-119.666 -120.833 -168.999 -190.5s-89 -141.834 -119 -216.501s-45 -144.667 -45 -210c0 -69.333 19.167 -120.166 57.5 -152.499
s99.166 -48.5 182.499 -48.5c72 0 143.5 9 214.5 27s137.167 44 198.5 78c76.667 40.667 153.167 97.5 229.5 170.5s146.833 155.5 211.5 247.5zM599.001 801.001c0 -49.333 -7.50098 -98.5 -22.501 -147.5s-36.167 -92.833 -63.5 -131.5
c-22 -31.333 -46.333 -54.166 -73 -68.499s-58.334 -21.5 -95.001 -21.5c-19.333 0 -35.833 1.66699 -49.5 5s-32.167 10.666 -55.5 21.999l23 70.5c6.66699 19.667 13.334 37.667 20.001 54s13.834 32 21.501 47l27.5 51.5c34.667 61.333 71.667 112.833 111 154.5
s72 62.5 98 62.5c38.667 0 58 -32.667 58 -98z" />
    <glyph glyph-name="ecircumflex" unicode="&#xea;" horiz-adv-x="831" 
d="M910 1093l-127 270l-356 -258l30 -51l271 137l131 -137zM1100 600l-50.499 -75.499c-15 -21.667 -30.333 -41.834 -46 -60.501s-32.167 -37.167 -49.5 -55.5l-60 -64.5c-169.333 -174.667 -332 -262 -488 -262c-72 0 -123.5 14.333 -154.5 43s-46.5 77 -46.5 145
c0 11.333 0.833008 22.833 2.5 34.5l6.5 45.5c6.66699 -1.33301 13.334 -2 20.001 -2c75.333 0 152.166 21.5 230.499 64.5s150.5 102.833 216.5 179.5c39.333 46.667 70.666 93.5 93.999 140.5s35 88.833 35 125.5c0 72.667 -41.667 109 -125 109
c-28.667 0 -60.5 -3.83301 -95.5 -11.5s-64.167 -16.834 -87.5 -27.501c-66.667 -31.333 -131.667 -75.666 -195 -132.999s-119.666 -120.833 -168.999 -190.5s-89 -141.834 -119 -216.501s-45 -144.667 -45 -210c0 -69.333 19.167 -120.166 57.5 -152.499
s99.166 -48.5 182.499 -48.5c72 0 143.5 9 214.5 27s137.167 44 198.5 78c76.667 40.667 153.167 97.5 229.5 170.5s146.833 155.5 211.5 247.5zM599.001 801.001c0 -49.333 -7.50098 -98.5 -22.501 -147.5s-36.167 -92.833 -63.5 -131.5
c-22 -31.333 -46.333 -54.166 -73 -68.499s-58.334 -21.5 -95.001 -21.5c-19.333 0 -35.833 1.66699 -49.5 5s-32.167 10.666 -55.5 21.999l23 70.5c6.66699 19.667 13.334 37.667 20.001 54s13.834 32 21.501 47l27.5 51.5c34.667 61.333 71.667 112.833 111 154.5
s72 62.5 98 62.5c38.667 0 58 -32.667 58 -98z" />
    <glyph glyph-name="igrave" unicode="&#xec;" horiz-adv-x="608" 
d="M522 1123l-195 258l-116 -162l270 -143zM844 596l-75.0029 -104l-61.5 -80c-19.667 -24.667 -40.5 -49 -62.5 -73l-76 -81c-51.333 -54.667 -96.166 -94.667 -134.499 -120s-71.833 -38 -100.5 -38c-40 0 -60 16.667 -60 50c0 14.667 8.33301 46.667 25 96l133 409
l55 148l48 137l8 27l-406 -23l-14 -45h20c63.333 0 95 -24 95 -72c0 -77.333 -29.667 -205 -89 -383l-47 -141l-32 -102c-7.33301 -23.333 -13.666 -47 -18.999 -71s-8 -41.333 -8 -52c0 -67.333 43.667 -101 131 -101c88.667 0 185.334 43.167 290.001 129.5
s221.667 219.5 351 399.5z" />
    <glyph glyph-name="iacute" unicode="&#xed;" horiz-adv-x="608" 
d="M717 1224l-45 184l-371 -252l27 -53zM844 596l-75.0029 -104l-61.5 -80c-19.667 -24.667 -40.5 -49 -62.5 -73l-76 -81c-51.333 -54.667 -96.166 -94.667 -134.499 -120s-71.833 -38 -100.5 -38c-40 0 -60 16.667 -60 50c0 14.667 8.33301 46.667 25 96l133 409l55 148
l48 137l8 27l-406 -23l-14 -45h20c63.333 0 95 -24 95 -72c0 -77.333 -29.667 -205 -89 -383l-47 -141l-32 -102c-7.33301 -23.333 -13.666 -47 -18.999 -71s-8 -41.333 -8 -52c0 -67.333 43.667 -101 131 -101c88.667 0 185.334 43.167 290.001 129.5
s221.667 219.5 351 399.5z" />
    <glyph glyph-name="ograve" unicode="&#xf2;" horiz-adv-x="1024" 
d="M918 1132l-195 258l-117 -162l271 -143zM1286 600c-35.333 -48 -72.502 -94.832 -111.502 -140.499s-78.167 -88.667 -117.5 -129s-78.833 -76.833 -118.5 -109.5s-77.167 -60 -112.5 -82c-32 -18.667 -67 -33.5 -105 -44.5s-74.667 -16.5 -110 -16.5
c-15.333 0 -28.166 0.666992 -38.499 2s-24.833 5.33301 -43.5 12c52.667 36.667 104.667 83 156 139s96.5 114.833 135.5 176.5s70.5 123.167 94.5 184.5s36 116 36 164c0 140.667 -74.667 211 -224 211c-64 0 -124.333 -11.667 -181 -35s-115 -59 -175 -107
c-56 -44.667 -107.167 -94.334 -153.5 -149.001s-86.666 -110.667 -120.999 -168s-60.666 -114 -78.999 -170s-27.5 -108 -27.5 -156c0 -65.333 18.5 -115.833 55.5 -151.5s88.833 -53.5 155.5 -53.5c38 0 74.167 4.16699 108.5 12.5s78.166 22.833 131.499 43.5
c22.667 -14 41.5 -23 56.5 -27s36.833 -6 65.5 -6c104 -0 211.667 40.333 323 121s234 207 368 379zM718.998 723.001c0 -53.333 -6.16895 -109.333 -18.502 -168s-28.666 -115.667 -48.999 -171s-44.5 -106.833 -72.5 -154.5s-58.333 -87.167 -91 -118.5
c-92 42 -138 125.667 -138 251c0 64.667 9 129 27 193s43.333 122 76 174c28.667 46.667 58.334 83 89.001 109s59.667 39 87 39c60 0 90 -51.333 90 -154zM577.996 911.001l-7.99902 -18.002c-37.333 -19.333 -72.333 -49.166 -105 -89.499s-61.334 -86.333 -86.001 -138
s-44.5 -106.5 -59.5 -164.5s-22.5 -115 -22.5 -171c0 -54.667 7.16699 -102.5 21.5 -143.5s37.166 -79.167 68.499 -114.5c-16 -6 -29.667 -9 -41 -9c-43.333 0 -78 19.833 -104 59.5s-39 93.167 -39 160.5c0 50 8.5 105.833 25.5 167.5s40.5 123.167 70.5 184.5
c50.667 104 109.334 180.333 176.001 229c15.333 11.333 29.833 20.333 43.5 27s33.5 13.334 59.5 20.001z" />
    <glyph glyph-name="oacute" unicode="&#xf3;" horiz-adv-x="1024" 
d="M1012 1215l-45 184l-371 -252l27 -53zM1286 600c-35.333 -48 -72.502 -94.832 -111.502 -140.499s-78.167 -88.667 -117.5 -129s-78.833 -76.833 -118.5 -109.5s-77.167 -60 -112.5 -82c-32 -18.667 -67 -33.5 -105 -44.5s-74.667 -16.5 -110 -16.5
c-15.333 0 -28.166 0.666992 -38.499 2s-24.833 5.33301 -43.5 12c52.667 36.667 104.667 83 156 139s96.5 114.833 135.5 176.5s70.5 123.167 94.5 184.5s36 116 36 164c0 140.667 -74.667 211 -224 211c-64 0 -124.333 -11.667 -181 -35s-115 -59 -175 -107
c-56 -44.667 -107.167 -94.334 -153.5 -149.001s-86.666 -110.667 -120.999 -168s-60.666 -114 -78.999 -170s-27.5 -108 -27.5 -156c0 -65.333 18.5 -115.833 55.5 -151.5s88.833 -53.5 155.5 -53.5c38 0 74.167 4.16699 108.5 12.5s78.166 22.833 131.499 43.5
c22.667 -14 41.5 -23 56.5 -27s36.833 -6 65.5 -6c104 -0 211.667 40.333 323 121s234 207 368 379zM718.998 723.001c0 -53.333 -6.16895 -109.333 -18.502 -168s-28.666 -115.667 -48.999 -171s-44.5 -106.833 -72.5 -154.5s-58.333 -87.167 -91 -118.5
c-92 42 -138 125.667 -138 251c0 64.667 9 129 27 193s43.333 122 76 174c28.667 46.667 58.334 83 89.001 109s59.667 39 87 39c60 0 90 -51.333 90 -154zM577.996 911.001l-7.99902 -18.002c-37.333 -19.333 -72.333 -49.166 -105 -89.499s-61.334 -86.333 -86.001 -138
s-44.5 -106.5 -59.5 -164.5s-22.5 -115 -22.5 -171c0 -54.667 7.16699 -102.5 21.5 -143.5s37.166 -79.167 68.499 -114.5c-16 -6 -29.667 -9 -41 -9c-43.333 0 -78 19.833 -104 59.5s-39 93.167 -39 160.5c0 50 8.5 105.833 25.5 167.5s40.5 123.167 70.5 184.5
c50.667 104 109.334 180.333 176.001 229c15.333 11.333 29.833 20.333 43.5 27s33.5 13.334 59.5 20.001z" />
    <glyph glyph-name="ocircumflex" unicode="&#xf4;" horiz-adv-x="1024" 
d="M1006 1120l-127 270l-357 -258l31 -51l271 137l131 -137zM1286 600c-35.333 -48 -72.502 -94.832 -111.502 -140.499s-78.167 -88.667 -117.5 -129s-78.833 -76.833 -118.5 -109.5s-77.167 -60 -112.5 -82c-32 -18.667 -67 -33.5 -105 -44.5s-74.667 -16.5 -110 -16.5
c-15.333 0 -28.166 0.666992 -38.499 2s-24.833 5.33301 -43.5 12c52.667 36.667 104.667 83 156 139s96.5 114.833 135.5 176.5s70.5 123.167 94.5 184.5s36 116 36 164c0 140.667 -74.667 211 -224 211c-64 0 -124.333 -11.667 -181 -35s-115 -59 -175 -107
c-56 -44.667 -107.167 -94.334 -153.5 -149.001s-86.666 -110.667 -120.999 -168s-60.666 -114 -78.999 -170s-27.5 -108 -27.5 -156c0 -65.333 18.5 -115.833 55.5 -151.5s88.833 -53.5 155.5 -53.5c38 0 74.167 4.16699 108.5 12.5s78.166 22.833 131.499 43.5
c22.667 -14 41.5 -23 56.5 -27s36.833 -6 65.5 -6c104 -0 211.667 40.333 323 121s234 207 368 379zM718.998 723.001c0 -53.333 -6.16895 -109.333 -18.502 -168s-28.666 -115.667 -48.999 -171s-44.5 -106.833 -72.5 -154.5s-58.333 -87.167 -91 -118.5
c-92 42 -138 125.667 -138 251c0 64.667 9 129 27 193s43.333 122 76 174c28.667 46.667 58.334 83 89.001 109s59.667 39 87 39c60 0 90 -51.333 90 -154zM577.996 911.001l-7.99902 -18.002c-37.333 -19.333 -72.333 -49.166 -105 -89.499s-61.334 -86.333 -86.001 -138
s-44.5 -106.5 -59.5 -164.5s-22.5 -115 -22.5 -171c0 -54.667 7.16699 -102.5 21.5 -143.5s37.166 -79.167 68.499 -114.5c-16 -6 -29.667 -9 -41 -9c-43.333 0 -78 19.833 -104 59.5s-39 93.167 -39 160.5c0 50 8.5 105.833 25.5 167.5s40.5 123.167 70.5 184.5
c50.667 104 109.334 180.333 176.001 229c15.333 11.333 29.833 20.333 43.5 27s33.5 13.334 59.5 20.001z" />
    <glyph glyph-name="otilde" unicode="&#xf5;" horiz-adv-x="1024" 
d="M1073 1290l-46.998 23.001c-21.333 -36 -41 -61.5 -59 -76.5s-37.667 -22.5 -59 -22.5c-10 0 -22.167 2.5 -36.5 7.5s-32.5 12.833 -54.5 23.5c-24 12 -43.667 21.5 -59 28.5s-28.333 12.5 -39 16.5s-19.834 6.66699 -27.501 8s-15.5 2 -23.5 2
c-31.333 0 -60.666 -12.833 -87.999 -38.5s-56 -68.834 -86 -129.501l49 -28c19.333 32.667 37.833 55.5 55.5 68.5s38.167 19.5 61.5 19.5c13.333 0 28.166 -3.16699 44.499 -9.5s40.166 -17.5 71.499 -33.5c26 -14 46.833 -23.333 62.5 -28s32.5 -7 50.5 -7
c38 0 71.333 13.667 100 41s56.667 72.333 84 135zM1286 600.001c-35.333 -48 -72.502 -94.832 -111.502 -140.499s-78.167 -88.667 -117.5 -129s-78.833 -76.833 -118.5 -109.5s-77.167 -60 -112.5 -82c-32 -18.667 -67 -33.5 -105 -44.5s-74.667 -16.5 -110 -16.5
c-15.333 0 -28.166 0.666992 -38.499 2s-24.833 5.33301 -43.5 12c52.667 36.667 104.667 83 156 139s96.5 114.833 135.5 176.5s70.5 123.167 94.5 184.5s36 116 36 164c0 140.667 -74.667 211 -224 211c-64 0 -124.333 -11.667 -181 -35s-115 -59 -175 -107
c-56 -44.667 -107.167 -94.334 -153.5 -149.001s-86.666 -110.667 -120.999 -168s-60.666 -114 -78.999 -170s-27.5 -108 -27.5 -156c0 -65.333 18.5 -115.833 55.5 -151.5s88.833 -53.5 155.5 -53.5c38 0 74.167 4.16699 108.5 12.5s78.166 22.833 131.499 43.5
c22.667 -14 41.5 -23 56.5 -27s36.833 -6 65.5 -6c104 0 211.667 40.333 323 121s234 207 368 379zM719 723.002c0 -53.333 -6.16895 -109.333 -18.502 -168s-28.666 -115.667 -48.999 -171s-44.5 -106.833 -72.5 -154.5s-58.333 -87.167 -91 -118.5
c-92 42 -138 125.667 -138 251c0 64.667 9 129 27 193s43.333 122 76 174c28.667 46.667 58.334 83 89.001 109s59.667 39 87 39c60 0 90 -51.333 90 -154zM577.998 911.002l-7.99902 -18.002c-37.333 -19.333 -72.333 -49.166 -105 -89.499s-61.334 -86.333 -86.001 -138
s-44.5 -106.5 -59.5 -164.5s-22.5 -115 -22.5 -171c0 -54.667 7.16699 -102.5 21.5 -143.5s37.166 -79.167 68.499 -114.5c-16 -6 -29.667 -9 -41 -9c-43.333 0 -78 19.833 -104 59.5s-39 93.167 -39 160.5c0 50 8.5 105.833 25.5 167.5s40.5 123.167 70.5 184.5
c50.667 104 109.334 180.333 176.001 229c15.333 11.333 29.833 20.333 43.5 27s33.5 13.334 59.5 20.001z" />
    <glyph glyph-name="divide" unicode="&#xf7;" horiz-adv-x="1706" 
 />
    </font>
</defs>
</svg>
