<svg xmlns="http://www.w3.org/2000/svg">
<defs>
<font id="UTMAlpineKT" horiz-adv-x="2132" >
  <font-face 
    font-family="UTM Alpine KT"
    font-weight="400"
    font-stretch="normal"
    units-per-em="2048"
    panose-1="2 4 6 3 5 5 6 2 2 4"
    ascent="1638"
    descent="-410"
    x-height="973"
    cap-height="1797"
    bbox="-4061.13 -955.78 6029 2322"
    underline-thickness="109"
    underline-position="-143"
    unicode-range="U+0020-U+2026"
  />
<missing-glyph horiz-adv-x="6492" 
d="M4170 1804l11 -0.000976562c29.334 -7.33301 44 -25.666 44 -54.999c0 -8 -12.666 -28 -38 -60h-33c0 17.333 11 36.333 33 57l3 11c-4 8.66699 -8 13.667 -12 15h-11c-6 0 -9.66602 -6.66699 -11 -20h-35c4.66602 34.667 21 52 49 52zM2613 1774l34 -33
c0 -11.333 -15.667 -22 -47 -32h-22l-69 13l-13 -13l-33 27c8.66699 20 25.667 30 51 30h12l49 -11h3c7.33301 0 19 6.33301 35 19zM800 1736h166v-63h-109v-79h104v-62h-104v-136l-6 -6h-58v340zM1603 1736h51l6 -6v-82h35v-54h-35v-198l-6 -6h-58v204h-29v54h29v82z
M2148 1736h49l5 -6v-99h3c18 17.333 39 26 63 26h3c44.667 0 76.667 -25 96 -75l3 -41v-151h-61v121c0 56.667 -16.333 85 -49 85h-8c-33.333 0 -50 -30.333 -50 -91v-115h-60v340zM2825 1736l57 -0.000976562l6 -6v-233c7.33301 -36 24.666 -54 52 -54
c34.667 5.33301 52 26 52 62v225l5 6h58v-228c0 -59.333 -25.667 -98.666 -77 -117.999c-12 -5.33301 -25.667 -8 -41 -8c-36.667 0 -68.667 19.333 -96 58c-10.667 16.667 -16 36.667 -16 60v236zM3099 1736h186v-63h-66v-283h-62v283h-64v57zM3317 1736h83
c5.33301 -3.33301 37.333 -91.333 96 -264h3l93 264h85v-346h-63v255h-2l-86 -255h-52c-3.33301 0 -26 64 -68 192l-22 63h-3v-255h-64v346zM4647 1736h61v-346h-52l-6 6v11l3 2l-3 15c-22.666 -28 -53 -42 -91 -42c-52 0 -91 32 -117 96l-6 41v3c0 66 35.666 110 107 132
l27 3c27.334 0 52 -11.333 74 -34h3v113zM2657 1681l42 -0.000976562l5 -6v-52h-52v-233h-57v25c-18 -22 -41 -33 -69 -33c-69.333 10 -104 44 -104 102v164h60v-109c0 -55.333 10 -85.666 30 -90.999l22 -5h6c20.667 0 36 12.667 46 38l3 27v140h63v27zM4316 1681v-58h-36

<glyph glyph-name=".notdef" horiz-adv-x="6492" 
d="M4170 1804l11 -0.000976562c29.334 -7.33301 44 -25.666 44 -54.999c0 -8 -12.666 -28 -38 -60h-33c0 17.333 11 36.333 33 57l3 11c-4 8.66699 -8 13.667 -12 15h-11c-6 0 -9.66602 -6.66699 -11 -20h-35c4.66602 34.667 21 52 49 52zM2613 1774l34 -33
c0 -11.333 -15.667 -22 -47 -32h-22l-69 13l-13 -13l-33 27c8.66699 20 25.667 30 51 30h12l49 -11h3c7.33301 0 19 6.33301 35 19zM800 1736h166v-63h-109v-79h104v-62h-104v-136l-6 -6h-58v340zM1603 1736h51l6 -6v-82h35v-54h-35v-198l-6 -6h-58v204h-29v54h29v82z
M2148 1736h49l5 -6v-99h3c18 17.333 39 26 63 26h3c44.667 0 76.667 -25 96 -75l3 -41v-151h-61v121c0 56.667 -16.333 85 -49 85h-8c-33.333 0 -50 -30.333 -50 -91v-115h-60v340zM2825 1736l57 -0.000976562l6 -6v-233c7.33301 -36 24.666 -54 52 -54
c34.667 5.33301 52 26 52 62v225l5 6h58v-228c0 -59.333 -25.667 -98.666 -77 -117.999c-12 -5.33301 -25.667 -8 -41 -8c-36.667 0 -68.667 19.333 -96 58c-10.667 16.667 -16 36.667 -16 60v236zM3099 1736h186v-63h-66v-283h-62v283h-64v57zM3317 1736h83
c5.33301 -3.33301 37.333 -91.333 96 -264h3l93 264h85v-346h-63v255h-2l-86 -255h-52c-3.33301 0 -26 64 -68 192l-22 63h-3v-255h-64v346zM4647 1736h61v-346h-52l-6 6v11l3 2l-3 15c-22.666 -28 -53 -42 -91 -42c-52 0 -91 32 -117 96l-6 41v3c0 66 35.666 110 107 132
l27 3c27.334 0 52 -11.333 74 -34h3v113zM2657 1681l42 -0.000976562l5 -6v-52h-52v-233h-57v25c-18 -22 -41 -33 -69 -33c-69.333 10 -104 44 -104 102v164h60v-109c0 -55.333 10 -85.666 30 -90.999l22 -5h6c20.667 0 36 12.667 46 38l3 27v140h63v27zM4316 1681v-58h-36
v-233h-55v27h-3c-11.334 -23.333 -33.334 -35 -66 -35c-53.333 0 -87 27.333 -101 82l-3 31v153h60v-126c0 -35.333 7.66602 -59 23 -71l24 -8h11c32.666 0 49 24.333 49 73v132h31c3.33398 0 5 10 5 30l3 3h58zM1139 1657c53.333 0 93.666 -26.999 120.999 -80.999
c6.66699 -12.667 11.334 -31.667 14.001 -57c0 -62 -35 -106.667 -105 -134l-38 -3c-48.667 0 -88 25.667 -118 77c-9.33301 15.333 -14 33.666 -14 54.999v10c0 66 39.333 110.333 118 133h22zM1435 1657h3c58 0 90.667 -35.667 98 -107v-160h-60v126
c0 53.333 -16.333 80 -49 80h-6c-34 0 -51 -26.667 -51 -80v-126h-61v258h54v-22c22.667 20.667 46.667 31 72 31zM1967 1657h8.00098c56 0 97 -31.333 123 -94h-71c-12 22 -28.333 33 -49 33h-19c-42 -10 -63 -31.333 -63 -64l-3 -16c9.33301 -48.667 33 -73 71 -73h11
c17.333 0 35.666 9.66699 54.999 29h47l2 3h3l3 -3l2 3l3 -3l3 3l2 -8c-25.333 -56.667 -68 -85 -128 -85c-59.333 0 -102.333 33 -129 99l-5 38v3c0 59.333 30 101.333 90 126c12 6 26.667 9 44 9zM3924 1657l2 -0.000976562c38.667 0 66 -21 82 -63v-15h-60
c0 11.333 -6.33301 17 -19 17h-5c-10.667 0 -18 -4.66699 -22 -14v-14c0 -6 26.333 -18 79 -36c24 -13.333 36 -34.333 36 -63c0 -40.667 -24 -68.667 -72 -84l-27 -3c-58.667 8.66699 -88 37.667 -88 87h63c0 -14 10.333 -22.667 31 -26h5c14.667 0 24 8 28 24
c0 15.333 -26.667 31 -80 47c-26 18.667 -39 39.334 -39 62.001c0 46 28.667 73 86 81zM5165 1657c43.334 0 73.333 -22.332 89.999 -66.999c5.33398 -12.667 8 -35.334 8 -68.001v-132h-60v118c0 58.667 -15.666 88 -47 88h-13c-25.334 0 -41 -19 -47 -57v-149h-60v6h-3
l3 2v250h55v-22c19.334 20.667 44.001 31 74.001 31zM5433 1657l6 0.000976562c31.334 0 58 -14 80 -42v19l-3 3l3 11h55v-219c0 -68 -33 -114 -99 -138l-39 -5h-8c-54 0 -94.334 28.333 -121 85h69c18.666 -16 36 -24.333 52 -25h16c16.666 0 33.333 7.66699 50 23
c11.334 9.33301 19.667 27.666 25 54.999h-3c-25.334 -28 -53.667 -42 -85 -42c-44.666 0 -82.333 24.667 -113 74c-7.33398 12.667 -12.667 34.667 -16 66c0 62 34 106 102 132zM4754 1648h62v-143c4.66602 -41.333 20.333 -62 47 -62h8c35.334 0 53 32.667 53 98v107h60
v-258h-55l-3 11h3l-3 3v5l3 3v3h-5c0 -16 -22 -27 -66 -33h-3c-46 0 -79 26.333 -99 79l-2 89v98zM1060 1516c8 -48.667 32.332 -73 72.999 -73h9c46 10 69 32.667 69 68v16c-10.667 46 -33.667 69 -69 69h-6c-45.333 0 -70.666 -26.667 -75.999 -80zM4496 1519
c10 -50.667 33.667 -76.001 71.001 -76.001h6c45.334 0 71 26.333 77 79c0 34.667 -20 59.334 -60 74.001h-25c-29.334 0 -51.334 -20 -66.001 -60zM5365 1519c6 -50.667 31.334 -76.001 76 -76.001h6c46 8.66699 69 34 69 76c0 42.667 -23 68.334 -69 77.001h-16
c-44 -11.333 -66 -33.333 -66 -66v-11zM4844 1357h61v-60h-61v60zM1485 1127c34 -7.33301 51 -24.333 51 -51v-4c0 -12 -12.667 -33 -38 -63h-33c0 17.333 12 37.333 36 60v7c0 8.66699 -2.66699 14 -8 16h-14c-7.33301 -3.33301 -11 -10 -11 -20h-33v6
c0 22.667 12.667 38 38 46zM4167 1061c72 0 126 -34.667 162 -104h-71c-28.666 29.333 -59.666 44 -93 44c-42.666 0 -76.666 -23.667 -102 -71c-7.33301 -15.333 -11 -32 -11 -50c0 -54.667 31.333 -93 94 -115l21 -2c28 0 57.334 13.667 88 41h71
c-34 -68 -87.666 -102 -161 -102c-72.667 0 -127.667 39.333 -165 118c-7.33301 22 -11 44 -11 66c0 68 35 121 105 159c22 10.667 46.334 16 73 16zM4535 1061c44.666 0 85 -16.333 121 -49c36 -36 54 -76.333 54 -121v-21c0 -62.667 -35.666 -114 -107 -154
c-25.334 -9.33301 -50 -14 -74 -14c-68.666 0 -122.333 35.667 -161 107c-10 22.667 -15 43.667 -15 63v19c0 68.667 38.334 121.667 115 159c22 7.33301 44.334 11 67 11zM2896 1059h2l55 -11h3c8.66699 0 19 3.66699 31 11l21 -38c-14 -13.333 -27.667 -20 -41 -20h-3
l-63 11l-24 -8l-23 38c14 11.333 28 17 42 17zM1090 1056h22c92 0 142.333 -9 151 -27c19.333 -18.667 29 -40.667 29 -66c-7.33301 -40 -19 -60 -35 -60v-6c36.667 -16 55 -39 55 -69v-19c0 -44.667 -26.667 -75.667 -80 -93l-63 -5h-79v345zM3233 1056l63 0.000976562
v-228c4 -43.333 21.333 -65 52 -65c22.667 0 40 13.667 52 41l3 32v214l5 6h52l6 -6v-180c0 -82.667 -15.667 -129.334 -47 -140.001c-18.667 -18.667 -43.334 -28 -74 -28c-43.333 0 -79 26.667 -107 80l-5 57v217zM3532 1056l68 0.000976562c3.33301 0 51 -83 143 -249h5
v249h58l5 -6v-339h-68c-22.667 33.333 -71.334 116.666 -146 249.999h-3v-250h-62v345zM3877 1056h63v-345h-63v345zM4763 1056h10c120.666 0 188.333 -14 203 -42c18 -8 36.334 -34.333 55 -79l5 -38v-11l3 -3c0 -66 -32 -118 -96 -156
c-27.334 -10.667 -65.667 -16 -115 -16h-65v345zM5093 1056h179v-63h-121v-79h118v-60h-118v-78l5 -5h116v-60h-184v339zM4417 888.999v-11c0 -53.333 31 -91 93 -113l22 -2c52.666 0 90 30.333 112 91l3 21v16c0 42.667 -23 75.667 -69 99
c-9.33398 5.33301 -24.667 9 -46 11c-51.334 0 -88.667 -29 -112 -87zM1153 992.999v-71h11c42 0 63 10 63 30l3 14c-8 18 -19.333 27 -34 27h-43zM4825 992.999v-217l3 -3v-2c80.666 0 128 26.667 142 80l3 16v30c0 24 -12.666 48 -38 72c-19.334 16 -49.667 24 -91 24h-19
zM1470 976.999h6c29.333 0 57 -14 83 -42v34h57v-258h-57v33c-28 -28 -59.333 -42 -94 -42c-58 0 -97.333 34 -118 102l-5 38c0 62.667 33 106.667 99 132zM1789 976.999h3c58 0 90.667 -35.667 98 -107v-159h-60v134c0 47.333 -16.333 71 -49 71h-12
c-26.667 0 -42 -21.667 -46 -65v-140h-60v258h55v-23c21.333 20.667 45 31 71 31zM2057 976.999h5.99805c34.667 0 62 -14 82 -42v34h55v-231c0 -66.667 -40.333 -110.667 -121 -132h-19c-57.333 0 -99.333 28.667 -126 86h69c20 -17.333 37 -26 51 -26h17
c40.667 0 65.334 27 74 81c-25.333 -30 -54.666 -45 -87.999 -45c-47.333 0 -86.666 28.667 -117.999 86l-8 46v17c0 55.333 33 96.333 99 123zM2488 976.999l2 0.000976562c33.333 0 57 -13 71 -39h3c24.667 26 51.334 39 80 39h5c44.667 0 75.667 -19.333 93 -58
c6 -17.333 9 -33 9 -47v-161h-61v145c0 30.667 -9 50 -27 58l-14 2h-17c-25.333 0 -39.666 -22.667 -43 -68v-137h-60v143c0 41.333 -16.667 62 -50 62h-10c-24.667 0 -38.667 -20 -42 -60v-145h-63v258h58v-23h3c4.66699 17.333 25.667 27.666 63 30.999zM2920 977
c36.667 0 66 -14.667 88 -44v36h55v-258h-55v33c-28 -28 -58.333 -42 -91 -42c-58 0 -98 32.333 -120 97l-6 43c0 63.333 33 107.333 99 132zM1405 828c0 -34 23.667 -55.667 71 -65h5c34.667 0 58.667 16.333 72 49l3 16v23c-9.33301 43.333 -31.333 65 -66 65h-17
c-31.333 0 -54 -20 -68 -60v-28zM1991 839c0 -33.333 16.667 -57 50 -71l22 -5h5c36.667 0 61.334 20 74 60v25c-8.66699 45.333 -31.334 68 -68 68h-14c-38.667 0 -61.667 -25.667 -69 -77zM2854 842v-14.001c11.333 -43.333 33.333 -65 66 -65h17
c45.333 8.66699 68 31.334 68 68.001v11c0 32 -14.667 55 -44 69l-21 5h-11c-50 -5.33301 -75 -30 -75 -74zM1153 861.999v-86c0 -3.33301 2.66699 -5 8 -5c60 0 90 15.667 90 47c0 24 -18.333 38.667 -55 44h-43zM3720 444.999l28 -30l-60 -58
c-14 8.66699 -24.333 18 -31 28zM2035 416.999l99 -57.001c0 -10 -8.33301 -24.667 -25 -44l-101 57c14 28.667 23 43.334 27 44.001zM3584 380.998h44l65 -63h-63l-25 28l-27 -28h-63c42 42 65 63 69 63zM4253 380.998h46l66 -63h-63l-28 28h-2
c0 -4 -7.33398 -13.333 -22 -28h-63zM979.998 372.998h61c6 -2.66699 24.333 -50.667 55 -144l40 -116c6.66699 6 19.667 41 39 105l57 155h63v-2l-131 -343h-52zM1608 372.998h60v-57h-60v57zM1836 372.998h54l6 -5v-340h-60v345zM2961 372.998h53l5 -5v-82h36v-55h-36
v-203h-63v203h-30v55h30v82zM3087 372.998h61v-103h2c18 16 39.333 24 64 24h3c44.667 0 76.334 -24.667 95 -74l3 -41v-151h-60v121c0 56.667 -15.333 85 -46 85h-12c-32.667 0 -49 -30.333 -49 -91v-115h-61v345zM3367 372.998h60v-57h-60v57zM3792 372.998h52l6 -5v-82
h35v-55h-35v-203h-63v203h-31v55h31v82zM4033 372.998h61v-345h-61v345zM4878 372.998h60v-345h-60v345zM5297 372.998h60v-57h-60v57zM2071 293.998h6c64 0 106.667 -35.667 128 -107l3 -24v-12c0 -58 -33 -100 -99 -126l-41 -5c-59.333 0 -102.333 34 -129 102l-5 33
c0 68 36.333 113.667 109 137zM2370 293.998l5 -0.000976562c40.667 0 71 -21 91 -63c5.33301 -17.333 8 -45.666 8 -84.999v-118h-63v154c-6 34.667 -20.667 52 -44 52h-11c-30 0 -46.333 -20 -49 -60v-146h-63v258h57v-22c20 20 43 30 69 30zM2644 293.997l5 -0.000976562
c35.333 0 60 -13.667 74 -41h3v33h57v-217c0 -71.333 -34.667 -118.666 -104 -141.999l-32 -3h-6c-56.667 0 -98 28.333 -124 85h61l43 -21l18 -3h16c39.333 0 63 25.333 71 76c-25.333 -27.333 -53.666 -41 -85 -41c-48 0 -86.333 26.667 -115 80c-8 16 -12.667 37 -14 63
c0 59.333 33.667 102.333 101 129zM3603 293.996h2c64 0 107.333 -36.333 130 -109l2 -27l-2 -28h-201c11.333 -31.333 28.666 -47 52 -47l17 -3c22.667 0 41.667 7.66699 57 23h67v-3c-27.333 -53.333 -69.666 -80 -127 -80c-59.333 0 -102.333 34 -129 102l-2 29v9
c0 34 12.667 65 38 93c26.667 27.333 58.667 41 96 41zM4261 293.996h5c32 0 59.334 -13.667 82 -41h3v33h55v-258h-55v33h-3c-26.666 -27.333 -56.666 -41 -90 -41c-55.334 0 -94.667 31 -118 93l-5 38v15c0 60 32.666 102 98 126zM4590 293.996h8
c68.666 0 110.666 -44.667 126 -134l-3 -2v-15c0 -46 -25.666 -83.333 -77 -112c-16 -7.33301 -34 -11 -54 -11c-26.666 0 -51.666 11 -75 33v-104l-5 -5h-58v342h58v-30c24 25.333 50.666 38 80 38zM5105 293.996c34 0 63 -13.667 87 -41v33h58v-258h-58v33
c-27.334 -27.333 -57.334 -41 -90 -41c-71.334 0 -113.334 46 -126 138c0 59.333 28.334 102 85 128c12 5.33301 26.666 8 44 8zM1331 285.996l58 -0.000976562v-143c2.66699 -42 19 -63 49 -63h6c34.667 0 52 30.333 52 91v115h60v-258h-55v25h-5c0 -16 -22 -27 -66 -33h-3
c-42.667 0 -74.667 23.667 -96 71c-3.33301 24.667 -5 59.334 -5 104.001v86zM1608 285.995h60v-258h-60v258zM3367 285.995h60v-258h-60v258zM5297 285.995h60v-258h-60v258zM1997 165.995v-17c10 -46 33 -69 69 -69h5c46 0 71.667 26.667 77 80c-10 49.333 -33 74 -69 74
h-13c-46 -11.333 -69 -34 -69 -68zM2575 148.995c12 -46 35 -69 69 -69h13c37.333 0 60.333 26 69 78v2c-10 49.333 -33 74 -69 74h-16c-30.667 0 -52.667 -20 -66 -60v-25zM3532 184.995h142v2c-12.667 31.333 -35.667 47 -69 47h-8c-27.333 0 -49 -16.333 -65 -49z
M4195 150.995c10 -47.333 33.666 -71 71 -71h6c40.666 0 66 22 76 66v12c-7.33398 50.667 -29.334 76 -66 76h-19c-43.334 -10 -65 -32 -65 -66zM4510 154.995c9.33398 -50 33 -75 71 -75h3c39.334 0 65 21 77 63v23c0 30 -19.334 52.667 -58 68h-25
c-36.666 0 -59.333 -25.333 -68 -76v-3zM5039 148.995c8 -46 33.666 -69 77 -69c33.334 0 57 16.667 71 50l3 16v17c0 38 -20.334 61.667 -61 71h-21c-32.666 0 -55.666 -21 -69 -63v-22zM4245 -10.0049h60v-55h-60v55zM5088 -10.0049h60v-55h-60v55zM3447 -208.005
l5 0.000976562c27.333 0 44 -17.333 50 -52v-2c0 -11.333 -9.33301 -26 -28 -44l-11 -17h-33c0 17.333 11 36.666 33 57.999l3 3v2c-2.66699 13.333 -6.33398 20 -11 20h-11c-6 0 -9.66699 -6.66699 -11 -20h-35c4.66699 34.667 21 52 49 52zM2060 -226.004l61 -63l-31 -20
l-60 55zM664.998 -265.004h5c58 -33.333 91 -54.333 99 -63l-24 -39c-68 34.667 -102 55 -102 61zM4332 -265.004l101 -60l-22 -42c-7.33398 0 -42.667 19.333 -106 58c12 25.333 21 40 27 44zM5603 -268.004l23 -44l-107 -55l-23 42l107 60v-3zM1660 -292.004h60v-20l6 -5
h16v-38h-16l-6 -5v-294h-54v33c-26 -28 -57.333 -42 -94 -42c-56 0 -96 36.667 -120 110l-3 28c0 71.333 39.333 117 118 137h16c26 0 51.667 -11.333 77 -34v62l-6 5h-51v38h57v25zM1983 -300.004h47l65 -64h-62l-27 28l-26 -28h-63zM3340 -300.004h38
c9.33301 0 34 -21.333 74 -64h-63l-27 28c-14.667 -14.667 -22 -24 -22 -28h-68v4zM310.998 -309.004h187v-63h-66v-282h-58l-5 6v257l3 3v2l-3 3l3 3l-3 2l3 3l-3 3h-63v57zM1070 -309.004h55v-77l3 -2l-3 -3v-3l3 -2l-3 -3v-3l3 -2v-3l-3 -3l3 -3h3
c13.333 16.667 33.333 25 60 25h3c41.333 0 71.333 -20.333 90 -61c5.33301 -12 8 -26.667 8 -44v-161h-60v134c0 47.333 -15.667 71 -47 71h-10c-33.333 0 -50 -30 -50 -90v-115h-60v339zM1769 -309.004h55l6 -6v-52h-61v58zM2575 -309.004l61 0.000976562v-208l82 121h73
l-92 -124l106 -132v-2h-82c-8 15.333 -37 55.666 -87 120.999v-121h-61v345zM2907 -309.003v-104c18.667 16.667 39.334 25 62 25c44.667 0 76 -19.333 94 -58c7.33301 -14 11 -41.333 11 -82v-126h-63v140c0 43.333 -15.667 65 -47 65h-13c-24.667 0 -39.334 -19 -44 -57
v-148h-61v331l-2 3v3l2 2l-2 3l2 3h61zM3126 -309.003h60v-58h-60v58zM3932 -309.003h60v-113c21.333 22.667 48 34 80 34h3c58.666 0 99.666 -33 123 -99l5 -38c0 -52.667 -24.666 -95 -74 -127c-23.334 -7.33301 -42.334 -11 -57 -11c-32 0 -60.333 14 -85 42v-33h-55v345
zM5250 -309.003h60v-104h3c17.334 16.667 38.334 25 63 25h3c46.666 0 78.666 -25.667 96 -77l2 -44v-145h-60v117c0 57.333 -12.666 86 -38 86l-11 2h-14c-29.334 0 -44 -28 -44 -84v-121h-60v345zM637.998 -388.003h3.00098v-61h-6c-32.667 0 -49 -20 -49 -60v-145h-61
v258h55v-22c13.333 20 32.666 30 57.999 30zM911.999 -388.003c56 0 89.667 -30.333 101 -91v-175h-60v143c-4 41.333 -19.667 62 -47 62h-8c-34.667 0 -52 -29.333 -52 -88v-117h-61v258h58v-22c20 20 43 30 69 30zM2011 -388.003c56 0 97 -33 123 -99l6 -41
c-2 -16.667 -5 -25 -9 -25h-197c13.333 -32.667 37.333 -49 72 -49c19.333 0 38.333 7.33301 57 22h66c-26 -55.333 -68 -83 -126 -83c-64 0 -108 36.667 -132 110v39c0 56.667 34.667 97.667 104 123zM3359 -388.003l5 -0.000976562c60 0 102 -34 126 -102l3 -27v-22
l-3 -14h-199c14 -32.667 34.667 -49 62 -49h14c16 0 32.333 7.33301 49 22h69c-26.667 -55.333 -67.667 -83 -123 -83c-65.333 0 -110 35.667 -134 107l-3 31c0 64.667 35.667 109.334 107 134.001zM3660 -388.004h5c42 0 72.333 -21 91 -63c5.33301 -17.333 8 -46 8 -86
v-117h-63v145c0 34 -13.667 54 -41 60h-13c-29.333 0 -46 -20 -50 -60v-145h-63v258h58v-22c19.333 20 42 30 68 30zM4353 -388.004h7.00098c31.334 0 58.667 -14 82 -42h2v34h55v-258h-55v33h-2c-26.666 -28 -57 -42 -91 -42c-55.334 0 -94.667 31.333 -118 94l-5 39v13
c0 57.333 30 98.333 90 123c8.66602 4 20.332 6 34.999 6zM4672 -388.004h5c48 0 80 -27.333 96 -82l3 -88v-96h-63v145c0 34 -14.666 54 -44 60h-11c-29.334 0 -45.667 -18 -49 -54v-151h-63v258h57v-22c20 20 43 30 69 30zM5083 -388.004h2
c57.334 0 97.667 -32.333 121 -97l5 -43c0 -61.333 -32.666 -105.333 -98 -132l-30 -3c-32 0 -58.334 12 -79 36v-112h-61v343h55v-31c23.334 26 51.667 39 85 39zM5762 -388.004h6c26.666 0 51.333 -13 74 -39c20.666 26 47.333 39 80 39h8c43.334 0 74 -23 92 -69l7 -54
v-143h-61v129c0 50.667 -15.334 76 -46 76h-8c-27.334 0 -43 -17.333 -47 -52v-147l-6 -6h-57v148c0 29.333 -12 48.333 -36 57h-19c-31.334 0 -47 -27 -47 -81v-124h-60v258h55v-22c17.334 20 39 30 65 30zM673 -396.004h57l6 -6v-246l-6 -6h-57v258zM1769 -396.004h61
v-258h-61v258zM2181 -396.004h60v-143c3.33301 -42 20 -63 50 -63h5c34.667 0 52 28.333 52 85v121h60v-258h-54v25h-6c-9.33301 -22.667 -32.333 -34 -69 -34c-40.667 0 -71.667 22 -93 66c-3.33301 8.66699 -5 20.667 -5 36v165zM3126 -396.004h60v-258h-60v258z
M5530 -396.004h60v-258h-60v258zM1512 -525.004c0 -37.333 20 -62.999 60 -76.999h14c42 0 67.667 23 77 69v11c0 37.333 -21 61.666 -63 72.999h-20c-30 0 -52.667 -20 -68 -60v-16zM1934 -498.003h143c-14.667 32.667 -35.667 49 -63 49h-8
c-33.333 0 -57.333 -15.333 -72 -46v-3zM3291 -498.003h142c-16 32.667 -37 49 -63 49h-8c-36 0 -59.667 -16.333 -71 -49zM3989 -514.003v-11c7.33301 -51.333 31 -77 71 -77h6c49.334 5.33301 74 30 74 74v6c0 31.333 -14.666 54 -44 68l-21 5h-17
c-46 -9.33301 -69 -31 -69 -65zM4288 -530.003c10.666 -48 34.666 -72 72 -72h13c32 0 55 21 69 63v14c-6.66602 50.667 -28.666 76 -66 76h-20c-36 0 -58.666 -25.333 -68 -76v-5zM5001 -514.003v-22.999c0 -32.667 22.666 -54.334 68 -65.001h11
c38.666 0 62.333 26.667 71 80c-10 48.667 -32.666 73 -68 73h-17c-43.334 -11.333 -65 -33 -65 -65z" />
    <glyph glyph-name="space" unicode=" " horiz-adv-x="600" 
 />
    <glyph glyph-name="exclam" unicode="!" horiz-adv-x="1337" 
d="M1114 1907c76 0 151 -61.667 225 -185v-27c0 -53.333 -90.333 -172 -271 -356c-422 -447.333 -633 -768.333 -633 -963c0 -12 11 -29.667 33 -53l-20 -20c-102.667 0 -162 68.333 -178 205v20c0 134.667 195.667 436 587 904c171.333 230 257 364 257 402l-13 66l7 7h6z
M178 244h12.999c72.667 0 114.334 -44 125.001 -132c0 -84.667 -57 -133 -171 -145c-92.667 17.333 -139 61.333 -139 132v26c0 63.333 57.333 103 172 119z" />
    <glyph glyph-name="quotedbl" unicode="&#x22;" horiz-adv-x="705" 
d="M543 1554c88.667 -25.333 133 -59.6689 133 -103.002v-12c-87.333 -116 -190 -202.333 -308 -259c0 -7.33301 -18 -13.666 -54 -18.999l-6 6v6c0 12.667 72.333 131.334 217 356.001c2 16.667 8 25 18 25zM235 1517c46 0 90.333 -30 133 -90v-12
c-25.333 -73.333 -126 -164 -302 -272l-60 -18l-6 6v6c-0 13.333 72.333 134 217 362z" />
    <glyph glyph-name="numbersign" unicode="#" horiz-adv-x="1467" 
d="M830 1528c48 0 96 -43.666 144 -130.999v-6c0 -48 -77 -154.333 -231 -319l-19 -25h6l325 -6c187.333 249.333 281 393 281 431l-7 56h7c57.333 0 107 -45.667 149 -137c0 -53.333 -87.333 -172 -262 -356v-6h169c32 0 52.667 -10.667 62 -32v-6
c0 -20.667 -85.333 -31 -256 -31h-37c-15.333 -10.667 -61 -71 -137 -181h268c62.667 -4 94 -16.667 94 -38c0 -24.667 -145.667 -43.334 -437 -56.001c-170.667 -241.333 -256 -391 -256 -449l25 -44l-13 -12c-62 0 -99.333 41.667 -112 125v12
c0 44 66.667 162.667 200 356v6l-356 -12h-6c-150.667 -197.333 -232 -339 -244 -425v-6c0 -14 6.33301 -28.667 19 -44c0 -8 -6.33301 -12 -19 -12c-58 0 -93.333 45.667 -106 137c0 38 64.667 152.333 194 343h-7l-131 -6c-91.333 7.33301 -137 47 -137 119v25l12 12
c54.667 -20.667 111 -31 169 -31h175l112 168h-281c-74.667 10 -112 47.667 -112 113v31l12 12c101.333 -33.333 257.333 -50 468 -50v7c179.333 234.667 269 378 269 430l-6 32l6 6h6zM512 779.001h356l112 162v6h-337z" />
    <glyph glyph-name="dollar" unicode="$" horiz-adv-x="1319" 
d="M1095 1528l18.999 -0.000976562c91.333 -18 137 -55.667 137 -113v-12c0 -47.333 -39.667 -101.333 -119 -162c100 -26 150 -76 150 -150c-32 -112.667 -131.667 -169 -299 -169h-13c-50 0 -75 8.33301 -75 25v7c3.33301 14 82.333 41 237 81
c29.333 18.667 44 37.334 44 56.001c-33.333 20.667 -83.333 31 -150 31h-6c-176 -163.333 -305 -298.666 -387 -405.999c50 -40 75 -75.333 75 -106c0 -98.667 -118.667 -181.667 -356 -249c-36 0 -63 -25 -81 -75c-32 -51.333 -50.667 -95 -56 -131l12 -56
c0 -11.333 -10.333 -22 -31 -32c-43.333 0 -78.666 33.333 -105.999 100c0 24 29.333 86.333 88 187h-7c-72 0 -117.667 35.667 -137 107c0 73.333 91.667 123 275 149h75l6 -6h6l75 100c-233.333 89.333 -350 153.666 -350 192.999l-18 63c15.333 70 84 136.667 206 200
c220 78.667 421.667 118 605 118l44 -6c61.333 80 103 140.333 125 181l-7 56zM245.999 928.999c10.667 -12 110.667 -62.001 300 -150.001c128 136.667 227.667 253 299 349h-6c-330.667 -43.333 -524 -103.666 -580 -180.999zM557.999 647.998l-106 -131h6
c83.333 33.333 125 64.333 125 93c-8 25.333 -16.333 38 -25 38zM133.999 472.998l-0.000976562 -6h69c64.667 0 110.334 25 137.001 75h-6c-133.333 -24 -200 -47 -200 -69z" />
    <glyph glyph-name="percent" unicode="%" horiz-adv-x="1253" 
d="M1065 1422c75.333 0 129.333 -50 162 -150v-6c0 -55.333 -50 -132.333 -150 -231c-590 -690 -885.333 -1100 -886 -1230c4 -20 14.333 -38.667 31 -56v-6l-12 -19c-96 14 -144 51.333 -144 112c0 122.667 281 534.667 843 1236c108 153.333 162 247 162 281l-13 62z
M515 1259c120.667 -46 181 -108.334 181 -187.001c-6 -96.667 -78.667 -227.667 -218 -393c-100.667 -100 -175.667 -150 -225 -150h-25c-108 22 -162 84.333 -162 187c0 136.667 116.667 303.334 350 500.001zM172 703.999v-31c0 -29.333 14.667 -44 44 -44h19
c80.667 0 186.667 114.333 318 343c20.667 48 31 94 31 138c-8 24.667 -20.333 37 -37 37c-97.333 0 -216 -120.667 -356 -362zM927 528.999c120.667 -46.667 181 -109 181 -187c0 -105.333 -95.667 -259.333 -287 -462c-74.667 -54 -130.667 -81 -168 -81h-13
c-86 0 -142 60.333 -168 181c0 122.667 97.667 274.667 293 456c60 51.333 114 82.333 162 93zM578 -57.001c14.667 -29.333 31.333 -44.001 50 -44.001c100.667 0 217 127 349 381c12.667 33.333 19 62.333 19 87c-3.33301 33.333 -20 50 -50 50
c-118 -32 -230.333 -148.667 -337 -350c-20.667 -41.333 -31 -82.666 -31 -123.999z" />
    <glyph glyph-name="ampersand" unicode="&#x26;" horiz-adv-x="1489" 
d="M1229 1684c86.667 0 154.667 -63.666 204 -190.999l6 -32c0 -137.333 -214.333 -330.333 -643 -579c-30 0 -45 -53 -45 -159v-83c0 -60.667 6.33301 -120 19 -178l121 121c-34 39.333 -51 77.333 -51 114v32l20 19l44 -13l331 32c98 -11.333 147 -30.333 147 -57v-19
c0 -8.66699 -63.667 -19.334 -191 -32.001c-136 -35.333 -204 -63 -204 -83l-172 -242v-6c60 -102 121.667 -153 185 -153l127 38l6 -6c0 -86 -61.333 -145.333 -184 -178h-26c-79.333 0 -153.666 61.333 -222.999 184c-134.667 -144 -257.667 -216 -369 -216h-13
c-170 0 -276 112.333 -318 337c0 203.333 203.667 394.333 611 573c0 153.333 61.667 321 185 503c117.333 140.667 261.666 232 432.999 274zM796 997.001c360.667 212.667 541 388.667 541 528c-124 0 -272.667 -106 -446 -318c-44 -63.333 -77.667 -133.333 -101 -210h6z
M153 258.001v-19c16 -64 47.667 -96 95 -96c101.333 0 237.333 72.333 408 217c-25.333 120 -42.333 253.667 -51 401c-301.333 -202 -452 -369.667 -452 -503z" />
    <glyph glyph-name="quotesingle" unicode="'" horiz-adv-x="399" 
d="M235 1517c46 0 90.333 -30 133 -90v-12c-25.333 -73.333 -126 -164 -302 -272l-60 -18l-6 6v6c-0 13.333 72.333 134 217 362z" />
    <glyph glyph-name="parenleft" unicode="(" horiz-adv-x="675" 
d="M1195 1812c76 -24 114.001 -64.3311 114.001 -120.998v-7c0 -32.667 -31.667 -51.667 -95 -57c-126.667 -40.667 -309.334 -172.334 -548.001 -395.001c-352 -362 -528 -712.333 -528 -1051l6 -165l-19 -13c-80.667 0 -121 87 -121 261v19
c0 415.333 242 837.666 726 1267c226 174.667 381 262 465 262z" />
    <glyph glyph-name="parenright" unicode=")" horiz-adv-x="1200" 
d="M909 1761l25 0.000976562c62 0 98 -87 108 -261v-20c0 -388.667 -157 -779 -471 -1171c-220 -229.333 -411 -344 -573 -344c-17.333 6 -30 16.667 -38 32c12 21.333 63 55.333 153 102c208 161.333 354.333 322.666 439 483.999c199.333 318.667 299 620 299 904l-38 197
c26 51.333 58 77 96 77z" />
    <glyph glyph-name="asterisk" unicode="*" horiz-adv-x="793" 
d="M607 1665l13.001 0.000976562c7.33301 0 18 -12.667 32 -38c0 -58.667 -61.667 -148 -185 -268c-6.66699 -18.667 -19.334 -33.334 -38.001 -44.001h-6c37.333 204 73.333 306 108 306c26.667 29.333 52 44 76 44zM353.001 1525
c38 -13.333 57.001 -34.668 57.001 -64.001v-70l-6 -95h-7c-60.667 32.667 -109.334 70.667 -146.001 114v26c0 46.667 34 76.334 102 89.001zM735.002 1525l19 -25c0 -58 -104 -126 -312 -204v6c130 148.667 227.667 223 293 223zM174.002 1359
c21.333 0 93.667 -23.333 217 -70v-12l-287 -70c-50.667 0 -76 19 -76 57c0 36 48.667 67.667 146 95zM716.003 1359c36 0 61.333 -12.667 76 -38v-25c-38.667 -59.333 -87.334 -89 -146.001 -89c-25.333 0 -97.666 23.333 -216.999 70v12zM410.003 1264l6 -0.000976562
c98 -54 147 -98.667 147 -134v-19c0 -39.333 -32 -64.666 -96 -75.999c-38 0 -57 31.667 -57 95v134zM372.003 1258c-130 -148.667 -225.667 -223 -287 -223c-16.667 6 -25 12.333 -25 19v6c0 69.333 104 135.333 312 198zM397.003 1258l0.000976562 -7
c0 -95.333 -29.667 -193 -89 -293c-34.667 -30 -66.334 -49 -95.001 -57c-26 0 -39 15 -39 45v6c0 48 74.333 150 223 306z" />
    <glyph glyph-name="plus" unicode="+" horiz-adv-x="1301" 
d="M1051 1254l32.999 0.000976562c17.333 0 28.666 -6.66699 33.999 -20v-4c0 -10.667 -69.333 -138.334 -208 -383.001h315c38.667 0 58 -6.33301 58 -19v-10c-20 -54.667 -52.333 -82 -97 -82h-344c-132 -248 -207.667 -382 -227 -402c-36 -12.667 -68.333 -19 -97 -19
c-28.667 3.33301 -43 9.66602 -43 18.999v5c4.66699 20 77 152.333 217 397h-343c-17.333 0 -28.666 6.33301 -33.999 19v5c21.333 58 55.333 87 102 87h338c126.667 234.667 202.667 365.334 228 392.001c24.667 10 47.334 15 68.001 15z" />
    <glyph glyph-name="comma" unicode="," horiz-adv-x="421" 
d="M266 286c72 -24.667 108 -48.666 108 -71.999v-36c-74.667 -98.667 -169 -189.334 -283 -272.001c-56 -32 -90.333 -48 -103 -48h-6l-12 12c26 50 116.667 186.667 272 410z" />
    <glyph glyph-name="hyphen" unicode="-" horiz-adv-x="696" 
d="M105 453h544.001c14.667 0 24 -5.33301 28 -16c-18.667 -50.667 -45.334 -76 -80.001 -76h-512c-34.667 0 -52 8 -52 24c23.333 45.333 47.333 68 72 68z" />
    <glyph glyph-name="hyphen" unicode="&#x2010;" horiz-adv-x="696" 
d="M105 453h544.001c14.667 0 24 -5.33301 28 -16c-18.667 -50.667 -45.334 -76 -80.001 -76h-512c-34.667 0 -52 8 -52 24c23.333 45.333 47.333 68 72 68z" />
    <glyph glyph-name="period" unicode="." horiz-adv-x="349" 
d="M176 208c72 -6.66699 108 -38.999 108 -96.999v-6c0 -63.333 -38 -99.333 -114 -108h-12c-68.667 7.33301 -103 41.333 -103 102v12c0 47.333 40.333 79.666 121 96.999z" />
    <glyph glyph-name="slash" unicode="/" horiz-adv-x="1270" 
d="M1042 1747c67.333 0 133.665 -52.334 198.998 -157.001l6 -24v-12c0 -56 -88.333 -170.667 -265 -344c-376 -428 -629.667 -750 -761 -966c-52 -89.333 -78 -153.666 -78 -192.999l30 -54v-6l-12 -12c-91.333 0 -143.666 58.333 -156.999 175v12
c0 80.667 259.333 454.667 778 1122c150.667 183.333 237.334 310 260.001 380l-12 73l6 6h6z" />
    <glyph glyph-name="zero" unicode="0" horiz-adv-x="1124" 
d="M1033 1693c110 -23.333 229.667 -102.332 359 -236.999c34 -74 51 -134 51 -180c0 -178.667 -126 -437.334 -378 -776.001c-264 -320.667 -493 -481 -687 -481c-172.667 0 -296.667 113.333 -372 340l-6 90v6c0 200 147.667 473.667 443 821c245.333 254 442 393 590 417
zM167 314.001c0 -102.667 40.667 -154 122 -154h25c200 0 465.333 261 796 783c89.333 174 134 304.333 134 391v39c0 81.333 -38.333 122 -115 122c-184 0 -427.667 -207.667 -731 -623c-154 -237.333 -231 -423.333 -231 -558z" />
    <glyph glyph-name="one" unicode="1" horiz-adv-x="550" 
d="M995 1680c73.333 -24.667 110 -65.665 110 -122.998v-6c0 -42.667 -82.333 -155.334 -247 -338.001c-497.333 -582.667 -746 -982.667 -746 -1200l-6 -7v-6c-69.333 32 -104 99 -104 201c0 171.333 149.333 441.666 448 810.999l292 383l-221 -123h-13l-13 13v13
c0 19.333 155.667 142.333 467 369z" />
    <glyph glyph-name="two" unicode="2" horiz-adv-x="1178" 
d="M1215 1668c124 0 230.668 -70.668 320.001 -212.001c21.333 -47.333 34.333 -96.666 39 -147.999c0 -124.667 -141 -304 -423 -538c-290 -214.667 -538 -368.667 -744 -462l-103 -51v-7h6c88 16 207.667 26.667 359 32c204 0 339 -30 405 -90l6 -32l-26 -12
c-118 25.333 -212 38 -282 38c-168 0 -371 -51.333 -609 -154l-45 -13c-44.667 0 -85.334 60 -122.001 180c0 44 117.667 125.333 353 244c714 460 1071 791.333 1071 994c0 30.667 -40.667 50 -122 58c-204 0 -422 -85.667 -654 -257
c-42.667 -36.667 -64 -64.334 -64 -83.001l6 -58h-32c-68.667 46 -103 108 -103 186c0 64.667 105 152.334 315 263.001c177.333 81.333 327 122 449 122z" />
    <glyph glyph-name="three" unicode="3" horiz-adv-x="1266" 
d="M1176 1670l6.00195 -0.00195312c178 0 291.333 -89 340 -267l7 -53c0 -192 -272.333 -355.333 -817 -490v-6c217.333 0 345.666 -69.667 384.999 -209l7 -66c0 -217.333 -180.667 -395.666 -542 -534.999c-40 -17.333 -120.667 -32.666 -242 -45.999
c-154 0 -258.333 61 -313 183l-7 59v6c18.667 78.667 36 118 52 118h7l6 -7h7l-7 -65c23.333 -70 80 -105 170 -105h26c230 0 454.333 107 673 321c30.667 51.333 46 90.333 46 117v13c0 68.667 -93.667 108 -281 118l-183 -13c-48 15.333 -72 32.666 -72 51.999v33
c8.66699 18.667 133 77.334 373 176.001c400.667 186 601 321 601 405c-20.667 48 -90.334 72 -209.001 72c-235.333 0 -455.333 -61 -660 -183l-26 -33v-19l6 -26l-19 -27c-48 0 -80.667 59 -98 177v6c0 95.333 176.333 187 529 275c80.667 12.667 159 19 235 19z" />
    <glyph glyph-name="four" unicode="4" horiz-adv-x="970" 
d="M1244 1703c78.667 0 148.333 -54.333 209 -163v-13c0 -30 -133 -213 -399 -549l-98 -137c110 0 219 32.667 327 98l6 -7v-6c-26 -82.667 -71.667 -141.667 -137 -177c-79.333 -26 -177.333 -39 -294 -39c-221.333 -291.333 -347.666 -524.333 -378.999 -699h-13
c-56 0 -95 61 -117 183c0 99.333 89.333 271.333 268 516v7c-102.667 0 -268.334 -19.667 -497.001 -59h-13c-33.333 0 -68 54.333 -104 163l-7 7c0 33.333 82.667 96.333 248 189l993 686h7zM211.999 847v-6h13c64 17.333 159.667 26 287 26h7
c78.667 0 144 -4.33301 196 -13l444 633v7c-239.333 -197.333 -555 -413 -947 -647z" />
    <glyph glyph-name="five" unicode="5" horiz-adv-x="1174" 
d="M1621 1762l20 -0.00195312l13 -13c-37.333 -126 -109.333 -219.667 -216 -281c-96.667 -39.333 -220.667 -59 -372 -59l-150 20l-373 -484h7c149.333 39.333 258 59 326 59c213.333 -26.667 320 -129 320 -307c0 -200.667 -135 -383.667 -405 -549
c-173.333 -95.333 -321.333 -143 -444 -143c-158 0 -266.667 58.667 -326 176c-13.333 20.667 -20 53.334 -20 98.001c0 66.667 24 110.334 72 131.001c20.667 -96 40.334 -144 59.001 -144c26 -34.667 82.333 -52 169 -52h20c204.667 0 411.667 95.667 621 287
c78 87.333 117 170 117 248c0 48 -37 72 -111 72h-65c-72.667 0 -205.667 -30.333 -399 -91h-6c-53.333 20.667 -92.666 64 -117.999 130l-6 33c89.333 162.667 278.666 426 567.999 790c71.333 -26 128 -39 170 -39h33c187.333 0 352.666 39.333 495.999 118z" />
    <glyph glyph-name="six" unicode="6" horiz-adv-x="1424" 
d="M1321 1687c91.333 -31.333 136.998 -64.001 136.998 -98.001l-157 -26c-80 -27.333 -182.333 -75.333 -307 -144c-127.333 -79.333 -269 -199.333 -425 -360c98 63.333 185 98.333 261 105c128.667 0 233.334 -69.667 314.001 -209l20 -98
c0 -149.333 -89.333 -332.666 -268 -549.999c-213.333 -204.667 -398.666 -307 -555.999 -307c-97.333 0 -195.333 56.667 -294 170c-30.667 69.333 -46 130.333 -46 183v13c-0 289.333 211.333 625 634 1007c259.333 209.333 488.333 314 687 314zM149.998 280.999
l0.000976562 -26.001c0 -62.667 41.667 -99.667 125 -111c156 0 352 146 588 438c82.667 139.333 124 235.333 124 288v59c0 60.667 -37 95.334 -111 104.001c-190.667 0 -395.334 -152.667 -614.001 -458c-74.667 -123.333 -112 -221.333 -112 -294z" />
    <glyph glyph-name="seven" unicode="7" horiz-adv-x="1208" 
d="M1049 1700c34 0 81.999 -48 143.999 -144l13 -39c0 -53.333 -130.667 -199.333 -392 -438c-343.333 -362 -544 -612.667 -602 -752c-39.333 -84 -67.666 -184.333 -84.999 -301c-82.667 41.333 -124 106.666 -124 195.999c0 214 215.667 530 647 948
c0 8.66699 124.333 135.334 373 380.001h-6c-424.667 -92 -684.334 -138 -779.001 -138c-72.667 0 -127 72 -163 216v20c0 10.667 8.66699 17 26 19l72 -26h13c112.667 0 400.334 19.667 863.001 59z" />
    <glyph glyph-name="eight" unicode="8" horiz-adv-x="1212" 
d="M1210 1713c146.667 0 264.334 -95.999 353.001 -287.999l6 -85c0 -138 -148 -294.667 -444 -470l-177 -66v-6c38.667 0 75.667 -65.333 111 -196l7 -40c0 -77.333 -56.667 -175.333 -170 -294c-190 -170 -388.333 -255 -595 -255c-134 0 -232 85 -294 255l-7 65v7
c0 172.667 159 329.667 477 471c-82.667 89.333 -124 174.333 -124 255c0 229.333 211.333 429.666 634 600.999c71.333 22 145.666 37.333 222.999 46zM523 987.001c0 -69.333 32.667 -104 98 -104h33c145.333 0 341.333 102.333 588 307
c100.667 101.333 151 186.333 151 255c0 56.667 -35 85 -105 85c-200.667 0 -420.667 -106.667 -660 -320c-70 -88 -105 -162.333 -105 -223zM137 281.001v-19c0 -50 26.333 -78.333 79 -85h32c220.667 0 425.667 108.667 615 326c34.667 50.667 52 101 52 151
c-16.667 39.333 -47 59 -91 59h-33c-128 0 -300 -74.333 -516 -223c-92 -84 -138 -153.667 -138 -209z" />
    <glyph glyph-name="nine" unicode="9" horiz-adv-x="1299" 
d="M1115 1676c130.667 0 251.666 -76.999 362.999 -230.999l19 -93c0 -258.667 -226.333 -610.334 -679 -1055c-233.333 -198 -457.666 -297 -672.999 -297c-96.667 13.333 -145 37.666 -145 72.999c88 0 202.333 30.667 343 92c126 60.667 297.667 210.334 515 449.001
l13 26h-7c-88.667 -83.333 -183 -125 -283 -125c-135.333 0 -234.333 83.333 -297 250l-7 53c0 139.333 74.667 306.333 224 501c220 238 424.667 357 614 357zM454.999 778.001l0.000976562 -38.999c8 -70.667 41 -106 99 -106h40c159.333 0 352.666 138.667 579.999 416
c92.667 146 139 260.333 139 343v20c-12.667 74.667 -50 112 -112 112h-40c-120.667 -4.66699 -290 -121.334 -508 -350.001c-127.333 -158 -193.333 -290 -198 -396z" />
    <glyph glyph-name="colon" unicode=":" horiz-adv-x="587" 
d="M445 817c68.667 -11.333 103 -43.333 103 -96c0 -65.333 -42.333 -103.666 -127 -114.999c-72 11.333 -108 47.666 -108 108.999c0 53.333 44 87.333 132 102zM156 431h18c64 -8 96 -40 96 -96v-6c0 -58.667 -40 -95 -120 -109c-72.667 10.667 -109 45 -109 103v6
c0 56.667 38.333 90.667 115 102z" />
    <glyph glyph-name="semicolon" unicode=";" horiz-adv-x="688" 
d="M501 618h6.00098c47.333 0 77.666 -32 90.999 -96c0 -64.667 -44.333 -101 -133 -109c-68.667 12.667 -103 47 -103 103c0 58.667 46.333 92.667 139 102zM266.001 286c72 -24.667 108 -48.666 108 -71.999v-36c-74.667 -98.667 -169 -189.334 -283 -272.001
c-56 -32 -90.333 -48 -103 -48h-6l-12 12c26 50 116.667 186.667 272 410z" />
    <glyph glyph-name="less" unicode="&#x3c;" horiz-adv-x="1105" 
d="M92 780l958 359v-258l-616 -219l616 -220v-256l-958 359v235z" />
    <glyph glyph-name="equal" unicode="=" horiz-adv-x="1003" 
d="M913 516c32 0 48 -5.33301 48 -16v-8c-16 -45.333 -42.667 -68 -80 -68h-692c-14 0 -23.333 5.33301 -28 16v4c17.333 48 45.333 72 84 72h668zM785 308c32 0 48 -5.33301 48 -16v-8c-16 -45.333 -42.667 -68 -80 -68h-692c-14 0 -23.333 5.33301 -28 16v4
c17.333 48 45.333 72 84 72h668z" />
    <glyph glyph-name="greater" unicode="&#x3e;" horiz-adv-x="1105" 
d="M1050 545l-958 -359v256l616 220l-616 219v258l958 -359v-235z" />
    <glyph glyph-name="question" unicode="?" horiz-adv-x="1258" 
d="M894 1688l7 0.00195312c149.333 0 263.666 -89.333 342.999 -268l13 -83c0 -148.667 -197.333 -303.667 -592 -465c-186.667 -106 -280 -205.667 -280 -299l32 -57v-7l-13 -12h-26c-76 23.333 -114 51 -114 83c-9.33301 0 -15.666 19 -18.999 57v25
c0 135.333 184.667 292.666 554 471.999c203.333 122 305 230 305 324c0 30.667 -40.333 50 -121 58c-217.333 0 -444.333 -93.667 -681 -281l-32 -51l6 -63h-31c-68 45.333 -102 106.666 -102 183.999c0 74 127.333 174 382 300c152 55.333 275 83 369 83zM206 395.002
l7 -0.000976562c72 -7.33301 108 -41.333 108 -102c0 -87.333 -57.333 -142.666 -172 -165.999h-38c-50 0 -84 32 -102 96c0 102 65.667 159.333 197 172z" />
    <glyph glyph-name="at" unicode="@" horiz-adv-x="1999" 
d="M1396 1393l32.999 -0.000976562c246 0 406.667 -114.667 482 -344l17 -147v-8c0 -263.333 -120 -514 -360 -752c-94.667 -82 -187.334 -123 -278.001 -123c-109.333 0 -172 76.333 -188 229c0 74 13.667 142 41 204h-8c-118.667 -78 -279.667 -227.667 -483 -449h-8
c-54.667 0 -92.667 51.667 -114 155v8c0 170.667 133.333 372.334 400 605.001c161.333 125.333 306 188 434 188c31.333 0 80.333 -49 147 -147l16 -49v-16c-12.667 -76.667 -29 -115 -49 -115l-8 8v17l16 65v25c-13.333 27.333 -40.333 41 -81 41
c-196.667 0 -404 -133.667 -622 -401c-65.333 -99.333 -98 -170.333 -98 -213c284 246 466.667 382.333 548 409h8c55.333 -40 88 -70 98 -90c-65.333 -95.333 -98 -190.666 -98 -285.999c7.33301 -70.667 26.333 -106 57 -106c104 0 229.333 125.333 376 376
c82 170 123 317 123 441c0 164 -68 273 -204 327l-99 17h-57c-272 0 -560.667 -180 -866 -540c-147.333 -225.333 -221 -424.333 -221 -597v-49c0 -203.333 120 -342.333 360 -417l65 -8c180.667 0 341.334 54.667 482.001 164h17l8 -9v-24
c-138 -130.667 -307 -196 -507 -196c-241.333 0 -415.666 125.333 -522.999 376c-22 79.333 -33 150 -33 212v49c0 303.333 171.667 600.666 515 891.999c241.333 185.333 462 278 662 278z" />
    <glyph glyph-name="A" unicode="A" 
d="M1696 1680c260.667 0 545.332 -61.998 853.999 -185.998c58.667 -53.333 95 -108 109 -164c-2 -26 -45.667 -82.667 -131 -170c-176.667 -202 -313.667 -373.333 -411 -514c0 -8.66699 13 -14.334 39 -17.001c72.667 -35.333 109 -64.333 109 -87l-5 -6h-17l-158 66
c-131.333 -206 -202.666 -366.667 -213.999 -482c0 -52.667 23.667 -87.334 71 -104.001v-5l-11 -11h-5c-96 0 -152.667 65.667 -170 197l-5 33c0 92 52.667 232.333 158 421h-5c-102.667 29.333 -201 44 -295 44h-6c-430 -368.667 -725.333 -574.667 -886 -618
c-122 -51.333 -238.667 -77 -350 -77c-171.333 -0 -288.333 60.333 -351 181c-10.667 17.333 -16 44.666 -16 81.999v5c-0 184 244.333 331.667 733 443c182.667 32.667 390.667 49 624 49l126 -5l935 711c-230 69.333 -450.667 104 -662 104
c-404.667 -18.667 -607 -75 -607 -169l27 -39l-11 -11c-58 23.333 -87 67.333 -87 132c0 112.667 160.333 178.334 481 197.001h137zM1652 739.002c70.667 0 165.667 -14.667 285 -44c80.667 141.333 223 329 427 563c-100.667 -61.333 -338 -234.333 -712 -519z
M97.998 279.002c0 -52.667 30.999 -91 92.999 -115l99 -16c170 0 374.333 71 613 213c128 74 297.667 185.333 509 334v5h-33c-544 0 -950.667 -102 -1220 -306c-37.333 -40.667 -57.666 -79 -60.999 -115z" />
    <glyph glyph-name="B" unicode="B" horiz-adv-x="1437" 
d="M1368 1687c296 0 492 -80.3359 588 -241.003c26.667 -43.333 40 -108.666 40 -195.999c0 -179.333 -110.333 -317.666 -331 -414.999c-72 -44.667 -245.667 -102.667 -521 -174l-56 -11v-5c124.667 0 208.667 -48.667 252 -146l5 -67c0 -110.667 -112 -228.667 -336 -354
c-119.333 -52 -218.333 -78 -297 -78c-130.667 25.333 -196 75.666 -196 150.999c0 116 149.333 202 448 258h62l11 -11l-241 -78c-127.333 -53.333 -191 -100.333 -191 -141v-5c4 -11.333 15.333 -17 34 -17h6c167.333 0 339 65.333 515 196c56 53.333 84 100 84 140v6
c0 60 -112 90 -336 90h-28c-30 0 -45 16.667 -45 50c0 21.333 46.667 42 140 62c238 82 434.333 169.667 589 263c200.667 122.667 309 229.334 325 320.001c0 114.667 -127 189.334 -381 224.001l-123 6h-17c-393.333 0 -756 -127.333 -1088 -382
c-82 -80 -123 -156.333 -123 -229c0 -26.667 18.667 -73.667 56 -141v-11l-11 -11c-78 30 -141.667 99 -191 207l-11 68v5c0 196.667 216.667 378 650 544c240 82 479.333 123 718 123zM1228 1121c14.667 -5.33301 22 -11.001 22 -17.001v-5c0 -26 -28 -46.667 -84 -62
c-110 -53.333 -246.333 -163.666 -409 -330.999c-108.667 -123.333 -163 -229.666 -163 -318.999c0 -14.667 11.333 -33.334 34 -56.001c-28 -15.333 -52.333 -23 -73 -23c-70 0 -113 46.667 -129 140v6c0 181.333 203.667 385 611 611c81.333 35.333 145 54 191 56z" />
    <glyph glyph-name="C" unicode="C" horiz-adv-x="1138" 
d="M1368 1682c76.667 0 157.667 -82.999 243 -248.999l6 -41c-120.667 -109.333 -268.667 -208 -444 -296l-24 -6l-6 18c0 8.66699 100.667 117 302 325l18 36c-16.667 16 -36.334 24 -59.001 24h-6c-238.667 0 -535 -158 -889 -474c-240.667 -244.667 -361 -458 -361 -640
c0 -89.333 37.667 -154.333 113 -195c34.667 -16 72 -24 112 -24h18c208.667 0 463.334 140 764.001 420h18c8 0 12 -5.66699 12 -17c-13.333 -55.333 -106.333 -168 -279 -338c-175.333 -146 -335.333 -219 -480 -219c-170.667 0 -302.667 98.667 -396 296
c-20 63.333 -30 114.666 -30 153.999v42c0 257.333 191.667 543.333 575 858c320.667 217.333 585 326 793 326z" />
    <glyph glyph-name="D" unicode="D" horiz-adv-x="1807" 
d="M1321 1684l34.001 -0.00195312c367.333 0 604 -128.667 710 -386c18.667 -69.333 28 -131 28 -185v-17c0 -217.333 -149.667 -455.666 -449 -714.999c-326 -254 -620.333 -381 -883 -381h-34c-123.333 30 -185 91.667 -185 185c0 30.667 32.667 72.667 98 126
c62 48.667 160 95 294 139c115.333 26.667 196.333 40 243 40l51 -11v-12c-384 -116 -576 -208.333 -576 -277c3.33301 -11.333 14.666 -17 33.999 -17h18c260 0 571.333 148 934 444c226.667 198.667 340 387 340 565c0 96.667 -65.333 179.334 -196 248.001
c-112 54 -237 81 -375 81h-29c-423.333 0 -798 -152 -1124 -456c-65.333 -70.667 -98 -143.667 -98 -219c0 -37.333 25 -85.333 75 -144l5 -6v-5l-17 -12c-60.667 0 -126 65.333 -196 196c-15.333 42 -23 76.667 -23 104c-0 137.333 161.333 306.333 484 507
c271.333 138.667 550.333 208 837 208zM1286 1200l23 0.000976562l17 -18v-23c-7.33301 -9.33301 -53.333 -34.333 -138 -75c-106 -55.333 -248.333 -180.333 -427 -375c-92 -120.667 -138 -218.667 -138 -294v-6c0 -16.667 11.333 -37.667 34 -63
c0 -9.33301 -23 -19 -69 -29c-103.333 22.667 -155 70.667 -155 144v18c0 171.333 201.667 382.666 605 633.999c111.333 58 194 87 248 87z" />
    <glyph glyph-name="E" unicode="E" horiz-adv-x="1458" 
d="M1463 1578c79.333 0 136 -21.999 170 -65.999l346 -11l39 17c44 0 73.333 -31.333 88 -94c-239.333 -183.333 -371.333 -275 -396 -275v6c0 14 51.333 87.333 154 220l5 5v6l-187 11h-153c-78 -22.667 -279.667 -195 -605 -517l-61 -72h6c266 22 458.333 44 577 66
c29.333 -13.333 44 -39 44 -77v-5c-72.667 -66 -160.667 -121 -264 -165l-5 16l71 110h-5c-363.333 -13.333 -545 -40.666 -545 -81.999c-142.667 -158 -214 -290 -214 -396c0 -70 36.667 -110.333 110 -121l22 -6c186 0 448 115.667 786 347h17l22 -17v-16
c-328.667 -308 -594.667 -462 -798 -462c-116 0 -215 66 -297 198c-14.667 40 -22 82 -22 126c0 108.667 47.667 226 143 352l-66 -5c-91.333 9.33301 -137 38.666 -137 87.999v5l82 -11l193 17c126 179.333 331.333 384.666 616 615.999h-6
c-245.333 -22 -456 -68 -632 -138c-256.667 -118.667 -385 -228.667 -385 -330v-16c0 -30 27.333 -63 82 -99v-6l-11 -11h-22c-92.667 0 -164 46 -214 138c-7.33301 14 -11 34 -11 60v11c-0 112 126.333 227.667 379 347c286.667 108 602 161 946 159
c60 49.333 106 75 138 77z" />
    <glyph glyph-name="F" unicode="F" horiz-adv-x="1175" 
d="M1607 1766c112 -10.667 167.999 -34.667 167.999 -72l396 -18l48 18h6c56 -16.667 84 -44.667 84 -84v-12c-74 -70 -210 -169.667 -408 -299h-12l-6 6v12l174 234c-78 15.333 -198 23 -360 23c-48.667 0 -126.667 -49.667 -234 -149
c-93.333 -57.333 -277 -229.333 -551 -516l-6 -6v-6c290 20 501.667 42 635 66c36 -20.667 54 -46.667 54 -78v-12c-73.333 -71.333 -169.333 -131.333 -288 -180l-6 6v6c0 9.33301 26 47.333 78 114v6h-60c-351.333 -10.667 -527 -28.667 -527 -54
c-244 -288 -366 -506 -366 -654v-12c0 -34.667 24 -64.667 72 -90c0 -6.66699 -12 -12.667 -36 -18c-78.667 0 -138.667 58 -180 174l-6 48c0 132 84 312 252 540l-42 -6h-30c-96 9.33301 -144 41.333 -144 96h6l66 -6h12c160 0 240 16 240 48
c306 339.333 527.667 561.333 665 666h-12c-114 0 -319.667 -42 -617 -126c-320 -132.667 -480 -258.667 -480 -378v-24c0 -28.667 30 -64.667 90 -108l-18 -18c-176 24.667 -264 98.667 -264 222c0 156 178 298 534 426c294.667 87.333 592.334 131 893.001 131l132 78z
" />
    <glyph glyph-name="G" unicode="G" horiz-adv-x="1303" 
d="M1573 1687c137.333 0 226.332 -77.667 266.999 -233l6 -34c-35.333 -136.667 -83.666 -205 -144.999 -205c-22 8.66699 -33 16 -33 22v11c59.333 64 89 125 89 183v11c0 23.333 -46.333 38.333 -139 45c-253.333 0 -549.333 -103.667 -888 -311
c-88 -53.333 -204.667 -157 -350 -311c-159.333 -182 -239 -343 -239 -483c0 -45.333 27.667 -71.333 83 -78c198.667 0 570.667 201.667 1116 605l34 12c34.667 0 69.667 -26 105 -78c-7.33301 -87.333 -53.666 -198.333 -138.999 -333h61l11 -11
c0 -21.333 -35 -40 -105 -56c-304 -448 -557.667 -672 -761 -672c-77.333 18 -116 64.333 -116 139c0 148.667 192.333 324.667 577 528l156 55c90.667 123.333 148 229 172 317c-530.667 -437.333 -875 -656 -1033 -656c-121.333 0 -210 74.333 -266 223
c-11.333 28 -17 61 -17 99c0 331.333 262.667 657.333 788 978c287.333 155.333 542.666 233 765.999 233zM518.999 -95l11 -0.000976562c102 0 292.667 168.333 572 505h-6c-180 -86 -339 -197 -477 -333c-66.667 -75.333 -100 -132.666 -100 -171.999z" />
    <glyph glyph-name="H" unicode="H" horiz-adv-x="2073" 
d="M1577 1685c143.333 0 240.331 -38.333 290.998 -115c16 -34.667 24 -65 24 -91c0 -64.667 -109 -204 -327 -418c-183.333 -170.667 -310.666 -294 -381.999 -370h6c292.667 36 541.334 62 746.001 78c420 456 638.333 743.333 655 862c0 28 4 42 12 42
c69.333 0 126 -50.667 170 -152l6 -30c0 -108 -202.333 -346.667 -607 -716c117.333 -10 176 -24 176 -42c0 -32.667 -20.333 -49 -61 -49l-200 13c-246.667 -256.667 -370 -463 -370 -619l18 -67l-18 -6c-113.333 20 -170 76.667 -170 170
c0 98.667 101.333 268.334 304 509.001c-278.667 -28 -539.667 -64.333 -783 -109c-190 -221.333 -285 -385 -285 -491l12 -73l-12 -12c-74.667 0 -131 44.667 -169 134v24c0 87.333 56.333 206.666 169 357.999l-115 -12h-36c-146 0 -219 60.333 -219 181v31
c0 8 6.33301 12 19 12c62.667 -48.667 145.334 -73 248.001 -73h43l182 6c517.333 552.667 776 848 776 886h-6l-24 6h-67c-425.333 0 -844 -133.667 -1256 -401c-100.667 -88.667 -151 -153.334 -151 -194.001c0 -16.667 14 -38.667 42 -66l-6 -6v-6
c-78 0 -148.667 62.667 -212 188v30c0 148.667 232.333 298.334 697 449.001c311.333 92.667 604.666 139 879.999 139z" />
    <glyph glyph-name="I" unicode="I" horiz-adv-x="1146" 
d="M1674 1797l154.998 -106.001c376 -47.333 564 -119.666 564 -216.999v-6c0 -26 -16.667 -50.667 -50 -74h-25l-12 12v6l12 19v6c-99.333 70 -256.333 105 -471 105h-136c-110.667 -72.667 -311 -260.667 -601 -564c-301.333 -352 -458.666 -612.333 -471.999 -781
c184.667 -2 302.667 -33 354 -93l-13 -18l-111 12h-174c-215.333 0 -388.666 -51.667 -519.999 -155v-6l24 -31l-12 -12h-25c-78.667 11.333 -118 48.333 -118 111c0 96 151 160 453 192h18c-28.667 33.333 -43 60.333 -43 81c0 232.667 291.333 646 874 1240h-6
c-155.333 0 -395 -45.667 -719 -137c-318 -132 -477 -249.667 -477 -353c0 -49.333 49.333 -82.333 148 -99l7 -6v-19l-31 -6h-25c-136 0 -216.667 68 -242 204v50c0 96 55.667 170.333 167 223c369.333 210.667 824 316 1364 316c62 70.667 109.667 106 143 106z" />
    <glyph glyph-name="J" unicode="J" horiz-adv-x="1584" 
d="M2044 1685c173.333 0 282.666 -44.335 327.999 -133.002v-19c-9.33301 -82.667 -175.333 -307.667 -498 -675h6c158 0 237 -10 237 -30v-6l-24 -25h-250c-222 -262.667 -422.667 -483.667 -602 -663c-392.667 -340.667 -707 -511 -943 -511
c-146 0 -241.333 52.667 -286 158c-8 16 -12 38.333 -12 67v13c0 242.667 249.333 488 748 736c141.333 68.667 322 131.334 542 188.001l346 67c357.333 450.667 536 688 536 712c-188.667 -2 -428 -36.667 -718 -104c-253.333 -88 -417.666 -185.333 -492.999 -292
c-16 -30.667 -24 -55 -24 -73c0 -16 12 -36 36 -60l-6 -7v-6c-79.333 0 -142 61 -188 183v30c0 144.667 192.333 268.334 577 371.001c246.667 52.667 476 79 688 79zM116 -158.002v-6c0 -44.667 34.333 -67 103 -67c286 0 701.667 290 1247 870l97 122h-6
c-440.667 -84.667 -811.667 -243 -1113 -475c-218.667 -169.333 -328 -317.333 -328 -444z" />
    <glyph glyph-name="K" unicode="K" horiz-adv-x="1774" 
d="M2284 1689c150.667 -19.333 226.002 -77.001 226.002 -173.001v-6c0 -219.333 -263.667 -469 -791 -749c-280 -118 -496.333 -181.333 -649 -190l-77 12v-6c178 -270 346.667 -405 506 -405c18.667 0 68 18 148 54c-51.333 -150.667 -146.333 -226 -285 -226
c-109.333 0 -270 178.333 -482 535c-206 -252 -309 -412.667 -309 -482l12 -89h-18c-37.333 0 -79 41.667 -125 125l-12 71c0 104.667 125 285.334 375 542.001l-60 124c12 28 30 42 54 42l71 -89l678 761h-6c-350.667 0 -711.334 -97 -1082 -291
c-202 -127.333 -303 -230.666 -303 -309.999c4 -14.667 17.667 -34.334 41 -59.001l-6 -6h-23c-56.667 0 -110.334 49.667 -161.001 149l-6 35c-0 189.333 301.333 364 904 524c213.333 43.333 401.666 65 564.999 65h41c174.667 0 262 -59.333 262 -178
c0 -63.333 -164.333 -238 -493 -524c-186 -180 -283.333 -279 -292 -297c440.667 112.667 805.334 311 1094 595c131.333 153.333 199 260.333 203 321l6 36c0 15.333 -20 37 -60 65c0 9.33301 18 17.333 54 24z" />
    <glyph glyph-name="L" unicode="L" horiz-adv-x="1020" 
d="M737 260c-94.667 -14.667 -260.999 -85.001 -498.999 -211.001c-36.667 -24.667 -77.334 -43 -122.001 -55c-46.667 0 -85.334 55.667 -116.001 167v11c32 90.667 240.667 362.334 626 815.001c318.667 348 494.334 556.667 527.001 626v55l16 16
c111.333 -55.333 167 -109 167 -161v-11c0 -64.667 -96 -179 -288 -343c-476.667 -488.667 -752 -801 -826 -937v-5h5c238 84.667 458 127 660 127h16c62 0 101 -9.33301 117 -28l-5 -16c-28 -14 -120.667 -30.667 -278 -50z" />
    <glyph glyph-name="M" unicode="M" horiz-adv-x="2246" 
d="M1498 1683l47.998 -0.00195312c119.333 0 198.666 -43.667 237.999 -131l6 -24v-18c0 -36.667 -142.667 -191.334 -428 -464.001l-262 -279c546.667 415.333 901.334 647.333 1064 696c115.333 -36 173 -93.667 173 -173c-8 -40.667 -55.667 -106 -143 -196
c-221.333 -249.333 -378 -439.666 -470 -570.999h6c352 296 578 470.333 678 523c91.333 -36 137 -85.333 137 -148c0 -17.333 -53.667 -79 -161 -185c-206 -236.667 -309 -430.667 -309 -582v-30c0 -35.333 21.667 -53 65 -53l6 -6v-12c-6 -16 -19.667 -24 -41 -24h-24
c-110.667 21.333 -166 92.666 -166 213.999c0 149.333 107 353.333 321 612h-6c-287.333 -223.333 -505.333 -405.666 -654 -546.999c-69.333 -98.667 -113 -148 -131 -148h-6c-71.333 26.667 -107 72.334 -107 137.001c64.667 176 314.334 524.667 749.001 1046
c-242.667 -132 -581.667 -368 -1017 -708c-255.333 -206 -396 -370.333 -422 -493v-30l6 -30l-18 -11c-110.667 38.667 -166 108 -166 208c0 118.667 368.667 560.667 1106 1326c-322 0 -669 -93.333 -1041 -280c-234 -140 -351 -255 -351 -345v-6c0 -13.333 14 -37 42 -71
l-6 -6h-12c-79.333 0 -144.666 57.333 -195.999 172l-6 42c0 174.667 249.667 339.334 749 494.001c246 67.333 495.667 101 749 101z" />
    <glyph glyph-name="N" unicode="N" horiz-adv-x="1848" 
d="M1627 1682h43.002c142 0 230.667 -44.667 266 -134l6 -18c0 -44 -72.667 -124.667 -218 -242c-379.333 -353.333 -644 -618 -794 -794h6c564 458 1020.67 767 1370 927c52 0 100.333 -30.333 145 -91c16.667 -26 25 -46.333 25 -61v-6c0 -23.333 -83 -116 -249 -278
c-359.333 -397.333 -539 -688.333 -539 -873c0 -38 24.333 -60.333 73 -67v-18c-10.667 -20 -31 -30 -61 -30c-98.667 0 -165.334 68.667 -200.001 206c0 212.667 222.333 554 667 1024l30 42c-363.333 -206.667 -755.333 -477.334 -1176 -812.001
c-201.333 -168 -314.333 -309.333 -339 -424v-24l12 -36l-18 -13c-68 0 -120.667 50.667 -158 152l-12 61c0 96.667 167.667 326.667 503 690l661 716c-372 0 -762 -123.333 -1170 -370c-145.333 -111.333 -218 -200.333 -218 -267v-6c0 -19.333 14 -43.666 42 -72.999
l-6 -6h-12c-80.667 0 -147.334 58.667 -200.001 176l-6 43c0 177.333 254.667 345 764 503c250 68.667 504.333 103 763 103z" />
    <glyph glyph-name="O" unicode="O" horiz-adv-x="1407" 
d="M1216 1685c140.667 0 256.669 -77.667 348.002 -233l18 -72v-30l-12 -12h-12l-48 90c-39.333 40 -107.333 60 -204 60h-60c-258.667 0 -528.334 -128 -809.001 -384c-191.333 -204.667 -287 -416.334 -287 -635.001c0 -153.333 81.667 -257 245 -311l120 -18
c244 0 497.667 147.667 761 443c148 191.333 222 369 222 533v18c0 89.333 -44 149.333 -132 180l-72 12c-85.333 0 -177.333 -20 -276 -60h-6l-11 12v12c81.333 68 173 102 275 102h30c160 0 266 -88 318 -264l6 -72v-6c0 -302 -182 -591.333 -546 -868
c-189.333 -124 -359 -186 -509 -186c-158.667 0 -294.334 60 -407.001 180c-112 132.667 -168 276.334 -168 431.001v12c0 299.333 191.667 587 575 863c237.333 135.333 451 203 641 203z" />
    <glyph glyph-name="P" unicode="P" horiz-adv-x="1499" 
d="M1279 1686l18.001 -0.000976562c305.333 0 507.666 -105.333 606.999 -316c15.333 -50.667 25 -101.334 29 -152.001c0 -309.333 -280.333 -527.333 -841 -654c-94.667 -19.333 -190 -29 -286 -29h-17c-30 0 -47.667 7.66699 -53 23v6c0 22 78 49.333 234 82
c556.667 210.667 835 419 835 625v12c0 99.333 -109 167.333 -327 204l-164 18c-369.333 0 -694.333 -109.333 -975 -328c-116.667 -93.333 -175 -182.666 -175 -267.999c0 -45.333 23.333 -103.666 70 -174.999c2.66699 -14.667 -3.33301 -16.667 -18 -6
c-144 94.667 -216 188 -216 280v12c0 188 183 365 549 531c220.667 90 464 135 730 135zM1250 1183c23.333 0 35.002 -13.665 35.002 -40.998v-5c-7.33301 -10.667 -37.333 -29 -90 -55s-140.834 -83.5 -264.501 -172.5s-250.834 -237.167 -381.501 -444.5
c-74 -133.333 -111 -250.333 -111 -351c5.33301 -54 30.666 -81 75.999 -81v-6c0 -14.667 -29.333 -24.334 -88 -29.001c-107.333 7.33301 -165.666 67.666 -174.999 180.999v23c0 243.333 189 504.333 567 783c181.333 119.333 325.333 185.333 432 198z" />
    <glyph glyph-name="Q" unicode="Q" horiz-adv-x="1479" 
d="M1332 1687c96 0 167.668 -81.334 215.001 -244.001v-45l-11 -11h-23l-34 79c-32 22.667 -69.667 34 -113 34c-244.667 0 -509.334 -124.667 -794.001 -374c-245.333 -248 -368 -474.667 -368 -680v-17c0 -158.667 73.667 -260.667 221 -306l79 -12h40
c203.333 0 430 123 680 369c162.667 180.667 244 348.667 244 504v12c0 150.667 -64.333 226 -193 226c-41.333 0 -124.333 -28.333 -249 -85l-6 6v6c38.667 57.333 137 104.333 295 141l57 6c134 0 219 -81.333 255 -244v-22c0 -291.333 -162.667 -567.333 -488 -828
c-122 -82 -216.333 -129.333 -283 -142v-5h147c286.667 0 472 -66.333 556 -199l5 -17c-7.33301 -23.333 -16.666 -36.333 -27.999 -39h-11c-30.667 0 -46 22.667 -46 68c-66.667 71.333 -191.334 107 -374.001 107h-45c-215.333 0 -447.666 -56.667 -696.999 -170
c-56.667 -22.667 -113.334 -34 -170.001 -34c-128.667 26.667 -193 77.667 -193 153l11 12l68 -12c34.667 0 152 22.667 352 68v6c-60.667 0 -145.667 49 -255 147c-90.667 118 -136 237 -136 357c0 310.667 202 624.334 606 941.001c245.333 162.667 474 244 686 244z" />
    <glyph glyph-name="R" unicode="R" horiz-adv-x="1458" 
d="M1321 1684l22.998 0.000976562c284.667 0 476.334 -93 575.001 -279c18.667 -33.333 32 -94.333 40 -183c0 -244 -207 -435.667 -621 -575c-185.333 -56.667 -356 -85 -512 -85h-17c-29.333 0 -46.666 7.66699 -51.999 23v5c0 24 74 50.667 222 80
c569.333 206 854 411 854 615v6c0 106 -125 176 -375 210l-114 6h-23c-280 0 -576 -89.333 -888 -268c-182.667 -120 -274 -239.333 -274 -358c0 -34.667 23 -82.334 69 -143.001v-5l-6 -6v-6c-47.333 0 -112 60.667 -194 182c-18.667 38 -28 80 -28 126
c0 128.667 129 269 387 421c290 156 601.333 234 934 234zM1236 1103c41.333 -4.66699 61.998 -12.333 61.998 -23c0 -5.33301 -62.667 -39.666 -188 -102.999c-126 -78 -268.333 -193.667 -427 -347l-11 -17c113.333 -175.333 206.333 -298.666 279 -369.999
c86 -64.667 158 -97 216 -97c40 0 89.333 26.667 148 80c5.33301 5.33301 10 7.16602 14 5.49902s5 -7.16699 3 -16.5c-23.333 -68 -60.166 -121.833 -110.499 -161.5s-110.166 -58.167 -179.499 -55.5c-139.333 0 -283.666 178.333 -432.999 535h-5
c-118 -164.667 -177 -299.334 -177 -404.001c0 -60.667 22.667 -91 68 -91l6 -6v-11c0 -9.33301 -21 -17 -63 -23c-100 0 -162.333 55 -187 165l-6 23c0 134 95 303 285 507c-10 0 -21.667 17 -35 51c5.33301 19.333 18.666 29 39.999 29h12l34 -29
c258 211.333 464.667 329 620 353z" />
    <glyph glyph-name="S" unicode="S" horiz-adv-x="902" 
d="M1240 1687c170 0 280.004 -64.3262 330.004 -192.993c7.33301 -34.667 9.66602 -58.334 6.99902 -71.001c-9.33301 -92.667 -118 -184.667 -326 -276c-59.333 -26.667 -116 -40 -170 -40c-18 3.33301 -22 11 -12 23l188 115c132.667 96 199 163.667 199 203
c0 25.333 -34.333 40.666 -103 45.999h-73c-334 0 -669.667 -117.667 -1007 -353c-83.333 -70.667 -125 -133.334 -125 -188.001c0 -61.333 138.333 -123.666 415 -186.999c224 -68.667 336 -165.334 336 -290.001c0 -144.667 -121.333 -277.334 -364 -398.001
c-118 -53.333 -216.667 -80 -296 -80c-137.333 11.333 -213.666 53.666 -228.999 126.999c-4 18 -4 36.333 0 55c55.333 180 437.333 357.333 1146 532c27.333 8.66699 41 5 41 -11c-258.667 -86.667 -466.167 -158.5 -622.5 -215.5s-278.333 -116.833 -366 -179.5
s-123.167 -110.334 -106.5 -143.001c9.33301 -10 24.666 -13.667 45.999 -11c153.333 0 325.666 69 516.999 207c61.333 55.333 93.666 104.333 96.999 147c4 90 -136.333 163.333 -421 220c-227.333 63.333 -341 146.666 -341 249.999c0 251.333 244 457.333 732 618
c235.333 62 404.666 93 507.999 93z" />
    <glyph glyph-name="T" unicode="T" horiz-adv-x="1241" 
d="M1849 1677c372 0 676.998 -48.9971 914.998 -146.997c47.333 -33.333 71 -59 71 -77c0 -34.667 -29.667 -66.334 -89 -95.001h-11l-12 12c23.333 16 35 30 35 42c0 62.667 -224.333 106 -673 130h-177l-42 -6v-6c51.333 -34.667 77 -62.334 77 -83.001
c0 -14 -41.333 -45.333 -124 -94c-307.333 -224.667 -587 -510.334 -839 -857.001c-82.667 -116 -137.667 -210.333 -165 -283c199.333 152.667 335.333 243 408 271h17v-6c-181.333 -159.333 -311 -291 -389 -395c-30 -55.333 -63.667 -83 -101 -83
c-47.333 0 -90.666 29.667 -129.999 89v23c12.667 248 320 675.333 922 1282l147 124v6h-6c-327.333 -28 -616.666 -75.333 -867.999 -142c-212 -70 -373.333 -142.667 -484 -218c-102.667 -74 -154 -137 -154 -189v-24c16.667 -43.333 73.667 -65 171 -65l77 -12v-18
l-124 -17c-134.667 0 -233 59 -295 177l-6 29c0 303.333 443 506.333 1329 609c134 15.333 307.333 23 520 23z" />
    <glyph glyph-name="U" unicode="U" horiz-adv-x="1858" 
d="M1315 1695h49c137.333 0 229.333 -51.333 276 -154l6 -30c0 -32 -86 -116 -258 -252c-386 -352.667 -621.333 -635.334 -706 -848.001c-36.667 -71.333 -55 -126.666 -55 -165.999c6.66699 -44.667 27 -67 61 -67c110 0 390.667 198.333 842 595
c281.333 238 441 357 479 357c52 0 109.333 -49.333 172 -148v-12c0 -7.33301 -45 -50.333 -135 -129c-307.333 -331.333 -461 -569 -461 -713c0 -48.667 22.667 -91.667 68 -129c-21.333 -12 -42 -18 -62 -18h-6c-86 0 -143.333 61.333 -172 184v13
c0 165.333 131 392.333 393 681h-6c-122 -94 -349.333 -300.667 -682 -620c-179.333 -160 -304.333 -240 -375 -240c-117.333 0 -207.333 86 -270 258l-12 74c0 225.333 210.667 547 632 965l314 288c-403.333 0 -772 -139 -1106 -417c-86 -87.333 -129 -157 -129 -209v-19
c0 -17.333 10.333 -37.666 31 -60.999c3.33301 -8 1.33301 -12 -6 -12c-122.667 2 -188.334 73.667 -197.001 215c0 225.333 282.667 411.666 848 558.999c168.667 36.667 324.334 55 467.001 55z" />
    <glyph glyph-name="V" unicode="V" horiz-adv-x="1972" 
d="M2394 1745c167.333 -26 251 -95.334 251 -208.001l6 -6v-6c0 -132.667 -232.667 -412.334 -698 -839.001c-339.333 -312.667 -585.333 -519 -738 -619c-70.667 -44.667 -124.667 -67 -162 -67c-103.333 0 -189 79.667 -257 239l-18 86c23.333 270 182.333 619 477 1047
l166 208h-7c-188 0 -439 -59.333 -753 -178c-326.667 -178 -490 -329 -490 -453v-18c0 -14.667 10.333 -35 31 -61l-18 -7c-47.333 0 -100.666 41 -159.999 123l-24 86c0 216.667 277.667 400.334 833 551.001c194 44.667 367.333 67 520 67
c155.333 0 265.666 -63.333 330.999 -190v-6c0 -26 -57.333 -99.333 -172 -220c-375.333 -478.667 -563 -834 -563 -1066v-6c16.667 -32.667 37 -49 61 -49c122 0 434.333 253 937 759c302 341.333 453 580.333 453 717c0 14.667 -12 49.334 -36 104.001v6z" />
    <glyph glyph-name="W" unicode="W" horiz-adv-x="2583" 
d="M1339 1687l42.998 -0.00292969c145.333 0 247 -48.667 305 -146l7 -43c-1.33301 -31.333 -78.666 -126 -231.999 -284c-379.333 -421.333 -569 -654.666 -569 -699.999c535.333 459.333 879.666 705.666 1033 738.999c98 -23.333 147 -72 147 -146
c-224.667 -284.667 -337 -551.667 -337 -801c0 -94 30.667 -149 92 -165h12c140 0 342 152.667 606 458c232 332.667 348 628.334 348 887.001c-3.33301 34.667 -19.666 73.334 -48.999 116.001l25 12c136.667 18.667 222 -48.666 256 -201.999l6 -49
c0 -214.667 -137 -499.667 -411 -855c-302 -338.667 -550 -508 -744 -508c-145.333 0 -249.333 95.667 -312 287l-12 129c0 210 67.333 417.667 202 623v6c-170.667 -88.667 -446 -304.667 -826 -648c-110 -118 -165 -203.333 -165 -256v-6l6 -31l-18 -12
c-102 40 -153 101 -153 183v55c0 140.667 195.667 442.334 587 905.001l251 336v6c-279.333 0 -568.666 -73.333 -867.999 -220c-265.333 -160 -398 -292.333 -398 -397l1 -20c0 -24 10 -46 30 -66c-4.66699 -5.33301 -12 -7.33301 -22 -6c-54 9.33301 -103.667 46 -149 110
c-22 29.333 -32.333 60 -31 92v18c-0 199.333 285.333 378.666 856 537.999c194 40.667 355 61 483 61z" />
    <glyph glyph-name="X" unicode="X" horiz-adv-x="1605" 
d="M1322 1682l31.9971 0.00292969c278 0 417 -64 417 -192c0 -28.667 -72.667 -121.667 -218 -279c-93.333 -108.667 -176.666 -223.334 -249.999 -344.001h6c320 102.667 635.333 293 946 571c60 62 89 111.333 87 148c-1.33301 20.667 -12 44 -32 70
c-4 14 2.33301 20.667 19 20c141.333 -21.333 212 -90 212 -206c0 -68 -47 -140.667 -141 -218c-142.667 -110.667 -341.667 -209 -597 -295l-565 -186c-89.333 -204.667 -134 -371.667 -134 -501c0 -106.667 27.667 -160 83 -160h7c46 0 150.667 60 314 180
c8.66699 4 14.334 3.5 17.001 -1.5s1.33398 -11.167 -3.99902 -18.5c-149.333 -179.333 -280 -269 -392 -269c-98.667 0 -169 62 -211 186c-13.333 42.667 -20 92 -20 148c0 118.667 23.667 242.667 71 372c-232.667 -103.333 -448.667 -249 -648 -437
c-72.667 -82 -109 -148 -109 -198v-13c0 -24.667 8.33301 -48.334 25 -71.001c10 -21.333 1.66699 -32 -25 -32c-54 0 -99.167 19.333 -135.5 58s-55.5 83.667 -57.5 135c0 222 331.667 440 995 654c114 253.333 283 505.666 507 756.999v7h-7
c-312.667 0 -657 -100.667 -1033 -302c-209.333 -141.333 -314 -256.666 -314 -345.999c4 -34.667 15.333 -63 34 -85c-126.667 9.33301 -193.667 78 -201 206v26c0 161.333 192.667 319.666 578 474.999c270.667 94 518.667 141 744 141z" />
    <glyph glyph-name="Y" unicode="Y" horiz-adv-x="1765" 
d="M1404 1548l35 0.00292969c111.333 0 188.666 -56.333 231.999 -169c-10 -27.333 -59 -64.333 -147 -111c-165.333 -82.667 -383.333 -250.334 -654 -503.001c-170 -182.667 -255 -306.667 -255 -372v-17c0 -8 5.66699 -12 17 -12c67.333 0 303.333 129.667 708 389
c240.667 152 387.667 235 441 249c38 0 80.333 -34.667 127 -104l6 -23c0 -80.667 -61.667 -216 -185 -406c44.667 0 73.667 -6 87 -18c0 -22.667 -17.667 -34 -53 -34h-58c-338.667 -487.333 -632.334 -731 -881.001 -731h-12c-74.667 0 -119 48.333 -133 145
c0 112.667 112 250 336 412c214.667 136 390.667 215 528 237c115.333 183.333 181 326.666 197 429.999h-6c-129.333 -83.333 -432.666 -298 -909.999 -644c-48 -34.667 -94.667 -52 -140 -52c-89.333 0 -158.666 65.667 -207.999 197v23c0 205.333 212.667 478 638 818
c142 103.333 244.333 171 307 203v6c-275.333 0 -602 -98.667 -980 -296c-186 -119.333 -279 -220 -279 -302l35 -58l-6 -6v-5c-78 0 -141.667 58 -191 174v17c0 189.333 270.667 355.666 812 498.999c200 42.667 397.333 64 592 64zM783 -180.997l18 -12
c133.333 0 365.333 199.333 696 598h-6c-166 -69.333 -324.667 -162 -476 -278c-154.667 -128 -232 -230.667 -232 -308z" />
    <glyph glyph-name="Z" unicode="Z" horiz-adv-x="1340" 
d="M1842 1682c71.333 0 124.666 -74.666 159.999 -223.999c0 -70 -74.667 -138 -224 -204c-540 -336 -1026 -671 -1458 -1005v-6c151.333 76.667 313.333 115 486 115h45c256 -22 398.667 -77.333 428 -166l-19 -13h-6c-136.667 38.667 -247.667 58 -333 58h-51
c-191.333 0 -423.666 -77 -696.999 -231l-26 -6c-98 32.667 -147 94.667 -147 186c6.66699 37.333 96.334 120.333 269.001 249l1509 1119h-6c-29.333 0 -321.333 -59.667 -876 -179c-86 -16.667 -175.667 -27.334 -269 -32.001c-104.667 0 -179.334 98.333 -224.001 295v12
l13 13h6c42.667 -42.667 104.667 -64 186 -64c140 0 538.667 27.667 1196 83h38z" />
    <glyph glyph-name="bracketleft" unicode="[" horiz-adv-x="630" 
d="M1220 1701l9.00098 -13.999c-1.33301 -6 -38 -32 -110 -78c-71.333 -64.667 -149.333 -179.334 -234 -344.001c-278.667 -486.667 -520.334 -933 -725.001 -1339c-12 -25.333 -18 -59 -18 -101v-4c0 -32.667 13.667 -83.334 41 -152.001v-4l-13 -14
c-56 19.333 -106.667 77.333 -152 174c-8.66699 22.667 -14.667 48.667 -18 78c-0 50.667 53.333 165.334 160 344.001c236 450.667 485.333 894 748 1330c108 82.667 212 124 312 124z" />
    <glyph glyph-name="backslash" unicode="\" horiz-adv-x="1435" 
d="M1433 8l-164 -127l-1208 1630l162 127z" />
    <glyph glyph-name="bracketright" unicode="]" horiz-adv-x="969" 
d="M973 1693c71.333 -38 123.334 -105 156.001 -201l9 -51c0 -50 -38 -138.667 -114 -266c-279.333 -526.667 -542.333 -994.334 -789 -1403c-68.667 -64.667 -151.334 -106 -248.001 -124l-55 -9c-12 4.66699 -18 9.33398 -18 14.001v4c5.33301 10.667 42 36.667 110 78
c60 56 141 175.333 243 358c480 862.667 720 1312 720 1348c6 14 9 34 9 60v23c0 35.333 -13.667 84 -41 146v10z" />
    <glyph glyph-name="asciicircum" unicode="^" horiz-adv-x="2037" 
d="M1849 1677c372 0 676.998 -48.9971 914.998 -146.997c47.333 -33.333 71 -59 71 -77c0 -34.667 -29.667 -66.334 -89 -95.001h-11l-12 12c23.333 16 35 30 35 42c0 62.667 -224.333 106 -673 130h-177l-42 -6v-6c51.333 -34.667 77 -62.334 77 -83.001
c0 -14 -41.333 -45.333 -124 -94c-307.333 -224.667 -587 -510.334 -839 -857.001c-82.667 -116 -137.667 -210.333 -165 -283c199.333 152.667 335.333 243 408 271h17v-6c-181.333 -159.333 -311 -291 -389 -395c-30 -55.333 -63.667 -83 -101 -83
c-47.333 0 -90.666 29.667 -129.999 89v23c12.667 248 320 675.333 922 1282l147 124v6h-6c-327.333 -28 -616.666 -75.333 -867.999 -142c-212 -70 -373.333 -142.667 -484 -218c-102.667 -74 -154 -137 -154 -189v-24c16.667 -43.333 73.667 -65 171 -65l77 -12v-18
l-124 -17c-134.667 0 -233 59 -295 177l-6 29c0 303.333 443 506.333 1329 609c134 15.333 307.333 23 520 23zM2345 1909c117.333 -53.333 176 -113.999 176 -181.999c0 -71.333 -157.667 -284.666 -473 -639.999c-267.333 -286 -448.666 -512.333 -543.999 -679v-6
c228.667 213.333 447 400.666 655 561.999l30 12c44 0 90.667 -37 140 -111v-35c-249.333 -240.667 -374 -461.334 -374 -662.001v-29c3.33301 -62.667 16.666 -94 39.999 -94v-17l-29 -6c-73.333 0 -130 68.333 -170 205l-5 41c0 128 72 286 216 474v6
c-128.667 -90.667 -329.667 -274 -603 -550l-193 -217h-17c-39.333 28.667 -59 67.667 -59 117c0 112 201 410.667 603 896c328.667 443.333 525.334 721 590 833l6 29l-6 47l6 6h11z" />
    <glyph glyph-name="underscore" unicode="_" horiz-adv-x="1050" 
d="M1142 -266h-1178v80h1178v-80z" />
    <glyph glyph-name="grave" unicode="`" horiz-adv-x="512" 
d="M174 1550l330 -241l-62 -113l-352 195z" />
    <glyph glyph-name="a" unicode="a" horiz-adv-x="924" 
d="M857 974l17 -0.00195312c67.333 -24 122.333 -86.667 165 -188l6 -34c-12 -80 -33 -120 -63 -120l-5 6v6c18.667 34.667 28 63 28 85v6c0 41.333 -36 62 -108 62c-172.667 0 -374 -127 -604 -381c-91.333 -127.333 -137 -218.666 -137 -273.999
c198.667 184.667 373.667 321.334 525 410.001c0 10.667 18.667 18.334 56 23.001c38 0 76 -32.333 114 -97v-5c-29.333 0 -71 -76 -125 -228l-11 -103c0 -56 22.667 -99.667 68 -131v-11h-17c-76 0 -129.333 43.667 -160 131l-17 91c0 62 17.333 138 52 228h-6
c-72 -36.667 -205 -156.334 -399 -359.001c-65.333 -87.333 -107 -131 -125 -131c-40 0 -78 49.333 -114 148v17c0 204 148 428 444 672c156 118 294.667 177 416 177z" />
    <glyph glyph-name="b" unicode="b" horiz-adv-x="927" 
d="M1052 1658c63.333 0 118 -52.6641 164 -157.997v-17c0 -62 -158.667 -243 -476 -543c-172.667 -168.667 -297 -302.667 -373 -402h6c308 290 506 435 594 435c113.333 -32.667 170 -87.334 170 -164.001v-5c-22 -121.333 -129.667 -295 -323 -521
c-186 -188.667 -352 -283 -498 -283h-6c-90.667 16 -136 61.333 -136 136c0 38.667 17 72.667 51 102h6l6 -6h5l-5 -68v-6c4.66699 -37.333 21.667 -56 51 -56h11c114 0 270.667 135.667 470 407c113.333 164 170 281 170 351
c-86.667 -11.333 -243.334 -120.666 -470.001 -327.999c-241.333 -264 -366 -396 -374 -396c0 -7.33301 -9.33301 -11 -28 -11c-45.333 3.33301 -68 25.666 -68 66.999c0 72.667 92.333 223.667 277 453c109.333 143.333 328.333 407.666 657 792.999
c58.667 75.333 96.334 131.666 113.001 168.999l-6 46l6 5h6z" />
    <glyph glyph-name="c" unicode="c" horiz-adv-x="708" 
d="M703 971h6.00195c45.333 0 101 -56 167 -168v-11c-126.667 -112 -223.334 -184.333 -290.001 -217h-5c0 17.333 52 95.333 156 234h-6c-227.333 -94.667 -409.333 -241.667 -546 -441c-41.333 -68 -62 -125.667 -62 -173v-11c10 -48 36 -72 78 -72
c105.333 10.667 259.666 103.334 462.999 278.001l17 -16c-60 -106.667 -173.333 -216.334 -340 -329.001c-45.333 -30 -86.333 -45 -123 -45c-84.667 0 -157 68.667 -217 206l-6 51v16c0 158 137.667 346 413 564c140 89.333 238.333 134 295 134z" />
    <glyph glyph-name="d" unicode="d" horiz-adv-x="954" 
d="M1689 1667c42 0 92.667 -45.333 152 -136v-11c-9.33301 -125.333 -308.666 -434 -897.999 -926c-146.667 -203.333 -220 -367 -220 -491c0 -68 22.667 -102 68 -102v-17h-34c-83.333 0 -136 62 -158 186v29c0 60 11.333 122 34 186
c-214 -246.667 -363 -376.667 -447 -390c-72.667 0 -134.667 60.333 -186 181v45c0 152 105.333 329 316 531c172 150.667 317 226 435 226c35.333 0 76.666 -41.333 123.999 -124v-12l260 345c284 320 468.667 480 554 480zM1000 729l5 0.000976562
c382.667 347.333 618 584.666 706 711.999l23 45h-6c-104.667 -71.333 -262.667 -216.333 -474 -435c-169.333 -196 -254 -303.333 -254 -322zM124 142.001c5.33301 -17.333 13 -26.667 23 -28c100 29.333 288.333 181.666 565 456.999
c73.333 88.667 112.666 158.334 117.999 209.001c-3.33301 15.333 -14.666 23 -33.999 23h-22c-136.667 0 -312 -124.333 -526 -373c-82.667 -116 -124 -212 -124 -288z" />
    <glyph glyph-name="e" unicode="e" horiz-adv-x="808" 
d="M738 972c60 0 125.332 -64.999 195.999 -194.999l5 -6v-6c0 -104.667 -115.333 -203.334 -346 -296.001c-61.333 -18.667 -111.666 -28 -150.999 -28c-48.667 4.66699 -73 14 -73 28c8.66699 8.66699 51.667 21.667 129 39c184.667 110.667 289 215 313 313h-6
c-112 -22 -268.667 -124.333 -470 -307c-118.667 -134 -178 -240.333 -178 -319c9.33301 -56 35.333 -84 78 -84c97.333 7.33301 252 98.666 464 273.999l5 6h6l6 -6v-5c-30.667 -86 -148.334 -201.667 -353.001 -347c-47.333 -22.667 -80.666 -34 -99.999 -34
c-91.333 0 -164 63.667 -218 191l-17 67c0 190.667 162 399.334 486 626.001c103.333 59.333 178 89 224 89z" />
    <glyph glyph-name="f" unicode="f" horiz-adv-x="1205" 
d="M1440 1730c112 -46 167.998 -115.667 167.998 -209c0 -73.333 -134 -223.333 -402 -450l-132 -132h6c90 20.667 186 34.667 288 42c52 -5.33301 78 -13.333 78 -24c0 -14.667 -64 -28.667 -192 -42c-207.333 -44.667 -311 -74.667 -311 -90
c-544 -577.333 -816 -979.333 -816 -1206c4.66699 -52 26.667 -78 66 -78c138.667 0 348.667 156 630 468c186.667 234 284.334 430 293.001 588v18c0 80.667 -41.667 128.667 -125 144c-21.333 0 -33.333 6 -36 18v18l24 24h18c96.667 0 164.334 -58 203.001 -174l12 -90
c0 -258 -183.667 -568 -551 -930c-144 -131.333 -280 -197 -408 -197c-116 0 -200 73.667 -252 221l-6 54v24c0 250.667 214 598.667 642 1044l18 24h-6c-74 -28 -128 -42 -162 -42c-48 20 -72 52 -72 96h6c108.667 0 218.667 20 330 60c427.333 431.333 645 671 653 719
c11.333 68 23.333 102 36 102z" />
    <glyph glyph-name="g" unicode="g" horiz-adv-x="912" 
d="M856 978c68 -45.333 119.998 -119.331 155.998 -221.998c-16.667 -81.333 -39 -122 -67 -122v22c12 14 21.333 38.333 28 73c0 44 -35.333 66 -106 66c-153.333 0 -331 -101.667 -533 -305c-117.333 -136.667 -178.333 -244 -183 -322
c285.333 243.333 485.333 389.666 600 438.999c44.667 -13.333 85.334 -41.333 122.001 -84v-11c0 -30 -47.667 -131 -143 -303c58 22.667 103.333 31 136 25c31.333 -10.667 35 -26 11 -46c-77.333 -10.667 -138.333 -29.334 -183 -56.001
c-325.333 -527.333 -593.333 -791 -804 -791c-75.333 0 -116 42.333 -122 127c-8.66699 147.333 134.333 322.333 429 525c86.667 54 194 108.333 322 163l171 367c-106 -69.333 -293 -243.333 -561 -522l-28 -5c-66.667 30.667 -100 86 -100 166
c0 183.333 122.333 385.333 367 606c192.667 140 355.334 210 488.001 210zM-140.002 -549.998c10.667 -9.33301 24.332 -11.333 40.999 -6c96.667 16 250.334 161 461.001 435l119 193c-226 -105.333 -405.667 -234 -539 -386c-82 -103.333 -109.333 -182 -82 -236z" />
    <glyph glyph-name="h" unicode="h" horiz-adv-x="835" 
d="M1005 1720c117.333 -53.333 176 -113.999 176 -181.999c0 -71.333 -121 -221.666 -363 -450.999c-267.333 -286 -448.666 -512.333 -543.999 -679v-6c228.667 213.333 447 400.666 655 561.999l30 12c44 0 90.667 -37 140 -111v-35
c-249.333 -240.667 -374 -461.334 -374 -662.001v-29c3.33301 -62.667 16.666 -94 39.999 -94v-17l-29 -6c-73.333 0 -130 68.333 -170 205l-5 41c0 128 72 286 216 474v6c-128.667 -90.667 -329.667 -274 -603 -550l-193 -217h-17c-39.333 28.667 -59 67.667 -59 117
c0 112 201 410.667 603 896c255.333 317.333 415.333 532 480 644l6 29l-6 47l6 6h11z" />
    <glyph glyph-name="i" unicode="i" horiz-adv-x="469" 
d="M884 1457c34 0 73.332 -30.999 117.999 -92.999v-6c-17.333 -62.667 -122.666 -157.334 -315.999 -284.001l-55 -25l-6 6v6c54.667 146 135 278 241 396h18zM469.999 981.001l25 -0.000976562c54.667 0 102 -41 142 -123l6 -19c0 -21.333 -76.333 -114 -229 -278
c-222 -251.333 -333 -430.666 -333 -537.999l12 -12v-12c-94.667 0 -142 41 -142 123c0 124.667 171 394.667 513 810l12 31z" />
    <glyph glyph-name="j" unicode="j" horiz-adv-x="470" 
d="M918 1464c78.667 -28.667 118 -64.333 118 -107v-6c-55.333 -73.333 -130.333 -140.333 -225 -201l-112 -77h-24v12c30.667 90 94 202.667 190 338zM557 990.001l12.001 -0.00195312c50 0 95.333 -41.333 136 -124v-6c-383.333 -540.667 -632 -882 -746 -1024
c-168 -185.333 -326 -278 -474 -278c-108.667 0 -201.334 69 -278.001 207l-18 89c5.33301 19.333 11.333 29 18 29h6c9.33301 -3.33301 38.666 -48.666 87.999 -135.999c28.667 -27.333 64.334 -41 107.001 -41h6c234 0 524 286 870 858
c142 212.667 213 325.334 213 338.001c-99.333 -55.333 -156.333 -83 -171 -83h-12l-12 11c0 22.667 77 74 231 154z" />
    <glyph glyph-name="k" unicode="k" horiz-adv-x="962" 
d="M1029 1713c120.667 -53.333 181.002 -117.668 181.002 -193.001c0 -73.333 -96.333 -195.333 -289 -366c-330.667 -327.333 -523 -538 -577 -632c324 296.667 540.333 445 649 445c104 -36.667 156 -90.667 156 -162v-18c0 -112.667 -110 -235 -330 -367
c-122 -60 -202.333 -90 -241 -90c0 -76 52.333 -180.333 157 -313c12 -13.333 28 -22.666 48 -27.999c10 -5.33301 12.167 -12 6.5 -20s-23.834 -12 -54.501 -12h-6c-96 0 -198.333 82.333 -307 247c-29.333 47.333 -43.333 95.333 -42 144
c171.333 62.667 311.666 149 420.999 259c104 109.333 156 195.333 156 258h-6c-72 0 -310.333 -184.333 -715 -553c-128.667 -136 -193 -244.333 -193 -325c20.667 -6.66699 26.667 -14.667 18 -24c-88 0 -140 44.333 -156 133c0 108 210.333 414.333 631 919
c212 256 370.333 458.667 475 608c10.667 21.333 10.667 47.333 0 78c-1.33301 11.333 4.66699 15.333 18 12z" />
    <glyph glyph-name="l" unicode="l" horiz-adv-x="653" 
d="M594 1170c304.667 298 499.998 446.998 585.998 446.998c106.667 -44.667 160 -101.667 160 -171v-11c0 -114 -237.333 -379 -712 -795c-136.667 -100 -232.667 -153.333 -288 -160l-22 16c113.333 74 268 206.667 464 398c254.667 270 400.334 445 437.001 525v5
c-126.667 -71.333 -305.334 -218.666 -536.001 -441.999c-260 -275.333 -420.333 -479.666 -481 -612.999c-47.333 -100 -71 -173.667 -71 -221c3.33301 -20 16 -27.333 38 -22c53.333 0 180.333 90.333 381 271c126.667 114 202.334 171 227.001 171l5 -5v-6
c-59.333 -88.667 -206.666 -245 -441.999 -469c-76 -59.333 -131 -89 -165 -89h-6c-92 5.33301 -147 57 -165 155c-6.66699 29.333 -5 66 5 110c34.667 218.667 229.667 520.667 585 906z" />
    <glyph glyph-name="m" unicode="m" horiz-adv-x="1220" 
d="M518 979c50.667 8 93.9971 -15.667 129.997 -71c8.66699 -22 8.66699 -43 0 -63c-5.33301 -37.333 -122.666 -173.333 -351.999 -408h6c337.333 314.667 539 472 605 472c86 -30 129 -67 129 -111v-6c0 -26.667 -35 -81 -105 -163l-163 -232v-6l372 332
c54.667 0 95.334 -28 122.001 -84c11.333 -20 14 -39 8 -57s-45.333 -76 -118 -174c-62 -104.667 -93 -186 -93 -244v-23c0 -66 21.333 -99 64 -99c5.33301 -2.66699 8 -7 8 -13c-4 -16.667 -22.333 -26 -55 -28c-106 1.33301 -164.333 62.666 -175 183.999
c-6 104.667 44.667 231.334 152 380.001h-6c-283.333 -261.333 -440.333 -422.333 -471 -483c-31.333 -21.333 -60.5 -20.833 -87.5 1.5s-40.5 49.166 -40.5 80.499c0 59.333 114.333 257.333 343 594c-134 -79.333 -337.667 -258 -611 -536
c-93.333 -136.667 -140 -216 -140 -238l-23 -6c-62 38 -93 78.667 -93 122c0 70.667 46.833 171 140.5 301s219.5 293.333 377.5 490h-6c-87.333 -56.667 -138.833 -87.334 -154.5 -92.001s-25.667 -4.16699 -30 1.5s-2.83301 12.834 4.5 21.501
c90 62.667 164.667 110.334 224 143.001c14.667 9.33301 27.334 14 38.001 14z" />
    <glyph glyph-name="n" unicode="n" horiz-adv-x="919" 
d="M489 974c83.333 -31.333 126.001 -67.998 128.001 -109.998s-122 -205 -372 -489c381.333 344.667 608 519.334 680 524.001c8.66699 1.33301 15.334 1.33301 20.001 0c84 -30 126 -69.667 126 -119c0 -18.667 -62.667 -100 -188 -244
c-129.333 -172.667 -194 -306.334 -194 -401.001c0 -78.667 25 -118 75 -118c1.33301 -2 1.33301 -4.33301 0 -7c-9.33301 -20.667 -30.333 -31 -63 -31h-6c-105.333 15.333 -161.666 84.333 -168.999 207v25c0 126.667 89.667 306 269 538l7 10l-7 -4
c-156.667 -103.333 -390.334 -310 -701.001 -620c-54 -68.667 -83.833 -111.334 -89.5 -128.001s-4.83398 -30 2.49902 -40c-92 10 -138.333 44 -139 102l1 32c0 41.333 81.333 171.666 244 390.999l275 382v6h-6c-95.333 -58 -147.833 -88.5 -157.5 -91.5
s-16.834 -1.83301 -21.501 3.5s-2.66699 15.333 6 30c120.667 101.333 214 152 280 152z" />
    <glyph glyph-name="o" unicode="o" horiz-adv-x="940" 
d="M776 1011c52.667 0 118.334 -57.3369 197.001 -172.004c10 -26.667 4 -38.667 -18 -36c-43.333 27.333 -81 41 -113 41c-162 0 -348.333 -118.667 -559 -356c-83.333 -114.667 -126.333 -214.667 -129 -300v-18c2.66699 -38 29.667 -61 81 -69
c130 0 298.667 144.667 506 434c39.333 66 59 129.667 59 191c-0.666992 12.667 -14.667 28.334 -42 47.001v6c0 10.667 8.83301 17.5 26.5 20.5s38.834 4.16699 63.501 3.5c67.333 -8 105 -51.667 113 -131c14.667 -171.333 -118.333 -359.666 -399 -564.999
c-114.667 -71.333 -207.667 -107 -279 -107h-18c-96.667 -3.33301 -162.834 19.334 -198.501 68.001s-50.834 107.334 -45.501 176.001v24c0 184.667 123 378.667 369 582c148 107.333 276.667 161 386 161z" />
    <glyph glyph-name="p" unicode="p" horiz-adv-x="965" 
d="M1001 971c60 0 114.331 -50.334 162.998 -151.001v-30c-8 -106.667 -106.667 -267.667 -296 -483c-217.333 -206 -396.666 -309 -537.999 -309h-12c-96 4.66699 -148.333 47 -157 127v6c2.66699 24.667 8.66699 37 18 37h6c18.667 -50.667 47 -79 85 -85
c147.333 0 350.666 185.333 609.999 556c50 76.667 80.333 147 91 211c-6 16.667 -12 25 -18 25c-130.667 -48 -304 -165 -520 -351c-224.667 -239.333 -365.667 -416.666 -423 -531.999c-91.333 -162.667 -133.666 -273.334 -126.999 -332.001
c0 -31.333 16 -63.666 48 -96.999c6 -8.66699 7.5 -14.834 4.5 -18.501s-10.5 -5.5 -22.5 -5.5c-108.667 22.667 -163 103.334 -163 242.001v12c0 180 219.667 524.333 659 1033h-6c-81.333 -47.333 -146 -79.333 -194 -96h-12v12c90.667 80 191.334 144.333 302.001 193h19
c36.667 0 74.667 -32.333 114 -97v-18l-78 -96c220 152 369 234.333 447 247z" />
    <glyph glyph-name="q" unicode="q" horiz-adv-x="847" 
d="M856 971c55.333 -9.33301 111.998 -63.667 169.998 -163c13.333 -38.667 13.333 -78.167 0 -118.5s-28.666 -60.5 -45.999 -60.5h-5c-8 0 -12 5.33301 -12 16c19.333 37.333 29 65.666 29 84.999c0 34 -26.667 54.667 -80 62h-22
c-200.667 -8 -406.667 -137.333 -618 -388c-82 -132 -121.667 -218 -119 -258c52 34 201.333 151.667 448 353c99.333 75.333 169 113 209 113c72 -29.333 108 -68.666 108 -117.999c-272 -298 -453.333 -534 -544 -708l-68 -118l-3 -6c134 94 220 141 258 141
c10.667 0 14.334 -5.66699 11.001 -17c-77.333 -42.667 -132 -80 -164 -112c-106 -94.667 -170.333 -173.334 -193 -236.001c-4.66699 -12 -14 -17.667 -28 -17c-46.667 0 -78.667 41.333 -96 124c0 106 183 398 549 876l40 56h-6
c-112.667 -82.667 -286.334 -241.667 -521.001 -477l-23 -6h-5c-60 -4.66699 -101.667 36.333 -125 123v17c4.66699 226.667 163.334 455.334 476.001 686.001c133.333 96 260 146.333 380 151z" />
    <glyph glyph-name="r" unicode="r" horiz-adv-x="750" 
d="M497 976c76.667 5.33301 123.669 -31.665 141.002 -110.998c0 -26.667 -84 -133.667 -252 -321l-58 -78l18 15c222 206.667 378.667 332.667 470 378c36 0 70.333 -32.333 103 -97v-6c0 -20.667 -34.333 -64.667 -103 -132c-34.667 -43.333 -52 -89.333 -52 -138l18 -40
l-6 -5h-17c-52.667 0 -87.334 42 -104.001 126v23c0 38.667 9.66699 78.667 29 120c-432 -362 -648 -599 -648 -711h-6c-42.667 0 -69.334 32.333 -80.001 97c0 91.333 86 251.333 258 480c28 41.333 98.667 139.666 212 294.999h-5l-201 -121
c-17.333 -9.33301 -28 -10.333 -32 -3s-1 16 9 26c24.667 31.333 112.667 92.666 264 183.999z" />
    <glyph glyph-name="s" unicode="s" horiz-adv-x="854" 
d="M849 980c47.333 0 96.6631 -45.667 147.996 -137c26.667 -20.667 40 -46.334 40 -77.001v-5c0 -81.333 -79.667 -172.666 -239 -273.999c-48 -25.333 -91.667 -38 -131 -38c-7.33301 -0.666992 -11.666 1 -12.999 5s1.33398 7.66699 8.00098 11
c193.333 155.333 290 265 290 329c-3.33301 11.333 -16.666 15 -39.999 11c-162 0 -313.667 -80.333 -455 -241c-49.333 -78.667 -74 -151.667 -74 -219v-39l28 -235c0 -47.333 -24.333 -71 -73 -71c-92.667 0 -187.667 60 -285 180c-40 59.333 -57 110.666 -51 153.999
c2 16.667 6.16699 26.667 12.5 30s11.5 2.33301 15.5 -3l64 -123c43.333 -65.333 111.333 -102.666 204 -111.999c8.66699 0 13.334 1.66699 14.001 5s-0.333008 9 -3 17c-38 117.333 -57 208.333 -57 273c0 242.667 155.667 421.667 467 537c42 12.667 85.333 20 130 22z
" />
    <glyph glyph-name="t" unicode="t" horiz-adv-x="633" 
d="M853 1435l25.0029 0.00195312c115.333 -23.333 173.666 -76 174.999 -158v-18c0 -46.667 -82.667 -141.334 -248 -284.001l-6 -6v-6h6l187 12c27.333 0 41.666 -8 42.999 -24c0 -14 -90.667 -30 -272 -48c-26.667 0 -109.334 -82.667 -248.001 -248
c-130 -141.333 -237 -282.333 -321 -423v-6c192.667 140.667 307.667 211 345 211l6 -6v-6c0 -9.33301 -66 -65 -198 -167c-112 -102 -181 -183.333 -207 -244c-12.667 -15.333 -26.667 -19.333 -42 -12c-64.667 28.667 -97 67 -97 115v12
c0 125.333 149.667 367.666 449 726.999l-8 -2l-145 -30c-40.667 0 -68.667 30.333 -84 91v6l66 -12l23 -1c126.667 8.66699 197.667 23 213 43c134 133.333 244.667 261 332 383c12 35.333 14 69 6 101z" />
    <glyph glyph-name="u" unicode="u" horiz-adv-x="1012" 
d="M509 1018c59.333 0 119.329 -43.667 179.996 -131l-203 -203c-226.667 -242.667 -340 -431.334 -340 -566.001c54 14.667 292.333 215.334 715 602.001c81.333 71.333 135 107 161 107c38.667 0 76.334 -37.667 113.001 -113c0 -8.66699 -55.667 -80.334 -167 -215.001
c-146.667 -204 -220 -349 -220 -435c-2 -28 2 -53.667 12 -77c-1.33301 -8 -5.33301 -10 -12 -6c-63.333 22 -102.666 54.333 -117.999 97c-5.33301 8 -7.66602 35 -6.99902 81c0 110 69.333 257.333 208 442h-6c-363.333 -400 -583.666 -602.667 -660.999 -608
c-110 24.667 -165.667 84.334 -167 179.001c0 198 163 468 489 810c8 24 15.667 36 23 36z" />
    <glyph glyph-name="v" unicode="v" horiz-adv-x="788" 
d="M978 1055c93.333 -6 138.001 -52.666 134.001 -139.999c-47.333 -240 -326.666 -534 -837.999 -882l-80 -31h-6c-98.667 15.333 -162 78.666 -190 189.999v12c0 175.333 110.333 394 331 656h-6c-75.333 -37.333 -122.333 -56 -141 -56l-6 7v6c72 66 159.667 119 263 159
c102 -34 153 -75 153 -123v-6c-273.333 -296 -416.333 -526.667 -429 -692v-36c175.333 78 379.666 263.667 612.999 557c85.333 124.667 128 220.667 128 288v12c-2.66699 14.667 -16.334 22.667 -41.001 24l5 6c28 32.667 64.667 49 110 49z" />
    <glyph glyph-name="w" unicode="w" horiz-adv-x="1373" 
d="M1498 1057c82.667 -6 130.333 -49.6631 143 -130.996v-25c0 -140.667 -129 -351 -387 -631c-182 -178.667 -327.667 -268 -437 -268c-88.667 0 -140.667 56 -156 168l-2 55c5.33301 123.333 69.333 273.666 192 450.999l-9 -6
c-162.667 -93.333 -354.334 -247.333 -575.001 -462l-156 -200c-58 0 -95.333 43.667 -112 131c0 49.333 97.667 216 293 500c72.667 112 122.667 201.333 150 268c0 23.333 -8.33301 42 -25 56c-2 4 0.333008 6.33301 7 7c88.667 0 157.334 -46 206.001 -138
c2 -6.66699 2 -14 0 -22c0 -28 -100 -164 -300 -408l-34 -48l15 10c388.667 301.333 594.667 455.333 618 462h7c69.333 0 119 -41.667 149 -125l7 -18c0 -9.33301 -46 -74 -138 -194c-95.333 -144.667 -143 -265.334 -143 -362.001c0 -8.66699 0.333008 -15.834 1 -21.501
s2.33398 -8.83398 5.00098 -9.50098c126 20 298.667 203 518 549c66 132 101.333 227.667 106 287c-4.66699 37.333 -25.334 55.666 -62.001 54.999l12 20c32 36.667 67.667 53.334 107 50.001z" />
    <glyph glyph-name="x" unicode="x" horiz-adv-x="983" 
d="M1185 1021l25.998 -0.00195312c72.667 -9.33301 109 -43.333 109 -102c0 -113.333 -261 -318.666 -783 -615.999v-39c16.667 -111.333 55.334 -167 116.001 -167h6c58.667 0 146.334 49.333 263.001 148l13 -13v-13c-108 -150 -208.667 -225 -302 -225h-32
c-111.333 0 -188.333 83.667 -231 251c-162.667 -93.333 -244 -172.666 -244 -237.999l7 -19l-19 -13h-13c-68.667 6.66699 -103 39 -103 97c0 64 117.667 149.333 353 256c0 134.667 70.667 316.667 212 546v6c-101.333 -53.333 -176.333 -87.666 -225 -102.999h-6l-13 13
v7c194 138 303 208.333 327 211c102.667 -36 154 -78.667 154 -128v-6c-141.333 -214 -220.333 -366 -237 -456h6c350.667 229.333 526 404.666 526 525.999l-25 26c34.667 34 73 51 115 51z" />
    <glyph glyph-name="y" unicode="y" horiz-adv-x="945" 
d="M504 973c52.667 0 104.669 -38.668 156.002 -116.001v-23c-0.666992 -26.667 -46.334 -72.667 -137.001 -138c-164 -148 -276.667 -278 -338 -390c-50.667 -97.333 -76 -155.333 -76 -174h6c58 0 299.667 193.333 725 580l23 6c89.333 -23.333 134 -58 134 -104
c-34.667 -92.667 -108.334 -257 -221.001 -493h6c23.333 -2.66699 35 -8.66699 35 -18c0 -16.667 -25 -32 -75 -46c-322 -526 -593 -789 -813 -789c-88.667 10 -133 50.667 -133 122c0 151.333 178 350.333 534 597c76 44.667 161 85.334 255 122.001l197 464
c-374 -378.667 -598.333 -568 -673 -568c-70.667 0 -115 46.333 -133 139v23c0 180.667 150.667 418.667 452 714c32 30 55.333 60.667 70 92h6zM-104.998 -616.001c0.666992 -6.66699 4.33301 -10.667 11 -12c78 0 211.333 104.667 400 314
c68 83.333 145.333 195.333 232 336v6c-132 -54 -306 -187.333 -522 -400c-80.667 -100.667 -121 -182 -121 -244z" />
    <glyph glyph-name="z" unicode="z" horiz-adv-x="830" 
d="M1021 1021c39.333 0 80.0039 -53.333 122.004 -160c0 -29.333 -104.667 -108.333 -314 -237c-282.667 -197.333 -487.334 -346.333 -614.001 -447h6c120.667 42.667 253 64 397 64c124 -5.33301 186 -20.333 186 -45v-7c-6 -16.667 -25.333 -25 -58 -25h-26
c-184.667 0 -376.334 -62 -575.001 -186h-19c-58.667 0 -99.334 51.333 -122.001 154c0 54 128 182 384 384l505 390h-6c-146 -68 -263.333 -102 -352 -102h-32c-80.667 0 -127.667 55.333 -141 166v6l19 7c88.667 -34 152.667 -51 192 -51
c47.333 0 196.666 29.667 447.999 89z" />
    <glyph glyph-name="braceleft" unicode="{" horiz-adv-x="867" 
d="M1235 1668c23.333 -8 34.999 -14.6631 34.999 -19.9961v-5c0 -6 -25.333 -22.667 -76 -50c-114.667 -120 -228.334 -291 -341.001 -513c-96 -206 -220 -338.333 -372 -397l-91 -25v-5c0 -10 13.333 -33.667 40 -71c16.667 -34 25 -65.667 25 -95v-20
c0 -78.667 -85.333 -248 -256 -508c-66.667 -124 -100 -226.333 -100 -307v-10l5 -45l-15 -25c-57.333 0 -92.666 72 -105.999 216c0 103.333 88.667 287.666 266 552.999c50.667 101.333 76 181.666 76 240.999c0 23.333 -10 53.666 -30 90.999
c0 19.333 31.667 34.333 95 45c52.667 25.333 111.334 89 176.001 191c176.667 328 295.667 522.333 357 583c54.667 77.333 140 132.666 256 165.999z" />
    <glyph glyph-name="bar" unicode="|" horiz-adv-x="425" 
d="M272 -164h-98v1829h98v-1829z" />
    <glyph glyph-name="braceright" unicode="}" horiz-adv-x="0" 
d="M-3734 -780c-242.667 133.333 -350.334 269.001 -323 407.001c12 53.333 31.667 78.666 59 75.999c19.333 -2.66699 32.333 -12.334 39 -29.001c-2 -17.333 -2.66699 -27.666 -2 -30.999c-2.66699 -14.667 27 -51.667 89 -111c168 -128 379.333 -207.333 634 -238
c148.667 -16.667 355.334 -10.334 620 18.999c234 30.667 444 71.334 630 122.001c636.667 166.667 988 260.667 1054 282c262 67.333 507.667 120.666 737 159.999c200.667 37.333 378 47 532 29c24 -6 35 -14.333 33 -25l-3 -10c-0.666992 -4 -4 -8.66699 -10 -14
c-15.333 -16.667 -38 -23 -68 -19l-16 2c-58 5.33301 -121 3.66602 -189 -5.00098c-80 -7.33301 -164.333 -18.333 -253 -33c-257.333 -49.333 -491 -112 -701 -188l-860.5 -297.5c-363.667 -122.333 -677.834 -206.166 -942.5 -251.499
c-207.333 -26.667 -395.5 -27.667 -564.5 -3s-333.833 77.334 -494.5 158.001z" />
    <glyph glyph-name="asciitilde" unicode="~" horiz-adv-x="518" 
d="M-859 1865c172 -64 372.5 -166.335 601.5 -307.002l541 -340c131.667 -86 280.834 -162.333 447.501 -229c58 -21.333 113.333 -39 166 -53c44.667 -13.333 86.667 -20.333 126 -21h11c20.667 0.666992 35 -7 43 -23c3.33301 -5.33301 5 -9.66602 5 -12.999l1 -9
c0 -9.33301 -8.33301 -15.666 -25 -18.999c-105.333 -2 -223 22.667 -353 74c-149.333 55.333 -307.666 124.666 -474.999 207.999c-42 24.667 -266.333 139.334 -673 344.001c-118.667 61.333 -254.667 116.333 -408 165c-174 50 -311.667 74.333 -413 73
c-174.667 -3.33301 -326 -53.666 -454 -150.999c-48.667 -46 -73 -75.667 -73 -89c-0.666992 -2.66699 -1.33398 -11.667 -2.00098 -27c-6.66699 -14 -16.667 -21.333 -30 -22c-18.667 0 -28.667 24 -30 72c-2 123.333 86.333 232.666 265 327.999
c117.333 56 234.166 87 350.499 93s242.5 -12 378.5 -54zM580 1016c105.333 110 194.334 216.001 267.001 318.001c12 35.333 14 69 6 101h25c115.333 -23.333 173.666 -76 174.999 -158v-18c0 -46.667 -82.667 -141.334 -248 -284.001l-6 -6v-3l-161 -169h1
c-34.667 -37.333 -76 -84.666 -124 -141.999c-130 -141.333 -237 -282.333 -321 -423v-6c192.667 140.667 307.667 211 345 211l6 -6v-6c0 -9.33301 -66 -65 -198 -167c-112 -102 -181 -183.333 -207 -244c-12.667 -15.333 -26.667 -19.333 -42 -12
c-64.667 28.667 -97 67 -97 115v12c0 125.333 149.667 367.666 449 726.999l-2 -1z" />
    <glyph glyph-name="dieresis" unicode="&#xa8;" horiz-adv-x="1024" 
 />
    <glyph glyph-name="copyright" unicode="&#xa9;" horiz-adv-x="750" 
 />
    <glyph glyph-name="registered" unicode="&#xae;" horiz-adv-x="750" 
 />
    <glyph glyph-name="acute" unicode="&#xb4;" horiz-adv-x="1024" 
 />
    <glyph glyph-name="paragraph" unicode="&#xb6;" horiz-adv-x="1024" 
d="M929 1435l-0.000976562 -70h-127v-1365h-82v1365h-166v-1365h-84v738c-116 5.33301 -207.833 39.5 -275.5 102.5s-101.5 144.833 -101.5 245.5c0 104.667 35.833 189 107.5 253s166.834 96 285.501 96h443z" />
    <glyph glyph-name="onequarter" unicode="&#xbc;" horiz-adv-x="1780" 
 />
    <glyph glyph-name="onehalf" unicode="&#xbd;" horiz-adv-x="1780" 
 />
    <glyph glyph-name="threequarters" unicode="&#xbe;" horiz-adv-x="1780" 
 />
    <glyph glyph-name="Agrave" unicode="&#xc0;" 
d="M1696 1680c260.667 0 545.332 -61.998 853.999 -185.998c58.667 -53.333 95 -108 109 -164c-2 -26 -45.667 -82.667 -131 -170c-176.667 -202 -313.667 -373.333 -411 -514c0 -8.66699 13 -14.334 39 -17.001c72.667 -35.333 109 -64.333 109 -87l-5 -6h-17l-158 66
c-131.333 -206 -202.666 -366.667 -213.999 -482c0 -52.667 23.667 -87.334 71 -104.001v-5l-11 -11h-5c-96 0 -152.667 65.667 -170 197l-5 33c0 92 52.667 232.333 158 421h-5c-102.667 29.333 -201 44 -295 44h-6c-430 -368.667 -725.333 -574.667 -886 -618
c-122 -51.333 -238.667 -77 -350 -77c-171.333 -0 -288.333 60.333 -351 181c-10.667 17.333 -16 44.666 -16 81.999v5c-0 184 244.333 331.667 733 443c182.667 32.667 390.667 49 624 49l126 -5l935 711c-230 69.333 -450.667 104 -662 104
c-404.667 -18.667 -607 -75 -607 -169l27 -39l-11 -11c-58 23.333 -87 67.333 -87 132c0 112.667 160.333 178.334 481 197.001h137zM1652 739.002c70.667 0 165.667 -14.667 285 -44c80.667 141.333 223 329 427 563c-100.667 -61.333 -338 -234.333 -712 -519z
M97.998 279.002c0 -52.667 30.999 -91 92.999 -115l99 -16c170 0 374.333 71 613 213c128 74 297.667 185.333 509 334v5h-33c-544 0 -950.667 -102 -1220 -306c-37.333 -40.667 -57.666 -79 -60.999 -115zM2537 1868l203 -314c7.33301 0 11 -9 11 -27v-11h-11
c-56 0 -160.667 75 -314 225l-11 39c0 38.667 40.667 68 122 88z" />
    <glyph glyph-name="Aacute" unicode="&#xc1;" 
d="M1696 1680c260.667 0 545.332 -61.998 853.999 -185.998c58.667 -53.333 95 -108 109 -164c-2 -26 -45.667 -82.667 -131 -170c-176.667 -202 -313.667 -373.333 -411 -514c0 -8.66699 13 -14.334 39 -17.001c72.667 -35.333 109 -64.333 109 -87l-5 -6h-17l-158 66
c-131.333 -206 -202.666 -366.667 -213.999 -482c0 -52.667 23.667 -87.334 71 -104.001v-5l-11 -11h-5c-96 0 -152.667 65.667 -170 197l-5 33c0 92 52.667 232.333 158 421h-5c-102.667 29.333 -201 44 -295 44h-6c-430 -368.667 -725.333 -574.667 -886 -618
c-122 -51.333 -238.667 -77 -350 -77c-171.333 -0 -288.333 60.333 -351 181c-10.667 17.333 -16 44.666 -16 81.999v5c-0 184 244.333 331.667 733 443c182.667 32.667 390.667 49 624 49l126 -5l935 711c-230 69.333 -450.667 104 -662 104
c-404.667 -18.667 -607 -75 -607 -169l27 -39l-11 -11c-58 23.333 -87 67.333 -87 132c0 112.667 160.333 178.334 481 197.001h137zM1652 739.002c70.667 0 165.667 -14.667 285 -44c80.667 141.333 223 329 427 563c-100.667 -61.333 -338 -234.333 -712 -519z
M97.998 279.002c0 -52.667 30.999 -91 92.999 -115l99 -16c170 0 374.333 71 613 213c128 74 297.667 185.333 509 334v5h-33c-544 0 -950.667 -102 -1220 -306c-37.333 -40.667 -57.666 -79 -60.999 -115zM2958 1777l11 0.000976562c70 -16.667 105 -42.334 105 -77.001v-6
c-30 -40 -138.333 -89.333 -325 -148l-110 -22l-11 16z" />
    <glyph glyph-name="Acircumflex" unicode="&#xc2;" 
d="M1696 1680c260.667 0 545.332 -61.998 853.999 -185.998c58.667 -53.333 95 -108 109 -164c-2 -26 -45.667 -82.667 -131 -170c-176.667 -202 -313.667 -373.333 -411 -514c0 -8.66699 13 -14.334 39 -17.001c72.667 -35.333 109 -64.333 109 -87l-5 -6h-17l-158 66
c-131.333 -206 -202.666 -366.667 -213.999 -482c0 -52.667 23.667 -87.334 71 -104.001v-5l-11 -11h-5c-96 0 -152.667 65.667 -170 197l-5 33c0 92 52.667 232.333 158 421h-5c-102.667 29.333 -201 44 -295 44h-6c-430 -368.667 -725.333 -574.667 -886 -618
c-122 -51.333 -238.667 -77 -350 -77c-171.333 -0 -288.333 60.333 -351 181c-10.667 17.333 -16 44.666 -16 81.999v5c-0 184 244.333 331.667 733 443c182.667 32.667 390.667 49 624 49l126 -5l935 711c-230 69.333 -450.667 104 -662 104
c-404.667 -18.667 -607 -75 -607 -169l27 -39l-11 -11c-58 23.333 -87 67.333 -87 132c0 112.667 160.333 178.334 481 197.001h137zM1652 739.002c70.667 0 165.667 -14.667 285 -44c80.667 141.333 223 329 427 563c-100.667 -61.333 -338 -234.333 -712 -519z
M97.998 279.002c0 -52.667 30.999 -91 92.999 -115l99 -16c170 0 374.333 71 613 213c128 74 297.667 185.333 509 334v5h-33c-544 0 -950.667 -102 -1220 -306c-37.333 -40.667 -57.666 -79 -60.999 -115zM2664 1820c165.333 -92 248 -167.333 248 -226l-6 -5h-11
c-56.667 55.333 -143 96.333 -259 123c-62.667 2.66699 -136 -31 -220 -101h-17c0 65.333 82.667 135 248 209h17z" />
    <glyph glyph-name="Atilde" unicode="&#xc3;" 
d="M1696 1680c260.667 0 545.332 -61.998 853.999 -185.998c58.667 -53.333 95 -108 109 -164c-2 -26 -45.667 -82.667 -131 -170c-176.667 -202 -313.667 -373.333 -411 -514c0 -8.66699 13 -14.334 39 -17.001c72.667 -35.333 109 -64.333 109 -87l-5 -6h-17l-158 66
c-131.333 -206 -202.666 -366.667 -213.999 -482c0 -52.667 23.667 -87.334 71 -104.001v-5l-11 -11h-5c-96 0 -152.667 65.667 -170 197l-5 33c0 92 52.667 232.333 158 421h-5c-102.667 29.333 -201 44 -295 44h-6c-430 -368.667 -725.333 -574.667 -886 -618
c-122 -51.333 -238.667 -77 -350 -77c-171.333 -0 -288.333 60.333 -351 181c-10.667 17.333 -16 44.666 -16 81.999v5c-0 184 244.333 331.667 733 443c182.667 32.667 390.667 49 624 49l126 -5l935 711c-230 69.333 -450.667 104 -662 104
c-404.667 -18.667 -607 -75 -607 -169l27 -39l-11 -11c-58 23.333 -87 67.333 -87 132c0 112.667 160.333 178.334 481 197.001h137zM1652 739.002c70.667 0 165.667 -14.667 285 -44c80.667 141.333 223 329 427 563c-100.667 -61.333 -338 -234.333 -712 -519z
M97.998 279.002c0 -52.667 30.999 -91 92.999 -115l99 -16c170 0 374.333 71 613 213c128 74 297.667 185.333 509 334v5h-33c-544 0 -950.667 -102 -1220 -306c-37.333 -40.667 -57.666 -79 -60.999 -115zM2730 1727c75.333 -28.667 127.999 -43 157.999 -43h29
c18.667 0 41.667 13.333 69 40c16.667 6.66699 26.334 1 29 -17c-5.33301 -74 -36.166 -115 -92.499 -123s-126.5 5.16699 -210.5 39.5s-156 50.5 -216 48.5c-15.333 0 -50 -17.333 -104 -52c-15.333 -4 -21 3.66699 -17 23c60 84.667 123.333 127 190 127
c34.667 0 89.667 -14.333 165 -43z" />
    <glyph glyph-name="Egrave" unicode="&#xc8;" horiz-adv-x="1458" 
d="M1463 1578c79.333 0 136 -21.999 170 -65.999l346 -11l39 17c44 0 73.333 -31.333 88 -94c-239.333 -183.333 -371.333 -275 -396 -275v6c0 14 51.333 87.333 154 220l5 5v6l-187 11h-153c-78 -22.667 -279.667 -195 -605 -517l-61 -72h6c266 22 458.333 44 577 66
c29.333 -13.333 44 -39 44 -77v-5c-72.667 -66 -160.667 -121 -264 -165l-5 16l71 110h-5c-363.333 -13.333 -545 -40.666 -545 -81.999c-142.667 -158 -214 -290 -214 -396c0 -70 36.667 -110.333 110 -121l22 -6c186 0 448 115.667 786 347h17l22 -17v-16
c-328.667 -308 -594.667 -462 -798 -462c-116 0 -215 66 -297 198c-14.667 40 -22 82 -22 126c0 108.667 47.667 226 143 352l-66 -5c-91.333 9.33301 -137 38.666 -137 87.999v5l82 -11l193 17c126 179.333 331.333 384.666 616 615.999h-6
c-245.333 -22 -456 -68 -632 -138c-256.667 -118.667 -385 -228.667 -385 -330v-16c0 -30 27.333 -63 82 -99v-6l-11 -11h-22c-92.667 0 -164 46 -214 138c-7.33301 14 -11 34 -11 60v11c-0 112 126.333 227.667 379 347c286.667 108 602 161 946 159
c60 49.333 106 75 138 77zM1516 1965l203 -314c7.33301 0 11 -9 11 -27v-11h-11c-56 0 -160.667 75 -314 225l-11 39c0 38.667 40.667 68 122 88z" />
    <glyph glyph-name="Eacute" unicode="&#xc9;" horiz-adv-x="1458" 
d="M1463 1578c79.333 0 136 -21.999 170 -65.999l346 -11l39 17c44 0 73.333 -31.333 88 -94c-239.333 -183.333 -371.333 -275 -396 -275v6c0 14 51.333 87.333 154 220l5 5v6l-187 11h-153c-78 -22.667 -279.667 -195 -605 -517l-61 -72h6c266 22 458.333 44 577 66
c29.333 -13.333 44 -39 44 -77v-5c-72.667 -66 -160.667 -121 -264 -165l-5 16l71 110h-5c-363.333 -13.333 -545 -40.666 -545 -81.999c-142.667 -158 -214 -290 -214 -396c0 -70 36.667 -110.333 110 -121l22 -6c186 0 448 115.667 786 347h17l22 -17v-16
c-328.667 -308 -594.667 -462 -798 -462c-116 0 -215 66 -297 198c-14.667 40 -22 82 -22 126c0 108.667 47.667 226 143 352l-66 -5c-91.333 9.33301 -137 38.666 -137 87.999v5l82 -11l193 17c126 179.333 331.333 384.666 616 615.999h-6
c-245.333 -22 -456 -68 -632 -138c-256.667 -118.667 -385 -228.667 -385 -330v-16c0 -30 27.333 -63 82 -99v-6l-11 -11h-22c-92.667 0 -164 46 -214 138c-7.33301 14 -11 34 -11 60v11c-0 112 126.333 227.667 379 347c286.667 108 602 161 946 159
c60 49.333 106 75 138 77zM2012 1856l11 0.000976562c70 -16.667 105 -42.334 105 -77.001v-6c-30 -40 -138.333 -89.333 -325 -148l-110 -22l-11 16z" />
    <glyph glyph-name="Ecircumflex" unicode="&#xca;" horiz-adv-x="1458" 
d="M1463 1578c79.333 0 136 -21.999 170 -65.999l346 -11l39 17c44 0 73.333 -31.333 88 -94c-239.333 -183.333 -371.333 -275 -396 -275v6c0 14 51.333 87.333 154 220l5 5v6l-187 11h-153c-78 -22.667 -279.667 -195 -605 -517l-61 -72h6c266 22 458.333 44 577 66
c29.333 -13.333 44 -39 44 -77v-5c-72.667 -66 -160.667 -121 -264 -165l-5 16l71 110h-5c-363.333 -13.333 -545 -40.666 -545 -81.999c-142.667 -158 -214 -290 -214 -396c0 -70 36.667 -110.333 110 -121l22 -6c186 0 448 115.667 786 347h17l22 -17v-16
c-328.667 -308 -594.667 -462 -798 -462c-116 0 -215 66 -297 198c-14.667 40 -22 82 -22 126c0 108.667 47.667 226 143 352l-66 -5c-91.333 9.33301 -137 38.666 -137 87.999v5l82 -11l193 17c126 179.333 331.333 384.666 616 615.999h-6
c-245.333 -22 -456 -68 -632 -138c-256.667 -118.667 -385 -228.667 -385 -330v-16c0 -30 27.333 -63 82 -99v-6l-11 -11h-22c-92.667 0 -164 46 -214 138c-7.33301 14 -11 34 -11 60v11c-0 112 126.333 227.667 379 347c286.667 108 602 161 946 159
c60 49.333 106 75 138 77zM1809 1820c165.333 -92 248 -167.333 248 -226l-6 -5h-11c-56.667 55.333 -143 96.333 -259 123c-62.667 2.66699 -136 -31 -220 -101h-17c0 65.333 82.667 135 248 209h17z" />
    <glyph glyph-name="Igrave" unicode="&#xcc;" horiz-adv-x="1146" 
d="M1674 1797l154.998 -106.001c376 -47.333 564 -119.666 564 -216.999v-6c0 -26 -16.667 -50.667 -50 -74h-25l-12 12v6l12 19v6c-99.333 70 -256.333 105 -471 105h-136c-110.667 -72.667 -311 -260.667 -601 -564c-301.333 -352 -458.666 -612.333 -471.999 -781
c184.667 -2 302.667 -33 354 -93l-13 -18l-111 12h-174c-215.333 0 -388.666 -51.667 -519.999 -155v-6l24 -31l-12 -12h-25c-78.667 11.333 -118 48.333 -118 111c0 96 151 160 453 192h18c-28.667 33.333 -43 60.333 -43 81c0 232.667 291.333 646 874 1240h-6
c-155.333 0 -395 -45.667 -719 -137c-318 -132 -477 -249.667 -477 -353c0 -49.333 49.333 -82.333 148 -99l7 -6v-19l-31 -6h-25c-136 0 -216.667 68 -242 204v50c0 96 55.667 170.333 167 223c369.333 210.667 824 316 1364 316c62 70.667 109.667 106 143 106zM1582 2192
l203 -314c7.33301 0 11 -9 11 -27v-11h-11c-56 0 -160.667 75 -314 225l-11 39c0 38.667 40.667 68 122 88z" />
    <glyph glyph-name="Iacute" unicode="&#xcd;" horiz-adv-x="1146" 
d="M1674 1797l154.998 -106.001c376 -47.333 564 -119.666 564 -216.999v-6c0 -26 -16.667 -50.667 -50 -74h-25l-12 12v6l12 19v6c-99.333 70 -256.333 105 -471 105h-136c-110.667 -72.667 -311 -260.667 -601 -564c-301.333 -352 -458.666 -612.333 -471.999 -781
c184.667 -2 302.667 -33 354 -93l-13 -18l-111 12h-174c-215.333 0 -388.666 -51.667 -519.999 -155v-6l24 -31l-12 -12h-25c-78.667 11.333 -118 48.333 -118 111c0 96 151 160 453 192h18c-28.667 33.333 -43 60.333 -43 81c0 232.667 291.333 646 874 1240h-6
c-155.333 0 -395 -45.667 -719 -137c-318 -132 -477 -249.667 -477 -353c0 -49.333 49.333 -82.333 148 -99l7 -6v-19l-31 -6h-25c-136 0 -216.667 68 -242 204v50c0 96 55.667 170.333 167 223c369.333 210.667 824 316 1364 316c62 70.667 109.667 106 143 106zM2166 2049
l11 0.000976562c70 -16.667 105 -42.334 105 -77.001v-6c-30 -40 -138.333 -89.333 -325 -148l-110 -22l-11 16z" />
    <glyph glyph-name="Ograve" unicode="&#xd2;" horiz-adv-x="1407" 
d="M1216 1685c140.667 0 256.669 -77.667 348.002 -233l18 -72v-30l-12 -12h-12l-48 90c-39.333 40 -107.333 60 -204 60h-60c-258.667 0 -528.334 -128 -809.001 -384c-191.333 -204.667 -287 -416.334 -287 -635.001c0 -153.333 81.667 -257 245 -311l120 -18
c244 0 497.667 147.667 761 443c148 191.333 222 369 222 533v18c0 89.333 -44 149.333 -132 180l-72 12c-85.333 0 -177.333 -20 -276 -60h-6l-11 12v12c81.333 68 173 102 275 102h30c160 0 266 -88 318 -264l6 -72v-6c0 -302 -182 -591.333 -546 -868
c-189.333 -124 -359 -186 -509 -186c-158.667 0 -294.334 60 -407.001 180c-112 132.667 -168 276.334 -168 431.001v12c0 299.333 191.667 587 575 863c237.333 135.333 451 203 641 203zM1205 2083l203 -314c7.33301 0 11 -9 11 -27v-11h-11c-56 0 -160.667 75 -314 225
l-11 39c0 38.667 40.667 68 122 88z" />
    <glyph glyph-name="Oacute" unicode="&#xd3;" horiz-adv-x="1407" 
d="M1216 1685c140.667 0 256.669 -77.667 348.002 -233l18 -72v-30l-12 -12h-12l-48 90c-39.333 40 -107.333 60 -204 60h-60c-258.667 0 -528.334 -128 -809.001 -384c-191.333 -204.667 -287 -416.334 -287 -635.001c0 -153.333 81.667 -257 245 -311l120 -18
c244 0 497.667 147.667 761 443c148 191.333 222 369 222 533v18c0 89.333 -44 149.333 -132 180l-72 12c-85.333 0 -177.333 -20 -276 -60h-6l-11 12v12c81.333 68 173 102 275 102h30c160 0 266 -88 318 -264l6 -72v-6c0 -302 -182 -591.333 -546 -868
c-189.333 -124 -359 -186 -509 -186c-158.667 0 -294.334 60 -407.001 180c-112 132.667 -168 276.334 -168 431.001v12c0 299.333 191.667 587 575 863c237.333 135.333 451 203 641 203zM1548 2005l11 0.000976562c70 -16.667 105 -42.334 105 -77.001v-6
c-30 -40 -138.333 -89.333 -325 -148l-110 -22l-11 16z" />
    <glyph glyph-name="Ocircumflex" unicode="&#xd4;" horiz-adv-x="1407" 
d="M1216 1685c140.667 0 256.669 -77.667 348.002 -233l18 -72v-30l-12 -12h-12l-48 90c-39.333 40 -107.333 60 -204 60h-60c-258.667 0 -528.334 -128 -809.001 -384c-191.333 -204.667 -287 -416.334 -287 -635.001c0 -153.333 81.667 -257 245 -311l120 -18
c244 0 497.667 147.667 761 443c148 191.333 222 369 222 533v18c0 89.333 -44 149.333 -132 180l-72 12c-85.333 0 -177.333 -20 -276 -60h-6l-11 12v12c81.333 68 173 102 275 102h30c160 0 266 -88 318 -264l6 -72v-6c0 -302 -182 -591.333 -546 -868
c-189.333 -124 -359 -186 -509 -186c-158.667 0 -294.334 60 -407.001 180c-112 132.667 -168 276.334 -168 431.001v12c0 299.333 191.667 587 575 863c237.333 135.333 451 203 641 203zM1323 1951c165.333 -92 248 -167.333 248 -226l-6 -5h-11
c-56.667 55.333 -143 96.333 -259 123c-62.667 2.66699 -136 -31 -220 -101h-17c0 65.333 82.667 135 248 209h17z" />
    <glyph glyph-name="Otilde" unicode="&#xd5;" horiz-adv-x="1407" 
d="M1216 1685c140.667 0 256.669 -77.667 348.002 -233l18 -72v-30l-12 -12h-12l-48 90c-39.333 40 -107.333 60 -204 60h-60c-258.667 0 -528.334 -128 -809.001 -384c-191.333 -204.667 -287 -416.334 -287 -635.001c0 -153.333 81.667 -257 245 -311l120 -18
c244 0 497.667 147.667 761 443c148 191.333 222 369 222 533v18c0 89.333 -44 149.333 -132 180l-72 12c-85.333 0 -177.333 -20 -276 -60h-6l-11 12v12c81.333 68 173 102 275 102h30c160 0 266 -88 318 -264l6 -72v-6c0 -302 -182 -591.333 -546 -868
c-189.333 -124 -359 -186 -509 -186c-158.667 0 -294.334 60 -407.001 180c-112 132.667 -168 276.334 -168 431.001v12c0 299.333 191.667 587 575 863c237.333 135.333 451 203 641 203zM1452 1953c67.333 0 130.998 -42.333 190.998 -127c4 -19.333 -2 -27 -18 -23
c-53.333 34.667 -87.666 52 -102.999 52c-60 2 -132 -14.167 -216 -48.5s-154.167 -47.5 -210.5 -39.5s-87.166 49 -92.499 123c2.66699 18 12 23.667 28 17c28 -26.667 51.333 -40 70 -40h29c29.333 0 81.833 14.333 157.5 43s130.5 43 164.5 43z" />
    <glyph glyph-name="Ugrave" unicode="&#xd9;" horiz-adv-x="1858" 
d="M1315 1695h49c137.333 0 229.333 -51.333 276 -154l6 -30c0 -32 -86 -116 -258 -252c-386 -352.667 -621.333 -635.334 -706 -848.001c-36.667 -71.333 -55 -126.666 -55 -165.999c6.66699 -44.667 27 -67 61 -67c110 0 390.667 198.333 842 595
c281.333 238 441 357 479 357c52 0 109.333 -49.333 172 -148v-12c0 -7.33301 -45 -50.333 -135 -129c-307.333 -331.333 -461 -569 -461 -713c0 -48.667 22.667 -91.667 68 -129c-21.333 -12 -42 -18 -62 -18h-6c-86 0 -143.333 61.333 -172 184v13
c0 165.333 131 392.333 393 681h-6c-122 -94 -349.333 -300.667 -682 -620c-179.333 -160 -304.333 -240 -375 -240c-117.333 0 -207.333 86 -270 258l-12 74c0 225.333 210.667 547 632 965l314 288c-403.333 0 -772 -139 -1106 -417c-86 -87.333 -129 -157 -129 -209v-19
c0 -17.333 10.333 -37.666 31 -60.999c3.33301 -8 1.33301 -12 -6 -12c-122.667 2 -188.334 73.667 -197.001 215c0 225.333 282.667 411.666 848 558.999c168.667 36.667 324.334 55 467.001 55zM1858 1667l203 -314c7.33301 0 11 -9 11 -27v-11h-11
c-56 0 -160.667 75 -314 225l-11 39c0 38.667 40.667 68 122 88z" />
    <glyph glyph-name="Uacute" unicode="&#xda;" horiz-adv-x="1858" 
d="M1315 1695h49c137.333 0 229.333 -51.333 276 -154l6 -30c0 -32 -86 -116 -258 -252c-386 -352.667 -621.333 -635.334 -706 -848.001c-36.667 -71.333 -55 -126.666 -55 -165.999c6.66699 -44.667 27 -67 61 -67c110 0 390.667 198.333 842 595
c281.333 238 441 357 479 357c52 0 109.333 -49.333 172 -148v-12c0 -7.33301 -45 -50.333 -135 -129c-307.333 -331.333 -461 -569 -461 -713c0 -48.667 22.667 -91.667 68 -129c-21.333 -12 -42 -18 -62 -18h-6c-86 0 -143.333 61.333 -172 184v13
c0 165.333 131 392.333 393 681h-6c-122 -94 -349.333 -300.667 -682 -620c-179.333 -160 -304.333 -240 -375 -240c-117.333 0 -207.333 86 -270 258l-12 74c0 225.333 210.667 547 632 965l314 288c-403.333 0 -772 -139 -1106 -417c-86 -87.333 -129 -157 -129 -209v-19
c0 -17.333 10.333 -37.666 31 -60.999c3.33301 -8 1.33301 -12 -6 -12c-122.667 2 -188.334 73.667 -197.001 215c0 225.333 282.667 411.666 848 558.999c168.667 36.667 324.334 55 467.001 55zM2179 1611l11 0.000976562c70 -16.667 105 -42.334 105 -77.001v-6
c-30 -40 -138.333 -89.333 -325 -148l-110 -22l-11 16z" />
    <glyph glyph-name="Yacute" unicode="&#xdd;" horiz-adv-x="1765" 
d="M1404 1548l35 0.00292969c111.333 0 188.666 -56.333 231.999 -169c-10 -27.333 -59 -64.333 -147 -111c-165.333 -82.667 -383.333 -250.334 -654 -503.001c-170 -182.667 -255 -306.667 -255 -372v-17c0 -8 5.66699 -12 17 -12c67.333 0 303.333 129.667 708 389
c240.667 152 387.667 235 441 249c38 0 80.333 -34.667 127 -104l6 -23c0 -80.667 -61.667 -216 -185 -406c44.667 0 73.667 -6 87 -18c0 -22.667 -17.667 -34 -53 -34h-58c-338.667 -487.333 -632.334 -731 -881.001 -731h-12c-74.667 0 -119 48.333 -133 145
c0 112.667 112 250 336 412c214.667 136 390.667 215 528 237c115.333 183.333 181 326.666 197 429.999h-6c-129.333 -83.333 -432.666 -298 -909.999 -644c-48 -34.667 -94.667 -52 -140 -52c-89.333 0 -158.666 65.667 -207.999 197v23c0 205.333 212.667 478 638 818
c142 103.333 244.333 171 307 203v6c-275.333 0 -602 -98.667 -980 -296c-186 -119.333 -279 -220 -279 -302l35 -58l-6 -6v-5c-78 0 -141.667 58 -191 174v17c0 189.333 270.667 355.666 812 498.999c200 42.667 397.333 64 592 64zM783 -180.997l18 -12
c133.333 0 365.333 199.333 696 598h-6c-166 -69.333 -324.667 -162 -476 -278c-154.667 -128 -232 -230.667 -232 -308zM2183 1523l11 0.000976562c70 -16.667 105 -42.334 105 -77.001v-6c-30 -40 -138.333 -89.333 -325 -148l-110 -22l-11 16z" />
    <glyph glyph-name="agrave" unicode="&#xe0;" horiz-adv-x="924" 
d="M857 974l17 -0.00195312c67.333 -24 122.333 -86.667 165 -188l6 -34c-12 -80 -33 -120 -63 -120l-5 6v6c18.667 34.667 28 63 28 85v6c0 41.333 -36 62 -108 62c-172.667 0 -374 -127 -604 -381c-91.333 -127.333 -137 -218.666 -137 -273.999
c198.667 184.667 373.667 321.334 525 410.001c0 10.667 18.667 18.334 56 23.001c38 0 76 -32.333 114 -97v-5c-29.333 0 -71 -76 -125 -228l-11 -103c0 -56 22.667 -99.667 68 -131v-11h-17c-76 0 -129.333 43.667 -160 131l-17 91c0 62 17.333 138 52 228h-6
c-72 -36.667 -205 -156.334 -399 -359.001c-65.333 -87.333 -107 -131 -125 -131c-40 0 -78 49.333 -114 148v17c0 204 148 428 444 672c156 118 294.667 177 416 177zM780 1410l203 -314c7.33301 0 11 -9 11 -27v-11h-11c-56 0 -160.667 75 -314 225l-11 39
c0 38.667 40.667 68 122 88z" />
    <glyph glyph-name="aacute" unicode="&#xe1;" horiz-adv-x="924" 
d="M857 974l17 -0.00195312c67.333 -24 122.333 -86.667 165 -188l6 -34c-12 -80 -33 -120 -63 -120l-5 6v6c18.667 34.667 28 63 28 85v6c0 41.333 -36 62 -108 62c-172.667 0 -374 -127 -604 -381c-91.333 -127.333 -137 -218.666 -137 -273.999
c198.667 184.667 373.667 321.334 525 410.001c0 10.667 18.667 18.334 56 23.001c38 0 76 -32.333 114 -97v-5c-29.333 0 -71 -76 -125 -228l-11 -103c0 -56 22.667 -99.667 68 -131v-11h-17c-76 0 -129.333 43.667 -160 131l-17 91c0 62 17.333 138 52 228h-6
c-72 -36.667 -205 -156.334 -399 -359.001c-65.333 -87.333 -107 -131 -125 -131c-40 0 -78 49.333 -114 148v17c0 204 148 428 444 672c156 118 294.667 177 416 177zM1056 1311l11 0.000976562c70 -16.667 105 -42.334 105 -77.001v-6c-30 -40 -138.333 -89.333 -325 -148
l-110 -22l-11 16z" />
    <glyph glyph-name="acircumflex" unicode="&#xe2;" horiz-adv-x="924" 
d="M857 974l17 -0.00195312c67.333 -24 122.333 -86.667 165 -188l6 -34c-12 -80 -33 -120 -63 -120l-5 6v6c18.667 34.667 28 63 28 85v6c0 41.333 -36 62 -108 62c-172.667 0 -374 -127 -604 -381c-91.333 -127.333 -137 -218.666 -137 -273.999
c198.667 184.667 373.667 321.334 525 410.001c0 10.667 18.667 18.334 56 23.001c38 0 76 -32.333 114 -97v-5c-29.333 0 -71 -76 -125 -228l-11 -103c0 -56 22.667 -99.667 68 -131v-11h-17c-76 0 -129.333 43.667 -160 131l-17 91c0 62 17.333 138 52 228h-6
c-72 -36.667 -205 -156.334 -399 -359.001c-65.333 -87.333 -107 -131 -125 -131c-40 0 -78 49.333 -114 148v17c0 204 148 428 444 672c156 118 294.667 177 416 177zM913 1233c149.333 -90.667 224 -165 224 -223l-5 -5h-10c-51.333 54.667 -129.333 95 -234 121
c-56.667 2.66699 -123 -30.333 -199 -99h-15c0 64 74.667 132.667 224 206h15z" />
    <glyph glyph-name="atilde" unicode="&#xe3;" horiz-adv-x="924" 
d="M857 974l17 -0.00195312c67.333 -24 122.333 -86.667 165 -188l6 -34c-12 -80 -33 -120 -63 -120l-5 6v6c18.667 34.667 28 63 28 85v6c0 41.333 -36 62 -108 62c-172.667 0 -374 -127 -604 -381c-91.333 -127.333 -137 -218.666 -137 -273.999
c198.667 184.667 373.667 321.334 525 410.001c0 10.667 18.667 18.334 56 23.001c38 0 76 -32.333 114 -97v-5c-29.333 0 -71 -76 -125 -228l-11 -103c0 -56 22.667 -99.667 68 -131v-11h-17c-76 0 -129.333 43.667 -160 131l-17 91c0 62 17.333 138 52 228h-6
c-72 -36.667 -205 -156.334 -399 -359.001c-65.333 -87.333 -107 -131 -125 -131c-40 0 -78 49.333 -114 148v17c0 204 148 428 444 672c156 118 294.667 177 416 177zM1066 1275c67.333 0 130.998 -42.333 190.998 -127c4 -19.333 -2 -27 -18 -23
c-53.333 34.667 -87.666 52 -102.999 52c-60 2 -132 -14.167 -216 -48.5s-154.167 -47.5 -210.5 -39.5s-87.166 49 -92.499 123c2.66699 18 12 23.667 28 17c28 -26.667 51.333 -40 70 -40h29c29.333 0 81.833 14.333 157.5 43s130.5 43 164.5 43z" />
    <glyph glyph-name="egrave" unicode="&#xe8;" horiz-adv-x="808" 
d="M738 972c60 0 125.332 -64.999 195.999 -194.999l5 -6v-6c0 -104.667 -115.333 -203.334 -346 -296.001c-61.333 -18.667 -111.666 -28 -150.999 -28c-48.667 4.66699 -73 14 -73 28c8.66699 8.66699 51.667 21.667 129 39c184.667 110.667 289 215 313 313h-6
c-112 -22 -268.667 -124.333 -470 -307c-118.667 -134 -178 -240.333 -178 -319c9.33301 -56 35.333 -84 78 -84c97.333 7.33301 252 98.666 464 273.999l5 6h6l6 -6v-5c-30.667 -86 -148.334 -201.667 -353.001 -347c-47.333 -22.667 -80.666 -34 -99.999 -34
c-91.333 0 -164 63.667 -218 191l-17 67c0 190.667 162 399.334 486 626.001c103.333 59.333 178 89 224 89zM713.999 1371l203 -314c7.33301 0 11 -9 11 -27v-11h-11c-56 0 -160.667 75 -314 225l-11 39c0 38.667 40.667 68 122 88z" />
    <glyph glyph-name="eacute" unicode="&#xe9;" horiz-adv-x="808" 
d="M738 972c60 0 125.332 -64.999 195.999 -194.999l5 -6v-6c0 -104.667 -115.333 -203.334 -346 -296.001c-61.333 -18.667 -111.666 -28 -150.999 -28c-48.667 4.66699 -73 14 -73 28c8.66699 8.66699 51.667 21.667 129 39c184.667 110.667 289 215 313 313h-6
c-112 -22 -268.667 -124.333 -470 -307c-118.667 -134 -178 -240.333 -178 -319c9.33301 -56 35.333 -84 78 -84c97.333 7.33301 252 98.666 464 273.999l5 6h6l6 -6v-5c-30.667 -86 -148.334 -201.667 -353.001 -347c-47.333 -22.667 -80.666 -34 -99.999 -34
c-91.333 0 -164 63.667 -218 191l-17 67c0 190.667 162 399.334 486 626.001c103.333 59.333 178 89 224 89zM985.999 1311l11 0.000976562c70 -16.667 105 -42.334 105 -77.001v-6c-30 -40 -138.333 -89.333 -325 -148l-110 -22l-11 16z" />
    <glyph glyph-name="ecircumflex" unicode="&#xea;" horiz-adv-x="808" 
d="M738 972c60 0 125.332 -64.999 195.999 -194.999l5 -6v-6c0 -104.667 -115.333 -203.334 -346 -296.001c-61.333 -18.667 -111.666 -28 -150.999 -28c-48.667 4.66699 -73 14 -73 28c8.66699 8.66699 51.667 21.667 129 39c184.667 110.667 289 215 313 313h-6
c-112 -22 -268.667 -124.333 -470 -307c-118.667 -134 -178 -240.333 -178 -319c9.33301 -56 35.333 -84 78 -84c97.333 7.33301 252 98.666 464 273.999l5 6h6l6 -6v-5c-30.667 -86 -148.334 -201.667 -353.001 -347c-47.333 -22.667 -80.666 -34 -99.999 -34
c-91.333 0 -164 63.667 -218 191l-17 67c0 190.667 162 399.334 486 626.001c103.333 59.333 178 89 224 89zM763.999 1233c149.333 -90.667 224 -165 224 -223l-5 -5h-10c-51.333 54.667 -129.333 95 -234 121c-56.667 2.66699 -123 -30.333 -199 -99h-15
c0 64 74.667 132.667 224 206h15z" />
    <glyph glyph-name="igrave" unicode="&#xec;" horiz-adv-x="469" 
d="M470 981l25 -0.000976562c54.667 0 102 -41 142 -123l6 -19c0 -21.333 -76.333 -114 -229 -278c-222 -251.333 -333 -430.666 -333 -537.999l12 -12v-12c-94.667 0 -142 41 -142 123c0 124.667 171 394.667 513 810l12 31zM521 1371l203 -314c7.33301 0 11 -9 11 -27v-11
h-11c-56 0 -160.667 75 -314 225l-11 39c0 38.667 40.667 68 122 88z" />
    <glyph glyph-name="iacute" unicode="&#xed;" horiz-adv-x="469" 
d="M470 981l25 -0.000976562c54.667 0 102 -41 142 -123l6 -19c0 -21.333 -76.333 -114 -229 -278c-222 -251.333 -333 -430.666 -333 -537.999l12 -12v-12c-94.667 0 -142 41 -142 123c0 124.667 171 394.667 513 810l12 31zM1008 1311l11 0.000976562
c70 -16.667 105 -42.334 105 -77.001v-6c-30 -40 -138.333 -89.333 -325 -148l-110 -22l-11 16z" />
    <glyph glyph-name="ograve" unicode="&#xf2;" horiz-adv-x="940" 
d="M776 1011c52.667 0 118.334 -57.3369 197.001 -172.004c10 -26.667 4 -38.667 -18 -36c-43.333 27.333 -81 41 -113 41c-162 0 -348.333 -118.667 -559 -356c-83.333 -114.667 -126.333 -214.667 -129 -300v-18c2.66699 -38 29.667 -61 81 -69
c130 0 298.667 144.667 506 434c39.333 66 59 129.667 59 191c-0.666992 12.667 -14.667 28.334 -42 47.001v6c0 10.667 8.83301 17.5 26.5 20.5s38.834 4.16699 63.501 3.5c67.333 -8 105 -51.667 113 -131c14.667 -171.333 -118.333 -359.666 -399 -564.999
c-114.667 -71.333 -207.667 -107 -279 -107h-18c-96.667 -3.33301 -162.834 19.334 -198.501 68.001s-50.834 107.334 -45.501 176.001v24c0 184.667 123 378.667 369 582c148 107.333 276.667 161 386 161zM714 1371l203 -314c7.33301 0 11 -9 11 -27v-11h-11
c-56 0 -160.667 75 -314 225l-11 39c0 38.667 40.667 68 122 88z" />
    <glyph glyph-name="oacute" unicode="&#xf3;" horiz-adv-x="940" 
d="M776 1011c52.667 0 118.334 -57.3369 197.001 -172.004c10 -26.667 4 -38.667 -18 -36c-43.333 27.333 -81 41 -113 41c-162 0 -348.333 -118.667 -559 -356c-83.333 -114.667 -126.333 -214.667 -129 -300v-18c2.66699 -38 29.667 -61 81 -69
c130 0 298.667 144.667 506 434c39.333 66 59 129.667 59 191c-0.666992 12.667 -14.667 28.334 -42 47.001v6c0 10.667 8.83301 17.5 26.5 20.5s38.834 4.16699 63.501 3.5c67.333 -8 105 -51.667 113 -131c14.667 -171.333 -118.333 -359.666 -399 -564.999
c-114.667 -71.333 -207.667 -107 -279 -107h-18c-96.667 -3.33301 -162.834 19.334 -198.501 68.001s-50.834 107.334 -45.501 176.001v24c0 184.667 123 378.667 369 582c148 107.333 276.667 161 386 161zM947 1311l11 0.000976562c70 -16.667 105 -42.334 105 -77.001v-6
c-30 -40 -138.333 -89.333 -325 -148l-110 -22l-11 16z" />
    <glyph glyph-name="ocircumflex" unicode="&#xf4;" horiz-adv-x="940" 
d="M776 1011c52.667 0 118.334 -57.3369 197.001 -172.004c10 -26.667 4 -38.667 -18 -36c-43.333 27.333 -81 41 -113 41c-162 0 -348.333 -118.667 -559 -356c-83.333 -114.667 -126.333 -214.667 -129 -300v-18c2.66699 -38 29.667 -61 81 -69
c130 0 298.667 144.667 506 434c39.333 66 59 129.667 59 191c-0.666992 12.667 -14.667 28.334 -42 47.001v6c0 10.667 8.83301 17.5 26.5 20.5s38.834 4.16699 63.501 3.5c67.333 -8 105 -51.667 113 -131c14.667 -171.333 -118.333 -359.666 -399 -564.999
c-114.667 -71.333 -207.667 -107 -279 -107h-18c-96.667 -3.33301 -162.834 19.334 -198.501 68.001s-50.834 107.334 -45.501 176.001v24c0 184.667 123 378.667 369 582c148 107.333 276.667 161 386 161zM834 1259c149.333 -90.667 224 -165 224 -223l-5 -5h-10
c-51.333 54.667 -129.333 95 -234 121c-56.667 2.66699 -123 -30.333 -199 -99h-15c0 64 74.667 132.667 224 206h15z" />
    <glyph glyph-name="otilde" unicode="&#xf5;" horiz-adv-x="940" 
d="M776 1011c52.667 0 118.334 -57.3369 197.001 -172.004c10 -26.667 4 -38.667 -18 -36c-43.333 27.333 -81 41 -113 41c-162 0 -348.333 -118.667 -559 -356c-83.333 -114.667 -126.333 -214.667 -129 -300v-18c2.66699 -38 29.667 -61 81 -69
c130 0 298.667 144.667 506 434c39.333 66 59 129.667 59 191c-0.666992 12.667 -14.667 28.334 -42 47.001v6c0 10.667 8.83301 17.5 26.5 20.5s38.834 4.16699 63.501 3.5c67.333 -8 105 -51.667 113 -131c14.667 -171.333 -118.333 -359.666 -399 -564.999
c-114.667 -71.333 -207.667 -107 -279 -107h-18c-96.667 -3.33301 -162.834 19.334 -198.501 68.001s-50.834 107.334 -45.501 176.001v24c0 184.667 123 378.667 369 582c148 107.333 276.667 161 386 161zM1066 1275c67.333 0 130.998 -42.333 190.998 -127
c4 -19.333 -2 -27 -18 -23c-53.333 34.667 -87.666 52 -102.999 52c-60 2 -132 -14.167 -216 -48.5s-154.167 -47.5 -210.5 -39.5s-87.166 49 -92.499 123c2.66699 18 12 23.667 28 17c28 -26.667 51.333 -40 70 -40h29c29.333 0 81.833 14.333 157.5 43s130.5 43 164.5 43z
" />
    <glyph glyph-name="divide" unicode="&#xf7;" horiz-adv-x="1706" 
 />
    <glyph glyph-name="glyph216" unicode="&#xf9;" horiz-adv-x="1012" 
d="M749 1371l203 -314c7.33301 0 11 -9 11 -27v-11h-11c-56 0 -160.667 75 -314 225l-11 39c0 38.667 40.667 68 122 88zM509 1018c59.333 0 119.329 -43.667 179.996 -131l-203 -203c-226.667 -242.667 -340 -431.334 -340 -566.001c54 14.667 292.333 215.334 715 602.001
c81.333 71.333 135 107 161 107c38.667 0 76.334 -37.667 113.001 -113c0 -8.66699 -55.667 -80.334 -167 -215.001c-146.667 -204 -220 -349 -220 -435c-2 -28 2 -53.667 12 -77c-1.33301 -8 -5.33301 -10 -12 -6c-63.333 22 -102.666 54.333 -117.999 97
c-5.33301 8 -7.66602 35 -6.99902 81c0 110 69.333 257.333 208 442h-6c-363.333 -400 -583.666 -602.667 -660.999 -608c-110 24.667 -165.667 84.334 -167 179.001c0 198 163 468 489 810c8 24 15.667 36 23 36z" />
    <glyph glyph-name="glyph217" unicode="&#xfa;" horiz-adv-x="1012" 
d="M1232 1311l11 0.000976562c70 -16.667 105 -42.334 105 -77.001v-6c-30 -40 -138.333 -89.333 -325 -148l-110 -22l-11 16zM509 1018c59.333 0 119.329 -43.667 179.996 -131l-203 -203c-226.667 -242.667 -340 -431.334 -340 -566.001
c54 14.667 292.333 215.334 715 602.001c81.333 71.333 135 107 161 107c38.667 0 76.334 -37.667 113.001 -113c0 -8.66699 -55.667 -80.334 -167 -215.001c-146.667 -204 -220 -349 -220 -435c-2 -28 2 -53.667 12 -77c-1.33301 -8 -5.33301 -10 -12 -6
c-63.333 22 -102.666 54.333 -117.999 97c-5.33301 8 -7.66602 35 -6.99902 81c0 110 69.333 257.333 208 442h-6c-363.333 -400 -583.666 -602.667 -660.999 -608c-110 24.667 -165.667 84.334 -167 179.001c0 198 163 468 489 810c8 24 15.667 36 23 36z" />
    <glyph glyph-name="glyph234" unicode="&#xfd;" horiz-adv-x="945" 
d="M504 973c52.667 0 104.669 -38.668 156.002 -116.001v-23c-0.666992 -26.667 -46.334 -72.667 -137.001 -138c-164 -148 -276.667 -278 -338 -390c-50.667 -97.333 -76 -155.333 -76 -174h6c58 0 299.667 193.333 725 580l23 6c89.333 -23.333 134 -58 134 -104
c-34.667 -92.667 -108.334 -257 -221.001 -493h6c23.333 -2.66699 35 -8.66699 35 -18c0 -16.667 -25 -32 -75 -46c-322 -526 -593 -789 -813 -789c-88.667 10 -133 50.667 -133 122c0 151.333 178 350.333 534 597c76 44.667 161 85.334 255 122.001l197 464
c-374 -378.667 -598.333 -568 -673 -568c-70.667 0 -115 46.333 -133 139v23c0 180.667 150.667 418.667 452 714c32 30 55.333 60.667 70 92h6zM-104.998 -616.001c0.666992 -6.66699 4.33301 -10.667 11 -12c78 0 211.333 104.667 400 314
c68 83.333 145.333 195.333 232 336v6c-132 -54 -306 -187.333 -522 -400c-80.667 -100.667 -121 -182 -121 -244zM1162 1149l11 0.000976562c70 -16.667 105 -42.334 105 -77.001v-6c-30 -40 -138.333 -89.333 -325 -148l-110 -22l-11 16z" />
    <glyph glyph-name="Abreve" unicode="&#x102;" 
d="M1696 1680c260.667 0 545.332 -61.998 853.999 -185.998c58.667 -53.333 95 -108 109 -164c-2 -26 -45.667 -82.667 -131 -170c-176.667 -202 -313.667 -373.333 -411 -514c0 -8.66699 13 -14.334 39 -17.001c72.667 -35.333 109 -64.333 109 -87l-5 -6h-17l-158 66
c-131.333 -206 -202.666 -366.667 -213.999 -482c0 -52.667 23.667 -87.334 71 -104.001v-5l-11 -11h-5c-96 0 -152.667 65.667 -170 197l-5 33c0 92 52.667 232.333 158 421h-5c-102.667 29.333 -201 44 -295 44h-6c-430 -368.667 -725.333 -574.667 -886 -618
c-122 -51.333 -238.667 -77 -350 -77c-171.333 -0 -288.333 60.333 -351 181c-10.667 17.333 -16 44.666 -16 81.999v5c-0 184 244.333 331.667 733 443c182.667 32.667 390.667 49 624 49l126 -5l935 711c-230 69.333 -450.667 104 -662 104
c-404.667 -18.667 -607 -75 -607 -169l27 -39l-11 -11c-58 23.333 -87 67.333 -87 132c0 112.667 160.333 178.334 481 197.001h137zM1652 739.002c70.667 0 165.667 -14.667 285 -44c80.667 141.333 223 329 427 563c-100.667 -61.333 -338 -234.333 -712 -519z
M97.998 279.002c0 -52.667 30.999 -91 92.999 -115l99 -16c170 0 374.333 71 613 213c128 74 297.667 185.333 509 334v5h-33c-544 0 -950.667 -102 -1220 -306c-37.333 -40.667 -57.666 -79 -60.999 -115zM2403 1790h18c92 -66.667 172 -98.667 240 -96
c126 25.333 220 64.333 282 117h12l6 -5c0 -55.333 -47.333 -118.333 -142 -189s-187.667 -75 -279 -13s-137 124 -137 186z" />
    <glyph glyph-name="abreve" unicode="&#x103;" horiz-adv-x="924" 
d="M857 974l17 -0.00195312c67.333 -24 122.333 -86.667 165 -188l6 -34c-12 -80 -33 -120 -63 -120l-5 6v6c18.667 34.667 28 63 28 85v6c0 41.333 -36 62 -108 62c-172.667 0 -374 -127 -604 -381c-91.333 -127.333 -137 -218.666 -137 -273.999
c198.667 184.667 373.667 321.334 525 410.001c0 10.667 18.667 18.334 56 23.001c38 0 76 -32.333 114 -97v-5c-29.333 0 -71 -76 -125 -228l-11 -103c0 -56 22.667 -99.667 68 -131v-11h-17c-76 0 -129.333 43.667 -160 131l-17 91c0 62 17.333 138 52 228h-6
c-72 -36.667 -205 -156.334 -399 -359.001c-65.333 -87.333 -107 -131 -125 -131c-40 0 -78 49.333 -114 148v17c0 204 148 428 444 672c156 118 294.667 177 416 177zM1141 1182l-65.9961 -56c-124 -84 -220.333 -108.667 -289 -74c-20.667 4.66699 -41.667 19.667 -63 45
c-44 66.667 -54.667 129 -32 187c7.33301 8.66699 17.666 7.33398 30.999 -3.99902c32.667 -48 61.667 -80.667 87 -98s60.166 -28.5 104.499 -33.5s106.833 19.167 187.5 72.5l20 17c17.333 14.667 32.666 30.334 45.999 47.001c22.667 19.333 36.167 18.166 40.5 -3.50098
s-17.834 -54.834 -66.501 -99.501z" />
    <glyph glyph-name="Ccaron" unicode="&#x10c;" horiz-adv-x="1274" 
 />
    <glyph glyph-name="ccaron" unicode="&#x10d;" horiz-adv-x="922" 
 />
    <glyph glyph-name="Dslash" unicode="&#x110;" horiz-adv-x="1807" 
d="M1321 1684l34.001 -0.00195312c367.333 0 604 -128.667 710 -386c18.667 -69.333 28 -131 28 -185v-17c0 -217.333 -149.667 -455.666 -449 -714.999c-326 -254 -620.333 -381 -883 -381h-34c-123.333 30 -185 91.667 -185 185c0 30.667 32.667 72.667 98 126
c62 48.667 160 95 294 139c115.333 26.667 196.333 40 243 40l51 -11v-12c-384 -116 -576 -208.333 -576 -277c3.33301 -11.333 14.666 -17 33.999 -17h18c260 0 571.333 148 934 444c226.667 198.667 340 387 340 565c0 96.667 -65.333 179.334 -196 248.001
c-112 54 -237 81 -375 81h-29c-423.333 0 -798 -152 -1124 -456c-65.333 -70.667 -98 -143.667 -98 -219c0 -37.333 25 -85.333 75 -144l5 -6v-5l-17 -12c-60.667 0 -126 65.333 -196 196c-15.333 42 -23 76.667 -23 104c-0 137.333 161.333 306.333 484 507
c271.333 138.667 550.333 208 837 208zM865.001 998.998c52.667 37.333 110.333 75.334 173 114.001c111.333 58 194 87 248 87h23l17 -18v-23c-7.33301 -9.33301 -53.333 -34.333 -138 -75c-37.333 -19.333 -79 -47.333 -125 -84c195.333 -20 303 -83.333 323 -190
c12.667 -66.667 1 -112.334 -35 -137.001l-10 11l11 40c-17.333 92.667 -157 146.667 -419 162c-52.667 -50.667 -110 -109.667 -172 -177c-92 -120.667 -138 -218.667 -138 -294v-6c0 -16.667 11.333 -37.667 34 -63c0 -9.33301 -23 -19 -69 -29
c-103.333 22.667 -155 70.667 -155 144v18c0 110 82.667 236.333 248 379c-72.667 -19.333 -145.667 -47.333 -219 -84l-43 -23c-34.667 -11.333 -55.5 -7.83301 -62.5 10.5s4.5 37.5 34.5 57.5c161.333 106 319.333 166 474 180z" />
    <glyph glyph-name="dcroat" unicode="&#x111;" horiz-adv-x="954" 
d="M124 142c5.33301 -17.333 13 -26.667 23 -28c100 29.333 288.333 181.666 565 456.999c73.333 88.667 112.666 158.334 117.999 209.001c-3.33301 15.333 -14.666 23 -33.999 23h-22c-136.667 0 -312 -124.333 -526 -373c-82.667 -116 -124 -212 -124 -288zM1388 1187
l-134.001 -136.001c-169.333 -196 -254 -303.333 -254 -322h5c210.667 190.667 376.667 348.334 498 473.001c-27.333 -2.66699 -65.666 -7.66699 -114.999 -15zM1578 1281c60 65.333 104.332 118.667 132.999 160l23 45h-6c-65.333 -44 -151 -116.667 -257 -218
c34.667 4 70.334 8.33301 107.001 13zM1099 1140l-197 -39c-55.333 0 -93.666 39.667 -114.999 119v8l90 -16l32 -1c78.667 5.33301 168 13 268 23c260 288.667 430.667 433 512 433c42 0 92.667 -45.333 152 -136v-11c-3.33301 -48.667 -51.333 -125.667 -144 -231l158 10
c37.333 0 57 -10.333 59 -31c0 -16.667 -95.333 -34.667 -286 -54c-150 -157.333 -378.333 -364 -685 -620c-146.667 -203.333 -220 -367 -220 -491c0 -68 22.667 -102 68 -102v-17h-34c-83.333 0 -136 62 -158 186v29c0 60 11.333 122 34 186
c-214 -246.667 -363 -376.667 -447 -390c-72.667 0 -134.667 60.333 -186 181v45c0 152 105.333 329 316 531c172 150.667 317 226 435 226c35.333 0 76.666 -41.333 123.999 -124v-12z" />
    <glyph glyph-name="Itilde" unicode="&#x128;" horiz-adv-x="1146" 
d="M1674 1797l154.998 -106.001c376 -47.333 564 -119.666 564 -216.999v-6c0 -26 -16.667 -50.667 -50 -74h-25l-12 12v6l12 19v6c-99.333 70 -256.333 105 -471 105h-136c-110.667 -72.667 -311 -260.667 -601 -564c-301.333 -352 -458.666 -612.333 -471.999 -781
c184.667 -2 302.667 -33 354 -93l-13 -18l-111 12h-174c-215.333 0 -388.666 -51.667 -519.999 -155v-6l24 -31l-12 -12h-25c-78.667 11.333 -118 48.333 -118 111c0 96 151 160 453 192h18c-28.667 33.333 -43 60.333 -43 81c0 232.667 291.333 646 874 1240h-6
c-155.333 0 -395 -45.667 -719 -137c-318 -132 -477 -249.667 -477 -353c0 -49.333 49.333 -82.333 148 -99l7 -6v-19l-31 -6h-25c-136 0 -216.667 68 -242 204v50c0 96 55.667 170.333 167 223c369.333 210.667 824 316 1364 316c62 70.667 109.667 106 143 106zM1899 2027
c67.333 0 130.998 -42.333 190.998 -127c4 -19.333 -2 -27 -18 -23c-53.333 34.667 -87.666 52 -102.999 52c-60 2 -132 -14.167 -216 -48.5s-154.167 -47.5 -210.5 -39.5s-87.166 49 -92.499 123c2.66699 18 12 23.667 28 17c28 -26.667 51.333 -40 70 -40h29
c29.333 0 81.833 14.333 157.5 43s130.5 43 164.5 43z" />
    <glyph glyph-name="itilde" unicode="&#x129;" horiz-adv-x="469" 
d="M470 981l25 -0.000976562c54.667 0 102 -41 142 -123l6 -19c0 -21.333 -76.333 -114 -229 -278c-222 -251.333 -333 -430.666 -333 -537.999l12 -12v-12c-94.667 0 -142 41 -142 123c0 124.667 171 394.667 513 810l12 31zM887 1275
c67.333 0 130.998 -42.333 190.998 -127c4 -19.333 -2 -27 -18 -23c-53.333 34.667 -87.666 52 -102.999 52c-60 2 -132 -14.167 -216 -48.5s-154.167 -47.5 -210.5 -39.5s-87.166 49 -92.499 123c2.66699 18 12 23.667 28 17c28 -26.667 51.333 -40 70 -40h29
c29.333 0 81.833 14.333 157.5 43s130.5 43 164.5 43z" />
    <glyph glyph-name="Utilde" unicode="&#x168;" horiz-adv-x="1858" 
d="M1315 1695h49c137.333 0 229.333 -51.333 276 -154l6 -30c0 -32 -86 -116 -258 -252c-386 -352.667 -621.333 -635.334 -706 -848.001c-36.667 -71.333 -55 -126.666 -55 -165.999c6.66699 -44.667 27 -67 61 -67c110 0 390.667 198.333 842 595
c281.333 238 441 357 479 357c52 0 109.333 -49.333 172 -148v-12c0 -7.33301 -45 -50.333 -135 -129c-307.333 -331.333 -461 -569 -461 -713c0 -48.667 22.667 -91.667 68 -129c-21.333 -12 -42 -18 -62 -18h-6c-86 0 -143.333 61.333 -172 184v13
c0 165.333 131 392.333 393 681h-6c-122 -94 -349.333 -300.667 -682 -620c-179.333 -160 -304.333 -240 -375 -240c-117.333 0 -207.333 86 -270 258l-12 74c0 225.333 210.667 547 632 965l314 288c-403.333 0 -772 -139 -1106 -417c-86 -87.333 -129 -157 -129 -209v-19
c0 -17.333 10.333 -37.666 31 -60.999c3.33301 -8 1.33301 -12 -6 -12c-122.667 2 -188.334 73.667 -197.001 215c0 225.333 282.667 411.666 848 558.999c168.667 36.667 324.334 55 467.001 55zM2225 1607c64.667 -19.333 113.332 -78.3369 145.998 -177.004
c-2 -20 -9.66699 -25.667 -23 -17c-41.333 48.667 -69.666 75.334 -84.999 80.001c-56.667 19.333 -130.167 24.833 -220.5 16.5s-161.333 -0.666016 -213 23.001s-69.167 71.834 -52.5 144.501c8 16.667 18.667 19.334 32 8.00098c18.667 -34 37 -53.667 55 -59l27 -8
c28.667 -8.66699 83.334 -10.167 164.001 -4.5s137.334 3.5 170 -6.5z" />
    <glyph glyph-name="utilde" unicode="&#x169;" horiz-adv-x="1012" 
d="M1185 1275c67.333 0 130.998 -42.333 190.998 -127c4 -19.333 -2 -27 -18 -23c-53.333 34.667 -87.666 52 -102.999 52c-60 2 -132 -14.167 -216 -48.5s-154.167 -47.5 -210.5 -39.5s-87.166 49 -92.499 123c2.66699 18 12 23.667 28 17c28 -26.667 51.333 -40 70 -40h29
c29.333 0 81.833 14.333 157.5 43s130.5 43 164.5 43zM508.998 1018c59.333 0 119.329 -43.667 179.996 -131l-203 -203c-226.667 -242.667 -340 -431.334 -340 -566.001c54 14.667 292.333 215.334 715 602.001c81.333 71.333 135 107 161 107
c38.667 0 76.334 -37.667 113.001 -113c0 -8.66699 -55.667 -80.334 -167 -215.001c-146.667 -204 -220 -349 -220 -435c-2 -28 2 -53.667 12 -77c-1.33301 -8 -5.33301 -10 -12 -6c-63.333 22 -102.666 54.333 -117.999 97c-5.33301 8 -7.66602 35 -6.99902 81
c0 110 69.333 257.333 208 442h-6c-363.333 -400 -583.666 -602.667 -660.999 -608c-110 24.667 -165.667 84.334 -167 179.001c0 198 163 468 489 810c8 24 15.667 36 23 36z" />
    <glyph glyph-name="Ohorn" unicode="&#x1a0;" horiz-adv-x="1407" 
d="M1627 979c-26.667 -276.667 -207.667 -542.334 -543 -797.001c-189.333 -124 -359 -186 -509 -186c-158.667 0 -294.334 60 -407.001 180c-112 132.667 -168 276.334 -168 431.001v12c0 299.333 191.667 587 575 863c237.333 135.333 451 203 641 203
c140.667 0 256.667 -77.667 348 -233l18 -72v-30l-12 -12h-12l-48 90c-39.333 40 -107.333 60 -204 60h-60c-258.667 0 -528.334 -128 -809.001 -384c-191.333 -204.667 -287 -416.334 -287 -635.001c0 -153.333 81.667 -257 245 -311l120 -18
c244 0 497.667 147.667 761 443c92.667 119.333 156.334 233.666 191.001 342.999c-47.333 -15.333 -98.666 -31 -153.999 -47l-17 2v6c69.333 30.667 131 60.334 185 89.001c11.333 48 17 94.667 17 140v18c0 89.333 -44 149.333 -132 180l-72 12
c-85.333 0 -177.333 -20 -276 -60h-6l-11 12v12c81.333 68 173 102 275 102h30c160 0 266 -88 318 -264l5 -64c82 56 128.667 106.333 140 151c-4.66699 102 20.833 148.833 76.5 140.5s96 -30.666 121 -66.999s23.833 -75.333 -3.5 -117s-86 -84.167 -176 -127.5
c-40.667 -20 -94 -41.667 -160 -65z" />
    <glyph glyph-name="ohorn" unicode="&#x1a1;" horiz-adv-x="940" 
d="M776 1011c52.667 0 118.334 -57.3369 197.001 -172.004c10 -26.667 4 -38.667 -18 -36c-43.333 27.333 -81 41 -113 41c-162 0 -348.333 -118.667 -559 -356c-83.333 -114.667 -126.333 -214.667 -129 -300v-18c2.66699 -38 29.667 -61 81 -69
c130 0 298.667 144.667 506 434c39.333 66 59 129.667 59 191c-0.666992 12.667 -14.667 28.334 -42 47.001v6c0 10.667 8.83301 17.5 26.5 20.5s38.834 4.16699 63.501 3.5c67.333 -8 105 -51.667 113 -131c14.667 -171.333 -118.333 -359.666 -399 -564.999
c-114.667 -71.333 -207.667 -107 -279 -107h-18c-96.667 -3.33301 -162.834 19.334 -198.501 68.001s-50.834 107.334 -45.501 176.001v24c0 184.667 123 378.667 369 582c148 107.333 276.667 161 386 161zM805 650.996c141.333 76 218.998 142 232.998 198
c-4.66699 87.333 17 127.333 65 120s82.667 -26.5 104 -57.5s20.333 -64.5 -3 -100.5s-73.666 -72.667 -150.999 -110c-31.333 -15.333 -71.666 -32 -120.999 -50h-127z" />
    <glyph glyph-name="Uhorn" unicode="&#x1af;" horiz-adv-x="1941" 
d="M1381 1787h49c137.333 0 229.333 -51.333 276 -154l6 -30c0 -32 -86 -116 -258 -252c-386 -352.667 -621.333 -635.334 -706 -848.001c-36.667 -71.333 -55 -126.666 -55 -165.999c6.66699 -44.667 27 -67 61 -67c110 0 390.667 198.333 842 595
c281.333 238 441 357 479 357c52 0 109.333 -49.333 172 -148v-12c0 -7.33301 -45 -50.333 -135 -129c-307.333 -331.333 -461 -569 -461 -713c0 -48.667 22.667 -91.667 68 -129c-21.333 -12 -42 -18 -62 -18h-6c-86 0 -143.333 61.333 -172 184v13
c0 165.333 131 392.333 393 681h-6c-122 -94 -349.333 -300.667 -682 -620c-179.333 -160 -304.333 -240 -375 -240c-117.333 0 -207.333 86 -270 258l-12 74c0 225.333 210.667 547 632 965l314 288c-403.333 0 -772 -139 -1106 -417c-86 -87.333 -129 -157 -129 -209v-19
c0 -17.333 10.333 -37.666 31 -60.999c3.33301 -8 1.33301 -12 -6 -12c-122.667 2 -188.334 73.667 -197.001 215c0 225.333 282.667 411.666 848 558.999c168.667 36.667 324.334 55 467.001 55zM2531.5 1222.5c25 -36.333 23.833 -75.332 -3.5 -116.999
s-86.166 -84.334 -176.5 -128.001c-90.333 -43.667 -248.166 -98.5 -473.5 -164.5l-17 2v6c293.333 131.333 451 240.666 473 327.999c-4.66699 102 20.833 148.833 76.5 140.5s96 -30.666 121 -66.999z" />
    <glyph glyph-name="uhorn" unicode="&#x1b0;" horiz-adv-x="1012" 
d="M509 1018c59.333 0 119.329 -43.667 179.996 -131l-203 -203c-226.667 -242.667 -340 -431.334 -340 -566.001c54 14.667 292.333 215.334 715 602.001c81.333 71.333 135 107 161 107c38.667 0 76.334 -37.667 113.001 -113c0 -8.66699 -55.667 -80.334 -167 -215.001
c-146.667 -204 -220 -349 -220 -435c-2 -28 2 -53.667 12 -77c-1.33301 -8 -5.33301 -10 -12 -6c-63.333 22 -102.666 54.333 -117.999 97c-5.33301 8 -7.66602 35 -6.99902 81c0 110 69.333 257.333 208 442h-6c-363.333 -400 -583.666 -602.667 -660.999 -608
c-110 24.667 -165.667 84.334 -167 179.001c0 198 163 468 489 810c8 24 15.667 36 23 36zM931.996 651c141.333 76 218.998 142 232.998 198c-4.66699 87.333 17 127.333 65 120s82.667 -26.5 104 -57.5s20.333 -64.5 -3 -100.5s-73.666 -72.667 -150.999 -110
c-31.333 -15.333 -71.666 -32 -120.999 -50h-127z" />
    <glyph glyph-name="uni1EA0" unicode="&#x1ea0;" 
d="M1696 1680c260.667 0 545.332 -61.998 853.999 -185.998c58.667 -53.333 95 -108 109 -164c-2 -26 -45.667 -82.667 -131 -170c-176.667 -202 -313.667 -373.333 -411 -514c0 -8.66699 13 -14.334 39 -17.001c72.667 -35.333 109 -64.333 109 -87l-5 -6h-17l-158 66
c-131.333 -206 -202.666 -366.667 -213.999 -482c0 -52.667 23.667 -87.334 71 -104.001v-5l-11 -11h-5c-96 0 -152.667 65.667 -170 197l-5 33c0 92 52.667 232.333 158 421h-5c-102.667 29.333 -201 44 -295 44h-6c-430 -368.667 -725.333 -574.667 -886 -618
c-122 -51.333 -238.667 -77 -350 -77c-171.333 -0 -288.333 60.333 -351 181c-10.667 17.333 -16 44.666 -16 81.999v5c-0 184 244.333 331.667 733 443c182.667 32.667 390.667 49 624 49l126 -5l935 711c-230 69.333 -450.667 104 -662 104
c-404.667 -18.667 -607 -75 -607 -169l27 -39l-11 -11c-58 23.333 -87 67.333 -87 132c0 112.667 160.333 178.334 481 197.001h137zM1652 739.002c70.667 0 165.667 -14.667 285 -44c80.667 141.333 223 329 427 563c-100.667 -61.333 -338 -234.333 -712 -519z
M97.998 279.002c0 -52.667 30.999 -91 92.999 -115l99 -16c170 0 374.333 71 613 213c128 74 297.667 185.333 509 334v5h-33c-544 0 -950.667 -102 -1220 -306c-37.333 -40.667 -57.666 -79 -60.999 -115zM1295 -78.998h4c54.667 -5.33301 82 -31 82 -77
c0 -66 -43.333 -108 -130 -126h-29c-37.333 0 -63 24.333 -77 73c0 76.667 50 120 150 130z" />
    <glyph glyph-name="uni1EA1" unicode="&#x1ea1;" horiz-adv-x="924" 
d="M857 974l17 -0.00195312c67.333 -24 122.333 -86.667 165 -188l6 -34c-12 -80 -33 -120 -63 -120l-5 6v6c18.667 34.667 28 63 28 85v6c0 41.333 -36 62 -108 62c-172.667 0 -374 -127 -604 -381c-91.333 -127.333 -137 -218.666 -137 -273.999
c198.667 184.667 373.667 321.334 525 410.001c0 10.667 18.667 18.334 56 23.001c38 0 76 -32.333 114 -97v-5c-29.333 0 -71 -76 -125 -228l-11 -103c0 -56 22.667 -99.667 68 -131v-11h-17c-76 0 -129.333 43.667 -160 131l-17 91c0 62 17.333 138 52 228h-6
c-72 -36.667 -205 -156.334 -399 -359.001c-65.333 -87.333 -107 -131 -125 -131c-40 0 -78 49.333 -114 148v17c0 204 148 428 444 672c156 118 294.667 177 416 177zM449 -63.002l5 -0.000976562c48 -5.33301 72 -28.333 72 -69c0 -58 -38.333 -95 -115 -111h-26
c-33.333 0 -56 21.333 -68 64c0 68.667 44 107.334 132 116.001z" />
    <glyph glyph-name="uni1EA2" unicode="&#x1ea2;" 
d="M1696 1680c260.667 0 545.332 -61.998 853.999 -185.998c58.667 -53.333 95 -108 109 -164c-2 -26 -45.667 -82.667 -131 -170c-176.667 -202 -313.667 -373.333 -411 -514c0 -8.66699 13 -14.334 39 -17.001c72.667 -35.333 109 -64.333 109 -87l-5 -6h-17l-158 66
c-131.333 -206 -202.666 -366.667 -213.999 -482c0 -52.667 23.667 -87.334 71 -104.001v-5l-11 -11h-5c-96 0 -152.667 65.667 -170 197l-5 33c0 92 52.667 232.333 158 421h-5c-102.667 29.333 -201 44 -295 44h-6c-430 -368.667 -725.333 -574.667 -886 -618
c-122 -51.333 -238.667 -77 -350 -77c-171.333 -0 -288.333 60.333 -351 181c-10.667 17.333 -16 44.666 -16 81.999v5c-0 184 244.333 331.667 733 443c182.667 32.667 390.667 49 624 49l126 -5l935 711c-230 69.333 -450.667 104 -662 104
c-404.667 -18.667 -607 -75 -607 -169l27 -39l-11 -11c-58 23.333 -87 67.333 -87 132c0 112.667 160.333 178.334 481 197.001h137zM1652 739.002c70.667 0 165.667 -14.667 285 -44c80.667 141.333 223 329 427 563c-100.667 -61.333 -338 -234.333 -712 -519z
M97.998 279.002c0 -52.667 30.999 -91 92.999 -115l99 -16c170 0 374.333 71 613 213c128 74 297.667 185.333 509 334v5h-33c-544 0 -950.667 -102 -1220 -306c-37.333 -40.667 -57.666 -79 -60.999 -115zM2902 1933l2.99902 0.000976562c68 0 119.667 -35.667 155 -107
l5 -32c0 -60 -79.333 -119.333 -238 -178c-62 -32 -93 -59 -93 -81l12 -19v-14l-19 -17h-25c-42.667 11.333 -64 20.666 -64 27.999c-2.66699 0 -5.33398 13 -8 39v9c0 54 83.333 102.333 250 145c126 29.333 151.667 72 77 128c0 -1.33301 -7.33301 -1.33301 -22 0
c-75.333 0 -154.666 -29.667 -237.999 -89l-6 -9l4 -38h-48c-36.667 22.667 -55 50.667 -55 84c0 32.667 53 72.667 159 120c62 20.667 112.333 31 151 31z" />
    <glyph glyph-name="uni1EA3" unicode="&#x1ea3;" horiz-adv-x="924" 
d="M857 974l17 -0.00195312c67.333 -24 122.333 -86.667 165 -188l6 -34c-12 -80 -33 -120 -63 -120l-5 6v6c18.667 34.667 28 63 28 85v6c0 41.333 -36 62 -108 62c-172.667 0 -374 -127 -604 -381c-91.333 -127.333 -137 -218.666 -137 -273.999
c198.667 184.667 373.667 321.334 525 410.001c0 10.667 18.667 18.334 56 23.001c38 0 76 -32.333 114 -97v-5c-29.333 0 -71 -76 -125 -228l-11 -103c0 -56 22.667 -99.667 68 -131v-11h-17c-76 0 -129.333 43.667 -160 131l-17 91c0 62 17.333 138 52 228h-6
c-72 -36.667 -205 -156.334 -399 -359.001c-65.333 -87.333 -107 -131 -125 -131c-40 0 -78 49.333 -114 148v17c0 204 148 428 444 672c156 118 294.667 177 416 177zM1138 1421l1.99805 -0.00292969c58.667 0 103.334 -31 134.001 -93l5 -27
c0 -52 -68.667 -103.333 -206 -154c-54 -27.333 -81 -50.666 -81 -69.999l11 -17v-12l-16 -14h-22c-37.333 10 -56 18 -56 24c-2 0 -4 11.333 -6 34v8c0 46.667 72 88.334 216 125.001c108.667 25.333 130.667 62 66 110c0 -0.666992 -6.33301 -0.666992 -19 0
c-65.333 0 -133.666 -25.333 -204.999 -76l-6 -8l4 -33h-41c-32 19.333 -48 43.333 -48 72s46 63.334 138 104.001c52.667 18 96 27 130 27z" />
    <glyph glyph-name="uni1EA4" unicode="&#x1ea4;" 
d="M1696 1680c260.667 0 545.332 -61.998 853.999 -185.998c58.667 -53.333 95 -108 109 -164c-2 -26 -45.667 -82.667 -131 -170c-176.667 -202 -313.667 -373.333 -411 -514c0 -8.66699 13 -14.334 39 -17.001c72.667 -35.333 109 -64.333 109 -87l-5 -6h-17l-158 66
c-131.333 -206 -202.666 -366.667 -213.999 -482c0 -52.667 23.667 -87.334 71 -104.001v-5l-11 -11h-5c-96 0 -152.667 65.667 -170 197l-5 33c0 92 52.667 232.333 158 421h-5c-102.667 29.333 -201 44 -295 44h-6c-430 -368.667 -725.333 -574.667 -886 -618
c-122 -51.333 -238.667 -77 -350 -77c-171.333 -0 -288.333 60.333 -351 181c-10.667 17.333 -16 44.666 -16 81.999v5c-0 184 244.333 331.667 733 443c182.667 32.667 390.667 49 624 49l126 -5l935 711c-230 69.333 -450.667 104 -662 104
c-404.667 -18.667 -607 -75 -607 -169l27 -39l-11 -11c-58 23.333 -87 67.333 -87 132c0 112.667 160.333 178.334 481 197.001h137zM1652 739.002c70.667 0 165.667 -14.667 285 -44c80.667 141.333 223 329 427 563c-100.667 -61.333 -338 -234.333 -712 -519z
M97.998 279.002c0 -52.667 30.999 -91 92.999 -115l99 -16c170 0 374.333 71 613 213c128 74 297.667 185.333 509 334v5h-33c-544 0 -950.667 -102 -1220 -306c-37.333 -40.667 -57.666 -79 -60.999 -115zM3175 2006l11 0.000976562c70 -16.667 105 -42.334 105 -77.001v-6
c-30 -40 -138.333 -89.333 -325 -148l-110 -22l-11 16zM2664 1820c165.333 -92 248 -167.333 248 -226l-6 -5h-11c-56.667 55.333 -143 96.333 -259 123c-62.667 2.66699 -136 -31 -220 -101h-17c0 65.333 82.667 135 248 209h17z" />
    <glyph glyph-name="uni1EA5" unicode="&#x1ea5;" horiz-adv-x="924" 
d="M857 974l17 -0.00195312c67.333 -24 122.333 -86.667 165 -188l6 -34c-12 -80 -33 -120 -63 -120l-5 6v6c18.667 34.667 28 63 28 85v6c0 41.333 -36 62 -108 62c-172.667 0 -374 -127 -604 -381c-91.333 -127.333 -137 -218.666 -137 -273.999
c198.667 184.667 373.667 321.334 525 410.001c0 10.667 18.667 18.334 56 23.001c38 0 76 -32.333 114 -97v-5c-29.333 0 -71 -76 -125 -228l-11 -103c0 -56 22.667 -99.667 68 -131v-11h-17c-76 0 -129.333 43.667 -160 131l-17 91c0 62 17.333 138 52 228h-6
c-72 -36.667 -205 -156.334 -399 -359.001c-65.333 -87.333 -107 -131 -125 -131c-40 0 -78 49.333 -114 148v17c0 204 148 428 444 672c156 118 294.667 177 416 177zM1373 1441h10c68 -16 102 -41 102 -75v-5c-29.333 -39.333 -134.333 -87.333 -315 -144l-106 -21l-11 16
zM913 1233c149.333 -90.667 224 -165 224 -223l-5 -5h-10c-51.333 54.667 -129.333 95 -234 121c-56.667 2.66699 -123 -30.333 -199 -99h-15c0 64 74.667 132.667 224 206h15z" />
    <glyph glyph-name="uni1EA6" unicode="&#x1ea6;" 
d="M1696 1680c260.667 0 545.332 -61.998 853.999 -185.998c58.667 -53.333 95 -108 109 -164c-2 -26 -45.667 -82.667 -131 -170c-176.667 -202 -313.667 -373.333 -411 -514c0 -8.66699 13 -14.334 39 -17.001c72.667 -35.333 109 -64.333 109 -87l-5 -6h-17l-158 66
c-131.333 -206 -202.666 -366.667 -213.999 -482c0 -52.667 23.667 -87.334 71 -104.001v-5l-11 -11h-5c-96 0 -152.667 65.667 -170 197l-5 33c0 92 52.667 232.333 158 421h-5c-102.667 29.333 -201 44 -295 44h-6c-430 -368.667 -725.333 -574.667 -886 -618
c-122 -51.333 -238.667 -77 -350 -77c-171.333 -0 -288.333 60.333 -351 181c-10.667 17.333 -16 44.666 -16 81.999v5c-0 184 244.333 331.667 733 443c182.667 32.667 390.667 49 624 49l126 -5l935 711c-230 69.333 -450.667 104 -662 104
c-404.667 -18.667 -607 -75 -607 -169l27 -39l-11 -11c-58 23.333 -87 67.333 -87 132c0 112.667 160.333 178.334 481 197.001h137zM1652 739.002c70.667 0 165.667 -14.667 285 -44c80.667 141.333 223 329 427 563c-100.667 -61.333 -338 -234.333 -712 -519z
M97.998 279.002c0 -52.667 30.999 -91 92.999 -115l99 -16c170 0 374.333 71 613 213c128 74 297.667 185.333 509 334v5h-33c-544 0 -950.667 -102 -1220 -306c-37.333 -40.667 -57.666 -79 -60.999 -115zM2646 2134l203 -314c7.33301 0 11 -9 11 -27v-11h-11
c-56 0 -160.667 75 -314 225l-11 39c0 38.667 40.667 68 122 88zM2664 1820c165.333 -92 248 -167.333 248 -226l-6 -5h-11c-56.667 55.333 -143 96.333 -259 123c-62.667 2.66699 -136 -31 -220 -101h-17c0 65.333 82.667 135 248 209h17z" />
    <glyph glyph-name="uni1EA7" unicode="&#x1ea7;" horiz-adv-x="924" 
d="M857 974l17 -0.00195312c67.333 -24 122.333 -86.667 165 -188l6 -34c-12 -80 -33 -120 -63 -120l-5 6v6c18.667 34.667 28 63 28 85v6c0 41.333 -36 62 -108 62c-172.667 0 -374 -127 -604 -381c-91.333 -127.333 -137 -218.666 -137 -273.999
c198.667 184.667 373.667 321.334 525 410.001c0 10.667 18.667 18.334 56 23.001c38 0 76 -32.333 114 -97v-5c-29.333 0 -71 -76 -125 -228l-11 -103c0 -56 22.667 -99.667 68 -131v-11h-17c-76 0 -129.333 43.667 -160 131l-17 91c0 62 17.333 138 52 228h-6
c-72 -36.667 -205 -156.334 -399 -359.001c-65.333 -87.333 -107 -131 -125 -131c-40 0 -78 49.333 -114 148v17c0 204 148 428 444 672c156 118 294.667 177 416 177zM929 1519l203 -314c7.33301 0 11 -9 11 -27v-11h-11c-56 0 -160.667 75 -314 225l-11 39
c0 38.667 40.667 68 122 88zM913 1233c149.333 -90.667 224 -165 224 -223l-5 -5h-10c-51.333 54.667 -129.333 95 -234 121c-56.667 2.66699 -123 -30.333 -199 -99h-15c0 64 74.667 132.667 224 206h15z" />
    <glyph glyph-name="uni1EA8" unicode="&#x1ea8;" 
d="M1696 1680c260.667 0 545.332 -61.998 853.999 -185.998c58.667 -53.333 95 -108 109 -164c-2 -26 -45.667 -82.667 -131 -170c-176.667 -202 -313.667 -373.333 -411 -514c0 -8.66699 13 -14.334 39 -17.001c72.667 -35.333 109 -64.333 109 -87l-5 -6h-17l-158 66
c-131.333 -206 -202.666 -366.667 -213.999 -482c0 -52.667 23.667 -87.334 71 -104.001v-5l-11 -11h-5c-96 0 -152.667 65.667 -170 197l-5 33c0 92 52.667 232.333 158 421h-5c-102.667 29.333 -201 44 -295 44h-6c-430 -368.667 -725.333 -574.667 -886 -618
c-122 -51.333 -238.667 -77 -350 -77c-171.333 -0 -288.333 60.333 -351 181c-10.667 17.333 -16 44.666 -16 81.999v5c-0 184 244.333 331.667 733 443c182.667 32.667 390.667 49 624 49l126 -5l935 711c-230 69.333 -450.667 104 -662 104
c-404.667 -18.667 -607 -75 -607 -169l27 -39l-11 -11c-58 23.333 -87 67.333 -87 132c0 112.667 160.333 178.334 481 197.001h137zM1652 739.002c70.667 0 165.667 -14.667 285 -44c80.667 141.333 223 329 427 563c-100.667 -61.333 -338 -234.333 -712 -519z
M97.998 279.002c0 -52.667 30.999 -91 92.999 -115l99 -16c170 0 374.333 71 613 213c128 74 297.667 185.333 509 334v5h-33c-544 0 -950.667 -102 -1220 -306c-37.333 -40.667 -57.666 -79 -60.999 -115zM3069 2187l2.99902 0.000976562c68 0 119.667 -35.667 155 -107
l5 -32c0 -60 -79.333 -119.333 -238 -178c-62 -32 -93 -59 -93 -81l12 -19v-14l-19 -17h-25c-42.667 11.333 -64 20.666 -64 27.999c-2.66699 0 -5.33398 13 -8 39v9c0 54 83.333 102.333 250 145c126 29.333 151.667 72 77 128c0 -1.33301 -7.33301 -1.33301 -22 0
c-75.333 0 -154.666 -29.667 -237.999 -89l-6 -9l4 -38h-48c-36.667 22.667 -55 50.667 -55 84c0 32.667 53 72.667 159 120c62 20.667 112.333 31 151 31zM2664 1820c165.333 -92 248 -167.333 248 -226l-6 -5h-11c-56.667 55.333 -143 96.333 -259 123
c-62.667 2.66699 -136 -31 -220 -101h-17c0 65.333 82.667 135 248 209h17z" />
    <glyph glyph-name="uni1EA9" unicode="&#x1ea9;" horiz-adv-x="924" 
d="M857 974l17 -0.00195312c67.333 -24 122.333 -86.667 165 -188l6 -34c-12 -80 -33 -120 -63 -120l-5 6v6c18.667 34.667 28 63 28 85v6c0 41.333 -36 62 -108 62c-172.667 0 -374 -127 -604 -381c-91.333 -127.333 -137 -218.666 -137 -273.999
c198.667 184.667 373.667 321.334 525 410.001c0 10.667 18.667 18.334 56 23.001c38 0 76 -32.333 114 -97v-5c-29.333 0 -71 -76 -125 -228l-11 -103c0 -56 22.667 -99.667 68 -131v-11h-17c-76 0 -129.333 43.667 -160 131l-17 91c0 62 17.333 138 52 228h-6
c-72 -36.667 -205 -156.334 -399 -359.001c-65.333 -87.333 -107 -131 -125 -131c-40 0 -78 49.333 -114 148v17c0 204 148 428 444 672c156 118 294.667 177 416 177zM1274 1561l1.99805 -0.00292969c58.667 0 103.334 -31 134.001 -93l5 -27
c0 -52 -68.667 -103.333 -206 -154c-54 -27.333 -81 -50.666 -81 -69.999l11 -17v-12l-16 -14h-22c-37.333 10 -56 18 -56 24c-2 0 -4 11.333 -6 34v8c0 46.667 72 88.334 216 125.001c108.667 25.333 130.667 62 66 110c0 -0.666992 -6.33301 -0.666992 -19 0
c-65.333 0 -133.666 -25.333 -204.999 -76l-6 -8l4 -33h-41c-32 19.333 -48 43.333 -48 72s46 63.334 138 104.001c52.667 18 96 27 130 27zM912.998 1233c149.333 -90.667 224 -165 224 -223l-5 -5h-10c-51.333 54.667 -129.333 95 -234 121
c-56.667 2.66699 -123 -30.333 -199 -99h-15c0 64 74.667 132.667 224 206h15z" />
    <glyph glyph-name="uni1EAA" unicode="&#x1eaa;" 
d="M1696 1680c260.667 0 545.332 -61.998 853.999 -185.998c58.667 -53.333 95 -108 109 -164c-2 -26 -45.667 -82.667 -131 -170c-176.667 -202 -313.667 -373.333 -411 -514c0 -8.66699 13 -14.334 39 -17.001c72.667 -35.333 109 -64.333 109 -87l-5 -6h-17l-158 66
c-131.333 -206 -202.666 -366.667 -213.999 -482c0 -52.667 23.667 -87.334 71 -104.001v-5l-11 -11h-5c-96 0 -152.667 65.667 -170 197l-5 33c0 92 52.667 232.333 158 421h-5c-102.667 29.333 -201 44 -295 44h-6c-430 -368.667 -725.333 -574.667 -886 -618
c-122 -51.333 -238.667 -77 -350 -77c-171.333 -0 -288.333 60.333 -351 181c-10.667 17.333 -16 44.666 -16 81.999v5c-0 184 244.333 331.667 733 443c182.667 32.667 390.667 49 624 49l126 -5l935 711c-230 69.333 -450.667 104 -662 104
c-404.667 -18.667 -607 -75 -607 -169l27 -39l-11 -11c-58 23.333 -87 67.333 -87 132c0 112.667 160.333 178.334 481 197.001h137zM1652 739.002c70.667 0 165.667 -14.667 285 -44c80.667 141.333 223 329 427 563c-100.667 -61.333 -338 -234.333 -712 -519z
M97.998 279.002c0 -52.667 30.999 -91 92.999 -115l99 -16c170 0 374.333 71 613 213c128 74 297.667 185.333 509 334v5h-33c-544 0 -950.667 -102 -1220 -306c-37.333 -40.667 -57.666 -79 -60.999 -115zM2664 1820c165.333 -92 248 -167.333 248 -226l-6 -5h-11
c-56.667 55.333 -143 96.333 -259 123c-62.667 2.66699 -136 -31 -220 -101h-17c0 65.333 82.667 135 248 209h17zM2855 1924c75.333 -28.667 127.999 -43 157.999 -43h29c18.667 0 41.667 13.333 69 40c16.667 6.66699 26.334 1 29 -17
c-5.33301 -74 -36.166 -115 -92.499 -123s-126.5 5.16699 -210.5 39.5s-156 50.5 -216 48.5c-15.333 0 -50 -17.333 -104 -52c-15.333 -4 -21 3.66699 -17 23c60 84.667 123.333 127 190 127c34.667 0 89.667 -14.333 165 -43z" />
    <glyph glyph-name="uni1EAB" unicode="&#x1eab;" horiz-adv-x="924" 
d="M857 974l17 -0.00195312c67.333 -24 122.333 -86.667 165 -188l6 -34c-12 -80 -33 -120 -63 -120l-5 6v6c18.667 34.667 28 63 28 85v6c0 41.333 -36 62 -108 62c-172.667 0 -374 -127 -604 -381c-91.333 -127.333 -137 -218.666 -137 -273.999
c198.667 184.667 373.667 321.334 525 410.001c0 10.667 18.667 18.334 56 23.001c38 0 76 -32.333 114 -97v-5c-29.333 0 -71 -76 -125 -228l-11 -103c0 -56 22.667 -99.667 68 -131v-11h-17c-76 0 -129.333 43.667 -160 131l-17 91c0 62 17.333 138 52 228h-6
c-72 -36.667 -205 -156.334 -399 -359.001c-65.333 -87.333 -107 -131 -125 -131c-40 0 -78 49.333 -114 148v17c0 204 148 428 444 672c156 118 294.667 177 416 177zM1068 1359c75.333 -28.667 127.998 -43 157.998 -43h29c18.667 0 41.667 13.333 69 40
c16.667 6.66699 26.334 1 29.001 -17c-5.33301 -74 -36.166 -115 -92.499 -123s-126.5 5.16699 -210.5 39.5s-156 50.5 -216 48.5c-15.333 0 -50 -17.333 -104 -52c-15.333 -4 -21 3.66699 -17 23c60 84.667 123.333 127 190 127c34.667 0 89.667 -14.333 165 -43z
M912.998 1233c149.333 -90.667 224 -165 224 -223l-5 -5h-10c-51.333 54.667 -129.333 95 -234 121c-56.667 2.66699 -123 -30.333 -199 -99h-15c0 64 74.667 132.667 224 206h15z" />
    <glyph glyph-name="uni1EAC" unicode="&#x1eac;" 
d="M1696 1680c260.667 0 545.332 -61.998 853.999 -185.998c58.667 -53.333 95 -108 109 -164c-2 -26 -45.667 -82.667 -131 -170c-176.667 -202 -313.667 -373.333 -411 -514c0 -8.66699 13 -14.334 39 -17.001c72.667 -35.333 109 -64.333 109 -87l-5 -6h-17l-158 66
c-131.333 -206 -202.666 -366.667 -213.999 -482c0 -52.667 23.667 -87.334 71 -104.001v-5l-11 -11h-5c-96 0 -152.667 65.667 -170 197l-5 33c0 92 52.667 232.333 158 421h-5c-102.667 29.333 -201 44 -295 44h-6c-430 -368.667 -725.333 -574.667 -886 -618
c-122 -51.333 -238.667 -77 -350 -77c-171.333 -0 -288.333 60.333 -351 181c-10.667 17.333 -16 44.666 -16 81.999v5c-0 184 244.333 331.667 733 443c182.667 32.667 390.667 49 624 49l126 -5l935 711c-230 69.333 -450.667 104 -662 104
c-404.667 -18.667 -607 -75 -607 -169l27 -39l-11 -11c-58 23.333 -87 67.333 -87 132c0 112.667 160.333 178.334 481 197.001h137zM1652 739.002c70.667 0 165.667 -14.667 285 -44c80.667 141.333 223 329 427 563c-100.667 -61.333 -338 -234.333 -712 -519z
M97.998 279.002c0 -52.667 30.999 -91 92.999 -115l99 -16c170 0 374.333 71 613 213c128 74 297.667 185.333 509 334v5h-33c-544 0 -950.667 -102 -1220 -306c-37.333 -40.667 -57.666 -79 -60.999 -115zM2664 1820c165.333 -92 248 -167.333 248 -226l-6 -5h-11
c-56.667 55.333 -143 96.333 -259 123c-62.667 2.66699 -136 -31 -220 -101h-17c0 65.333 82.667 135 248 209h17zM1295 -78.998h4c54.667 -5.33301 82 -31 82 -77c0 -66 -43.333 -108 -130 -126h-29c-37.333 0 -63 24.333 -77 73c0 76.667 50 120 150 130z" />
    <glyph glyph-name="uni1EAD" unicode="&#x1ead;" horiz-adv-x="924" 
d="M857 974l17 -0.00195312c67.333 -24 122.333 -86.667 165 -188l6 -34c-12 -80 -33 -120 -63 -120l-5 6v6c18.667 34.667 28 63 28 85v6c0 41.333 -36 62 -108 62c-172.667 0 -374 -127 -604 -381c-91.333 -127.333 -137 -218.666 -137 -273.999
c198.667 184.667 373.667 321.334 525 410.001c0 10.667 18.667 18.334 56 23.001c38 0 76 -32.333 114 -97v-5c-29.333 0 -71 -76 -125 -228l-11 -103c0 -56 22.667 -99.667 68 -131v-11h-17c-76 0 -129.333 43.667 -160 131l-17 91c0 62 17.333 138 52 228h-6
c-72 -36.667 -205 -156.334 -399 -359.001c-65.333 -87.333 -107 -131 -125 -131c-40 0 -78 49.333 -114 148v17c0 204 148 428 444 672c156 118 294.667 177 416 177zM449 -63.002l5 -0.000976562c48 -5.33301 72 -28.333 72 -69c0 -58 -38.333 -95 -115 -111h-26
c-33.333 0 -56 21.333 -68 64c0 68.667 44 107.334 132 116.001zM913 1233c149.333 -90.667 224 -165 224 -223l-5 -5h-10c-51.333 54.667 -129.333 95 -234 121c-56.667 2.66699 -123 -30.333 -199 -99h-15c0 64 74.667 132.667 224 206h15z" />
    <glyph glyph-name="uni1EAE" unicode="&#x1eae;" 
d="M1696 1680c260.667 0 545.332 -61.998 853.999 -185.998c58.667 -53.333 95 -108 109 -164c-2 -26 -45.667 -82.667 -131 -170c-176.667 -202 -313.667 -373.333 -411 -514c0 -8.66699 13 -14.334 39 -17.001c72.667 -35.333 109 -64.333 109 -87l-5 -6h-17l-158 66
c-131.333 -206 -202.666 -366.667 -213.999 -482c0 -52.667 23.667 -87.334 71 -104.001v-5l-11 -11h-5c-96 0 -152.667 65.667 -170 197l-5 33c0 92 52.667 232.333 158 421h-5c-102.667 29.333 -201 44 -295 44h-6c-430 -368.667 -725.333 -574.667 -886 -618
c-122 -51.333 -238.667 -77 -350 -77c-171.333 -0 -288.333 60.333 -351 181c-10.667 17.333 -16 44.666 -16 81.999v5c-0 184 244.333 331.667 733 443c182.667 32.667 390.667 49 624 49l126 -5l935 711c-230 69.333 -450.667 104 -662 104
c-404.667 -18.667 -607 -75 -607 -169l27 -39l-11 -11c-58 23.333 -87 67.333 -87 132c0 112.667 160.333 178.334 481 197.001h137zM1652 739.002c70.667 0 165.667 -14.667 285 -44c80.667 141.333 223 329 427 563c-100.667 -61.333 -338 -234.333 -712 -519z
M97.998 279.002c0 -52.667 30.999 -91 92.999 -115l99 -16c170 0 374.333 71 613 213c128 74 297.667 185.333 509 334v5h-33c-544 0 -950.667 -102 -1220 -306c-37.333 -40.667 -57.666 -79 -60.999 -115zM2403 1790h18c92 -66.667 172 -98.667 240 -96
c126 25.333 220 64.333 282 117h12l6 -5c0 -55.333 -47.333 -118.333 -142 -189s-187.667 -75 -279 -13s-137 124 -137 186zM2968 2013l11 0.000976562c70 -16.667 105 -42.334 105 -77.001v-6c-30 -40 -138.333 -89.333 -325 -148l-110 -22l-11 16z" />
    <glyph glyph-name="uni1EAF" unicode="&#x1eaf;" horiz-adv-x="924" 
d="M857 974l17 -0.00195312c67.333 -24 122.333 -86.667 165 -188l6 -34c-12 -80 -33 -120 -63 -120l-5 6v6c18.667 34.667 28 63 28 85v6c0 41.333 -36 62 -108 62c-172.667 0 -374 -127 -604 -381c-91.333 -127.333 -137 -218.666 -137 -273.999
c198.667 184.667 373.667 321.334 525 410.001c0 10.667 18.667 18.334 56 23.001c38 0 76 -32.333 114 -97v-5c-29.333 0 -71 -76 -125 -228l-11 -103c0 -56 22.667 -99.667 68 -131v-11h-17c-76 0 -129.333 43.667 -160 131l-17 91c0 62 17.333 138 52 228h-6
c-72 -36.667 -205 -156.334 -399 -359.001c-65.333 -87.333 -107 -131 -125 -131c-40 0 -78 49.333 -114 148v17c0 204 148 428 444 672c156 118 294.667 177 416 177zM1141 1182l-65.9961 -56c-124 -84 -220.333 -108.667 -289 -74c-20.667 4.66699 -41.667 19.667 -63 45
c-44 66.667 -54.667 129 -32 187c7.33301 8.66699 17.666 7.33398 30.999 -3.99902c32.667 -48 61.667 -80.667 87 -98s60.166 -28.5 104.499 -33.5s106.833 19.167 187.5 72.5l20 17c17.333 14.667 32.666 30.334 45.999 47.001c22.667 19.333 36.167 18.166 40.5 -3.50098
s-17.834 -54.834 -66.501 -99.501zM1175 1486l11 0.000976562c70 -16.667 105 -42.334 105 -77.001v-6c-30 -40 -138.333 -89.333 -325 -148l-110 -22l-11 16z" />
    <glyph glyph-name="uni1EB0" unicode="&#x1eb0;" 
d="M1696 1680c260.667 0 545.332 -61.998 853.999 -185.998c58.667 -53.333 95 -108 109 -164c-2 -26 -45.667 -82.667 -131 -170c-176.667 -202 -313.667 -373.333 -411 -514c0 -8.66699 13 -14.334 39 -17.001c72.667 -35.333 109 -64.333 109 -87l-5 -6h-17l-158 66
c-131.333 -206 -202.666 -366.667 -213.999 -482c0 -52.667 23.667 -87.334 71 -104.001v-5l-11 -11h-5c-96 0 -152.667 65.667 -170 197l-5 33c0 92 52.667 232.333 158 421h-5c-102.667 29.333 -201 44 -295 44h-6c-430 -368.667 -725.333 -574.667 -886 -618
c-122 -51.333 -238.667 -77 -350 -77c-171.333 -0 -288.333 60.333 -351 181c-10.667 17.333 -16 44.666 -16 81.999v5c-0 184 244.333 331.667 733 443c182.667 32.667 390.667 49 624 49l126 -5l935 711c-230 69.333 -450.667 104 -662 104
c-404.667 -18.667 -607 -75 -607 -169l27 -39l-11 -11c-58 23.333 -87 67.333 -87 132c0 112.667 160.333 178.334 481 197.001h137zM1652 739.002c70.667 0 165.667 -14.667 285 -44c80.667 141.333 223 329 427 563c-100.667 -61.333 -338 -234.333 -712 -519z
M97.998 279.002c0 -52.667 30.999 -91 92.999 -115l99 -16c170 0 374.333 71 613 213c128 74 297.667 185.333 509 334v5h-33c-544 0 -950.667 -102 -1220 -306c-37.333 -40.667 -57.666 -79 -60.999 -115zM2403 1790h18c92 -66.667 172 -98.667 240 -96
c126 25.333 220 64.333 282 117h12l6 -5c0 -55.333 -47.333 -118.333 -142 -189s-187.667 -75 -279 -13s-137 124 -137 186zM2484 2104l203 -314c7.33301 0 11 -9 11 -27v-11h-11c-56 0 -160.667 75 -314 225l-11 39c0 38.667 40.667 68 122 88z" />
    <glyph glyph-name="uni1EB1" unicode="&#x1eb1;" horiz-adv-x="924" 
d="M857 974l17 -0.00195312c67.333 -24 122.333 -86.667 165 -188l6 -34c-12 -80 -33 -120 -63 -120l-5 6v6c18.667 34.667 28 63 28 85v6c0 41.333 -36 62 -108 62c-172.667 0 -374 -127 -604 -381c-91.333 -127.333 -137 -218.666 -137 -273.999
c198.667 184.667 373.667 321.334 525 410.001c0 10.667 18.667 18.334 56 23.001c38 0 76 -32.333 114 -97v-5c-29.333 0 -71 -76 -125 -228l-11 -103c0 -56 22.667 -99.667 68 -131v-11h-17c-76 0 -129.333 43.667 -160 131l-17 91c0 62 17.333 138 52 228h-6
c-72 -36.667 -205 -156.334 -399 -359.001c-65.333 -87.333 -107 -131 -125 -131c-40 0 -78 49.333 -114 148v17c0 204 148 428 444 672c156 118 294.667 177 416 177zM736 1580l203 -314c7.33301 0 11 -9 11 -27v-11h-11c-56 0 -160.667 75 -314 225l-11 39
c0 38.667 40.667 68 122 88zM1141 1182l-65.9961 -56c-124 -84 -220.333 -108.667 -289 -74c-20.667 4.66699 -41.667 19.667 -63 45c-44 66.667 -54.667 129 -32 187c7.33301 8.66699 17.666 7.33398 30.999 -3.99902c32.667 -48 61.667 -80.667 87 -98
s60.166 -28.5 104.499 -33.5s106.833 19.167 187.5 72.5l20 17c17.333 14.667 32.666 30.334 45.999 47.001c22.667 19.333 36.167 18.166 40.5 -3.50098s-17.834 -54.834 -66.501 -99.501z" />
    <glyph glyph-name="uni1EB2" unicode="&#x1eb2;" 
d="M1696 1680c260.667 0 545.332 -61.998 853.999 -185.998c58.667 -53.333 95 -108 109 -164c-2 -26 -45.667 -82.667 -131 -170c-176.667 -202 -313.667 -373.333 -411 -514c0 -8.66699 13 -14.334 39 -17.001c72.667 -35.333 109 -64.333 109 -87l-5 -6h-17l-158 66
c-131.333 -206 -202.666 -366.667 -213.999 -482c0 -52.667 23.667 -87.334 71 -104.001v-5l-11 -11h-5c-96 0 -152.667 65.667 -170 197l-5 33c0 92 52.667 232.333 158 421h-5c-102.667 29.333 -201 44 -295 44h-6c-430 -368.667 -725.333 -574.667 -886 -618
c-122 -51.333 -238.667 -77 -350 -77c-171.333 -0 -288.333 60.333 -351 181c-10.667 17.333 -16 44.666 -16 81.999v5c-0 184 244.333 331.667 733 443c182.667 32.667 390.667 49 624 49l126 -5l935 711c-230 69.333 -450.667 104 -662 104
c-404.667 -18.667 -607 -75 -607 -169l27 -39l-11 -11c-58 23.333 -87 67.333 -87 132c0 112.667 160.333 178.334 481 197.001h137zM1652 739.002c70.667 0 165.667 -14.667 285 -44c80.667 141.333 223 329 427 563c-100.667 -61.333 -338 -234.333 -712 -519z
M97.998 279.002c0 -52.667 30.999 -91 92.999 -115l99 -16c170 0 374.333 71 613 213c128 74 297.667 185.333 509 334v5h-33c-544 0 -950.667 -102 -1220 -306c-37.333 -40.667 -57.666 -79 -60.999 -115zM2403 1790h18c92 -66.667 172 -98.667 240 -96
c126 25.333 220 64.333 282 117h12l6 -5c0 -55.333 -47.333 -118.333 -142 -189s-187.667 -75 -279 -13s-137 124 -137 186zM2885 2204l2.99902 0.000976562c68 0 119.667 -35.667 155 -107l5 -32c0 -60 -79.333 -119.333 -238 -178c-62 -32 -93 -59 -93 -81l12 -19v-14
l-19 -17h-25c-42.667 11.333 -64 20.666 -64 27.999c-2.66699 0 -5.33398 13 -8 39v9c0 54 83.333 102.333 250 145c126 29.333 151.667 72 77 128c0 -1.33301 -7.33301 -1.33301 -22 0c-75.333 0 -154.666 -29.667 -237.999 -89l-6 -9l4 -38h-48
c-36.667 22.667 -55 50.667 -55 84c0 32.667 53 72.667 159 120c62 20.667 112.333 31 151 31z" />
    <glyph glyph-name="uni1EB3" unicode="&#x1eb3;" horiz-adv-x="924" 
d="M857 974l17 -0.00195312c67.333 -24 122.333 -86.667 165 -188l6 -34c-12 -80 -33 -120 -63 -120l-5 6v6c18.667 34.667 28 63 28 85v6c0 41.333 -36 62 -108 62c-172.667 0 -374 -127 -604 -381c-91.333 -127.333 -137 -218.666 -137 -273.999
c198.667 184.667 373.667 321.334 525 410.001c0 10.667 18.667 18.334 56 23.001c38 0 76 -32.333 114 -97v-5c-29.333 0 -71 -76 -125 -228l-11 -103c0 -56 22.667 -99.667 68 -131v-11h-17c-76 0 -129.333 43.667 -160 131l-17 91c0 62 17.333 138 52 228h-6
c-72 -36.667 -205 -156.334 -399 -359.001c-65.333 -87.333 -107 -131 -125 -131c-40 0 -78 49.333 -114 148v17c0 204 148 428 444 672c156 118 294.667 177 416 177zM1141 1182l-65.9961 -56c-124 -84 -220.333 -108.667 -289 -74c-20.667 4.66699 -41.667 19.667 -63 45
c-44 66.667 -54.667 129 -32 187c7.33301 8.66699 17.666 7.33398 30.999 -3.99902c32.667 -48 61.667 -80.667 87 -98s60.166 -28.5 104.499 -33.5s106.833 19.167 187.5 72.5l20 17c17.333 14.667 32.666 30.334 45.999 47.001c22.667 19.333 36.167 18.166 40.5 -3.50098
s-17.834 -54.834 -66.501 -99.501zM1107 1601l1.99805 -0.00292969c58.667 0 103.334 -31 134.001 -93l5 -27c0 -52 -68.667 -103.333 -206 -154c-54 -27.333 -81 -50.666 -81 -69.999l11 -17v-12l-16 -14h-22c-37.333 10 -56 18 -56 24c-2 0 -4 11.333 -6 34v8
c0 46.667 72 88.334 216 125.001c108.667 25.333 130.667 62 66 110c0 -0.666992 -6.33301 -0.666992 -19 0c-65.333 0 -133.666 -25.333 -204.999 -76l-6 -8l4 -33h-41c-32 19.333 -48 43.333 -48 72s46 63.334 138 104.001c52.667 18 96 27 130 27z" />
    <glyph glyph-name="uni1EB4" unicode="&#x1eb4;" 
d="M1696 1680c260.667 0 545.332 -61.998 853.999 -185.998c58.667 -53.333 95 -108 109 -164c-2 -26 -45.667 -82.667 -131 -170c-176.667 -202 -313.667 -373.333 -411 -514c0 -8.66699 13 -14.334 39 -17.001c72.667 -35.333 109 -64.333 109 -87l-5 -6h-17l-158 66
c-131.333 -206 -202.666 -366.667 -213.999 -482c0 -52.667 23.667 -87.334 71 -104.001v-5l-11 -11h-5c-96 0 -152.667 65.667 -170 197l-5 33c0 92 52.667 232.333 158 421h-5c-102.667 29.333 -201 44 -295 44h-6c-430 -368.667 -725.333 -574.667 -886 -618
c-122 -51.333 -238.667 -77 -350 -77c-171.333 -0 -288.333 60.333 -351 181c-10.667 17.333 -16 44.666 -16 81.999v5c-0 184 244.333 331.667 733 443c182.667 32.667 390.667 49 624 49l126 -5l935 711c-230 69.333 -450.667 104 -662 104
c-404.667 -18.667 -607 -75 -607 -169l27 -39l-11 -11c-58 23.333 -87 67.333 -87 132c0 112.667 160.333 178.334 481 197.001h137zM1652 739.002c70.667 0 165.667 -14.667 285 -44c80.667 141.333 223 329 427 563c-100.667 -61.333 -338 -234.333 -712 -519z
M97.998 279.002c0 -52.667 30.999 -91 92.999 -115l99 -16c170 0 374.333 71 613 213c128 74 297.667 185.333 509 334v5h-33c-544 0 -950.667 -102 -1220 -306c-37.333 -40.667 -57.666 -79 -60.999 -115zM2403 1790h18c92 -66.667 172 -98.667 240 -96
c126 25.333 220 64.333 282 117h12l6 -5c0 -55.333 -47.333 -118.333 -142 -189s-187.667 -75 -279 -13s-137 124 -137 186zM2955 1973c67.333 0 130.999 -42.333 190.999 -127c4 -19.333 -2 -27 -18 -23c-53.333 34.667 -87.666 52 -103 52c-60 2 -132 -14.167 -216 -48.5
s-154.167 -47.5 -210.5 -39.5s-87.166 49 -92.499 123c2.66699 18 12 23.667 28 17c28 -26.667 51.333 -40 70 -40h29c29.333 0 81.833 14.333 157.5 43s130.5 43 164.5 43z" />
    <glyph glyph-name="uni1EB5" unicode="&#x1eb5;" horiz-adv-x="924" 
d="M857 974l17 -0.00195312c67.333 -24 122.333 -86.667 165 -188l6 -34c-12 -80 -33 -120 -63 -120l-5 6v6c18.667 34.667 28 63 28 85v6c0 41.333 -36 62 -108 62c-172.667 0 -374 -127 -604 -381c-91.333 -127.333 -137 -218.666 -137 -273.999
c198.667 184.667 373.667 321.334 525 410.001c0 10.667 18.667 18.334 56 23.001c38 0 76 -32.333 114 -97v-5c-29.333 0 -71 -76 -125 -228l-11 -103c0 -56 22.667 -99.667 68 -131v-11h-17c-76 0 -129.333 43.667 -160 131l-17 91c0 62 17.333 138 52 228h-6
c-72 -36.667 -205 -156.334 -399 -359.001c-65.333 -87.333 -107 -131 -125 -131c-40 0 -78 49.333 -114 148v17c0 204 148 428 444 672c156 118 294.667 177 416 177zM1141 1182l-65.9961 -56c-124 -84 -220.333 -108.667 -289 -74c-20.667 4.66699 -41.667 19.667 -63 45
c-44 66.667 -54.667 129 -32 187c7.33301 8.66699 17.666 7.33398 30.999 -3.99902c32.667 -48 61.667 -80.667 87 -98s60.166 -28.5 104.499 -33.5s106.833 19.167 187.5 72.5l20 17c17.333 14.667 32.666 30.334 45.999 47.001c22.667 19.333 36.167 18.166 40.5 -3.50098
s-17.834 -54.834 -66.501 -99.501zM1241 1441c67.333 0 130.998 -42.333 190.998 -127c4 -19.333 -2 -27 -18 -23c-53.333 34.667 -87.666 52 -102.999 52c-60 2 -132 -14.167 -216 -48.5s-154.167 -47.5 -210.5 -39.5s-87.166 49 -92.499 123c2.66699 18 12 23.667 28 17
c28 -26.667 51.333 -40 70 -40h29c29.333 0 81.833 14.333 157.5 43s130.5 43 164.5 43z" />
    <glyph glyph-name="uni1EB6" unicode="&#x1eb6;" 
d="M1696 1680c260.667 0 545.332 -61.998 853.999 -185.998c58.667 -53.333 95 -108 109 -164c-2 -26 -45.667 -82.667 -131 -170c-176.667 -202 -313.667 -373.333 -411 -514c0 -8.66699 13 -14.334 39 -17.001c72.667 -35.333 109 -64.333 109 -87l-5 -6h-17l-158 66
c-131.333 -206 -202.666 -366.667 -213.999 -482c0 -52.667 23.667 -87.334 71 -104.001v-5l-11 -11h-5c-96 0 -152.667 65.667 -170 197l-5 33c0 92 52.667 232.333 158 421h-5c-102.667 29.333 -201 44 -295 44h-6c-430 -368.667 -725.333 -574.667 -886 -618
c-122 -51.333 -238.667 -77 -350 -77c-171.333 -0 -288.333 60.333 -351 181c-10.667 17.333 -16 44.666 -16 81.999v5c-0 184 244.333 331.667 733 443c182.667 32.667 390.667 49 624 49l126 -5l935 711c-230 69.333 -450.667 104 -662 104
c-404.667 -18.667 -607 -75 -607 -169l27 -39l-11 -11c-58 23.333 -87 67.333 -87 132c0 112.667 160.333 178.334 481 197.001h137zM1652 739.002c70.667 0 165.667 -14.667 285 -44c80.667 141.333 223 329 427 563c-100.667 -61.333 -338 -234.333 -712 -519z
M97.998 279.002c0 -52.667 30.999 -91 92.999 -115l99 -16c170 0 374.333 71 613 213c128 74 297.667 185.333 509 334v5h-33c-544 0 -950.667 -102 -1220 -306c-37.333 -40.667 -57.666 -79 -60.999 -115zM2403 1790h18c92 -66.667 172 -98.667 240 -96
c126 25.333 220 64.333 282 117h12l6 -5c0 -55.333 -47.333 -118.333 -142 -189s-187.667 -75 -279 -13s-137 124 -137 186zM1295 -78.998h4c54.667 -5.33301 82 -31 82 -77c0 -66 -43.333 -108 -130 -126h-29c-37.333 0 -63 24.333 -77 73c0 76.667 50 120 150 130z" />
    <glyph glyph-name="uni1EB7" unicode="&#x1eb7;" horiz-adv-x="924" 
d="M857 974l17 -0.00195312c67.333 -24 122.333 -86.667 165 -188l6 -34c-12 -80 -33 -120 -63 -120l-5 6v6c18.667 34.667 28 63 28 85v6c0 41.333 -36 62 -108 62c-172.667 0 -374 -127 -604 -381c-91.333 -127.333 -137 -218.666 -137 -273.999
c198.667 184.667 373.667 321.334 525 410.001c0 10.667 18.667 18.334 56 23.001c38 0 76 -32.333 114 -97v-5c-29.333 0 -71 -76 -125 -228l-11 -103c0 -56 22.667 -99.667 68 -131v-11h-17c-76 0 -129.333 43.667 -160 131l-17 91c0 62 17.333 138 52 228h-6
c-72 -36.667 -205 -156.334 -399 -359.001c-65.333 -87.333 -107 -131 -125 -131c-40 0 -78 49.333 -114 148v17c0 204 148 428 444 672c156 118 294.667 177 416 177zM1141 1182l-65.9961 -56c-124 -84 -220.333 -108.667 -289 -74c-20.667 4.66699 -41.667 19.667 -63 45
c-44 66.667 -54.667 129 -32 187c7.33301 8.66699 17.666 7.33398 30.999 -3.99902c32.667 -48 61.667 -80.667 87 -98s60.166 -28.5 104.499 -33.5s106.833 19.167 187.5 72.5l20 17c17.333 14.667 32.666 30.334 45.999 47.001c22.667 19.333 36.167 18.166 40.5 -3.50098
s-17.834 -54.834 -66.501 -99.501zM449.004 -63.002l5 -0.000976562c48 -5.33301 72 -28.333 72 -69c0 -58 -38.333 -95 -115 -111h-26c-33.333 0 -56 21.333 -68 64c0 68.667 44 107.334 132 116.001z" />
    <glyph glyph-name="uni1EB8" unicode="&#x1eb8;" horiz-adv-x="1458" 
d="M1463 1578c79.333 0 136 -21.999 170 -65.999l346 -11l39 17c44 0 73.333 -31.333 88 -94c-239.333 -183.333 -371.333 -275 -396 -275v6c0 14 51.333 87.333 154 220l5 5v6l-187 11h-153c-78 -22.667 -279.667 -195 -605 -517l-61 -72h6c266 22 458.333 44 577 66
c29.333 -13.333 44 -39 44 -77v-5c-72.667 -66 -160.667 -121 -264 -165l-5 16l71 110h-5c-363.333 -13.333 -545 -40.666 -545 -81.999c-142.667 -158 -214 -290 -214 -396c0 -70 36.667 -110.333 110 -121l22 -6c186 0 448 115.667 786 347h17l22 -17v-16
c-328.667 -308 -594.667 -462 -798 -462c-116 0 -215 66 -297 198c-14.667 40 -22 82 -22 126c0 108.667 47.667 226 143 352l-66 -5c-91.333 9.33301 -137 38.666 -137 87.999v5l82 -11l193 17c126 179.333 331.333 384.666 616 615.999h-6
c-245.333 -22 -456 -68 -632 -138c-256.667 -118.667 -385 -228.667 -385 -330v-16c0 -30 27.333 -63 82 -99v-6l-11 -11h-22c-92.667 0 -164 46 -214 138c-7.33301 14 -11 34 -11 60v11c-0 112 126.333 227.667 379 347c286.667 108 602 161 946 159
c60 49.333 106 75 138 77zM616 -78.999h4c54.667 -5.33301 82 -31 82 -77c0 -66 -43.333 -108 -130 -126h-29c-37.333 0 -63 24.333 -77 73c0 76.667 50 120 150 130z" />
    <glyph glyph-name="uni1EB9" unicode="&#x1eb9;" horiz-adv-x="808" 
d="M738 972c60 0 125.332 -64.999 195.999 -194.999l5 -6v-6c0 -104.667 -115.333 -203.334 -346 -296.001c-61.333 -18.667 -111.666 -28 -150.999 -28c-48.667 4.66699 -73 14 -73 28c8.66699 8.66699 51.667 21.667 129 39c184.667 110.667 289 215 313 313h-6
c-112 -22 -268.667 -124.333 -470 -307c-118.667 -134 -178 -240.333 -178 -319c9.33301 -56 35.333 -84 78 -84c97.333 7.33301 252 98.666 464 273.999l5 6h6l6 -6v-5c-30.667 -86 -148.334 -201.667 -353.001 -347c-47.333 -22.667 -80.666 -34 -99.999 -34
c-91.333 0 -164 63.667 -218 191l-17 67c0 190.667 162 399.334 486 626.001c103.333 59.333 178 89 224 89zM269.999 -62.999l5 -0.000976562c48 -5.33301 72 -28.333 72 -69c0 -58 -38.333 -95 -115 -111h-26c-33.333 0 -56 21.333 -68 64
c0 68.667 44 107.334 132 116.001z" />
    <glyph glyph-name="uni1EBA" unicode="&#x1eba;" horiz-adv-x="1458" 
d="M1463 1578c79.333 0 136 -21.999 170 -65.999l346 -11l39 17c44 0 73.333 -31.333 88 -94c-239.333 -183.333 -371.333 -275 -396 -275v6c0 14 51.333 87.333 154 220l5 5v6l-187 11h-153c-78 -22.667 -279.667 -195 -605 -517l-61 -72h6c266 22 458.333 44 577 66
c29.333 -13.333 44 -39 44 -77v-5c-72.667 -66 -160.667 -121 -264 -165l-5 16l71 110h-5c-363.333 -13.333 -545 -40.666 -545 -81.999c-142.667 -158 -214 -290 -214 -396c0 -70 36.667 -110.333 110 -121l22 -6c186 0 448 115.667 786 347h17l22 -17v-16
c-328.667 -308 -594.667 -462 -798 -462c-116 0 -215 66 -297 198c-14.667 40 -22 82 -22 126c0 108.667 47.667 226 143 352l-66 -5c-91.333 9.33301 -137 38.666 -137 87.999v5l82 -11l193 17c126 179.333 331.333 384.666 616 615.999h-6
c-245.333 -22 -456 -68 -632 -138c-256.667 -118.667 -385 -228.667 -385 -330v-16c0 -30 27.333 -63 82 -99v-6l-11 -11h-22c-92.667 0 -164 46 -214 138c-7.33301 14 -11 34 -11 60v11c-0 112 126.333 227.667 379 347c286.667 108 602 161 946 159
c60 49.333 106 75 138 77zM1956 2025l3 0.000976562c68 0 119.667 -35.667 155 -107l5 -32c0 -60 -79.333 -119.333 -238 -178c-62 -32 -93 -59 -93 -81l12 -19v-14l-19 -17h-25c-42.667 11.333 -64 20.666 -64 27.999c-2.66699 0 -5.33398 13 -8.00098 39v9
c0 54 83.333 102.333 250 145c126 29.333 151.667 72 77 128c0 -1.33301 -7.33301 -1.33301 -22 0c-75.333 0 -154.666 -29.667 -237.999 -89l-6 -9l4 -38h-48c-36.667 22.667 -55 50.667 -55 84c0 32.667 53 72.667 159 120c62 20.667 112.333 31 151 31z" />
    <glyph glyph-name="uni1EBB" unicode="&#x1ebb;" horiz-adv-x="808" 
d="M738 972c60 0 125.332 -64.999 195.999 -194.999l5 -6v-6c0 -104.667 -115.333 -203.334 -346 -296.001c-61.333 -18.667 -111.666 -28 -150.999 -28c-48.667 4.66699 -73 14 -73 28c8.66699 8.66699 51.667 21.667 129 39c184.667 110.667 289 215 313 313h-6
c-112 -22 -268.667 -124.333 -470 -307c-118.667 -134 -178 -240.333 -178 -319c9.33301 -56 35.333 -84 78 -84c97.333 7.33301 252 98.666 464 273.999l5 6h6l6 -6v-5c-30.667 -86 -148.334 -201.667 -353.001 -347c-47.333 -22.667 -80.666 -34 -99.999 -34
c-91.333 0 -164 63.667 -218 191l-17 67c0 190.667 162 399.334 486 626.001c103.333 59.333 178 89 224 89zM1094 1399l1.99805 -0.00292969c58.667 0 103.334 -31 134.001 -93l5 -27c0 -52 -68.667 -103.333 -206 -154c-54 -27.333 -81 -50.666 -81 -69.999l11 -17v-12
l-16 -14h-22c-37.333 10 -56 18 -56 24c-2 0 -4 11.333 -6 34v8c0 46.667 72 88.334 216 125.001c108.667 25.333 130.667 62 66 110c0 -0.666992 -6.33301 -0.666992 -19 0c-65.333 0 -133.666 -25.333 -204.999 -76l-6 -8l4 -33h-41c-32 19.333 -48 43.333 -48 72
s46 63.334 138 104.001c52.667 18 96 27 130 27z" />
    <glyph glyph-name="uni1EBC" unicode="&#x1ebc;" horiz-adv-x="1458" 
d="M1463 1578c79.333 0 136 -21.999 170 -65.999l346 -11l39 17c44 0 73.333 -31.333 88 -94c-239.333 -183.333 -371.333 -275 -396 -275v6c0 14 51.333 87.333 154 220l5 5v6l-187 11h-153c-78 -22.667 -279.667 -195 -605 -517l-61 -72h6c266 22 458.333 44 577 66
c29.333 -13.333 44 -39 44 -77v-5c-72.667 -66 -160.667 -121 -264 -165l-5 16l71 110h-5c-363.333 -13.333 -545 -40.666 -545 -81.999c-142.667 -158 -214 -290 -214 -396c0 -70 36.667 -110.333 110 -121l22 -6c186 0 448 115.667 786 347h17l22 -17v-16
c-328.667 -308 -594.667 -462 -798 -462c-116 0 -215 66 -297 198c-14.667 40 -22 82 -22 126c0 108.667 47.667 226 143 352l-66 -5c-91.333 9.33301 -137 38.666 -137 87.999v5l82 -11l193 17c126 179.333 331.333 384.666 616 615.999h-6
c-245.333 -22 -456 -68 -632 -138c-256.667 -118.667 -385 -228.667 -385 -330v-16c0 -30 27.333 -63 82 -99v-6l-11 -11h-22c-92.667 0 -164 46 -214 138c-7.33301 14 -11 34 -11 60v11c-0 112 126.333 227.667 379 347c286.667 108 602 161 946 159
c60 49.333 106 75 138 77zM1767 1831c67.333 0 130.998 -42.333 190.998 -127c4 -19.333 -2 -27 -18 -23c-53.333 34.667 -87.666 52 -102.999 52c-60 2 -132 -14.167 -216 -48.5s-154.167 -47.5 -210.5 -39.5s-87.166 49 -92.499 123c2.66699 18 12 23.667 28 17
c28 -26.667 51.333 -40 70 -40h29c29.333 0 81.833 14.333 157.5 43s130.5 43 164.5 43z" />
    <glyph glyph-name="uni1EBD" unicode="&#x1ebd;" horiz-adv-x="808" 
d="M738 972c60 0 125.332 -64.999 195.999 -194.999l5 -6v-6c0 -104.667 -115.333 -203.334 -346 -296.001c-61.333 -18.667 -111.666 -28 -150.999 -28c-48.667 4.66699 -73 14 -73 28c8.66699 8.66699 51.667 21.667 129 39c184.667 110.667 289 215 313 313h-6
c-112 -22 -268.667 -124.333 -470 -307c-118.667 -134 -178 -240.333 -178 -319c9.33301 -56 35.333 -84 78 -84c97.333 7.33301 252 98.666 464 273.999l5 6h6l6 -6v-5c-30.667 -86 -148.334 -201.667 -353.001 -347c-47.333 -22.667 -80.666 -34 -99.999 -34
c-91.333 0 -164 63.667 -218 191l-17 67c0 190.667 162 399.334 486 626.001c103.333 59.333 178 89 224 89zM1066 1275c67.333 0 130.998 -42.333 190.998 -127c4 -19.333 -2 -27 -18 -23c-53.333 34.667 -87.666 52 -102.999 52c-60 2 -132 -14.167 -216 -48.5
s-154.167 -47.5 -210.5 -39.5s-87.166 49 -92.499 123c2.66699 18 12 23.667 28 17c28 -26.667 51.333 -40 70 -40h29c29.333 0 81.833 14.333 157.5 43s130.5 43 164.5 43z" />
    <glyph glyph-name="uni1EBE" unicode="&#x1ebe;" horiz-adv-x="1458" 
d="M1463 1578c79.333 0 136 -21.999 170 -65.999l346 -11l39 17c44 0 73.333 -31.333 88 -94c-239.333 -183.333 -371.333 -275 -396 -275v6c0 14 51.333 87.333 154 220l5 5v6l-187 11h-153c-78 -22.667 -279.667 -195 -605 -517l-61 -72h6c266 22 458.333 44 577 66
c29.333 -13.333 44 -39 44 -77v-5c-72.667 -66 -160.667 -121 -264 -165l-5 16l71 110h-5c-363.333 -13.333 -545 -40.666 -545 -81.999c-142.667 -158 -214 -290 -214 -396c0 -70 36.667 -110.333 110 -121l22 -6c186 0 448 115.667 786 347h17l22 -17v-16
c-328.667 -308 -594.667 -462 -798 -462c-116 0 -215 66 -297 198c-14.667 40 -22 82 -22 126c0 108.667 47.667 226 143 352l-66 -5c-91.333 9.33301 -137 38.666 -137 87.999v5l82 -11l193 17c126 179.333 331.333 384.666 616 615.999h-6
c-245.333 -22 -456 -68 -632 -138c-256.667 -118.667 -385 -228.667 -385 -330v-16c0 -30 27.333 -63 82 -99v-6l-11 -11h-22c-92.667 0 -164 46 -214 138c-7.33301 14 -11 34 -11 60v11c-0 112 126.333 227.667 379 347c286.667 108 602 161 946 159
c60 49.333 106 75 138 77zM2321 2006l11 0.000976562c70 -16.667 105 -42.334 105 -77.001v-6c-30 -40 -138.333 -89.333 -325 -148l-110 -22l-11 16zM1809 1820c165.333 -92 248 -167.333 248 -226l-6 -5h-11c-56.667 55.333 -143 96.333 -259 123
c-62.667 2.66699 -136 -31 -220 -101h-17c0 65.333 82.667 135 248 209h17z" />
    <glyph glyph-name="uni1EBF" unicode="&#x1ebf;" horiz-adv-x="808" 
d="M738 972c60 0 125.332 -64.999 195.999 -194.999l5 -6v-6c0 -104.667 -115.333 -203.334 -346 -296.001c-61.333 -18.667 -111.666 -28 -150.999 -28c-48.667 4.66699 -73 14 -73 28c8.66699 8.66699 51.667 21.667 129 39c184.667 110.667 289 215 313 313h-6
c-112 -22 -268.667 -124.333 -470 -307c-118.667 -134 -178 -240.333 -178 -319c9.33301 -56 35.333 -84 78 -84c97.333 7.33301 252 98.666 464 273.999l5 6h6l6 -6v-5c-30.667 -86 -148.334 -201.667 -353.001 -347c-47.333 -22.667 -80.666 -34 -99.999 -34
c-91.333 0 -164 63.667 -218 191l-17 67c0 190.667 162 399.334 486 626.001c103.333 59.333 178 89 224 89zM1228 1441h10c68 -16 102 -41 102 -75v-5c-29.333 -39.333 -134.333 -87.333 -315 -144l-106 -21l-11 16zM763.999 1233c149.333 -90.667 224 -165 224 -223l-5 -5
h-10c-51.333 54.667 -129.333 95 -234 121c-56.667 2.66699 -123 -30.333 -199 -99h-15c0 64 74.667 132.667 224 206h15z" />
    <glyph glyph-name="uni1EC0" unicode="&#x1ec0;" horiz-adv-x="1458" 
d="M1463 1578c79.333 0 136 -21.999 170 -65.999l346 -11l39 17c44 0 73.333 -31.333 88 -94c-239.333 -183.333 -371.333 -275 -396 -275v6c0 14 51.333 87.333 154 220l5 5v6l-187 11h-153c-78 -22.667 -279.667 -195 -605 -517l-61 -72h6c266 22 458.333 44 577 66
c29.333 -13.333 44 -39 44 -77v-5c-72.667 -66 -160.667 -121 -264 -165l-5 16l71 110h-5c-363.333 -13.333 -545 -40.666 -545 -81.999c-142.667 -158 -214 -290 -214 -396c0 -70 36.667 -110.333 110 -121l22 -6c186 0 448 115.667 786 347h17l22 -17v-16
c-328.667 -308 -594.667 -462 -798 -462c-116 0 -215 66 -297 198c-14.667 40 -22 82 -22 126c0 108.667 47.667 226 143 352l-66 -5c-91.333 9.33301 -137 38.666 -137 87.999v5l82 -11l193 17c126 179.333 331.333 384.666 616 615.999h-6
c-245.333 -22 -456 -68 -632 -138c-256.667 -118.667 -385 -228.667 -385 -330v-16c0 -30 27.333 -63 82 -99v-6l-11 -11h-22c-92.667 0 -164 46 -214 138c-7.33301 14 -11 34 -11 60v11c-0 112 126.333 227.667 379 347c286.667 108 602 161 946 159
c60 49.333 106 75 138 77zM1792 2134l203 -314c7.33301 0 11 -9 11 -27v-11h-11c-56 0 -160.667 75 -314 225l-11 39c0 38.667 40.667 68 122 88zM1809 1820c165.333 -92 248 -167.333 248 -226l-6 -5h-11c-56.667 55.333 -143 96.333 -259 123
c-62.667 2.66699 -136 -31 -220 -101h-17c0 65.333 82.667 135 248 209h17z" />
    <glyph glyph-name="uni1EC1" unicode="&#x1ec1;" horiz-adv-x="808" 
d="M738 972c60 0 125.332 -64.999 195.999 -194.999l5 -6v-6c0 -104.667 -115.333 -203.334 -346 -296.001c-61.333 -18.667 -111.666 -28 -150.999 -28c-48.667 4.66699 -73 14 -73 28c8.66699 8.66699 51.667 21.667 129 39c184.667 110.667 289 215 313 313h-6
c-112 -22 -268.667 -124.333 -470 -307c-118.667 -134 -178 -240.333 -178 -319c9.33301 -56 35.333 -84 78 -84c97.333 7.33301 252 98.666 464 273.999l5 6h6l6 -6v-5c-30.667 -86 -148.334 -201.667 -353.001 -347c-47.333 -22.667 -80.666 -34 -99.999 -34
c-91.333 0 -164 63.667 -218 191l-17 67c0 190.667 162 399.334 486 626.001c103.333 59.333 178 89 224 89zM779.999 1519l203 -314c7.33301 0 11 -9 11 -27v-11h-11c-56 0 -160.667 75 -314 225l-11 39c0 38.667 40.667 68 122 88zM763.999 1233
c149.333 -90.667 224 -165 224 -223l-5 -5h-10c-51.333 54.667 -129.333 95 -234 121c-56.667 2.66699 -123 -30.333 -199 -99h-15c0 64 74.667 132.667 224 206h15z" />
    <glyph glyph-name="uni1EC2" unicode="&#x1ec2;" horiz-adv-x="1458" 
d="M1463 1578c79.333 0 136 -21.999 170 -65.999l346 -11l39 17c44 0 73.333 -31.333 88 -94c-239.333 -183.333 -371.333 -275 -396 -275v6c0 14 51.333 87.333 154 220l5 5v6l-187 11h-153c-78 -22.667 -279.667 -195 -605 -517l-61 -72h6c266 22 458.333 44 577 66
c29.333 -13.333 44 -39 44 -77v-5c-72.667 -66 -160.667 -121 -264 -165l-5 16l71 110h-5c-363.333 -13.333 -545 -40.666 -545 -81.999c-142.667 -158 -214 -290 -214 -396c0 -70 36.667 -110.333 110 -121l22 -6c186 0 448 115.667 786 347h17l22 -17v-16
c-328.667 -308 -594.667 -462 -798 -462c-116 0 -215 66 -297 198c-14.667 40 -22 82 -22 126c0 108.667 47.667 226 143 352l-66 -5c-91.333 9.33301 -137 38.666 -137 87.999v5l82 -11l193 17c126 179.333 331.333 384.666 616 615.999h-6
c-245.333 -22 -456 -68 -632 -138c-256.667 -118.667 -385 -228.667 -385 -330v-16c0 -30 27.333 -63 82 -99v-6l-11 -11h-22c-92.667 0 -164 46 -214 138c-7.33301 14 -11 34 -11 60v11c-0 112 126.333 227.667 379 347c286.667 108 602 161 946 159
c60 49.333 106 75 138 77zM2215 2187l3.00098 0.000976562c68 0 119.667 -35.667 155 -107l5 -32c0 -60 -79.333 -119.333 -238 -178c-62 -32 -93 -59 -93 -81l12 -19v-14l-19 -17h-25c-42.667 11.333 -64 20.666 -64 27.999c-2.66699 0 -5.33398 13 -8.00098 39v9
c0 54 83.333 102.333 250 145c126 29.333 151.667 72 77 128c0 -1.33301 -7.33301 -1.33301 -22 0c-75.333 0 -154.666 -29.667 -238 -89l-6 -9l4 -38h-48c-36.667 22.667 -55 50.667 -55 84c0 32.667 53 72.667 159 120c62 20.667 112.333 31 151 31zM1809 1820
c165.333 -92 248 -167.333 248 -226l-6 -5h-11c-56.667 55.333 -143 96.333 -259 123c-62.667 2.66699 -136 -31 -220 -101h-17c0 65.333 82.667 135 248 209h17z" />
    <glyph glyph-name="uni1EC3" unicode="&#x1ec3;" horiz-adv-x="808" 
d="M738 972c60 0 125.332 -64.999 195.999 -194.999l5 -6v-6c0 -104.667 -115.333 -203.334 -346 -296.001c-61.333 -18.667 -111.666 -28 -150.999 -28c-48.667 4.66699 -73 14 -73 28c8.66699 8.66699 51.667 21.667 129 39c184.667 110.667 289 215 313 313h-6
c-112 -22 -268.667 -124.333 -470 -307c-118.667 -134 -178 -240.333 -178 -319c9.33301 -56 35.333 -84 78 -84c97.333 7.33301 252 98.666 464 273.999l5 6h6l6 -6v-5c-30.667 -86 -148.334 -201.667 -353.001 -347c-47.333 -22.667 -80.666 -34 -99.999 -34
c-91.333 0 -164 63.667 -218 191l-17 67c0 190.667 162 399.334 486 626.001c103.333 59.333 178 89 224 89zM1121 1561l1.99805 -0.00292969c58.667 0 103.334 -31 134.001 -93l5 -27c0 -52 -68.667 -103.333 -206 -154c-54 -27.333 -81 -50.666 -81 -69.999l11 -17v-12
l-16 -14h-22c-37.333 10 -56 18 -56 24c-2 0 -4 11.333 -6 34v8c0 46.667 72 88.334 216 125.001c108.667 25.333 130.667 62 66 110c0 -0.666992 -6.33301 -0.666992 -19 0c-65.333 0 -133.666 -25.333 -204.999 -76l-6 -8l4 -33h-41c-32 19.333 -48 43.333 -48 72
s46 63.334 138 104.001c52.667 18 96 27 130 27zM763.997 1233c149.333 -90.667 224 -165 224 -223l-5 -5h-10c-51.333 54.667 -129.333 95 -234 121c-56.667 2.66699 -123 -30.333 -199 -99h-15c0 64 74.667 132.667 224 206h15z" />
    <glyph glyph-name="uni1EC4" unicode="&#x1ec4;" horiz-adv-x="1458" 
d="M1463 1578c79.333 0 136 -21.999 170 -65.999l346 -11l39 17c44 0 73.333 -31.333 88 -94c-239.333 -183.333 -371.333 -275 -396 -275v6c0 14 51.333 87.333 154 220l5 5v6l-187 11h-153c-78 -22.667 -279.667 -195 -605 -517l-61 -72h6c266 22 458.333 44 577 66
c29.333 -13.333 44 -39 44 -77v-5c-72.667 -66 -160.667 -121 -264 -165l-5 16l71 110h-5c-363.333 -13.333 -545 -40.666 -545 -81.999c-142.667 -158 -214 -290 -214 -396c0 -70 36.667 -110.333 110 -121l22 -6c186 0 448 115.667 786 347h17l22 -17v-16
c-328.667 -308 -594.667 -462 -798 -462c-116 0 -215 66 -297 198c-14.667 40 -22 82 -22 126c0 108.667 47.667 226 143 352l-66 -5c-91.333 9.33301 -137 38.666 -137 87.999v5l82 -11l193 17c126 179.333 331.333 384.666 616 615.999h-6
c-245.333 -22 -456 -68 -632 -138c-256.667 -118.667 -385 -228.667 -385 -330v-16c0 -30 27.333 -63 82 -99v-6l-11 -11h-22c-92.667 0 -164 46 -214 138c-7.33301 14 -11 34 -11 60v11c-0 112 126.333 227.667 379 347c286.667 108 602 161 946 159
c60 49.333 106 75 138 77zM1996 1924c75.333 -28.667 128 -43 158 -43h29c18.667 0 41.667 13.333 69 40c16.667 6.66699 26.334 1 29 -17c-5.33301 -74 -36.166 -115 -92.5 -123c-56.333 -8 -126.5 5.16699 -210.5 39.5s-156 50.5 -216 48.5
c-15.333 0 -50 -17.333 -104 -52c-15.333 -4 -21 3.66699 -17 23c60 84.667 123.333 127 190 127c34.667 0 89.667 -14.333 165 -43zM1809 1820c165.333 -92 248 -167.333 248 -226l-6 -5h-11c-56.667 55.333 -143 96.333 -259 123c-62.667 2.66699 -136 -31 -220 -101h-17
c0 65.333 82.667 135 248 209h17z" />
    <glyph glyph-name="uni1EC5" unicode="&#x1ec5;" horiz-adv-x="808" 
d="M738 972c60 0 125.332 -64.999 195.999 -194.999l5 -6v-6c0 -104.667 -115.333 -203.334 -346 -296.001c-61.333 -18.667 -111.666 -28 -150.999 -28c-48.667 4.66699 -73 14 -73 28c8.66699 8.66699 51.667 21.667 129 39c184.667 110.667 289 215 313 313h-6
c-112 -22 -268.667 -124.333 -470 -307c-118.667 -134 -178 -240.333 -178 -319c9.33301 -56 35.333 -84 78 -84c97.333 7.33301 252 98.666 464 273.999l5 6h6l6 -6v-5c-30.667 -86 -148.334 -201.667 -353.001 -347c-47.333 -22.667 -80.666 -34 -99.999 -34
c-91.333 0 -164 63.667 -218 191l-17 67c0 190.667 162 399.334 486 626.001c103.333 59.333 178 89 224 89zM918.999 1359c75.333 -28.667 127.998 -43 157.998 -43h29c18.667 0 41.667 13.333 69 40c16.667 6.66699 26.334 1 29.001 -17
c-5.33301 -74 -36.166 -115 -92.499 -123s-126.5 5.16699 -210.5 39.5s-156 50.5 -216 48.5c-15.333 0 -50 -17.333 -104 -52c-15.333 -4 -21 3.66699 -17 23c60 84.667 123.333 127 190 127c34.667 0 89.667 -14.333 165 -43zM763.997 1233
c149.333 -90.667 224 -165 224 -223l-5 -5h-10c-51.333 54.667 -129.333 95 -234 121c-56.667 2.66699 -123 -30.333 -199 -99h-15c0 64 74.667 132.667 224 206h15z" />
    <glyph glyph-name="uni1EC6" unicode="&#x1ec6;" horiz-adv-x="1458" 
d="M1463 1578c79.333 0 136 -21.999 170 -65.999l346 -11l39 17c44 0 73.333 -31.333 88 -94c-239.333 -183.333 -371.333 -275 -396 -275v6c0 14 51.333 87.333 154 220l5 5v6l-187 11h-153c-78 -22.667 -279.667 -195 -605 -517l-61 -72h6c266 22 458.333 44 577 66
c29.333 -13.333 44 -39 44 -77v-5c-72.667 -66 -160.667 -121 -264 -165l-5 16l71 110h-5c-363.333 -13.333 -545 -40.666 -545 -81.999c-142.667 -158 -214 -290 -214 -396c0 -70 36.667 -110.333 110 -121l22 -6c186 0 448 115.667 786 347h17l22 -17v-16
c-328.667 -308 -594.667 -462 -798 -462c-116 0 -215 66 -297 198c-14.667 40 -22 82 -22 126c0 108.667 47.667 226 143 352l-66 -5c-91.333 9.33301 -137 38.666 -137 87.999v5l82 -11l193 17c126 179.333 331.333 384.666 616 615.999h-6
c-245.333 -22 -456 -68 -632 -138c-256.667 -118.667 -385 -228.667 -385 -330v-16c0 -30 27.333 -63 82 -99v-6l-11 -11h-22c-92.667 0 -164 46 -214 138c-7.33301 14 -11 34 -11 60v11c-0 112 126.333 227.667 379 347c286.667 108 602 161 946 159
c60 49.333 106 75 138 77zM1809 1820c165.333 -92 248 -167.333 248 -226l-6 -5h-11c-56.667 55.333 -143 96.333 -259 123c-62.667 2.66699 -136 -31 -220 -101h-17c0 65.333 82.667 135 248 209h17zM616 -78.999h4c54.667 -5.33301 82 -31 82 -77
c0 -66 -43.333 -108 -130 -126h-29c-37.333 0 -63 24.333 -77 73c0 76.667 50 120 150 130z" />
    <glyph glyph-name="uni1EC7" unicode="&#x1ec7;" horiz-adv-x="808" 
d="M738 972c60 0 125.332 -64.999 195.999 -194.999l5 -6v-6c0 -104.667 -115.333 -203.334 -346 -296.001c-61.333 -18.667 -111.666 -28 -150.999 -28c-48.667 4.66699 -73 14 -73 28c8.66699 8.66699 51.667 21.667 129 39c184.667 110.667 289 215 313 313h-6
c-112 -22 -268.667 -124.333 -470 -307c-118.667 -134 -178 -240.333 -178 -319c9.33301 -56 35.333 -84 78 -84c97.333 7.33301 252 98.666 464 273.999l5 6h6l6 -6v-5c-30.667 -86 -148.334 -201.667 -353.001 -347c-47.333 -22.667 -80.666 -34 -99.999 -34
c-91.333 0 -164 63.667 -218 191l-17 67c0 190.667 162 399.334 486 626.001c103.333 59.333 178 89 224 89zM763.999 1233c149.333 -90.667 224 -165 224 -223l-5 -5h-10c-51.333 54.667 -129.333 95 -234 121c-56.667 2.66699 -123 -30.333 -199 -99h-15
c0 64 74.667 132.667 224 206h15zM269.999 -62.999l5 -0.000976562c48 -5.33301 72 -28.333 72 -69c0 -58 -38.333 -95 -115 -111h-26c-33.333 0 -56 21.333 -68 64c0 68.667 44 107.334 132 116.001z" />
    <glyph glyph-name="uni1EC8" unicode="&#x1ec8;" horiz-adv-x="1146" 
d="M1674 1797l154.998 -106.001c376 -47.333 564 -119.666 564 -216.999v-6c0 -26 -16.667 -50.667 -50 -74h-25l-12 12v6l12 19v6c-99.333 70 -256.333 105 -471 105h-136c-110.667 -72.667 -311 -260.667 -601 -564c-301.333 -352 -458.666 -612.333 -471.999 -781
c184.667 -2 302.667 -33 354 -93l-13 -18l-111 12h-174c-215.333 0 -388.666 -51.667 -519.999 -155v-6l24 -31l-12 -12h-25c-78.667 11.333 -118 48.333 -118 111c0 96 151 160 453 192h18c-28.667 33.333 -43 60.333 -43 81c0 232.667 291.333 646 874 1240h-6
c-155.333 0 -395 -45.667 -719 -137c-318 -132 -477 -249.667 -477 -353c0 -49.333 49.333 -82.333 148 -99l7 -6v-19l-31 -6h-25c-136 0 -216.667 68 -242 204v50c0 96 55.667 170.333 167 223c369.333 210.667 824 316 1364 316c62 70.667 109.667 106 143 106zM2008 2258
l3 0.000976562c68 0 119.667 -35.667 155 -107l5 -32c0 -60 -79.333 -119.333 -238 -178c-62 -32 -93 -59 -93 -81l12 -19v-14l-19 -17h-25c-42.667 11.333 -64 20.666 -64 27.999c-2.66699 0 -5.33398 13 -8.00098 39v9c0 54 83.333 102.333 250 145
c126 29.333 151.667 72 77 128c0 -1.33301 -7.33301 -1.33301 -22 0c-75.333 0 -154.666 -29.667 -237.999 -89l-6 -9l4 -38h-48c-36.667 22.667 -55 50.667 -55 84c0 32.667 53 72.667 159 120c62 20.667 112.333 31 151 31z" />
    <glyph glyph-name="uni1EC9" unicode="&#x1ec9;" horiz-adv-x="469" 
d="M470 981l25 -0.000976562c54.667 0 102 -41 142 -123l6 -19c0 -21.333 -76.333 -114 -229 -278c-222 -251.333 -333 -430.666 -333 -537.999l12 -12v-12c-94.667 0 -142 41 -142 123c0 124.667 171 394.667 513 810l12 31zM907 1404l1.99805 -0.00292969
c58.667 0 103.334 -31 134.001 -93l5 -27c0 -52 -68.667 -103.333 -206 -154c-54 -27.333 -81 -50.666 -81 -69.999l11 -17v-12l-16 -14h-22c-37.333 10 -56 18 -56 24c-2 0 -4 11.333 -6 34v8c0 46.667 72 88.334 216 125.001c108.667 25.333 130.667 62 66 110
c0 -0.666992 -6.33301 -0.666992 -19 0c-65.333 0 -133.666 -25.333 -204.999 -76l-6 -8l4 -33h-41c-32 19.333 -48 43.333 -48 72s46 63.334 138 104.001c52.667 18 96 27 130 27z" />
    <glyph glyph-name="uni1ECA" unicode="&#x1eca;" horiz-adv-x="1146" 
d="M1674 1797l154.998 -106.001c376 -47.333 564 -119.666 564 -216.999v-6c0 -26 -16.667 -50.667 -50 -74h-25l-12 12v6l12 19v6c-99.333 70 -256.333 105 -471 105h-136c-110.667 -72.667 -311 -260.667 -601 -564c-301.333 -352 -458.666 -612.333 -471.999 -781
c184.667 -2 302.667 -33 354 -93l-13 -18l-111 12h-174c-215.333 0 -388.666 -51.667 -519.999 -155v-6l24 -31l-12 -12h-25c-78.667 11.333 -118 48.333 -118 111c0 96 151 160 453 192h18c-28.667 33.333 -43 60.333 -43 81c0 232.667 291.333 646 874 1240h-6
c-155.333 0 -395 -45.667 -719 -137c-318 -132 -477 -249.667 -477 -353c0 -49.333 49.333 -82.333 148 -99l7 -6v-19l-31 -6h-25c-136 0 -216.667 68 -242 204v50c0 96 55.667 170.333 167 223c369.333 210.667 824 316 1364 316c62 70.667 109.667 106 143 106z
M615.998 -79.001h4c54.667 -5.33301 82 -31 82 -77c0 -66 -43.333 -108 -130 -126h-29c-37.333 0 -63 24.333 -77 73c0 76.667 50 120 150 130z" />
    <glyph glyph-name="uni1ECB" unicode="&#x1ecb;" horiz-adv-x="469" 
d="M973 1457c34 0 73.332 -30.999 117.999 -92.999v-6c-17.333 -62.667 -122.666 -157.334 -315.999 -284.001l-55 -25l-6 6v6c54.667 146 135 278 241 396h18zM558.999 981.001l25 -0.000976562c54.667 0 102 -41 142 -123l6 -19c0 -21.333 -76.333 -114 -229 -278
c-222 -251.333 -333 -430.666 -333 -537.999l12 -12v-12c-94.667 0 -142 41 -142 123c0 124.667 171 394.667 513 810l12 31zM82.999 -63l5 -0.000976562c48 -5.33301 72 -28.333 72 -69c0 -58 -38.333 -95 -115 -111h-26c-33.333 0 -56 21.333 -68 64
c0 68.667 44 107.334 132 116.001z" />
    <glyph glyph-name="uni1ECC" unicode="&#x1ecc;" horiz-adv-x="1407" 
d="M1216 1685c140.667 0 256.669 -77.667 348.002 -233l18 -72v-30l-12 -12h-12l-48 90c-39.333 40 -107.333 60 -204 60h-60c-258.667 0 -528.334 -128 -809.001 -384c-191.333 -204.667 -287 -416.334 -287 -635.001c0 -153.333 81.667 -257 245 -311l120 -18
c244 0 497.667 147.667 761 443c148 191.333 222 369 222 533v18c0 89.333 -44 149.333 -132 180l-72 12c-85.333 0 -177.333 -20 -276 -60h-6l-11 12v12c81.333 68 173 102 275 102h30c160 0 266 -88 318 -264l6 -72v-6c0 -302 -182 -591.333 -546 -868
c-189.333 -124 -359 -186 -509 -186c-158.667 0 -294.334 60 -407.001 180c-112 132.667 -168 276.334 -168 431.001v12c0 299.333 191.667 587 575 863c237.333 135.333 451 203 641 203zM616.002 -79h4c54.667 -5.33301 82 -31 82 -77c0 -66 -43.333 -108 -130 -126h-29
c-37.333 0 -63 24.333 -77 73c0 76.667 50 120 150 130z" />
    <glyph glyph-name="uni1ECD" unicode="&#x1ecd;" horiz-adv-x="940" 
d="M776 1011c52.667 0 118.334 -57.3369 197.001 -172.004c10 -26.667 4 -38.667 -18 -36c-43.333 27.333 -81 41 -113 41c-162 0 -348.333 -118.667 -559 -356c-83.333 -114.667 -126.333 -214.667 -129 -300v-18c2.66699 -38 29.667 -61 81 -69
c130 0 298.667 144.667 506 434c39.333 66 59 129.667 59 191c-0.666992 12.667 -14.667 28.334 -42 47.001v6c0 10.667 8.83301 17.5 26.5 20.5s38.834 4.16699 63.501 3.5c67.333 -8 105 -51.667 113 -131c14.667 -171.333 -118.333 -359.666 -399 -564.999
c-114.667 -71.333 -207.667 -107 -279 -107h-18c-96.667 -3.33301 -162.834 19.334 -198.501 68.001s-50.834 107.334 -45.501 176.001v24c0 184.667 123 378.667 369 582c148 107.333 276.667 161 386 161zM156 -63.0039l5 -0.000976562c48 -5.33301 72 -28.333 72 -69
c0 -58 -38.333 -95 -115 -111h-26c-33.333 0 -56 21.333 -68 64c0 68.667 44 107.334 132 116.001z" />
    <glyph glyph-name="uni1ECE" unicode="&#x1ece;" horiz-adv-x="1407" 
d="M1216 1685c140.667 0 256.669 -77.667 348.002 -233l18 -72v-30l-12 -12h-12l-48 90c-39.333 40 -107.333 60 -204 60h-60c-258.667 0 -528.334 -128 -809.001 -384c-191.333 -204.667 -287 -416.334 -287 -635.001c0 -153.333 81.667 -257 245 -311l120 -18
c244 0 497.667 147.667 761 443c148 191.333 222 369 222 533v18c0 89.333 -44 149.333 -132 180l-72 12c-85.333 0 -177.333 -20 -276 -60h-6l-11 12v12c81.333 68 173 102 275 102h30c160 0 266 -88 318 -264l6 -72v-6c0 -302 -182 -591.333 -546 -868
c-189.333 -124 -359 -186 -509 -186c-158.667 0 -294.334 60 -407.001 180c-112 132.667 -168 276.334 -168 431.001v12c0 299.333 191.667 587 575 863c237.333 135.333 451 203 641 203zM1614 2174l3 0.000976562c68 0 119.667 -35.667 155 -107l5 -32
c0 -60 -79.333 -119.333 -238 -178c-62 -32 -93 -59 -93 -81l12 -19v-14l-19 -17h-25c-42.667 11.333 -64 20.666 -64 27.999c-2.66699 0 -5.33398 13 -8.00098 39v9c0 54 83.333 102.333 250 145c126 29.333 151.667 72 77 128c0 -1.33301 -7.33301 -1.33301 -22 0
c-75.333 0 -154.666 -29.667 -237.999 -89l-6 -9l4 -38h-48c-36.667 22.667 -55 50.667 -55 84c0 32.667 53 72.667 159 120c62 20.667 112.333 31 151 31z" />
    <glyph glyph-name="uni1ECF" unicode="&#x1ecf;" horiz-adv-x="940" 
d="M776 1011c52.667 0 118.334 -57.3369 197.001 -172.004c10 -26.667 4 -38.667 -18 -36c-43.333 27.333 -81 41 -113 41c-162 0 -348.333 -118.667 -559 -356c-83.333 -114.667 -126.333 -214.667 -129 -300v-18c2.66699 -38 29.667 -61 81 -69
c130 0 298.667 144.667 506 434c39.333 66 59 129.667 59 191c-0.666992 12.667 -14.667 28.334 -42 47.001v6c0 10.667 8.83301 17.5 26.5 20.5s38.834 4.16699 63.501 3.5c67.333 -8 105 -51.667 113 -131c14.667 -171.333 -118.333 -359.666 -399 -564.999
c-114.667 -71.333 -207.667 -107 -279 -107h-18c-96.667 -3.33301 -162.834 19.334 -198.501 68.001s-50.834 107.334 -45.501 176.001v24c0 184.667 123 378.667 369 582c148 107.333 276.667 161 386 161zM1138 1421l1.99805 -0.00292969
c58.667 0 103.334 -31 134.001 -93l5 -27c0 -52 -68.667 -103.333 -206 -154c-54 -27.333 -81 -50.666 -81 -69.999l11 -17v-12l-16 -14h-22c-37.333 10 -56 18 -56 24c-2 0 -4 11.333 -6 34v8c0 46.667 72 88.334 216 125.001c108.667 25.333 130.667 62 66 110
c0 -0.666992 -6.33301 -0.666992 -19 0c-65.333 0 -133.666 -25.333 -204.999 -76l-6 -8l4 -33h-41c-32 19.333 -48 43.333 -48 72s46 63.334 138 104.001c52.667 18 96 27 130 27z" />
    <glyph glyph-name="uni1ED0" unicode="&#x1ed0;" horiz-adv-x="1407" 
d="M1216 1685c140.667 0 256.669 -77.667 348.002 -233l18 -72v-30l-12 -12h-12l-48 90c-39.333 40 -107.333 60 -204 60h-60c-258.667 0 -528.334 -128 -809.001 -384c-191.333 -204.667 -287 -416.334 -287 -635.001c0 -153.333 81.667 -257 245 -311l120 -18
c244 0 497.667 147.667 761 443c148 191.333 222 369 222 533v18c0 89.333 -44 149.333 -132 180l-72 12c-85.333 0 -177.333 -20 -276 -60h-6l-11 12v12c81.333 68 173 102 275 102h30c160 0 266 -88 318 -264l6 -72v-6c0 -302 -182 -591.333 -546 -868
c-189.333 -124 -359 -186 -509 -186c-158.667 0 -294.334 60 -407.001 180c-112 132.667 -168 276.334 -168 431.001v12c0 299.333 191.667 587 575 863c237.333 135.333 451 203 641 203zM1835 2138h11c70 -16.667 105 -42.334 105 -77v-6
c-30 -40 -138.333 -89.333 -325 -148l-110 -22l-11 16zM1323 1951c165.333 -92 248 -167.333 248 -226l-6 -5h-11c-56.667 55.333 -143 96.333 -259 123c-62.667 2.66699 -136 -31 -220 -101h-17c0 65.333 82.667 135 248 209h17z" />
    <glyph glyph-name="uni1ED1" unicode="&#x1ed1;" horiz-adv-x="940" 
d="M776 1011c52.667 0 118.334 -57.3369 197.001 -172.004c10 -26.667 4 -38.667 -18 -36c-43.333 27.333 -81 41 -113 41c-162 0 -348.333 -118.667 -559 -356c-83.333 -114.667 -126.333 -214.667 -129 -300v-18c2.66699 -38 29.667 -61 81 -69
c130 0 298.667 144.667 506 434c39.333 66 59 129.667 59 191c-0.666992 12.667 -14.667 28.334 -42 47.001v6c0 10.667 8.83301 17.5 26.5 20.5s38.834 4.16699 63.501 3.5c67.333 -8 105 -51.667 113 -131c14.667 -171.333 -118.333 -359.666 -399 -564.999
c-114.667 -71.333 -207.667 -107 -279 -107h-18c-96.667 -3.33301 -162.834 19.334 -198.501 68.001s-50.834 107.334 -45.501 176.001v24c0 184.667 123 378.667 369 582c148 107.333 276.667 161 386 161zM834 1259c149.333 -90.667 224 -165 224 -223l-5 -5h-10
c-51.333 54.667 -129.333 95 -234 121c-56.667 2.66699 -123 -30.333 -199 -99h-15c0 64 74.667 132.667 224 206h15zM1320 1441h10c68 -16 102 -41 102 -75v-5c-29.333 -39.333 -134.333 -87.333 -315 -144l-106 -21l-11 16z" />
    <glyph glyph-name="uni1ED2" unicode="&#x1ed2;" horiz-adv-x="1407" 
d="M1216 1685c140.667 0 256.669 -77.667 348.002 -233l18 -72v-30l-12 -12h-12l-48 90c-39.333 40 -107.333 60 -204 60h-60c-258.667 0 -528.334 -128 -809.001 -384c-191.333 -204.667 -287 -416.334 -287 -635.001c0 -153.333 81.667 -257 245 -311l120 -18
c244 0 497.667 147.667 761 443c148 191.333 222 369 222 533v18c0 89.333 -44 149.333 -132 180l-72 12c-85.333 0 -177.333 -20 -276 -60h-6l-11 12v12c81.333 68 173 102 275 102h30c160 0 266 -88 318 -264l6 -72v-6c0 -302 -182 -591.333 -546 -868
c-189.333 -124 -359 -186 -509 -186c-158.667 0 -294.334 60 -407.001 180c-112 132.667 -168 276.334 -168 431.001v12c0 299.333 191.667 587 575 863c237.333 135.333 451 203 641 203zM1310 2265l203 -314c7.33301 0 11 -9 11 -27v-11h-11c-56 0 -160.667 75 -314 225
l-11 39c0 38.667 40.667 68 122 88zM1323 1951c165.333 -92 248 -167.333 248 -226l-6 -5h-11c-56.667 55.333 -143 96.333 -259 123c-62.667 2.66699 -136 -31 -220 -101h-17c0 65.333 82.667 135 248 209h17z" />
    <glyph glyph-name="uni1ED3" unicode="&#x1ed3;" horiz-adv-x="940" 
d="M776 1011c52.667 0 118.334 -57.3369 197.001 -172.004c10 -26.667 4 -38.667 -18 -36c-43.333 27.333 -81 41 -113 41c-162 0 -348.333 -118.667 -559 -356c-83.333 -114.667 -126.333 -214.667 -129 -300v-18c2.66699 -38 29.667 -61 81 -69
c130 0 298.667 144.667 506 434c39.333 66 59 129.667 59 191c-0.666992 12.667 -14.667 28.334 -42 47.001v6c0 10.667 8.83301 17.5 26.5 20.5s38.834 4.16699 63.501 3.5c67.333 -8 105 -51.667 113 -131c14.667 -171.333 -118.333 -359.666 -399 -564.999
c-114.667 -71.333 -207.667 -107 -279 -107h-18c-96.667 -3.33301 -162.834 19.334 -198.501 68.001s-50.834 107.334 -45.501 176.001v24c0 184.667 123 378.667 369 582c148 107.333 276.667 161 386 161zM834 1259c149.333 -90.667 224 -165 224 -223l-5 -5h-10
c-51.333 54.667 -129.333 95 -234 121c-56.667 2.66699 -123 -30.333 -199 -99h-15c0 64 74.667 132.667 224 206h15zM929 1519l203 -314c7.33301 0 11 -9 11 -27v-11h-11c-56 0 -160.667 75 -314 225l-11 39c0 38.667 40.667 68 122 88z" />
    <glyph glyph-name="uni1ED4" unicode="&#x1ed4;" horiz-adv-x="1407" 
d="M1216 1685c140.667 0 256.669 -77.667 348.002 -233l18 -72v-30l-12 -12h-12l-48 90c-39.333 40 -107.333 60 -204 60h-60c-258.667 0 -528.334 -128 -809.001 -384c-191.333 -204.667 -287 -416.334 -287 -635.001c0 -153.333 81.667 -257 245 -311l120 -18
c244 0 497.667 147.667 761 443c148 191.333 222 369 222 533v18c0 89.333 -44 149.333 -132 180l-72 12c-85.333 0 -177.333 -20 -276 -60h-6l-11 12v12c81.333 68 173 102 275 102h30c160 0 266 -88 318 -264l6 -72v-6c0 -302 -182 -591.333 -546 -868
c-189.333 -124 -359 -186 -509 -186c-158.667 0 -294.334 60 -407.001 180c-112 132.667 -168 276.334 -168 431.001v12c0 299.333 191.667 587 575 863c237.333 135.333 451 203 641 203zM1733 2322l3 0.000976562c68 0 119.667 -35.667 155 -107l5 -32
c0 -60 -79.333 -119.333 -238 -178c-62 -32 -93 -59 -93 -81l12 -19v-14l-19 -17h-25c-42.667 11.333 -64 20.666 -64 27.999c-2.66699 0 -5.33398 13 -8.00098 39v9c0 54 83.333 102.333 250 145c126 29.333 151.667 72 77 128c0 -1.33301 -7.33301 -1.33301 -22 0
c-75.333 0 -154.666 -29.667 -237.999 -89l-6 -9l4 -38h-48c-36.667 22.667 -55 50.667 -55 84c0 32.667 53 72.667 159 120c62 20.667 112.333 31 151 31zM1323 1951c165.333 -92 248 -167.333 248 -226l-6 -5h-11c-56.667 55.333 -143 96.333 -259 123
c-62.667 2.66699 -136 -31 -220 -101h-17c0 65.333 82.667 135 248 209h17z" />
    <glyph glyph-name="uni1ED5" unicode="&#x1ed5;" horiz-adv-x="940" 
d="M776 1011c52.667 0 118.334 -57.3369 197.001 -172.004c10 -26.667 4 -38.667 -18 -36c-43.333 27.333 -81 41 -113 41c-162 0 -348.333 -118.667 -559 -356c-83.333 -114.667 -126.333 -214.667 -129 -300v-18c2.66699 -38 29.667 -61 81 -69
c130 0 298.667 144.667 506 434c39.333 66 59 129.667 59 191c-0.666992 12.667 -14.667 28.334 -42 47.001v6c0 10.667 8.83301 17.5 26.5 20.5s38.834 4.16699 63.501 3.5c67.333 -8 105 -51.667 113 -131c14.667 -171.333 -118.333 -359.666 -399 -564.999
c-114.667 -71.333 -207.667 -107 -279 -107h-18c-96.667 -3.33301 -162.834 19.334 -198.501 68.001s-50.834 107.334 -45.501 176.001v24c0 184.667 123 378.667 369 582c148 107.333 276.667 161 386 161zM834 1259c149.333 -90.667 224 -165 224 -223l-5 -5h-10
c-51.333 54.667 -129.333 95 -234 121c-56.667 2.66699 -123 -30.333 -199 -99h-15c0 64 74.667 132.667 224 206h15zM1213 1561l1.99805 -0.00292969c58.667 0 103.334 -31 134.001 -93l5 -27c0 -52 -68.667 -103.333 -206 -154c-54 -27.333 -81 -50.666 -81 -69.999
l11 -17v-12l-16 -14h-22c-37.333 10 -56 18 -56 24c-2 0 -4 11.333 -6 34v8c0 46.667 72 88.334 216 125.001c108.667 25.333 130.667 62 66 110c0 -0.666992 -6.33301 -0.666992 -19 0c-65.333 0 -133.666 -25.333 -204.999 -76l-6 -8l4 -33h-41
c-32 19.333 -48 43.333 -48 72s46 63.334 138 104.001c52.667 18 96 27 130 27z" />
    </font>
</defs>
</svg>
