<?xml version="1.0" standalone="no"?>
<!DOCTYPE svg PUBLIC "-//W3C//DTD SVG 1.1//EN" "http://www.w3.org/Graphics/SVG/1.1/DTD/svg11.dtd" >
<svg xmlns="http://www.w3.org/2000/svg" xmlns:xlink="http://www.w3.org/1999/xlink" version="1.1">
<metadata>
Created by FontForge 20150824 at Mon Aug 22 16:53:04 2016
 By Everything Fonts
(c) Copyright 2005 by Tong Duc Thinh. All Rights Reserved
</metadata>
<defs>
<font id="SFUIsadoraRegular" horiz-adv-x="537" >
  <font-face 
    font-family="SFUIsadoraRegular"
    font-weight="400"
    font-stretch="normal"
    units-per-em="1000"
    panose-1="0 0 4 0 0 0 0 0 0 0"
    ascent="800"
    descent="-200"
    x-height="435"
    cap-height="625"
    bbox="-253 -250 1095 1134"
    underline-thickness="50"
    underline-position="-175"
    unicode-range="U+0020-F002"
  />
<missing-glyph horiz-adv-x="500" 
d="M63 0v1134h375v-1134h-375zM125 63h250v1009h-250v-1009z" />
    <glyph glyph-name=".notdef" horiz-adv-x="500" 
d="M63 0v1134h375v-1134h-375zM125 63h250v1009h-250v-1009z" />
    <glyph glyph-name=".null" horiz-adv-x="0" 
 />
    <glyph glyph-name="nonmarkingreturn" horiz-adv-x="278" 
 />
    <glyph glyph-name="space" unicode=" " horiz-adv-x="278" 
 />
    <glyph glyph-name="exclam" unicode="!" horiz-adv-x="352" 
d="M99 -15q-18 0 -31.5 13.5t-13.5 31.5q0 19 13 32t32 13t32 -13t13 -32q0 -18 -13.5 -31.5t-31.5 -13.5zM162 183v0l-38 -21q19 51 87 288q31 108 31 168l70 22q-3 -57 -64 -225q-29 -77 -86 -232z" />
    <glyph glyph-name="quotedbl" unicode="&#x22;" horiz-adv-x="426" 
d="M216 439l-23 186h70l-22 -186h-25zM330 439l-22 186h70l-23 -186h-25z" />
    <glyph glyph-name="numbersign" unicode="#" 
d="M61 -10l58 183h-102l29 40h86l31 97h-103l29 40h87l54 175l45 13l-59 -188h121l55 175l45 13l-60 -188h102l-28 -40h-87l-30 -97h102l-29 -40h-86l-54 -173l-44 -10l58 183h-122l-54 -173zM203 310l-30 -97h121l30 97h-121z" />
    <glyph glyph-name="dollar" unicode="$" 
d="M143 -15l25 79q-61 19 -95 76l29 54q25 -80 73 -106l71 224q-12 17 -35.5 52.5t-23.5 79.5q0 52 39 88t92 36h9l15 48l33 9l-18 -59q60 -13 95 -51l-31 -53q-9 34 -14 42q-16 25 -57 41l-59 -187q25 -34 50 -67q34 -55 34 -98q0 -58 -42.5 -98t-101.5 -40q-11 0 -35 2
l-21 -66zM268 284l-65 -206q18 -8 36 -8q38 0 62 25.5t24 63.5q0 31 -21 70q-4 6 -36 55zM321 548h-12q-30 0 -53.5 -24.5t-23.5 -54.5q0 -28 37 -84z" />
    <glyph glyph-name="percent" unicode="%" horiz-adv-x="759" 
d="M232 2l-77 -17q116 241 460 600l-2 2q-82 -52 -112 -67q-75 -38 -130 -38q-7 0 -23 2q0 -75 -47 -149q-55 -86 -133 -86q-51 0 -80 41q-26 37 -26 90q0 78 50 150q56 80 131 80q83 0 104 -96q21 -7 36 -7q119 0 263 118l17 -15q-123 -115 -251 -292q-135 -187 -180 -316z
M102 367q0 -103 72 -103q56 0 97 88q34 74 34 138q0 105 -67 105q-58 0 -100 -88q-36 -75 -36 -140zM510 0q-47 0 -75 37q-25 34 -25 82q0 81 49 155q55 82 133 82q49 0 77 -33.5t28 -83.5q0 -84 -50 -157q-57 -82 -137 -82zM450 111q0 -39 16 -65q18 -31 55 -31
q61 0 102 88q34 74 34 142q0 96 -71 96q-62 0 -102 -88q-34 -72 -34 -142z" />
    <glyph glyph-name="ampersand" unicode="&#x26;" horiz-adv-x="833" 
d="M215 272l27 10q-52 -58 -52 -115q0 -67 50 -112t118 -45q56 0 101 34q-112 150 -161 329q-167 -85 -167 -218q0 -114 120 -160q-79 4 -130 41q-60 43 -60 118q0 92 97 164q59 44 135 70q-13 58 -13 95q0 63 38 102.5t101 39.5q39 0 70.5 -24.5t31.5 -62.5q0 -58 -69 -100
q-17 -10 -97 -41q16 -60 39 -115q49 54 109 74q48 15 133 15q11 0 32.5 -1.5t32.5 -1.5q36 0 50 4q18 5 45 25q-35 -54 -72 -67q-20 -7 -97 -7h-13q0 -151 -96 -254q142 -190 315 -230l-89 -27q-139 38 -276 220q-44 -37 -106 -37q-79 0 -134 46q-58 49 -58 126q0 51 45 105
zM574 325h-13q-56 0 -88 -9q-39 -12 -74 -46q44 -102 109 -187q76 82 76 178q0 29 -10 64zM335 505q0 -41 17 -92q119 56 119 139q0 53 -56 53q-35 0 -59 -34q-21 -30 -21 -66z" />
    <glyph glyph-name="quotesingle" unicode="'" horiz-adv-x="278" 
d="M205 439l-23 186h70l-22 -186h-25z" />
    <glyph glyph-name="parenleft" unicode="(" horiz-adv-x="315" 
d="M129 -131l-18 -6q-45 135 -45 277q0 188 81 339.5t237 250.5l11 -16q-139 -104 -217 -312q-70 -185 -70 -379q0 -85 21 -154z" />
    <glyph glyph-name="parenright" unicode=")" horiz-adv-x="315" 
d="M178 724l18 6q45 -135 45 -277q0 -188 -80 -338q-82 -153 -238 -252l-11 16q138 104 217 313q70 185 70 378q0 85 -21 154z" />
    <glyph glyph-name="asterisk" unicode="*" 
d="M284 307v0l-52 -19q28 59 66 163l-2 2q-32 -20 -87 -65l-26 17l120 65q-42 51 -83 88l12 36l75 -111q26 93 32 144l50 13q-33 -67 -62 -155l2 -2q23 15 75 53l12 12l31 -14q-41 -18 -126 -68q47 -57 82 -88l-11 -32l-77 107q-26 -96 -31 -146z" />
    <glyph glyph-name="plus" unicode="+" 
d="M237 -15v205h-175v40h175v205h50v-205h175v-40h-175v-205h-50z" />
    <glyph glyph-name="comma" unicode="," horiz-adv-x="278" 
d="M13 -119l-3 15q31 7 58 29q31 26 31 55q0 8 -14.5 26.5t-14.5 31.5q0 19 13.5 31t32.5 12q42 0 42 -47q0 -58 -57 -107q-47 -41 -88 -46z" />
    <glyph glyph-name="hyphen" unicode="-" horiz-adv-x="333" 
d="M15 202l37 57h100q58 0 118 12l-38 -57h-97q-43 0 -120 -12z" />
    <glyph glyph-name="hyphen" unicode="&#x2010;" horiz-adv-x="333" 
d="M15 202l37 57h100q58 0 118 12l-38 -57h-97q-43 0 -120 -12z" />
    <glyph glyph-name="period" unicode="." horiz-adv-x="278" 
d="M93 -15q-51 0 -51 46q0 21 13 35.5t34 14.5q50 0 50 -47q0 -20 -13 -34.5t-33 -14.5z" />
    <glyph glyph-name="slash" unicode="/" horiz-adv-x="389" 
d="M-39 -106l-70 -15q34 50 131 200l220 353q73 118 116 193l77 15q-57 -75 -113 -165l-307 -489q-22 -34 -54 -92z" />
    <glyph glyph-name="zero" unicode="0" 
d="M198 -15q-79 0 -123 72q-37 61 -37 145q0 138 79 271q91 152 220 152q83 0 126 -73q36 -60 36 -148q0 -135 -81 -268q-93 -151 -220 -151zM98 160q0 -160 98 -160q104 0 179 168q64 143 64 272q0 170 -103 170q-98 0 -173 -171q-65 -149 -65 -279z" />
    <glyph glyph-name="one" unicode="1" 
d="M247 0l-81 -15l76 220l118 374l-2 2l-69 -67q-63 -62 -130 -155l-17 64l223 187l78 15q-38 -97 -73 -207l-72 -228q-34 -109 -51 -190z" />
    <glyph glyph-name="two" unicode="2" 
d="M-1 -4l17 54l267 254q57 54 81 86q39 52 39 98q0 48 -37 76q-33 26 -83 26q-60 0 -120 -30l-8 29q82 36 158 36q70 0 114 -36q46 -39 46 -107q0 -50 -41 -100q-29 -36 -94 -88l-193 -156q-42 -34 -91 -83h154q126 0 200 14l-34 -73q-44 4 -108 4h-156q-59 0 -111 -4z" />
    <glyph glyph-name="three" unicode="3" 
d="M195 576l-7 28q48 21 104 21q67 0 107 -25q50 -30 50 -92q0 -69 -67 -112q-51 -33 -121 -43v-2q143 -59 143 -173q0 -88 -80 -144q-71 -49 -163 -49q-61 0 -123 24l15 28q54 -22 102 -22q74 0 129 40q60 45 60 117q0 75 -74 120q-60 36 -131 36l24 42q23 -4 51 -4
q71 0 120 33q55 38 55 106q0 45 -32 69q-29 21 -75 21q-39 0 -87 -19z" />
    <glyph glyph-name="four" unicode="4" 
d="M214 -15l73 229h-85q-94 0 -156 -11l-12 16q81 77 147 171q77 112 98 201l68 34q-59 -116 -112 -192q-44 -63 -139 -174h205l109 351l74 15l-123 -366h28q70 0 116 6l-30 -56q-27 5 -74 5h-54q-36 -113 -59 -214z" />
    <glyph glyph-name="five" unicode="5" 
d="M252 555l-69 -135q72 -18 124 -54q91 -63 91 -166q0 -94 -73.5 -154.5t-168.5 -60.5q-68 0 -142 33l8 24q67 -32 128 -32q76 0 132 54.5t56 130.5q0 93 -87 140q-54 29 -121 35l52 96q28 52 66 148q36 -4 81 -4h73q34 0 104 4l-35 -59h-219z" />
    <glyph glyph-name="six" unicode="6" 
d="M533 604l-12 -28q-43 19 -85 19q-130 0 -213 -134q-61 -98 -67 -186l2 -2q52 93 151 93q66 0 103 -42t37 -109q0 -90 -59 -158q-61 -72 -150 -72q-84 0 -128 63q-38 54 -38 142q0 150 104 287q113 148 260 148q49 0 95 -21zM139 135q0 -56 24 -92q28 -43 81 -43
q69 0 111 75q34 63 34 138q0 52 -23 87q-27 41 -77 41q-75 0 -116 -69q-34 -57 -34 -137z" />
    <glyph glyph-name="seven" unicode="7" 
d="M139 0l-90 -15q29 148 312 454l112 121h-97q-112 0 -218 -27l44 81q50 -4 74 -4h177q45 0 83 8l11 -8q-142 -146 -248 -290q-150 -204 -160 -320z" />
    <glyph glyph-name="eight" unicode="8" 
d="M219 -15q-72 0 -119 34q-53 38 -53 107q0 80 76 143q58 48 126 65q-71 61 -71 131t54 116q51 44 123 44q57 0 93 -24q42 -28 42 -82q0 -102 -168 -174q52 -43 64 -56q49 -54 49 -114q0 -83 -68 -138q-64 -52 -148 -52zM112 124q0 -57 31 -90.5t88 -33.5q61 0 100 45
t39 107q0 63 -42 113q-14 17 -63 55q-153 -57 -153 -196zM233 479q0 -62 74 -123q133 67 133 161q0 42 -23 67.5t-65 25.5q-52 0 -85.5 -39t-33.5 -92z" />
    <glyph glyph-name="nine" unicode="9" 
d="M4 5l13 23q34 -23 84 -23q128 0 215 143q52 86 73 185l-2 2q-63 -91 -159 -91q-64 0 -100.5 43t-36.5 108q0 90 61 160t150 70q84 0 129 -63q39 -56 39 -143q0 -154 -107 -289q-115 -145 -266 -145q-48 0 -93 20zM151 393q0 -51 24 -85q28 -39 77 -39q69 0 111 66
q37 57 37 130q0 145 -108 145q-69 0 -109 -78q-32 -63 -32 -139z" />
    <glyph glyph-name="colon" unicode=":" horiz-adv-x="278" 
d="M93 -15q-51 0 -51 46q0 21 13 35.5t34 14.5q50 0 50 -47q0 -20 -13 -34.5t-33 -14.5zM203 339q-51 0 -51 46q0 21 13 35.5t34 14.5q50 0 50 -47q0 -20 -13 -34.5t-33 -14.5z" />
    <glyph glyph-name="semicolon" unicode=";" horiz-adv-x="278" 
d="M-7 -119l-3 15q31 7 58 29q31 26 31 55q0 8 -14.5 26.5t-14.5 31.5q0 19 13.5 31t32.5 12q42 0 42 -47q0 -58 -57 -107q-47 -41 -88 -46zM208 339q-51 0 -51 46q0 21 13 35.5t34 14.5q50 0 50 -47q0 -20 -13 -34.5t-33 -14.5z" />
    <glyph glyph-name="less" unicode="&#x3c;" 
d="M452 -15l-400 203v40l400 209v-50l-351 -179l351 -173v-50z" />
    <glyph glyph-name="equal" unicode="=" 
d="M62 140v40h400v-40h-400zM62 240v40h400v-40h-400z" />
    <glyph glyph-name="greater" unicode="&#x3e;" 
d="M86 -15v50l350 173l-350 179v50l399 -209v-40z" />
    <glyph glyph-name="question" unicode="?" horiz-adv-x="426" 
d="M186 148l-55 -15q-6 20 -6 42q0 80 60 145l110 98q60 55 60 115q0 39 -23.5 63t-62.5 24q-34 0 -84 -27l-9 18q52 29 107 29q58 0 93 -27q39 -30 39 -86q0 -65 -65 -112q-40 -26 -120 -81q-65 -48 -65 -113q0 -36 21 -73zM114 -15q-19 0 -32 13t-13 32q0 18 13.5 31.5
t31.5 13.5t31.5 -13.5t13.5 -31.5q0 -19 -13 -32t-32 -13z" />
    <glyph glyph-name="at" unicode="@" horiz-adv-x="1000" 
d="M803 -16l26 -23q-33 -37 -107 -73q-104 -51 -216 -51q-165 0 -281 81q-131 92 -131 250q0 180 134 313t314 133q150 0 253 -86q109 -91 109 -238q0 -122 -79 -218q-84 -102 -202 -102q-70 0 -73 71q-56 -65 -130 -65q-62 0 -97 40t-35 103q0 106 75 212q81 115 183 115
q78 0 117 -74l22 54h86l-83 -207q-61 -152 -61 -170q0 -27 30 -27q65 0 127 70q73 82 73 198q0 127 -94 203q-88 70 -217 70q-148 0 -266 -123t-118 -271q0 -138 108 -217q97 -70 240 -70q163 0 293 102zM367 84q0 -67 70 -67q40 0 72 33q13 13 37 52q37 60 63 145
q21 69 21 96t-17.5 45.5t-44.5 18.5q-66 0 -136 -126q-65 -117 -65 -197z" />
    <glyph glyph-name="A" unicode="A" horiz-adv-x="796" 
d="M381 254l-27 -49q-55 -99 -93 -141q-73 -79 -164 -79q-55 0 -95 28q-46 32 -46 85q0 176 361 176h47q152 237 274 348l109 25q-28 -61 -52 -148q-35 -126 -35 -227q0 -114 38 -176l-25 -24q-33 73 -33 175q0 139 82 381l-33 -6q-84 -242 -84 -423q0 -119 22 -153
q18 -28 79 -30l-5 -16l-137 -4q-19 63 -19 166q0 51 4 92h-168zM351 254h-53q-292 0 -292 -140q0 -48 33.5 -76t81.5 -28q69 0 121 61q32 38 90 147zM392 274h158q16 149 76 316l-2 2q-147 -167 -232 -318z" />
    <glyph glyph-name="B" unicode="B" horiz-adv-x="778" 
d="M349 129q0 -129 122 -129q67 0 107 45.5t40 112.5q0 100 -86 147q-57 31 -123 31q-9 0 -23 -2q-37 -111 -37 -205zM471 -15q-142 0 -142 147q0 68 29 173q28 99 62 164q90 171 218 171q45 0 73.5 -29.5t28.5 -74.5q0 -83 -88 -137q-64 -39 -163 -58v-2q80 -14 134 -53
q65 -49 65 -122q0 -79 -71 -131q-64 -48 -146 -48zM391 354q23 -3 45 -3q87 0 159 49q80 55 80 138q0 32 -18.5 52t-50.5 20q-84 0 -166 -140q-24 -41 -49 -116zM336 0l-143 -10q11 97 80 309q65 199 112 299q-20 2 -31 2q-91 0 -159 -32q-88 -41 -88 -122q0 5 10 -42
l-60 -20q10 142 137 198q83 37 254 43q-153 -376 -175 -588q16 -15 63 -37z" />
    <glyph glyph-name="C" unicode="C" horiz-adv-x="574" 
d="M518 73l-14 -35q-28 -11 -83 -31q-65 -22 -144 -22q-231 0 -231 213q0 154 112 293q120 149 280 149q95 0 195 -50l-40 -94q-41 119 -144 119q-101 0 -175 -124q-65 -108 -65 -217q0 -58 22 -100q27 -54 80 -54q20 0 40 12l-42 -47q-63 2 -94 58q-26 46 -26 114
q0 137 76 248q65 96 135 113l-2 4q-117 -2 -203 -157q-74 -135 -74 -262q0 -87 53.5 -137.5t140.5 -50.5q98 0 203 58z" />
    <glyph glyph-name="D" unicode="D" horiz-adv-x="889" 
d="M315 0l-123 -10q9 96 75 305q54 169 102 289h55q-58 -157 -92 -263q-56 -178 -68 -289q17 -13 51 -32zM117 402l-60 -19q0 242 419 242q374 0 374 -252q0 -149 -116.5 -268.5t-264.5 -119.5q-68 0 -105.5 37t-37.5 105q0 98 49 238q35 100 71 165l46 11
q-52 -43 -101 -194q-45 -138 -45 -220q0 -122 129 -122q134 0 221 117q79 107 79 245q0 238 -353 238q-315 0 -315 -163q0 -21 10 -40z" />
    <glyph glyph-name="E" unicode="E" horiz-adv-x="685" 
d="M628 59l-55 -58q-28 -6 -58 -6q-119 0 -189 35q0 7 -1 19.5t-1 19.5q0 121 64 316q39 119 81 210q-50 10 -91 10q-102 0 -171 -30q-95 -41 -95 -130q0 -14 10 -40l-60 -20q10 142 140 200q93 40 259 40q37 0 110.5 -3t110.5 -3q74 0 127 16q-23 -27 -57 -66h-10
q-58 0 -257 23q-41 -77 -91 -236h192l-34 -35q-46 15 -115 15h-50q-33 -132 -33 -214q0 -25 5 -57q64 -25 153 -25q62 0 116 19zM323 0l-130 -10q9 98 78 305q48 145 106 289h55q-58 -157 -92 -263q-56 -178 -68 -289q17 -13 51 -32z" />
    <glyph glyph-name="F" unicode="F" horiz-adv-x="630" 
d="M364 -4l-40 -7q-11 41 -11 83q0 161 146 523q-45 10 -81 10q-102 0 -171 -30q-95 -41 -95 -130q0 -14 10 -40l-60 -20q10 142 140 200q93 40 259 40q37 0 110.5 -3t110.5 -3q74 0 127 16q-23 -27 -57 -66h-10q-60 0 -267 23q-28 -56 -90 -257h192l-34 -35q-42 15 -105 15
h-60q-37 -90 -37 -223q0 -54 23 -96zM251 -75l-75 -25q7 111 81 351q52 170 113 333h55q-176 -464 -176 -636q0 -5 2 -23z" />
    <glyph glyph-name="G" unicode="G" horiz-adv-x="667" 
d="M327 255l30 30q92 -6 140 -6q60 0 115 6q-32 -55 -74 -173.5t-72 -171.5q-77 -133 -216 -133q-119 0 -156 74l63 38q-2 -12 -2 -17q0 -41 32 -62q27 -18 71 -18q93 0 152 113q26 50 64 153q43 116 60 157q2 4 6 14h-110q42 -47 42 -95q0 -79 -71 -131q-64 -48 -146 -48
q-98 0 -156 56.5t-58 154.5q0 157 114 297q120 147 272 147q95 0 201 -47l-42 -97q-34 124 -168 124q-125 0 -214 -148q-78 -130 -78 -272q0 -78 39 -129q43 -56 119 -56q62 0 115 44t53 105q0 41 -25.5 68t-66.5 27q-11 0 -33 -4z" />
    <glyph glyph-name="H" unicode="H" horiz-adv-x="852" 
d="M262 0l-78 -10q10 103 85 330h-15q-68 0 -120 -26l21 37q19 4 55 4h64q49 150 103 263q-20 2 -31 2q-91 0 -159 -32q-88 -41 -88 -122q0 5 10 -42l-60 -20q10 142 137 198q83 37 254 43q-61 -150 -106 -290h31q38 140 109 290h16q-74 -150 -109 -290h210q27 92 88 198
q96 167 196 167q29 0 45 -22.5t16 -53.5q0 -102 -88.5 -200t-190.5 -104q-33 -118 -33 -196q0 -109 79 -109h16l-6 -15l-152 -10q-12 46 -12 102q0 93 38 228h-210q-41 -157 -41 -235q0 -48 25 -85l-40 -10q-10 29 -10 59q0 102 49 271h-31q-46 -150 -64 -283q0 -1 -3 -37z
M859 680q-53 0 -127 -162q-37 -81 -71 -183q104 14 172 102q63 82 63 181q0 62 -37 62z" />
    <glyph glyph-name="I" unicode="I" horiz-adv-x="500" 
d="M264 0l-78 -10q0 91 83 328q63 181 110 280q-20 2 -33 2q-90 0 -156 -32q-86 -42 -86 -122q0 -7 5 -42l-60 -20q10 142 128 199q86 42 248 42h65q0 -3 -24 -61q-31 -73 -54 -140q-67 -191 -67 -340q0 -53 20 -84l-41 -10q-8 22 -8 76q0 112 64 316q52 164 86 228h-33
q-44 -111 -94 -272q-66 -213 -72 -301q-1 -16 -3 -37z" />
    <glyph glyph-name="J" unicode="J" horiz-adv-x="500" 
d="M378 584h52q-48 -113 -84 -233q-25 -98 -79 -300q-24 -83 -93 -145.5t-139 -62.5q-90 0 -103 73l52 41v-8q0 -76 83 -76q106 0 136 122l68 280q33 138 107 309zM350 0l-36 -8q-4 19 -4 44q0 109 64 316q46 147 89 248h-77q-269 0 -273 -159q0 -14 5 -36l-60 -21
q0 132 138 202q55 28 209 35l86 4q-43 -91 -87 -230q-64 -202 -64 -332q0 -38 10 -63z" />
    <glyph glyph-name="K" unicode="K" horiz-adv-x="759" 
d="M266 0l-78 -10q12 115 84 328q60 178 109 280q-20 2 -31 2q-91 0 -159 -32q-88 -41 -88 -122q0 5 10 -42l-60 -20q10 145 135 202q88 39 256 39h50q-70 -140 -107 -284h9q280 299 442 299q41 0 69 -30l-53 -54q-20 44 -62 44q-92 0 -214 -111q-70 -64 -126 -140
q18 -46 82 -158q212 -369 351 -369q22 0 40.5 16.5t18.5 38.5q0 3 -3 13l67 24q-39 -107 -138 -107q-189 0 -393 362q-59 104 -79 161h-14q-40 -150 -40 -235q0 -54 25 -95l-40 -10q-10 33 -10 69q0 113 57 298q45 144 95 253h-33q-152 -375 -172 -610z" />
    <glyph glyph-name="L" unicode="L" horiz-adv-x="500" 
d="M487 71l-46 -82q-25 -4 -58 -4q-107 0 -218 37q-57 -37 -114 -37q-40 0 -69 14q-39 17 -39 53q0 25 20 40t46 15q49 0 170 -51q41 53 69 187l53 242q13 45 39 81l48 18q-54 -52 -81 -145q-1 -3 -40 -196q-33 -163 -71 -191q79 -22 134 -22q80 0 157 41zM185 116l-68 -13
q33 60 62 199q36 174 41 189q21 68 69.5 108.5t118.5 40.5q72 0 109 -54l-58 -62v16q0 37 -20 61t-56 24q-80 0 -114 -147q-15 -79 -46 -236q-7 -35 -38 -126zM147 28l-77 31q-57 23 -75 23q-37 0 -37 -30q0 -28 35 -42q25 -10 58 -10q46 0 96 28z" />
    <glyph glyph-name="M" unicode="M" horiz-adv-x="981" 
d="M249 0l-60 -10q10 98 79 303q59 175 111 291h38q5 -49 29 -124l43 -136q36 -128 39 -199h2q10 22 20 41q-11 71 -44 179l-56 184q-11 37 -11 71h-48q-282 0 -282 -159q0 -4 5 -37l-60 -19q13 104 77 159q95 81 311 81h15l-3 -28q0 -42 26 -126q22 -71 45 -142
q24 -82 36 -144q80 130 170 235q72 84 198 205l36 5q-42 -73 -77 -199q-43 -155 -43 -297q0 -56 11 -79q17 -35 65 -35h17l-5 -20l-151 -10q-12 40 -12 94q0 128 34 276q28 120 58 182l-2 2q-82 -80 -190 -242q-114 -170 -145 -268l-54 -34q4 24 4 55q0 111 -40 247
q-7 22 -58 183q-3 9 -3 15h-2q-29 -68 -71 -211q-55 -187 -55 -267q0 -4 3 -22z" />
    <glyph glyph-name="N" unicode="N" horiz-adv-x="852" 
d="M250 0l-60 -10q10 104 81 315q63 189 115 295h-11q-101 0 -170 -29q-95 -41 -95 -128q0 -7 5 -37l-60 -21q0 227 379 240q16 -124 76 -273q57 -143 132 -252h2q0 13 4 37q-70 99 -121 230q-54 136 -65 252l35 16l-3 -32q0 -117 66 -270q40 -94 92 -173q34 159 92 291
q110 249 259 249q32 0 58 -14q31 -16 34 -45l-75 -43q0 4 2.5 12.5t2.5 12.5q0 18 -14 30t-32 12q-92 0 -175 -157q-63 -118 -110 -307q-38 -151 -40 -211q-86 91 -166 262q-68 146 -103 285h-2q-29 -70 -76 -233q-60 -206 -60 -282q0 -4 3 -22z" />
    <glyph glyph-name="O" unicode="O" horiz-adv-x="685" 
d="M254 -15q-97 0 -152 57t-55 154q0 155 111 295q118 149 269 149q97 0 153.5 -54t56.5 -151q0 -159 -113 -301q-119 -149 -270 -149zM311 87q-60 0 -95 56q-29 48 -29 112q0 95 50 197q61 125 164 168l-2 5q-117 -10 -200 -166q-72 -136 -72 -265q0 -77 29 -129
q36 -65 107 -65q132 0 222 155q77 133 77 274q0 69 -25 123q-33 68 -95 68q-93 0 -163 -127q-60 -110 -60 -211q0 -58 19 -99q25 -56 75 -56q22 0 56 24z" />
    <glyph glyph-name="P" unicode="P" horiz-adv-x="704" 
d="M365 0l-41 -8q-8 33 -8 76q0 85 34 210q38 138 96 230q84 132 193 132q103 0 103 -117q0 -92 -68 -169q-71 -80 -162 -80q-51 0 -99 44l30 50q30 -79 90 -79q59 0 104 81q40 71 40 135q0 36 -17 63q-20 32 -54 32q-119 0 -197 -195q-63 -156 -63 -296q0 -64 19 -109z
M267 0l-78 -10q7 101 87 334q64 185 106 274q-20 2 -33 2q-90 0 -156 -32q-86 -42 -86 -122q0 -7 5 -42l-60 -20q15 241 359 241h31q-51 -120 -103 -290q-61 -197 -69 -298z" />
    <glyph glyph-name="Q" unicode="Q" horiz-adv-x="611" 
d="M551 -158l-120 -36q-296 96 -502 222l115 61q59 -64 132 -64q138 0 233 140q85 125 85 270q0 75 -23 124q-30 66 -96 66q-101 0 -186 -131q-77 -118 -77 -221q0 -50 21 -83q25 -38 73 -38q24 0 53 18l-50 -69q-20 -4 -29 -4q-133 0 -133 152q0 133 99 258
q104 133 233 133q82 0 136 -64.5t54 -147.5q0 -157 -107 -286q-114 -137 -268 -137q-86 0 -155 69l-40 -23q125 -78 266 -133q153 -60 286 -76z" />
    <glyph glyph-name="R" unicode="R" horiz-adv-x="759" 
d="M361 0l-39 -10q-9 30 -9 72q0 84 34 215q41 158 107 261q81 127 182 127q44 0 73.5 -29t29.5 -72q0 -93 -103 -157q-76 -47 -158 -58q248 -527 406 -527q21 0 38 16.5t17 37.5q0 -2 -3 16l66 22q-7 -33 -37 -64q-42 -43 -103 -43q-165 0 -340 326q-12 23 -109 224h12
q84 0 161 47q88 55 88 134q0 36 -19.5 61.5t-54.5 25.5q-123 0 -210 -272q-47 -147 -47 -263q0 -54 18 -90zM264 0l-78 -10q7 101 87 334q64 185 106 274q-20 2 -33 2q-90 0 -156 -32q-86 -42 -86 -122q0 -7 5 -42l-60 -20q15 241 359 241h31q-47 -112 -102 -290
q-62 -202 -70 -298z" />
    <glyph glyph-name="S" unicode="S" horiz-adv-x="481" 
d="M140 560l58 27q-33 -49 -33 -93q0 -54 49 -114q31 -36 90 -108q49 -63 49 -124q0 -45 -42 -97q38 4 62 35t24 70q0 64 -53 128q-33 37 -99 112q-53 63 -53 120q0 59 35.5 91.5t95.5 32.5q67 0 131 -39l-25 -63q-32 77 -111 77q-48 0 -77 -29t-29 -77q0 -50 52 -112
q33 -36 96 -111q52 -64 52 -130q0 -57 -39.5 -93t-97.5 -40q-44 -38 -122 -38q-72 0 -126 34q-64 40 -64 108v11l65 50q-10 -32 -10 -51q0 -58 45 -97.5t104 -39.5q58 0 92 37.5t34 96.5q0 60 -46 119q-14 18 -43 52t-43 52q-46 59 -46 120q0 44 25 83z" />
    <glyph glyph-name="T" unicode="T" horiz-adv-x="630" 
d="M94 425l-60 -21q0 79 53 143q68 83 198 83q58 0 173 -4t173 -4q81 0 183 6l-50 -56q-25 -3 -56 -3q-36 0 -109.5 6t-109.5 6q-36 -76 -74 -200q-53 -171 -53 -276q0 -59 20 -105l-40 -7q-10 29 -10 73q0 108 62 302q38 118 78 213h-50q-27 0 -81.5 2t-81.5 2
q-70 0 -115 -22q-60 -29 -60 -91q0 -24 10 -47zM286 0l-78 -10q20 201 173 574h54q-105 -275 -146 -527z" />
    <glyph glyph-name="U" unicode="U" horiz-adv-x="796" 
d="M732 610h-46q-18 -78 -67 -221q-67 -195 -112 -272q-78 -132 -181 -132q-70 0 -107 55q-33 47 -33 120q0 135 92 284q60 97 125 156h-23q-106 0 -174 -28q-97 -40 -97 -131q0 -7 5 -37l-60 -20q0 137 138 198q98 43 256 43q-61 -60 -117 -174q-70 -143 -70 -267
q0 -52 22 -91q26 -48 74 -48q84 0 159 136q39 72 86 208q52 155 71 236h120q-30 -63 -90 -238q-78 -229 -78 -323q0 -29 22 -38q14 -6 44 -6l-5 -20l-152 -5q14 112 80 312q62 187 118 303z" />
    <glyph glyph-name="V" unicode="V" horiz-adv-x="796" 
d="M379 0l-29 -15q44 110 44 253q0 109 -45 212q-57 130 -151 130q-83 0 -114 -114l-13 21q52 143 161 143q103 0 163 -114q49 -93 49 -206q0 -157 -65 -310zM444 0l-27 -15q56 128 56 291q0 130 -38 224q-25 61 -77 125l50 5q85 -164 85 -362q0 -121 -38 -229l2 -2
q33 35 98 105q83 91 138 176q70 108 70 178q0 55 -20 81q-11 14 -40 28l80 55q35 -50 35 -117q0 -145 -240 -399l-124 -131q-3 -3 -10 -13z" />
    <glyph glyph-name="W" unicode="W" horiz-adv-x="1037" 
d="M356 0l-27 -15q13 37 27 73q26 92 26 196q0 105 -38 200q-49 126 -138 126q-52 0 -89 -49q-22 -29 -32 -64l-13 19q48 144 160 144q104 0 161 -115q44 -91 44 -207q0 -97 -37 -203q-8 -20 -44 -105zM423 0l-27 -15q69 138 69 294q0 213 -109 346l40 15q89 -165 89 -345
q0 -120 -51 -259l2 -2q87 93 134 166q61 95 82 192q-46 129 -139 206l56 42q158 -161 158 -406q0 -120 -38 -234l-26 -15q29 83 29 198q0 75 -18 149h-2q-67 -152 -249 -332zM748 0l-22 -15q37 104 37 227q0 261 -139 411l35 17q119 -162 119 -418q0 -94 -19 -174l2 -2
q66 81 121 164q92 139 92 271q0 92 -45 137l64 42q31 -49 31 -120q0 -179 -169 -398q-32 -41 -95 -122q-4 -7 -12 -20z" />
    <glyph glyph-name="X" unicode="X" horiz-adv-x="796" 
d="M445 261v66h-2q-31 -93 -122 -199q-123 -143 -250 -143q-55 0 -94 28q-45 31 -45 84q0 4 2 16l72 47q-14 -34 -14 -52q0 -35 25.5 -56.5t61.5 -21.5q115 0 239 128t124 244q0 71 -31 120q-37 58 -104 58q-17 0 -32 -3l54 63q89 -4 132 -78q36 -61 36 -157q0 -160 10 -236
q12 -90 62 -134q34 -30 73 -30q56 0 104 54l-2 2q-41 -30 -79 -30q-72 0 -109 89q-27 66 -27 150q0 152 71 275q84 145 226 145q30 0 60 -16q36 -20 36 -47l-73 -51l3 18q0 56 -57 56q-115 0 -187 -142q-59 -117 -59 -243q0 -80 24 -138q32 -81 100 -81q66 0 105 67l12 -5
q-56 -123 -181 -123q-93 0 -135 98q-29 70 -29 178z" />
    <glyph glyph-name="Y" unicode="Y" horiz-adv-x="630" 
d="M650 625l-154 -500q-98 -318 -328 -318q-119 0 -161 73l69 44v-7q-1 -5 -1 -7q0 -46 39 -69q32 -19 82 -19q104 0 185 161q46 91 104 290l98 337h-23q-27 -133 -82 -278q-95 -251 -196 -251q-49 0 -68 47q-13 31 -17 113l-8 149q-7 138 -16 167q-14 48 -63 48h-17l6 20
l130 5q10 -65 20 -240l9 -164q3 -51 9 -69q9 -26 36 -26q80 0 167 233q58 155 78 261h102z" />
    <glyph glyph-name="Z" unicode="Z" 
d="M201 152l-71 -22q7 75 118 216q82 104 190 210q-36 0 -109 12t-110 12q-56 0 -103 -24l59 81q23 3 45 3q44 0 130 -17.5t130 -17.5q51 0 94 16l-33 -59q-154 -155 -240 -310q-26 -48 -51 -105q-20 -47 -31 -63q-3 -5 -7 -10q116 -34 159 -34q77 0 150 45l-39 -77
q-49 -23 -96 -23q-67 0 -139 20q-25 8 -76 23q-55 -43 -115 -43q-40 0 -72 15q-42 19 -42 54q0 29 25 47q22 16 53 16q46 0 175 -38q13 14 44 79l58 122q38 76 127 181q53 61 91 95h-8q-6 -1 -9 -1q-2 0 -12 1h-12q-87 -91 -160 -191q-96 -132 -113 -213zM-38 52
q0 -27 35 -41q26 -11 57 -11q49 0 99 34q-23 9 -68 26q-61 22 -88 22q-35 0 -35 -30z" />
    <glyph glyph-name="bracketleft" unicode="[" horiz-adv-x="278" 
d="M396 730l6 -18l-112 -40l-217 -686l73 -99l-16 -10l-112 126l217 688z" />
    <glyph glyph-name="backslash" unicode="\" horiz-adv-x="389" 
d="M371 -121l-65 15q-10 61 -44 232l-57 261q-39 177 -66 253l71 -15q16 -103 42 -227l61 -294q24 -114 58 -225z" />
    <glyph glyph-name="bracketright" unicode="]" horiz-adv-x="278" 
d="M-90 -123l-6 18l112 40l217 686l-73 99l16 10l112 -126l-217 -688z" />
    <glyph glyph-name="asciicircum" unicode="^" 
d="M56 411l204 319h40l209 -319h-49l-180 279l-175 -279h-49z" />
    <glyph glyph-name="underscore" unicode="_" horiz-adv-x="500" 
d="M0 -125v50h500v-50h-500z" />
    <glyph glyph-name="grave" unicode="`" horiz-adv-x="250" 
d="M231 546l-111 76l42 64l80 -126z" />
    <glyph glyph-name="a" unicode="a" horiz-adv-x="519" 
d="M342 268l-10 3q-22 -73 -77 -158q-83 -128 -170 -128q-39 0 -60 33q-19 28 -19 69q0 97 92 219q97 129 190 129q62 0 62 -75q0 -23 -7 -55l9 -2l39 124l74 8q-22 -54 -43 -121l-31 -100q-40 -129 -40 -164q0 -20 19 -20q49 0 145 105q49 54 105 130l-8 -25
q-193 -255 -290 -255q-46 0 -46 52q0 22 17 76zM71 109q0 -29 10 -51q13 -28 38 -28q67 0 137 111q65 102 65 175q0 34 -15 57q-18 27 -51 27q-71 0 -131 -114q-53 -100 -53 -177z" />
    <glyph glyph-name="b" unicode="b" horiz-adv-x="481" 
d="M579 265l-8 -25q-69 -96 -110 -138q-100 -102 -187 -102q-25 0 -63 17q-61 -32 -114 -32q-33 0 -55.5 18.5t-22.5 51.5q0 29 22 98l116 366q35 110 35 144q0 26 -23 34q-11 4 -45 5l5 15l154 13l-182 -577q-17 -54 -17 -86q0 -57 66 -57q29 0 48 18q-54 44 -54 133
q0 84 49 171q58 103 145 103q41 0 65.5 -29t24.5 -71q0 -83 -75 -186q-63 -87 -116 -117q24 -12 45 -12q82 0 185 106q39 40 112 139zM164 171q0 -89 56 -131q57 42 97.5 119t40.5 147q0 89 -61 89q-58 0 -99 -87q-34 -72 -34 -137z" />
    <glyph glyph-name="c" unicode="c" horiz-adv-x="389" 
d="M487 265l-9 -25q-51 -83 -125 -150q-115 -105 -227 -105q-55 0 -86 29.5t-31 83.5q0 107 105 229q93 108 198 108q39 0 93 -20l-27 -62q-40 57 -94 57q-79 0 -145 -109q-60 -99 -60 -181q0 -95 93 -95q144 0 315 240z" />
    <glyph glyph-name="d" unicode="d" horiz-adv-x="519" 
d="M342 270h-7q-34 -88 -79 -158q-82 -127 -167 -127q-40 0 -62 32q-19 27 -19 69q0 97 93 220q97 129 190 129q31 0 47 -27q13 -22 13 -55q0 -13 -5 -48h8l68 214q35 110 35 144q0 26 -23 34q-11 4 -45 5l5 15l154 13l-173 -546q-31 -98 -31 -132q0 -22 20 -22
q71 0 254 235l-8 -25q-193 -255 -295 -255q-41 0 -41 43q0 23 13 65zM73 109q0 -27 12 -48q14 -26 39 -26q60 0 133 109q68 102 68 167q0 34 -17 57q-20 27 -52 27q-65 0 -126 -108q-57 -100 -57 -178z" />
    <glyph glyph-name="e" unicode="e" horiz-adv-x="389" 
d="M486 260l-8 -25q-73 -101 -126 -149q-111 -101 -225 -101q-118 0 -118 113q0 103 91 217q95 120 195 120q63 0 63 -66q0 -70 -71.5 -126.5t-142.5 -56.5q-27 0 -56 8q-14 -45 -14 -80q0 -89 91 -89q96 0 201 97q43 40 120 138zM263 415q-52 0 -107 -78q-32 -46 -56 -102
q46 -29 87 -29q49 0 85 55q31 49 31 101q0 53 -40 53z" />
    <glyph glyph-name="f" unicode="f" horiz-adv-x="278" 
d="M54 429h87l19 59q78 242 239 242q40 0 81 -18l-26 -81q-15 84 -81 84q-81 0 -135 -170l-37 -116h205l-30 -27q-67 7 -146 7h-35l-127 -403q-79 -251 -240 -251q-41 0 -81 19l25 81q15 -85 81 -85q52 0 87 58q26 43 63 160l132 421h-12q-38 0 -92 -7z" />
    <glyph glyph-name="g" unicode="g" horiz-adv-x="519" 
d="M618 265l-8 -25q-59 -81 -123 -147q-100 -102 -165 -104q-33 -90 -72 -138q-78 -96 -201 -96q-67 0 -119 24q-68 31 -68 90q0 83 164 146q-19 29 -19 65q0 100 93 224q98 131 194 131q61 0 61 -77q0 -19 -8 -53h10l38 125l66 5q-26 -71 -57 -175l-74 -245q73 12 163 102
q46 46 125 148zM346 270h-11q-24 -76 -78 -158q-84 -127 -174 -127q-25 0 -45 20q-121 -46 -121 -125q0 -52 50 -83q43 -27 98 -27q82 0 134 77q32 47 64 152zM72 111q0 -76 52 -76q67 0 137 109q65 101 65 174q0 32 -17 54.5t-48 22.5q-67 0 -130 -105q-59 -98 -59 -179z
" />
    <glyph glyph-name="h" unicode="h" horiz-adv-x="519" 
d="M49 510l39 30v-6q0 -56 57 -67q16 45 55 130q77 133 189 133q85 0 85 -74q0 -77 -103 -147q-89 -61 -175 -74l-135 -430h12l57 141q123 289 255 289q28 0 45 -17.5t17 -45.5q0 -19 -14 -63l-49 -154q-23 -72 -23 -102q0 -23 20 -23q45 0 140 106q62 69 102 129l-8 -25
q-46 -69 -110 -140q-104 -115 -165 -115q-20 0 -34.5 12.5t-14.5 32.5q0 26 11 60l66 207q14 44 14 62q0 14 -9.5 25t-23.5 11q-75 0 -173 -185q-49 -92 -93 -210l-89 -15l143 454q-72 5 -88 71zM365 715q-66 0 -112 -116q-16 -46 -49 -139q81 3 149 54q76 57 76 134
q0 29 -18 48t-46 19z" />
    <glyph glyph-name="i" unicode="i" horiz-adv-x="241" 
d="M344 260l-8 -25q-182 -250 -272 -250q-23 0 -36.5 16t-13.5 39q0 17 19 76l38 119q33 103 33 136q0 37 -49 37h-22l5 15l157 12l-76 -239q-35 -110 -35 -135q0 -31 20 -31q46 0 138 102q57 63 102 128zM213 595q-46 0 -46 43q0 48 46 48q45 0 45 -44q0 -20 -12.5 -33.5
t-32.5 -13.5z" />
    <glyph glyph-name="j" unicode="j" horiz-adv-x="222" 
d="M202 435l-130 -407q-44 -137 -87 -197q-55 -76 -134 -76q-61 0 -101 20l31 51q28 -56 90 -56q40 0 70 57q19 37 47 124l90 284q33 104 33 136q0 37 -49 37h-22l5 15zM175 638q0 20 12.5 34t32.5 14q19 0 32.5 -13.5t13.5 -32.5t-13 -32t-32 -13q-18 0 -32 12.5t-14 30.5z
" />
    <glyph glyph-name="k" unicode="k" horiz-adv-x="500" 
d="M8 -15l169 534q35 111 35 144q0 26 -23 34q-11 4 -45 5l5 15l154 13l-230 -724h16q139 429 282 429q28 0 46.5 -21t18.5 -49q0 -110 -177 -139l32 -122q25 -74 56 -74q73 0 244 230l-8 -25q-52 -71 -111 -136q-104 -114 -153 -114q-43 0 -83 114q-24 68 -37 138l25 -3
q60 0 106 26q56 32 56 88q0 52 -45 52q-73 0 -158 -181q-53 -113 -83 -221z" />
    <glyph glyph-name="l" unicode="l" horiz-adv-x="259" 
d="M358 260l-8 -25q-40 -62 -111 -137q-107 -113 -174 -113q-42 0 -42 50q0 14 17 68l131 416q35 111 35 144q0 26 -23 34q-11 4 -45 5l5 15l154 13l-168 -534q-36 -114 -36 -139q0 -27 20 -27q47 0 141 102q66 71 104 128z" />
    <glyph glyph-name="m" unicode="m" horiz-adv-x="778" 
d="M2 -15l82 265q30 97 30 127t-48 30h-19l5 15l151 13l-133 -430h10q158 430 305 430q24 0 40.5 -15.5t16.5 -39.5q0 -26 -21 -94l-87 -281h12q46 134 102 238q104 192 200 192q59 0 59 -58q0 -22 -22 -92l-40 -128q-23 -74 -23 -104q0 -23 20 -23q39 0 130 100
q62 68 106 130l-8 -25q-54 -77 -115 -141q-103 -109 -164 -109q-17 0 -28 13t-11 31q0 23 33 128l44 140q13 41 13 68q0 35 -29 35q-68 0 -161 -178q-60 -116 -95 -222l-92 -15l84 265q28 88 28 114q0 36 -31 36q-71 0 -164 -185q-59 -117 -89 -215z" />
    <glyph glyph-name="n" unicode="n" 
d="M6 -15l82 265q30 97 30 127t-48 30h-19l5 15l151 13l-133 -430h10q158 430 312 430q24 0 40.5 -15.5t16.5 -39.5q0 -28 -21 -94l-41 -129q-23 -72 -23 -104q0 -23 20 -23q38 0 132 100q70 75 109 130l-8 -25q-51 -72 -118 -141q-105 -109 -166 -109q-17 0 -28 13t-11 31
q0 22 33 128l29 93q28 90 28 114q0 36 -31 36q-70 0 -167 -185q-66 -126 -93 -215z" />
    <glyph glyph-name="o" unicode="o" horiz-adv-x="463" 
d="M560 265l-8 -25q-165 -240 -295 -240q-26 0 -58 13q-56 -28 -96 -28q-93 0 -93 109q0 106 94 220q99 121 209 121q46 0 71 -27t25 -73q0 -87 -75 -191q-57 -79 -112 -117q21 -7 37 -7q85 0 187 104q41 41 114 141zM238 396l-2 7q-56 -26 -107 -106q-59 -92 -59 -187
q0 -90 79 -90q7 0 32 5q-52 45 -52 126q0 72 26 136q29 72 83 109zM144 171q0 -93 60 -135q40 31 81 98q54 89 54 173q0 93 -63 93q-58 0 -98 -89q-34 -74 -34 -140z" />
    <glyph glyph-name="p" unicode="p" horiz-adv-x="481" 
d="M-77 -245l148 469q35 111 35 144q0 26 -23 34q-11 4 -45 5l5 15l154 13l-209 -662h16q20 65 61 193q157 469 302 469q33 0 51 -33q14 -27 14 -63q0 -102 -78 -222q-85 -132 -181 -132q-54 0 -75 37l40 33q14 -50 58 -50q65 0 121 121q50 108 50 197q0 62 -36 62
q-91 0 -214 -303q-11 -27 -102 -314z" />
    <glyph glyph-name="q" unicode="q" horiz-adv-x="481" 
d="M336 270h-7q-29 -84 -77 -159q-81 -126 -166 -126q-82 0 -82 102q0 97 93 219q97 129 191 129q28 0 45 -29q14 -23 14 -54q0 -21 -7 -47h7l38 124l70 6q-10 -20 -44 -130l-167 -541l-76 -9q33 81 84 244zM69 109q0 -29 11 -49q14 -25 41 -25q62 0 134 108q67 102 67 169
q0 34 -18.5 58.5t-51.5 24.5q-66 0 -127 -108q-56 -99 -56 -178z" />
    <glyph glyph-name="r" unicode="r" horiz-adv-x="370" 
d="M-2 -15l82 265q30 97 30 127t-48 30h-19l5 15l151 13l-133 -430h12q42 124 97 229q106 201 207 201q11 0 27 -7l-39 -85q-8 18 -13 22q-9 10 -29 10q-72 0 -158 -176q-53 -107 -80 -199z" />
    <glyph glyph-name="s" unicode="s" horiz-adv-x="426" 
d="M527 265l-9 -25q-48 -72 -102 -128q-99 -103 -171 -103q-3 0 -10 1h-10q-42 -25 -83 -25q-63 0 -106 40t-43 103q0 93 102 140l54 -32q-49 -7 -80 -39.5t-31 -81.5q0 -48 33 -81.5t81 -33.5q40 0 64 25.5t24 65.5q0 46 -39 127.5t-39 117.5q0 43 32.5 71t76.5 28
q51 0 91 -40l-32 -55q-13 80 -70 80q-21 0 -34.5 -14.5t-13.5 -35.5q0 -30 44 -118t44 -132q0 -48 -44 -85h8q5 -1 7 -1q85 0 256 231z" />
    <glyph glyph-name="t" unicode="t" horiz-adv-x="259" 
d="M190 409l-40 -127q-62 -197 -62 -223q0 -29 31 -29q42 0 139 106q53 58 102 124q-9 -28 -91 -129q-119 -146 -183 -146q-58 0 -58 66q0 27 13 69l89 289q-55 0 -100 -6l16 26h89q5 14 23 92q1 9 3 24l78 21l-44 -137h167l-14 -26q-64 6 -158 6z" />
    <glyph glyph-name="u" unicode="u" horiz-adv-x="519" 
d="M303 116l95 299l-2 2q-27 -99 -98 -230q-110 -202 -218 -202q-59 0 -59 58q0 37 24 114l29 93q30 96 30 120q0 37 -48 37h-19l5 15l151 13l-95 -309q-17 -55 -17 -71q0 -13 11 -24t24 -11q79 0 178 189q67 128 91 213l80 13l-76 -239q-35 -110 -35 -135q0 -31 20 -31
q46 0 138 102q57 63 102 128l-8 -25q-182 -250 -272 -250q-23 0 -36.5 16t-13.5 39q0 16 19 76z" />
    <glyph glyph-name="v" unicode="v" horiz-adv-x="481" 
d="M584 263l-8 -25q-37 -62 -81 -106q-72 -73 -139 -73q-40 0 -70 27q-108 -101 -181 -101q-48 0 -76 36q-26 32 -26 82q0 66 32 136q21 46 58 100q32 47 32 53q0 18 -27 18q-13 0 -23 -5l7 25l156 5q-53 -56 -97 -127q-68 -110 -68 -192q0 -86 73 -86q55 0 130 69
q-34 51 -34 115q0 71 35 140q41 81 101 81q28 0 43 -25q13 -20 13 -50q0 -118 -139 -267q21 -24 62 -24q99 0 227 194zM257 209q0 -59 28 -101q43 46 71 112t28 126q0 64 -32 64q-38 0 -69 -84q-26 -70 -26 -117z" />
    <glyph glyph-name="w" unicode="w" horiz-adv-x="630" 
d="M734 263l-8 -25q-59 -80 -83 -105q-70 -73 -132 -73q-28 0 -66 20q-76 -95 -140 -95q-41 0 -61 45q-16 35 -16 81h-2q-16 -36 -52 -75q-47 -51 -88 -51q-43 0 -65 40q-18 32 -18 78q0 66 32 136q21 46 58 100q32 47 32 53q0 18 -27 18q-13 0 -23 -5l7 25l156 5
q-54 -57 -99 -127q-71 -111 -71 -192q0 -86 49 -86q40 0 74 49q25 37 36 72q32 106 42 135q25 67 62 129l59 5q-29 -39 -60 -122q-37 -99 -37 -169q0 -31 11 -56q13 -33 40 -33q46 0 91 53q-37 46 -37 121q0 70 35 140q41 81 98 81q53 0 53 -75q0 -61 -54 -158
q-41 -74 -75 -110q16 -18 56 -17q96 3 223 188zM408 209q0 -62 36 -107q34 39 61 100q34 76 34 144q0 64 -37 64q-38 0 -69 -84q-25 -69 -25 -117z" />
    <glyph glyph-name="x" unicode="x" horiz-adv-x="500" 
d="M597 260l-8 -25q-179 -250 -264 -250q-69 0 -80 128q-1 24 -5 73h-2q-116 -201 -205 -201q-39 0 -50 23l50 45q0 -33 28 -33q39 0 106 87q45 58 73 110v67q0 -7 1 22v22q0 42 -20 42q-25 0 -128 -137l8 25q53 79 68 98q62 79 97 79t35 -61q0 -48 -4 -132l2 -2
q23 52 70 110q69 85 128 85q22 0 35 -18l-41 -49q-8 22 -26 22q-43 0 -103 -77q-50 -64 -66 -108q0 -180 58 -180q46 0 137 103q25 28 106 132z" />
    <glyph glyph-name="y" unicode="y" 
d="M640 265l-8 -25q-53 -79 -120 -146q-98 -99 -167 -106q-32 -95 -68 -140q-75 -93 -207 -93q-58 0 -102 22q-56 28 -56 81q0 104 201 171q-13 37 -15 91l-8 179q-3 78 -19 96q-11 13 -61 15l5 20l126 5q4 -20 6 -69l8 -179q4 -79 9 -110q7 -42 29 -42q48 0 125 185
q41 98 74 205l93 10l-130 -415q115 17 285 245zM413 417h-11q-60 -177 -83 -231q-86 -201 -154 -201q-30 0 -47 33q-58 -21 -98 -54q-53 -44 -53 -93q0 -47 44 -74q37 -22 88 -22q73 0 117 60q36 48 71 165z" />
    <glyph glyph-name="z" unicode="z" horiz-adv-x="444" 
d="M34 0l24 49l338 328l-2 2q-123 -23 -160 -23q-49 0 -68 13q-37 -70 -77 -129l8 25q45 83 66 174q33 -33 72 -33q96 0 206 29l-16 -49l-291 -331h90q113 0 155 15l-29 -73q-30 3 -89 3h-227z" />
    <glyph glyph-name="braceleft" unicode="{" 
d="M455 -178v-25q-77 3 -140 47q-71 50 -71 123q0 36 12 96q16 80 16 94q0 44 -34 80q-30 32 -76 47v24q110 35 110 127q0 14 -16 94q-12 60 -12 96q0 73 71 123q63 44 140 47v-25q-49 -11 -78 -48.5t-29 -87.5q0 -28 7 -82.5t7 -81.5q0 -72 -59 -121q-31 -26 -96 -53
q64 -28 96 -55q59 -50 59 -119q0 -27 -7 -81.5t-7 -82.5q0 -50 29 -87.5t78 -48.5z" />
    <glyph glyph-name="bar" unicode="|" horiz-adv-x="333" 
d="M142 -250v1000h50v-1000h-50z" />
    <glyph glyph-name="braceright" unicode="}" 
d="M120 -203v25q49 11 78 48.5t29 87.5q0 28 -7 82.5t-7 81.5q0 69 59 119q32 27 96 55q-65 27 -96 53q-59 49 -59 121q0 27 7 81.5t7 82.5q0 50 -29 87.5t-78 48.5v25q77 -3 140 -47q71 -50 71 -123q0 -36 -12 -96q-16 -80 -16 -94q0 -92 110 -127v-24q-46 -15 -76 -47
q-34 -36 -34 -80q0 -14 16 -94q12 -60 12 -96q0 -73 -71 -123q-63 -44 -140 -47z" />
    <glyph glyph-name="asciitilde" unicode="~" 
d="M32 147v0h-32q4 48 27 85q35 56 102 56q43 0 119 -41l61 -33q65 -35 99 -35q44 0 64 26q11 14 24 65h32q0 -50 -29 -90q-37 -51 -99 -51q-48 0 -120 40l-61 34q-63 35 -99 35q-46 0 -65 -27q-11 -16 -23 -64z" />
    <glyph glyph-name="euro" horiz-adv-x="498" 
d="M522 633l-23 -156l-48 6q0 157 -94 157q-103 0 -161 -211h172l-21 -48h-164q-6 -24 -16 -73h147l-21 -47h-134q-6 -41 -6 -74q0 -56 21 -91q26 -43 78 -43q58 0 101 68q24 38 51 119l55 -10l-54 -188q-77 -53 -159 -53q-111 0 -166 84q-47 71 -47 188h-74l21 47h56
q3 25 12 73h-66l21 48h59q41 112 108 183q83 88 187 88q94 0 165 -67z" />
    <glyph glyph-name="exclamdown" unicode="&#xa1;" horiz-adv-x="352" 
d="M267 550q-19 0 -32 13t-13 32q0 18 13.5 31.5t31.5 13.5t31.5 -13.5t13.5 -31.5q0 -19 -13 -32t-32 -13zM124 7v0l-70 -22q3 57 64 225l86 232l38 21q-19 -51 -87 -288q-31 -108 -31 -168z" />
    <glyph glyph-name="cent" unicode="&#xa2;" 
d="M146 -15l44 139q-50 6 -69 33q-16 23 -16 77q0 80 63 170q67 94 143 105l33 106l33 10l-36 -116q61 -5 84 -38l-28 -46q-10 28 -23 40t-41 19l-104 -329q8 -2 17 -2q34 0 75 22q30 16 46 32l11 -13q-79 -62 -158 -70l-41 -129zM203 166l100 318q-57 -5 -97 -88
q-36 -74 -36 -147q0 -67 33 -83z" />
    <glyph glyph-name="sterling" unicode="&#xa3;" 
d="M12 -5l29 52q84 2 128 116q25 65 33 154h-24q-29 0 -61 -4l13 43q40 -4 61 -4h14q2 26 9 79q11 75 46 127q45 67 124 67q89 0 111 -67l-55 -41v15q0 73 -64 73q-106 0 -106 -207q0 -6 -5 -46h26q66 0 98 4l-13 -43q-41 4 -93 4h-21q-7 -95 -44 -157q-38 -66 -119 -113
l-1 -5q4 0 12.5 1t12.5 1q28 0 83 -4.5t83 -4.5q68 0 116 33l-65 -73q-25 0 -75 2.5t-75 2.5h-39q-46 0 -139 -5z" />
    <glyph glyph-name="currency" unicode="&#xa4;" 
d="M63 118l-30 30l67 67q-47 51 -47 136q0 79 48 138l-70 70l32 31l69 -68q64 46 137 46q72 0 136 -46l69 68l32 -31l-70 -70q48 -49 48 -138q0 -83 -47 -136l67 -67l-30 -30l-66 66q-63 -47 -139 -47q-80 0 -140 47zM94 351q0 -72 51 -122.5t124 -50.5q72 0 123 51t51 122
q0 73 -51 124.5t-123 51.5t-123.5 -51.5t-51.5 -124.5z" />
    <glyph glyph-name="yen" unicode="&#xa5;" 
d="M547 245h-136q-56 -196 -106 -285q-86 -153 -214 -153q-100 0 -136 73l62 44v-15q0 -38 27 -62.5t65 -24.5q95 0 171 168q33 73 77 233l-2 2q-60 -144 -134 -144q-43 0 -58 50q-10 33 -14 114h-137l15 30h120l-3 64h-132l15 30h116l-1 21q-6 134 -15 167q-13 48 -56 48
h-17l6 20l115 5q14 -44 19 -223l1 -38h202q56 187 66 256h56l-73 -256h120l-19 -30h-110l-18 -64h147zM197 339l3 -64h160q8 22 24 64h-187zM201 245l1 -19q3 -48 8 -67q8 -28 31 -28q35 0 70 51q7 11 35 63h-145z" />
    <glyph glyph-name="brokenbar" unicode="&#xa6;" horiz-adv-x="278" 
d="M130 325v350h50v-350h-50zM130 -175v350h50v-350h-50z" />
    <glyph glyph-name="section" unicode="&#xa7;" 
d="M336 483l-9 -255q-5 -131 -24 -189q-27 -82 -93 -82h-7q-4 1 -7 1q-34 -75 -98 -75q-29 0 -49 16.5t-20 45.5l43 22l-3 -17q0 -47 48 -47q36 0 50 50q9 33 12 109l7 205q5 138 21 197q28 101 102 101h5q4 -1 6 -1q30 76 98 76t68 -62l-42 -25q2 12 2 17q0 50 -48 50
q-57 0 -62 -137zM233 407l-8 -225q-5 -155 -23 -209q2 0 5 -1h6q42 0 58 58q9 35 12 113l7 217q4 128 24 190q-48 -5 -67 -52q-12 -31 -14 -91z" />
    <glyph glyph-name="dieresis" unicode="&#xa8;" horiz-adv-x="250" 
d="M130 546q-15 0 -25.5 10.5t-10.5 25.5q0 14 11 25t25 11q36 0 36 -36q0 -15 -10.5 -25.5t-25.5 -10.5zM273 546q-15 0 -25.5 10.5t-10.5 25.5t10.5 25.5t25.5 10.5q36 0 36 -36q0 -15 -10.5 -25.5t-25.5 -10.5z" />
    <glyph glyph-name="copyright" unicode="&#xa9;" horiz-adv-x="500" 
d="M407 475l21 1q-5 -41 -18 -60q-25 -37 -83 -37q-57 0 -93 38.5t-36 95.5q0 53 35.5 98.5t87.5 45.5q17 0 41 -8t30 -8q5 0 17 15h15v-102l-15 -3q-18 45 -25 55q-20 30 -50 30q-71 0 -71 -122q0 -112 74 -112q56 0 70 73zM320 290q-95 0 -164.5 65t-69.5 160t69.5 160
t164.5 65t164.5 -65t69.5 -160t-69.5 -160t-164.5 -65zM121 515q0 -81 59 -135.5t140 -54.5t140 54.5t59 135.5t-58.5 135.5t-140.5 54.5t-140.5 -54.5t-58.5 -135.5z" />
    <glyph glyph-name="ordfeminine" unicode="&#xaa;" 
d="M340 505l-5 2q-12 -46 -60 -112q-65 -89 -133 -89q-29 0 -45.5 20t-16.5 49q0 71 75.5 160.5t144.5 89.5q49 0 49 -56q0 -8 -5 -38l5 -1l30 88l61 7q-7 -12 -33 -87l-25 -72q-32 -92 -32 -116q0 -10 14 -10q59 0 195 163l-4 -18q-148 -179 -228 -179q-37 0 -37 34
q0 19 12 54zM135 391q0 -50 35 -50q49 0 102 75q49 71 49 123q0 61 -46 61q-54 0 -100 -82q-40 -71 -40 -127z" />
    <glyph glyph-name="guillemotleft" unicode="&#xab;" 
d="M241 63l-132 152l219 150l12 -15l-161 -135l73 -144zM378 63l-131 152l218 150l12 -15l-160 -135l72 -144z" />
    <glyph glyph-name="logicalnot" unicode="&#xac;" 
d="M412 140v100h-350v40h400v-140h-50z" />
    <glyph glyph-name="sfthyphen" unicode="&#xad;" horiz-adv-x="338" 
d="M8 174l33 122h246l-33 -122h-246z" />
    <glyph glyph-name="registered" unicode="&#xae;" horiz-adv-x="500" 
d="M204 391v19q24 2 30.5 9t6.5 31v143q0 22 -6.5 27.5t-30.5 8.5v20h122q109 0 109 -65q0 -31 -26 -48q-15 -9 -47 -17q35 -21 48 -60q10 -32 20 -32q16 0 16 33h20q0 -69 -53 -69q-36 0 -49 32q-8 29 -15 57q-14 33 -42 33h-11v-60q0 -27 5.5 -33t32.5 -10v-19h-130z
M296 591v-57h21q57 0 57 45q0 50 -43 50q-23 0 -29 -8.5t-6 -29.5zM320 290q-95 0 -164.5 65t-69.5 160t69.5 160t164.5 65t164.5 -65t69.5 -160t-69.5 -160t-164.5 -65zM121 515q0 -81 59 -135.5t140 -54.5t140 54.5t59 135.5t-59 135.5t-140 54.5t-140 -54.5t-59 -135.5z
" />
    <glyph glyph-name="macron" unicode="&#xaf;" horiz-adv-x="250" 
d="M90 546l13 40h193l-12 -40h-194z" />
    <glyph glyph-name="macron" unicode="&#x2c9;" horiz-adv-x="250" 
d="M90 546l13 40h193l-12 -40h-194z" />
    <glyph glyph-name="degree" unicode="&#xb0;" 
d="M294 346q-58 0 -98.5 40.5t-40.5 98.5t40.5 99t98.5 41q61 0 100.5 -39.5t39.5 -100.5q0 -58 -41 -98.5t-99 -40.5zM185 485q0 -46 31.5 -77.5t77.5 -31.5q47 0 78.5 31t31.5 78q0 46 -32 78t-78 32t-77.5 -32t-31.5 -78z" />
    <glyph glyph-name="plusminus" unicode="&#xb1;" 
d="M237 35v155h-175v40h175v205h50v-205h175v-40h-175v-155h-50zM62 -55v40h400v-40h-400z" />
    <glyph glyph-name="twosuperior" unicode="&#xb2;" horiz-adv-x="333" 
d="M37 252l10 33l162 146q66 59 66 102q0 25 -21 38.5t-47 13.5q-42 0 -76 -17l-6 21q49 21 102 21q40 0 71.5 -21t31.5 -60q0 -45 -82 -108l-115 -88q-30 -23 -50 -43h87q78 0 129 8l-21 -46q-22 3 -72 3h-95q-12 0 -37 -1.5t-37 -1.5z" />
    <glyph glyph-name="threesuperior" unicode="&#xb3;" horiz-adv-x="333" 
d="M151 578l-6 19q32 13 69 13q103 0 103 -69q0 -37 -42 -62q-32 -19 -70 -23v-2q90 -31 90 -99q0 -51 -53 -81q-44 -26 -99 -26q-38 0 -80 15l10 20q41 -15 68 -15q41 0 72.5 23.5t31.5 62.5q0 75 -126 88l15 26q24 -4 36 -4q40 0 68.5 19.5t28.5 57.5q0 49 -59 49
q-21 0 -57 -12z" />
    <glyph glyph-name="acute" unicode="&#xb4;" horiz-adv-x="250" 
d="M177 546l-10 14l170 124l15 -61z" />
    <glyph glyph-name="mu" unicode="&#xb5;" horiz-adv-x="519" 
d="M-77 -245l151 495q30 98 30 120q0 37 -48 37h-19l5 15l151 13l-100 -327q-11 -36 -11 -53q4 -35 34 -35q79 0 178 189q67 128 91 213l80 13l-76 -239q-35 -110 -35 -135q0 -31 20 -31q46 0 138 102q57 63 102 128l-8 -25q-182 -250 -272 -250q-23 0 -36.5 16t-13.5 39
q0 16 19 76l95 299l-2 2q-27 -99 -98 -230q-110 -202 -218 -202q-22 0 -22 10h-2l-67 -230z" />
    <glyph glyph-name="mu" unicode="&#x3bc;" horiz-adv-x="519" 
d="M-77 -245l151 495q30 98 30 120q0 37 -48 37h-19l5 15l151 13l-100 -327q-11 -36 -11 -53q4 -35 34 -35q79 0 178 189q67 128 91 213l80 13l-76 -239q-35 -110 -35 -135q0 -31 20 -31q46 0 138 102q57 63 102 128l-8 -25q-182 -250 -272 -250q-23 0 -36.5 16t-13.5 39
q0 16 19 76l95 299l-2 2q-27 -99 -98 -230q-110 -202 -218 -202q-22 0 -22 10h-2l-67 -230z" />
    <glyph glyph-name="paragraph" unicode="&#xb6;" 
d="M326 -174v437q-82 10 -142 57q-79 62 -79 170q0 118 94 183q82 57 205 57h115v-37h-58v-867h-37v867h-61v-867h-37z" />
    <glyph glyph-name="ch270" unicode="&#xb7;" horiz-adv-x="249" 
d="M38 348q0 34 23 57t57 23t57.5 -23t23.5 -57t-23.5 -57.5t-57.5 -23.5t-57 23.5t-23 57.5z" />
    <glyph glyph-name="ch270" unicode="&#x2219;" horiz-adv-x="249" 
d="M38 348q0 34 23 57t57 23t57.5 -23t23.5 -57t-23.5 -57.5t-57.5 -23.5t-57 23.5t-23 57.5z" />
    <glyph glyph-name="cedilla" unicode="&#xb8;" horiz-adv-x="250" 
d="M118 -10l-17 -22q35 -23 35 -50q0 -24 -21.5 -37t-46.5 -13q-12 0 -36 4l4 12q3 0 6 -1h6q48 0 48 32q0 21 -34 35l33 40h23z" />
    <glyph glyph-name="onesuperior" unicode="&#xb9;" horiz-adv-x="333" 
d="M134 450l-15 43l133 106l51 11q-28 -70 -45 -125l-38 -123q-21 -69 -28 -107l-53 -7q14 37 43 123l61 194l-2 2l-25 -25q-56 -56 -82 -92z" />
    <glyph glyph-name="ordmasculine" unicode="&#xba;" 
d="M541 503l-5 -18q-129 -172 -227 -172q-22 0 -51 11q-36 -18 -74 -18q-72 0 -72 74q0 82 78 163.5t159 81.5q75 0 75 -73q0 -63 -58 -135q-43 -54 -88 -82q14 -7 32 -7q95 0 231 175zM290 597l-2 5q-42 -19 -81 -76q-45 -67 -45 -135q0 -65 58 -65q14 0 24 6
q-46 30 -46 88q0 52 25 101t67 76zM218 435q0 -61 47 -93q30 22 59 68q40 63 40 123q0 67 -44 67q-42 0 -74 -64q-28 -54 -28 -101z" />
    <glyph glyph-name="guillemotright" unicode="&#xbb;" 
d="M61 63l-12 15l160 135l-72 144l11 8l131 -152zM198 63l-12 15l161 135l-73 144l11 8l132 -152z" />
    <glyph glyph-name="onequarter" unicode="&#xbc;" horiz-adv-x="759" 
d="M192 255l-53 -7q14 37 43 123l61 194l-2 2l-25 -25q-58 -58 -82 -91l-15 42l133 106l51 11q-28 -70 -45 -125l-38 -123q-21 -69 -28 -107zM211 0l-77 -15q127 259 491 640l17 -15q-122 -114 -251 -293q-136 -188 -180 -317zM562 0l-50 -5q14 39 43 124h-73q-45 0 -70 -7
l-9 11q120 112 142 210l58 24q-39 -73 -69 -113q-19 -26 -82 -95h112l61 195l48 11l-69 -206h25q37 0 62 4l-19 -37q-18 3 -44 3h-33q-16 -49 -33 -119z" />
    <glyph glyph-name="onehalf" unicode="&#xbd;" horiz-adv-x="759" 
d="M192 255l-53 -7q14 37 43 123l61 194l-2 2l-25 -25q-58 -58 -82 -91l-15 42l133 106l51 11q-28 -70 -45 -125l-38 -123q-21 -69 -28 -107zM211 0l-77 -15q127 259 491 640l17 -15q-122 -114 -251 -293q-136 -188 -180 -317zM369 -3l10 33l162 146q66 59 66 102
q0 25 -21 38.5t-47 13.5q-42 0 -76 -17l-6 21q49 21 102 21q40 0 71.5 -21t31.5 -60q0 -45 -82 -108l-115 -88q-30 -23 -50 -43h87q78 0 129 8l-21 -46q-22 3 -72 3h-95q-12 0 -37 -1.5t-37 -1.5z" />
    <glyph glyph-name="threequarters" unicode="&#xbe;" horiz-adv-x="759" 
d="M582 0l-50 -5q14 39 43 124h-73q-45 0 -70 -7l-9 11q120 112 142 210l58 24q-39 -73 -69 -113q-19 -26 -82 -95h112l61 195l48 11l-69 -206h25q37 0 62 4l-19 -37q-18 3 -44 3h-33q-16 -49 -33 -119zM233 0l-77 -15q127 259 491 640l17 -15q-122 -114 -251 -293
q-136 -188 -180 -317zM151 578l-6 19q32 13 69 13q103 0 103 -69q0 -37 -42 -62q-32 -19 -70 -23v-2q90 -31 90 -99q0 -51 -53 -81q-44 -26 -99 -26q-38 0 -80 15l10 20q41 -15 68 -15q41 0 72.5 23.5t31.5 62.5q0 75 -126 88l15 26q24 -4 36 -4q40 0 68.5 19.5t28.5 57.5
q0 49 -59 49q-21 0 -57 -12z" />
    <glyph glyph-name="questiondown" unicode="&#xbf;" horiz-adv-x="426" 
d="M269 32l9 -18q-52 -29 -107 -29q-58 0 -93 27q-39 30 -39 86q0 65 65 112q40 26 120 81q65 48 65 113q0 36 -21 73l55 15q6 -19 6 -42q0 -80 -60 -145l-110 -98q-60 -55 -60 -115q0 -39 23.5 -63t62.5 -24q34 0 84 27zM340 550q-18 0 -31.5 13.5t-13.5 31.5q0 19 13 32
t32 13t32 -13t13 -32q0 -18 -13.5 -31.5t-31.5 -13.5z" />
    <glyph glyph-name="Agrave" unicode="&#xc0;" horiz-adv-x="796" 
d="M697 688l-8 -11l-149 65l13 52zM747 647q-28 -60 -52 -148q-35 -126 -35 -227q0 -114 38 -176l-25 -24q-33 73 -33 175q0 139 82 381l-33 -6q-84 -242 -84 -423q0 -119 22 -153q18 -28 79 -30l-5 -16l-137 -4q-19 63 -19 166q0 51 4 92h-168l-27 -49q-55 -99 -93 -141
q-72 -79 -164 -79q-55 0 -96 28q-45 32 -45 85q0 176 361 176h47q152 237 274 348zM626 590l-2 2q-147 -167 -232 -318h158q16 149 76 316zM351 254h-53q-292 0 -292 -140q0 -48 33 -76t82 -28q69 0 121 61q33 39 90 147z" />
    <glyph glyph-name="Aacute" unicode="&#xc1;" horiz-adv-x="796" 
d="M381 254l-27 -49q-55 -99 -93 -141q-72 -79 -164 -79q-55 0 -96 28q-45 32 -45 85q0 176 361 176h47q152 237 274 348l109 25q-28 -60 -52 -148q-35 -126 -35 -227q0 -114 38 -176l-25 -24q-33 73 -33 175q0 139 82 381l-33 -6q-84 -242 -84 -423q0 -119 22 -153
q18 -28 79 -30l-5 -16l-137 -4q-19 63 -19 166q0 51 4 92h-168zM351 254h-53q-292 0 -292 -140q0 -48 33 -76t82 -28q69 0 121 61q33 39 90 147zM392 274h158q16 149 76 316l-2 2q-147 -167 -232 -318zM689 677l-8 11l144 106l13 -52z" />
    <glyph glyph-name="Acircumflex" unicode="&#xc2;" horiz-adv-x="796" 
d="M381 254l-27 -49q-55 -99 -93 -141q-72 -79 -164 -79q-55 0 -96 28q-45 32 -45 85q0 176 361 176h47q152 237 274 348l109 25q-28 -60 -52 -148q-35 -126 -35 -227q0 -114 38 -176l-25 -24q-33 73 -33 175q0 139 82 381l-33 -6q-84 -242 -84 -423q0 -119 22 -153
q18 -28 79 -30l-5 -16l-137 -4q-19 63 -19 166q0 51 4 92h-168zM351 254h-53q-292 0 -292 -140q0 -48 33 -76t82 -28q69 0 121 61q33 39 90 147zM392 274h158q16 149 76 316l-2 2q-147 -167 -232 -318zM587 647l-9 12l165 109l55 -112l-14 -9l-62 65z" />
    <glyph glyph-name="Atilde" unicode="&#xc3;" horiz-adv-x="796" 
d="M381 254l-27 -49q-55 -99 -93 -141q-72 -79 -164 -79q-55 0 -96 28q-45 32 -45 85q0 176 361 176h47q152 237 274 348l109 25q-28 -60 -52 -148q-35 -126 -35 -227q0 -114 38 -176l-25 -24q-33 73 -33 175q0 139 82 381l-33 -6q-84 -242 -84 -423q0 -119 22 -153
q18 -28 79 -30l-5 -16l-137 -4q-19 63 -19 166q0 51 4 92h-168zM351 254h-53q-292 0 -292 -140q0 -48 33 -76t82 -28q69 0 121 61q33 39 90 147zM392 274h158q16 149 76 316l-2 2q-147 -167 -232 -318zM606 672l-8 7q16 20 32 41q24 25 50 24q18 -1 41 -17q20 -18 38 -19
t57 38l10 -8q-51 -62 -87 -61q-11 0 -39 18t-41 19q-16 1 -31 -14q-1 -1 -22 -28z" />
    <glyph glyph-name="Adieresis" unicode="&#xc4;" horiz-adv-x="796" 
d="M381 254l-27 -49q-55 -99 -93 -141q-73 -79 -164 -79q-55 0 -95 28q-46 32 -46 85q0 176 361 176h47q152 237 274 348l109 25q-28 -61 -52 -148q-35 -126 -35 -227q0 -114 38 -176l-25 -24q-33 73 -33 175q0 139 82 381l-33 -6q-84 -242 -84 -423q0 -119 22 -153
q18 -28 79 -30l-5 -16l-137 -4q-19 63 -19 166q0 51 4 92h-168zM351 254h-53q-292 0 -292 -140q0 -48 33.5 -76t81.5 -28q69 0 121 61q32 38 90 147zM392 274h158q16 149 76 316l-2 2q-147 -167 -232 -318zM603 711q-15 0 -25.5 10.5t-10.5 25.5q0 14 11 25t25 11
q36 0 36 -36q0 -15 -10.5 -25.5t-25.5 -10.5zM746 711q-15 0 -25.5 10.5t-10.5 25.5t10.5 25.5t25.5 10.5q36 0 36 -36q0 -15 -10.5 -25.5t-25.5 -10.5z" />
    <glyph glyph-name="Aring" unicode="&#xc5;" horiz-adv-x="796" 
d="M381 254l-27 -49q-55 -99 -93 -141q-73 -79 -164 -79q-55 0 -95 28q-46 32 -46 85q0 176 361 176h47q152 237 274 348l109 25q-28 -61 -52 -148q-35 -126 -35 -227q0 -114 38 -176l-25 -24q-33 73 -33 175q0 139 82 381l-33 -6q-84 -242 -84 -423q0 -119 22 -153
q18 -28 79 -30l-5 -16l-137 -4q-19 63 -19 166q0 51 4 92h-168zM351 254h-53q-292 0 -292 -140q0 -48 33.5 -76t81.5 -28q69 0 121 61q32 38 90 147zM392 274h158q16 149 76 316l-2 2q-147 -167 -232 -318zM650 696q-72 0 -72 59q0 48 34.5 81t82.5 33q78 0 78 -60
q0 -49 -36.5 -81t-86.5 -32zM613 755q0 -49 41 -49q39 0 63 35q21 32 21 72q0 46 -45 46q-35 0 -57.5 -33.5t-22.5 -70.5z" />
    <glyph glyph-name="AE" unicode="&#xc6;" horiz-adv-x="926" 
d="M536 249h-160q-49 -100 -88 -150q-90 -114 -196 -114q-56 0 -96 28q-44 32 -44 86q0 165 403 170q70 120 128 192q83 104 184 171q95 -13 268 -13q74 0 127 16q-23 -27 -57 -66h-10q-50 0 -234 23q-41 -77 -91 -236h162l-34 -35q-35 15 -85 15h-50q-33 -132 -33 -214
q0 -25 5 -57q54 -25 120 -25q65 0 119 19l-55 -58q-28 -6 -58 -6q-97 0 -159 35q0 7 -1 19.5t-1 19.5q0 121 64 316q39 119 81 210h-31q-34 -68 -79 -208q-69 -217 -86 -357q12 -10 38 -30l-115 -10q7 96 64 259zM2 109q0 -45 40 -74q35 -25 82 -25q56 0 107 50
q39 39 72 103q14 29 43 86q-344 -5 -344 -140zM389 269h155q59 181 126 341l-2 2q-167 -124 -279 -343z" />
    <glyph glyph-name="Ccedilla" unicode="&#xc7;" horiz-adv-x="574" 
d="M222 -50l30 37q-206 11 -206 211q0 154 112 293q120 149 280 149q95 0 195 -50l-40 -94q-41 119 -144 119q-101 0 -175 -124q-65 -108 -65 -217q0 -58 22 -100q27 -54 80 -54q20 0 40 12l-42 -47q-63 2 -94 58q-26 46 -26 114q0 137 76 248q65 96 135 113l-2 4
q-117 -2 -203 -157q-74 -135 -74 -262q0 -87 53.5 -137.5t140.5 -50.5q98 0 203 58l-14 -35q-28 -11 -83 -31q-65 -22 -144 -22h-3l-13 -17q35 -23 35 -50q0 -24 -21.5 -37t-46.5 -13q-12 0 -36 4l4 12q3 0 6 -1h6q48 0 48 32q0 21 -34 35z" />
    <glyph glyph-name="Egrave" unicode="&#xc8;" horiz-adv-x="685" 
d="M628 59l-55 -58q-28 -6 -58 -6q-119 0 -189 35q0 7 -1 19.5t-1 19.5q0 121 64 316q39 119 81 210q-50 10 -91 10q-102 0 -171 -30q-95 -41 -95 -130q0 -14 10 -40l-60 -20q10 143 141 200q92 40 258 40q37 0 110.5 -3t110.5 -3q74 0 127 16q-23 -27 -57 -66h-10
q-58 0 -257 23q-41 -77 -91 -236h192l-34 -35q-46 15 -115 15h-50q-33 -132 -33 -214q0 -25 5 -57q64 -25 153 -25q62 0 116 19zM323 0l-130 -10q9 97 78 305q49 148 106 289h55q-61 -165 -92 -263q-56 -176 -68 -289q17 -13 51 -32zM579 676l-8 -11l-149 65l13 52z" />
    <glyph glyph-name="Eacute" unicode="&#xc9;" horiz-adv-x="685" 
d="M628 59l-55 -58q-28 -6 -58 -6q-119 0 -189 35q0 7 -1 19.5t-1 19.5q0 121 64 316q39 119 81 210q-50 10 -91 10q-102 0 -171 -30q-95 -41 -95 -130q0 -14 10 -40l-60 -20q10 143 141 200q92 40 258 40q37 0 110.5 -3t110.5 -3q74 0 127 16q-23 -27 -57 -66h-10
q-58 0 -257 23q-41 -77 -91 -236h192l-34 -35q-46 15 -115 15h-50q-33 -132 -33 -214q0 -25 5 -57q64 -25 153 -25q62 0 116 19zM323 0l-130 -10q9 97 78 305q49 148 106 289h55q-61 -165 -92 -263q-56 -176 -68 -289q17 -13 51 -32zM571 665l-8 11l144 106l13 -52z" />
    <glyph glyph-name="Ecircumflex" unicode="&#xca;" horiz-adv-x="685" 
d="M628 59l-55 -58q-28 -6 -58 -6q-119 0 -189 35q0 7 -1 19.5t-1 19.5q0 121 64 316q39 119 81 210q-50 10 -91 10q-102 0 -171 -30q-95 -41 -95 -130q0 -14 10 -40l-60 -20q10 143 141 200q92 40 258 40q37 0 110.5 -3t110.5 -3q74 0 127 16q-23 -27 -57 -66h-10
q-58 0 -257 23q-41 -77 -91 -236h192l-34 -35q-46 15 -115 15h-50q-33 -132 -33 -214q0 -25 5 -57q64 -25 153 -25q62 0 116 19zM323 0l-130 -10q9 97 78 305q49 148 106 289h55q-61 -165 -92 -263q-56 -176 -68 -289q17 -13 51 -32zM484 647l-9 12l165 109l55 -112l-14 -9
l-62 65z" />
    <glyph glyph-name="Edieresis" unicode="&#xcb;" horiz-adv-x="685" 
d="M628 59l-55 -58q-28 -6 -58 -6q-119 0 -189 35q0 7 -1 19.5t-1 19.5q0 121 64 316q39 119 81 210q-50 10 -91 10q-102 0 -171 -30q-95 -41 -95 -130q0 -14 10 -40l-60 -20q10 142 140 200q93 40 259 40q37 0 110.5 -3t110.5 -3q74 0 127 16q-23 -27 -57 -66h-10
q-58 0 -257 23q-41 -77 -91 -236h192l-34 -35q-46 15 -115 15h-50q-33 -132 -33 -214q0 -25 5 -57q64 -25 153 -25q62 0 116 19zM323 0l-130 -10q9 98 78 305q48 145 106 289h55q-58 -157 -92 -263q-56 -178 -68 -289q17 -13 51 -32zM488 711q-15 0 -25.5 10.5t-10.5 25.5
q0 14 11 25t25 11q36 0 36 -36q0 -15 -10.5 -25.5t-25.5 -10.5zM631 711q-15 0 -25.5 10.5t-10.5 25.5t10.5 25.5t25.5 10.5q36 0 36 -36q0 -15 -10.5 -25.5t-25.5 -10.5z" />
    <glyph glyph-name="Igrave" unicode="&#xcc;" horiz-adv-x="500" 
d="M264 0l-78 -10q0 90 83 328q64 183 110 280q-20 2 -33 2q-90 0 -156 -32q-86 -42 -86 -122q0 -7 5 -42l-60 -20q10 142 128 199q87 42 248 42h65q0 -4 -24 -61q-121 -288 -121 -480q0 -53 20 -84l-41 -10q-8 22 -8 76q0 113 64 316q51 163 86 228h-33q-44 -112 -94 -272
q-66 -213 -72 -301q-1 -19 -3 -37zM441 676l-8 -11l-149 65l13 52z" />
    <glyph glyph-name="Iacute" unicode="&#xcd;" horiz-adv-x="510" 
d="M264 0l-78 -10q0 90 83 328q64 183 110 280q-20 2 -33 2q-90 0 -156 -32q-86 -42 -86 -122q0 -7 5 -42l-60 -20q10 142 128 199q87 42 248 42h65q0 -4 -24 -61q-121 -288 -121 -480q0 -53 20 -84l-41 -10q-8 22 -8 76q0 113 64 316q51 163 86 228h-33q-44 -112 -94 -272
q-66 -213 -72 -301q-1 -19 -3 -37zM433 666l-8 11l144 106l13 -52z" />
    <glyph glyph-name="Icircumflex" unicode="&#xce;" horiz-adv-x="500" 
d="M264 0l-78 -10q0 91 83 328q63 181 110 280q-20 2 -33 2q-90 0 -156 -32q-86 -42 -86 -122q0 -7 5 -42l-60 -20q10 142 128 199q86 42 248 42h65q0 -3 -24 -61q-31 -73 -54 -140q-67 -191 -67 -340q0 -53 20 -84l-41 -10q-8 22 -8 76q0 112 64 316q52 164 86 228h-33
q-44 -111 -94 -272q-66 -213 -72 -301q-1 -16 -3 -37zM333 711l-9 12l165 129l55 -132l-14 -9l-62 75z" />
    <glyph glyph-name="Idieresis" unicode="&#xcf;" horiz-adv-x="500" 
d="M264 0l-78 -10q0 91 83 328q63 181 110 280q-20 2 -33 2q-90 0 -156 -32q-86 -42 -86 -122q0 -7 5 -42l-60 -20q10 142 128 199q86 42 248 42h65q0 -3 -24 -61q-31 -73 -54 -140q-67 -191 -67 -340q0 -53 20 -84l-41 -10q-8 22 -8 76q0 112 64 316q52 164 86 228h-33
q-44 -111 -94 -272q-66 -213 -72 -301q-1 -16 -3 -37zM365 711q-15 0 -25.5 10.5t-10.5 25.5q0 14 11 25t25 11q36 0 36 -36q0 -15 -10.5 -25.5t-25.5 -10.5zM508 711q-15 0 -25.5 10.5t-10.5 25.5t10.5 25.5t25.5 10.5q36 0 36 -36q0 -15 -10.5 -25.5t-25.5 -10.5z" />
    <glyph glyph-name="Eth" unicode="&#xd0;" horiz-adv-x="889" 
d="M320 0l-130 -10q8 99 78 305h-89l10 30h89q49 145 96 259h55q-30 -81 -91 -259h27q44 139 81 205l46 11q-57 -46 -109 -216h116l-10 -30h-115q-28 -105 -28 -168q0 -122 129 -122q134 0 221 117q79 107 79 245q0 238 -353 238q-315 0 -315 -163q0 -21 10 -40l-60 -19
q0 242 419 242q374 0 374 -252q0 -149 -116.5 -268.5t-264.5 -119.5q-68 0 -105.5 37t-37.5 105q0 75 30 168h-28q-48 -157 -59 -263q17 -13 51 -32z" />
    <glyph glyph-name="Ntilde" unicode="&#xd1;" horiz-adv-x="852" 
d="M250 0l-60 -10q10 104 81 315q63 189 115 295h-11q-101 0 -170 -29q-95 -41 -95 -128q0 -7 5 -37l-60 -21q0 227 379 240q16 -124 76 -273q57 -143 132 -252h2q0 13 4 37q-70 99 -121 230q-54 136 -65 252l35 16l-3 -32q0 -117 66 -270q40 -94 92 -173q34 159 92 291
q110 249 259 249q32 0 58 -14q31 -16 34 -45l-75 -43q0 4 2.5 12.5t2.5 12.5q0 18 -14 30t-32 12q-92 0 -175 -157q-63 -118 -110 -307q-38 -151 -40 -211q-86 91 -166 262q-68 146 -103 285h-2q-29 -70 -76 -233q-60 -206 -60 -282q0 -4 3 -22zM545 711v0l-11 7
q34 65 84 65q20 0 51.5 -18.5t46.5 -18.5q26 0 53 38l13 -8q-32 -65 -79 -65q-16 0 -49 18.5t-50 18.5q-29 0 -59 -37z" />
    <glyph glyph-name="Ograve" unicode="&#xd2;" horiz-adv-x="685" 
d="M254 -15q-97 0 -152 57t-55 154q0 155 111 295q118 149 269 149q97 0 153.5 -54t56.5 -151q0 -159 -110 -300q-118 -150 -273 -150zM311 87q-61 0 -95 56q-29 47 -29 112q0 95 50 197q61 125 164 168l-2 5q-117 -10 -200 -166q-72 -136 -72 -265q0 -77 29 -129
q36 -65 107 -65q132 0 222 155q77 133 77 274q0 70 -25 123q-32 68 -95 68q-93 0 -163 -127q-60 -109 -60 -211q0 -57 19 -99q25 -56 75 -56q22 0 56 24zM435 691l-8 -11l-149 65l13 52z" />
    <glyph glyph-name="Oacute" unicode="&#xd3;" horiz-adv-x="685" 
d="M254 -15q-97 0 -152 57t-55 154q0 155 111 295q118 149 269 149q97 0 153.5 -54t56.5 -151q0 -159 -110 -300q-118 -150 -273 -150zM311 87q-61 0 -95 56q-29 47 -29 112q0 95 50 197q61 125 164 168l-2 5q-117 -10 -200 -166q-72 -136 -72 -265q0 -77 29 -129
q36 -65 107 -65q132 0 222 155q77 133 77 274q0 70 -25 123q-32 68 -95 68q-93 0 -163 -127q-60 -109 -60 -211q0 -57 19 -99q25 -56 75 -56q22 0 56 24zM427 680l-8 11l144 106l13 -52z" />
    <glyph glyph-name="Ocircumflex" unicode="&#xd4;" horiz-adv-x="685" 
d="M254 -15q-97 0 -152 57t-55 154q0 155 111 295q118 149 269 149q97 0 153.5 -54t56.5 -151q0 -159 -110 -300q-118 -150 -273 -150zM311 87q-61 0 -95 56q-29 47 -29 112q0 95 50 197q61 125 164 168l-2 5q-117 -10 -200 -166q-72 -136 -72 -265q0 -77 29 -129
q36 -65 107 -65q132 0 222 155q77 133 77 274q0 70 -25 123q-32 68 -95 68q-93 0 -163 -127q-60 -109 -60 -211q0 -57 19 -99q25 -56 75 -56q22 0 56 24zM328 647l-9 12l165 109l55 -112l-14 -9l-62 65z" />
    <glyph glyph-name="Otilde" unicode="&#xd5;" horiz-adv-x="685" 
d="M254 -15q-97 0 -152 57t-55 154q0 155 111 295q118 149 269 149q97 0 153.5 -54t56.5 -151q0 -159 -110 -300q-118 -150 -273 -150zM311 87q-61 0 -95 56q-29 47 -29 112q0 95 50 197q61 125 164 168l-2 5q-117 -10 -200 -166q-72 -136 -72 -265q0 -77 29 -129
q36 -65 107 -65q132 0 222 155q77 133 77 274q0 70 -25 123q-32 68 -95 68q-93 0 -163 -127q-60 -109 -60 -211q0 -57 19 -99q25 -56 75 -56q22 0 56 24zM360 678l-8 7q16 20 32 41q24 25 50 24q18 -1 41 -17q20 -18 38 -19t57 38l10 -8q-51 -62 -87 -61q-11 0 -39 18
t-41 19q-16 1 -31 -14q-1 -1 -22 -28z" />
    <glyph glyph-name="Odieresis" unicode="&#xd6;" horiz-adv-x="685" 
d="M254 -15q-97 0 -152 57t-55 154q0 155 111 295q118 149 269 149q97 0 153.5 -54t56.5 -151q0 -159 -113 -301q-119 -149 -270 -149zM311 87q-60 0 -95 56q-29 48 -29 112q0 95 50 197q61 125 164 168l-2 5q-117 -10 -200 -166q-72 -136 -72 -265q0 -77 29 -129
q36 -65 107 -65q132 0 222 155q77 133 77 274q0 69 -25 123q-33 68 -95 68q-93 0 -163 -127q-60 -110 -60 -211q0 -58 19 -99q25 -56 75 -56q22 0 56 24zM378 711q-15 0 -25.5 10.5t-10.5 25.5q0 14 11 25t25 11q36 0 36 -36q0 -15 -10.5 -25.5t-25.5 -10.5zM521 711
q-15 0 -25.5 10.5t-10.5 25.5t10.5 25.5t25.5 10.5q36 0 36 -36q0 -15 -10.5 -25.5t-25.5 -10.5z" />
    <glyph glyph-name="multiply" unicode="&#xd7;" 
d="M96 -15l-36 32l172 193l-169 192l35 33l166 -189l170 189l34 -33l-171 -192l170 -193l-35 -32l-168 189z" />
    <glyph glyph-name="Oslash" unicode="&#xd8;" horiz-adv-x="685" 
d="M254 -15q-120 0 -174 85l-38 -34q-14 -14 -52 -51h-50q26 19 91 77l36 32q-20 41 -20 102q0 155 111 295q118 149 269 149q126 0 181 -87l14 11q26 26 78 76h51q-24 -17 -88 -75l-41 -37q15 -51 15 -93q0 -159 -113 -301q-119 -149 -270 -149zM311 87q-60 0 -95 56
q-29 48 -29 112q0 95 50 197q61 125 164 168l-2 5q-117 -10 -200 -166q-72 -136 -72 -265q0 -77 29 -129q36 -65 107 -65q132 0 222 155q77 133 77 274q0 69 -25 123q-33 68 -95 68q-93 0 -163 -127q-60 -110 -60 -211q0 -58 19 -99q25 -56 75 -56q22 0 56 24z" />
    <glyph glyph-name="Ugrave" unicode="&#xd9;" horiz-adv-x="796" 
d="M732 610h-46q-18 -79 -67 -221q-67 -196 -112 -272q-78 -132 -181 -132q-69 0 -107 55q-33 48 -33 120q0 135 92 284q60 97 125 156h-23q-106 0 -174 -28q-97 -40 -97 -131q0 -7 5 -37l-60 -20q0 138 138 198q98 43 256 43q-61 -60 -117 -174q-70 -143 -70 -267
q0 -52 22 -91q26 -48 74 -48q84 0 159 136q40 73 86 208q50 148 71 236h120q-31 -65 -90 -238q-78 -228 -78 -323q0 -44 66 -44l-5 -20l-152 -5q14 113 80 312q62 186 118 303zM566 656l-8 -11l-149 65l13 52z" />
    <glyph glyph-name="Uacute" unicode="&#xda;" horiz-adv-x="796" 
d="M732 610h-46q-18 -79 -67 -221q-67 -196 -112 -272q-78 -132 -181 -132q-69 0 -107 55q-33 48 -33 120q0 135 92 284q60 97 125 156h-23q-106 0 -174 -28q-97 -40 -97 -131q0 -7 5 -37l-60 -20q0 138 138 198q98 43 256 43q-61 -60 -117 -174q-70 -143 -70 -267
q0 -52 22 -91q26 -48 74 -48q84 0 159 136q40 73 86 208q50 148 71 236h120q-31 -65 -90 -238q-78 -228 -78 -323q0 -44 66 -44l-5 -20l-152 -5q14 113 80 312q62 186 118 303zM558 645l-8 11l144 106l13 -52z" />
    <glyph glyph-name="Ucircumflex" unicode="&#xdb;" horiz-adv-x="796" 
d="M732 610h-46q-18 -78 -67 -221q-67 -195 -112 -272q-78 -132 -181 -132q-70 0 -107 55q-33 47 -33 120q0 135 92 284q60 97 125 156h-23q-106 0 -174 -28q-97 -40 -97 -131q0 -7 5 -37l-60 -20q0 137 138 198q98 43 256 43q-61 -60 -117 -174q-70 -143 -70 -267
q0 -52 22 -91q26 -48 74 -48q84 0 159 136q39 72 86 208q52 155 71 236h120q-30 -63 -90 -238q-78 -229 -78 -323q0 -29 22 -38q14 -6 44 -6l-5 -20l-152 -5q14 112 80 312q62 187 118 303zM471 711l-9 12l165 129l55 -132l-14 -9l-62 75z" />
    <glyph glyph-name="Udieresis" unicode="&#xdc;" horiz-adv-x="796" 
d="M732 610h-46q-18 -78 -67 -221q-67 -195 -112 -272q-78 -132 -181 -132q-70 0 -107 55q-33 47 -33 120q0 135 92 284q60 97 125 156h-23q-106 0 -174 -28q-97 -40 -97 -131q0 -7 5 -37l-60 -20q0 137 138 198q98 43 256 43q-61 -60 -117 -174q-70 -143 -70 -267
q0 -52 22 -91q26 -48 74 -48q84 0 159 136q39 72 86 208q52 155 71 236h120q-30 -63 -90 -238q-78 -229 -78 -323q0 -29 22 -38q14 -6 44 -6l-5 -20l-152 -5q14 112 80 312q62 187 118 303zM493 711q-15 0 -25.5 10.5t-10.5 25.5q0 14 11 25t25 11q36 0 36 -36
q0 -15 -10.5 -25.5t-25.5 -10.5zM636 711q-15 0 -25.5 10.5t-10.5 25.5t10.5 25.5t25.5 10.5q36 0 36 -36q0 -15 -10.5 -25.5t-25.5 -10.5z" />
    <glyph glyph-name="Yacute" unicode="&#xdd;" horiz-adv-x="630" 
d="M650 625l-154 -500q-98 -318 -328 -318q-119 0 -161 73l69 44v-7q-1 -5 -1 -7q0 -46 39 -69q32 -19 82 -19q104 0 185 161q46 92 104 290l98 337h-23q-27 -133 -82 -278q-95 -251 -196 -251q-49 0 -68 47q-13 31 -17 113l-8 149q-7 138 -16 167q-14 48 -63 48h-17l6 20
l130 5q11 -69 20 -240l9 -164q3 -51 9 -69q9 -26 36 -26q80 0 167 233q58 155 78 261h102zM388 636l-8 11l144 106l13 -52z" />
    <glyph glyph-name="Thorn" unicode="&#xde;" horiz-adv-x="704" 
d="M330 0l-30 -15v11q-1 8 -1 12q0 65 34 181q39 133 98 222q84 128 189 128q104 0 104 -117q0 -92 -68 -169q-71 -80 -162 -80q-53 0 -100 43l30 51q28 -79 90 -79q60 0 106 81q39 70 39 136q0 37 -18 64q-21 30 -56 30q-108 0 -188 -181q-68 -153 -68 -279q0 7 1 -19v-20z
M274 0l-78 -10q7 101 87 334q64 185 106 274q-20 2 -33 2q-90 0 -156 -32q-86 -42 -86 -122q0 -7 5 -42l-60 -20q15 241 359 241h31q-47 -111 -102 -290q-62 -202 -70 -298z" />
    <glyph glyph-name="germandbls" unicode="&#xdf;" horiz-adv-x="519" 
d="M220 477l-143 -471q-76 -251 -242 -251q-41 0 -81 19l25 81q18 -85 82 -85q84 0 152 225l139 460q36 119 80 181q65 94 163 94q44 0 78 -23q39 -26 39 -68l-196 -226q0 -47 67 -144t67 -148q0 -61 -53 -100q-48 -36 -111 -36q-84 0 -146 67l31 59q1 -31 34 -66
q42 -45 104 -45q38 0 64.5 25t26.5 62q0 44 -69.5 150t-69.5 146q0 45 50 88q30 24 91 75q50 43 50 93q0 32 -20.5 51.5t-53.5 19.5q-57 0 -94 -63q-26 -43 -64 -170z" />
    <glyph glyph-name="agrave" unicode="&#xe0;" horiz-adv-x="519" 
d="M342 268l-10 3q-22 -73 -77 -158q-83 -128 -170 -128q-38 0 -60 33q-19 29 -19 69q0 97 92 219q97 129 190 129q62 0 62 -75q0 -23 -7 -55l9 -2l39 124l74 8q-23 -56 -43 -121l-31 -100q-40 -129 -40 -164q0 -20 19 -20q49 0 145 105q48 53 105 130l-8 -25
q-193 -255 -290 -255q-46 0 -46 52q0 22 17 76zM71 109q0 -29 10 -51q13 -28 38 -28q67 0 137 111q65 103 65 175q0 35 -15 57q-18 27 -51 27q-71 0 -131 -114q-53 -100 -53 -177zM295 485l-7 -10l-142 62l13 49z" />
    <glyph glyph-name="aacute" unicode="&#xe1;" horiz-adv-x="519" 
d="M342 268l-10 3q-22 -73 -77 -158q-83 -128 -170 -128q-38 0 -60 33q-19 29 -19 69q0 97 92 219q97 129 190 129q62 0 62 -75q0 -23 -7 -55l9 -2l39 124l74 8q-23 -56 -43 -121l-31 -100q-40 -129 -40 -164q0 -20 19 -20q49 0 145 105q48 53 105 130l-8 -25
q-193 -255 -290 -255q-46 0 -46 52q0 22 17 76zM71 109q0 -29 10 -51q13 -28 38 -28q67 0 137 111q65 103 65 175q0 35 -15 57q-18 27 -51 27q-71 0 -131 -114q-53 -100 -53 -177zM288 475l-7 10l137 101l12 -49z" />
    <glyph glyph-name="acircumflex" unicode="&#xe2;" horiz-adv-x="519" 
d="M342 268l-10 3q-22 -73 -77 -158q-83 -128 -170 -128q-38 0 -60 33q-19 29 -19 69q0 97 92 219q97 129 190 129q62 0 62 -75q0 -23 -7 -55l9 -2l39 124l74 8q-23 -56 -43 -121l-31 -100q-40 -129 -40 -164q0 -20 19 -20q49 0 145 105q48 53 105 130l-8 -25
q-193 -255 -290 -255q-46 0 -46 52q0 22 17 76zM71 109q0 -29 10 -51q13 -28 38 -28q67 0 137 111q65 103 65 175q0 35 -15 57q-18 27 -51 27q-71 0 -131 -114q-53 -100 -53 -177zM204 447l-8 12l156 103l52 -106l-13 -9l-59 62z" />
    <glyph glyph-name="atilde" unicode="&#xe3;" horiz-adv-x="519" 
d="M342 268l-10 3q-22 -73 -77 -158q-83 -128 -170 -128q-38 0 -60 33q-19 29 -19 69q0 97 92 219q97 129 190 129q62 0 62 -75q0 -23 -7 -55l9 -2l39 124l74 8q-23 -56 -43 -121l-31 -100q-40 -129 -40 -164q0 -20 19 -20q49 0 145 105q48 53 105 130l-8 -25
q-193 -255 -290 -255q-46 0 -46 52q0 22 17 76zM71 109q0 -29 10 -51q13 -28 38 -28q67 0 137 111q65 103 65 175q0 35 -15 57q-18 27 -51 27q-71 0 -131 -114q-53 -100 -53 -177zM199 470l-7 7q15 19 30 39q23 24 48 23q15 -1 39 -16q17 -17 36 -18q17 -1 54 36l9 -8
q-47 -59 -82 -58q-13 0 -38 18q-11 8 -38 17q-16 1 -51 -40z" />
    <glyph glyph-name="adieresis" unicode="&#xe4;" horiz-adv-x="519" 
d="M342 268l-10 3q-22 -73 -77 -158q-83 -128 -170 -128q-39 0 -60 33q-19 28 -19 69q0 97 92 219q97 129 190 129q62 0 62 -75q0 -23 -7 -55l9 -2l39 124l74 8q-22 -54 -43 -121l-31 -100q-40 -129 -40 -164q0 -20 19 -20q49 0 145 105q49 54 105 130l-8 -25
q-193 -255 -290 -255q-46 0 -46 52q0 22 17 76zM71 109q0 -29 10 -51q13 -28 38 -28q67 0 137 111q65 102 65 175q0 34 -15 57q-18 27 -51 27q-71 0 -131 -114q-53 -100 -53 -177zM265 546q-15 0 -25.5 10.5t-10.5 25.5q0 14 11 25t25 11q36 0 36 -36q0 -15 -10.5 -25.5
t-25.5 -10.5zM408 546q-15 0 -25.5 10.5t-10.5 25.5t10.5 25.5t25.5 10.5q36 0 36 -36q0 -15 -10.5 -25.5t-25.5 -10.5z" />
    <glyph glyph-name="aring" unicode="&#xe5;" horiz-adv-x="519" 
d="M342 268l-10 3q-22 -73 -77 -158q-83 -128 -170 -128q-39 0 -60 33q-19 28 -19 69q0 97 92 219q97 129 190 129q62 0 62 -75q0 -23 -7 -55l9 -2l39 124l74 8q-22 -54 -43 -121l-31 -100q-40 -129 -40 -164q0 -20 19 -20q49 0 145 105q49 54 105 130l-8 -25
q-193 -255 -290 -255q-46 0 -46 52q0 22 17 76zM71 109q0 -29 10 -51q13 -28 38 -28q67 0 137 111q65 102 65 175q0 34 -15 57q-18 27 -51 27q-71 0 -131 -114q-53 -100 -53 -177zM332 531q-72 0 -72 59q0 48 34.5 81t82.5 33q78 0 78 -60q0 -49 -36.5 -81t-86.5 -32z
M295 590q0 -49 41 -49q39 0 63 35q21 32 21 72q0 46 -45 46q-35 0 -57.5 -33.5t-22.5 -70.5z" />
    <glyph glyph-name="ae" unicode="&#xe6;" horiz-adv-x="611" 
d="M711 260l-8 -25q-73 -101 -126 -149q-111 -101 -225 -101q-112 0 -120 104h-2q-60 -104 -145 -104q-38 0 -61.5 27t-23.5 66q0 74 78 125q69 46 147 46q21 0 43 -3q3 39 3 45q0 43 -23 72q-26 32 -68 32q-47 0 -96 -32l25 44q53 28 104 28q47 0 75.5 -29t28.5 -76
q0 -10 -2 -24l2 -2q100 131 203 131q63 0 63 -66q0 -72 -81 -129q-74 -52 -149 -52q-10 0 -40 5q-14 -45 -14 -79q0 -89 91 -89q96 0 201 97q43 40 120 138zM55 96q0 -28 13 -48q16 -23 43 -23q102 0 147 179q-40 20 -90 20q-52 0 -84 -39q-29 -35 -29 -89zM325 232
q28 -14 79 -14q54 0 88 46q31 43 31 98q0 19 -8 34q-10 19 -27 19q-54 0 -110 -76q-47 -64 -53 -107z" />
    <glyph glyph-name="ccedilla" unicode="&#xe7;" horiz-adv-x="389" 
d="M87 -50l30 36q-108 4 -108 112q0 107 105 229q93 108 198 108q39 0 93 -20l-27 -62q-40 57 -94 57q-79 0 -145 -109q-60 -99 -60 -181q0 -95 93 -95q144 0 315 240l-9 -25q-50 -79 -120 -145q-110 -103 -218 -109l-14 -18q35 -23 35 -50q0 -24 -21.5 -37t-46.5 -13
q-12 0 -36 4l4 12q3 0 6 -1h6q48 0 48 32q0 21 -34 35z" />
    <glyph glyph-name="egrave" unicode="&#xe8;" horiz-adv-x="389" 
d="M486 260l-8 -25q-73 -101 -126 -149q-111 -101 -225 -101q-118 0 -118 113q0 104 90 218q95 119 196 119q63 0 63 -66q0 -71 -73 -128q-69 -55 -141 -55q-27 0 -56 8q-14 -45 -14 -80q0 -89 91 -89q96 0 201 97q42 39 120 138zM263 415q-52 0 -107 -78q-32 -45 -56 -102
q46 -29 87 -29q50 0 85 55q31 48 31 101t-40 53zM302 485l-7 -10l-142 62l13 49z" />
    <glyph glyph-name="eacute" unicode="&#xe9;" horiz-adv-x="389" 
d="M486 260l-8 -25q-73 -101 -126 -149q-111 -101 -225 -101q-118 0 -118 113q0 104 90 218q95 119 196 119q63 0 63 -66q0 -71 -73 -128q-69 -55 -141 -55q-27 0 -56 8q-14 -45 -14 -80q0 -89 91 -89q96 0 201 97q42 39 120 138zM263 415q-52 0 -107 -78q-32 -45 -56 -102
q46 -29 87 -29q50 0 85 55q31 48 31 101t-40 53zM295 475l-7 10l137 101l12 -49z" />
    <glyph glyph-name="ecircumflex" unicode="&#xea;" horiz-adv-x="389" 
d="M486 260l-8 -25q-73 -101 -126 -149q-111 -101 -225 -101q-118 0 -118 113q0 104 90 218q95 119 196 119q63 0 63 -66q0 -71 -73 -128q-69 -55 -141 -55q-27 0 -56 8q-14 -45 -14 -80q0 -89 91 -89q96 0 201 97q42 39 120 138zM263 415q-52 0 -107 -78q-32 -45 -56 -102
q46 -29 87 -29q50 0 85 55q31 48 31 101t-40 53zM184 435l-8 12l156 103l52 -106l-13 -9l-59 62z" />
    <glyph glyph-name="edieresis" unicode="&#xeb;" horiz-adv-x="389" 
d="M486 260l-8 -25q-73 -101 -126 -149q-111 -101 -225 -101q-118 0 -118 113q0 103 91 217q95 120 195 120q63 0 63 -66q0 -70 -71.5 -126.5t-142.5 -56.5q-27 0 -56 8q-14 -45 -14 -80q0 -89 91 -89q96 0 201 97q43 40 120 138zM263 415q-52 0 -107 -78q-32 -46 -56 -102
q46 -29 87 -29q49 0 85 55q31 49 31 101q0 53 -40 53zM210 546q-15 0 -25.5 10.5t-10.5 25.5q0 14 11 25t25 11q36 0 36 -36q0 -15 -10.5 -25.5t-25.5 -10.5zM353 546q-15 0 -25.5 10.5t-10.5 25.5t10.5 25.5t25.5 10.5q36 0 36 -36q0 -15 -10.5 -25.5t-25.5 -10.5z" />
    <glyph glyph-name="igrave" unicode="&#xec;" horiz-adv-x="241" 
d="M344 260l-8 -25q-182 -250 -272 -250q-23 0 -36.5 16t-13.5 39q0 17 19 76l38 119q33 103 33 136q0 37 -49 37h-22l5 15l157 12l-76 -239q-35 -110 -35 -135q0 -31 20 -31q46 0 138 102q57 64 102 128zM162 485l-7 -10l-142 62l13 49z" />
    <glyph glyph-name="iacute" unicode="&#xed;" horiz-adv-x="241" 
d="M344 260l-8 -25q-182 -250 -272 -250q-23 0 -36.5 16t-13.5 39q0 17 19 76l38 119q33 103 33 136q0 37 -49 37h-22l5 15l157 12l-76 -239q-35 -110 -35 -135q0 -31 20 -31q46 0 138 102q57 64 102 128zM155 475l-7 10l137 101l12 -49z" />
    <glyph glyph-name="icircumflex" unicode="&#xee;" horiz-adv-x="241" 
d="M344 260l-8 -25q-182 -250 -272 -250q-23 0 -36.5 16t-13.5 39q0 17 19 76l38 119q33 103 33 136q0 37 -49 37h-22l5 15l157 12l-76 -239q-35 -110 -35 -135q0 -31 20 -31q46 0 138 102q57 63 102 128zM79 546l-9 12l165 129l55 -132l-14 -9l-62 75z" />
    <glyph glyph-name="idieresis" unicode="&#xef;" horiz-adv-x="241" 
d="M344 260l-8 -25q-182 -250 -272 -250q-23 0 -36.5 16t-13.5 39q0 17 19 76l38 119q33 103 33 136q0 37 -49 37h-22l5 15l157 12l-76 -239q-35 -110 -35 -135q0 -31 20 -31q46 0 138 102q57 63 102 128zM126 546q-15 0 -25.5 10.5t-10.5 25.5q0 14 11 25t25 11
q36 0 36 -36q0 -15 -10.5 -25.5t-25.5 -10.5zM269 546q-15 0 -25.5 10.5t-10.5 25.5t10.5 25.5t25.5 10.5q36 0 36 -36q0 -15 -10.5 -25.5t-25.5 -10.5z" />
    <glyph glyph-name="eth" unicode="&#xf0;" horiz-adv-x="463" 
d="M73 119q0 -36 17 -61q20 -28 54 -28q55 0 120 114q59 105 59 167q0 37 -15 65q-18 34 -52 34q-65 0 -126 -111q-57 -103 -57 -180zM443 664l-79 -46q7 -17 16 -49q23 -83 23 -183q0 -138 -88 -266q-93 -135 -206 -135q-47 0 -74 31.5t-27 79.5q0 97 93 220
q97 129 190 129q39 0 45 -36h5q3 39 3 72q0 76 -16 116l-95 -59l-6 20l95 59q-18 53 -48 95l35 18q27 -36 49 -91l79 49z" />
    <glyph glyph-name="ntilde" unicode="&#xf1;" 
d="M6 -15l82 265q30 97 30 127t-48 30h-19l5 15l151 13l-133 -430h10q158 430 312 430q24 0 40.5 -15.5t16.5 -39.5q0 -28 -21 -94l-41 -129q-23 -72 -23 -104q0 -23 20 -23q38 0 132 100q70 75 109 130l-8 -25q-51 -72 -118 -141q-105 -109 -166 -109q-17 0 -28 13t-11 31
q0 22 33 128l29 93q28 90 28 114q0 36 -31 36q-70 0 -167 -185q-66 -126 -93 -215zM238 546v0l-11 7q34 65 84 65q20 0 51.5 -18.5t46.5 -18.5q26 0 53 38l13 -8q-32 -65 -79 -65q-16 0 -49 18.5t-50 18.5q-29 0 -59 -37z" />
    <glyph glyph-name="ograve" unicode="&#xf2;" horiz-adv-x="463" 
d="M560 265l-8 -25q-165 -240 -295 -240q-26 0 -58 13q-56 -28 -96 -28q-93 0 -93 109q0 106 94 220q99 121 209 121q46 0 71 -27t25 -73q0 -87 -75 -191q-57 -79 -112 -117q21 -7 37 -7q84 0 187 104q43 43 114 141zM238 396l-2 7q-56 -26 -107 -106q-59 -92 -59 -187
q0 -90 79 -90q7 0 32 5q-52 45 -52 126q0 72 26 136q29 72 83 109zM144 171q0 -93 60 -135q40 31 81 98q54 89 54 173q0 93 -63 93q-58 0 -98 -89q-34 -75 -34 -140zM320 485l-7 -10l-142 62l13 49z" />
    <glyph glyph-name="oacute" unicode="&#xf3;" horiz-adv-x="463" 
d="M560 265l-8 -25q-165 -240 -295 -240q-26 0 -58 13q-56 -28 -96 -28q-93 0 -93 109q0 106 94 220q99 121 209 121q46 0 71 -27t25 -73q0 -87 -75 -191q-57 -79 -112 -117q21 -7 37 -7q84 0 187 104q43 43 114 141zM238 396l-2 7q-56 -26 -107 -106q-59 -92 -59 -187
q0 -90 79 -90q7 0 32 5q-52 45 -52 126q0 72 26 136q29 72 83 109zM144 171q0 -93 60 -135q40 31 81 98q54 89 54 173q0 93 -63 93q-58 0 -98 -89q-34 -75 -34 -140zM313 475l-7 10l137 101l12 -49z" />
    <glyph glyph-name="ocircumflex" unicode="&#xf4;" horiz-adv-x="463" 
d="M560 265l-8 -25q-165 -240 -295 -240q-26 0 -58 13q-56 -28 -96 -28q-93 0 -93 109q0 106 94 220q99 121 209 121q46 0 71 -27t25 -73q0 -87 -75 -191q-57 -79 -112 -117q21 -7 37 -7q84 0 187 104q43 43 114 141zM238 396l-2 7q-56 -26 -107 -106q-59 -92 -59 -187
q0 -90 79 -90q7 0 32 5q-52 45 -52 126q0 72 26 136q29 72 83 109zM144 171q0 -93 60 -135q40 31 81 98q54 89 54 173q0 93 -63 93q-58 0 -98 -89q-34 -75 -34 -140zM204 435l-8 12l156 103l52 -106l-13 -9l-59 62z" />
    <glyph glyph-name="otilde" unicode="&#xf5;" horiz-adv-x="463" 
d="M560 265l-8 -25q-165 -240 -295 -240q-26 0 -58 13q-56 -28 -96 -28q-93 0 -93 109q0 106 94 220q99 121 209 121q46 0 71 -27t25 -73q0 -87 -75 -191q-57 -79 -112 -117q21 -7 37 -7q84 0 187 104q43 43 114 141zM238 396l-2 7q-56 -26 -107 -106q-59 -92 -59 -187
q0 -90 79 -90q7 0 32 5q-52 45 -52 126q0 72 26 136q29 72 83 109zM144 171q0 -93 60 -135q40 31 81 98q54 89 54 173q0 93 -63 93q-58 0 -98 -89q-34 -75 -34 -140zM224 472l-7 7q15 19 30 39q23 24 48 23q15 -1 39 -16q17 -17 36 -18q17 -1 54 36l9 -8q-47 -59 -82 -58
q-13 0 -38 18q-11 8 -38 17q-16 1 -51 -40z" />
    <glyph glyph-name="odieresis" unicode="&#xf6;" horiz-adv-x="463" 
d="M560 265l-8 -25q-165 -240 -295 -240q-26 0 -58 13q-56 -28 -96 -28q-93 0 -93 109q0 106 94 220q99 121 209 121q46 0 71 -27t25 -73q0 -87 -75 -191q-57 -79 -112 -117q21 -7 37 -7q85 0 187 104q41 41 114 141zM238 396l-2 7q-56 -26 -107 -106q-59 -92 -59 -187
q0 -90 79 -90q7 0 32 5q-52 45 -52 126q0 72 26 136q29 72 83 109zM144 171q0 -93 60 -135q40 31 81 98q54 89 54 173q0 93 -63 93q-58 0 -98 -89q-34 -74 -34 -140zM247 546q-15 0 -25.5 10.5t-10.5 25.5q0 14 11 25t25 11q36 0 36 -36q0 -15 -10.5 -25.5t-25.5 -10.5z
M390 546q-15 0 -25.5 10.5t-10.5 25.5t10.5 25.5t25.5 10.5q36 0 36 -36q0 -15 -10.5 -25.5t-25.5 -10.5z" />
    <glyph glyph-name="divide" unicode="&#xf7;" 
d="M262 390q16 0 27 -11t11 -27t-11 -27t-27 -11t-27 11t-11 27t11 27t27 11zM262 106q16 0 27 -11t11 -27t-11 -27t-27 -11t-27 11t-11 27t11 27t27 11zM62 190v40h400v-40h-400z" />
    <glyph glyph-name="oslash" unicode="&#xf8;" horiz-adv-x="463" 
d="M238 396l-2 7q-56 -26 -107 -106q-59 -92 -59 -187q0 -90 79 -90q7 0 32 5q-52 45 -52 126q0 72 26 136q29 72 83 109zM144 171q0 -93 60 -135q40 31 81 98q54 89 54 173q0 93 -63 93q-58 0 -98 -89q-34 -74 -34 -140zM-46 -21l60 66q-4 19 -4 49q0 106 94 220
q99 121 209 121q49 0 73 -27q11 9 28 27l47 9l-63 -54q11 -31 11 -55q0 -87 -75 -191q-57 -79 -112 -117q21 -7 37 -7q85 0 187 104q41 41 114 141l-8 -25q-165 -240 -295 -240q-26 0 -58 13q-56 -28 -96 -28q-54 0 -78 39q-7 -12 -24 -37z" />
    <glyph glyph-name="ugrave" unicode="&#xf9;" horiz-adv-x="519" 
d="M303 116l95 299l-2 2q-27 -100 -98 -230q-110 -202 -218 -202q-59 0 -59 58q0 37 24 114l29 93q30 96 30 120q0 37 -48 37h-19l5 15l151 13l-95 -309q-17 -55 -17 -71q0 -13 11 -24t24 -11q79 0 178 189q67 128 91 213l80 13l-76 -239q-35 -110 -35 -135q0 -31 20 -31
q46 0 138 102q57 64 102 128l-8 -25q-182 -250 -272 -250q-23 0 -36.5 16t-13.5 39q0 16 19 76zM296 458l-7 -10l-142 62l13 49z" />
    <glyph glyph-name="uacute" unicode="&#xfa;" horiz-adv-x="519" 
d="M303 116l95 299l-2 2q-27 -100 -98 -230q-110 -202 -218 -202q-59 0 -59 58q0 37 24 114l29 93q30 96 30 120q0 37 -48 37h-19l5 15l151 13l-95 -309q-17 -55 -17 -71q0 -13 11 -24t24 -11q79 0 178 189q67 128 91 213l80 13l-76 -239q-35 -110 -35 -135q0 -31 20 -31
q46 0 138 102q57 64 102 128l-8 -25q-182 -250 -272 -250q-23 0 -36.5 16t-13.5 39q0 16 19 76zM289 448l-7 10l137 101l12 -49z" />
    <glyph glyph-name="ucircumflex" unicode="&#xfb;" horiz-adv-x="519" 
d="M303 116l95 299l-2 2q-27 -99 -98 -230q-110 -202 -218 -202q-59 0 -59 58q0 37 24 114l29 93q30 96 30 120q0 37 -48 37h-19l5 15l151 13l-95 -309q-17 -55 -17 -71q0 -13 11 -24t24 -11q79 0 178 189q67 128 91 213l80 13l-76 -239q-35 -110 -35 -135q0 -31 20 -31
q46 0 138 102q57 63 102 128l-8 -25q-182 -250 -272 -250q-23 0 -36.5 16t-13.5 39q0 16 19 76zM223 546l-9 12l165 129l55 -132l-14 -9l-62 75z" />
    <glyph glyph-name="udieresis" unicode="&#xfc;" horiz-adv-x="519" 
d="M303 116l95 299l-2 2q-27 -99 -98 -230q-110 -202 -218 -202q-59 0 -59 58q0 37 24 114l29 93q30 96 30 120q0 37 -48 37h-19l5 15l151 13l-95 -309q-17 -55 -17 -71q0 -13 11 -24t24 -11q79 0 178 189q67 128 91 213l80 13l-76 -239q-35 -110 -35 -135q0 -31 20 -31
q46 0 138 102q57 63 102 128l-8 -25q-182 -250 -272 -250q-23 0 -36.5 16t-13.5 39q0 16 19 76zM265 546q-15 0 -25.5 10.5t-10.5 25.5q0 14 11 25t25 11q36 0 36 -36q0 -15 -10.5 -25.5t-25.5 -10.5zM408 546q-15 0 -25.5 10.5t-10.5 25.5t10.5 25.5t25.5 10.5q36 0 36 -36
q0 -15 -10.5 -25.5t-25.5 -10.5z" />
    <glyph glyph-name="yacute" unicode="&#xfd;" 
d="M640 265l-8 -25q-52 -78 -120 -146q-98 -99 -167 -106q-32 -95 -68 -140q-75 -93 -207 -93q-59 0 -103 22q-55 28 -55 81q0 104 201 171q-13 36 -15 91l-8 179q-3 78 -19 96q-11 13 -61 15l5 20l126 5q4 -19 6 -69l8 -179q3 -76 9 -110q7 -42 29 -42q48 0 125 185
q41 99 74 205l93 10l-130 -415q115 17 285 245zM413 417h-11q-60 -178 -83 -231q-86 -201 -154 -201q-30 0 -47 33q-58 -21 -98 -54q-53 -43 -53 -93q0 -48 44 -74q37 -22 88 -22q73 0 117 60q36 48 71 165zM266 435l-7 10l137 101l12 -49z" />
    <glyph glyph-name="thorn" unicode="&#xfe;" horiz-adv-x="481" 
d="M-77 -245l241 764q35 111 35 144q0 26 -23 34q-11 4 -45 5l5 15l154 13l-302 -957h16q20 65 61 193q61 183 131 308q90 161 173 161q33 0 51 -33q14 -27 14 -63q0 -102 -78 -222q-85 -132 -181 -132q-54 0 -75 37l40 33q14 -50 58 -50q65 0 121 121q50 108 50 197
q0 62 -36 62q-91 0 -214 -303q-19 -47 -104 -314z" />
    <glyph glyph-name="ydieresis" unicode="&#xff;" 
d="M640 265l-8 -25q-53 -79 -120 -146q-98 -99 -167 -106q-32 -95 -68 -140q-75 -93 -207 -93q-58 0 -102 22q-56 28 -56 81q0 104 201 171q-13 37 -15 91l-8 179q-3 78 -19 96q-11 13 -61 15l5 20l126 5q4 -20 6 -69l8 -179q4 -79 9 -110q7 -42 29 -42q48 0 125 185
q41 98 74 205l93 10l-130 -415q115 17 285 245zM413 417h-11q-60 -177 -83 -231q-86 -201 -154 -201q-30 0 -47 33q-58 -21 -98 -54q-53 -44 -53 -93q0 -47 44 -74q37 -22 88 -22q73 0 117 60q36 48 71 165zM214 546q-15 0 -25.5 10.5t-10.5 25.5q0 14 11 25t25 11
q36 0 36 -36q0 -15 -10.5 -25.5t-25.5 -10.5zM357 546q-15 0 -25.5 10.5t-10.5 25.5t10.5 25.5t25.5 10.5q36 0 36 -36q0 -15 -10.5 -25.5t-25.5 -10.5z" />
    <glyph glyph-name="glyph271" unicode="&#x102;" horiz-adv-x="796" 
d="M381 254l-27 -49q-55 -99 -93 -141q-72 -79 -164 -79q-55 0 -96 28q-45 32 -45 85q0 176 361 176h47q152 237 274 348l109 34q-27 -59 -52 -153q-35 -129 -35 -231q0 -114 38 -176l-25 -24q-33 73 -33 175q0 139 82 381l-33 -6q-84 -242 -84 -423q0 -119 22 -153
q18 -28 79 -30l-5 -16l-137 -4q-19 63 -19 166q0 51 4 92h-168zM351 254h-53q-292 0 -292 -140q0 -48 33 -76t82 -28q69 0 121 61q33 39 90 147zM392 274h158q16 149 76 316l-2 2q-147 -167 -232 -318zM808 759q-47 -93 -119 -93q-34 0 -54 22t-20 57q0 36 18 36q6 0 13 -3
q-2 -32 8 -51q13 -25 43 -24q61 1 99 71q4 8 9 8q6 0 6 -10q0 -7 -3 -13z" />
    <glyph glyph-name="glyph272" unicode="&#x103;" horiz-adv-x="519" 
d="M342 268l-10 3q-22 -73 -77 -158q-83 -128 -170 -128q-38 0 -60 33q-19 29 -19 69q0 97 92 219q97 129 190 129q62 0 62 -75q0 -23 -7 -55l9 -2l39 124l74 8q-23 -56 -43 -121l-31 -100q-40 -129 -40 -164q0 -20 19 -20q49 0 145 105q48 53 105 130l-8 -25
q-193 -255 -290 -255q-46 0 -46 52q0 22 17 76zM71 109q0 -29 10 -51q13 -28 38 -28q67 0 137 111q65 103 65 175q0 35 -15 57q-18 27 -51 27q-71 0 -131 -114q-53 -100 -53 -177zM401 543q-45 -88 -113 -88q-33 0 -52 21t-19 54q0 34 17 34q6 0 13 -3q-2 -30 8 -48
q12 -24 40 -23q59 1 94 67q4 8 9 8q6 0 6 -10q0 -6 -3 -12z" />
    <glyph glyph-name="Cacute" unicode="&#x106;" horiz-adv-x="711" 
d="M518 73l-14 -35q-28 -11 -83 -31q-65 -22 -144 -22q-231 0 -231 213q0 154 112 293q120 149 280 149q95 0 195 -50l-40 -94q-41 119 -144 119q-101 0 -175 -124q-65 -108 -65 -217q0 -58 22 -100q27 -54 80 -54q20 0 40 12l-42 -47q-63 2 -94 58q-26 46 -26 114
q0 137 76 248q65 96 135 113l-2 4q-117 -2 -203 -157q-74 -135 -74 -262q0 -87 53.5 -137.5t140.5 -50.5q98 0 203 58zM354 801l-10 14l170 124l15 -61z" />
    <glyph glyph-name="cacute" unicode="&#x107;" horiz-adv-x="441" 
d="M487 265l-9 -25q-51 -83 -125 -150q-115 -105 -227 -105q-55 0 -86 29.5t-31 83.5q0 107 105 229q93 108 198 108q39 0 93 -20l-27 -62q-40 57 -94 57q-79 0 -145 -109q-60 -99 -60 -181q0 -95 93 -95q144 0 315 240zM155 546l-10 14l170 124l15 -61z" />
    <glyph glyph-name="Ccaron" unicode="&#x10c;" horiz-adv-x="711" 
d="M518 73l-14 -35q-28 -11 -83 -31q-65 -22 -144 -22q-231 0 -231 213q0 154 112 293q120 149 280 149q95 0 195 -50l-40 -94q-41 119 -144 119q-101 0 -175 -124q-65 -108 -65 -217q0 -58 22 -100q27 -54 80 -54q20 0 40 12l-42 -47q-63 2 -94 58q-26 46 -26 114
q0 137 76 248q65 96 135 113l-2 4q-117 -2 -203 -157q-74 -135 -74 -262q0 -87 53.5 -137.5t140.5 -50.5q98 0 203 58zM359 798l-56 132l15 9l61 -76l135 76l9 -13z" />
    <glyph glyph-name="ccaron" unicode="&#x10d;" horiz-adv-x="441" 
d="M487 265l-9 -25q-51 -83 -125 -150q-115 -105 -227 -105q-55 0 -86 29.5t-31 83.5q0 107 105 229q93 108 198 108q39 0 93 -20l-27 -62q-40 57 -94 57q-79 0 -145 -109q-60 -99 -60 -181q0 -95 93 -95q144 0 315 240zM160 543l-56 132l15 9l61 -76l135 76l9 -13z" />
    <glyph glyph-name="Dslash" unicode="&#x110;" horiz-adv-x="889" 
d="M320 0l-130 -10q8 99 78 305h-89l10 30h89q49 145 96 259h55q-30 -81 -91 -259h27q44 139 81 205l46 11q-57 -46 -109 -216h116l-10 -30h-115q-28 -105 -28 -168q0 -122 129 -122q134 0 221 117q79 107 79 245q0 238 -353 238q-315 0 -315 -163q0 -21 10 -40l-60 -19
q0 242 419 242q374 0 374 -252q0 -150 -115.5 -269t-265.5 -119q-68 0 -105.5 37t-37.5 105q0 75 30 168h-28q-48 -157 -59 -263q17 -13 51 -32z" />
    <glyph glyph-name="dcroat" unicode="&#x111;" horiz-adv-x="519" 
d="M73 109q0 -27 12 -48q14 -26 39 -26q60 0 133 109q68 102 68 167q0 34 -17 57q-19 27 -52 27q-65 0 -126 -108q-57 -100 -57 -178zM415 498h-4q-43 0 -120 -12l37 57h101q28 95 28 120q0 26 -23 34q-11 4 -45 5l5 15l154 13q-29 -92 -59 -184q32 4 57 9l-38 -57h-34
q-29 -95 -99 -314q-31 -98 -31 -132q0 -22 20 -22q71 0 254 235l-8 -25q-193 -255 -295 -255q-41 0 -41 43q0 23 13 65l55 177h-7q-34 -88 -79 -158q-82 -127 -167 -127q-40 0 -62 32q-19 27 -19 69q0 97 93 220q97 129 190 129q60 0 60 -82q0 -13 -5 -48h8z" />
    <glyph glyph-name="Gbreve" unicode="&#x11e;" horiz-adv-x="767" 
d="M327 255l30 30q92 -6 140 -6q60 0 115 6q-32 -55 -74 -173.5t-72 -171.5q-77 -133 -216 -133q-119 0 -156 74l63 38q-2 -12 -2 -17q0 -41 32 -62q27 -18 71 -18q93 0 152 113q26 50 64 153q43 116 60 157q2 4 6 14h-110q42 -47 42 -95q0 -79 -71 -131q-64 -48 -146 -48
q-98 0 -156 56.5t-58 154.5q0 157 114 297q120 147 272 147q95 0 201 -47l-42 -97q-34 124 -168 124q-125 0 -214 -148q-78 -130 -78 -272q0 -78 39 -129q43 -56 119 -56q62 0 115 44t53 105q0 41 -25.5 68t-66.5 27q-11 0 -33 -4zM477 939h15q-10 -42 -40 -82
q-42 -56 -96 -56q-72 0 -72 99q0 22 4 39h17q-1 -8 -1 -20q0 -78 60 -78q77 0 113 98z" />
    <glyph glyph-name="gbreve" unicode="&#x11f;" horiz-adv-x="492" 
d="M618 265l-8 -25q-59 -81 -123 -147q-100 -102 -165 -104q-33 -90 -72 -138q-78 -96 -201 -96q-67 0 -119 24q-68 31 -68 90q0 83 164 146q-19 29 -19 65q0 100 93 224q98 131 194 131q61 0 61 -77q0 -19 -8 -53h10l38 125l66 5q-26 -71 -57 -175l-74 -245q73 12 163 102
q46 46 125 148zM346 270h-11q-24 -76 -78 -158q-84 -127 -174 -127q-25 0 -45 20q-121 -46 -121 -125q0 -52 50 -83q43 -27 98 -27q82 0 134 77q32 47 64 152zM72 111q0 -76 52 -76q67 0 137 109q65 101 65 174q0 32 -17 54.5t-48 22.5q-67 0 -130 -105q-59 -98 -59 -179z
M277 684h15q-10 -42 -40 -82q-42 -56 -96 -56q-72 0 -72 99q0 22 4 39h17q-1 -8 -1 -20q0 -78 60 -78q77 0 113 98z" />
    <glyph glyph-name="glyph273" unicode="&#x128;" horiz-adv-x="500" 
d="M264 0l-78 -10q0 90 83 328q64 183 110 280q-20 2 -33 2q-90 0 -156 -32q-86 -42 -86 -122q0 -7 5 -42l-60 -20q10 142 128 199q87 42 248 42h65q0 -4 -24 -61q-121 -288 -121 -480q0 -53 20 -84l-41 -10q-8 22 -8 76q0 113 64 316q51 163 86 228h-33q-44 -112 -94 -272
q-66 -213 -72 -301q-1 -19 -3 -37zM342 661l-8 7q16 20 32 41q24 25 50 24q18 -1 41 -17q20 -18 38 -19t57 38l10 -8q-51 -62 -87 -61q-11 0 -39 18t-41 19q-16 1 -31 -14q-1 -1 -22 -28z" />
    <glyph glyph-name="glyph274" unicode="&#x129;" horiz-adv-x="241" 
d="M344 260l-8 -25q-182 -250 -272 -250q-23 0 -36.5 16t-13.5 39q0 17 19 76l38 119q33 103 33 136q0 37 -49 37h-22l5 15l157 12l-76 -239q-35 -110 -35 -135q0 -31 20 -31q46 0 138 102q57 64 102 128zM66 473l-7 7q15 19 30 39q23 24 48 23q15 -1 39 -16q17 -17 36 -18
q17 -1 54 36l9 -8q-47 -59 -82 -58q-13 0 -38 18q-11 8 -38 17q-16 1 -51 -40z" />
    <glyph glyph-name="Idotaccent" unicode="&#x130;" horiz-adv-x="429" 
d="M264 0l-78 -10q0 91 83 328q63 181 110 280q-20 2 -33 2q-90 0 -156 -32q-86 -42 -86 -122q0 -7 5 -42l-60 -20q10 142 128 199q86 42 248 42h65q0 -3 -24 -61q-31 -73 -54 -140q-67 -191 -67 -340q0 -53 20 -84l-41 -10q-8 22 -8 76q0 112 64 316q52 164 86 228h-33
q-44 -111 -94 -272q-66 -213 -72 -301q-1 -16 -3 -37zM233 801q-19 0 -32.5 13.5t-13.5 32.5t13.5 32.5t32.5 13.5t32.5 -13.5t13.5 -32.5t-13.5 -32.5t-32.5 -13.5z" />
    <glyph glyph-name="dotlessi" unicode="&#x131;" horiz-adv-x="241" 
d="M344 260l-8 -25q-182 -250 -272 -250q-23 0 -36.5 16t-13.5 39q0 17 19 76l38 119q33 103 33 136q0 37 -49 37h-22l5 15l157 12l-76 -239q-35 -110 -35 -135q0 -31 20 -31q46 0 138 102q57 63 102 128z" />
    <glyph glyph-name="Lslash" unicode="&#x141;" horiz-adv-x="500" 
d="M147 28l-77 31q-57 23 -75 23q-37 0 -37 -30q0 -28 35 -42q25 -10 58 -10q46 0 96 28zM487 71l-46 -82q-25 -4 -58 -4q-107 0 -218 37q-57 -37 -114 -37q-40 0 -69 14q-39 17 -39 53q0 25 20 40t46 15q49 0 170 -51q41 53 69 187l53 242q13 45 39 81l48 18
q-67 -67 -96 -220l90 37l-8 -26l-87 -34q-4 -17 -13 -61l-7 -37q-33 -163 -71 -191q79 -22 134 -22q80 0 157 41zM183 116l-68 -13q35 67 62 200l-79 -31l8 25l75 30q9 48 37 164q18 66 71 109q49 40 117 40q72 0 109 -54l-58 -62v16q0 37 -20 61t-56 24q-80 0 -114 -147
q-15 -79 -46 -236q-7 -35 -38 -126z" />
    <glyph glyph-name="lslash" unicode="&#x142;" horiz-adv-x="259" 
d="M358 260l-8 -25q-40 -62 -111 -137q-107 -113 -174 -113q-42 0 -42 50q0 14 17 68l74 236l-92 -46l10 32l92 45l47 149q35 111 35 144q0 26 -23 34q-11 4 -45 5l5 15l154 13l-102 -324l85 44l-9 -31l-86 -44l-56 -179q-36 -115 -36 -139q0 -26 20 -26q47 0 141 102
q66 71 104 127z" />
    <glyph glyph-name="OE" unicode="&#x152;" horiz-adv-x="796" 
d="M473 0l-120 -10q0 13 3 26q-54 -31 -112 -31q-97 0 -152 57t-55 154q0 155 111 295q118 149 269 149q43 0 79 -15q155 -6 326 -6q74 0 127 16q-23 -27 -57 -66h-10q-56 0 -232 23q-41 -77 -91 -236h167l-34 -35q-35 15 -85 15h-54q-34 -136 -34 -214q0 -25 5 -57
q54 -25 128 -25q62 0 116 19l-55 -58q-28 -6 -58 -6q-102 0 -164 35q0 7 -1 19.5t-1 19.5q0 121 64 316q39 119 81 210q-22 4 -38 5q-75 -212 -94 -270q-58 -182 -70 -298q13 -13 41 -32zM117 194q0 -77 29 -129q36 -65 107 -65q63 0 115 69q45 206 160 491q-57 65 -125 65
q-127 0 -213 -159q-73 -134 -73 -272z" />
    <glyph glyph-name="oe" unicode="&#x153;" horiz-adv-x="648" 
d="M67 110q0 -90 79 -90q50 0 110 93q65 100 65 204q0 36 -12 63q-17 35 -48 35q-75 0 -138 -119q-56 -104 -56 -186zM746 260l-8 -25q-73 -101 -126 -149q-111 -101 -225 -101q-109 0 -118 94q-88 -94 -169 -94q-93 0 -93 109q0 105 88 220q93 121 195 121q88 0 88 -85
q74 85 177 85q63 0 63 -66q0 -70 -71.5 -126.5t-142.5 -56.5q-27 0 -56 8q-14 -45 -14 -80q0 -89 91 -89q96 0 201 97q43 40 120 138zM360 235q46 -29 87 -29q49 0 85 55q31 49 31 101q0 53 -40 53q-52 0 -107 -78q-32 -46 -56 -102z" />
    <glyph glyph-name="Scedilla" unicode="&#x15e;" horiz-adv-x="656" 
d="M140 560l58 27q-33 -49 -33 -93q0 -54 49 -114q31 -36 90 -108q49 -63 49 -124q0 -45 -42 -97q38 4 62 35t24 70q0 64 -53 128q-33 37 -99 112q-53 63 -53 120q0 59 35.5 91.5t95.5 32.5q67 0 131 -39l-25 -63q-32 77 -111 77q-48 0 -77 -29t-29 -77q0 -50 52 -112
q33 -36 96 -111q52 -64 52 -130q0 -57 -39.5 -93t-97.5 -40q-44 -38 -122 -38q-72 0 -126 34q-64 40 -64 108v11l65 50q-10 -32 -10 -51q0 -58 45 -97.5t104 -39.5q58 0 92 37.5t34 96.5q0 60 -46 119q-14 18 -43 52t-43 52q-46 59 -46 120q0 44 25 83zM157 -10l-17 -22
q35 -23 35 -50q0 -24 -21.5 -37t-46.5 -13q-12 0 -36 4l4 12q3 0 6 -1h6q48 0 48 32q0 21 -34 35l33 40h23z" />
    <glyph glyph-name="scedilla" unicode="&#x15f;" horiz-adv-x="383" 
d="M527 265l-9 -25q-48 -72 -102 -128q-99 -103 -171 -103q-3 0 -10 1h-10q-42 -25 -83 -25q-63 0 -106 40t-43 103q0 93 102 140l54 -32q-49 -7 -80 -39.5t-31 -81.5q0 -48 33 -81.5t81 -33.5q40 0 64 25.5t24 65.5q0 46 -39 127.5t-39 117.5q0 43 32.5 71t76.5 28
q51 0 91 -40l-32 -55q-13 80 -70 80q-21 0 -34.5 -14.5t-13.5 -35.5q0 -30 44 -118t44 -132q0 -48 -44 -85h8q5 -1 7 -1q85 0 256 231zM60 -10l-17 -22q35 -23 35 -50q0 -24 -21.5 -37t-46.5 -13q-12 0 -36 4l4 12q3 0 6 -1h6q48 0 48 32q0 21 -34 35l33 40h23z" />
    <glyph glyph-name="Scaron" unicode="&#x160;" horiz-adv-x="481" 
d="M140 560l58 27q-33 -49 -33 -93q0 -54 49 -114q31 -36 90 -108q49 -63 49 -124q0 -45 -42 -97q38 4 62 35t24 70q0 64 -53 128q-33 37 -99 112q-53 63 -53 120q0 59 35.5 91.5t95.5 32.5q67 0 131 -39l-25 -63q-32 77 -111 77q-48 0 -77 -29t-29 -77q0 -50 52 -112
q33 -36 96 -111q52 -64 52 -130q0 -57 -39.5 -93t-97.5 -40q-44 -38 -122 -38q-72 0 -126 34q-64 40 -64 108v11l65 50q-10 -32 -10 -51q0 -58 45 -97.5t104 -39.5q58 0 92 37.5t34 96.5q0 60 -46 119q-14 18 -43 52t-43 52q-46 59 -46 120q0 44 25 83zM328 708l-56 132
l15 9l61 -76l135 76l9 -13z" />
    <glyph glyph-name="scaron" unicode="&#x161;" horiz-adv-x="426" 
d="M527 265l-9 -25q-48 -72 -102 -128q-99 -103 -171 -103q-3 0 -10 1h-10q-42 -25 -83 -25q-63 0 -106 40t-43 103q0 93 102 140l54 -32q-49 -7 -80 -39.5t-31 -81.5q0 -48 33 -81.5t81 -33.5q40 0 64 25.5t24 65.5q0 46 -39 127.5t-39 117.5q0 43 32.5 71t76.5 28
q51 0 91 -40l-32 -55q-13 80 -70 80q-21 0 -34.5 -14.5t-13.5 -35.5q0 -30 44 -118t44 -132q0 -48 -44 -85h8q5 -1 7 -1q85 0 256 231zM290 543l-56 132l15 9l61 -76l135 76l9 -13z" />
    <glyph glyph-name="ch903" unicode="&#x168;" horiz-adv-x="796" 
d="M732 610h-46q-18 -79 -67 -221q-67 -196 -112 -272q-78 -132 -181 -132q-69 0 -107 55q-33 48 -33 120q0 135 92 284q60 97 125 156h-23q-106 0 -174 -28q-97 -40 -97 -131q0 -7 5 -37l-60 -20q0 138 138 198q98 43 256 43q-61 -60 -117 -174q-70 -143 -70 -267
q0 -52 22 -91q26 -48 74 -48q84 0 159 136q40 73 86 208q50 148 71 236h120q-31 -65 -90 -238q-78 -228 -78 -323q0 -44 66 -44l-5 -20l-152 -5q14 113 80 312q62 186 118 303zM480 648l-8 7q16 20 32 41q24 25 50 24q18 -1 41 -17q20 -18 38 -19t57 38l10 -8
q-51 -62 -87 -61q-11 0 -39 18t-41 19q-16 1 -31 -14q-1 -1 -22 -28z" />
    <glyph glyph-name="ch904" unicode="&#x169;" horiz-adv-x="519" 
d="M303 116l95 299l-2 2q-27 -100 -98 -230q-110 -202 -218 -202q-59 0 -59 58q0 37 24 114l29 93q30 96 30 120q0 37 -48 37h-19l5 15l151 13l-95 -309q-17 -55 -17 -71q0 -13 11 -24t24 -11q79 0 178 189q67 128 91 213l80 13l-76 -239q-35 -110 -35 -135q0 -31 20 -31
q46 0 138 102q57 64 102 128l-8 -25q-182 -250 -272 -250q-23 0 -36.5 16t-13.5 39q0 16 19 76zM214 453l-7 7q15 19 30 39q23 24 48 23q15 -1 39 -16q17 -17 36 -18q17 -1 54 36l9 -8q-47 -59 -82 -58q-13 0 -38 18q-11 8 -38 17q-16 1 -51 -40z" />
    <glyph glyph-name="Ydieresis" unicode="&#x178;" horiz-adv-x="630" 
d="M650 625l-154 -500q-98 -318 -328 -318q-119 0 -161 73l69 44v-7q-1 -5 -1 -7q0 -46 39 -69q32 -19 82 -19q104 0 185 161q46 91 104 290l98 337h-23q-27 -133 -82 -278q-95 -251 -196 -251q-49 0 -68 47q-13 31 -17 113l-8 149q-7 138 -16 167q-14 48 -63 48h-17l6 20
l130 5q10 -65 20 -240l9 -164q3 -51 9 -69q9 -26 36 -26q80 0 167 233q58 155 78 261h102zM340 711q-15 0 -25.5 10.5t-10.5 25.5q0 14 11 25t25 11q36 0 36 -36q0 -15 -10.5 -25.5t-25.5 -10.5zM483 711q-15 0 -25.5 10.5t-10.5 25.5t10.5 25.5t25.5 10.5q36 0 36 -36
q0 -15 -10.5 -25.5t-25.5 -10.5z" />
    <glyph glyph-name="Zcaron" unicode="&#x17d;" 
d="M201 152l-71 -22q7 75 118 216q82 104 190 210q-36 0 -109 12t-110 12q-56 0 -103 -24l59 81q23 3 45 3q44 0 130 -17.5t130 -17.5q51 0 94 16l-33 -59q-154 -155 -240 -310q-26 -48 -51 -105q-20 -47 -31 -63q-3 -5 -7 -10q116 -34 159 -34q77 0 150 45l-39 -77
q-49 -23 -96 -23q-67 0 -139 20q-25 8 -76 23q-55 -43 -115 -43q-40 0 -72 15q-42 19 -42 54q0 29 25 47q22 16 53 16q46 0 175 -38q13 14 44 79l58 122q38 76 127 181q53 61 91 95h-8q-6 -1 -9 -1q-2 0 -12 1h-12q-87 -91 -160 -191q-96 -132 -113 -213zM-38 52
q0 -27 35 -41q26 -11 57 -11q49 0 99 34q-23 9 -68 26q-61 22 -88 22q-35 0 -35 -30zM356 708l-56 132l15 9l61 -76l135 76l9 -13z" />
    <glyph glyph-name="zcaron" unicode="&#x17e;" horiz-adv-x="444" 
d="M34 0l24 49l338 328l-2 2q-123 -23 -160 -23q-49 0 -68 13q-37 -70 -77 -129l8 25q45 83 66 174q33 -33 72 -33q96 0 206 29l-16 -49l-291 -331h90q113 0 155 15l-29 -73q-30 3 -89 3h-227zM289 543l-56 132l15 9l61 -76l135 76l9 -13z" />
    <glyph glyph-name="florin" unicode="&#x192;" 
d="M295 316l-61 -195q-35 -113 -76 -166q-60 -77 -157 -77q-45 0 -84 22l43 36q21 -43 67 -43q53 0 88 57q19 31 42 104l82 262h-25q-9 0 -28 -2t-28 -2l12 43q24 -4 55 -4h25l7 22q36 112 76 167q60 85 152 85q46 0 92 -22l-41 -37q-28 44 -70 44q-49 0 -81 -50
q-25 -39 -56 -137l-23 -72h22q44 0 76 4l-13 -43q-29 4 -67 4h-29z" />
    <glyph glyph-name="glyph277" unicode="&#x1a0;" horiz-adv-x="685" 
d="M254 -15q-97 0 -152 57t-55 154q0 155 111 295q118 149 269 149q97 0 153.5 -54t56.5 -151q0 -159 -110 -300q-118 -150 -273 -150zM311 87q-61 0 -95 56q-29 47 -29 112q0 95 50 197q61 125 164 168l-2 5q-117 -10 -200 -166q-72 -136 -72 -265q0 -77 29 -129
q36 -65 107 -65q132 0 222 155q77 133 77 274q0 70 -25 123q-32 68 -95 68q-93 0 -163 -127q-60 -109 -60 -211q0 -57 19 -99q25 -56 75 -56q22 0 56 24zM617 700q14 0 25 -9.5t11 -23.5q0 -46 -102 -59l41 19q25 15 25 33q0 26 -31 28q-7 -13 -16 -13q-6 0 -6 5q0 20 53 20
z" />
    <glyph glyph-name="glyph278" unicode="&#x1a1;" horiz-adv-x="463" 
d="M144 171q0 -93 60 -135q40 31 81 98q54 89 54 173q0 93 -63 93q-58 0 -98 -89q-34 -75 -34 -140zM238 396l-2 7q-56 -26 -107 -106q-59 -92 -59 -187q0 -90 79 -90q7 0 32 5q-52 45 -52 126q0 72 26 136q29 72 83 109zM385 407l36 16q17 10 17 27q0 24 -28 26
q-7 -12 -14 -12q-5 0 -5 4q0 18 47 18q12 0 22 -8.5t10 -20.5q0 -41 -84 -52q23 -28 23 -70q0 -87 -75 -191q-57 -79 -112 -117q21 -7 37 -7q84 0 187 104q43 43 114 141l-8 -25q-165 -240 -295 -240q-26 0 -58 13q-56 -28 -96 -28q-93 0 -93 109q0 106 94 220
q99 121 209 121q47 0 72 -28z" />
    <glyph glyph-name="glyph279" unicode="&#x1af;" horiz-adv-x="796" 
d="M788 615q-45 -106 -93 -250q-70 -211 -70 -301q0 -44 66 -44l-5 -20l-152 -5q14 113 80 312q62 186 118 303h-46q-18 -79 -67 -221q-67 -196 -112 -272q-78 -132 -181 -132q-69 0 -107 55q-33 48 -33 120q0 135 92 284q60 97 125 156h-23q-106 0 -174 -28
q-97 -40 -97 -131q0 -7 5 -37l-60 -20q0 138 138 198q98 43 256 43q-61 -60 -117 -174q-70 -143 -70 -267q0 -52 22 -91q26 -48 74 -48q84 0 159 136q40 73 86 208q50 148 71 236h117q27 12 27 35q0 26 -31 28q-7 -13 -16 -13q-6 0 -6 5q0 20 53 20q14 0 25 -9.5t11 -23.5
q0 -38 -65 -52z" />
    <glyph glyph-name="glyph280" unicode="&#x1b0;" horiz-adv-x="519" 
d="M462 424l-73 -228q-35 -109 -35 -135q0 -31 20 -31q46 0 138 102q57 64 102 128l-8 -25q-182 -250 -272 -250q-23 0 -36.5 16t-13.5 39q0 16 19 76l95 299l-2 2q-27 -100 -98 -230q-110 -202 -218 -202q-59 0 -59 58q0 37 24 114l29 93q30 96 30 120q0 37 -48 37h-19
l5 15l151 13l-95 -309q-17 -55 -17 -71q0 -13 11 -24t24 -11q79 0 178 189q67 128 91 213l80 13v-1q27 14 27 38q0 23 -28 25q-7 -12 -14 -12q-5 0 -5 5q0 18 47 18q32 0 32 -30q0 -38 -62 -54z" />
    <glyph glyph-name="circumflex" unicode="&#x2c6;" horiz-adv-x="250" 
d="M98 546l-9 12l165 129l55 -132l-14 -9l-62 75z" />
    <glyph glyph-name="caron" unicode="&#x2c7;" horiz-adv-x="250" 
d="M182 543l-56 132l15 9l61 -76l135 76l9 -13z" />
    <glyph glyph-name="breve" unicode="&#x2d8;" horiz-adv-x="250" 
d="M281 684h15q-10 -42 -40 -82q-42 -56 -96 -56q-72 0 -72 99q0 22 4 39h17q-1 -8 -1 -20q0 -78 60 -78q77 0 113 98z" />
    <glyph glyph-name="dotaccent" unicode="&#x2d9;" horiz-adv-x="250" 
d="M206 546q-19 0 -32.5 13.5t-13.5 32.5t13.5 32.5t32.5 13.5t32.5 -13.5t13.5 -32.5t-13.5 -32.5t-32.5 -13.5z" />
    <glyph glyph-name="ring" unicode="&#x2da;" horiz-adv-x="250" 
d="M177 531q-72 0 -72 59q0 48 34.5 81t82.5 33q78 0 78 -60q0 -49 -36.5 -81t-86.5 -32zM140 590q0 -49 41 -49q39 0 63 35q21 32 21 72q0 46 -45 46q-35 0 -57.5 -33.5t-22.5 -70.5z" />
    <glyph glyph-name="ogonek" unicode="&#x2db;" horiz-adv-x="250" 
d="M185 -95l7 -10q-33 -21 -57 -21q-56 0 -56 45q0 42 69 92l31 13q-38 -36 -42 -41q-23 -27 -23 -51q0 -38 40 -38q13 0 31 11z" />
    <glyph glyph-name="tilde" unicode="&#x2dc;" horiz-adv-x="250" 
d="M94 546v0l-11 7q34 65 84 65q20 0 51.5 -18.5t46.5 -18.5q26 0 53 38l13 -8q-32 -65 -79 -65q-16 0 -49 18.5t-50 18.5q-29 0 -59 -37z" />
    <glyph glyph-name="hungarumlaut" unicode="&#x2dd;" horiz-adv-x="250" 
d="M130 546l43 138h46l-69 -138h-20zM221 546l43 138h46l-69 -138h-20z" />
    <glyph glyph-name="glyph281" unicode="&#x1ea0;" horiz-adv-x="796" 
d="M381 254l-27 -49q-55 -99 -93 -141q-72 -79 -164 -79q-55 0 -96 28q-45 32 -45 85q0 176 361 176h47q152 237 274 348l109 25q-28 -60 -52 -148q-35 -126 -35 -227q0 -114 38 -176l-25 -24q-33 73 -33 175q0 139 82 381l-33 -6q-84 -242 -84 -423q0 -119 22 -153
q18 -28 79 -30l-5 -16l-137 -4q-19 63 -19 166q0 51 4 92h-168zM351 254h-53q-292 0 -292 -140q0 -48 33 -76t82 -28q69 0 121 61q33 39 90 147zM392 274h158q16 149 76 316l-2 2q-147 -167 -232 -318zM388 -53q-51 0 -51 46q0 21 13 35.5t34 14.5q50 0 50 -47
q0 -20 -13 -34.5t-33 -14.5z" />
    <glyph glyph-name="glyph282" unicode="&#x1ea1;" horiz-adv-x="519" 
d="M342 268l-10 3q-22 -73 -77 -158q-83 -128 -170 -128q-38 0 -60 33q-19 29 -19 69q0 97 92 219q97 129 190 129q62 0 62 -75q0 -23 -7 -55l9 -2l39 124l74 8q-23 -56 -43 -121l-31 -100q-40 -129 -40 -164q0 -20 19 -20q49 0 145 105q48 53 105 130l-8 -25
q-193 -255 -290 -255q-46 0 -46 52q0 22 17 76zM71 109q0 -29 10 -51q13 -28 38 -28q67 0 137 111q65 103 65 175q0 35 -15 57q-18 27 -51 27q-71 0 -131 -114q-53 -100 -53 -177zM170 -129q-49 0 -49 44q0 20 12.5 34t32.5 14q48 0 48 -45q0 -19 -12.5 -33t-31.5 -14z" />
    <glyph glyph-name="glyph283" unicode="&#x1ea2;" horiz-adv-x="796" 
d="M381 254l-27 -49q-55 -99 -93 -141q-72 -79 -164 -79q-55 0 -96 28q-45 32 -45 85q0 176 361 176h47q152 237 274 348l109 25q-28 -60 -52 -148q-35 -126 -35 -227q0 -114 38 -176l-25 -24q-33 73 -33 175q0 139 82 381l-33 -6q-84 -242 -84 -423q0 -119 22 -153
q18 -28 79 -30l-5 -16l-137 -4q-19 63 -19 166q0 51 4 92h-168zM351 254h-53q-292 0 -292 -140q0 -48 33 -76t82 -28q69 0 121 61q33 39 90 147zM392 274h158q16 149 76 316l-2 2q-147 -167 -232 -318zM702 667l-33 -6q-2 13 -2 17q1 33 26 50q40 19 44 22q26 16 26 37
q0 36 -38 31q-12 -2 -18 -13l-15 -29l-5 44q32 13 64 16q19 2 33 -11t14 -32q0 -32 -29 -49q-4 -2 -55 -21q-30 -11 -30 -26q0 -7 9 -18z" />
    <glyph glyph-name="glyph284" unicode="&#x1ea3;" horiz-adv-x="519" 
d="M342 268l-10 3q-22 -73 -77 -158q-83 -128 -170 -128q-38 0 -60 33q-19 29 -19 69q0 97 92 219q97 129 190 129q62 0 62 -75q0 -23 -7 -55l9 -2l39 124l74 8q-23 -56 -43 -121l-31 -100q-40 -129 -40 -164q0 -20 19 -20q49 0 145 105q48 53 105 130l-8 -25
q-193 -255 -290 -255q-46 0 -46 52q0 22 17 76zM71 109q0 -29 10 -51q13 -28 38 -28q67 0 137 111q65 103 65 175q0 35 -15 57q-18 27 -51 27q-71 0 -131 -114q-53 -100 -53 -177zM309 471l-31 -6q-2 13 -2 16q1 31 25 48l42 21q24 14 24 35q0 34 -36 29q-11 -1 -17 -13
q-11 -22 -15 -27l-4 42q26 12 60 15q18 2 31.5 -10t13.5 -30q0 -6 -1 -11q-8 -27 -36 -41l-47 -16q-24 -8 -24 -24q0 -6 7 -14q9 -13 10 -14z" />
    <glyph glyph-name="glyph285" unicode="&#x1ea4;" horiz-adv-x="796" 
d="M381 254l-27 -49q-55 -99 -93 -141q-72 -79 -164 -79q-55 0 -96 28q-45 32 -45 85q0 176 361 176h47q152 237 274 348l109 25q-28 -60 -52 -148q-35 -126 -35 -227q0 -114 38 -176l-25 -24q-33 73 -33 175q0 139 82 381l-33 -6q-84 -242 -84 -423q0 -119 22 -153
q18 -28 79 -30l-5 -16l-137 -4q-19 63 -19 166q0 51 4 92h-168zM351 254h-53q-292 0 -292 -140q0 -48 33 -76t82 -28q69 0 121 61q33 39 90 147zM392 274h158q16 149 76 316l-2 2q-147 -167 -232 -318zM587 647l-9 12l165 109l55 -112l-14 -9l-62 65zM798 712l-8 11l144 106
l13 -52z" />
    <glyph glyph-name="glyph286" unicode="&#x1ea5;" horiz-adv-x="519" 
d="M342 268l-10 3q-22 -73 -77 -158q-83 -128 -170 -128q-38 0 -60 33q-19 29 -19 69q0 97 92 219q97 129 190 129q62 0 62 -75q0 -23 -7 -55l9 -2l39 124l74 8q-23 -56 -43 -121l-31 -100q-40 -129 -40 -164q0 -20 19 -20q49 0 145 105q48 53 105 130l-8 -25
q-193 -255 -290 -255q-46 0 -46 52q0 22 17 76zM71 109q0 -29 10 -51q13 -28 38 -28q67 0 137 111q65 103 65 175q0 35 -15 57q-18 27 -51 27q-71 0 -131 -114q-53 -100 -53 -177zM204 447l-8 12l156 103l52 -106l-13 -9l-59 62zM404 509l-7 10l137 101l12 -49z" />
    <glyph glyph-name="glyph287" unicode="&#x1ea6;" horiz-adv-x="796" 
d="M381 254l-27 -49q-55 -99 -93 -141q-72 -79 -164 -79q-55 0 -96 28q-45 32 -45 85q0 176 361 176h47q152 237 274 348l109 25q-28 -60 -52 -148q-35 -126 -35 -227q0 -114 38 -176l-25 -24q-33 73 -33 175q0 139 82 381l-33 -6q-84 -242 -84 -423q0 -119 22 -153
q18 -28 79 -30l-5 -16l-137 -4q-19 63 -19 166q0 51 4 92h-168zM351 254h-53q-292 0 -292 -140q0 -48 33 -76t82 -28q69 0 121 61q33 39 90 147zM392 274h158q16 149 76 316l-2 2q-147 -167 -232 -318zM587 647l-9 12l165 109l55 -112l-14 -9l-62 65zM635 723l-8 -11
l-149 65l13 52z" />
    <glyph glyph-name="glyph288" unicode="&#x1ea7;" horiz-adv-x="519" 
d="M342 268l-10 3q-22 -73 -77 -158q-83 -128 -170 -128q-38 0 -60 33q-19 29 -19 69q0 97 92 219q97 129 190 129q62 0 62 -75q0 -23 -7 -55l9 -2l39 124l74 8q-23 -56 -43 -121l-31 -100q-40 -129 -40 -164q0 -20 19 -20q49 0 145 105q48 53 105 130l-8 -25
q-193 -255 -290 -255q-46 0 -46 52q0 22 17 76zM71 109q0 -29 10 -51q13 -28 38 -28q67 0 137 111q65 103 65 175q0 35 -15 57q-18 27 -51 27q-71 0 -131 -114q-53 -100 -53 -177zM204 448l-9 12l157 103l52 -106l-13 -9l-59 62zM249 520l-7 -10l-142 62l13 49z" />
    <glyph glyph-name="glyph289" unicode="&#x1ea8;" horiz-adv-x="796" 
d="M381 254l-27 -49q-55 -99 -93 -141q-72 -79 -164 -79q-55 0 -96 28q-45 32 -45 85q0 176 361 176h47q152 237 274 348l109 25q-28 -60 -52 -148q-35 -126 -35 -227q0 -114 38 -176l-25 -24q-33 73 -33 175q0 139 82 381l-33 -6q-84 -242 -84 -423q0 -119 22 -153
q18 -28 79 -30l-5 -16l-137 -4q-19 63 -19 166q0 51 4 92h-168zM351 254h-53q-292 0 -292 -140q0 -48 33 -76t82 -28q69 0 121 61q33 39 90 147zM392 274h158q16 149 76 316l-2 2q-147 -167 -232 -318zM587 647l-9 12l165 109l55 -112l-14 -9l-62 65zM833 718l-33 -6
q-2 13 -2 17q1 33 26 50q40 19 44 22q26 16 26 37q0 36 -38 31q-12 -2 -18 -13l-15 -29l-5 44q32 13 64 16q19 2 33 -11t14 -32q0 -32 -29 -49q-4 -2 -55 -21q-30 -11 -30 -26q0 -7 9 -18z" />
    <glyph glyph-name="glyph290" unicode="&#x1ea9;" horiz-adv-x="519" 
d="M342 268l-10 3q-22 -73 -77 -158q-83 -128 -170 -128q-38 0 -60 33q-19 29 -19 69q0 97 92 219q97 129 190 129q62 0 62 -75q0 -23 -7 -55l9 -2l39 124l74 8q-23 -56 -43 -121l-31 -100q-40 -129 -40 -164q0 -20 19 -20q49 0 145 105q48 53 105 130l-8 -25
q-193 -255 -290 -255q-46 0 -46 52q0 22 17 76zM71 109q0 -29 10 -51q13 -28 38 -28q67 0 137 111q65 103 65 175q0 35 -15 57q-18 27 -51 27q-71 0 -131 -114q-53 -100 -53 -177zM204 447l-8 11l156 103l53 -106l-14 -8l-59 61zM438 514l-31 -6q-2 13 -2 16q1 31 25 48
l42 21q24 14 24 35q0 34 -36 29q-11 -1 -17 -13q-11 -22 -15 -27l-4 42q26 12 60 15q18 2 31.5 -10t13.5 -30q0 -6 -1 -11q-8 -27 -36 -41l-47 -16q-24 -8 -24 -24q0 -6 7 -14q9 -13 10 -14z" />
    <glyph glyph-name="glyph291" unicode="&#x1eaa;" horiz-adv-x="796" 
d="M381 254l-27 -49q-55 -99 -93 -141q-72 -79 -164 -79q-55 0 -96 28q-45 32 -45 85q0 176 361 176h47q152 237 274 348l109 25q-28 -60 -52 -148q-35 -126 -35 -227q0 -114 38 -176l-25 -24q-33 73 -33 175q0 139 82 381l-33 -6q-84 -242 -84 -423q0 -119 22 -153
q18 -28 79 -30l-5 -16l-137 -4q-19 63 -19 166q0 51 4 92h-168zM351 254h-53q-292 0 -292 -140q0 -48 33 -76t82 -28q69 0 121 61q33 39 90 147zM392 274h158q16 149 76 316l-2 2q-147 -167 -232 -318zM587 647l-9 12l165 109l55 -112l-14 -9l-62 65zM640 773l-8 7
q16 20 32 41q24 25 50 24q18 -1 41 -17q20 -18 38 -19t57 38l10 -8q-51 -62 -87 -61q-11 0 -39 18t-41 19q-16 1 -31 -14q-1 -1 -22 -28z" />
    <glyph glyph-name="glyph292" unicode="&#x1eab;" horiz-adv-x="519" 
d="M342 268l-10 3q-22 -73 -77 -158q-83 -128 -170 -128q-38 0 -60 33q-19 29 -19 69q0 97 92 219q97 129 190 129q62 0 62 -75q0 -23 -7 -55l9 -2l39 124l74 8q-23 -56 -43 -121l-31 -100q-40 -129 -40 -164q0 -20 19 -20q49 0 145 105q48 53 105 130l-8 -25
q-193 -255 -290 -255q-46 0 -46 52q0 22 17 76zM71 109q0 -29 10 -51q13 -28 38 -28q67 0 137 111q65 103 65 175q0 35 -15 57q-18 27 -51 27q-71 0 -131 -114q-53 -100 -53 -177zM204 447l-8 11l156 104l52 -107l-13 -8l-59 62zM254 566l-7 7q15 19 30 39q23 24 48 23
q15 -1 39 -16q17 -17 36 -18q17 -1 54 36l9 -8q-47 -59 -82 -58q-13 0 -38 18q-11 8 -38 17q-16 1 -51 -40z" />
    <glyph glyph-name="glyph293" unicode="&#x1eac;" horiz-adv-x="796" 
d="M381 254l-27 -49q-55 -99 -93 -141q-72 -79 -164 -79q-55 0 -96 28q-45 32 -45 85q0 176 361 176h47q152 237 274 348l109 25q-28 -60 -52 -148q-35 -126 -35 -227q0 -114 38 -176l-25 -24q-33 73 -33 175q0 139 82 381l-33 -6q-84 -242 -84 -423q0 -119 22 -153
q18 -28 79 -30l-5 -16l-137 -4q-19 63 -19 166q0 51 4 92h-168zM351 254h-53q-292 0 -292 -140q0 -48 33 -76t82 -28q69 0 121 61q33 39 90 147zM392 274h158q16 149 76 316l-2 2q-147 -167 -232 -318zM587 647l-9 12l165 109l55 -112l-14 -9l-62 65zM388 -53q-51 0 -51 46
q0 21 13 35.5t34 14.5q50 0 50 -47q0 -20 -13 -34.5t-33 -14.5z" />
    <glyph glyph-name="glyph294" unicode="&#x1ead;" horiz-adv-x="519" 
d="M342 268l-10 3q-22 -73 -77 -158q-83 -128 -170 -128q-38 0 -60 33q-19 29 -19 69q0 97 92 219q97 129 190 129q62 0 62 -75q0 -23 -7 -55l9 -2l39 124l74 8q-23 -56 -43 -121l-31 -100q-40 -129 -40 -164q0 -20 19 -20q49 0 145 105q48 53 105 130l-8 -25
q-193 -255 -290 -255q-46 0 -46 52q0 22 17 76zM71 109q0 -29 10 -51q13 -28 38 -28q67 0 137 111q65 103 65 175q0 35 -15 57q-18 27 -51 27q-71 0 -131 -114q-53 -100 -53 -177zM170 -129q-49 0 -49 44q0 20 12.5 34t32.5 14q48 0 48 -45q0 -19 -12.5 -33t-31.5 -14z
M204 447l-8 12l156 103l52 -106l-13 -9l-59 62z" />
    <glyph glyph-name="glyph295" unicode="&#x1eae;" horiz-adv-x="796" 
d="M381 254l-27 -49q-55 -99 -93 -141q-72 -79 -164 -79q-55 0 -96 28q-45 32 -45 85q0 176 361 176h47q152 237 274 348l109 34q-27 -59 -52 -153q-35 -129 -35 -231q0 -114 38 -176l-25 -24q-33 73 -33 175q0 139 82 381l-33 -6q-84 -242 -84 -423q0 -119 22 -153
q18 -28 79 -30l-5 -16l-137 -4q-19 63 -19 166q0 51 4 92h-168zM351 254h-53q-292 0 -292 -140q0 -48 33 -76t82 -28q69 0 121 61q33 39 90 147zM392 274h158q16 149 76 316l-2 2q-147 -167 -232 -318zM808 759q-47 -93 -119 -93q-34 0 -54 22t-20 57q0 36 18 36q6 0 13 -3
q-2 -32 8 -51q13 -25 43 -24q61 1 99 71q4 8 9 8q6 0 6 -10q0 -7 -3 -13zM722 781l-8 11l144 106l13 -52z" />
    <glyph glyph-name="glyph296" unicode="&#x1eaf;" horiz-adv-x="519" 
d="M342 268l-10 3q-22 -73 -77 -158q-83 -128 -170 -128q-38 0 -60 33q-19 29 -19 69q0 97 92 219q97 129 190 129q62 0 62 -75q0 -23 -7 -55l9 -2l39 124l74 8q-23 -56 -43 -121l-31 -100q-40 -129 -40 -164q0 -20 19 -20q49 0 145 105q48 53 105 130l-8 -25
q-193 -255 -290 -255q-46 0 -46 52q0 22 17 76zM71 109q0 -29 10 -51q13 -28 38 -28q67 0 137 111q65 103 65 175q0 35 -15 57q-18 27 -51 27q-71 0 -131 -114q-53 -100 -53 -177zM401 543q-45 -88 -113 -88q-33 0 -52 21t-19 54q0 34 17 34q6 0 13 -3q-2 -30 8 -48
q12 -24 40 -23q59 1 94 67q4 8 9 8q6 0 6 -10q0 -6 -3 -12zM319 564l-8 10l137 101l12 -50z" />
    <glyph glyph-name="glyph297" unicode="&#x1eb0;" horiz-adv-x="796" 
d="M381 254l-27 -49q-55 -99 -93 -141q-72 -79 -164 -79q-55 0 -96 28q-45 32 -45 85q0 176 361 176h47q152 237 274 348l109 34q-27 -59 -52 -153q-35 -129 -35 -231q0 -114 38 -176l-25 -24q-33 73 -33 175q0 139 82 381l-33 -6q-84 -242 -84 -423q0 -119 22 -153
q18 -28 79 -30l-5 -16l-137 -4q-19 63 -19 166q0 51 4 92h-168zM351 254h-53q-292 0 -292 -140q0 -48 33 -76t82 -28q69 0 121 61q33 39 90 147zM392 274h158q16 149 76 316l-2 2q-147 -167 -232 -318zM808 759q-47 -93 -119 -93q-34 0 -54 22t-20 57q0 36 18 36q6 0 13 -3
q-2 -32 8 -51q13 -25 43 -24q61 1 99 71q4 8 9 8q6 0 6 -10q0 -7 -3 -13zM735 792l-8 -11l-149 65l13 52z" />
    <glyph glyph-name="glyph298" unicode="&#x1eb1;" horiz-adv-x="519" 
d="M342 268l-10 3q-22 -73 -77 -158q-83 -128 -170 -128q-38 0 -60 33q-19 29 -19 69q0 97 92 219q97 129 190 129q62 0 62 -75q0 -23 -7 -55l9 -2l39 124l74 8q-23 -56 -43 -121l-31 -100q-40 -129 -40 -164q0 -20 19 -20q49 0 145 105q48 53 105 130l-8 -25
q-193 -255 -290 -255q-46 0 -46 52q0 22 17 76zM71 109q0 -29 10 -51q13 -28 38 -28q67 0 137 111q65 103 65 175q0 35 -15 57q-18 27 -51 27q-71 0 -131 -114q-53 -100 -53 -177zM401 543q-46 -88 -113 -88q-33 0 -51.5 21t-18.5 54q0 34 17 34q6 0 12 -3q-2 -30 8 -49
q12 -23 41 -22q59 1 94 67q4 8 9 8t5 -9q0 -7 -3 -13zM332 574l-8 -10l-141 61l12 50z" />
    <glyph glyph-name="glyph299" unicode="&#x1eb2;" horiz-adv-x="796" 
d="M381 254l-27 -49q-55 -99 -93 -141q-72 -79 -164 -79q-55 0 -96 28q-45 32 -45 85q0 176 361 176h47q152 237 274 348l109 34q-27 -59 -52 -153q-35 -129 -35 -231q0 -114 38 -176l-25 -24q-33 73 -33 175q0 139 82 381l-33 -6q-84 -242 -84 -423q0 -119 22 -153
q18 -28 79 -30l-5 -16l-137 -4q-19 63 -19 166q0 51 4 92h-168zM351 254h-53q-292 0 -292 -140q0 -48 33 -76t82 -28q69 0 121 61q33 39 90 147zM392 274h158q16 149 76 316l-2 2q-147 -167 -232 -318zM808 759q-47 -93 -119 -93q-34 0 -54 22t-20 57q0 36 18 36q6 0 13 -3
q-2 -32 8 -51q13 -25 43 -24q61 1 99 71q4 8 9 8q6 0 6 -10q0 -7 -3 -13zM740 777l-33 -6q-2 13 -2 17q1 33 26 50q40 19 44 22q26 16 26 37q0 36 -38 31q-12 -2 -18 -13l-15 -29l-5 44q32 13 64 16q19 2 33 -11t14 -32q0 -32 -29 -49q-4 -2 -55 -21q-30 -11 -30 -26
q0 -7 9 -18z" />
    <glyph glyph-name="glyph300" unicode="&#x1eb3;" horiz-adv-x="519" 
d="M342 268l-10 3q-22 -73 -77 -158q-83 -128 -170 -128q-38 0 -60 33q-19 29 -19 69q0 97 92 219q97 129 190 129q62 0 62 -75q0 -23 -7 -55l9 -2l39 124l74 8q-23 -56 -43 -121l-31 -100q-40 -129 -40 -164q0 -20 19 -20q49 0 145 105q48 53 105 130l-8 -25
q-193 -255 -290 -255q-46 0 -46 52q0 22 17 76zM71 109q0 -29 10 -51q13 -28 38 -28q67 0 137 111q65 103 65 175q0 35 -15 57q-18 27 -51 27q-71 0 -131 -114q-53 -100 -53 -177zM401 544q-46 -88 -113 -88q-32 0 -51 21t-19 53q0 35 17 35q6 0 12 -3q-1 -30 9 -48
q12 -24 40 -23q59 1 94 67q4 8 9 8t5 -9q0 -7 -3 -13zM337 561l-32 -6q-1 8 -1 16q1 31 25 48l42 21q24 14 24 35q0 34 -36 29q-13 -2 -32 -40l-4 42q26 12 60 15q18 2 31.5 -10t13.5 -30q0 -6 -1 -11q-8 -27 -36 -41l-47 -16q-24 -8 -24 -24q0 -6 7 -14q9 -13 10 -14z" />
    <glyph glyph-name="glyph301" unicode="&#x1eb4;" horiz-adv-x="796" 
d="M381 254l-27 -49q-55 -99 -93 -141q-72 -79 -164 -79q-55 0 -96 28q-45 32 -45 85q0 176 361 176h47q152 237 274 348l109 34q-27 -59 -52 -153q-35 -129 -35 -231q0 -114 38 -176l-25 -24q-33 73 -33 175q0 139 82 381l-33 -6q-84 -242 -84 -423q0 -119 22 -153
q18 -28 79 -30l-5 -16l-137 -4q-19 63 -19 166q0 51 4 92h-168zM351 254h-53q-292 0 -292 -140q0 -48 33 -76t82 -28q69 0 121 61q33 39 90 147zM392 274h158q16 149 76 316l-2 2q-147 -167 -232 -318zM808 759q-47 -93 -119 -93q-34 0 -54 22t-20 57q0 36 18 36q6 0 13 -3
q-2 -32 8 -51q13 -25 43 -24q61 1 99 71q4 8 9 8q6 0 6 -10q0 -7 -3 -13zM725 776l-8 7q16 20 32 41q24 25 50 24q18 -1 41 -17q20 -18 38 -19t57 38l10 -8q-51 -62 -87 -61q-11 0 -39 18t-41 19q-16 1 -31 -14q-1 -1 -22 -28z" />
    <glyph glyph-name="glyph302" unicode="&#x1eb5;" horiz-adv-x="519" 
d="M342 268l-10 3q-22 -73 -77 -158q-83 -128 -170 -128q-38 0 -60 33q-19 29 -19 69q0 97 92 219q97 129 190 129q62 0 62 -75q0 -23 -7 -55l9 -2l39 124l74 8q-23 -56 -43 -121l-31 -100q-40 -129 -40 -164q0 -20 19 -20q49 0 145 105q48 53 105 130l-8 -25
q-193 -255 -290 -255q-46 0 -46 52q0 22 17 76zM71 109q0 -29 10 -51q13 -28 38 -28q67 0 137 111q65 103 65 175q0 35 -15 57q-18 27 -51 27q-71 0 -131 -114q-53 -100 -53 -177zM401 544q-46 -88 -113 -88q-33 0 -51.5 21.5t-18.5 54.5t16 33q6 0 13 -3q-2 -30 8 -48
q12 -24 40 -23q58 1 94 68q4 8 9 8q6 0 6 -11q0 -6 -3 -12zM322 561l-8 6q15 19 31 39q23 24 47 23q17 -1 39 -16q19 -17 36 -18q21 -1 54 36l10 -8q-47 -59 -83 -58q-9 0 -38 18q-20 16 -38 17q-19 1 -50 -39z" />
    <glyph glyph-name="glyph303" unicode="&#x1eb6;" horiz-adv-x="796" 
d="M381 254l-27 -49q-55 -99 -93 -141q-72 -79 -164 -79q-55 0 -96 28q-45 32 -45 85q0 176 361 176h47q152 237 274 348l109 34q-27 -59 -52 -153q-35 -129 -35 -231q0 -114 38 -176l-25 -24q-33 73 -33 175q0 139 82 381l-33 -6q-84 -242 -84 -423q0 -119 22 -153
q18 -28 79 -30l-5 -16l-137 -4q-19 63 -19 166q0 51 4 92h-168zM351 254h-53q-292 0 -292 -140q0 -48 33 -76t82 -28q69 0 121 61q33 39 90 147zM392 274h158q16 149 76 316l-2 2q-147 -167 -232 -318zM808 759q-47 -93 -119 -93q-34 0 -54 22t-20 57q0 36 18 36q6 0 13 -3
q-2 -32 8 -51q13 -25 43 -24q61 1 99 71q4 8 9 8q6 0 6 -10q0 -7 -3 -13zM388 -53q-51 0 -51 46q0 21 13 35.5t34 14.5q50 0 50 -47q0 -20 -13 -34.5t-33 -14.5z" />
    <glyph glyph-name="glyph304" unicode="&#x1eb7;" horiz-adv-x="519" 
d="M342 268l-10 3q-22 -73 -77 -158q-83 -128 -170 -128q-38 0 -60 33q-19 29 -19 69q0 97 92 219q97 129 190 129q62 0 62 -75q0 -23 -7 -55l9 -2l39 124l74 8q-23 -56 -43 -121l-31 -100q-40 -129 -40 -164q0 -20 19 -20q49 0 145 105q48 53 105 130l-8 -25
q-193 -255 -290 -255q-46 0 -46 52q0 22 17 76zM71 109q0 -29 10 -51q13 -28 38 -28q67 0 137 111q65 103 65 175q0 35 -15 57q-18 27 -51 27q-71 0 -131 -114q-53 -100 -53 -177zM170 -129q-49 0 -49 44q0 20 12.5 34t32.5 14q48 0 48 -45q0 -19 -12.5 -33t-31.5 -14z
M401 543q-45 -88 -113 -88q-33 0 -52 21t-19 54q0 34 17 34q6 0 13 -3q-2 -30 8 -48q12 -24 40 -23q59 1 94 67q4 8 9 8q6 0 6 -10q0 -6 -3 -12z" />
    <glyph glyph-name="glyph305" unicode="&#x1eb8;" horiz-adv-x="685" 
d="M628 59l-55 -58q-28 -6 -58 -6q-119 0 -189 35q0 7 -1 19.5t-1 19.5q0 121 64 316q39 119 81 210q-50 10 -91 10q-102 0 -171 -30q-95 -41 -95 -130q0 -14 10 -40l-60 -20q10 143 141 200q92 40 258 40q37 0 110.5 -3t110.5 -3q74 0 127 16q-23 -27 -57 -66h-10
q-58 0 -257 23q-41 -77 -91 -236h192l-34 -35q-46 15 -115 15h-50q-33 -132 -33 -214q0 -25 5 -57q64 -25 153 -25q62 0 116 19zM323 0l-130 -10q9 97 78 305q49 148 106 289h55q-61 -165 -92 -263q-56 -176 -68 -289q17 -13 51 -32zM375 -138q-51 0 -51 46q0 21 13 35.5
t34 14.5q50 0 50 -47q0 -20 -13 -34.5t-33 -14.5z" />
    <glyph glyph-name="glyph306" unicode="&#x1eb9;" horiz-adv-x="389" 
d="M486 260l-8 -25q-73 -101 -126 -149q-111 -101 -225 -101q-118 0 -118 113q0 104 90 218q95 119 196 119q63 0 63 -66q0 -71 -73 -128q-69 -55 -141 -55q-27 0 -56 8q-14 -45 -14 -80q0 -89 91 -89q96 0 201 97q42 39 120 138zM263 415q-52 0 -107 -78q-32 -45 -56 -102
q46 -29 87 -29q50 0 85 55q31 48 31 101t-40 53zM131 -149q-49 0 -49 44q0 20 12.5 34t32.5 14q48 0 48 -45q0 -19 -12.5 -33t-31.5 -14z" />
    <glyph glyph-name="glyph307" unicode="&#x1eba;" horiz-adv-x="685" 
d="M628 59l-55 -58q-28 -6 -58 -6q-119 0 -189 35q0 7 -1 19.5t-1 19.5q0 121 64 316q39 119 81 210q-50 10 -91 10q-102 0 -171 -30q-95 -41 -95 -130q0 -14 10 -40l-60 -20q10 143 141 200q92 40 258 40q37 0 110.5 -3t110.5 -3q74 0 127 16q-23 -27 -57 -66h-10
q-58 0 -257 23q-41 -77 -91 -236h192l-34 -35q-46 15 -115 15h-50q-33 -132 -33 -214q0 -25 5 -57q64 -25 153 -25q62 0 116 19zM323 0l-130 -10q9 97 78 305q49 148 106 289h55q-61 -165 -92 -263q-56 -176 -68 -289q17 -13 51 -32zM584 661l-33 -6q-2 13 -2 17q1 33 26 50
q40 19 44 22q26 16 26 37q0 36 -38 31q-12 -2 -18 -13l-15 -29l-5 44q32 13 64 16q19 2 33 -11t14 -32q0 -32 -29 -49q-4 -2 -55 -21q-30 -11 -30 -26q0 -7 9 -18z" />
    <glyph glyph-name="glyph308" unicode="&#x1ebb;" horiz-adv-x="389" 
d="M486 260l-8 -25q-73 -101 -126 -149q-111 -101 -225 -101q-118 0 -118 113q0 104 90 218q95 119 196 119q63 0 63 -66q0 -71 -73 -128q-69 -55 -141 -55q-27 0 -56 8q-14 -45 -14 -80q0 -89 91 -89q96 0 201 97q42 39 120 138zM263 415q-52 0 -107 -78q-32 -45 -56 -102
q46 -29 87 -29q50 0 85 55q31 48 31 101t-40 53zM316 471l-31 -6q-2 13 -2 16q1 31 25 48l42 21q24 14 24 35q0 34 -36 29q-11 -1 -17 -13q-11 -22 -15 -27l-4 42q26 12 60 15q18 2 31.5 -10t13.5 -30q0 -6 -1 -11q-8 -27 -36 -41l-47 -16q-24 -8 -24 -24q0 -6 7 -14
q9 -13 10 -14z" />
    <glyph glyph-name="glyph309" unicode="&#x1ebc;" horiz-adv-x="685" 
d="M628 59l-55 -58q-28 -6 -58 -6q-119 0 -189 35q0 7 -1 19.5t-1 19.5q0 121 64 316q39 119 81 210q-50 10 -91 10q-102 0 -171 -30q-95 -41 -95 -130q0 -14 10 -40l-60 -20q10 143 141 200q92 40 258 40q37 0 110.5 -3t110.5 -3q74 0 127 16q-23 -27 -57 -66h-10
q-58 0 -257 23q-41 -77 -91 -236h192l-34 -35q-46 15 -115 15h-50q-33 -132 -33 -214q0 -25 5 -57q64 -25 153 -25q62 0 116 19zM323 0l-130 -10q9 97 78 305q49 148 106 289h55q-61 -165 -92 -263q-56 -176 -68 -289q17 -13 51 -32zM493 666l-8 7q16 20 32 41q24 25 50 24
q18 -1 41 -17q20 -18 38 -19t57 38l10 -8q-51 -62 -87 -61q-11 0 -39 18t-41 19q-16 1 -31 -14q-1 -1 -22 -28z" />
    <glyph glyph-name="glyph310" unicode="&#x1ebd;" horiz-adv-x="389" 
d="M486 260l-8 -25q-73 -101 -126 -149q-111 -101 -225 -101q-118 0 -118 113q0 104 90 218q95 119 196 119q63 0 63 -66q0 -71 -73 -128q-69 -55 -141 -55q-27 0 -56 8q-14 -45 -14 -80q0 -89 91 -89q96 0 201 97q42 39 120 138zM263 415q-52 0 -107 -78q-32 -45 -56 -102
q46 -29 87 -29q50 0 85 55q31 48 31 101t-40 53zM206 472l-7 7q15 19 30 39q23 24 48 23q15 -1 39 -16q17 -17 36 -18q17 -1 54 36l9 -8q-47 -59 -82 -58q-13 0 -38 18q-11 8 -38 17q-16 1 -51 -40z" />
    <glyph glyph-name="glyph311" unicode="&#x1ebe;" horiz-adv-x="685" 
d="M628 59l-55 -58q-28 -6 -58 -6q-119 0 -189 35q0 7 -1 19.5t-1 19.5q0 121 64 316q39 119 81 210q-50 10 -91 10q-102 0 -171 -30q-95 -41 -95 -130q0 -14 10 -40l-60 -20q10 143 141 200q92 40 258 40q37 0 110.5 -3t110.5 -3q74 0 127 16q-23 -27 -57 -66h-10
q-58 0 -257 23q-41 -77 -91 -236h192l-34 -35q-46 15 -115 15h-50q-33 -132 -33 -214q0 -25 5 -57q64 -25 153 -25q62 0 116 19zM323 0l-130 -10q9 97 78 305q49 148 106 289h55q-61 -165 -92 -263q-56 -176 -68 -289q17 -13 51 -32zM484 647l-9 12l165 109l55 -112l-14 -9
l-62 65zM695 712l-8 11l144 106l13 -52z" />
    <glyph glyph-name="glyph312" unicode="&#x1ebf;" horiz-adv-x="389" 
d="M486 260l-8 -25q-73 -101 -126 -149q-111 -101 -225 -101q-118 0 -118 113q0 104 90 218q95 119 196 119q63 0 63 -66q0 -71 -73 -128q-69 -55 -141 -55q-27 0 -56 8q-14 -45 -14 -80q0 -89 91 -89q96 0 201 97q42 39 120 138zM263 415q-52 0 -107 -78q-32 -45 -56 -102
q46 -29 87 -29q50 0 85 55q31 48 31 101t-40 53zM184 435l-8 12l156 103l52 -106l-13 -9l-59 62zM384 497l-7 10l137 101l12 -49z" />
    <glyph glyph-name="glyph313" unicode="&#x1ec0;" horiz-adv-x="685" 
d="M628 59l-55 -58q-28 -6 -58 -6q-119 0 -189 35q0 7 -1 19.5t-1 19.5q0 121 64 316q39 119 81 210q-50 10 -91 10q-102 0 -171 -30q-95 -41 -95 -130q0 -14 10 -40l-60 -20q10 143 141 200q92 40 258 40q37 0 110.5 -3t110.5 -3q74 0 127 16q-23 -27 -57 -66h-10
q-58 0 -257 23q-41 -77 -91 -236h192l-34 -35q-46 15 -115 15h-50q-33 -132 -33 -214q0 -25 5 -57q64 -25 153 -25q62 0 116 19zM323 0l-130 -10q9 97 78 305q49 148 106 289h55q-61 -165 -92 -263q-56 -176 -68 -289q17 -13 51 -32zM484 647l-9 12l165 109l55 -112l-14 -9
l-62 65zM532 723l-8 -11l-149 65l13 52z" />
    <glyph glyph-name="glyph314" unicode="&#x1ec1;" horiz-adv-x="389" 
d="M486 260l-8 -25q-73 -101 -126 -149q-111 -101 -225 -101q-118 0 -118 113q0 104 90 218q95 119 196 119q63 0 63 -66q0 -71 -73 -128q-69 -55 -141 -55q-27 0 -56 8q-14 -45 -14 -80q0 -89 91 -89q96 0 201 97q42 39 120 138zM263 415q-52 0 -107 -78q-32 -45 -56 -102
q46 -29 87 -29q50 0 85 55q31 48 31 101t-40 53zM184 435l-9 12l157 103l52 -106l-13 -9l-59 62zM229 507l-7 -10l-142 62l13 49z" />
    <glyph glyph-name="glyph315" unicode="&#x1ec2;" horiz-adv-x="685" 
d="M628 59l-55 -58q-28 -6 -58 -6q-119 0 -189 35q0 7 -1 19.5t-1 19.5q0 121 64 316q39 119 81 210q-50 10 -91 10q-102 0 -171 -30q-95 -41 -95 -130q0 -14 10 -40l-60 -20q10 143 141 200q92 40 258 40q37 0 110.5 -3t110.5 -3q74 0 127 16q-23 -27 -57 -66h-10
q-58 0 -257 23q-41 -77 -91 -236h192l-34 -35q-46 15 -115 15h-50q-33 -132 -33 -214q0 -25 5 -57q64 -25 153 -25q62 0 116 19zM323 0l-130 -10q9 97 78 305q49 148 106 289h55q-61 -165 -92 -263q-56 -176 -68 -289q17 -13 51 -32zM484 647l-9 12l165 109l55 -112l-14 -9
l-62 65zM730 718l-33 -6q-2 13 -2 17q1 33 26 50q40 19 44 22q26 16 26 37q0 36 -38 31q-12 -2 -18 -13l-15 -29l-5 44q32 13 64 16q19 2 33 -11t14 -32q0 -32 -29 -49q-4 -2 -55 -21q-30 -11 -30 -26q0 -7 9 -18z" />
    <glyph glyph-name="glyph316" unicode="&#x1ec3;" horiz-adv-x="389" 
d="M486 260l-8 -25q-73 -101 -126 -149q-111 -101 -225 -101q-118 0 -118 113q0 104 90 218q95 119 196 119q63 0 63 -66q0 -71 -73 -128q-69 -55 -141 -55q-27 0 -56 8q-14 -45 -14 -80q0 -89 91 -89q96 0 201 97q42 39 120 138zM263 415q-52 0 -107 -78q-32 -45 -56 -102
q46 -29 87 -29q50 0 85 55q31 48 31 101t-40 53zM184 437l-8 11l156 103l53 -106l-14 -8l-59 61zM418 504l-31 -6q-2 13 -2 16q1 31 25 48l42 21q24 14 24 35q0 34 -36 29q-11 -1 -17 -13q-11 -22 -15 -27l-4 42q26 12 60 15q18 2 31.5 -10t13.5 -30q0 -6 -1 -11
q-8 -27 -36 -41l-47 -16q-24 -8 -24 -24q0 -6 7 -14q9 -13 10 -14z" />
    <glyph glyph-name="glyph317" unicode="&#x1ec4;" horiz-adv-x="685" 
d="M628 59l-55 -58q-28 -6 -58 -6q-119 0 -189 35q0 7 -1 19.5t-1 19.5q0 121 64 316q39 119 81 210q-50 10 -91 10q-102 0 -171 -30q-95 -41 -95 -130q0 -14 10 -40l-60 -20q10 143 141 200q92 40 258 40q37 0 110.5 -3t110.5 -3q74 0 127 16q-23 -27 -57 -66h-10
q-58 0 -257 23q-41 -77 -91 -236h192l-34 -35q-46 15 -115 15h-50q-33 -132 -33 -214q0 -25 5 -57q64 -25 153 -25q62 0 116 19zM323 0l-130 -10q9 97 78 305q49 148 106 289h55q-61 -165 -92 -263q-56 -176 -68 -289q17 -13 51 -32zM484 647l-9 12l165 109l55 -112l-14 -9
l-62 65zM537 773l-8 7q16 20 32 41q24 25 50 24q18 -1 41 -17q20 -18 38 -19t57 38l10 -8q-51 -62 -87 -61q-11 0 -39 18t-41 19q-16 1 -31 -14q-1 -1 -22 -28z" />
    <glyph glyph-name="glyph318" unicode="&#x1ec5;" horiz-adv-x="389" 
d="M486 260l-8 -25q-73 -101 -126 -149q-111 -101 -225 -101q-118 0 -118 113q0 104 90 218q95 119 196 119q63 0 63 -66q0 -71 -73 -128q-69 -55 -141 -55q-27 0 -56 8q-14 -45 -14 -80q0 -89 91 -89q96 0 201 97q42 39 120 138zM263 415q-52 0 -107 -78q-32 -45 -56 -102
q46 -29 87 -29q50 0 85 55q31 48 31 101t-40 53zM184 437l-8 11l156 104l52 -107l-13 -8l-59 62zM234 556l-7 7q15 19 30 39q23 24 48 23q15 -1 39 -16q17 -17 36 -18q17 -1 54 36l9 -8q-47 -59 -82 -58q-13 0 -38 18q-11 8 -38 17q-16 1 -51 -40z" />
    <glyph glyph-name="glyph319" unicode="&#x1ec6;" horiz-adv-x="685" 
d="M628 59l-55 -58q-28 -6 -58 -6q-119 0 -189 35q0 7 -1 19.5t-1 19.5q0 121 64 316q39 119 81 210q-50 10 -91 10q-102 0 -171 -30q-95 -41 -95 -130q0 -14 10 -40l-60 -20q10 143 141 200q92 40 258 40q37 0 110.5 -3t110.5 -3q74 0 127 16q-23 -27 -57 -66h-10
q-58 0 -257 23q-41 -77 -91 -236h192l-34 -35q-46 15 -115 15h-50q-33 -132 -33 -214q0 -25 5 -57q64 -25 153 -25q62 0 116 19zM323 0l-130 -10q9 97 78 305q49 148 106 289h55q-61 -165 -92 -263q-56 -176 -68 -289q17 -13 51 -32zM484 647l-9 12l165 109l55 -112l-14 -9
l-62 65zM375 -138q-51 0 -51 46q0 21 13 35.5t34 14.5q50 0 50 -47q0 -20 -13 -34.5t-33 -14.5z" />
    <glyph glyph-name="glyph320" unicode="&#x1ec7;" horiz-adv-x="389" 
d="M486 260l-8 -25q-73 -101 -126 -149q-111 -101 -225 -101q-118 0 -118 113q0 104 90 218q95 119 196 119q63 0 63 -66q0 -71 -73 -128q-69 -55 -141 -55q-27 0 -56 8q-14 -45 -14 -80q0 -89 91 -89q96 0 201 97q42 39 120 138zM263 415q-52 0 -107 -78q-32 -45 -56 -102
q46 -29 87 -29q50 0 85 55q31 48 31 101t-40 53zM184 435l-8 12l156 103l52 -106l-13 -9l-59 62zM131 -149q-49 0 -49 44q0 20 12.5 34t32.5 14q48 0 48 -45q0 -19 -12.5 -33t-31.5 -14z" />
    <glyph glyph-name="glyph321" unicode="&#x1ec8;" horiz-adv-x="500" 
d="M264 0l-78 -10q0 90 83 328q64 183 110 280q-20 2 -33 2q-90 0 -156 -32q-86 -42 -86 -122q0 -7 5 -42l-60 -20q10 142 128 199q87 42 248 42h65q0 -4 -24 -61q-121 -288 -121 -480q0 -53 20 -84l-41 -10q-8 22 -8 76q0 113 64 316q51 163 86 228h-33q-44 -112 -94 -272
q-66 -213 -72 -301q-1 -19 -3 -37zM456 661l-33 -6q-2 13 -2 17q1 33 26 50q40 19 44 22q26 16 26 37q0 36 -38 31q-12 -2 -18 -13l-15 -29l-5 44q32 13 64 16q19 2 33 -11t14 -32q0 -32 -29 -49q-4 -2 -55 -21q-30 -11 -30 -26q0 -7 9 -18z" />
    <glyph glyph-name="glyph322" unicode="&#x1ec9;" horiz-adv-x="241" 
d="M344 260l-8 -25q-182 -250 -272 -250q-23 0 -36.5 16t-13.5 39q0 17 19 76l38 119q33 103 33 136q0 37 -49 37h-22l5 15l157 12l-76 -239q-35 -110 -35 -135q0 -31 20 -31q46 0 138 102q57 64 102 128zM166 471l-31 -6q-2 13 -2 16q1 31 25 48l42 21q24 14 24 35
q0 34 -36 29q-11 -1 -17 -13q-11 -22 -15 -27l-4 42q26 12 60 15q18 2 31.5 -10t13.5 -30q0 -6 -1 -11q-8 -27 -36 -41l-47 -16q-24 -8 -24 -24q0 -6 7 -14q9 -13 10 -14z" />
    <glyph glyph-name="glyph323" unicode="&#x1eca;" horiz-adv-x="500" 
d="M264 0l-78 -10q0 90 83 328q64 183 110 280q-20 2 -33 2q-90 0 -156 -32q-86 -42 -86 -122q0 -7 5 -42l-60 -20q10 142 128 199q87 42 248 42h65q0 -4 -24 -61q-121 -288 -121 -480q0 -53 20 -84l-41 -10q-8 22 -8 76q0 113 64 316q51 163 86 228h-33q-44 -112 -94 -272
q-66 -213 -72 -301q-1 -19 -3 -37zM258 -136q-51 0 -51 46q0 21 13 35.5t34 14.5q50 0 50 -47q0 -20 -13 -34.5t-33 -14.5z" />
    <glyph glyph-name="glyph324" unicode="&#x1ecb;" horiz-adv-x="241" 
d="M344 260l-8 -25q-182 -250 -272 -250q-23 0 -36.5 16t-13.5 39q0 17 19 76l38 119q33 103 33 136q0 37 -49 37h-22l5 15l157 12l-76 -239q-35 -110 -35 -135q0 -31 20 -31q46 0 138 102q57 64 102 128zM192 486q-46 0 -46 43q0 48 46 48q45 0 45 -44q0 -20 -12.5 -33.5
t-32.5 -13.5zM68 -147q-49 0 -49 44q0 20 12.5 34t32.5 14q48 0 48 -45q0 -19 -12.5 -33t-31.5 -14z" />
    <glyph glyph-name="glyph325" unicode="&#x1ecc;" horiz-adv-x="685" 
d="M254 -15q-97 0 -152 57t-55 154q0 155 111 295q118 149 269 149q97 0 153.5 -54t56.5 -151q0 -159 -110 -300q-118 -150 -273 -150zM311 87q-61 0 -95 56q-29 47 -29 112q0 95 50 197q61 125 164 168l-2 5q-117 -10 -200 -166q-72 -136 -72 -265q0 -77 29 -129
q36 -65 107 -65q132 0 222 155q77 133 77 274q0 70 -25 123q-32 68 -95 68q-93 0 -163 -127q-60 -109 -60 -211q0 -57 19 -99q25 -56 75 -56q22 0 56 24zM257 -152q-51 0 -51 46q0 21 13 35.5t34 14.5q50 0 50 -47q0 -20 -13 -34.5t-33 -14.5z" />
    <glyph glyph-name="glyph326" unicode="&#x1ecd;" horiz-adv-x="463" 
d="M560 265l-8 -25q-165 -240 -295 -240q-26 0 -58 13q-56 -28 -96 -28q-93 0 -93 109q0 106 94 220q99 121 209 121q46 0 71 -27t25 -73q0 -87 -75 -191q-57 -79 -112 -117q21 -7 37 -7q84 0 187 104q43 43 114 141zM238 396l-2 7q-56 -26 -107 -106q-59 -92 -59 -187
q0 -90 79 -90q7 0 32 5q-52 45 -52 126q0 72 26 136q29 72 83 109zM144 171q0 -93 60 -135q40 31 81 98q54 89 54 173q0 93 -63 93q-58 0 -98 -89q-34 -75 -34 -140zM107 -149q-49 0 -49 44q0 20 12.5 34t32.5 14q48 0 48 -45q0 -19 -12.5 -33t-31.5 -14z" />
    <glyph glyph-name="glyph327" unicode="&#x1ece;" horiz-adv-x="685" 
d="M254 -15q-97 0 -152 57t-55 154q0 155 111 295q118 149 269 149q97 0 153.5 -54t56.5 -151q0 -159 -110 -300q-118 -150 -273 -150zM311 87q-61 0 -95 56q-29 47 -29 112q0 95 50 197q61 125 164 168l-2 5q-117 -10 -200 -166q-72 -136 -72 -265q0 -77 29 -129
q36 -65 107 -65q132 0 222 155q77 133 77 274q0 70 -25 123q-32 68 -95 68q-93 0 -163 -127q-60 -109 -60 -211q0 -57 19 -99q25 -56 75 -56q22 0 56 24zM460 676l-33 -6q-2 13 -2 17q1 33 26 50q40 19 44 22q26 16 26 37q0 36 -38 31q-12 -2 -18 -13l-15 -29l-5 44
q32 13 64 16q19 2 33 -11t14 -32q0 -32 -29 -49q-4 -2 -55 -21q-30 -11 -30 -26q0 -7 9 -18z" />
    <glyph glyph-name="glyph328" unicode="&#x1ecf;" horiz-adv-x="463" 
d="M560 265l-8 -25q-165 -240 -295 -240q-26 0 -58 13q-56 -28 -96 -28q-93 0 -93 109q0 106 94 220q99 121 209 121q46 0 71 -27t25 -73q0 -87 -75 -191q-57 -79 -112 -117q21 -7 37 -7q84 0 187 104q43 43 114 141zM238 396l-2 7q-56 -26 -107 -106q-59 -92 -59 -187
q0 -90 79 -90q7 0 32 5q-52 45 -52 126q0 72 26 136q29 72 83 109zM144 171q0 -93 60 -135q40 31 81 98q54 89 54 173q0 93 -63 93q-58 0 -98 -89q-34 -75 -34 -140zM334 471l-31 -6q-2 13 -2 16q1 31 25 48l42 21q24 14 24 35q0 34 -36 29q-11 -1 -17 -13q-11 -22 -15 -27
l-4 42q26 12 60 15q18 2 31.5 -10t13.5 -30q0 -6 -1 -11q-8 -27 -36 -41l-47 -16q-24 -8 -24 -24q0 -6 7 -14q9 -13 10 -14z" />
    <glyph glyph-name="glyph329" unicode="&#x1ed0;" horiz-adv-x="685" 
d="M254 -15q-97 0 -152 57t-55 154q0 155 111 295q118 149 269 149q97 0 153.5 -54t56.5 -151q0 -159 -110 -300q-118 -150 -273 -150zM311 87q-61 0 -95 56q-29 47 -29 112q0 95 50 197q61 125 164 168l-2 5q-117 -10 -200 -166q-72 -136 -72 -265q0 -77 29 -129
q36 -65 107 -65q132 0 222 155q77 133 77 274q0 70 -25 123q-32 68 -95 68q-93 0 -163 -127q-60 -109 -60 -211q0 -57 19 -99q25 -56 75 -56q22 0 56 24zM328 647l-9 12l165 109l55 -112l-14 -9l-62 65zM539 712l-8 11l144 106l13 -52z" />
    <glyph glyph-name="glyph330" unicode="&#x1ed1;" horiz-adv-x="463" 
d="M560 265l-8 -25q-165 -240 -295 -240q-26 0 -58 13q-56 -28 -96 -28q-93 0 -93 109q0 106 94 220q99 121 209 121q46 0 71 -27t25 -73q0 -87 -75 -191q-57 -79 -112 -117q21 -7 37 -7q84 0 187 104q43 43 114 141zM238 396l-2 7q-56 -26 -107 -106q-59 -92 -59 -187
q0 -90 79 -90q7 0 32 5q-52 45 -52 126q0 72 26 136q29 72 83 109zM144 171q0 -93 60 -135q40 31 81 98q54 89 54 173q0 93 -63 93q-58 0 -98 -89q-34 -75 -34 -140zM204 435l-8 12l156 103l52 -106l-13 -9l-59 62zM404 497l-7 10l137 101l12 -49z" />
    <glyph glyph-name="glyph331" unicode="&#x1ed2;" horiz-adv-x="685" 
d="M254 -15q-97 0 -152 57t-55 154q0 155 111 295q118 149 269 149q97 0 153.5 -54t56.5 -151q0 -159 -110 -300q-118 -150 -273 -150zM311 87q-61 0 -95 56q-29 47 -29 112q0 95 50 197q61 125 164 168l-2 5q-117 -10 -200 -166q-72 -136 -72 -265q0 -77 29 -129
q36 -65 107 -65q132 0 222 155q77 133 77 274q0 70 -25 123q-32 68 -95 68q-93 0 -163 -127q-60 -109 -60 -211q0 -57 19 -99q25 -56 75 -56q22 0 56 24zM329 647l-9 12l165 109l55 -112l-14 -9l-62 65zM377 723l-8 -11l-149 65l13 52z" />
    <glyph glyph-name="glyph332" unicode="&#x1ed3;" horiz-adv-x="463" 
d="M560 265l-8 -25q-165 -240 -295 -240q-26 0 -58 13q-56 -28 -96 -28q-93 0 -93 109q0 106 94 220q99 121 209 121q46 0 71 -27t25 -73q0 -87 -75 -191q-57 -79 -112 -117q21 -7 37 -7q84 0 187 104q43 43 114 141zM238 396l-2 7q-56 -26 -107 -106q-59 -92 -59 -187
q0 -90 79 -90q7 0 32 5q-52 45 -52 126q0 72 26 136q29 72 83 109zM144 171q0 -93 60 -135q40 31 81 98q54 89 54 173q0 93 -63 93q-58 0 -98 -89q-34 -75 -34 -140zM204 435l-9 12l157 103l52 -106l-13 -9l-59 62zM249 507l-7 -10l-142 62l13 49z" />
    <glyph glyph-name="glyph333" unicode="&#x1ed4;" horiz-adv-x="685" 
d="M254 -15q-97 0 -152 57t-55 154q0 155 111 295q118 149 269 149q97 0 153.5 -54t56.5 -151q0 -159 -110 -300q-118 -150 -273 -150zM311 87q-61 0 -95 56q-29 47 -29 112q0 95 50 197q61 125 164 168l-2 5q-117 -10 -200 -166q-72 -136 -72 -265q0 -77 29 -129
q36 -65 107 -65q132 0 222 155q77 133 77 274q0 70 -25 123q-32 68 -95 68q-93 0 -163 -127q-60 -109 -60 -211q0 -57 19 -99q25 -56 75 -56q22 0 56 24zM329 647l-9 12l165 109l55 -112l-14 -9l-62 65zM575 718l-33 -6q-2 13 -2 17q1 33 26 50q40 19 44 22q26 16 26 37
q0 36 -38 31q-12 -2 -18 -13l-15 -29l-5 44q32 13 64 16q19 2 33 -11t14 -32q0 -32 -29 -49q-4 -2 -55 -21q-30 -11 -30 -26q0 -7 9 -18z" />
    <glyph glyph-name="glyph334" unicode="&#x1ed5;" horiz-adv-x="463" 
d="M560 265l-8 -25q-165 -240 -295 -240q-26 0 -58 13q-56 -28 -96 -28q-93 0 -93 109q0 106 94 220q99 121 209 121q46 0 71 -27t25 -73q0 -87 -75 -191q-57 -79 -112 -117q21 -7 37 -7q84 0 187 104q43 43 114 141zM238 396l-2 7q-56 -26 -107 -106q-59 -92 -59 -187
q0 -90 79 -90q7 0 32 5q-52 45 -52 126q0 72 26 136q29 72 83 109zM144 171q0 -93 60 -135q40 31 81 98q54 89 54 173q0 93 -63 93q-58 0 -98 -89q-34 -75 -34 -140zM204 437l-8 11l156 103l53 -106l-14 -8l-59 61zM438 504l-31 -6q-2 13 -2 16q1 31 25 48l42 21
q24 14 24 35q0 34 -36 29q-11 -1 -17 -13q-11 -22 -15 -27l-4 42q26 12 60 15q18 2 31.5 -10t13.5 -30q0 -6 -1 -11q-8 -27 -36 -41l-47 -16q-24 -8 -24 -24q0 -6 7 -14q9 -13 10 -14z" />
    <glyph glyph-name="glyph335" unicode="&#x1ed6;" horiz-adv-x="685" 
d="M254 -15q-97 0 -152 57t-55 154q0 155 111 295q118 149 269 149q97 0 153.5 -54t56.5 -151q0 -159 -110 -300q-118 -150 -273 -150zM311 87q-61 0 -95 56q-29 47 -29 112q0 95 50 197q61 125 164 168l-2 5q-117 -10 -200 -166q-72 -136 -72 -265q0 -77 29 -129
q36 -65 107 -65q132 0 222 155q77 133 77 274q0 70 -25 123q-32 68 -95 68q-93 0 -163 -127q-60 -109 -60 -211q0 -57 19 -99q25 -56 75 -56q22 0 56 24zM329 647l-9 12l165 109l55 -112l-14 -9l-62 65zM382 773l-8 7q16 20 32 41q24 25 50 24q18 -1 41 -17q20 -18 38 -19
t57 38l10 -8q-51 -62 -87 -61q-11 0 -39 18t-41 19q-16 1 -31 -14q-1 -1 -22 -28z" />
    <glyph glyph-name="glyph336" unicode="&#x1ed7;" horiz-adv-x="463" 
d="M560 265l-8 -25q-165 -240 -295 -240q-26 0 -58 13q-56 -28 -96 -28q-93 0 -93 109q0 106 94 220q99 121 209 121q46 0 71 -27t25 -73q0 -87 -75 -191q-57 -79 -112 -117q21 -7 37 -7q84 0 187 104q43 43 114 141zM238 396l-2 7q-56 -26 -107 -106q-59 -92 -59 -187
q0 -90 79 -90q7 0 32 5q-52 45 -52 126q0 72 26 136q29 72 83 109zM144 171q0 -93 60 -135q40 31 81 98q54 89 54 173q0 93 -63 93q-58 0 -98 -89q-34 -75 -34 -140zM204 437l-8 11l156 104l52 -107l-13 -8l-59 62zM254 556l-7 7q15 19 30 39q23 24 48 23q15 -1 39 -16
q17 -17 36 -18q17 -1 54 36l9 -8q-47 -59 -82 -58q-13 0 -38 18q-11 8 -38 17q-16 1 -51 -40z" />
    <glyph glyph-name="glyph337" unicode="&#x1ed8;" horiz-adv-x="685" 
d="M254 -15q-97 0 -152 57t-55 154q0 155 111 295q118 149 269 149q97 0 153.5 -54t56.5 -151q0 -159 -110 -300q-118 -150 -273 -150zM311 87q-61 0 -95 56q-29 47 -29 112q0 95 50 197q61 125 164 168l-2 5q-117 -10 -200 -166q-72 -136 -72 -265q0 -77 29 -129
q36 -65 107 -65q132 0 222 155q77 133 77 274q0 70 -25 123q-32 68 -95 68q-93 0 -163 -127q-60 -109 -60 -211q0 -57 19 -99q25 -56 75 -56q22 0 56 24zM328 647l-9 12l165 109l55 -112l-14 -9l-62 65zM257 -152q-51 0 -51 46q0 21 13 35.5t34 14.5q50 0 50 -47
q0 -20 -13 -34.5t-33 -14.5z" />
    <glyph glyph-name="glyph338" unicode="&#x1ed9;" horiz-adv-x="463" 
d="M560 265l-8 -25q-165 -240 -295 -240q-26 0 -58 13q-56 -28 -96 -28q-93 0 -93 109q0 106 94 220q99 121 209 121q46 0 71 -27t25 -73q0 -87 -75 -191q-57 -79 -112 -117q21 -7 37 -7q84 0 187 104q43 43 114 141zM238 396l-2 7q-56 -26 -107 -106q-59 -92 -59 -187
q0 -90 79 -90q7 0 32 5q-52 45 -52 126q0 72 26 136q29 72 83 109zM144 171q0 -93 60 -135q40 31 81 98q54 89 54 173q0 93 -63 93q-58 0 -98 -89q-34 -75 -34 -140zM204 435l-8 12l156 103l52 -106l-13 -9l-59 62zM107 -149q-49 0 -49 44q0 20 12.5 34t32.5 14q48 0 48 -45
q0 -19 -12.5 -33t-31.5 -14z" />
    <glyph glyph-name="glyph339" unicode="&#x1eda;" horiz-adv-x="685" 
d="M254 -15q-97 0 -152 57t-55 154q0 155 111 295q118 149 269 149q97 0 153.5 -54t56.5 -151q0 -159 -110 -300q-118 -150 -273 -150zM311 87q-61 0 -95 56q-29 47 -29 112q0 95 50 197q61 125 164 168l-2 5q-117 -10 -200 -166q-72 -136 -72 -265q0 -77 29 -129
q36 -65 107 -65q132 0 222 155q77 133 77 274q0 70 -25 123q-32 68 -95 68q-93 0 -163 -127q-60 -109 -60 -211q0 -57 19 -99q25 -56 75 -56q22 0 56 24zM617 700q14 0 25 -9.5t11 -23.5q0 -46 -102 -59l41 19q25 15 25 33q0 26 -31 28q-7 -13 -16 -13q-6 0 -6 5q0 20 53 20
zM427 680l-8 11l144 106l13 -52z" />
    <glyph glyph-name="glyph340" unicode="&#x1edb;" horiz-adv-x="463" 
d="M144 171q0 -93 60 -135q40 31 81 98q54 89 54 173q0 93 -63 93q-58 0 -98 -89q-34 -75 -34 -140zM238 396l-2 7q-56 -26 -107 -106q-59 -92 -59 -187q0 -90 79 -90q7 0 32 5q-52 45 -52 126q0 72 26 136q29 72 83 109zM313 475l-7 10l137 101l12 -49zM385 407l36 16
q17 10 17 27q0 24 -28 26q-7 -12 -14 -12q-5 0 -5 4q0 18 47 18q12 0 22 -8.5t10 -20.5q0 -41 -84 -52q23 -28 23 -70q0 -87 -75 -191q-57 -79 -112 -117q21 -7 37 -7q84 0 187 104q43 43 114 141l-8 -25q-165 -240 -295 -240q-26 0 -58 13q-56 -28 -96 -28q-93 0 -93 109
q0 106 94 220q99 121 209 121q47 0 72 -28z" />
    <glyph glyph-name="glyph341" unicode="&#x1edc;" horiz-adv-x="685" 
d="M254 -15q-97 0 -152 57t-55 154q0 155 111 295q118 149 269 149q97 0 153.5 -54t56.5 -151q0 -159 -110 -300q-118 -150 -273 -150zM311 87q-61 0 -95 56q-29 47 -29 112q0 95 50 197q61 125 164 168l-2 5q-117 -10 -200 -166q-72 -136 -72 -265q0 -77 29 -129
q36 -65 107 -65q132 0 222 155q77 133 77 274q0 70 -25 123q-32 68 -95 68q-93 0 -163 -127q-60 -109 -60 -211q0 -57 19 -99q25 -56 75 -56q22 0 56 24zM617 700q14 0 25 -9.5t11 -23.5q0 -46 -102 -59l41 19q25 15 25 33q0 26 -31 28q-7 -13 -16 -13q-6 0 -6 5q0 20 53 20
zM435 691l-8 -11l-149 65l13 52z" />
    <glyph glyph-name="glyph342" unicode="&#x1edd;" horiz-adv-x="463" 
d="M144 171q0 -93 60 -135q40 31 81 98q54 89 54 173q0 93 -63 93q-58 0 -98 -89q-34 -75 -34 -140zM238 396l-2 7q-56 -26 -107 -106q-59 -92 -59 -187q0 -90 79 -90q7 0 32 5q-52 45 -52 126q0 72 26 136q29 72 83 109zM385 407l36 16q17 10 17 27q0 24 -28 26
q-7 -12 -14 -12q-5 0 -5 4q0 18 47 18q12 0 22 -8.5t10 -20.5q0 -41 -84 -52q23 -28 23 -70q0 -87 -75 -191q-57 -79 -112 -117q21 -7 37 -7q84 0 187 104q43 43 114 141l-8 -25q-165 -240 -295 -240q-26 0 -58 13q-56 -28 -96 -28q-93 0 -93 109q0 106 94 220
q99 121 209 121q47 0 72 -28zM320 485l-7 -10l-142 62l13 49z" />
    <glyph glyph-name="glyph343" unicode="&#x1ede;" horiz-adv-x="685" 
d="M254 -15q-97 0 -152 57t-55 154q0 155 111 295q118 149 269 149q97 0 153.5 -54t56.5 -151q0 -159 -110 -300q-118 -150 -273 -150zM311 87q-61 0 -95 56q-29 47 -29 112q0 95 50 197q61 125 164 168l-2 5q-117 -10 -200 -166q-72 -136 -72 -265q0 -77 29 -129
q36 -65 107 -65q132 0 222 155q77 133 77 274q0 70 -25 123q-32 68 -95 68q-93 0 -163 -127q-60 -109 -60 -211q0 -57 19 -99q25 -56 75 -56q22 0 56 24zM617 700q14 0 25 -9.5t11 -23.5q0 -46 -102 -59l41 19q25 15 25 33q0 26 -31 28q-7 -13 -16 -13q-6 0 -6 5q0 20 53 20
zM460 676l-33 -6q-2 13 -2 17q1 33 26 50q40 19 44 22q26 16 26 37q0 36 -38 31q-12 -2 -18 -13l-15 -29l-5 44q32 13 64 16q19 2 33 -11t14 -32q0 -32 -29 -49q-4 -2 -55 -21q-30 -11 -30 -26q0 -7 9 -18z" />
    <glyph glyph-name="glyph344" unicode="&#x1edf;" horiz-adv-x="463" 
d="M144 171q0 -93 60 -135q40 31 81 98q54 89 54 173q0 93 -63 93q-58 0 -98 -89q-34 -75 -34 -140zM238 396l-2 7q-56 -26 -107 -106q-59 -92 -59 -187q0 -90 79 -90q7 0 32 5q-52 45 -52 126q0 72 26 136q29 72 83 109zM385 407l36 16q17 10 17 27q0 24 -28 26
q-7 -12 -14 -12q-5 0 -5 4q0 18 47 18q12 0 22 -8.5t10 -20.5q0 -41 -84 -52q23 -28 23 -70q0 -87 -75 -191q-57 -79 -112 -117q21 -7 37 -7q84 0 187 104q43 43 114 141l-8 -25q-165 -240 -295 -240q-26 0 -58 13q-56 -28 -96 -28q-93 0 -93 109q0 106 94 220
q99 121 209 121q47 0 72 -28zM334 471l-31 -6q-2 13 -2 16q1 31 25 48l42 21q24 14 24 35q0 34 -36 29q-11 -1 -17 -13q-11 -22 -15 -27l-4 42q26 12 60 15q18 2 31.5 -10t13.5 -30q0 -6 -1 -11q-8 -27 -36 -41l-47 -16q-24 -8 -24 -24q0 -6 7 -14q9 -13 10 -14z" />
    <glyph glyph-name="glyph345" unicode="&#x1ee0;" horiz-adv-x="685" 
d="M254 -15q-97 0 -152 57t-55 154q0 155 111 295q118 149 269 149q97 0 153.5 -54t56.5 -151q0 -159 -110 -300q-118 -150 -273 -150zM311 87q-61 0 -95 56q-29 47 -29 112q0 95 50 197q61 125 164 168l-2 5q-117 -10 -200 -166q-72 -136 -72 -265q0 -77 29 -129
q36 -65 107 -65q132 0 222 155q77 133 77 274q0 70 -25 123q-32 68 -95 68q-93 0 -163 -127q-60 -109 -60 -211q0 -57 19 -99q25 -56 75 -56q22 0 56 24zM617 700q14 0 25 -9.5t11 -23.5q0 -46 -102 -59l41 19q25 15 25 33q0 26 -31 28q-7 -13 -16 -13q-6 0 -6 5q0 20 53 20
zM360 678l-8 7q16 20 32 41q24 25 50 24q18 -1 41 -17q20 -18 38 -19t57 38l10 -8q-51 -62 -87 -61q-11 0 -39 18t-41 19q-16 1 -31 -14q-1 -1 -22 -28z" />
    <glyph glyph-name="glyph346" unicode="&#x1ee1;" horiz-adv-x="463" 
d="M144 171q0 -93 60 -135q40 31 81 98q54 89 54 173q0 93 -63 93q-58 0 -98 -89q-34 -75 -34 -140zM238 396l-2 7q-56 -26 -107 -106q-59 -92 -59 -187q0 -90 79 -90q7 0 32 5q-52 45 -52 126q0 72 26 136q29 72 83 109zM385 407l36 16q17 10 17 27q0 24 -28 26
q-7 -12 -14 -12q-5 0 -5 4q0 18 47 18q12 0 22 -8.5t10 -20.5q0 -41 -84 -52q23 -28 23 -70q0 -87 -75 -191q-57 -79 -112 -117q21 -7 37 -7q84 0 187 104q43 43 114 141l-8 -25q-165 -240 -295 -240q-26 0 -58 13q-56 -28 -96 -28q-93 0 -93 109q0 106 94 220
q99 121 209 121q47 0 72 -28zM224 472l-7 7q15 19 30 39q23 24 48 23q15 -1 39 -16q17 -17 36 -18q17 -1 54 36l9 -8q-47 -59 -82 -58q-13 0 -38 18q-11 8 -38 17q-16 1 -51 -40z" />
    <glyph glyph-name="glyph347" unicode="&#x1ee2;" horiz-adv-x="685" 
d="M254 -15q-97 0 -152 57t-55 154q0 155 111 295q118 149 269 149q97 0 153.5 -54t56.5 -151q0 -159 -110 -300q-118 -150 -273 -150zM311 87q-61 0 -95 56q-29 47 -29 112q0 95 50 197q61 125 164 168l-2 5q-117 -10 -200 -166q-72 -136 -72 -265q0 -77 29 -129
q36 -65 107 -65q132 0 222 155q77 133 77 274q0 70 -25 123q-32 68 -95 68q-93 0 -163 -127q-60 -109 -60 -211q0 -57 19 -99q25 -56 75 -56q22 0 56 24zM617 700q14 0 25 -9.5t11 -23.5q0 -46 -102 -59l41 19q25 15 25 33q0 26 -31 28q-7 -13 -16 -13q-6 0 -6 5q0 20 53 20
zM257 -152q-51 0 -51 46q0 21 13 35.5t34 14.5q50 0 50 -47q0 -20 -13 -34.5t-33 -14.5z" />
    <glyph glyph-name="glyph348" unicode="&#x1ee3;" horiz-adv-x="463" 
d="M144 171q0 -93 60 -135q40 31 81 98q54 89 54 173q0 93 -63 93q-58 0 -98 -89q-34 -75 -34 -140zM238 396l-2 7q-56 -26 -107 -106q-59 -92 -59 -187q0 -90 79 -90q7 0 32 5q-52 45 -52 126q0 72 26 136q29 72 83 109zM385 407l36 16q17 10 17 27q0 24 -28 26
q-7 -12 -14 -12q-5 0 -5 4q0 18 47 18q12 0 22 -8.5t10 -20.5q0 -41 -84 -52q23 -28 23 -70q0 -87 -75 -191q-57 -79 -112 -117q21 -7 37 -7q84 0 187 104q43 43 114 141l-8 -25q-165 -240 -295 -240q-26 0 -58 13q-56 -28 -96 -28q-93 0 -93 109q0 106 94 220
q99 121 209 121q47 0 72 -28zM107 -149q-49 0 -49 44q0 20 12.5 34t32.5 14q48 0 48 -45q0 -19 -12.5 -33t-31.5 -14z" />
    <glyph glyph-name="glyph349" unicode="&#x1ee4;" horiz-adv-x="796" 
d="M732 610h-46q-18 -79 -67 -221q-67 -196 -112 -272q-78 -132 -181 -132q-69 0 -107 55q-33 48 -33 120q0 135 92 284q60 97 125 156h-23q-106 0 -174 -28q-97 -40 -97 -131q0 -7 5 -37l-60 -20q0 138 138 198q98 43 256 43q-61 -60 -117 -174q-70 -143 -70 -267
q0 -52 22 -91q26 -48 74 -48q84 0 159 136q40 73 86 208q50 148 71 236h120q-31 -65 -90 -238q-78 -228 -78 -323q0 -44 66 -44l-5 -20l-152 -5q14 113 80 312q62 186 118 303zM329 -152q-51 0 -51 46q0 21 13 35.5t34 14.5q50 0 50 -47q0 -20 -13 -34.5t-33 -14.5z" />
    <glyph glyph-name="glyph350" unicode="&#x1ee5;" horiz-adv-x="519" 
d="M303 116l95 299l-2 2q-27 -100 -98 -230q-110 -202 -218 -202q-59 0 -59 58q0 37 24 114l29 93q30 96 30 120q0 37 -48 37h-19l5 15l151 13l-95 -309q-17 -55 -17 -71q0 -13 11 -24t24 -11q79 0 178 189q67 128 91 213l80 13l-76 -239q-35 -110 -35 -135q0 -31 20 -31
q46 0 138 102q57 64 102 128l-8 -25q-182 -250 -272 -250q-23 0 -36.5 16t-13.5 39q0 16 19 76zM167 -127q-49 0 -49 44q0 20 12.5 34t32.5 14q48 0 48 -45q0 -19 -12.5 -33t-31.5 -14z" />
    <glyph glyph-name="glyph351" unicode="&#x1ee6;" horiz-adv-x="796" 
d="M732 610h-46q-18 -79 -67 -221q-67 -196 -112 -272q-78 -132 -181 -132q-69 0 -107 55q-33 48 -33 120q0 135 92 284q60 97 125 156h-23q-106 0 -174 -28q-97 -40 -97 -131q0 -7 5 -37l-60 -20q0 138 138 198q98 43 256 43q-61 -60 -117 -174q-70 -143 -70 -267
q0 -52 22 -91q26 -48 74 -48q84 0 159 136q40 73 86 208q50 148 71 236h120q-31 -65 -90 -238q-78 -228 -78 -323q0 -44 66 -44l-5 -20l-152 -5q14 113 80 312q62 186 118 303zM571 643l-33 -6q-2 13 -2 17q1 33 26 50q40 19 44 22q26 16 26 37q0 36 -38 31q-12 -2 -18 -13
l-15 -29l-5 44q32 13 64 16q19 2 33 -11t14 -32q0 -32 -29 -49q-4 -2 -55 -21q-30 -11 -30 -26q0 -7 9 -18z" />
    <glyph glyph-name="glyph352" unicode="&#x1ee7;" horiz-adv-x="519" 
d="M303 116l95 299l-2 2q-27 -100 -98 -230q-110 -202 -218 -202q-59 0 -59 58q0 37 24 114l29 93q30 96 30 120q0 37 -48 37h-19l5 15l151 13l-95 -309q-17 -55 -17 -71q0 -13 11 -24t24 -11q79 0 178 189q67 128 91 213l80 13l-76 -239q-35 -110 -35 -135q0 -31 20 -31
q46 0 138 102q57 64 102 128l-8 -25q-182 -250 -272 -250q-23 0 -36.5 16t-13.5 39q0 16 19 76zM310 441l-31 -6q-2 13 -2 16q1 31 25 48l42 21q24 14 24 35q0 34 -36 29q-11 -1 -17 -13q-11 -22 -15 -27l-4 42q26 12 60 15q18 2 31.5 -10t13.5 -30q0 -6 -1 -11
q-8 -27 -36 -41l-47 -16q-24 -8 -24 -24q0 -6 7 -14q9 -13 10 -14z" />
    <glyph glyph-name="glyph353" unicode="&#x1ee8;" horiz-adv-x="796" 
d="M788 615q-45 -106 -93 -250q-70 -211 -70 -301q0 -44 66 -44l-5 -20l-152 -5q14 113 80 312q62 186 118 303h-46q-18 -79 -67 -221q-67 -196 -112 -272q-78 -132 -181 -132q-69 0 -107 55q-33 48 -33 120q0 135 92 284q60 97 125 156h-23q-106 0 -174 -28
q-97 -40 -97 -131q0 -7 5 -37l-60 -20q0 138 138 198q98 43 256 43q-61 -60 -117 -174q-70 -143 -70 -267q0 -52 22 -91q26 -48 74 -48q84 0 159 136q40 73 86 208q50 148 71 236h117q27 12 27 35q0 26 -31 28q-7 -13 -16 -13q-6 0 -6 5q0 20 53 20q14 0 25 -9.5t11 -23.5
q0 -38 -65 -52zM558 645l-8 11l144 106l13 -52z" />
    <glyph glyph-name="glyph354" unicode="&#x1ee9;" horiz-adv-x="519" 
d="M462 424l-73 -228q-35 -109 -35 -135q0 -31 20 -31q46 0 138 102q57 64 102 128l-8 -25q-182 -250 -272 -250q-23 0 -36.5 16t-13.5 39q0 16 19 76l95 299l-2 2q-27 -100 -98 -230q-110 -202 -218 -202q-59 0 -59 58q0 37 24 114l29 93q30 96 30 120q0 37 -48 37h-19
l5 15l151 13l-95 -309q-17 -55 -17 -71q0 -13 11 -24t24 -11q79 0 178 189q67 128 91 213l80 13v-1q27 14 27 38q0 23 -28 25q-7 -12 -14 -12q-5 0 -5 5q0 18 47 18q32 0 32 -30q0 -38 -62 -54zM289 448l-7 10l137 101l12 -49z" />
    <glyph glyph-name="glyph355" unicode="&#x1eea;" horiz-adv-x="796" 
d="M788 615q-45 -106 -93 -250q-70 -211 -70 -301q0 -44 66 -44l-5 -20l-152 -5q14 113 80 312q62 186 118 303h-46q-18 -79 -67 -221q-67 -196 -112 -272q-78 -132 -181 -132q-69 0 -107 55q-33 48 -33 120q0 135 92 284q60 97 125 156h-23q-106 0 -174 -28
q-97 -40 -97 -131q0 -7 5 -37l-60 -20q0 138 138 198q98 43 256 43q-61 -60 -117 -174q-70 -143 -70 -267q0 -52 22 -91q26 -48 74 -48q84 0 159 136q40 73 86 208q50 148 71 236h117q27 12 27 35q0 26 -31 28q-7 -13 -16 -13q-6 0 -6 5q0 20 53 20q14 0 25 -9.5t11 -23.5
q0 -38 -65 -52zM566 656l-8 -11l-149 65l13 52z" />
    <glyph glyph-name="glyph356" unicode="&#x1eeb;" horiz-adv-x="519" 
d="M462 424l-73 -228q-35 -109 -35 -135q0 -31 20 -31q46 0 138 102q57 64 102 128l-8 -25q-182 -250 -272 -250q-23 0 -36.5 16t-13.5 39q0 16 19 76l95 299l-2 2q-27 -100 -98 -230q-110 -202 -218 -202q-59 0 -59 58q0 37 24 114l29 93q30 96 30 120q0 37 -48 37h-19
l5 15l151 13l-95 -309q-17 -55 -17 -71q0 -13 11 -24t24 -11q79 0 178 189q67 128 91 213l80 13v-1q27 14 27 38q0 23 -28 25q-7 -12 -14 -12q-5 0 -5 5q0 18 47 18q32 0 32 -30q0 -38 -62 -54zM296 458l-7 -10l-142 62l13 49z" />
    <glyph glyph-name="glyph357" unicode="&#x1eec;" horiz-adv-x="796" 
d="M788 615q-45 -106 -93 -250q-70 -211 -70 -301q0 -44 66 -44l-5 -20l-152 -5q14 113 80 312q62 186 118 303h-46q-18 -79 -67 -221q-67 -196 -112 -272q-78 -132 -181 -132q-69 0 -107 55q-33 48 -33 120q0 135 92 284q60 97 125 156h-23q-106 0 -174 -28
q-97 -40 -97 -131q0 -7 5 -37l-60 -20q0 138 138 198q98 43 256 43q-61 -60 -117 -174q-70 -143 -70 -267q0 -52 22 -91q26 -48 74 -48q84 0 159 136q40 73 86 208q50 148 71 236h117q27 12 27 35q0 26 -31 28q-7 -13 -16 -13q-6 0 -6 5q0 20 53 20q14 0 25 -9.5t11 -23.5
q0 -38 -65 -52zM571 643l-33 -6q-2 13 -2 17q1 33 26 50q40 19 44 22q26 16 26 37q0 36 -38 31q-12 -2 -18 -13l-15 -29l-5 44q32 13 64 16q19 2 33 -11t14 -32q0 -32 -29 -49q-4 -2 -55 -21q-30 -11 -30 -26q0 -7 9 -18z" />
    <glyph glyph-name="glyph358" unicode="&#x1eed;" horiz-adv-x="519" 
d="M462 424l-73 -228q-35 -109 -35 -135q0 -31 20 -31q46 0 138 102q57 64 102 128l-8 -25q-182 -250 -272 -250q-23 0 -36.5 16t-13.5 39q0 16 19 76l95 299l-2 2q-27 -100 -98 -230q-110 -202 -218 -202q-59 0 -59 58q0 37 24 114l29 93q30 96 30 120q0 37 -48 37h-19
l5 15l151 13l-95 -309q-17 -55 -17 -71q0 -13 11 -24t24 -11q79 0 178 189q67 128 91 213l80 13v-1q27 14 27 38q0 23 -28 25q-7 -12 -14 -12q-5 0 -5 5q0 18 47 18q32 0 32 -30q0 -38 -62 -54zM310 441l-31 -6q-2 13 -2 16q1 31 25 48l42 21q24 14 24 35q0 34 -36 29
q-11 -1 -17 -13q-11 -22 -15 -27l-4 42q26 12 60 15q18 2 31.5 -10t13.5 -30q0 -6 -1 -11q-8 -27 -36 -41l-47 -16q-24 -8 -24 -24q0 -6 7 -14q9 -13 10 -14z" />
    <glyph glyph-name="glyph359" unicode="&#x1eee;" horiz-adv-x="796" 
d="M788 615q-45 -106 -93 -250q-70 -211 -70 -301q0 -44 66 -44l-5 -20l-152 -5q14 113 80 312q62 186 118 303h-46q-18 -79 -67 -221q-67 -196 -112 -272q-78 -132 -181 -132q-69 0 -107 55q-33 48 -33 120q0 135 92 284q60 97 125 156h-23q-106 0 -174 -28
q-97 -40 -97 -131q0 -7 5 -37l-60 -20q0 138 138 198q98 43 256 43q-61 -60 -117 -174q-70 -143 -70 -267q0 -52 22 -91q26 -48 74 -48q84 0 159 136q40 73 86 208q50 148 71 236h117q27 12 27 35q0 26 -31 28q-7 -13 -16 -13q-6 0 -6 5q0 20 53 20q14 0 25 -9.5t11 -23.5
q0 -38 -65 -52zM480 648l-8 7q16 20 32 41q24 25 50 24q18 -1 41 -17q20 -18 38 -19t57 38l10 -8q-51 -62 -87 -61q-11 0 -39 18t-41 19q-16 1 -31 -14q-1 -1 -22 -28z" />
    <glyph glyph-name="glyph360" unicode="&#x1eef;" horiz-adv-x="519" 
d="M462 424l-73 -228q-35 -109 -35 -135q0 -31 20 -31q46 0 138 102q57 64 102 128l-8 -25q-182 -250 -272 -250q-23 0 -36.5 16t-13.5 39q0 16 19 76l95 299l-2 2q-27 -100 -98 -230q-110 -202 -218 -202q-59 0 -59 58q0 37 24 114l29 93q30 96 30 120q0 37 -48 37h-19
l5 15l151 13l-95 -309q-17 -55 -17 -71q0 -13 11 -24t24 -11q79 0 178 189q67 128 91 213l80 13v-1q27 14 27 38q0 23 -28 25q-7 -12 -14 -12q-5 0 -5 5q0 18 47 18q32 0 32 -30q0 -38 -62 -54zM214 453l-7 7q15 19 30 39q23 24 48 23q15 -1 39 -16q17 -17 36 -18
q17 -1 54 36l9 -8q-47 -59 -82 -58q-13 0 -38 18q-11 8 -38 17q-16 1 -51 -40z" />
    <glyph glyph-name="glyph361" unicode="&#x1ef0;" horiz-adv-x="796" 
d="M788 615q-45 -106 -93 -250q-70 -211 -70 -301q0 -44 66 -44l-5 -20l-152 -5q14 113 80 312q62 186 118 303h-46q-18 -79 -67 -221q-67 -196 -112 -272q-78 -132 -181 -132q-69 0 -107 55q-33 48 -33 120q0 135 92 284q60 97 125 156h-23q-106 0 -174 -28
q-97 -40 -97 -131q0 -7 5 -37l-60 -20q0 138 138 198q98 43 256 43q-61 -60 -117 -174q-70 -143 -70 -267q0 -52 22 -91q26 -48 74 -48q84 0 159 136q40 73 86 208q50 148 71 236h117q27 12 27 35q0 26 -31 28q-7 -13 -16 -13q-6 0 -6 5q0 20 53 20q14 0 25 -9.5t11 -23.5
q0 -38 -65 -52zM329 -152q-51 0 -51 46q0 21 13 35.5t34 14.5q50 0 50 -47q0 -20 -13 -34.5t-33 -14.5z" />
    <glyph glyph-name="glyph362" unicode="&#x1ef1;" horiz-adv-x="519" 
d="M462 424l-73 -228q-35 -109 -35 -135q0 -31 20 -31q46 0 138 102q57 64 102 128l-8 -25q-182 -250 -272 -250q-23 0 -36.5 16t-13.5 39q0 16 19 76l95 299l-2 2q-27 -100 -98 -230q-110 -202 -218 -202q-59 0 -59 58q0 37 24 114l29 93q30 96 30 120q0 37 -48 37h-19
l5 15l151 13l-95 -309q-17 -55 -17 -71q0 -13 11 -24t24 -11q79 0 178 189q67 128 91 213l80 13v-1q27 14 27 38q0 23 -28 25q-7 -12 -14 -12q-5 0 -5 5q0 18 47 18q32 0 32 -30q0 -38 -62 -54zM167 -127q-49 0 -49 44q0 20 12.5 34t32.5 14q48 0 48 -45q0 -19 -12.5 -33
t-31.5 -14z" />
    <glyph glyph-name="glyph363" unicode="&#x1ef2;" horiz-adv-x="630" 
d="M650 625l-154 -500q-98 -318 -328 -318q-119 0 -161 73l69 44v-7q-1 -5 -1 -7q0 -46 39 -69q32 -19 82 -19q104 0 185 161q46 92 104 290l98 337h-23q-27 -133 -82 -278q-95 -251 -196 -251q-49 0 -68 47q-13 31 -17 113l-8 149q-7 138 -16 167q-14 48 -63 48h-17l6 20
l130 5q11 -69 20 -240l9 -164q3 -51 9 -69q9 -26 36 -26q80 0 167 233q58 155 78 261h102zM396 656l-8 -11l-149 65l13 52z" />
    <glyph glyph-name="glyph364" unicode="&#x1ef3;" 
d="M640 265l-8 -25q-52 -78 -120 -146q-98 -99 -167 -106q-32 -95 -68 -140q-75 -93 -207 -93q-59 0 -103 22q-55 28 -55 81q0 104 201 171q-13 36 -15 91l-8 179q-3 78 -19 96q-11 13 -61 15l5 20l126 5q4 -19 6 -69l8 -179q3 -76 9 -110q7 -42 29 -42q48 0 125 185
q41 99 74 205l93 10l-130 -415q115 17 285 245zM413 417h-11q-60 -178 -83 -231q-86 -201 -154 -201q-30 0 -47 33q-58 -21 -98 -54q-53 -43 -53 -93q0 -48 44 -74q37 -22 88 -22q73 0 117 60q36 48 71 165zM273 445l-7 -10l-142 62l13 49z" />
    <glyph glyph-name="glyph365" unicode="&#x1ef4;" horiz-adv-x="630" 
d="M650 625l-154 -500q-98 -318 -328 -318q-119 0 -161 73l69 44v-7q-1 -5 -1 -7q0 -46 39 -69q32 -19 82 -19q104 0 185 161q46 92 104 290l98 337h-23q-27 -133 -82 -278q-95 -251 -196 -251q-49 0 -68 47q-13 31 -17 113l-8 149q-7 138 -16 167q-14 48 -63 48h-17l6 20
l130 5q11 -69 20 -240l9 -164q3 -51 9 -69q9 -26 36 -26q80 0 167 233q58 155 78 261h102zM286 -55q-51 0 -51 46q0 21 13 35.5t34 14.5q50 0 50 -47q0 -20 -13 -34.5t-33 -14.5z" />
    <glyph glyph-name="glyph366" unicode="&#x1ef5;" 
d="M640 265l-8 -25q-52 -78 -120 -146q-98 -99 -167 -106q-32 -95 -68 -140q-75 -93 -207 -93q-59 0 -103 22q-55 28 -55 81q0 104 201 171q-13 36 -15 91l-8 179q-3 78 -19 96q-11 13 -61 15l5 20l126 5q4 -19 6 -69l8 -179q3 -76 9 -110q7 -42 29 -42q48 0 125 185
q41 99 74 205l93 10l-130 -415q115 17 285 245zM413 417h-11q-60 -178 -83 -231q-86 -201 -154 -201q-30 0 -47 33q-58 -21 -98 -54q-53 -43 -53 -93q0 -48 44 -74q37 -22 88 -22q73 0 117 60q36 48 71 165zM409 -146q-49 0 -49 44q0 20 12.5 34t32.5 14q48 0 48 -45
q0 -19 -12.5 -33t-31.5 -14z" />
    <glyph glyph-name="glyph367" unicode="&#x1ef6;" horiz-adv-x="630" 
d="M650 625l-154 -500q-98 -318 -328 -318q-119 0 -161 73l69 44v-7q-1 -5 -1 -7q0 -46 39 -69q32 -19 82 -19q104 0 185 161q46 92 104 290l98 337h-23q-27 -133 -82 -278q-95 -251 -196 -251q-49 0 -68 47q-13 31 -17 113l-8 149q-7 138 -16 167q-14 48 -63 48h-17l6 20
l130 5q11 -69 20 -240l9 -164q3 -51 9 -69q9 -26 36 -26q80 0 167 233q58 155 78 261h102zM411 633l-33 -6q-2 13 -2 17q1 33 26 50q40 19 44 22q26 16 26 37q0 36 -38 31q-12 -2 -18 -13l-15 -29l-5 44q32 13 64 16q19 2 33 -11t14 -32q0 -32 -29 -49q-4 -2 -55 -21
q-30 -11 -30 -26q0 -7 9 -18z" />
    <glyph glyph-name="glyph368" unicode="&#x1ef7;" 
d="M640 265l-8 -25q-52 -78 -120 -146q-98 -99 -167 -106q-32 -95 -68 -140q-75 -93 -207 -93q-59 0 -103 22q-55 28 -55 81q0 104 201 171q-13 36 -15 91l-8 179q-3 78 -19 96q-11 13 -61 15l5 20l126 5q4 -19 6 -69l8 -179q3 -76 9 -110q7 -42 29 -42q48 0 125 185
q41 99 74 205l93 10l-130 -415q115 17 285 245zM413 417h-11q-60 -178 -83 -231q-86 -201 -154 -201q-30 0 -47 33q-58 -21 -98 -54q-53 -43 -53 -93q0 -48 44 -74q37 -22 88 -22q73 0 117 60q36 48 71 165zM277 431l-31 -6q-2 13 -2 16q1 31 25 48l42 21q24 14 24 35
q0 34 -36 29q-11 -1 -17 -13q-11 -22 -15 -27l-4 42q26 12 60 15q18 2 31.5 -10t13.5 -30q0 -6 -1 -11q-8 -27 -36 -41l-47 -16q-24 -8 -24 -24q0 -6 7 -14q9 -13 10 -14z" />
    <glyph glyph-name="glyph369" unicode="&#x1ef8;" horiz-adv-x="630" 
d="M650 625l-154 -500q-98 -318 -328 -318q-119 0 -161 73l69 44v-7q-1 -5 -1 -7q0 -46 39 -69q32 -19 82 -19q104 0 185 161q46 92 104 290l98 337h-23q-27 -133 -82 -278q-95 -251 -196 -251q-49 0 -68 47q-13 31 -17 113l-8 149q-7 138 -16 167q-14 48 -63 48h-17l6 20
l130 5q11 -69 20 -240l9 -164q3 -51 9 -69q9 -26 36 -26q80 0 167 233q58 155 78 261h102zM300 632l-8 7q16 20 32 41q24 25 50 24q18 -1 41 -17q20 -18 38 -19t57 38l10 -8q-51 -62 -87 -61q-11 0 -39 18t-41 19q-16 1 -31 -14q-1 -1 -22 -28z" />
    <glyph glyph-name="glyph370" unicode="&#x1ef9;" 
d="M640 265l-8 -25q-52 -78 -120 -146q-98 -99 -167 -106q-32 -95 -68 -140q-75 -93 -207 -93q-59 0 -103 22q-55 28 -55 81q0 104 201 171q-13 36 -15 91l-8 179q-3 78 -19 96q-11 13 -61 15l5 20l126 5q4 -19 6 -69l8 -179q3 -76 9 -110q7 -42 29 -42q48 0 125 185
q41 99 74 205l93 10l-130 -415q115 17 285 245zM413 417h-11q-60 -178 -83 -231q-86 -201 -154 -201q-30 0 -47 33q-58 -21 -98 -54q-53 -43 -53 -93q0 -48 44 -74q37 -22 88 -22q73 0 117 60q36 48 71 165zM184 433l-7 7q15 19 30 39q23 24 48 23q15 -1 39 -16
q17 -17 36 -18q17 -1 54 36l9 -8q-47 -59 -82 -58q-13 0 -38 18q-11 8 -38 17q-16 1 -51 -40z" />
    <glyph glyph-name="endash" unicode="&#x2013;" 
d="M20 202l37 57h342q58 0 118 12l-38 -57h-330q-71 0 -129 -12z" />
    <glyph glyph-name="emdash" unicode="&#x2014;" horiz-adv-x="1000" 
d="M15 202l37 57h767q58 0 118 12l-38 -57h-755q-71 0 -129 -12z" />
    <glyph glyph-name="quoteleft" unicode="&#x2018;" horiz-adv-x="278" 
d="M301 640v0l3 -15q-31 -7 -58 -29q-31 -26 -31 -55q0 -8 14.5 -26.5t14.5 -31.5q0 -19 -13.5 -31t-32.5 -12q-42 0 -42 47q0 58 57 107q47 41 88 46z" />
    <glyph glyph-name="quoteright" unicode="&#x2019;" horiz-adv-x="278" 
d="M131 440v0l-3 15q31 7 58 29q31 26 31 55q0 8 -14.5 26.5t-14.5 31.5q0 19 13.5 31t32.5 12q42 0 42 -47q0 -58 -57 -107q-47 -41 -88 -46z" />
    <glyph glyph-name="quotesinglbase" unicode="&#x201a;" horiz-adv-x="278" 
d="M28 -119v0l-3 15q31 7 58 29q31 26 31 55q0 8 -14.5 26.5t-14.5 31.5q0 19 13.5 31t32.5 12q42 0 42 -47q0 -58 -57 -107q-47 -41 -88 -46z" />
    <glyph glyph-name="quotedblleft" unicode="&#x201c;" horiz-adv-x="426" 
d="M441 640v0l3 -15q-31 -7 -58 -29q-31 -26 -31 -55q0 -8 14.5 -26.5t14.5 -31.5q0 -19 -13.5 -31t-32.5 -12q-42 0 -42 47q0 58 57 107q47 41 88 46zM298 640v0l3 -15q-31 -7 -58 -29q-31 -26 -31 -55q0 -8 14.5 -26.5t14.5 -31.5q0 -19 -13.5 -31t-32.5 -12q-42 0 -42 47
q0 58 57 107q47 41 88 46z" />
    <glyph glyph-name="quotedblright" unicode="&#x201d;" horiz-adv-x="426" 
d="M132 440v0l-3 15q31 7 58 29q31 26 31 55q0 8 -14.5 26.5t-14.5 31.5q0 19 13.5 31t32.5 12q42 0 42 -47q0 -58 -57 -107q-47 -41 -88 -46zM275 440v0l-3 15q31 7 58 29q31 26 31 55q0 8 -14.5 26.5t-14.5 31.5q0 19 13.5 31t32.5 12q42 0 42 -47q0 -58 -57 -107
q-47 -41 -88 -46z" />
    <glyph glyph-name="quotedblbase" unicode="&#x201e;" horiz-adv-x="426" 
d="M4 -119v0l-3 15q31 7 58 29q31 26 31 55q0 8 -14.5 26.5t-14.5 31.5q0 19 13.5 31t32.5 12q42 0 42 -47q0 -58 -57 -107q-47 -41 -88 -46zM147 -119v0l-3 15q31 7 58 29q31 26 31 55q0 8 -14.5 26.5t-14.5 31.5q0 19 13.5 31t32.5 12q42 0 42 -47q0 -58 -57 -107
q-47 -41 -88 -46z" />
    <glyph glyph-name="dagger" unicode="&#x2020;" 
d="M112 -118l164 514h-39l-99 -3l12 37q13 0 38.5 -2t38.5 -2h59l23 76q10 32 35 118l58 20q-15 -34 -49 -134l-24 -80h51q30 0 90 4l-12 -37q-27 3 -96 3h-42l-73 -243q-45 -149 -69 -251z" />
    <glyph glyph-name="daggerdbl" unicode="&#x2021;" 
d="M113 -118l68 214h-37l-99 -3l12 37q13 0 38.5 -2t38.5 -2h56l87 270h-39l-99 -3l12 37q13 0 38.5 -2t38.5 -2h59l23 76q10 32 35 118l58 20q-27 -60 -49 -134l-24 -80h51q30 0 90 4l-12 -37q-27 3 -96 3h-42l-82 -270h48q30 0 90 4l-12 -37q-27 3 -96 3h-39
q-38 -127 -51 -194z" />
    <glyph glyph-name="bullet" unicode="&#x2022;" horiz-adv-x="500" 
d="M250 180q-76 0 -128.5 52.5t-52.5 128.5q0 75 53 128t128 53t128 -53t53 -128t-53 -128t-128 -53z" />
    <glyph glyph-name="ellipsis" unicode="&#x2026;" horiz-adv-x="1000" 
d="M167 -15q-18 0 -31.5 13.5t-13.5 31.5q0 19 13 32t32 13t32 -13t13 -32t-13 -32t-32 -13zM500 -15q-18 0 -31.5 13.5t-13.5 31.5q0 19 13 32t32 13t32 -13t13 -32t-13 -32t-32 -13zM833 -15q-18 0 -31.5 13.5t-13.5 31.5q0 19 13 32t32 13t32 -13t13 -32t-13 -32t-32 -13
z" />
    <glyph glyph-name="perthousand" unicode="&#x2030;" horiz-adv-x="1093" 
d="M228 2l-77 -17q116 241 460 600l-2 2q-82 -52 -112 -67q-75 -38 -130 -38q-7 0 -23 2q0 -75 -47 -149q-55 -86 -133 -86q-51 0 -80 41q-26 37 -26 90q0 78 50 150q56 80 131 80q83 0 104 -96q42 -7 36 -7q119 0 263 118l17 -15q-123 -115 -251 -292q-135 -187 -180 -316z
M98 367q0 -103 72 -103q56 0 97 88q34 74 34 138q0 105 -67 105q-58 0 -100 -88q-36 -75 -36 -140zM506 0q-47 0 -75 37q-25 34 -25 82q0 81 49 155q55 82 133 82q49 0 77 -33.5t28 -83.5q0 -84 -50 -157q-57 -82 -137 -82zM446 111q0 -39 16 -65q18 -31 55 -31q61 0 102 88
q34 74 34 142q0 96 -71 96q-62 0 -102 -88q-34 -72 -34 -142zM846 0q-47 0 -75 37q-25 34 -25 82q0 81 49 155q55 82 133 82q49 0 77 -33.5t28 -83.5q0 -84 -50 -157q-57 -82 -137 -82zM786 111q0 -39 16 -65q18 -31 55 -31q61 0 102 88q34 74 34 142q0 96 -71 96
q-62 0 -102 -88q-34 -72 -34 -142z" />
    <glyph glyph-name="guilsinglleft" unicode="&#x2039;" horiz-adv-x="333" 
d="M194 63l-132 152l219 150l12 -15l-161 -135l73 -144z" />
    <glyph glyph-name="guilsinglright" unicode="&#x203a;" horiz-adv-x="333" 
d="M26 63l-12 14l160 135l-72 144l11 9l131 -153z" />
    <glyph glyph-name="fraction" unicode="&#x2044;" horiz-adv-x="250" 
d="M-47 2l-77 -17q127 259 491 640l17 -15q-123 -115 -251 -292q-135 -187 -180 -316z" />
    <glyph glyph-name="franc" unicode="&#x20a3;" horiz-adv-x="1035" 
d="M364 -4l-40 -7q-11 41 -11 83q0 161 146 523q-45 10 -81 10q-102 0 -171 -30q-95 -41 -95 -130q0 -14 10 -40l-60 -20q10 142 140 200q93 40 259 40q37 0 110.5 -3t110.5 -3q74 0 127 16q-23 -27 -57 -66h-10q-60 0 -267 23q-28 -56 -90 -257h192l-34 -35q-42 15 -105 15
h-60q-37 -90 -37 -223q0 -54 23 -96zM251 -75l-75 -25q7 111 81 351q52 170 113 333h55q-176 -464 -176 -636q0 -5 2 -23zM650 -15l82 265q30 97 30 127t-48 30h-19l5 15l151 13l-133 -430h12q42 124 97 229q106 201 207 201q11 0 27 -7l-39 -85q-8 18 -13 22q-9 10 -29 10
q-72 0 -158 -176q-53 -107 -80 -199z" />
    <glyph glyph-name="u20AB" unicode="&#x20ab;" horiz-adv-x="393" 
d="M197 501q-48 0 -84 -88q-20 -49 -20 -90q0 -51 39 -51q41 0 74 71q28 60 28 107q0 51 -37 51zM200 267q-53 -62 -106 -62q-91 0 -91 102q0 81 54 153q59 78 137 78q34 0 61 -24l20 75h-100l10 36h100l2 16q0 31 -48 32l7 33q67 2 128 14l15 3q6 0 6 -9q-1 -2 -3 -12
l-19 -77h65l-10 -36h-65l-69 -280q-5 -20 -5 -27q0 -15 12 -15q6 0 49 42l20 -18q-70 -86 -117 -86q-43 0 -53 62zM9 160h221v-56h-221v56z" />
    <glyph glyph-name="trademark" unicode="&#x2122;" horiz-adv-x="611" 
d="M124 456v17q31 3 39 8q14 9 14 39v191q-40 -7 -54 -26q-5 -7 -24 -57h-18l5 102h234l5 -102h-18q-19 50 -24 57q-14 19 -54 26v-191q0 -30 11 -38q6 -6 37 -9v-17h-153zM338 456v17q29 5 37.5 12.5t8.5 34.5v156q0 23 -5 28t-29 7v19h100l55 -181h2l63 181h108v-19
q-27 -3 -33 -8q-9 -7 -9 -33v-150q0 -30 8 -38q5 -6 29 -9v-17h-124v17q23 4 29 13t6 34v184h-2l-84 -248h-16l-73 239h-2v-175q0 -27 7 -37q4 -6 22 -10v-17h-98z" />
    <glyph glyph-name="minus" unicode="&#x2212;" 
d="M62 190v40h400v-40h-400z" />
    <glyph glyph-name="SF370000" unicode="&#x255f;" horiz-adv-x="718" 
d="M381 254l-27 -49q-55 -99 -93 -141q-73 -79 -164 -79q-55 0 -95 28q-46 32 -46 85q0 176 361 176h47q152 237 274 348l109 25q-28 -61 -52 -148q-35 -126 -35 -227q0 -114 38 -176l-25 -24q-33 73 -33 175q0 139 82 381l-33 -6q-84 -242 -84 -423q0 -119 22 -153
q18 -28 79 -30l-5 -16l-137 -4q-19 63 -19 166q0 51 4 92h-168zM351 254h-53q-292 0 -292 -140q0 -48 33.5 -76t81.5 -28q69 0 121 61q32 38 90 147zM392 274h158q16 149 76 316l-2 2q-147 -167 -232 -318z" />
    <glyph glyph-name="SF420000" unicode="&#x2560;" horiz-adv-x="681" 
d="M628 59l-55 -58q-28 -6 -58 -6q-119 0 -189 35q0 7 -1 19.5t-1 19.5q0 121 64 316q39 119 81 210q-50 10 -91 10q-102 0 -171 -30q-95 -41 -95 -130q0 -14 10 -40l-60 -20q10 142 140 200q93 40 259 40q37 0 110.5 -3t110.5 -3q74 0 127 16q-23 -27 -57 -66h-10
q-58 0 -257 23q-41 -77 -91 -236h192l-34 -35q-46 15 -115 15h-50q-33 -132 -33 -214q0 -25 5 -57q64 -25 153 -25q62 0 116 19zM323 0l-130 -10q9 98 78 305q48 145 106 289h55q-58 -157 -92 -263q-56 -178 -68 -289q17 -13 51 -32z" />
    <glyph glyph-name="SF190000" unicode="&#x2561;" horiz-adv-x="429" 
d="M264 0l-78 -10q0 91 83 328q63 181 110 280q-20 2 -33 2q-90 0 -156 -32q-86 -42 -86 -122q0 -7 5 -42l-60 -20q10 142 128 199q86 42 248 42h65q0 -3 -24 -61q-31 -73 -54 -140q-67 -191 -67 -340q0 -53 20 -84l-41 -10q-8 22 -8 76q0 112 64 316q52 164 86 228h-33
q-44 -111 -94 -272q-66 -213 -72 -301q-1 -16 -3 -37z" />
    <glyph glyph-name="SF200000" unicode="&#x2562;" horiz-adv-x="773" 
d="M254 -15q-97 0 -152 57t-55 154q0 155 111 295q118 149 269 149q97 0 153.5 -54t56.5 -151q0 -159 -113 -301q-119 -149 -270 -149zM311 87q-60 0 -95 56q-29 48 -29 112q0 95 50 197q61 125 164 168l-2 5q-117 -10 -200 -166q-72 -136 -72 -265q0 -77 29 -129
q36 -65 107 -65q132 0 222 155q77 133 77 274q0 69 -25 123q-33 68 -95 68q-93 0 -163 -127q-60 -110 -60 -211q0 -58 19 -99q25 -56 75 -56q22 0 56 24z" />
    <glyph glyph-name="SF230000" unicode="&#x2563;" horiz-adv-x="811" 
d="M732 610h-46q-18 -78 -67 -221q-67 -195 -112 -272q-78 -132 -181 -132q-70 0 -107 55q-33 47 -33 120q0 135 92 284q60 97 125 156h-23q-106 0 -174 -28q-97 -40 -97 -131q0 -7 5 -37l-60 -20q0 137 138 198q98 43 256 43q-61 -60 -117 -174q-70 -143 -70 -267
q0 -52 22 -91q26 -48 74 -48q84 0 159 136q39 72 86 208q52 155 71 236h120q-30 -63 -90 -238q-78 -229 -78 -323q0 -29 22 -38q14 -6 44 -6l-5 -20l-152 -5q14 112 80 312q62 187 118 303z" />
    <glyph glyph-name="SF470000" unicode="&#x2564;" horiz-adv-x="699" 
d="M650 625l-154 -500q-98 -318 -328 -318q-119 0 -161 73l69 44v-7q-1 -5 -1 -7q0 -46 39 -69q32 -19 82 -19q104 0 185 161q46 91 104 290l98 337h-23q-27 -133 -82 -278q-95 -251 -196 -251q-49 0 -68 47q-13 31 -17 113l-8 149q-7 138 -16 167q-14 48 -63 48h-17l6 20
l130 5q10 -65 20 -240l9 -164q3 -51 9 -69q9 -26 36 -26q80 0 167 233q58 155 78 261h102z" />
    <glyph glyph-name="SF480000" unicode="&#x2565;" horiz-adv-x="541" 
d="M342 268l-10 3q-22 -73 -77 -158q-83 -128 -170 -128q-39 0 -60 33q-19 28 -19 69q0 97 92 219q97 129 190 129q62 0 62 -75q0 -23 -7 -55l9 -2l39 124l74 8q-22 -54 -43 -121l-31 -100q-40 -129 -40 -164q0 -20 19 -20q49 0 145 105q49 54 105 130l-8 -25
q-193 -255 -290 -255q-46 0 -46 52q0 22 17 76zM71 109q0 -29 10 -51q13 -28 38 -28q67 0 137 111q65 102 65 175q0 34 -15 57q-18 27 -51 27q-71 0 -131 -114q-53 -100 -53 -177z" />
    <glyph glyph-name="SF410000" unicode="&#x2566;" horiz-adv-x="431" 
d="M486 260l-8 -25q-73 -101 -126 -149q-111 -101 -225 -101q-118 0 -118 113q0 103 91 217q95 120 195 120q63 0 63 -66q0 -70 -71.5 -126.5t-142.5 -56.5q-27 0 -56 8q-14 -45 -14 -80q0 -89 91 -89q96 0 201 97q43 40 120 138zM263 415q-52 0 -107 -78q-32 -46 -56 -102
q46 -29 87 -29q49 0 85 55q31 49 31 101q0 53 -40 53z" />
    <glyph glyph-name="SF450000" unicode="&#x2567;" horiz-adv-x="314" 
d="M344 260l-8 -25q-182 -250 -272 -250q-23 0 -36.5 16t-13.5 39q0 17 19 76l38 119q33 103 33 136q0 37 -49 37h-22l5 15l157 12l-76 -239q-35 -110 -35 -135q0 -31 20 -31q46 0 138 102q57 63 102 128zM213 595q-46 0 -46 43q0 48 46 48q45 0 45 -44q0 -20 -12.5 -33.5
t-32.5 -13.5z" />
    <glyph glyph-name="SF460000" unicode="&#x2568;" horiz-adv-x="314" 
d="M344 260l-8 -25q-182 -250 -272 -250q-23 0 -36.5 16t-13.5 39q0 17 19 76l38 119q33 103 33 136q0 37 -49 37h-22l5 15l157 12l-76 -239q-35 -110 -35 -135q0 -31 20 -31q46 0 138 102q57 63 102 128z" />
    <glyph glyph-name="SF400000" unicode="&#x2569;" horiz-adv-x="498" 
d="M560 265l-8 -25q-165 -240 -295 -240q-26 0 -58 13q-56 -28 -96 -28q-93 0 -93 109q0 106 94 220q99 121 209 121q46 0 71 -27t25 -73q0 -87 -75 -191q-57 -79 -112 -117q21 -7 37 -7q85 0 187 104q41 41 114 141zM238 396l-2 7q-56 -26 -107 -106q-59 -92 -59 -187
q0 -90 79 -90q7 0 32 5q-52 45 -52 126q0 72 26 136q29 72 83 109zM144 171q0 -93 60 -135q40 31 81 98q54 89 54 173q0 93 -63 93q-58 0 -98 -89q-34 -74 -34 -140z" />
    <glyph glyph-name="SF540000" unicode="&#x256a;" horiz-adv-x="557" 
d="M303 116l95 299l-2 2q-27 -99 -98 -230q-110 -202 -218 -202q-59 0 -59 58q0 37 24 114l29 93q30 96 30 120q0 37 -48 37h-19l5 15l151 13l-95 -309q-17 -55 -17 -71q0 -13 11 -24t24 -11q79 0 178 189q67 128 91 213l80 13l-76 -239q-35 -110 -35 -135q0 -31 20 -31
q46 0 138 102q57 63 102 128l-8 -25q-182 -250 -272 -250q-23 0 -36.5 16t-13.5 39q0 16 19 76z" />
    <glyph glyph-name="SF530000" unicode="&#x256b;" horiz-adv-x="497" 
d="M640 265l-8 -25q-53 -79 -120 -146q-98 -99 -167 -106q-32 -95 -68 -140q-75 -93 -207 -93q-58 0 -102 22q-56 28 -56 81q0 104 201 171q-13 37 -15 91l-8 179q-3 78 -19 96q-11 13 -61 15l5 20l126 5q4 -20 6 -69l8 -179q4 -79 9 -110q7 -42 29 -42q48 0 125 185
q41 98 74 205l93 10l-130 -415q115 17 285 245zM413 417h-11q-60 -177 -83 -231q-86 -201 -154 -201q-30 0 -47 33q-58 -21 -98 -54q-53 -44 -53 -93q0 -47 44 -74q37 -22 88 -22q73 0 117 60q36 48 71 165z" />
    <glyph glyph-name="circle" unicode="&#x25cb;" horiz-adv-x="718" 
d="M326 778l-9 12l165 129l55 -132l-14 -9l-62 75zM379 966l-10 14l170 124l15 -61z" />
    <glyph glyph-name="H18533" unicode="&#x25cf;" horiz-adv-x="718" 
d="M326 778l-9 12l165 129l55 -132l-14 -9l-62 75zM542 967l-111 76l42 64l80 -126z" />
    <glyph glyph-name="invbullet" unicode="&#x25d8;" horiz-adv-x="718" 
d="M326 778l-9 12l165 129l55 -132l-14 -9l-62 75zM614 903q9 28 11 64q1 11 8 13q2 0 8 1q67 11 67 54q0 35 -28 35q-5 0 -14 -1t-14 -1q-21 0 -21 18q0 28 32 28q46 0 75 -24q31 -27 27 -72q-6 -59 -87 -81q-25 -7 -31 -34h-33z" />
    <glyph glyph-name="invcircle" unicode="&#x25d9;" horiz-adv-x="718" 
d="M326 778l-9 12l165 129l55 -132l-14 -9l-62 75zM369 966v0l-11 7q34 65 84 65q20 0 51.5 -18.5t46.5 -18.5q26 0 53 38l13 -8q-32 -65 -79 -65q-16 0 -49 18.5t-50 18.5q-29 0 -59 -37z" />
    <glyph glyph-name="fi" unicode="&#xf001;" horiz-adv-x="519" 
d="M206 409l-127 -403q-79 -251 -240 -251q-41 0 -81 19l25 81q15 -85 81 -85q52 0 87 58q26 43 63 160l132 421h-12q-38 0 -92 -7l23 27h87l19 59q78 242 251 242q41 0 77 -20q42 -24 42 -62q0 -2 -2 -18l-72 -26q19 23 19 56q0 25 -21 40t-47 15q-61 0 -109 -57
q-38 -45 -60 -113l-37 -116h93q79 0 160 6l-76 -239q-35 -110 -35 -135q0 -31 20 -31q46 0 138 102q57 63 102 128l-8 -25q-182 -250 -272 -250q-23 0 -36.5 16t-13.5 39q0 17 19 76l38 119q33 103 33 136q0 38 -49 38h-119z" />
    <glyph glyph-name="fl" unicode="&#xf002;" horiz-adv-x="500" 
d="M195 409l-127 -403q-79 -251 -240 -251q-41 0 -81 19l25 81q15 -85 81 -85q52 0 87 58q26 43 63 160l132 421h-12q-38 0 -92 -7l23 27h88l19 59q69 215 232 229l154 13l-168 -534q-36 -114 -36 -139q0 -26 20 -26q47 0 141 102q66 71 104 127l-8 -25q-40 -62 -111 -137
q-107 -113 -174 -113q-42 0 -42 50q0 14 17 68l96 306h-191zM238 545l-37 -116h191l29 90q35 109 35 144q0 39 -68 39q-100 0 -150 -157z" />
    <glyph glyph-name="periodcentered" 
d="M259 168q-19 0 -32.5 13.5t-13.5 32.5t13.5 32.5t32.5 13.5q20 0 33 -13t13 -33t-13 -33t-33 -13z" />
    <glyph glyph-name="glyph231" horiz-adv-x="278" 
 />
    <glyph glyph-name="glyph232" horiz-adv-x="278" 
 />
    <glyph glyph-name="glyph258" horiz-adv-x="278" 
 />
    <glyph glyph-name="glyph259" horiz-adv-x="278" 
 />
    <glyph glyph-name="glyph275" horiz-adv-x="249" 
 />
    <glyph glyph-name="glyph276" horiz-adv-x="249" 
 />
    <glyph glyph-name="glyph261" horiz-adv-x="500" 
d="M253 522q9 28 11 64q1 11 8 13q2 0 8 1q67 11 67 54q0 35 -28 35q-5 0 -14 -1t-14 -1q-21 0 -21 18q0 28 32 28q46 0 75 -24q31 -27 27 -72q-6 -59 -87 -81q-25 -7 -31 -34h-33z" />
    <glyph glyph-name="glyph262" horiz-adv-x="541" 
d="M123 546l-9 12l165 129l55 -132l-14 -9l-62 75zM175 735l-10 14l170 124l15 -61z" />
    <glyph glyph-name="glyph263" horiz-adv-x="541" 
d="M123 546l-9 12l165 129l55 -132l-14 -9l-62 75zM339 735l-111 76l42 64l80 -126z" />
    <glyph glyph-name="glyph264" horiz-adv-x="541" 
d="M123 546l-9 12l165 129l55 -132l-14 -9l-62 75zM411 671q9 28 11 64q1 11 8 13q2 0 8 1q67 11 67 54q0 35 -28 35q-5 0 -14 -1t-14 -1q-21 0 -21 18q0 28 32 28q46 0 75 -24q31 -27 27 -72q-6 -59 -87 -81q-25 -7 -31 -34h-33z" />
    <glyph glyph-name="glyph265" horiz-adv-x="541" 
d="M123 546l-9 12l165 129l55 -132l-14 -9l-62 75zM166 734v0l-11 7q34 65 84 65q20 0 51.5 -18.5t46.5 -18.5q26 0 53 38l13 -8q-32 -65 -79 -65q-16 0 -49 18.5t-50 18.5q-29 0 -59 -37z" />
    <glyph glyph-name="glyph266" horiz-adv-x="541" 
d="M311 683h15q-10 -42 -40 -82q-42 -56 -96 -56q-72 0 -72 99q0 22 4 39h17q-1 -8 -1 -20q0 -78 60 -78q77 0 113 98zM254 735l-10 14l170 124l15 -61z" />
    <glyph glyph-name="glyph267" horiz-adv-x="541" 
d="M311 683h15q-10 -42 -40 -82q-42 -56 -96 -56q-72 0 -72 99q0 22 4 39h17q-1 -8 -1 -20q0 -78 60 -78q77 0 113 98zM286 735l-111 76l42 64l80 -126z" />
    <glyph glyph-name="glyph268" horiz-adv-x="541" 
d="M311 683h15q-10 -42 -40 -82q-42 -56 -96 -56q-72 0 -72 99q0 22 4 39h17q-1 -8 -1 -20q0 -78 60 -78q77 0 113 98zM306 671q9 28 11 64q1 11 8 13q2 0 8 1q67 11 67 54q0 35 -28 35q-5 0 -14 -1t-14 -1q-21 0 -21 18q0 28 32 28q46 0 75 -24q31 -27 27 -72
q-6 -59 -87 -81q-25 -7 -31 -34h-33z" />
    <glyph glyph-name="glyph269" horiz-adv-x="541" 
d="M311 683h15q-10 -42 -40 -82q-42 -56 -96 -56q-72 0 -72 99q0 22 4 39h17q-1 -8 -1 -20q0 -78 60 -78q77 0 113 98zM166 734v0l-11 7q34 65 84 65q20 0 51.5 -18.5t46.5 -18.5q26 0 53 38l13 -8q-32 -65 -79 -65q-16 0 -49 18.5t-50 18.5q-29 0 -59 -37z" />
    <glyph glyph-name="glyph270" horiz-adv-x="249" 
 />
  </font>
</defs>
</svg>
