<svg xmlns="http://www.w3.org/2000/svg">
<defs>
<font id="UTMAmericanaEB" horiz-adv-x="1366" >
  <font-face 
    font-family="UTM Americana EB"
    font-weight="700"
    font-stretch="normal"
    units-per-em="2048"
    panose-1="2 4 6 3 5 5 6 2 2 4"
    ascent="1638"
    descent="-410"
    x-height="1032"
    cap-height="1319"
    bbox="-202 -512 4942 2182"
    underline-thickness="109"
    underline-position="-359"
    unicode-range="U+0020-2026"
  />
<missing-glyph horiz-adv-x="5040" 
d="M3351 2045h10q37 -10 37 -52q0 -12 -32 -57h-28q0 24 28 54l2 10q-5 13 -10 15h-9q-8 0 -10 -19h-30q6 49 42 49zM2019 2016l29 -31q0 -16 -40 -30h-19l-59 12l-11 -12l-28 25q11 29 43 29h11l42 -11h2q10 0 30 18zM468 1980h142v-60h-94v-75h89v-59h-89v-129l-5 -5h-49
v323zM1155 1980h43l6 -5v-78h30v-52h-30v-188l-6 -5h-49v193h-25v52h25v78zM1621 1980h42l4 -5v-94h3q23 24 54 24h2q58 0 83 -71l2 -39v-143h-52v115q0 80 -42 80h-7q-43 0 -43 -86v-109h-51v323zM2200 1980h49l5 -5v-222q10 -51 45 -51q44 7 44 59v214l5 5h49v-216
q0 -85 -66 -112q-15 -8 -35 -8q-47 0 -82 55q-14 24 -14 57v224zM2435 1980h159v-60h-56v-268h-53v268h-55v55zM2621 1980h71q7 -4 83 -251h2l80 251h73v-328h-54v242h-2l-74 -242h-44q-4 0 -58 182l-19 60h-3v-242h-55v328zM3760 1980h52v-328h-45l-5 5v11l3 2l-3 14
q-29 -40 -78 -40q-67 0 -100 91l-5 39v3q0 94 92 125l23 3q35 0 63 -32h3v107zM2057 1928h36l4 -6v-49h-45v-221h-48v23q-23 -31 -59 -31q-89 14 -89 97v156h51v-104q0 -79 26 -86l18 -5h6q26 0 39 36l3 26v133h53v25zM3476 1928v-55h-31v-221h-47v25h-2q-15 -33 -57 -33
q-68 0 -86 78l-3 29v146h52v-120q0 -50 19 -68l21 -7h9q42 0 42 69v126h27q4 0 4 28l3 3h49zM758 1905q68 0 103 -77q9 -18 12 -54q0 -88 -90 -127l-32 -3q-63 0 -101 73q-12 22 -12 52v10q0 94 101 126h19zM1011 1905h3q74 0 83 -101v-152h-51v119q0 76 -42 76h-5
q-44 0 -44 -76v-119h-52v245h46v-21q30 29 62 29zM1466 1905h7q72 0 105 -89h-60q-16 31 -42 31h-17q-53 -14 -53 -61l-3 -15q12 -69 61 -69h9q22 0 47 27h40l2 3h3l2 -3l2 3l3 -3l2 3l2 -7q-33 -81 -110 -81q-76 0 -110 94l-4 36v3q0 85 77 120q15 8 37 8zM3141 1905h2

<glyph glyph-name=".notdef" horiz-adv-x="5040" 
d="M3351 2045h10q37 -10 37 -52q0 -12 -32 -57h-28q0 24 28 54l2 10q-5 13 -10 15h-9q-8 0 -10 -19h-30q6 49 42 49zM2019 2016l29 -31q0 -16 -40 -30h-19l-59 12l-11 -12l-28 25q11 29 43 29h11l42 -11h2q10 0 30 18zM468 1980h142v-60h-94v-75h89v-59h-89v-129l-5 -5h-49
v323zM1155 1980h43l6 -5v-78h30v-52h-30v-188l-6 -5h-49v193h-25v52h25v78zM1621 1980h42l4 -5v-94h3q23 24 54 24h2q58 0 83 -71l2 -39v-143h-52v115q0 80 -42 80h-7q-43 0 -43 -86v-109h-51v323zM2200 1980h49l5 -5v-222q10 -51 45 -51q44 7 44 59v214l5 5h49v-216
q0 -85 -66 -112q-15 -8 -35 -8q-47 0 -82 55q-14 24 -14 57v224zM2435 1980h159v-60h-56v-268h-53v268h-55v55zM2621 1980h71q7 -4 83 -251h2l80 251h73v-328h-54v242h-2l-74 -242h-44q-4 0 -58 182l-19 60h-3v-242h-55v328zM3760 1980h52v-328h-45l-5 5v11l3 2l-3 14
q-29 -40 -78 -40q-67 0 -100 91l-5 39v3q0 94 92 125l23 3q35 0 63 -32h3v107zM2057 1928h36l4 -6v-49h-45v-221h-48v23q-23 -31 -59 -31q-89 14 -89 97v156h51v-104q0 -79 26 -86l18 -5h6q26 0 39 36l3 26v133h53v25zM3476 1928v-55h-31v-221h-47v25h-2q-15 -33 -57 -33
q-68 0 -86 78l-3 29v146h52v-120q0 -50 19 -68l21 -7h9q42 0 42 69v126h27q4 0 4 28l3 3h49zM758 1905q68 0 103 -77q9 -18 12 -54q0 -88 -90 -127l-32 -3q-63 0 -101 73q-12 22 -12 52v10q0 94 101 126h19zM1011 1905h3q74 0 83 -101v-152h-51v119q0 76 -42 76h-5
q-44 0 -44 -76v-119h-52v245h46v-21q30 29 62 29zM1466 1905h7q72 0 105 -89h-60q-16 31 -42 31h-17q-53 -14 -53 -61l-3 -15q12 -69 61 -69h9q22 0 47 27h40l2 3h3l2 -3l2 3l3 -3l2 3l2 -7q-33 -81 -110 -81q-76 0 -110 94l-4 36v3q0 85 77 120q15 8 37 8zM3141 1905h2
q49 0 70 -60v-14h-52q0 16 -16 16h-4q-14 0 -19 -13v-13q0 -9 68 -35q30 -19 30 -59q0 -58 -61 -80l-23 -3q-76 12 -76 83h54q0 -20 27 -25h4q19 0 24 23q0 22 -68 44q-34 27 -34 59q0 66 74 77zM4203 1905q55 0 77 -63q7 -18 7 -65v-125h-52v112q0 83 -40 83h-11
q-33 0 -40 -54v-141h-52v5h-2l2 2v238h47v-21q25 29 64 29zM4432 1905h5q40 0 69 -40v18l-3 3l3 11h47v-208q0 -97 -85 -132l-33 -4h-7q-70 0 -104 80h59q24 -22 45 -23h13q22 0 43 22q15 13 22 52h-3q-32 -40 -73 -40q-57 0 -96 70q-10 18 -14 63q0 88 87 125zM3851 1897
h53v-136q6 -59 40 -59h7q46 0 46 93v102h51v-245h-47l-3 10h3l-3 3v5l3 2v3h-4q0 -23 -57 -31h-3q-59 0 -84 75l-2 85v93zM690 1771q10 -69 63 -69h7q59 14 59 65v15q-13 65 -59 65h-5q-58 0 -65 -76zM3630 1774q13 -72 61 -72h5q58 0 66 75q0 49 -51 70h-22q-37 0 -56 -57z
M4374 1774q8 -72 65 -72h5q59 12 59 72q0 61 -59 73h-14q-56 -16 -56 -62v-11zM3928 1620h52v-57h-52v57zM1054 1402q43 -11 43 -49v-4q0 -17 -32 -60h-28q0 25 31 57v7q0 12 -7 15h-12q-10 -4 -10 -19h-28v6q0 32 33 44zM3349 1339q92 0 138 -99h-60q-37 42 -80 42
q-55 0 -87 -68q-10 -22 -10 -47q0 -78 81 -110l18 -1q36 0 75 39h61q-44 -97 -138 -97q-93 0 -141 112q-10 31 -10 62q0 97 90 152q29 15 63 15zM3664 1339q57 0 103 -47q46 -51 46 -115v-20q0 -89 -91 -146q-33 -13 -63 -13q-89 0 -138 101q-13 33 -13 60v18q0 98 98 151
q29 11 58 11zM2261 1337h2l47 -11h3q11 0 26 11l18 -36q-18 -19 -35 -19h-3l-54 10l-20 -7l-20 36q18 16 36 16zM716 1334h19q118 0 129 -26q25 -26 25 -62q-10 -57 -30 -57v-6q47 -23 47 -66v-18q0 -63 -69 -88l-54 -5h-67v328zM2550 1334h53v-217q6 -61 45 -61q29 0 44 39
l3 30v203l4 6h45l5 -6v-171q0 -118 -40 -133q-24 -26 -64 -26q-55 0 -91 76l-4 54v206zM2805 1334h59q4 0 122 -237h4v237h50l4 -6v-322h-58q-29 48 -125 238h-3v-238h-53v328zM3101 1334h54v-328h-54v328zM3859 1334h8q155 0 174 -40q23 -11 47 -75l4 -36v-11l3 -2
q0 -94 -82 -149q-35 -15 -99 -15h-55v328zM4141 1334h153v-60h-103v-75h101v-57h-101v-74l4 -5h99v-57h-157v322zM3563 1175v-10q0 -76 79 -108l19 -1q68 0 96 86l3 20v15q0 61 -60 94q-12 8 -39 11q-66 0 -96 -83zM770 1274v-67h9q54 0 54 28l3 14q-11 25 -29 25h-37z
M3912 1274v-206l2 -3v-2q104 0 122 76l2 15v29q0 34 -32 68q-25 23 -78 23h-16zM1041 1259h5q38 0 71 -40v32h49v-245h-49v32q-36 -40 -80 -40q-75 0 -101 97l-5 36q0 89 85 125zM1314 1259h3q74 0 83 -102v-151h-51v128q0 67 -42 67h-10q-34 0 -39 -62v-133h-52v245h47v-21
q28 29 61 29zM1543 1259h5q45 0 71 -40v32h47v-219q0 -95 -104 -126h-16q-74 0 -108 82h59q26 -25 44 -25h14q52 0 64 77q-33 -42 -76 -42q-60 0 -101 81l-7 44v16q0 79 85 117zM1912 1259h2q43 0 61 -37h2q32 37 69 37h4q57 0 79 -55q8 -25 8 -45v-153h-52v138q0 44 -23 55
l-12 2h-15q-32 0 -36 -65v-130h-52v136q0 59 -43 59h-8q-32 0 -36 -57v-138h-54v245h50v-21h2q6 24 54 29zM2282 1259q47 0 75 -42v34h47v-245h-47v32q-36 -40 -78 -40q-74 0 -102 92l-6 41q0 90 85 125zM985 1117q0 -48 61 -61h4q45 0 62 46l3 15v22q-12 62 -57 62h-14
q-41 0 -59 -57v-27zM1487 1128q0 -48 43 -68l18 -4h5q47 0 63 57v23q-11 65 -58 65h-12q-50 0 -59 -73zM2225 1131v-14q15 -61 57 -61h14q58 12 58 64v11q0 45 -37 65l-18 5h-10q-64 -8 -64 -70zM770 1150v-82q0 -5 7 -5q77 0 77 45q0 34 -47 42h-37zM2966 753l24 -28
l-51 -55q-18 12 -27 26zM1524 727l85 -54q0 -15 -21 -42l-87 54q18 41 23 42zM2850 693h38l55 -60h-54l-21 26l-23 -26h-54q54 60 59 60zM3422 693h40l56 -60h-54l-24 26h-1q0 -5 -19 -26h-54zM622 685h52q8 -4 47 -137l34 -110q9 8 34 100l48 147h54v-2l-112 -326h-44z
M1159 685h51v-54h-51v54zM1354 685h46l6 -5v-323h-52v328zM2317 685h45l4 -5v-78h31v-52h-31v-193h-53v193h-26v52h26v78zM2425 685h52v-98h2q23 23 54 23h3q57 0 81 -71l3 -38v-144h-52v115q0 81 -39 81h-10q-42 0 -42 -87v-109h-52v328zM2664 685h52v-54h-52v54zM3028 685
h44l6 -5v-78h29v-52h-29v-193h-54v193h-27v52h27v78zM3234 685h52v-328h-52v328zM3957 685h52v-328h-52v328zM4316 685h51v-54h-51v54zM1555 610h5q83 0 110 -102l3 -23v-11q0 -83 -85 -120l-35 -5q-76 0 -111 97l-4 32q0 97 93 130zM1811 610h4q53 0 78 -60q7 -25 7 -81
v-112h-54v146q-7 50 -37 50h-10q-38 0 -42 -57v-139h-54v245h49v-21q26 29 59 29zM2046 610h4q45 0 63 -39h3v31h49v-206q0 -102 -89 -135l-28 -3h-5q-73 0 -106 81h52l37 -20l15 -3h14q50 0 61 72q-33 -39 -73 -39q-62 0 -98 76q-11 23 -12 60q0 85 86 123zM2866 610h2
q82 0 111 -104l2 -25l-2 -27h-172q15 -45 45 -45l14 -3q29 0 49 22h57v-3q-35 -76 -108 -76q-77 0 -111 97l-1 28v8q0 49 32 89q34 39 82 39zM3429 610h5q41 0 70 -39h2v31h47v-245h-47v31h-2q-35 -39 -77 -39q-71 0 -101 89l-5 36v14q0 86 84 120zM3711 610h7
q88 0 107 -128l-2 -1v-15q0 -65 -66 -106q-21 -11 -46 -11q-34 0 -64 32v-99l-5 -5h-49v325h49v-28q31 36 69 36zM4151 610q44 0 75 -39v31h49v-245h-49v31q-35 -39 -77 -39q-92 0 -108 132q0 84 73 121q15 8 37 8zM922 602h50v-136q3 -60 42 -60h5q44 0 44 87v109h52v-245
h-47v24h-5q0 -23 -56 -32h-3q-55 0 -82 68q-4 35 -4 99v81zM1159 602h51v-245h-51v245zM2664 602h52v-245h-52v245zM4316 602h51v-245h-51v245zM1492 488v-16q13 -66 59 -66h4q59 0 66 76q-13 71 -59 71h-11q-59 -16 -59 -65zM1987 472q15 -66 59 -66h11q48 0 59 75v1
q-13 71 -59 71h-14q-39 0 -56 -57v-24zM2805 506h122v2q-16 45 -59 45h-7q-35 0 -56 -47zM3373 474q13 -68 61 -68h5q52 0 65 63v12q-10 72 -57 72h-16q-56 -14 -56 -63zM3642 478q12 -72 61 -72h3q50 0 65 60v22q0 43 -49 65h-22q-47 0 -58 -72v-3zM4095 472q10 -66 66 -66
q43 0 61 48l2 15v16q0 54 -52 68h-18q-42 0 -59 -60v-21zM3416 321h51v-52h-51v52zM4137 321h51v-52h-51v52zM2733 133h4q35 0 43 -50v-2q0 -16 -24 -41l-10 -17h-28q0 25 28 56l3 2v2q-3 19 -9 19h-10q-8 0 -9 -19h-30q6 50 42 50zM1546 116l52 -60l-26 -19l-52 52zM352 79
h4q75 -48 85 -60l-20 -37q-88 49 -88 58zM3490 79l86 -58l-18 -39q-10 0 -91 55q15 36 23 42zM4578 76l19 -42l-91 -52l-20 39l92 58v-3zM1204 53h51v-19l5 -5h14v-36h-14l-5 -5v-279h-46v31q-34 -40 -81 -40q-72 0 -102 105l-3 26q0 102 101 131h14q33 0 66 -33v59l-6 5
h-43v36h49v24zM1480 45h40l56 -61h-53l-23 27l-23 -27h-53zM2641 45h33q12 0 63 -61h-54l-23 27q-19 -21 -19 -27h-58v4zM49 37h160v-60h-56v-268h-50l-4 5v245l2 3v2l-2 2l2 3l-2 2l2 3l-2 3h-54v54zM699 37h47v-73l2 -2l-2 -3v-3l2 -2l-2 -3v-3l2 -2v-2l-2 -3l2 -3h3
q17 24 51 24h3q53 0 77 -58q7 -17 7 -42v-153h-52v127q0 68 -40 68h-8q-43 0 -43 -86v-109h-52v322zM1297 37h47l5 -6v-49h-52v55zM1987 37h52v-198l70 115h62l-78 -118l90 -125v-2h-70q-10 22 -74 115v-115h-52v328zM2271 37v-99q24 24 53 24q57 0 80 -56q10 -19 10 -77
v-120h-54v133q0 62 -41 62h-11q-31 0 -37 -55v-140h-53v314l-1 3v3l1 2l-1 3l1 3h53zM2458 37h51v-55h-51v55zM3148 37h51v-108q27 33 68 33h3q75 0 105 -94l5 -37q0 -75 -64 -120q-30 -11 -49 -11q-41 0 -72 40v-31h-47v328zM4275 37h52v-99h2q23 24 54 24h3q60 0 82 -74
l2 -41v-138h-52v111q0 82 -32 82l-10 2h-12q-37 0 -37 -80v-115h-52v328zM329 -38h3v-58h-5q-42 0 -42 -57v-138h-53v245h47v-21q18 29 50 29zM564 -38q71 0 86 -87v-166h-51v136q-6 59 -41 59h-6q-45 0 -45 -84v-111h-52v245h50v-21q25 29 59 29zM1504 -38q72 0 105 -94
l5 -39q-2 -24 -7 -24h-169q17 -47 62 -47q24 0 48 21h57q-33 -79 -108 -79q-82 0 -113 105v37q0 81 89 117zM2657 -38h5q77 0 107 -97l3 -26v-21l-3 -13h-170q18 -47 53 -47h12q21 0 42 21h59q-34 -79 -105 -79q-84 0 -115 102l-2 29q0 93 91 128zM2915 -38h4q54 0 78 -60
q7 -25 7 -82v-111h-54v138q0 48 -35 57h-11q-38 0 -43 -57v-138h-54v245h50v-21q25 29 58 29zM3508 -38h6q40 0 70 -40h2v32h47v-245h-47v31h-2q-34 -40 -78 -40q-71 0 -101 90l-4 37v12q0 82 77 117q11 6 30 6zM3781 -38h4q62 0 82 -78l3 -84v-91h-54v138q0 48 -38 57h-9
q-38 0 -42 -52v-143h-54v245h49v-21q26 29 59 29zM4133 -38h1q74 0 104 -93l4 -40q0 -88 -84 -126l-25 -3q-41 0 -68 34v-106h-52v326h47v-29q30 37 73 37zM4714 -38h5q34 0 63 -37q27 37 69 37h6q56 0 79 -66l6 -51v-136h-52v122q0 73 -39 73h-7q-35 0 -41 -50v-140l-5 -5
h-48v140q0 42 -31 55h-17q-40 0 -40 -77v-118h-51v245h47v-21q22 29 56 29zM359 -46h49l5 -6v-234l-5 -5h-49v245zM1297 -46h52v-245h-52v245zM1649 -46h52v-136q4 -60 43 -60h4q44 0 44 81v115h52v-245h-47v24h-5q-12 -33 -59 -33q-52 0 -79 63q-5 12 -5 34v157zM2458 -46
h51v-245h-51v245zM4515 -46h51v-245h-51v245zM1077 -169q0 -53 51 -73h12q54 0 66 66v10q0 53 -54 70h-17q-38 0 -58 -57v-16zM1438 -143h122q-18 47 -53 47h-7q-43 0 -62 -44v-3zM2599 -143h122q-21 47 -54 47h-7q-46 0 -61 -47zM3196 -158v-11q10 -73 61 -73h5q64 8 64 71
v5q0 45 -38 65l-18 5h-14q-60 -14 -60 -62zM3452 -173q14 -69 62 -69h11q41 0 59 60v13q-8 73 -56 73h-17q-47 0 -59 -73v-4zM4062 -158v-22q0 -47 59 -62h9q50 0 61 76q-13 70 -58 70h-15q-56 -17 -56 -62z" />
    <glyph glyph-name=".null" horiz-adv-x="0" 
 />
    <glyph glyph-name="nonmarkingreturn" horiz-adv-x="571" 
 />
    <glyph glyph-name="space" unicode=" " horiz-adv-x="663" 
 />
    <glyph glyph-name="exclam" unicode="!" horiz-adv-x="645" 
d="M278 375q-22 187 -57 344l-52 193q-32 128 -32 188q0 96 40 166q50 86 144 86q95 0 145 -86q40 -70 40 -166q0 -60 -32 -188l-52 -193q-35 -157 -58 -344h-86zM440 262q47 -51 47 -121t-47 -120q-49 -52 -119 -52q-69 0 -118 52q-48 50 -48 120t48 121q49 51 118 51
q70 0 119 -51z" />
    <glyph glyph-name="quotedbl" unicode="&#x22;" horiz-adv-x="681" 
d="M213 768q-1 -7 -5 -17q-4 -11 -10 -21q-18 -25 -45 -25q-28 0 -46 25q-6 10 -11 21q-3 10 -4 17l-39 418q-1 13 -2 22v25q1 32 8 55q21 64 94 64q72 0 92 -64q8 -23 8 -55v-25q0 -9 -1 -22zM589 768q0 -7 -4 -17q-4 -11 -11 -21q-18 -25 -46 -25q-27 0 -44 25
q-7 10 -11 21q-3 10 -4 17l-39 418q-1 13 -2 22v25q0 32 8 55q20 64 92 64q73 0 94 -64q8 -23 8 -55v-25q-1 -9 -2 -22z" />
    <glyph glyph-name="numbersign" unicode="#" 
d="M1070 383h-159l-51 -383h-168l49 383h-174l-49 -383h-170l49 383h-158l6 139h174l31 238h-158l4 139h176l50 361h170l-50 -361h172l52 361h170l-49 -361h141l-4 -139h-160l-31 -238h144zM622 760l-31 -238h172l31 238h-172z" />
    <glyph glyph-name="dollar" unicode="$" 
d="M307 485q15 -154 115 -263q106 -116 254 -116q227 0 227 213q0 109 -102 163q-40 22 -105 40l-90 23q-19 5 -31 8q-74 19 -120 36q-63 24 -105 56q-102 78 -102 227q0 158 137 258q124 91 285 91v184h102v-184q190 0 383 -68l-94 -291l-29 6q-18 130 -88 205
q-77 82 -203 82q-202 0 -202 -192q0 -97 102 -143q39 -18 105 -34l120 -27q73 -17 121 -35q63 -24 105 -56q102 -79 102 -232q0 -168 -131 -283q-126 -112 -297 -112v-195h-96v195q-245 0 -498 109l111 346z" />
    <glyph glyph-name="percent" unicode="%" horiz-adv-x="1402" 
d="M1028 1290h122l-794 -1321h-123zM397 1171q-25 66 -74 66t-74 -66q-28 -76 -28 -243q0 -168 28 -243q25 -67 74 -67t74 67q28 75 28 243q0 167 -28 243zM1153 575q-25 66 -74 66q-50 0 -75 -66q-28 -76 -28 -243q0 -168 28 -243q25 -66 75 -66q49 0 74 66q28 75 28 243
q0 167 -28 243zM549 681q-82 -116 -226 -116t-226 116q-73 102 -73 247q0 144 73 246q82 116 226 116t226 -116q73 -102 73 -246q0 -145 -73 -247zM1305 85q-83 -116 -226 -116q-144 0 -227 116q-72 102 -72 247q0 144 72 246q83 116 227 116q143 0 226 -116
q73 -102 73 -246q0 -145 -73 -247z" />
    <glyph glyph-name="ampersand" unicode="&#x26;" horiz-adv-x="1593" 
d="M788 1022q0 82 -35 136q-39 61 -110 61q-129 0 -129 -172q0 -79 46 -159q33 -56 103 -132q125 105 125 266zM934 668q37 0 112 -4q74 -5 107 -5t111 5q79 4 116 4q-18 -226 -170 -410q58 -54 147 -115l160 -108q8 -5 32 -8l30 -2v-33q-37 0 -113 4t-108 4q-33 0 -106 -4
q-72 -4 -109 -4q-33 0 -66 28l-55 50q-72 -56 -186 -86q-98 -25 -203 -25q-86 0 -167 17q-92 19 -162 57q-171 92 -171 266q0 114 111 205q41 34 103 69l105 56q-58 62 -97 134q-46 86 -46 157q0 156 107 260t264 104q138 0 240 -66q118 -76 118 -208q0 -116 -109 -200
q-43 -33 -104 -62q-45 -21 -108 -43q24 -29 77 -81q45 -45 108 -104q116 -108 196 -176q9 12 13 37l3 41q0 164 -180 213v33zM463 393q0 -336 329 -336q113 0 166 68l-65 59q-1 2 -3 4l-162 150l-113 109q-58 59 -107 114q-45 -67 -45 -168z" />
    <glyph glyph-name="quotesingle" unicode="'" horiz-adv-x="569" 
d="M185 776q108 105 108 217q-175 0 -166 187q0 70 48 120q49 52 118 52q70 0 119 -52q47 -50 47 -120q0 -122 -76 -256q-67 -118 -159 -191z" />
    <glyph glyph-name="parenleft" unicode="(" horiz-adv-x="757" 
d="M659 1352q-63 -93 -110 -208q-41 -102 -68 -220q-24 -105 -36 -217q-10 -99 -10 -197q0 -120 10 -230q12 -124 35 -234q55 -255 175 -435h-91l-71 90q-39 50 -71 95q-77 107 -129 202q-62 113 -94 218q-36 118 -36 230q0 118 34 244q31 116 90 237q53 110 128 224
q67 100 149 201h95z" />
    <glyph glyph-name="parenright" unicode=")" horiz-adv-x="757" 
d="M192 1352q41 -51 72 -90q38 -50 70 -95q77 -107 130 -202q61 -113 93 -218q37 -119 37 -231q0 -117 -34 -244q-31 -115 -90 -237q-54 -110 -129 -223q-67 -101 -149 -201h-94q63 93 109 207q42 103 69 221q24 104 35 217q10 98 10 197q0 119 -10 230q-11 123 -35 234
q-54 254 -174 435h90z" />
    <glyph glyph-name="asterisk" unicode="*" horiz-adv-x="1024" 
d="M691 1311q-36 -57 -83 -166q-54 -122 -54 -168q0 -23 23 -23q10 0 51 33q34 26 87 73l144 132l91 -324l-107 15q-62 8 -108 8q-86 0 -123 -12q-25 -8 -25 -21q0 -15 41 -42q34 -23 94 -53q47 -23 102 -47q45 -19 64 -26l-256 -215q-38 192 -66 267q-26 67 -55 67t-54 -67
q-28 -75 -67 -267l-256 215q20 7 65 26q54 24 101 47q60 30 94 53q41 27 41 42q0 13 -25 21q-37 12 -122 12q-47 0 -108 -8l-107 -15l90 324l144 -132q54 -47 87 -73q41 -33 52 -33q22 0 22 23q0 46 -53 168q-47 109 -84 166h360z" />
    <glyph glyph-name="plus" unicode="+" horiz-adv-x="1228" 
d="M495 1065h237v-414h414v-237h-414v-414h-237v414h-414v237h414v414z" />
    <glyph glyph-name="comma" unicode="," horiz-adv-x="681" 
d="M241 -262q108 105 108 217q-175 0 -166 186q0 70 48 121q49 51 118 51q70 0 119 -51q47 -51 47 -121q0 -122 -76 -255q-67 -118 -159 -191z" />
    <glyph glyph-name="hyphen" unicode="-" horiz-adv-x="681" 
d="M63 416l59 233h496l-59 -233h-496z" />
    <glyph glyph-name="hyphen" unicode="&#x2010;" horiz-adv-x="681" 
d="M63 416l59 233h496l-59 -233h-496z" />
    <glyph glyph-name="period" unicode="." horiz-adv-x="681" 
d="M458 262q48 -51 48 -121t-48 -120q-48 -52 -118 -52t-118 52q-48 50 -48 120t48 121t118 51t118 -51z" />
    <glyph glyph-name="slash" unicode="/" horiz-adv-x="569" 
d="M674 1352l-540 -1393h-240l539 1393h241z" />
    <glyph glyph-name="zero" unicode="0" 
d="M684 1225q-274 0 -274 -594t274 -594t274 594t-274 594zM1142 160q-181 -189 -458 -189t-459 189q-180 187 -180 471q0 283 180 471q182 188 459 188t458 -188t181 -471q0 -284 -181 -471z" />
    <glyph glyph-name="one" unicode="1" 
d="M843 270q0 -116 40 -170q47 -66 165 -71v-37l-364 8l-365 -8v37q118 5 165 71q40 54 40 170v711q0 169 -176 184v37l124 19q70 11 125 20q139 23 246 49v-1020z" />
    <glyph glyph-name="two" unicode="2" 
d="M100 0q0 107 51 203q44 83 129 161q68 62 173 130l179 110q175 108 175 344q0 122 -60 196q-66 81 -186 81q-111 0 -206 -120q-84 -107 -124 -263l-27 -15l-90 365q221 98 486 98q92 0 186 -20q104 -23 185 -67q93 -49 143 -120q57 -80 57 -182q0 -167 -155 -279
q-62 -45 -149 -80q-73 -29 -159 -48l-114 -29q-68 -19 -114 -43q-123 -63 -136 -176h479q130 0 214 40q96 46 153 154h34l-141 -440h-983z" />
    <glyph glyph-name="three" unicode="3" 
d="M135 1202q76 23 120 35l117 28q125 25 244 25q90 0 173 -11q104 -14 183 -45q93 -37 144 -95q59 -67 59 -162q0 -148 -146 -224q-57 -30 -137 -48q-62 -15 -141 -23v-4q77 -7 152 -26q89 -23 157 -59q79 -42 123 -98q50 -64 50 -145q0 -110 -60 -190q-52 -70 -148 -116
q-83 -40 -195 -59q-94 -16 -197 -16q-155 0 -295 25q-153 28 -283 84l113 377l37 -19q0 -163 108 -280q112 -121 277 -121q129 0 202 93q68 86 68 218t-84 217q-78 81 -191 82q-58 0 -131 -27v115q62 -22 131 -22q105 0 168 85q58 77 58 185q0 106 -65 174q-66 70 -171 70
q-123 0 -219 -114q-86 -102 -106 -232l-37 -15z" />
    <glyph glyph-name="four" unicode="4" 
d="M621 430v498l-443 -498h443zM29 401l776 859h135v-814q220 -5 340 203l35 -4l-119 -360l-130 15q-70 6 -126 3q0 -264 178 -274v-37l-338 8l-340 -8v37q181 10 181 274h-621z" />
    <glyph glyph-name="five" unicode="5" 
d="M997 1260q84 0 123 13q30 10 47 36l37 -11l-86 -284h-713q-102 0 -110 -131l-15 -203q88 30 194 44q90 11 200 11q95 0 190 -16q111 -20 196 -58q99 -45 154 -113q62 -78 62 -181q0 -111 -64 -195q-56 -73 -159 -122q-88 -42 -204 -63q-99 -18 -200 -18q-285 0 -557 111
l104 375l37 -9q11 -165 122 -285q115 -126 278 -126q124 0 204 103q74 95 74 222q0 139 -101 224q-96 82 -237 82q-69 0 -127 -10q-48 -7 -91 -22q-29 -10 -62 -25l-43 -21h-52l46 672h753z" />
    <glyph glyph-name="six" unicode="6" 
d="M501 156q60 -121 190 -121q131 0 191 121q47 94 47 247q0 154 -47 248q-60 121 -191 121q-130 0 -190 -121q-47 -94 -47 -248q0 -153 47 -247zM1099 870q-18 136 -106 240q-98 115 -228 115q-99 0 -173 -57q-65 -51 -108 -143q-38 -80 -54 -183q-15 -91 -11 -180h4
q121 176 346 176q196 0 351 -107q174 -120 174 -307q0 -219 -193 -346q-167 -109 -397 -109q-262 0 -442 178q-189 187 -189 480q0 290 180 473q189 190 508 190q102 0 240 -29l120 -29l113 -32l-106 -344z" />
    <glyph glyph-name="seven" unicode="7" 
d="M1313 1260q0 -60 -43 -138q-35 -64 -102 -144q-27 -32 -61 -70q-25 -27 -62 -67l-8 -8l-97 -106q-162 -190 -162 -543l6 -184h-434q0 219 132 426q113 176 311 328q6 5 17 14l54 42q41 33 70 60q75 71 110 144h-516q-177 0 -257 -29q-81 -29 -163 -121h-20l127 396h1098z
" />
    <glyph glyph-name="eight" unicode="8" 
d="M836 463q-113 87 -251 117q-93 -37 -138 -114q-40 -68 -40 -163q0 -119 79 -194q79 -74 199 -74q107 0 180 50q93 63 93 185q0 98 -122 193zM792 774q52 56 80 106q35 64 35 128q0 217 -218 217q-77 0 -141 -48q-69 -52 -69 -126q0 -95 115 -173q40 -27 102 -58z
M1233 171q-53 -71 -150 -120q-85 -42 -195 -63q-96 -19 -194 -19q-99 0 -194 15q-116 18 -204 55q-103 44 -160 112q-65 77 -65 183q0 131 154 211q58 30 138 52q55 16 130 30v4q-61 21 -109 45q-60 29 -103 64q-106 86 -106 204q0 200 174 285q70 34 168 49q79 12 177 12
q72 0 150 -12q95 -15 170 -44q89 -36 138 -88q58 -61 58 -142q0 -118 -110 -188q-43 -26 -105 -48q-41 -15 -111 -33v-2q80 -28 136 -53q78 -36 133 -76q141 -102 141 -244q0 -107 -61 -189z" />
    <glyph glyph-name="nine" unicode="9" 
d="M237 403l41 -14q18 -136 107 -239q98 -115 231 -115q99 0 173 57q65 50 108 142q38 80 54 184q15 91 11 180h-4q-77 -120 -162 -165q-75 -40 -201 -40q-197 0 -350 103q-174 117 -174 303q0 126 56 225q50 90 141 153q166 113 393 113q258 0 442 -172q189 -176 189 -434
q0 -326 -181 -518q-185 -197 -508 -197q-102 0 -239 29l-121 29l-113 32zM864 582q47 96 47 260q0 163 -47 260q-60 123 -191 123t-191 -123q-46 -97 -46 -260q0 -164 46 -260q60 -123 191 -123t191 123z" />
    <glyph glyph-name="colon" unicode=":" horiz-adv-x="681" 
d="M458 262q48 -51 48 -121t-48 -120q-48 -52 -118 -52t-118 52q-48 50 -48 120t48 121t118 51t118 -51zM458 911q48 -50 48 -120q0 -71 -48 -121q-48 -52 -118 -52t-118 52q-48 50 -48 121q0 70 48 120q48 52 118 52t118 -52z" />
    <glyph glyph-name="semicolon" unicode=";" horiz-adv-x="681" 
d="M241 -262q108 105 108 217q-175 0 -166 186q0 70 48 121q49 51 118 51q70 0 119 -51q47 -51 47 -121q0 -122 -76 -255q-67 -118 -159 -191zM468 911q47 -50 47 -120q0 -71 -47 -121q-49 -52 -119 -52q-69 0 -118 52q-48 50 -48 121q0 70 48 120q49 52 118 52
q70 0 119 -52z" />
    <glyph glyph-name="less" unicode="&#x3c;" horiz-adv-x="1228" 
d="M1134 -2l-1040 442v185l1040 442v-221l-743 -314l743 -313v-221z" />
    <glyph glyph-name="equal" unicode="=" horiz-adv-x="1228" 
d="M1146 651h-1065v238h1065v-238zM1146 176h-1065v238h1065v-238z" />
    <glyph glyph-name="greater" unicode="&#x3e;" horiz-adv-x="1228" 
d="M837 532l-743 314v221l1040 -442v-185l-1040 -442v221z" />
    <glyph glyph-name="question" unicode="?" horiz-adv-x="1175" 
d="M75 1274q112 41 240 60q116 18 247 18q201 0 355 -90q184 -107 184 -293q0 -135 -99 -228q-37 -35 -101 -75l-143 -88q-10 -6 -17 -10l-17 -10q-44 -27 -72 -50q-83 -67 -77 -131h-74q3 60 39 121q28 46 80 100q82 86 131 182q55 109 55 213q0 289 -264 289
q-140 0 -237 -115q-87 -102 -105 -249l-31 -9zM658 262q48 -51 48 -121t-48 -120q-48 -52 -118 -52t-118 52q-48 50 -48 120t48 121t118 51t118 -51z" />
    <glyph glyph-name="at" unicode="@" horiz-adv-x="1638" 
d="M943 907q-73 0 -145 -95q-80 -106 -80 -241q0 -165 86 -165q75 0 132 88q64 99 83 284q0 129 -76 129zM1085 995h149l-117 -477q-9 -47 3 -89q14 -50 53 -50q67 0 131 129q63 126 63 252q0 175 -137 308q-148 144 -375 144q-193 0 -332 -131q-78 -74 -120 -180
q-48 -119 -48 -270q0 -224 161 -376q153 -144 358 -144q125 0 222 25q80 22 175 71l18 -113q-109 -63 -193 -93q-114 -42 -220 -42q-186 0 -338 67q-135 60 -234 168q-88 96 -136 218q-44 112 -44 219q0 315 217 522q210 199 514 199q279 0 468 -169q190 -169 190 -421
q0 -172 -97 -316q-108 -161 -274 -161q-88 0 -143 61q-20 22 -31 48q-9 23 -8 36h-5q-13 -35 -73 -82q-76 -57 -156 -61q-70 -2 -124 49q-68 66 -68 194q0 161 97 313q53 83 123 130q80 53 175 53q61 0 93 -31q11 -12 23 -31l19 -34z" />
    <glyph glyph-name="A" unicode="A" horiz-adv-x="1669" 
d="M483 524l-78 -159q-49 -118 -49 -168q0 -133 156 -164v-41q-28 0 -65 1l-189 7q-37 0 -120 -4t-126 -4v37q51 10 130 91q91 94 165 232l501 950l13 23q16 27 25 27h4q9 0 30 -30q17 -24 29 -48l533 -1000q68 -126 120 -180q45 -45 97 -55v-47l-349 8l-333 -8v41l45 11
q22 6 34 15q31 22 31 74q0 67 -69 199l-101 192h-434zM516 594h368l-186 371z" />
    <glyph glyph-name="B" unicode="B" horiz-adv-x="1554" 
d="M534 389q2 -216 45 -271q41 -52 203 -52q330 0 330 311q0 177 -165 247q-66 28 -159 39q-70 9 -166 9h-88v-283zM534 737h68q85 0 146 9q76 11 129 36q126 61 126 213q3 144 -96 199q-87 48 -305 51h-68v-508zM174 1057q0 204 -99 229v33q32 0 72 -1l143 -6q40 -1 70 -1
h440q44 0 80 -2q49 -1 92 -5q110 -10 190 -35q100 -31 154 -85q64 -64 64 -158q0 -164 -146 -240q-58 -31 -142 -49q-60 -14 -150 -24v-4q93 -4 177 -20q102 -20 178 -57q89 -43 137 -108q54 -73 54 -172q0 -116 -75 -195q-65 -67 -183 -105q-96 -31 -226 -44
q-52 -4 -109 -6q-43 -2 -95 -2l-535 -3l-96 -3l-147 -2v41q97 5 130 112q13 44 18 112q4 48 4 132v668z" />
    <glyph glyph-name="C" unicode="C" horiz-adv-x="1593" 
d="M1373 807l-32 12q-28 205 -123 325q-113 142 -306 142q-117 0 -206 -63q-79 -56 -132 -158q-47 -89 -71 -205q-21 -101 -21 -205q0 -103 21 -204q24 -117 71 -205q53 -103 132 -158q89 -63 206 -63q407 0 474 442l28 10l99 -354q-165 -85 -306 -122q-159 -42 -352 -42
q-317 0 -535 177q-113 91 -174 218q-65 136 -65 301q0 166 65 302q61 126 174 218q218 177 535 177q383 0 643 -135z" />
    <glyph glyph-name="D" unicode="D" horiz-adv-x="1630" 
d="M546 389q0 -215 41 -272q37 -51 172 -51q111 0 193 58q73 52 120 147q41 82 61 191q17 93 17 193q0 148 -20 249q-22 113 -72 185q-108 156 -377 156h-135v-856zM186 1057q0 202 -105 229v33q32 0 72 -1l143 -6q40 -1 70 -1h465q115 0 233 -36q132 -39 235 -114
q116 -84 180 -203q73 -134 73 -303t-73 -302q-64 -119 -180 -203q-103 -75 -235 -114q-118 -36 -233 -36l-552 -3l-150 -4q-56 -1 -101 -1v41q101 5 135 112q14 44 19 112q4 48 4 132v668z" />
    <glyph glyph-name="E" unicode="E" horiz-adv-x="1517" 
d="M196 1057q0 203 -121 229v33q37 0 81 -1l220 -7l887 8l96 -361h-45q-238 287 -563 287h-195v-518h121q72 0 131 9q69 10 122 33q127 54 169 181h39v-510h-33q-28 108 -149 165q-112 52 -279 52h-121v-299q0 -158 49 -218q53 -64 201 -64q179 0 367 125q80 54 155 126
q68 65 127 140l33 -14l-149 -461l-963 8l-348 -8v41q108 5 144 112q15 44 20 112q4 48 4 132v668z" />
    <glyph glyph-name="F" unicode="F" 
d="M178 1057q0 202 -105 229v33l289 -8l887 8l96 -361h-45q-238 287 -563 287h-199v-518h125q72 0 131 9q69 10 122 33q127 54 169 181h39v-510h-33q-28 108 -149 165q-112 52 -279 52h-125v-268q0 -84 4 -132q5 -68 19 -112q34 -107 135 -112v-41l-338 8l-338 -8v41
q101 5 135 112q14 44 19 112q4 48 4 132v668z" />
    <glyph glyph-name="G" unicode="G" horiz-adv-x="1669" 
d="M1110 397q0 133 -43 178q-39 41 -170 60v33l348 -9l362 9v-33q-137 -10 -137 -291q0 -74 3 -111q5 -61 22 -110q-165 -85 -306 -122q-159 -42 -352 -42q-317 0 -535 177q-113 91 -174 218q-65 136 -65 301q0 166 65 302q61 126 174 218q218 177 535 177q383 0 643 -135
l-125 -398h-32q-28 205 -123 325q-113 142 -306 142q-117 0 -206 -63q-79 -56 -132 -158q-47 -89 -71 -205q-21 -101 -21 -205q0 -107 16 -204q19 -117 59 -205q47 -102 122 -158q85 -63 203 -63q246 0 246 251v121z" />
    <glyph glyph-name="H" unicode="H" horiz-adv-x="1669" 
d="M1120 733v324q5 201 -107 229v33l287 -8l297 8v-33q-117 -26 -117 -229v-660q0 -70 3 -116q5 -67 18 -114q34 -121 124 -126v-41h-651v41q93 5 124 112q13 44 18 112q4 49 4 132v260h-570v-260q0 -83 4 -132q5 -68 18 -112q32 -107 128 -112v-41h-672v41q104 5 138 112
q15 44 20 112q4 48 4 132v621q0 156 -18 201q-18 47 -91 67v33l289 -8l221 7q44 1 82 1v-33q-73 -15 -98 -62q-25 -46 -25 -167v-324h570z" />
    <glyph glyph-name="I" unicode="I" horiz-adv-x="796" 
d="M219 1108q0 96 -28 134q-19 26 -77 44v33q32 0 72 -1l143 -6q39 -1 70 -1t70 1l143 6q40 1 72 1v-33q-105 -27 -105 -182v-707q0 -83 4 -132q4 -68 17 -112q31 -107 120 -112v-41h-659v41q101 5 135 112q14 44 19 112q4 48 4 132v711z" />
    <glyph glyph-name="J" unicode="J" horiz-adv-x="1024" 
d="M129 434l33 -14q2 -59 11 -117q11 -72 30 -127q48 -143 135 -143q12 0 23 3q12 3 24 11q27 19 47 64q24 53 37 143q14 103 14 254v549q0 204 -133 229v33q41 0 88 -1l226 -7l222 7q46 1 85 1v-33q-127 -25 -127 -229v-525q0 -573 -514 -573q-87 0 -173 14q-67 10 -155 33
z" />
    <glyph glyph-name="K" unicode="K" horiz-adv-x="1517" 
d="M208 1057q0 135 -22 181q-20 40 -82 48v33q31 0 71 -1l143 -6q40 -1 71 -1l290 8v-33q-66 -16 -87 -56q-23 -45 -23 -173v-332l327 299q97 87 97 162q0 74 -99 96v37q32 0 72 -1l143 -6q39 -1 70 -1t70 1l144 6q39 1 71 1v-41q-105 -40 -213 -105q-92 -55 -197 -135
l-366 -301v-4q198 0 310 -58q134 -70 238 -261l71 -129q39 -68 70 -113q77 -111 158 -154v-18h-485q-18 0 -24 16l-216 495q-20 42 -39 70q-53 78 -120 78q-82 0 -82 -112v-150q0 -104 3 -156q5 -69 17 -109q27 -85 119 -91v-41h-643v41q91 5 122 112q13 44 18 112
q3 49 3 132v660z" />
    <glyph glyph-name="L" unicode="L" horiz-adv-x="1478" 
d="M556 358q0 -282 207 -282q179 0 367 125q80 54 155 126q68 65 127 140l33 -14l-149 -461l-920 8l-348 -8v41q108 5 144 112q15 44 20 112q4 48 4 132v668q0 203 -121 229v33l303 -8l223 7q43 1 80 1v-33q-125 -26 -125 -229v-699z" />
    <glyph glyph-name="M" unicode="M" horiz-adv-x="1857" 
d="M313 1104h-2v-658q0 -63 7 -119q10 -70 30 -125q51 -138 166 -167v-35h-500v33q113 30 173 169q48 111 48 244v549q0 162 -37 226q-28 47 -106 71v27q42 0 123 -4t116 -4l187 7q36 1 63 1l385 -817l351 817q42 0 122 -4q81 -4 117 -4t121 4t127 4v-27q-82 -21 -107 -79
q-16 -38 -16 -140v-676q0 -84 4 -132q5 -68 19 -112q34 -107 135 -112v-41h-676v41q101 5 135 112q14 44 19 112q4 48 4 132v738h-7l-505 -1176h-27z" />
    <glyph glyph-name="N" unicode="N" horiz-adv-x="1630" 
d="M47 1319q41 0 121 -4q81 -4 117 -4t120 4q85 4 125 4l809 -789v342q0 64 -7 120q-9 70 -29 125q-51 138 -166 167v35q28 0 64 -1l190 -7q37 0 119 4q83 4 126 4v-33q-112 -30 -172 -169q-49 -112 -49 -245v-847q0 -35 -14 -52q-11 -14 -25 -14h-4q-12 0 -34 20
q-8 7 -18 18l-1025 1074v-633q0 -63 7 -119q10 -70 30 -125q51 -139 166 -167v-35q-28 0 -65 1l-189 7q-37 0 -120 -4t-126 -4v33q113 30 173 169q48 111 48 244v520q0 73 -4 114q-5 58 -20 97q-37 94 -148 117v33z" />
    <glyph glyph-name="O" unicode="O" horiz-adv-x="1705" 
d="M142 957q61 126 174 218q218 177 535 177q318 0 535 -177q113 -92 174 -218q65 -136 65 -302q0 -165 -65 -301q-61 -127 -174 -218q-217 -177 -535 -177q-317 0 -535 177q-113 91 -174 218q-65 136 -65 301q0 166 65 302zM851 25q373 0 373 630q0 631 -373 631t-373 -631
q0 -630 373 -630z" />
    <glyph glyph-name="P" unicode="P" horiz-adv-x="1441" 
d="M552 682h80q381 0 381 307q0 256 -381 256h-80v-563zM192 1057q0 202 -105 229v33q32 0 72 -1l143 -6q40 -1 70 -1h389q629 0 645 -328q0 -115 -77 -198q-65 -72 -186 -117q-100 -38 -231 -56q-104 -14 -210 -14q-68 0 -150 10v-219q0 -84 4 -132q5 -68 19 -112
q34 -107 135 -112v-41l-338 8l-338 -8v41q101 5 135 112q14 44 19 112q4 48 4 132v668z" />
    <glyph glyph-name="Q" unicode="Q" horiz-adv-x="1705" 
d="M1611 -283q-19 -6 -50 -18l-56 -21q-75 -29 -124 -45q-72 -25 -126 -37q-65 -16 -109 -16q-42 0 -120 40l-305 173q-80 39 -126 39q-79 0 -145 -70l-19 86q113 54 285 113v6q-288 55 -457 225q-182 184 -182 463q0 166 65 302q61 126 174 218q218 177 535 177
q318 0 535 -177q113 -92 174 -218q65 -136 65 -302q0 -294 -201 -479q-188 -173 -509 -213v-6q106 -19 229 -62q48 -16 104 -38l251 -98q70 -21 102 -9zM851 25q373 0 373 630q0 631 -373 631t-373 -631q0 -630 373 -630z" />
    <glyph glyph-name="R" unicode="R" horiz-adv-x="1593" 
d="M573 731h109q152 0 246 53q118 66 118 203q0 145 -118 209q-48 27 -117 39q-58 10 -129 10h-109v-514zM213 1057q0 203 -121 229v33l305 -6l547 -2q495 0 495 -307q0 -91 -50 -157q-45 -59 -127 -96q-71 -32 -165 -48q-78 -13 -163 -13v-4q187 -29 270 -87
q93 -66 160 -232q79 -199 129 -263q46 -57 135 -79v-33q-28 0 -65 1l-193 7q-26 0 -60 -1l-127 -6q-35 -1 -63 -1l-109 325q-28 73 -49 117q-32 67 -66 113q-90 119 -214 119h-109v-277q0 -84 4 -132q5 -68 19 -112q34 -107 135 -112v-41l-338 8l-338 -8v41q101 5 135 112
q14 44 19 112q4 48 4 132v668z" />
    <glyph glyph-name="S" unicode="S" horiz-adv-x="1402" 
d="M1173 907l-26 11q-28 154 -134 258q-114 110 -268 110q-120 0 -198 -59q-86 -65 -86 -180q0 -91 66 -133q73 -46 302 -91q136 -26 213 -49q101 -30 164 -70q141 -90 141 -276q0 -118 -62 -213q-56 -85 -158 -146q-92 -54 -210 -83q-109 -27 -219 -27q-175 0 -329 28
q-176 33 -314 101l113 381l30 -12q26 -174 157 -301q136 -131 308 -131q144 0 237 56q111 69 111 206q3 116 -86 167q-80 47 -356 99q-108 20 -176 42q-85 28 -141 68q-127 92 -127 283q0 114 62 199q55 75 157 125q88 42 205 64q100 18 206 18q120 0 264 -27l130 -29
l129 -32z" />
    <glyph glyph-name="T" unicode="T" horiz-adv-x="1593" 
d="M49 946l106 365h1287l106 -365h-45q-34 44 -79 90q-52 53 -105 95q-134 106 -230 106q-110 0 -110 -133v-715q0 -84 4 -132q5 -68 20 -112q36 -107 144 -112v-41l-348 8l-365 -8v41q119 5 158 112q17 44 22 112q4 47 4 132v715q0 133 -110 133q-96 0 -230 -106
q-53 -42 -105 -95q-45 -46 -79 -90h-45z" />
    <glyph glyph-name="U" unicode="U" horiz-adv-x="1554" 
d="M1290 872q0 64 -8 120q-10 70 -31 125q-56 138 -186 167v35l276 -8q39 0 119 4t117 4v-33q-106 -31 -164 -169q-47 -113 -47 -245v-354q0 -559 -600 -559q-115 0 -218 20q-114 22 -199 67q-200 105 -200 312v699q0 128 -21 174t-83 55v33l305 -8l316 8v-33
q-156 -21 -156 -229v-602q0 -186 77 -289q85 -113 257 -113q246 0 350 123q96 112 96 359v337z" />
    <glyph glyph-name="V" unicode="V" horiz-adv-x="1630" 
d="M36 1319q37 0 85 -1l253 -7l309 8v-41q-115 -9 -115 -84q-2 -26 27 -96q26 -62 62 -123l317 -541l219 451q30 64 47 139q15 64 17 119q3 116 -144 135v41q40 0 85 -1l202 -7q37 0 114 4t111 4v-37q-76 -29 -162 -124q-53 -60 -107 -142q-60 -93 -120 -213l-383 -770
q-5 -13 -21 -41l-14 -23q-7 -10 -10 -10h-4q-7 0 -23 28l-13 24l-6 12l-591 1120q-59 114 -135 129v47z" />
    <glyph glyph-name="W" unicode="W" horiz-adv-x="2048" 
d="M1517 524l148 398q35 98 35 184q0 163 -162 186v27q43 0 125 -4t118 -4l191 7q36 1 63 1v-23q-111 -83 -182 -192q-61 -93 -127 -262l-317 -809q-9 -25 -22 -48q-15 -26 -23 -26h-4q-8 0 -16 16l-345 859l-321 -801q-5 -12 -10 -23q-6 -14 -11 -24q-14 -27 -20 -27h-4
q-7 0 -15 15q-7 15 -24 59l-459 1126q-39 95 -123 133v27l307 -8l318 8v-25q-111 -14 -111 -127q0 -36 25 -96l241 -551l303 820q5 14 10 24q13 29 21 29h4q7 0 15 -19z" />
    <glyph glyph-name="X" unicode="X" horiz-adv-x="1554" 
d="M1538 -8q-43 0 -100 1l-294 7l-380 -8v39q116 17 116 100q0 33 -27 90q-22 45 -65 113l-123 194l-135 -184q-86 -118 -86 -199q0 -48 45 -82q39 -29 90 -32v-39l-287 8l-205 -7q-40 -1 -71 -1v39q88 31 211 135q98 82 164 160l229 266l-290 452l-27 41q-34 48 -65 84
q-83 96 -156 113v37l331 -8l346 8v-33q-108 -15 -108 -84q0 -28 44 -100l49 -76q8 -11 11 -16l109 -168l115 164q79 114 79 170q0 93 -114 110v33q29 0 66 -1l192 -7l268 8v-37q-75 -19 -180 -102q-85 -67 -152 -144l-227 -258l348 -499q30 -43 53 -73q34 -43 66 -74
q83 -82 160 -91v-49z" />
    <glyph glyph-name="Y" unicode="Y" horiz-adv-x="1630" 
d="M937 702l154 230q50 74 77 128q32 65 32 105q0 54 -45 86q-36 26 -95 35v33l269 -8l278 8v-37q-213 -80 -362 -295l-271 -385v-213q0 -84 4 -132q5 -68 19 -112q34 -107 135 -112v-41l-338 8l-338 -8v41q101 5 135 112q14 44 19 112q4 48 4 132v180l-342 489
q-41 55 -76 96q-102 118 -172 132v33l344 -8l356 8v-27q-51 -10 -79 -28q-39 -27 -39 -72q0 -58 116 -209z" />
    <glyph glyph-name="Z" unicode="Z" horiz-adv-x="1441" 
d="M208 1311h1117l-629 -1041q-84 -132 -84 -166q0 -38 104 -38q174 0 356 121q155 104 273 264h37l-152 -451h-1169l723 1055q59 85 59 133q0 30 -40 45q-29 12 -64 12q-372 0 -615 -301h-38z" />
    <glyph glyph-name="bracketleft" unicode="[" horiz-adv-x="757" 
d="M217 1034q0 203 124 270q53 29 137 40q62 8 171 8v-82q-106 0 -146 -66q-30 -51 -30 -170v-1106q0 -119 30 -170q40 -65 146 -65v-82q-109 0 -171 8q-84 10 -137 39q-124 68 -124 270v1106z" />
    <glyph glyph-name="backslash" unicode="\" horiz-adv-x="569" 
d="M138 1352l538 -1393h-239l-541 1393h242z" />
    <glyph glyph-name="bracketright" unicode="]" horiz-adv-x="757" 
d="M540 -72q0 -202 -124 -270q-53 -29 -137 -39q-62 -8 -171 -8v82q106 0 146 65q30 51 30 170v1106q0 119 -30 170q-40 66 -146 66v82q109 0 171 -8q84 -11 137 -40q124 -67 124 -270v-1106z" />
    <glyph glyph-name="asciicircum" unicode="^" horiz-adv-x="1228" 
d="M153 512l358 748h205l359 -748h-226l-235 520l-238 -520h-223z" />
    <glyph glyph-name="underscore" unicode="_" horiz-adv-x="1024" 
d="M1024 -154v-102h-1024v102h1024z" />
    <glyph glyph-name="grave" unicode="`" horiz-adv-x="569" 
d="M392 1309q-108 -105 -108 -217q175 0 166 -187q0 -70 -48 -120q-48 -52 -118 -52t-118 52q-48 50 -48 120q0 122 76 256q68 117 160 191z" />
    <glyph glyph-name="a" unicode="a" horiz-adv-x="1251" 
d="M809 170q-62 -98 -135 -146q-83 -55 -191 -55q-180 0 -294 69q-138 83 -138 249q0 103 67 181q59 68 169 114q96 40 225 60q111 17 231 17h45v91q0 280 -239 280q-248 -3 -336 -350l-31 -8l-86 323l133 39q74 21 132 34q146 32 268 28q221 0 334 -100q126 -113 126 -363
v-410q0 -163 111 -192v-31h-346zM790 594h-37q-160 0 -257 -75q-109 -85 -109 -245q0 -87 46 -150q51 -69 134 -69q119 0 179 130q23 51 35 117q9 57 9 114v178z" />
    <glyph glyph-name="b" unicode="b" horiz-adv-x="1402" 
d="M719 47q274 0 274 485q0 486 -272 486q-275 0 -275 -486q0 -485 273 -485zM385 0h-375v31q139 34 139 172v1026q0 152 -110 162v30q225 27 415 64l-3 -144l-2 -73l-1 -369h4q122 197 359 197q215 0 369 -170q149 -164 149 -381q0 -236 -148 -404q-151 -172 -370 -172
q-129 0 -219 41q-79 37 -164 123z" />
    <glyph glyph-name="c" unicode="c" horiz-adv-x="1251" 
d="M1064 635l-33 10q-1 155 -76 263q-85 122 -231 122q-87 0 -151 -51q-57 -45 -94 -128q-31 -70 -47 -162q-13 -77 -13 -157q0 -205 75 -329q91 -148 277 -148q117 0 211 78q89 73 127 189l57 -56q-67 -158 -201 -231q-121 -66 -304 -66q-245 0 -409 154q-169 159 -169 409
q0 262 171 415q166 149 437 149q116 0 243 -38q105 -32 228 -93z" />
    <glyph glyph-name="d" unicode="d" horiz-adv-x="1402" 
d="M673 47q260 0 260 485q0 486 -258 486q-274 0 -274 -486q0 -485 272 -485zM1232 311q0 -96 30 -173q36 -92 99 -107v-31h-366l-43 182h-4q-107 -213 -365 -213q-218 0 -371 174q-147 168 -147 389q0 222 147 390q153 174 371 174q235 0 346 -142h4v271q0 152 -110 161v31
q208 31 409 68v-1174z" />
    <glyph glyph-name="e" unicode="e" horiz-adv-x="1290" 
d="M413 649v-117q0 -92 15 -168q17 -90 53 -154q89 -155 284 -155q151 0 262 125q95 108 133 269l54 -39q-109 -441 -578 -441q-251 0 -409 170q-150 160 -150 393q0 241 150 399q156 165 409 165q220 0 369 -116q159 -123 170 -331h-762zM839 715q-3 63 -10 104
q-9 61 -28 103q-51 108 -175 108q-125 0 -175 -108q-19 -42 -29 -103q-6 -41 -9 -104h426z" />
    <glyph glyph-name="f" unicode="f" horiz-adv-x="720" 
d="M479 926v-676q0 -207 139 -227v-31q-32 0 -72 1l-145 6q-40 1 -71 1q-32 0 -72 -1l-145 -6q-40 -1 -72 -1v31q139 20 139 227v676h-176l39 106h141q0 296 176 389q76 40 197 54q52 6 120 8q50 2 130 2l-113 -314l-26 11l-8 40q-2 9 -4 17l-17 70q-28 84 -74 84
q-86 0 -86 -131v-230h203l-35 -106h-168z" />
    <glyph glyph-name="g" unicode="g" horiz-adv-x="1290" 
d="M405 -273q72 -51 239 -51t240 51q65 45 65 142t-65 142q-73 50 -240 50t-239 -50q-66 -45 -66 -142t66 -142zM788 938q-54 92 -158 92q-105 0 -158 -92q-47 -82 -47 -223t47 -223q53 -93 158 -93q104 0 158 93q47 82 47 223t-47 223zM1150 946q-5 6 -11 14l-30 36
q-21 26 -37 39q-41 34 -110 34q-47 0 -68 -27q114 -52 179 -129q77 -89 77 -202q0 -190 -167 -287q-68 -40 -162 -63q-79 -19 -175 -27q-121 -10 -119 -47q0 -39 195 -64l120 -16q60 -8 105 -17q104 -20 165 -46q136 -60 136 -201q0 -99 -66 -171q-58 -61 -162 -100
q-85 -33 -197 -49q-88 -12 -175 -12q-90 0 -174 8q-114 11 -201 36q-106 30 -164 80q-69 59 -69 142q0 113 145 171q53 21 126 34q28 5 61 10l53 6v4q-211 34 -211 129q0 110 266 125v4q-158 30 -254 109q-116 94 -116 242q0 191 177 297q147 88 353 88q85 0 176 -27
q74 54 108 76q51 33 94 51q90 37 234 37z" />
    <glyph glyph-name="h" unicode="h" 
d="M460 862h4q111 234 363 234q164 0 267 -100q104 -101 104 -263v-543q0 -141 135 -167v-31l-285 8l-274 -8v31q125 14 125 167v484q0 125 -38 203q-51 104 -161 104q-133 0 -191 -127q-49 -109 -49 -332v-180q0 -138 28 -212q33 -86 112 -107v-31q-33 0 -73 1l-145 6
q-40 1 -71 1q-32 0 -72 -1l-145 -6q-40 -1 -72 -1v31q78 21 111 107q28 74 28 212v889q0 127 -119 151v31q202 21 418 72v-623z" />
    <glyph glyph-name="i" unicode="i" horiz-adv-x="681" 
d="M501 246q0 -203 140 -223v-31q-33 0 -73 1l-145 6q-40 1 -71 1q-32 0 -72 -1l-145 -6q-40 -1 -72 -1v31q139 20 139 223v612q0 97 -110 119v31q202 15 409 57v-819zM457 1434q44 -49 44 -115t-44 -115q-45 -51 -111 -51t-112 51q-44 49 -44 115t44 115q46 51 112 51
t111 -51z" />
    <glyph glyph-name="j" unicode="j" horiz-adv-x="681" 
d="M-44 -47q0 -82 29 -157q38 -95 102 -95q65 0 97 111q24 83 24 202v844q0 97 -111 119v31q203 15 410 57v-959q0 -158 -59 -264q-53 -95 -157 -149q-90 -48 -226 -67q-107 -15 -267 -15l119 350zM463 1434q44 -49 44 -115t-44 -115q-46 -51 -112 -51t-112 51
q-44 49 -44 115t44 115q46 51 112 51t112 -51z" />
    <glyph glyph-name="k" unicode="k" horiz-adv-x="1290" 
d="M481 635l174 141q131 108 131 156q0 50 -55 69v31q40 0 118 -4t114 -4q35 0 117 4t122 4v-31q-47 0 -140 -52q-31 -18 -71 -43l-36 -24l-341 -237v-4q168 -7 236 -36q62 -26 113 -105l202 -322q65 -108 146 -155v-31q-35 0 -107 4l-102 4q-21 0 -49 -1l-50 -3
q-68 -4 -104 -4l-285 538q-19 39 -61 39q-72 0 -72 -139v-88q0 -138 28 -212q33 -86 112 -107v-31q-33 0 -73 1l-145 6q-40 1 -71 1q-32 0 -72 -1l-145 -6q-40 -1 -72 -1v31q78 21 111 107q28 74 28 212v889q0 127 -119 151v31q202 21 418 72v-850z" />
    <glyph glyph-name="l" unicode="l" horiz-adv-x="681" 
d="M202 1231q0 127 -119 151v31q195 20 424 72l-6 -219v-924q0 -138 28 -212q33 -86 112 -107v-31q-33 0 -73 1l-145 6q-40 1 -71 1q-32 0 -72 -1l-145 -6q-40 -1 -72 -1v31q78 21 111 107q28 74 28 212v889z" />
    <glyph glyph-name="m" unicode="m" horiz-adv-x="2048" 
d="M446 862h4q110 234 360 234q280 0 344 -228q119 228 369 228q164 0 267 -100q104 -101 104 -263v-543q0 -141 135 -167v-31l-285 8l-274 -8v31q125 14 125 167v433q0 162 -38 248q-48 110 -161 110q-105 0 -164 -119q-51 -102 -51 -239v-433q0 -141 135 -167v-31l-285 8
l-274 -8v31q125 14 125 167v433q0 162 -38 248q-48 110 -161 110q-104 0 -164 -119q-51 -102 -51 -239v-281q0 -138 28 -212q33 -86 112 -107v-31q-33 0 -73 1l-145 6q-40 1 -71 1q-32 0 -72 -1l-145 -6q-40 -1 -72 -1v31q78 21 111 107q28 74 28 212v436q0 98 -40 149
q-31 39 -87 50v31q207 15 404 57v-203z" />
    <glyph glyph-name="n" unicode="n" 
d="M460 862h4q111 234 362 234q164 0 267 -100q104 -101 104 -263v-543q0 -141 135 -167v-31l-284 8l-275 -8v31q125 14 125 167v484q0 125 -38 203q-50 104 -160 104q-117 0 -178 -148q-24 -58 -36 -130q-10 -61 -10 -117v-244q0 -138 28 -212q33 -86 112 -107v-31
q-33 0 -73 1l-145 6q-40 1 -71 1q-32 0 -72 -1l-145 -6q-40 -1 -72 -1v31q78 21 111 107q28 74 28 212v436q0 98 -40 149q-31 39 -87 50v31q203 15 410 57v-203z" />
    <glyph glyph-name="o" unicode="o" 
d="M1116 944q186 -160 186 -412q0 -251 -186 -411q-177 -152 -433 -152q-255 0 -432 152q-186 160 -186 411q0 252 186 412q177 152 432 152q256 0 433 -152zM540 977q-52 -46 -86 -130q-28 -70 -42 -162q-11 -75 -11 -153q0 -77 11 -152q14 -92 42 -162q34 -84 86 -130
q60 -53 143 -53q84 0 144 53q52 46 86 130q28 70 42 162q11 75 11 152q0 78 -11 153q-14 92 -42 162q-34 84 -86 130q-60 53 -144 53q-83 0 -143 -53z" />
    <glyph glyph-name="p" unicode="p" horiz-adv-x="1402" 
d="M719 47q274 0 274 485q0 486 -272 486q-275 0 -275 -486q0 -485 273 -485zM438 872h4q113 224 369 224q215 0 369 -170q149 -164 149 -381q0 -236 -148 -404q-151 -172 -370 -172q-228 0 -365 131v-258q0 -181 166 -204v-35l-307 8l-295 -8v30q77 12 110 68q27 46 27 125
v977q0 152 -110 162v30q119 14 208 29q109 18 193 41v-193z" />
    <glyph glyph-name="q" unicode="q" horiz-adv-x="1402" 
d="M673 47q266 0 266 485q0 486 -264 486q-274 0 -274 -486q0 -485 272 -485zM978 1065h355v-31q-94 -10 -94 -162v-1046q0 -79 27 -125q33 -56 110 -68v-30l-295 8l-307 -8v35q165 23 165 204v344h-4q-31 -90 -107 -146q-95 -71 -245 -71q-218 0 -371 174
q-147 168 -147 389q0 222 147 390q153 174 371 174q126 0 218 -42q78 -36 147 -110z" />
    <glyph glyph-name="r" unicode="r" horiz-adv-x="872" 
d="M749 739q-32 36 -52 50q-31 22 -67 22q-82 0 -124 -99q-36 -83 -36 -212v-158q0 -138 28 -212q33 -86 112 -107v-31q-33 0 -73 1l-145 6q-40 1 -71 1q-32 0 -72 -1l-145 -6q-40 -1 -72 -1v31q78 21 111 107q28 74 28 212v436q0 98 -40 149q-31 39 -87 50v31
q198 15 416 57l-3 -128l-1 -169h4q38 129 113 218q92 110 207 110h92z" />
    <glyph glyph-name="s" unicode="s" horiz-adv-x="1175" 
d="M946 719q-6 136 -98 224q-92 87 -228 87q-200 0 -200 -188q0 -83 83 -124q69 -33 267 -65q78 -12 129 -28q67 -20 112 -51q109 -75 109 -234q0 -106 -55 -183q-48 -69 -138 -114q-78 -39 -183 -58q-89 -16 -187 -16q-259 0 -502 109l102 340h7q55 -173 148 -268
q112 -115 278 -115q86 0 156 56q75 59 75 145q0 96 -109 139q-42 16 -112 30l-129 23q-82 15 -133 32q-67 22 -111 53q-106 76 -106 235q0 185 171 276q70 37 164 56q82 16 172 16q100 0 224 -27q51 -11 110 -28l107 -31l-96 -303z" />
    <glyph glyph-name="t" unicode="t" horiz-adv-x="757" 
d="M292 0q-113 0 -113 166l6 297v463h-147l18 106q120 14 232 101q95 72 174 188h22v-289h250l-41 -106h-209v-629q0 -123 26 -182q34 -80 124 -84v-31h-342z" />
    <glyph glyph-name="u" unicode="u" 
d="M903 201q-119 -232 -360 -232q-187 0 -288 119q-95 111 -95 301l-5 481q0 79 -104 103v33q118 10 210 22q114 16 214 37l-11 -191q-5 -139 -5 -268v-203q0 -125 37 -203q51 -104 161 -104q124 0 187 131q53 111 53 285v334q0 112 -115 131v31q117 10 210 22
q113 15 210 35q-6 -375 -6 -756q0 -238 121 -278v-31h-363z" />
    <glyph glyph-name="v" unicode="v" horiz-adv-x="1290" 
d="M685 33q-9 -23 -20 -41q-14 -23 -21 -23h-4q-9 0 -43 64l-378 735q-34 63 -60 105q-22 36 -39 57q-13 16 -35 29l-59 34v39l287 -8l297 8v-31q-49 -9 -80 -29q-41 -26 -41 -65q0 -37 20 -73l258 -467l150 272q65 116 65 244q0 88 -127 118v31q35 0 103 -4l98 -4l101 4
q71 4 106 4v-31q-99 -68 -153 -139q-39 -53 -103 -180z" />
    <glyph glyph-name="w" unicode="w" horiz-adv-x="1933" 
d="M1443 391l158 361q11 26 16 57q4 24 4 49q0 103 -139 137v37q37 0 108 -4l101 -4q32 0 106 4q75 4 111 4v-31q-88 -55 -160 -154q-59 -81 -108 -192l-282 -643q-5 -11 -10 -20q-13 -23 -22 -23h-4q-12 0 -43 64l-315 635l-309 -649l-3 -6l-9 -20q-12 -24 -17 -24h-4
q-7 0 -18 14q-14 17 -29 50l-369 776q-79 164 -180 192v31l295 -8l307 8v-31q-51 -10 -83 -33q-40 -29 -40 -71q0 -31 21 -72l223 -444l289 651q29 64 35 64h4q4 0 19 -24q13 -21 22 -40z" />
    <glyph glyph-name="x" unicode="x" horiz-adv-x="1214" 
d="M354 664q-14 19 -31 47l-31 48q-38 60 -65 95q-79 106 -170 147v31l272 -8l283 8v-31q-76 -45 -76 -88q0 -16 17 -50l38 -66l74 -117l84 117q55 77 55 125q0 52 -59 79v31q34 0 100 -4l96 -4l99 4q71 4 104 4v-31l-73 -39q-41 -23 -74 -44q-82 -54 -127 -107l-162 -190
l262 -379q63 -91 94 -124q48 -52 121 -95v-31l-307 8l-295 -8v31q86 21 86 94q0 13 -4 27q-5 19 -14 34l-132 228l-139 -191q-19 -25 -29 -51q-8 -21 -8 -35q0 -82 95 -106v-31q-35 0 -106 4l-101 4l-98 -4q-68 -4 -103 -4v31q138 91 248 206l207 242z" />
    <glyph glyph-name="y" unicode="y" horiz-adv-x="1327" 
d="M24 1032q35 0 78 -1l227 -7l316 8v-31q-55 -9 -88 -33q-41 -30 -41 -79q0 -31 36 -98l240 -439l184 404q27 56 27 104q0 103 -127 141v31q37 0 108 -4t103 -4l105 4q75 4 112 4v-31q-77 -32 -144 -119q-26 -34 -53 -78q-20 -34 -43 -79l-360 -696q-134 -260 -229 -331
q-100 -75 -340 -87l127 344l30 -16q0 -49 47 -82q41 -29 91 -29q147 0 147 164q0 92 -80 252l-264 534q-45 91 -96 149q-58 64 -113 74v31z" />
    <glyph glyph-name="z" unicode="z" horiz-adv-x="1175" 
d="M1132 360l-118 -360h-969l578 805q49 74 49 108q0 33 -35 45q-22 9 -60 9q-138 0 -262 -83q-104 -69 -198 -196h-31l104 344h891l-536 -817q-45 -68 -45 -111q0 -38 55 -38q329 0 537 294h40z" />
    <glyph glyph-name="braceleft" unicode="{" horiz-adv-x="757" 
d="M217 252q0 184 -156 229q156 45 156 230v358q0 173 90 232q77 51 291 51v-31q-125 -32 -125 -240v-340q0 -118 -34 -169q-41 -64 -159 -89v-4q118 -24 159 -88q34 -52 34 -170v-340q0 -207 125 -239v-31q-214 0 -291 51q-90 58 -90 232v358z" />
    <glyph glyph-name="bar" unicode="|" horiz-adv-x="454" 
d="M346 1536v-2048h-238v2048h238z" />
    <glyph glyph-name="braceright" unicode="}" horiz-adv-x="757" 
d="M540 711q0 -185 156 -230q-156 -45 -156 -229v-358q0 -174 -90 -232q-77 -51 -291 -51v31q125 32 125 239v340q0 118 33 170q41 64 159 88v4q-118 25 -159 89q-33 51 -33 169v340q0 208 -125 240v31q214 0 291 -51q90 -59 90 -232v-358z" />
    <glyph glyph-name="asciitilde" unicode="~" horiz-adv-x="1228" 
d="M1087 532q-29 -41 -48 -63q-28 -35 -55 -57q-68 -56 -153 -56q-52 0 -107 20q-41 15 -102 48q-59 33 -107 50q-64 22 -128 22q-61 0 -108 -47q-34 -35 -64 -101l-74 184q41 78 93 121q70 56 163 56q48 0 111 -20q47 -15 116 -46l112 -49q62 -25 97 -25q55 0 103 47
q30 29 77 101z" />
    <glyph glyph-name="dieresis" unicode="&#xa8;" horiz-adv-x="1024" 
 />
    <glyph glyph-name="copyright" unicode="&#xa9;" horiz-adv-x="1638" 
d="M333 1149q194 203 486 203t485 -203q191 -200 191 -494q0 -293 -191 -493q-193 -203 -485 -203t-486 203q-190 200 -190 493q0 294 190 494zM445 260q144 -172 374 -172t374 172q136 161 136 395t-136 396q-144 172 -374 172t-374 -172q-136 -162 -136 -396t136 -395z
M1147 516l-29 -149q-2 -22 -57 -41l-7 -2q-4 -2 -7 -3q-10 -3 -19 -6q-24 -7 -48 -13q-66 -15 -124 -15q-424 0 -424 397q0 152 91 255q54 60 135 93q92 37 214 37q65 0 117 -11l44 -12l40 -14q43 -11 43 -41v-139h-45q-25 72 -65 113q-52 55 -130 55q-197 0 -201 -328
q-1 -166 40 -253q48 -103 157 -103q150 0 232 180h43z" />
    <glyph glyph-name="registered" unicode="&#xae;" horiz-adv-x="1638" 
d="M493 1047h398q215 0 215 -195q0 -152 -150 -197l171 -247q32 -45 56 -74v-27h-182q-34 0 -91 114l-51 106q-32 65 -54 104h-48l1 -229q0 -9 1 -16q2 -14 9 -22q13 -15 71 -18v-39h-346v39q60 3 74 18q7 8 9 22q1 7 1 16v547q0 10 -1 16q-2 15 -9 23q-14 15 -74 18v41z
M757 680h50q56 0 82 55q20 42 20 109q0 153 -94 153h-58v-317zM333 1149q194 203 486 203t485 -203q191 -200 191 -494q0 -293 -191 -493q-193 -203 -485 -203t-486 203q-190 200 -190 493q0 294 190 494zM445 260q144 -172 374 -172t374 172q136 161 136 395t-136 396
q-144 172 -374 172t-374 -172q-136 -162 -136 -396t136 -395z" />
    <glyph glyph-name="acute" unicode="&#xb4;" horiz-adv-x="1024" 
 />
    <glyph glyph-name="paragraph" unicode="&#xb6;" horiz-adv-x="1228" 
d="M1062 1260q-147 0 -147 -101v-1413h-107v1514h-110v-1514h-107v819q-179 0 -272 108q-86 100 -86 279q0 359 379 359h450v-51z" />
    <glyph glyph-name="onequarter" unicode="&#xbc;" horiz-adv-x="2048" 
d="M1388 258v299l-295 -299h295zM1003 242l506 514h88v-488q142 -3 221 121h22l-77 -219q-100 15 -166 12q0 -148 114 -155v-31l-219 4l-221 -4v31q117 7 117 155h-404zM587 678q0 -128 133 -135v-31l-237 4l-238 -4v31q133 7 133 135v426q0 93 -113 102v31q91 12 161 24
q87 14 161 29v-612zM1537 1290l-889 -1321h-137l889 1321h137z" />
    <glyph glyph-name="onehalf" unicode="&#xbd;" horiz-adv-x="2048" 
d="M587 678q0 -128 133 -135v-31l-237 4l-238 -4v31q133 7 133 135v426q0 93 -113 102v31q91 12 161 24q87 14 161 29v-612zM1466 1290l-889 -1321h-137l888 1321h138zM1132 0q0 119 117 218q44 37 112 78l117 66q113 64 113 207q0 152 -160 152q-73 0 -134 -65
q-55 -60 -81 -150l-17 -10l-59 219q145 59 315 59q137 0 243 -52q130 -65 130 -181q0 -101 -101 -168q-76 -51 -200 -76q-46 -9 -75 -17q-43 -11 -74 -26q-79 -39 -89 -107h312q170 0 239 117h23l-92 -264h-639z" />
    <glyph glyph-name="threequarters" unicode="&#xbe;" horiz-adv-x="2048" 
d="M1429 258v299l-295 -299h295zM1044 242l505 514h89v-488q141 -3 221 121h22l-78 -219q-100 15 -165 12q0 -148 114 -155v-31l-219 4l-221 -4v31q117 7 117 155h-404zM216 1237q96 27 155 38q80 15 159 15q58 0 111 -6q68 -9 119 -27q132 -48 132 -155q0 -89 -95 -134
q-37 -18 -89 -29q-40 -9 -90 -13v-4q113 -8 199 -50q112 -54 112 -145q0 -125 -135 -185q-54 -23 -126 -35q-61 -9 -128 -9q-213 0 -375 65l74 225l22 -10q0 -97 71 -162t179 -65q180 0 180 172q0 79 -56 127q-52 43 -126 45q-33 0 -86 -16v84q47 -15 86 -15q145 0 145 156
q0 133 -151 133q-82 0 -143 -61q-57 -56 -70 -134l-23 -8zM1609 1290l-889 -1321h-137l889 1321h137z" />
    <glyph glyph-name="Agrave" unicode="&#xc0;" horiz-adv-x="1669" 
d="M483 524l-78 -159q-49 -118 -49 -168q0 -133 156 -164v-41q-28 0 -65 1l-189 7q-37 0 -120 -4t-126 -4v37q51 10 130 91q91 94 165 232l501 950l13 23q16 27 25 27h4q9 0 30 -30q17 -24 29 -48l533 -1000q68 -126 120 -180q45 -45 97 -55v-47l-349 8l-333 -8v41l45 11
q22 6 34 15q31 22 31 74q0 67 -69 199l-101 192h-434zM516 594h368l-186 371zM866 1450l-192 119q-177 108 -177 170q0 96 115 96q45 0 77 -22q13 -9 29 -26l31 -32l254 -305h-137z" />
    <glyph glyph-name="Aacute" unicode="&#xc1;" horiz-adv-x="1669" 
d="M483 524l-78 -159q-49 -118 -49 -168q0 -133 156 -164v-41q-28 0 -65 1l-189 7q-37 0 -120 -4t-126 -4v37q51 10 130 91q91 94 165 232l501 950l13 23q16 27 25 27h4q9 0 30 -30q17 -24 29 -48l533 -1000q68 -126 120 -180q45 -45 97 -55v-47l-349 8l-333 -8v41l45 11
q22 6 34 15q31 22 31 74q0 67 -69 199l-101 192h-434zM516 594h368l-186 371zM665 1450l256 305q38 44 59 58q32 22 76 22q115 0 115 -96q0 -62 -125 -137l-243 -152h-138z" />
    <glyph glyph-name="Acircumflex" unicode="&#xc2;" horiz-adv-x="1669" 
d="M483 524l-78 -159q-49 -118 -49 -168q0 -133 156 -164v-41q-28 0 -65 1l-189 7q-37 0 -120 -4t-126 -4v37q51 10 130 91q91 94 165 232l501 950l13 23q16 27 25 27h4q9 0 30 -30q17 -24 29 -48l533 -1000q68 -126 120 -180q45 -45 97 -55v-47l-349 8l-333 -8v41l45 11
q22 6 34 15q31 22 31 74q0 67 -69 199l-101 192h-434zM516 594h368l-186 371zM477 1450l248 365h219l250 -365h-135l-226 197l-225 -197h-131z" />
    <glyph glyph-name="Atilde" unicode="&#xc3;" horiz-adv-x="1669" 
d="M483 524l-78 -159q-49 -118 -49 -168q0 -133 156 -164v-41q-28 0 -65 1l-189 7q-37 0 -120 -4t-126 -4v37q51 10 130 91q91 94 165 232l501 950l13 23q16 27 25 27h4q9 0 30 -30q17 -24 29 -48l533 -1000q68 -126 120 -180q45 -45 97 -55v-47l-349 8l-333 -8v41l45 11
q22 6 34 15q31 22 31 74q0 67 -69 199l-101 192h-434zM516 594h368l-186 371zM1224 1767q-21 -118 -79 -191q-70 -89 -179 -89q-41 0 -91 16q-35 12 -87 37l-77 37q-41 16 -70 16q-69 0 -99 -96h-98q28 129 83 194q67 81 183 81q52 0 166 -52l44 -19q25 -11 43 -17
q44 -17 69 -17q36 0 62 34q18 24 32 66h98z" />
    <glyph glyph-name="Egrave" unicode="&#xc8;" horiz-adv-x="1517" 
d="M196 1057q0 203 -121 229v33q37 0 81 -1l220 -7l887 8l96 -361h-45q-238 287 -563 287h-195v-518h121q72 0 131 9q69 10 122 33q127 54 169 181h39v-510h-33q-28 108 -149 165q-112 52 -279 52h-121v-299q0 -158 49 -218q53 -64 201 -64q179 0 367 125q80 54 155 126
q68 65 127 140l33 -14l-149 -461l-963 8l-348 -8v41q108 5 144 112q15 44 20 112q4 48 4 132v668zM778 1450l-193 119q-176 108 -176 170q0 96 115 96q45 0 77 -22q13 -9 29 -26l31 -32l254 -305h-137z" />
    <glyph glyph-name="Eacute" unicode="&#xc9;" horiz-adv-x="1517" 
d="M196 1057q0 203 -121 229v33q37 0 81 -1l220 -7l887 8l96 -361h-45q-238 287 -563 287h-195v-518h121q72 0 131 9q69 10 122 33q127 54 169 181h39v-510h-33q-28 108 -149 165q-112 52 -279 52h-121v-299q0 -158 49 -218q53 -64 201 -64q179 0 367 125q80 54 155 126
q68 65 127 140l33 -14l-149 -461l-963 8l-348 -8v41q108 5 144 112q15 44 20 112q4 48 4 132v668zM577 1450l256 305q38 44 58 58q33 22 77 22q115 0 115 -96q0 -62 -125 -137l-244 -152h-137z" />
    <glyph glyph-name="Ecircumflex" unicode="&#xca;" horiz-adv-x="1517" 
d="M196 1057q0 203 -121 229v33q37 0 81 -1l220 -7l887 8l96 -361h-45q-238 287 -563 287h-195v-518h121q72 0 131 9q69 10 122 33q127 54 169 181h39v-510h-33q-28 108 -149 165q-112 52 -279 52h-121v-299q0 -158 49 -218q53 -64 201 -64q179 0 367 125q80 54 155 126
q68 65 127 140l33 -14l-149 -461l-963 8l-348 -8v41q108 5 144 112q15 44 20 112q4 48 4 132v668zM388 1450l248 365h219l250 -365h-135l-225 197l-225 -197h-132z" />
    <glyph glyph-name="Igrave" unicode="&#xcc;" horiz-adv-x="796" 
d="M219 1108q0 96 -28 134q-19 26 -77 44v33q32 0 72 -1l143 -6q39 -1 70 -1t70 1l143 6q40 1 72 1v-33q-105 -27 -105 -182v-707q0 -83 4 -132q4 -68 17 -112q31 -107 120 -112v-41h-659v41q101 5 135 112q14 44 19 112q4 48 4 132v711zM442 1450l-193 119
q-176 108 -176 170q0 96 115 96q45 0 77 -22q13 -9 29 -26l31 -32l254 -305h-137z" />
    <glyph glyph-name="Iacute" unicode="&#xcd;" horiz-adv-x="796" 
d="M219 1108q0 96 -28 134q-19 26 -77 44v33q32 0 72 -1l143 -6q39 -1 70 -1t70 1l143 6q40 1 72 1v-33q-105 -27 -105 -182v-707q0 -83 4 -132q4 -68 17 -112q31 -107 120 -112v-41h-659v41q101 5 135 112q14 44 19 112q4 48 4 132v711zM241 1450l256 305q38 44 59 58
q32 22 76 22q115 0 115 -96q0 -62 -125 -137l-244 -152h-137z" />
    <glyph glyph-name="Eth" unicode="&#xd0;" horiz-adv-x="1630" 
d="M546 733h285v-76h-285v-268q0 -215 41 -272q37 -51 172 -51q111 0 194 58q72 52 119 147q41 82 61 191q17 93 17 193q0 148 -20 249q-22 113 -72 185q-108 156 -377 156h-135v-512zM186 1057q0 202 -105 229v33q32 0 72 -1l143 -6q40 -1 70 -1h465q115 0 234 -36
q131 -39 234 -114q116 -84 180 -203q73 -134 73 -303t-73 -302q-64 -119 -180 -203q-103 -75 -234 -114q-119 -36 -234 -36l-552 -3l-150 -4q-56 -1 -101 -1v41q101 5 135 112q14 44 19 112q4 48 4 132v268h-162v76h162v324z" />
    <glyph glyph-name="Ograve" unicode="&#xd2;" horiz-adv-x="1705" 
d="M142 957q61 126 174 218q218 177 535 177q318 0 535 -177q113 -92 174 -218q65 -136 65 -302q0 -165 -65 -301q-61 -127 -174 -218q-217 -177 -535 -177q-317 0 -535 177q-113 91 -174 218q-65 136 -65 301q0 166 65 302zM851 25q373 0 373 630q0 631 -373 631t-373 -631
q0 -630 373 -630zM896 1450l-192 119q-176 108 -176 170q0 96 114 96q45 0 77 -22q13 -9 30 -26l30 -32l254 -305h-137z" />
    <glyph glyph-name="Oacute" unicode="&#xd3;" horiz-adv-x="1705" 
d="M142 957q61 126 174 218q218 177 535 177q318 0 535 -177q113 -92 174 -218q65 -136 65 -302q0 -165 -65 -301q-61 -127 -174 -218q-217 -177 -535 -177q-317 0 -535 177q-113 91 -174 218q-65 136 -65 301q0 166 65 302zM851 25q373 0 373 630q0 631 -373 631t-373 -631
q0 -630 373 -630zM695 1450l256 305q38 44 59 58q32 22 77 22q114 0 114 -96q0 -62 -125 -137l-243 -152h-138z" />
    <glyph glyph-name="Ocircumflex" unicode="&#xd4;" horiz-adv-x="1705" 
d="M142 957q61 126 174 218q218 177 535 177q318 0 535 -177q113 -92 174 -218q65 -136 65 -302q0 -165 -65 -301q-61 -127 -174 -218q-217 -177 -535 -177q-317 0 -535 177q-113 91 -174 218q-65 136 -65 301q0 166 65 302zM851 25q373 0 373 630q0 631 -373 631t-373 -631
q0 -630 373 -630zM507 1450l248 365h219l250 -365h-135l-226 197l-225 -197h-131z" />
    <glyph glyph-name="Otilde" unicode="&#xd5;" horiz-adv-x="1705" 
d="M142 957q61 126 174 218q218 177 535 177q318 0 535 -177q113 -92 174 -218q65 -136 65 -302q0 -165 -65 -301q-61 -127 -174 -218q-217 -177 -535 -177q-317 0 -535 177q-113 91 -174 218q-65 136 -65 301q0 166 65 302zM851 25q373 0 373 630q0 631 -373 631t-373 -631
q0 -630 373 -630zM1255 1767q-22 -118 -80 -191q-69 -89 -178 -89q-42 0 -92 16q-35 12 -87 37l-77 37q-41 16 -70 16q-69 0 -98 -96h-99q28 129 83 194q67 81 184 81q51 0 165 -52l45 -19q24 -11 42 -17q45 -17 69 -17q36 0 62 34q18 24 32 66h99z" />
    <glyph glyph-name="Ugrave" unicode="&#xd9;" horiz-adv-x="1554" 
d="M1290 872q0 64 -8 120q-10 70 -31 125q-56 138 -186 167v35l276 -8q39 0 119 4t117 4v-33q-106 -31 -164 -169q-47 -113 -47 -245v-354q0 -559 -600 -559q-115 0 -218 20q-114 22 -199 67q-200 105 -200 312v699q0 128 -21 174t-83 55v33l305 -8l316 8v-33
q-156 -21 -156 -229v-602q0 -186 77 -289q85 -113 257 -113q246 0 350 123q96 112 96 359v337zM868 1450l-192 119q-176 108 -176 170q0 96 114 96q45 0 77 -22q13 -9 30 -26l31 -32l254 -305h-138z" />
    <glyph glyph-name="Uacute" unicode="&#xda;" horiz-adv-x="1554" 
d="M1290 872q0 64 -8 120q-10 70 -31 125q-56 138 -186 167v35l276 -8q39 0 119 4t117 4v-33q-106 -31 -164 -169q-47 -113 -47 -245v-354q0 -559 -600 -559q-115 0 -218 20q-114 22 -199 67q-200 105 -200 312v699q0 128 -21 174t-83 55v33l305 -8l316 8v-33
q-156 -21 -156 -229v-602q0 -186 77 -289q85 -113 257 -113q246 0 350 123q96 112 96 359v337zM668 1450l256 305q37 44 58 58q32 22 77 22q114 0 114 -96q0 -62 -124 -137l-244 -152h-137z" />
    <glyph glyph-name="Yacute" unicode="&#xdd;" horiz-adv-x="1630" 
d="M937 702l154 230q50 74 77 128q32 65 32 105q0 54 -45 86q-36 26 -95 35v33l269 -8l278 8v-37q-213 -80 -362 -295l-271 -385v-213q0 -84 4 -132q5 -68 19 -112q34 -107 135 -112v-41l-338 8l-338 -8v41q101 5 135 112q14 44 19 112q4 48 4 132v180l-342 489
q-41 55 -76 96q-102 118 -172 132v33l344 -8l356 8v-27q-51 -10 -79 -28q-39 -27 -39 -72q0 -58 116 -209zM624 1450l256 305q38 44 58 58q33 22 77 22q115 0 115 -96q0 -62 -125 -137l-244 -152h-137z" />
    <glyph glyph-name="agrave" unicode="&#xe0;" horiz-adv-x="1251" 
d="M809 170q-62 -98 -135 -146q-83 -55 -191 -55q-180 0 -294 69q-138 83 -138 249q0 103 67 181q59 68 169 114q96 40 225 60q111 17 231 17h45v91q0 280 -239 280q-248 -3 -336 -350l-31 -8l-86 323l133 39q74 21 132 34q146 32 268 28q221 0 334 -100q126 -113 126 -363
v-410q0 -163 111 -192v-31h-346zM790 594h-37q-160 0 -257 -75q-109 -85 -109 -245q0 -87 46 -150q51 -69 134 -69q119 0 179 130q23 51 35 117q9 57 9 114v178zM635 1202l-193 119q-176 108 -176 170q0 96 115 96q45 0 77 -22q13 -9 29 -25l31 -33l254 -305h-137z" />
    <glyph glyph-name="aacute" unicode="&#xe1;" horiz-adv-x="1251" 
d="M809 170q-62 -98 -135 -146q-83 -55 -191 -55q-180 0 -294 69q-138 83 -138 249q0 103 67 181q59 68 169 114q96 40 225 60q111 17 231 17h45v91q0 280 -239 280q-248 -3 -336 -350l-31 -8l-86 323l133 39q74 21 132 34q146 32 268 28q221 0 334 -100q126 -113 126 -363
v-410q0 -163 111 -192v-31h-346zM790 594h-37q-160 0 -257 -75q-109 -85 -109 -245q0 -87 46 -150q51 -69 134 -69q119 0 179 130q23 51 35 117q9 57 9 114v178zM434 1202l256 305q38 44 58 58q33 22 77 22q115 0 115 -96q0 -62 -125 -137l-244 -152h-137z" />
    <glyph glyph-name="acircumflex" unicode="&#xe2;" horiz-adv-x="1251" 
d="M809 170q-62 -98 -135 -146q-83 -55 -191 -55q-180 0 -294 69q-138 83 -138 249q0 103 67 181q59 68 169 114q96 40 225 60q111 17 231 17h45v91q0 280 -239 280q-248 -3 -336 -350l-31 -8l-86 323l133 39q74 21 132 34q146 32 268 28q221 0 334 -100q126 -113 126 -363
v-410q0 -163 111 -192v-31h-346zM790 594h-37q-160 0 -257 -75q-109 -85 -109 -245q0 -87 46 -150q51 -69 134 -69q119 0 179 130q23 51 35 117q9 57 9 114v178zM246 1202l247 365h220l249 -365h-135l-225 197l-225 -197h-131z" />
    <glyph glyph-name="atilde" unicode="&#xe3;" horiz-adv-x="1251" 
d="M809 170q-62 -98 -135 -146q-83 -55 -191 -55q-180 0 -294 69q-138 83 -138 249q0 103 67 181q59 68 169 114q96 40 225 60q111 17 231 17h45v91q0 280 -239 280q-248 -3 -336 -350l-31 -8l-86 323l133 39q74 21 132 34q146 32 268 28q221 0 334 -100q126 -113 126 -363
v-410q0 -163 111 -192v-31h-346zM790 594h-37q-160 0 -257 -75q-109 -85 -109 -245q0 -87 46 -150q51 -69 134 -69q119 0 179 130q23 51 35 117q9 57 9 114v178zM993 1520q-21 -119 -79 -192q-70 -89 -179 -89q-41 0 -91 17q-35 11 -87 36l-78 37q-40 17 -70 17
q-68 0 -98 -97h-98q28 129 82 194q67 81 184 81q52 0 166 -51l44 -20q24 -10 42 -17q45 -17 70 -17q35 0 61 34q19 24 33 67h98z" />
    <glyph glyph-name="egrave" unicode="&#xe8;" horiz-adv-x="1290" 
d="M413 649v-117q0 -92 15 -168q17 -90 53 -154q89 -155 284 -155q151 0 262 125q95 108 133 269l54 -39q-109 -441 -578 -441q-251 0 -409 170q-150 160 -150 393q0 241 150 399q156 165 409 165q220 0 369 -116q159 -123 170 -331h-762zM839 715q-3 63 -10 104
q-9 61 -28 103q-51 108 -175 108q-125 0 -175 -108q-19 -42 -29 -103q-6 -41 -9 -104h426zM689 1202l-192 119q-176 108 -176 170q0 96 114 96q45 0 77 -22q14 -9 30 -25l31 -33l254 -305h-138z" />
    <glyph glyph-name="eacute" unicode="&#xe9;" horiz-adv-x="1290" 
d="M413 649v-117q0 -92 15 -168q17 -90 53 -154q89 -155 284 -155q151 0 262 125q95 108 133 269l54 -39q-109 -441 -578 -441q-251 0 -409 170q-150 160 -150 393q0 241 150 399q156 165 409 165q220 0 369 -116q159 -123 170 -331h-762zM839 715q-3 63 -10 104
q-9 61 -28 103q-51 108 -175 108q-125 0 -175 -108q-19 -42 -29 -103q-6 -41 -9 -104h426zM489 1202l256 305q37 44 58 58q32 22 77 22q115 0 115 -96q0 -62 -125 -137l-244 -152h-137z" />
    <glyph glyph-name="ecircumflex" unicode="&#xea;" horiz-adv-x="1290" 
d="M413 649v-117q0 -92 15 -168q17 -90 53 -154q89 -155 284 -155q151 0 262 125q95 108 133 269l54 -39q-109 -441 -578 -441q-251 0 -409 170q-150 160 -150 393q0 241 150 399q156 165 409 165q220 0 369 -116q159 -123 170 -331h-762zM839 715q-3 63 -10 104
q-9 61 -28 103q-51 108 -175 108q-125 0 -175 -108q-19 -42 -29 -103q-6 -41 -9 -104h426zM300 1202l248 365h219l250 -365h-135l-225 197l-226 -197h-131z" />
    <glyph glyph-name="igrave" unicode="&#xec;" horiz-adv-x="681" 
d="M502 246q0 -203 139 -223v-31q-32 0 -72 1l-145 6q-40 1 -72 1q-31 0 -71 -1l-145 -6q-40 -1 -72 -1v31q139 20 139 223v612q0 97 -111 119v31q203 15 410 57v-819zM361 1202l-193 119q-176 108 -176 170q0 96 115 96q45 0 77 -22q13 -9 29 -25l31 -33l254 -305h-137z
" />
    <glyph glyph-name="iacute" unicode="&#xed;" horiz-adv-x="681" 
d="M501 246q0 -203 140 -223v-31q-33 0 -73 1l-145 6q-40 1 -71 1q-32 0 -72 -1l-145 -6q-40 -1 -72 -1v31q139 20 139 223v612q0 97 -110 119v31q202 15 409 57v-819zM159 1202l256 305q38 44 59 58q32 22 76 22q115 0 115 -96q0 -62 -125 -137l-244 -152h-137z" />
    <glyph glyph-name="ograve" unicode="&#xf2;" 
d="M1116 944q186 -160 186 -412q0 -251 -186 -411q-177 -152 -433 -152q-255 0 -432 152q-186 160 -186 411q0 252 186 412q177 152 432 152q256 0 433 -152zM540 977q-52 -46 -86 -130q-28 -70 -42 -162q-11 -75 -11 -153q0 -77 11 -152q14 -92 42 -162q34 -84 86 -130
q60 -53 143 -53q84 0 144 53q52 46 86 130q28 70 42 162q11 75 11 152q0 78 -11 153q-14 92 -42 162q-34 84 -86 130q-60 53 -144 53q-83 0 -143 -53zM727 1202l-193 119q-176 108 -176 170q0 96 115 96q45 0 77 -22q13 -9 29 -25l31 -33l254 -305h-137z" />
    <glyph glyph-name="oacute" unicode="&#xf3;" 
d="M1116 944q186 -160 186 -412q0 -251 -186 -411q-177 -152 -433 -152q-255 0 -432 152q-186 160 -186 411q0 252 186 412q177 152 432 152q256 0 433 -152zM540 977q-52 -46 -86 -130q-28 -70 -42 -162q-11 -75 -11 -153q0 -77 11 -152q14 -92 42 -162q34 -84 86 -130
q60 -53 143 -53q84 0 144 53q52 46 86 130q28 70 42 162q11 75 11 152q0 78 -11 153q-14 92 -42 162q-34 84 -86 130q-60 53 -144 53q-83 0 -143 -53zM526 1202l256 305q38 44 58 58q33 22 77 22q115 0 115 -96q0 -62 -125 -137l-244 -152h-137z" />
    <glyph glyph-name="ocircumflex" unicode="&#xf4;" 
d="M1116 944q186 -160 186 -412q0 -251 -186 -411q-177 -152 -433 -152q-255 0 -432 152q-186 160 -186 411q0 252 186 412q177 152 432 152q256 0 433 -152zM540 977q-52 -46 -86 -130q-28 -70 -42 -162q-11 -75 -11 -153q0 -77 11 -152q14 -92 42 -162q34 -84 86 -130
q60 -53 143 -53q84 0 144 53q52 46 86 130q28 70 42 162q11 75 11 152q0 78 -11 153q-14 92 -42 162q-34 84 -86 130q-60 53 -144 53q-83 0 -143 -53zM337 1202l248 365h219l250 -365h-135l-225 197l-226 -197h-131z" />
    <glyph glyph-name="otilde" unicode="&#xf5;" 
d="M1116 944q186 -160 186 -412q0 -251 -186 -411q-177 -152 -433 -152q-255 0 -432 152q-186 160 -186 411q0 252 186 412q177 152 432 152q256 0 433 -152zM540 977q-52 -46 -86 -130q-28 -70 -42 -162q-11 -75 -11 -153q0 -77 11 -152q14 -92 42 -162q34 -84 86 -130
q60 -53 143 -53q84 0 144 53q52 46 86 130q28 70 42 162q11 75 11 152q0 78 -11 153q-14 92 -42 162q-34 84 -86 130q-60 53 -144 53q-83 0 -143 -53zM1085 1520q-21 -119 -79 -192q-70 -89 -179 -89q-42 0 -92 17q-34 11 -86 36l-78 37q-40 17 -70 17q-68 0 -98 -97h-98
q27 129 82 194q67 81 184 81q52 0 166 -51l44 -20q24 -10 42 -17q45 -17 69 -17q36 0 62 34q19 24 33 67h98z" />
    <glyph glyph-name="divide" unicode="&#xf7;" horiz-adv-x="1706" 
 />
    <glyph glyph-name="glyph217" unicode="&#xf9;" 
d="M903 201q-119 -232 -360 -232q-187 0 -288 119q-95 111 -95 301l-5 481q0 79 -104 103v33q118 10 210 22q114 16 214 37l-11 -191q-5 -139 -5 -268v-203q0 -125 37 -203q51 -104 161 -104q124 0 187 131q53 111 53 285v334q0 112 -115 131v31q117 10 210 22
q113 15 210 35q-6 -375 -6 -756q0 -238 121 -278v-31h-363zM710 1202l-192 119q-176 108 -176 170q0 96 115 96q45 0 77 -22q13 -9 29 -25l31 -33l254 -305h-138z" />
    <glyph glyph-name="glyph218" unicode="&#xfa;" 
d="M903 201q-119 -232 -360 -232q-187 0 -288 119q-95 111 -95 301l-5 481q0 79 -104 103v33q118 10 210 22q114 16 214 37l-11 -191q-5 -139 -5 -268v-203q0 -125 37 -203q51 -104 161 -104q124 0 187 131q53 111 53 285v334q0 112 -115 131v31q117 10 210 22
q113 15 210 35q-6 -375 -6 -756q0 -238 121 -278v-31h-363zM510 1202l256 305q38 44 58 58q33 22 77 22q115 0 115 -96q0 -62 -125 -137l-244 -152h-137z" />
    <glyph glyph-name="glyph235" unicode="&#xfd;" horiz-adv-x="1327" 
d="M24 1032q35 0 78 -1l227 -7l316 8v-31q-55 -9 -88 -33q-41 -30 -41 -79q0 -31 36 -98l240 -439l184 404q27 56 27 104q0 103 -127 141v31q37 0 108 -4t103 -4l105 4q75 4 112 4v-31q-77 -32 -144 -119q-26 -34 -53 -78q-20 -34 -43 -79l-360 -696q-134 -260 -229 -331
q-100 -75 -340 -87l127 344l30 -16q0 -49 47 -82q41 -29 91 -29q147 0 147 164q0 92 -80 252l-264 534q-45 91 -96 149q-58 64 -113 74v31zM507 1202l256 305q38 44 59 58q32 22 76 22q115 0 115 -96q0 -62 -125 -137l-243 -152h-138z" />
    <glyph glyph-name="Abreve" unicode="&#x102;" horiz-adv-x="1669" 
d="M483 524l-78 -159q-49 -118 -49 -168q0 -133 156 -164v-41q-28 0 -65 1l-189 7q-37 0 -120 -4t-126 -4v37q51 10 130 91q91 94 165 232l501 950l13 23q16 27 25 27h4q9 0 30 -30q17 -24 29 -48l533 -1000q68 -126 120 -180q45 -45 97 -55v-47l-349 8l-333 -8v41l45 11
q22 6 34 15q31 22 31 74q0 67 -69 199l-101 192h-434zM516 594h368l-186 371zM624 1757q14 -168 215 -168q186 0 224 168h102q0 -153 -84 -244q-88 -96 -246 -96q-315 0 -315 340h104z" />
    <glyph glyph-name="abreve" unicode="&#x103;" horiz-adv-x="1251" 
d="M809 170q-62 -98 -135 -146q-83 -55 -191 -55q-180 0 -294 69q-138 83 -138 249q0 103 67 181q59 68 169 114q96 40 225 60q111 17 231 17h45v91q0 280 -239 280q-248 -3 -336 -350l-31 -8l-86 323l133 39q74 21 132 34q146 32 268 28q221 0 334 -100q126 -113 126 -363
v-410q0 -163 111 -192v-31h-346zM790 594h-37q-160 0 -257 -75q-109 -85 -109 -245q0 -87 46 -150q51 -69 134 -69q119 0 179 130q23 51 35 117q9 57 9 114v178zM385 1519q14 -168 215 -168q186 0 224 168h102q0 -153 -84 -244q-88 -96 -246 -96q-315 0 -315 340h104z" />
    <glyph glyph-name="Ccaron" unicode="&#x10c;" horiz-adv-x="1274" 
 />
    <glyph glyph-name="ccaron" unicode="&#x10d;" horiz-adv-x="922" 
 />
    <glyph glyph-name="Dslash" unicode="&#x110;" horiz-adv-x="1630" 
d="M546 733h285v-76h-285v-268q0 -215 41 -272q37 -51 172 -51q111 0 194 58q72 52 119 147q41 82 61 191q17 93 17 193q0 148 -20 249q-22 113 -72 185q-108 156 -377 156h-135v-512zM186 1057q0 202 -105 229v33q32 0 72 -1l143 -6q40 -1 70 -1h465q115 0 234 -36
q131 -39 234 -114q116 -84 180 -203q73 -134 73 -303t-73 -302q-64 -119 -180 -203q-103 -75 -234 -114q-119 -36 -234 -36l-552 -3l-150 -4q-56 -1 -101 -1v41q101 5 135 112q14 44 19 112q4 48 4 132v268h-162v76h162v324z" />
    <glyph glyph-name="dcroat" unicode="&#x111;" horiz-adv-x="1402" 
d="M673 47q260 0 260 485q0 486 -258 486q-275 0 -275 -486q0 -485 273 -485zM1232 1143v-832q0 -96 30 -173q35 -92 99 -107v-31h-367l-43 182h-4q-106 -213 -364 -213q-219 0 -372 174q-146 168 -146 389q0 222 146 390q153 174 372 174q234 0 346 -142h4v189h-420l45 111
h374q-10 124 -110 132v31q209 31 410 68v-231h153l-44 -111h-109z" />
    <glyph glyph-name="Itilde" unicode="&#x128;" horiz-adv-x="796" 
d="M219 1108q0 96 -28 134q-19 26 -76 44v33q31 0 71 -1l143 -6q40 -1 70 -1q31 0 70 1l144 6q40 1 71 1v-33q-104 -27 -104 -182v-707q0 -83 3 -132q5 -68 17 -112q31 -107 121 -112v-41h-660v41q101 5 135 112q14 44 20 112q3 48 3 132v711zM837 1767q-21 -118 -79 -191
q-70 -89 -179 -89q-41 0 -91 16q-35 12 -87 37l-78 37q-40 16 -70 16q-68 0 -98 -96h-98q28 129 82 194q67 81 184 81q52 0 166 -52l44 -19q24 -11 42 -17q45 -17 70 -17q35 0 61 34q19 24 33 66h98z" />
    <glyph glyph-name="itilde" unicode="&#x129;" horiz-adv-x="681" 
d="M502 246q0 -203 139 -223v-31q-32 0 -72 1l-145 6q-40 1 -72 1q-31 0 -71 -1l-145 -6q-40 -1 -73 -1v31q140 20 140 223v612q0 97 -111 119v31q203 15 410 57v-819zM764 1500q-21 -119 -79 -192q-70 -89 -179 -89q-41 0 -91 17q-35 11 -87 36l-78 37q-40 17 -69 17
q-69 0 -99 -97h-98q28 129 82 194q68 81 184 81q52 0 166 -51l44 -20q24 -10 42 -17q45 -17 70 -17q35 0 61 34q19 24 33 67h98z" />
    <glyph glyph-name="Utilde" unicode="&#x168;" horiz-adv-x="1554" 
d="M1290 872q0 64 -8 120q-10 70 -31 125q-56 138 -186 167v35l276 -8q39 0 119 4t117 4v-33q-106 -31 -164 -169q-47 -113 -47 -245v-354q0 -559 -600 -559q-115 0 -218 20q-114 22 -199 67q-200 105 -200 312v699q0 128 -21 174t-83 55v33l305 -8l316 8v-33
q-156 -21 -156 -229v-602q0 -186 77 -289q85 -113 257 -113q246 0 350 123q96 112 96 359v337zM1255 1767q-21 -118 -79 -191q-70 -89 -179 -89q-41 0 -91 16q-35 12 -87 37l-77 37q-41 16 -70 16q-69 0 -99 -96h-98q28 129 83 194q67 81 183 81q52 0 166 -52l44 -19
q25 -11 42 -17q45 -17 70 -17q35 0 62 34q18 24 32 66h98z" />
    <glyph glyph-name="utilde" unicode="&#x169;" 
d="M903 201q-119 -232 -360 -232q-187 0 -288 119q-95 111 -95 301l-5 481q0 79 -104 103v33q118 10 210 22q114 16 214 37l-11 -191q-5 -139 -5 -268v-203q0 -125 37 -203q51 -104 161 -104q124 0 187 131q53 111 53 285v334q0 112 -115 131v31q117 10 210 22
q113 15 210 35q-6 -375 -6 -756q0 -238 121 -278v-31h-363zM1085 1520q-21 -119 -79 -192q-70 -89 -179 -89q-41 0 -91 17q-35 11 -87 36l-78 37q-40 17 -69 17q-69 0 -99 -97h-98q28 129 82 194q68 81 184 81q52 0 166 -51l44 -20q24 -10 42 -17q45 -17 70 -17q35 0 61 34
q19 24 33 67h98z" />
    <glyph glyph-name="Ohorn" unicode="&#x1a0;" horiz-adv-x="1705" 
d="M851 25q373 0 373 630q0 631 -373 631t-373 -631q0 -630 373 -630zM1426 1139q84 -80 134 -182q65 -136 65 -302q0 -165 -65 -301q-61 -127 -174 -218q-218 -177 -535 -177t-535 177q-113 91 -174 218q-65 136 -65 301q0 166 65 302q61 126 174 218q218 177 535 177
q314 0 531 -173q47 46 60 102q-143 33 -99 181q13 56 62 87q49 33 106 20t87 -64q29 -49 15 -105q-23 -98 -110 -192q-37 -39 -77 -69z" />
    <glyph glyph-name="ohorn" unicode="&#x1a1;" 
d="M1116 944q186 -160 186 -412q0 -251 -186 -411q-177 -152 -433 -152q-255 0 -432 152q-186 160 -186 411q0 252 186 412q177 152 432 152q256 0 433 -152zM540 977q-52 -46 -86 -130q-28 -70 -42 -162q-11 -75 -11 -153q0 -77 11 -152q14 -92 42 -162q34 -84 86 -130
q60 -53 143 -53q84 0 144 53q52 46 86 130q28 70 42 162q11 75 11 152q0 78 -11 153q-14 92 -42 162q-34 84 -86 130q-60 53 -144 53q-83 0 -143 -53zM1023 888q108 64 130 154q-143 33 -100 181q13 56 62 87q50 33 106 20q57 -13 87 -64q29 -49 16 -105q-23 -98 -111 -192
q-77 -82 -166 -123z" />
    <glyph glyph-name="Uhorn" unicode="&#x1af;" horiz-adv-x="1554" 
d="M1367 1100q-1 -210 -1 -228v-354q0 -559 -600 -559q-115 0 -218 20q-114 22 -199 67q-199 105 -199 312v699q0 128 -22 174q-21 46 -83 55v33l305 -8l316 8v-33q-156 -21 -156 -229v-602q0 -186 77 -289q85 -113 257 -113q246 0 350 123q96 112 96 359v337q0 64 -8 120
q-9 70 -31 125q-56 138 -186 167v35l242 -8q66 4 62 -145q59 51 74 115q-143 33 -99 181q13 56 62 87q49 33 106 20t87 -64q29 -49 15 -105q-23 -98 -110 -192q-65 -68 -137 -108z" />
    <glyph glyph-name="uhorn" unicode="&#x1b0;" 
d="M903 201q-119 -232 -360 -232q-187 0 -288 119q-95 111 -95 301l-5 481q0 79 -104 103v33q118 10 210 22q114 16 214 37l-11 -191q-5 -139 -5 -268v-203q0 -125 37 -203q51 -104 161 -104q124 0 187 131q53 111 53 285v334q0 112 -115 131v31q117 10 210 22
q113 15 210 35q-6 -375 -6 -756q0 -238 121 -278v-31h-363zM1146 888q108 64 129 154q-143 33 -100 181q14 56 62 87q50 33 107 20t87 -64q29 -49 15 -105q-23 -98 -111 -192q-77 -82 -166 -123z" />
    <glyph glyph-name="uni1EA0" unicode="&#x1ea0;" horiz-adv-x="1669" 
d="M483 524l-78 -159q-49 -118 -49 -168q0 -133 156 -164v-41q-28 0 -65 1l-189 7q-37 0 -120 -4t-126 -4v37q51 10 130 91q91 94 165 232l501 950l13 23q16 27 25 27h4q9 0 30 -30q17 -24 29 -48l533 -1000q68 -126 120 -180q45 -45 97 -55v-47l-349 8l-333 -8v41l45 11
q22 6 34 15q31 22 31 74q0 67 -69 199l-101 192h-434zM516 594h368l-186 371zM862 -287q0 -146 -145 -146q-146 0 -146 146q0 145 146 145q145 0 145 -145z" />
    <glyph glyph-name="uni1EA1" unicode="&#x1ea1;" horiz-adv-x="1251" 
d="M809 170q-62 -98 -135 -146q-83 -55 -191 -55q-180 0 -294 69q-138 83 -138 249q0 103 67 181q59 68 169 114q96 40 225 60q111 17 231 17h45v91q0 280 -239 280q-248 -3 -336 -350l-31 -8l-86 323l133 39q74 21 132 34q146 32 268 28q221 0 334 -100q126 -113 126 -363
v-410q0 -163 111 -192v-31h-346zM790 594h-37q-160 0 -257 -75q-109 -85 -109 -245q0 -87 46 -150q51 -69 134 -69q119 0 179 130q23 51 35 117q9 57 9 114v178zM732 -287q0 -146 -146 -146q-145 0 -145 146q0 145 145 145q146 0 146 -145z" />
    <glyph glyph-name="uni1EA2" unicode="&#x1ea2;" horiz-adv-x="1669" 
d="M483 524l-78 -159q-49 -118 -49 -168q0 -133 156 -164v-41q-28 0 -65 1l-189 7q-37 0 -120 -4t-126 -4v37q51 10 130 91q91 94 165 232l501 950l13 23q16 27 25 27h4q9 0 30 -30q17 -24 29 -48l533 -1000q68 -126 120 -180q45 -45 97 -55v-47l-349 8l-333 -8v41l45 11
q22 6 34 15q31 22 31 74q0 67 -69 199l-101 192h-434zM516 594h368l-186 371zM625 1833q65 24 124 33q53 8 113 8q94 0 167 -42q90 -52 90 -145q0 -68 -49 -114q-18 -16 -48 -35l-64 -39q-5 -3 -8 -5l-7 -5q-19 -11 -31 -21q-30 -24 -27 -62h-67q2 47 21 78q13 22 38 48
q35 36 55 77q24 46 24 89q0 114 -103 114q-56 0 -94 -46q-36 -43 -45 -115l-39 -10z" />
    <glyph glyph-name="uni1EA3" unicode="&#x1ea3;" horiz-adv-x="1251" 
d="M809 170q-62 -98 -135 -146q-83 -55 -191 -55q-180 0 -294 69q-138 83 -138 249q0 103 67 181q59 68 169 114q96 40 225 60q111 17 231 17h45v91q0 280 -239 280q-248 -3 -336 -350l-31 -8l-86 323l133 39q74 21 132 34q146 32 268 28q221 0 334 -100q126 -113 126 -363
v-410q0 -163 111 -192v-31h-346zM790 594h-37q-160 0 -257 -75q-109 -85 -109 -245q0 -87 46 -150q51 -69 134 -69q119 0 179 130q23 51 35 117q9 57 9 114v178zM359 1586q64 24 124 33q53 8 113 8q94 0 167 -42q90 -52 90 -145q0 -68 -50 -114q-17 -16 -47 -35l-64 -39
q-5 -3 -8 -5l-8 -5q-18 -11 -30 -21q-31 -24 -28 -62h-66q2 47 20 78q14 22 38 48q35 36 56 77q23 46 23 89q0 114 -102 114q-56 0 -95 -46q-35 -43 -44 -115l-40 -10z" />
    <glyph glyph-name="uni1EA4" unicode="&#x1ea4;" horiz-adv-x="1669" 
d="M483 524l-78 -159q-49 -118 -49 -168q0 -133 156 -164v-41q-28 0 -65 1l-189 7q-37 0 -120 -4t-126 -4v37q51 10 130 91q91 94 165 232l501 950l13 23q16 27 25 27h4q9 0 30 -30q17 -24 29 -48l533 -1000q68 -126 120 -180q45 -45 97 -55v-47l-349 8l-333 -8v41l45 11
q22 6 34 15q31 22 31 74q0 67 -69 199l-101 192h-434zM516 594h368l-186 371zM1060 1740l256 305q38 44 59 58q32 22 76 22q115 0 115 -96q0 -62 -125 -137l-243 -152h-138zM477 1450l248 365h219l250 -365h-135l-226 197l-225 -197h-131z" />
    <glyph glyph-name="uni1EA5" unicode="&#x1ea5;" horiz-adv-x="1251" 
d="M809 170q-62 -98 -135 -146q-83 -55 -191 -55q-180 0 -294 69q-138 83 -138 249q0 103 67 181q59 68 169 114q96 40 225 60q111 17 231 17h45v91q0 280 -239 280q-248 -3 -336 -350l-31 -8l-86 323l133 39q74 21 132 34q146 32 268 28q221 0 334 -100q126 -113 126 -363
v-410q0 -163 111 -192v-31h-346zM790 594h-37q-160 0 -257 -75q-109 -85 -109 -245q0 -87 46 -150q51 -69 134 -69q119 0 179 130q23 51 35 117q9 57 9 114v178zM812 1466l256 305q38 44 58 58q33 22 77 22q115 0 115 -96q0 -62 -125 -137l-244 -152h-137zM246 1202l247 365
h220l249 -365h-135l-225 197l-225 -197h-131z" />
    <glyph glyph-name="uni1EA6" unicode="&#x1ea6;" horiz-adv-x="1669" 
d="M483 524l-78 -159q-49 -118 -49 -168q0 -133 156 -164v-41q-28 0 -65 1l-189 7q-37 0 -120 -4t-126 -4v37q51 10 130 91q91 94 165 232l501 950l13 23q16 27 25 27h4q9 0 30 -30q17 -24 29 -48l533 -1000q68 -126 120 -180q45 -45 97 -55v-47l-349 8l-333 -8v41l45 11
q22 6 34 15q31 22 31 74q0 67 -69 199l-101 192h-434zM516 594h368l-186 371zM1157 1732l-192 119q-177 108 -177 170q0 96 115 96q45 0 77 -22q13 -9 29 -26l31 -32l254 -305h-137zM477 1450l248 365h219l250 -365h-135l-226 197l-225 -197h-131z" />
    <glyph glyph-name="uni1EA7" unicode="&#x1ea7;" horiz-adv-x="1251" 
d="M809 170q-62 -98 -135 -146q-83 -55 -191 -55q-180 0 -294 69q-138 83 -138 249q0 103 67 181q59 68 169 114q96 40 225 60q111 17 231 17h45v91q0 280 -239 280q-248 -3 -336 -350l-31 -8l-86 323l133 39q74 21 132 34q146 32 268 28q221 0 334 -100q126 -113 126 -363
v-410q0 -163 111 -192v-31h-346zM790 594h-37q-160 0 -257 -75q-109 -85 -109 -245q0 -87 46 -150q51 -69 134 -69q119 0 179 130q23 51 35 117q9 57 9 114v178zM917 1473l-193 119q-176 108 -176 170q0 96 115 96q45 0 77 -22q13 -9 29 -25l31 -33l254 -305h-137zM246 1202
l247 365h220l249 -365h-135l-225 197l-225 -197h-131z" />
    <glyph glyph-name="uni1EA8" unicode="&#x1ea8;" horiz-adv-x="1669" 
d="M483 524l-78 -159q-49 -118 -49 -168q0 -133 156 -164v-41q-28 0 -65 1l-189 7q-37 0 -120 -4t-126 -4v37q51 10 130 91q91 94 165 232l501 950l13 23q16 27 25 27h4q9 0 30 -30q17 -24 29 -48l533 -1000q68 -126 120 -180q45 -45 97 -55v-47l-349 8l-333 -8v41l45 11
q22 6 34 15q31 22 31 74q0 67 -69 199l-101 192h-434zM516 594h368l-186 371zM880 2141q65 24 124 33q53 8 113 8q94 0 167 -42q90 -52 90 -145q0 -68 -49 -114q-18 -16 -48 -35l-64 -39q-5 -3 -8 -5l-7 -5q-19 -11 -31 -21q-30 -24 -27 -62h-67q2 47 21 78q13 22 38 48
q35 36 55 77q24 46 24 89q0 114 -103 114q-56 0 -94 -46q-36 -43 -45 -115l-39 -10zM477 1450l248 365h219l250 -365h-135l-226 197l-225 -197h-131z" />
    <glyph glyph-name="uni1EA9" unicode="&#x1ea9;" horiz-adv-x="1251" 
d="M809 170q-62 -98 -135 -146q-83 -55 -191 -55q-180 0 -294 69q-138 83 -138 249q0 103 67 181q59 68 169 114q96 40 225 60q111 17 231 17h45v91q0 280 -239 280q-248 -3 -336 -350l-31 -8l-86 323l133 39q74 21 132 34q146 32 268 28q221 0 334 -100q126 -113 126 -363
v-410q0 -163 111 -192v-31h-346zM790 594h-37q-160 0 -257 -75q-109 -85 -109 -245q0 -87 46 -150q51 -69 134 -69q119 0 179 130q23 51 35 117q9 57 9 114v178zM650 1894q64 24 124 33q53 8 113 8q94 0 167 -42q90 -52 90 -145q0 -68 -50 -114q-17 -16 -47 -35l-64 -39
q-5 -3 -8 -5l-8 -5q-18 -11 -30 -21q-31 -24 -28 -62h-66q2 47 20 78q14 22 38 48q35 36 56 77q23 46 23 89q0 114 -102 114q-56 0 -95 -46q-35 -43 -44 -115l-40 -10zM246 1202l247 365h220l249 -365h-135l-225 197l-225 -197h-131z" />
    <glyph glyph-name="uni1EAA" unicode="&#x1eaa;" horiz-adv-x="1669" 
d="M483 524l-78 -159q-49 -118 -49 -168q0 -133 156 -164v-41q-28 0 -65 1l-189 7q-37 0 -120 -4t-126 -4v37q51 10 130 91q91 94 165 232l501 950l13 23q16 27 25 27h4q9 0 30 -30q17 -24 29 -48l533 -1000q68 -126 120 -180q45 -45 97 -55v-47l-349 8l-333 -8v41l45 11
q22 6 34 15q31 22 31 74q0 67 -69 199l-101 192h-434zM516 594h368l-186 371zM1303 2129q-21 -118 -79 -191q-70 -89 -179 -89q-41 0 -91 16q-35 12 -87 37l-77 37q-41 16 -70 16q-69 0 -99 -96h-98q28 129 83 194q67 81 183 81q52 0 166 -52l44 -19q25 -11 43 -17
q44 -17 69 -17q36 0 62 34q18 24 32 66h98zM477 1450l248 365h219l250 -365h-135l-226 197l-225 -197h-131z" />
    <glyph glyph-name="uni1EAB" unicode="&#x1eab;" horiz-adv-x="1251" 
d="M809 170q-62 -98 -135 -146q-83 -55 -191 -55q-180 0 -294 69q-138 83 -138 249q0 103 67 181q59 68 169 114q96 40 225 60q111 17 231 17h45v91q0 280 -239 280q-248 -3 -336 -350l-31 -8l-86 323l133 39q74 21 132 34q146 32 268 28q221 0 334 -100q126 -113 126 -363
v-410q0 -163 111 -192v-31h-346zM790 594h-37q-160 0 -257 -75q-109 -85 -109 -245q0 -87 46 -150q51 -69 134 -69q119 0 179 130q23 51 35 117q9 57 9 114v178zM1099 1863q-21 -119 -79 -192q-70 -89 -179 -89q-41 0 -91 17q-35 11 -87 36l-78 37q-40 17 -70 17
q-68 0 -98 -97h-98q28 129 82 194q67 81 184 81q52 0 166 -51l44 -20q24 -10 42 -17q45 -17 70 -17q35 0 61 34q19 24 33 67h98zM246 1202l247 365h220l249 -365h-135l-225 197l-225 -197h-131z" />
    <glyph glyph-name="uni1EAC" unicode="&#x1eac;" horiz-adv-x="1669" 
d="M483 524l-78 -159q-49 -118 -49 -168q0 -133 156 -164v-41q-28 0 -65 1l-189 7q-37 0 -120 -4t-126 -4v37q51 10 130 91q91 94 165 232l501 950l13 23q16 27 25 27h4q9 0 30 -30q17 -24 29 -48l533 -1000q68 -126 120 -180q45 -45 97 -55v-47l-349 8l-333 -8v41l45 11
q22 6 34 15q31 22 31 74q0 67 -69 199l-101 192h-434zM516 594h368l-186 371zM862 -287q0 -146 -145 -146q-146 0 -146 146q0 145 146 145q145 0 145 -145zM477 1450l248 365h219l250 -365h-135l-226 197l-225 -197h-131z" />
    <glyph glyph-name="uni1EAD" unicode="&#x1ead;" horiz-adv-x="1251" 
d="M809 170q-62 -98 -135 -146q-83 -55 -191 -55q-180 0 -294 69q-138 83 -138 249q0 103 67 181q59 68 169 114q96 40 225 60q111 17 231 17h45v91q0 280 -239 280q-248 -3 -336 -350l-31 -8l-86 323l133 39q74 21 132 34q146 32 268 28q221 0 334 -100q126 -113 126 -363
v-410q0 -163 111 -192v-31h-346zM790 594h-37q-160 0 -257 -75q-109 -85 -109 -245q0 -87 46 -150q51 -69 134 -69q119 0 179 130q23 51 35 117q9 57 9 114v178zM732 -287q0 -146 -146 -146q-145 0 -145 146q0 145 145 145q146 0 146 -145zM246 1202l247 365h220l249 -365
h-135l-225 197l-225 -197h-131z" />
    <glyph glyph-name="uni1EAE" unicode="&#x1eae;" horiz-adv-x="1669" 
d="M483 524l-78 -159q-49 -118 -49 -168q0 -133 156 -164v-41q-28 0 -65 1l-189 7q-37 0 -120 -4t-126 -4v37q51 10 130 91q91 94 165 232l501 950l13 23q16 27 25 27h4q9 0 30 -30q17 -24 29 -48l533 -1000q68 -126 120 -180q45 -45 97 -55v-47l-349 8l-333 -8v41l45 11
q22 6 34 15q31 22 31 74q0 67 -69 199l-101 192h-434zM516 594h368l-186 371zM744 1740l256 305q38 44 59 58q32 22 76 22q115 0 115 -96q0 -62 -125 -137l-243 -152h-138zM624 1757q14 -168 215 -168q186 0 224 168h102q0 -153 -84 -244q-88 -96 -246 -96q-315 0 -315 340
h104z" />
    <glyph glyph-name="uni1EAF" unicode="&#x1eaf;" horiz-adv-x="1251" 
d="M809 170q-62 -98 -135 -146q-83 -55 -191 -55q-180 0 -294 69q-138 83 -138 249q0 103 67 181q59 68 169 114q96 40 225 60q111 17 231 17h45v91q0 280 -239 280q-248 -3 -336 -350l-31 -8l-86 323l133 39q74 21 132 34q146 32 268 28q221 0 334 -100q126 -113 126 -363
v-410q0 -163 111 -192v-31h-346zM790 594h-37q-160 0 -257 -75q-109 -85 -109 -245q0 -87 46 -150q51 -69 134 -69q119 0 179 130q23 51 35 117q9 57 9 114v178zM486 1466l256 305q38 44 58 58q33 22 77 22q115 0 115 -96q0 -62 -125 -137l-244 -152h-137zM385 1519
q14 -168 215 -168q186 0 224 168h102q0 -153 -84 -244q-88 -96 -246 -96q-315 0 -315 340h104z" />
    <glyph glyph-name="uni1EB0" unicode="&#x1eb0;" horiz-adv-x="1669" 
d="M483 524l-78 -159q-49 -118 -49 -168q0 -133 156 -164v-41q-28 0 -65 1l-189 7q-37 0 -120 -4t-126 -4v37q51 10 130 91q91 94 165 232l501 950l13 23q16 27 25 27h4q9 0 30 -30q17 -24 29 -48l533 -1000q68 -126 120 -180q45 -45 97 -55v-47l-349 8l-333 -8v41l45 11
q22 6 34 15q31 22 31 74q0 67 -69 199l-101 192h-434zM516 594h368l-186 371zM875 1732l-192 119q-177 108 -177 170q0 96 115 96q45 0 77 -22q13 -9 29 -26l31 -32l254 -305h-137zM624 1757q14 -168 215 -168q186 0 224 168h102q0 -153 -84 -244q-88 -96 -246 -96
q-315 0 -315 340h104z" />
    <glyph glyph-name="uni1EB1" unicode="&#x1eb1;" horiz-adv-x="1251" 
d="M809 170q-62 -98 -135 -146q-83 -55 -191 -55q-180 0 -294 69q-138 83 -138 249q0 103 67 181q59 68 169 114q96 40 225 60q111 17 231 17h45v91q0 280 -239 280q-248 -3 -336 -350l-31 -8l-86 323l133 39q74 21 132 34q146 32 268 28q221 0 334 -100q126 -113 126 -363
v-410q0 -163 111 -192v-31h-346zM790 594h-37q-160 0 -257 -75q-109 -85 -109 -245q0 -87 46 -150q51 -69 134 -69q119 0 179 130q23 51 35 117q9 57 9 114v178zM618 1473l-193 119q-176 108 -176 170q0 96 115 96q45 0 77 -22q13 -9 29 -25l31 -33l254 -305h-137zM385 1519
q14 -168 215 -168q186 0 224 168h102q0 -153 -84 -244q-88 -96 -246 -96q-315 0 -315 340h104z" />
    <glyph glyph-name="uni1EB2" unicode="&#x1eb2;" horiz-adv-x="1669" 
d="M483 524l-78 -159q-49 -118 -49 -168q0 -133 156 -164v-41q-28 0 -65 1l-189 7q-37 0 -120 -4t-126 -4v37q51 10 130 91q91 94 165 232l501 950l13 23q16 27 25 27h4q9 0 30 -30q17 -24 29 -48l533 -1000q68 -126 120 -180q45 -45 97 -55v-47l-349 8l-333 -8v41l45 11
q22 6 34 15q31 22 31 74q0 67 -69 199l-101 192h-434zM516 594h368l-186 371zM642 2141q65 24 124 33q53 8 113 8q94 0 167 -42q90 -52 90 -145q0 -68 -49 -114q-18 -16 -48 -35l-64 -39q-5 -3 -8 -5l-7 -5q-19 -11 -31 -21q-30 -24 -27 -62h-67q2 47 21 78q13 22 38 48
q35 36 55 77q24 46 24 89q0 114 -103 114q-56 0 -94 -46q-36 -43 -45 -115l-39 -10zM624 1757q14 -168 215 -168q186 0 224 168h102q0 -153 -84 -244q-88 -96 -246 -96q-315 0 -315 340h104z" />
    <glyph glyph-name="uni1EB3" unicode="&#x1eb3;" horiz-adv-x="1251" 
d="M809 170q-62 -98 -135 -146q-83 -55 -191 -55q-180 0 -294 69q-138 83 -138 249q0 103 67 181q59 68 169 114q96 40 225 60q111 17 231 17h45v91q0 280 -239 280q-248 -3 -336 -350l-31 -8l-86 323l133 39q74 21 132 34q146 32 268 28q221 0 334 -100q126 -113 126 -363
v-410q0 -163 111 -192v-31h-346zM790 594h-37q-160 0 -257 -75q-109 -85 -109 -245q0 -87 46 -150q51 -69 134 -69q119 0 179 130q23 51 35 117q9 57 9 114v178zM367 1894q64 24 124 33q53 8 113 8q94 0 167 -42q90 -52 90 -145q0 -68 -50 -114q-17 -16 -47 -35l-64 -39
q-5 -3 -8 -5l-8 -5q-18 -11 -30 -21q-31 -24 -28 -62h-66q2 47 20 78q14 22 38 48q35 36 56 77q23 46 23 89q0 114 -102 114q-56 0 -95 -46q-35 -43 -44 -115l-40 -10zM385 1519q14 -168 215 -168q186 0 224 168h102q0 -153 -84 -244q-88 -96 -246 -96q-315 0 -315 340h104z
" />
    <glyph glyph-name="uni1EB4" unicode="&#x1eb4;" horiz-adv-x="1669" 
d="M483 524l-78 -159q-49 -118 -49 -168q0 -133 156 -164v-41q-28 0 -65 1l-189 7q-37 0 -120 -4t-126 -4v37q51 10 130 91q91 94 165 232l501 950l13 23q16 27 25 27h4q9 0 30 -30q17 -24 29 -48l533 -1000q68 -126 120 -180q45 -45 97 -55v-47l-349 8l-333 -8v41l45 11
q22 6 34 15q31 22 31 74q0 67 -69 199l-101 192h-434zM516 594h368l-186 371zM1348 2094q-21 -118 -79 -191q-70 -89 -179 -89q-41 0 -91 16q-35 12 -87 37l-77 37q-41 16 -70 16q-69 0 -99 -96h-98q28 129 83 194q67 81 183 81q52 0 166 -52l44 -19q25 -11 43 -17
q44 -17 69 -17q36 0 62 34q18 24 32 66h98zM624 1757q14 -168 215 -168q186 0 224 168h102q0 -153 -84 -244q-88 -96 -246 -96q-315 0 -315 340h104z" />
    <glyph glyph-name="uni1EB5" unicode="&#x1eb5;" horiz-adv-x="1251" 
d="M809 170q-62 -98 -135 -146q-83 -55 -191 -55q-180 0 -294 69q-138 83 -138 249q0 103 67 181q59 68 169 114q96 40 225 60q111 17 231 17h45v91q0 280 -239 280q-248 -3 -336 -350l-31 -8l-86 323l133 39q74 21 132 34q146 32 268 28q221 0 334 -100q126 -113 126 -363
v-410q0 -163 111 -192v-31h-346zM790 594h-37q-160 0 -257 -75q-109 -85 -109 -245q0 -87 46 -150q51 -69 134 -69q119 0 179 130q23 51 35 117q9 57 9 114v178zM1099 1830q-21 -119 -79 -192q-70 -89 -179 -89q-41 0 -91 17q-35 11 -87 36l-78 37q-40 17 -70 17
q-68 0 -98 -97h-98q28 129 82 194q67 81 184 81q52 0 166 -51l44 -20q24 -10 42 -17q45 -17 70 -17q35 0 61 34q19 24 33 67h98zM385 1519q14 -168 215 -168q186 0 224 168h102q0 -153 -84 -244q-88 -96 -246 -96q-315 0 -315 340h104z" />
    <glyph glyph-name="uni1EB6" unicode="&#x1eb6;" horiz-adv-x="1669" 
d="M483 524l-78 -159q-49 -118 -49 -168q0 -133 156 -164v-41q-28 0 -65 1l-189 7q-37 0 -120 -4t-126 -4v37q51 10 130 91q91 94 165 232l501 950l13 23q16 27 25 27h4q9 0 30 -30q17 -24 29 -48l533 -1000q68 -126 120 -180q45 -45 97 -55v-47l-349 8l-333 -8v41l45 11
q22 6 34 15q31 22 31 74q0 67 -69 199l-101 192h-434zM516 594h368l-186 371zM862 -287q0 -146 -145 -146q-146 0 -146 146q0 145 146 145q145 0 145 -145zM624 1757q14 -168 215 -168q186 0 224 168h102q0 -153 -84 -244q-88 -96 -246 -96q-315 0 -315 340h104z" />
    <glyph glyph-name="uni1EB7" unicode="&#x1eb7;" horiz-adv-x="1251" 
d="M809 170q-62 -98 -135 -146q-83 -55 -191 -55q-180 0 -294 69q-138 83 -138 249q0 103 67 181q59 68 169 114q96 40 225 60q111 17 231 17h45v91q0 280 -239 280q-248 -3 -336 -350l-31 -8l-86 323l133 39q74 21 132 34q146 32 268 28q221 0 334 -100q126 -113 126 -363
v-410q0 -163 111 -192v-31h-346zM790 594h-37q-160 0 -257 -75q-109 -85 -109 -245q0 -87 46 -150q51 -69 134 -69q119 0 179 130q23 51 35 117q9 57 9 114v178zM732 -287q0 -146 -146 -146q-145 0 -145 146q0 145 145 145q146 0 146 -145zM385 1519q14 -168 215 -168
q186 0 224 168h102q0 -153 -84 -244q-88 -96 -246 -96q-315 0 -315 340h104z" />
    <glyph glyph-name="uni1EB8" unicode="&#x1eb8;" horiz-adv-x="1517" 
d="M196 1057q0 203 -121 229v33q37 0 81 -1l220 -7l887 8l96 -361h-45q-238 287 -563 287h-195v-518h121q72 0 131 9q69 10 122 33q127 54 169 181h39v-510h-33q-28 108 -149 165q-112 52 -279 52h-121v-299q0 -158 49 -218q53 -64 201 -64q179 0 367 125q80 54 155 126
q68 65 127 140l33 -14l-149 -461l-963 8l-348 -8v41q108 5 144 112q15 44 20 112q4 48 4 132v668zM862 -287q0 -146 -146 -146q-145 0 -145 146q0 145 145 145q146 0 146 -145z" />
    <glyph glyph-name="uni1EB9" unicode="&#x1eb9;" horiz-adv-x="1290" 
d="M413 649v-117q0 -92 15 -168q17 -90 53 -154q89 -155 284 -155q151 0 262 125q95 108 133 269l54 -39q-109 -441 -578 -441q-251 0 -409 170q-150 160 -150 393q0 241 150 399q156 165 409 165q220 0 369 -116q159 -123 170 -331h-762zM839 715q-3 63 -10 104
q-9 61 -28 103q-51 108 -175 108q-125 0 -175 -108q-19 -42 -29 -103q-6 -41 -9 -104h426zM767 -287q0 -146 -146 -146q-145 0 -145 146q0 145 145 145q146 0 146 -145z" />
    <glyph glyph-name="uni1EBA" unicode="&#x1eba;" horiz-adv-x="1517" 
d="M196 1057q0 203 -121 229v33q37 0 81 -1l220 -7l887 8l96 -361h-45q-238 287 -563 287h-195v-518h121q72 0 131 9q69 10 122 33q127 54 169 181h39v-510h-33q-28 108 -149 165q-112 52 -279 52h-121v-299q0 -158 49 -218q53 -64 201 -64q179 0 367 125q80 54 155 126
q68 65 127 140l33 -14l-149 -461l-963 8l-348 -8v41q108 5 144 112q15 44 20 112q4 48 4 132v668zM511 1833q64 24 124 33q53 8 113 8q94 0 167 -42q90 -52 90 -145q0 -68 -50 -114q-17 -16 -47 -35l-64 -39q-5 -3 -8 -5l-8 -5q-18 -11 -30 -21q-31 -24 -28 -62h-66
q2 47 20 78q14 22 38 48q35 36 56 77q23 46 23 89q0 114 -102 114q-56 0 -95 -46q-35 -43 -44 -115l-40 -10z" />
    <glyph glyph-name="uni1EBB" unicode="&#x1ebb;" horiz-adv-x="1290" 
d="M413 649v-117q0 -92 15 -168q17 -90 53 -154q89 -155 284 -155q151 0 262 125q95 108 133 269l54 -39q-109 -441 -578 -441q-251 0 -409 170q-150 160 -150 393q0 241 150 399q156 165 409 165q220 0 369 -116q159 -123 170 -331h-762zM839 715q-3 63 -10 104
q-9 61 -28 103q-51 108 -175 108q-125 0 -175 -108q-19 -42 -29 -103q-6 -41 -9 -104h426zM368 1586q64 24 124 33q53 8 113 8q94 0 167 -42q90 -52 90 -145q0 -68 -50 -114q-17 -16 -47 -35l-64 -39q-5 -3 -8 -5l-8 -5q-18 -11 -30 -21q-31 -24 -28 -62h-66q2 47 20 78
q14 22 38 48q35 36 56 77q23 46 23 89q0 114 -102 114q-56 0 -95 -46q-35 -43 -44 -115l-40 -10z" />
    <glyph glyph-name="uni1EBC" unicode="&#x1ebc;" horiz-adv-x="1517" 
d="M196 1057q0 203 -121 229v33q37 0 81 -1l220 -7l887 8l96 -361h-45q-238 287 -563 287h-195v-518h121q72 0 131 9q69 10 122 33q127 54 169 181h39v-510h-33q-28 108 -149 165q-112 52 -279 52h-121v-299q0 -158 49 -218q53 -64 201 -64q179 0 367 125q80 54 155 126
q68 65 127 140l33 -14l-149 -461l-963 8l-348 -8v41q108 5 144 112q15 44 20 112q4 48 4 132v668zM1163 1767q-21 -118 -79 -191q-70 -89 -179 -89q-41 0 -91 16q-35 12 -87 37l-78 37q-40 16 -70 16q-68 0 -98 -96h-98q28 129 82 194q67 81 184 81q52 0 166 -52l44 -19
q24 -11 42 -17q45 -17 70 -17q35 0 61 34q19 24 33 66h98z" />
    <glyph glyph-name="uni1EBD" unicode="&#x1ebd;" horiz-adv-x="1290" 
d="M413 649v-117q0 -92 15 -168q17 -90 53 -154q89 -155 284 -155q151 0 262 125q95 108 133 269l54 -39q-109 -441 -578 -441q-251 0 -409 170q-150 160 -150 393q0 241 150 399q156 165 409 165q220 0 369 -116q159 -123 170 -331h-762zM839 715q-3 63 -10 104
q-9 61 -28 103q-51 108 -175 108q-125 0 -175 -108q-19 -42 -29 -103q-6 -41 -9 -104h426zM1072 1520q-21 -119 -79 -192q-70 -89 -179 -89q-41 0 -91 17q-35 11 -87 36l-77 37q-41 17 -70 17q-69 0 -99 -97h-98q28 129 83 194q67 81 183 81q52 0 166 -51l44 -20
q25 -10 43 -17q44 -17 69 -17q36 0 62 34q18 24 32 67h98z" />
    <glyph glyph-name="uni1EBE" unicode="&#x1ebe;" horiz-adv-x="1517" 
d="M196 1057q0 203 -121 229v33q37 0 81 -1l220 -7l887 8l96 -361h-45q-238 287 -563 287h-195v-518h121q72 0 131 9q69 10 122 33q127 54 169 181h39v-510h-33q-28 108 -149 165q-112 52 -279 52h-121v-299q0 -158 49 -218q53 -64 201 -64q179 0 367 125q80 54 155 126
q68 65 127 140l33 -14l-149 -461l-963 8l-348 -8v41q108 5 144 112q15 44 20 112q4 48 4 132v668zM964 1725l256 305q38 44 58 58q33 22 77 22q115 0 115 -96q0 -62 -125 -137l-244 -152h-137zM389 1450l248 365h219l250 -365h-135l-226 197l-225 -197h-131z" />
    <glyph glyph-name="uni1EBF" unicode="&#x1ebf;" horiz-adv-x="1290" 
d="M413 649v-117q0 -92 15 -168q17 -90 53 -154q89 -155 284 -155q151 0 262 125q95 108 133 269l54 -39q-109 -441 -578 -441q-251 0 -409 170q-150 160 -150 393q0 241 150 399q156 165 409 165q220 0 369 -116q159 -123 170 -331h-762zM839 715q-3 63 -10 104
q-9 61 -28 103q-51 108 -175 108q-125 0 -175 -108q-19 -42 -29 -103q-6 -41 -9 -104h426zM860 1473l256 305q37 44 58 58q32 22 77 22q115 0 115 -96q0 -62 -125 -137l-244 -152h-137zM300 1202l248 365h219l250 -365h-135l-225 197l-226 -197h-131z" />
    <glyph glyph-name="uni1EC0" unicode="&#x1ec0;" horiz-adv-x="1517" 
d="M196 1057q0 203 -121 229v33q37 0 81 -1l220 -7l887 8l96 -361h-45q-238 287 -563 287h-195v-518h121q72 0 131 9q69 10 122 33q127 54 169 181h39v-510h-33q-28 108 -149 165q-112 52 -279 52h-121v-299q0 -158 49 -218q53 -64 201 -64q179 0 367 125q80 54 155 126
q68 65 127 140l33 -14l-149 -461l-963 8l-348 -8v41q108 5 144 112q15 44 20 112q4 48 4 132v668zM1066 1724l-193 119q-176 108 -176 170q0 96 115 96q45 0 77 -22q13 -9 29 -26l31 -32l254 -305h-137zM389 1450l248 365h219l250 -365h-135l-226 197l-225 -197h-131z" />
    <glyph glyph-name="uni1EC1" unicode="&#x1ec1;" horiz-adv-x="1290" 
d="M413 649v-117q0 -92 15 -168q17 -90 53 -154q89 -155 284 -155q151 0 262 125q95 108 133 269l54 -39q-109 -441 -578 -441q-251 0 -409 170q-150 160 -150 393q0 241 150 399q156 165 409 165q220 0 369 -116q159 -123 170 -331h-762zM839 715q-3 63 -10 104
q-9 61 -28 103q-51 108 -175 108q-125 0 -175 -108q-19 -42 -29 -103q-6 -41 -9 -104h426zM964 1474l-192 119q-176 108 -176 170q0 96 114 96q45 0 77 -22q14 -9 30 -25l31 -33l254 -305h-138zM300 1202l248 365h219l250 -365h-135l-225 197l-226 -197h-131z" />
    <glyph glyph-name="uni1EC2" unicode="&#x1ec2;" horiz-adv-x="1517" 
d="M196 1057q0 203 -121 229v33q37 0 81 -1l220 -7l887 8l96 -361h-45q-238 287 -563 287h-195v-518h121q72 0 131 9q69 10 122 33q127 54 169 181h39v-510h-33q-28 108 -149 165q-112 52 -279 52h-121v-299q0 -158 49 -218q53 -64 201 -64q179 0 367 125q80 54 155 126
q68 65 127 140l33 -14l-149 -461l-963 8l-348 -8v41q108 5 144 112q15 44 20 112q4 48 4 132v668zM794 2133q64 24 124 33q53 8 113 8q94 0 167 -42q90 -52 90 -145q0 -68 -50 -114q-17 -16 -47 -35l-64 -39q-5 -3 -8 -5l-8 -5q-18 -11 -30 -21q-31 -24 -28 -62h-66
q2 47 20 78q14 22 38 48q35 36 56 77q23 46 23 89q0 114 -102 114q-56 0 -95 -46q-35 -43 -44 -115l-40 -10zM389 1450l248 365h219l250 -365h-135l-226 197l-225 -197h-131z" />
    <glyph glyph-name="uni1EC3" unicode="&#x1ec3;" horiz-adv-x="1290" 
d="M413 649v-117q0 -92 15 -168q17 -90 53 -154q89 -155 284 -155q151 0 262 125q95 108 133 269l54 -39q-109 -441 -578 -441q-251 0 -409 170q-150 160 -150 393q0 241 150 399q156 165 409 165q220 0 369 -116q159 -123 170 -331h-762zM839 715q-3 63 -10 104
q-9 61 -28 103q-51 108 -175 108q-125 0 -175 -108q-19 -42 -29 -103q-6 -41 -9 -104h426zM713 1886q64 24 124 33q53 8 113 8q94 0 167 -42q90 -52 90 -145q0 -68 -50 -114q-17 -16 -47 -35l-64 -39q-5 -3 -8 -5l-8 -5q-18 -11 -30 -21q-31 -24 -28 -62h-66q2 47 20 78
q14 22 38 48q35 36 56 77q23 46 23 89q0 114 -102 114q-56 0 -95 -46q-35 -43 -44 -115l-40 -10zM300 1202l248 365h219l250 -365h-135l-225 197l-226 -197h-131z" />
    <glyph glyph-name="uni1EC4" unicode="&#x1ec4;" horiz-adv-x="1517" 
d="M196 1057q0 203 -121 229v33q37 0 81 -1l220 -7l887 8l96 -361h-45q-238 287 -563 287h-195v-518h121q72 0 131 9q69 10 122 33q127 54 169 181h39v-510h-33q-28 108 -149 165q-112 52 -279 52h-121v-299q0 -158 49 -218q53 -64 201 -64q179 0 367 125q80 54 155 126
q68 65 127 140l33 -14l-149 -461l-963 8l-348 -8v41q108 5 144 112q15 44 20 112q4 48 4 132v668zM1241 2128q-21 -118 -79 -191q-70 -89 -179 -89q-41 0 -91 16q-35 12 -87 37l-78 37q-40 16 -70 16q-68 0 -98 -96h-98q28 129 82 194q67 81 184 81q52 0 166 -52l44 -19
q24 -11 42 -17q45 -17 70 -17q35 0 61 34q19 24 33 66h98zM389 1450l248 365h219l250 -365h-135l-226 197l-225 -197h-131z" />
    <glyph glyph-name="uni1EC5" unicode="&#x1ec5;" horiz-adv-x="1290" 
d="M413 649v-117q0 -92 15 -168q17 -90 53 -154q89 -155 284 -155q151 0 262 125q95 108 133 269l54 -39q-109 -441 -578 -441q-251 0 -409 170q-150 160 -150 393q0 241 150 399q156 165 409 165q220 0 369 -116q159 -123 170 -331h-762zM839 715q-3 63 -10 104
q-9 61 -28 103q-51 108 -175 108q-125 0 -175 -108q-19 -42 -29 -103q-6 -41 -9 -104h426zM1116 1891q-21 -119 -79 -192q-70 -89 -179 -89q-41 0 -91 17q-35 11 -87 36l-77 37q-41 17 -70 17q-69 0 -99 -97h-98q28 129 83 194q67 81 183 81q52 0 166 -51l44 -20
q25 -10 43 -17q44 -17 69 -17q36 0 62 34q18 24 32 67h98zM300 1202l248 365h219l250 -365h-135l-225 197l-226 -197h-131z" />
    <glyph glyph-name="uni1EC6" unicode="&#x1ec6;" horiz-adv-x="1517" 
d="M196 1057q0 203 -121 229v33q37 0 81 -1l220 -7l887 8l96 -361h-45q-238 287 -563 287h-195v-518h121q72 0 131 9q69 10 122 33q127 54 169 181h39v-510h-33q-28 108 -149 165q-112 52 -279 52h-121v-299q0 -158 49 -218q53 -64 201 -64q179 0 367 125q80 54 155 126
q68 65 127 140l33 -14l-149 -461l-963 8l-348 -8v41q108 5 144 112q15 44 20 112q4 48 4 132v668zM862 -287q0 -146 -146 -146q-145 0 -145 146q0 145 145 145q146 0 146 -145zM389 1450l248 365h219l250 -365h-135l-226 197l-225 -197h-131z" />
    <glyph glyph-name="uni1EC7" unicode="&#x1ec7;" horiz-adv-x="1290" 
d="M413 649v-117q0 -92 15 -168q17 -90 53 -154q89 -155 284 -155q151 0 262 125q95 108 133 269l54 -39q-109 -441 -578 -441q-251 0 -409 170q-150 160 -150 393q0 241 150 399q156 165 409 165q220 0 369 -116q159 -123 170 -331h-762zM839 715q-3 63 -10 104
q-9 61 -28 103q-51 108 -175 108q-125 0 -175 -108q-19 -42 -29 -103q-6 -41 -9 -104h426zM767 -287q0 -146 -146 -146q-145 0 -145 146q0 145 145 145q146 0 146 -145zM300 1202l248 365h219l250 -365h-135l-225 197l-226 -197h-131z" />
    <glyph glyph-name="uni1EC8" unicode="&#x1ec8;" horiz-adv-x="796" 
d="M219 1108q0 96 -28 134q-19 26 -77 44v33q32 0 72 -1l143 -6q39 -1 70 -1t70 1l143 6q40 1 72 1v-33q-105 -27 -105 -182v-707q0 -83 4 -132q4 -68 17 -112q31 -107 120 -112v-41h-659v41q101 5 135 112q14 44 19 112q4 48 4 132v711zM176 1833q64 24 124 33q53 8 113 8
q94 0 167 -42q90 -52 90 -145q0 -68 -50 -114q-17 -16 -47 -35l-64 -39q-5 -3 -8 -5l-8 -5q-18 -11 -30 -21q-31 -24 -28 -62h-66q2 47 20 78q14 22 38 48q35 36 56 77q23 46 23 89q0 114 -102 114q-56 0 -95 -46q-35 -43 -44 -115l-40 -10z" />
    <glyph glyph-name="uni1EC9" unicode="&#x1ec9;" horiz-adv-x="681" 
d="M501 246q0 -203 140 -223v-31q-33 0 -73 1l-145 6q-40 1 -71 1q-32 0 -72 -1l-145 -6q-40 -1 -72 -1v31q139 20 139 223v612q0 97 -110 119v31q202 15 409 57v-819zM113 1586q64 24 124 33q53 8 113 8q94 0 167 -42q90 -52 90 -145q0 -68 -50 -114q-17 -16 -47 -35
l-64 -39q-5 -3 -8 -5l-8 -5q-18 -11 -30 -21q-31 -24 -28 -62h-66q2 47 20 78q14 22 38 48q35 36 56 77q23 46 23 89q0 114 -102 114q-56 0 -95 -46q-35 -43 -44 -115l-40 -10z" />
    <glyph glyph-name="uni1ECA" unicode="&#x1eca;" horiz-adv-x="796" 
d="M219 1108q0 96 -28 134q-19 26 -77 44v33q32 0 72 -1l143 -6q39 -1 70 -1t70 1l143 6q40 1 72 1v-33q-105 -27 -105 -182v-707q0 -83 4 -132q4 -68 17 -112q31 -107 120 -112v-41h-659v41q101 5 135 112q14 44 19 112q4 48 4 132v711zM545 -287q0 -146 -146 -146
q-145 0 -145 146q0 145 145 145q146 0 146 -145z" />
    <glyph glyph-name="uni1ECB" unicode="&#x1ecb;" horiz-adv-x="681" 
d="M501 246q0 -203 140 -223v-31q-33 0 -73 1l-145 6q-40 1 -71 1q-32 0 -72 -1l-145 -6q-40 -1 -72 -1v31q139 20 139 223v612q0 97 -110 119v31q202 15 409 57v-819zM457 1434q44 -49 44 -115t-44 -115q-45 -51 -111 -51t-112 51q-44 49 -44 115t44 115q46 51 112 51
t111 -51zM494 -287q0 -146 -146 -146q-145 0 -145 146q0 145 145 145q146 0 146 -145z" />
    <glyph glyph-name="uni1ECC" unicode="&#x1ecc;" horiz-adv-x="1705" 
d="M142 957q61 126 174 218q218 177 535 177q318 0 535 -177q113 -92 174 -218q65 -136 65 -302q0 -165 -65 -301q-61 -127 -174 -218q-217 -177 -535 -177q-317 0 -535 177q-113 91 -174 218q-65 136 -65 301q0 166 65 302zM851 25q373 0 373 630q0 631 -373 631t-373 -631
q0 -630 373 -630zM997 -287q0 -146 -146 -146q-145 0 -145 146q0 145 145 145q146 0 146 -145z" />
    <glyph glyph-name="uni1ECD" unicode="&#x1ecd;" 
d="M1116 944q186 -160 186 -412q0 -251 -186 -411q-177 -152 -433 -152q-255 0 -432 152q-186 160 -186 411q0 252 186 412q177 152 432 152q256 0 433 -152zM540 977q-52 -46 -86 -130q-28 -70 -42 -162q-11 -75 -11 -153q0 -77 11 -152q14 -92 42 -162q34 -84 86 -130
q60 -53 143 -53q84 0 144 53q52 46 86 130q28 70 42 162q11 75 11 152q0 78 -11 153q-14 92 -42 162q-34 84 -86 130q-60 53 -144 53q-83 0 -143 -53zM829 -287q0 -146 -146 -146q-145 0 -145 146q0 145 145 145q146 0 146 -145z" />
    <glyph glyph-name="uni1ECE" unicode="&#x1ece;" horiz-adv-x="1705" 
d="M142 957q61 126 174 218q218 177 535 177q318 0 535 -177q113 -92 174 -218q65 -136 65 -302q0 -165 -65 -301q-61 -127 -174 -218q-217 -177 -535 -177q-317 0 -535 177q-113 91 -174 218q-65 136 -65 301q0 166 65 302zM851 25q373 0 373 630q0 631 -373 631t-373 -631
q0 -630 373 -630zM624 1833q64 24 124 33q53 8 113 8q94 0 167 -42q90 -52 90 -145q0 -68 -50 -114q-17 -16 -47 -35l-64 -39q-5 -3 -8 -5l-8 -5q-18 -11 -30 -21q-31 -24 -28 -62h-66q2 47 20 78q14 22 38 48q35 36 56 77q23 46 23 89q0 114 -102 114q-56 0 -95 -46
q-35 -43 -44 -115l-40 -10z" />
    <glyph glyph-name="uni1ECF" unicode="&#x1ecf;" 
d="M1116 944q186 -160 186 -412q0 -251 -186 -411q-177 -152 -433 -152q-255 0 -432 152q-186 160 -186 411q0 252 186 412q177 152 432 152q256 0 433 -152zM540 977q-52 -46 -86 -130q-28 -70 -42 -162q-11 -75 -11 -153q0 -77 11 -152q14 -92 42 -162q34 -84 86 -130
q60 -53 143 -53q84 0 144 53q52 46 86 130q28 70 42 162q11 75 11 152q0 78 -11 153q-14 92 -42 162q-34 84 -86 130q-60 53 -144 53q-83 0 -143 -53zM458 1586q64 24 124 33q53 8 113 8q94 0 167 -42q90 -52 90 -145q0 -68 -50 -114q-17 -16 -47 -35l-64 -39q-5 -3 -8 -5
l-8 -5q-18 -11 -30 -21q-31 -24 -28 -62h-66q2 47 20 78q14 22 38 48q35 36 56 77q23 46 23 89q0 114 -102 114q-56 0 -95 -46q-35 -43 -44 -115l-40 -10z" />
    <glyph glyph-name="uni1ED0" unicode="&#x1ed0;" horiz-adv-x="1705" 
d="M142 957q61 126 174 218q218 177 535 177q318 0 535 -177q113 -92 174 -218q65 -136 65 -302q0 -165 -65 -301q-61 -127 -174 -218q-217 -177 -535 -177q-317 0 -535 177q-113 91 -174 218q-65 136 -65 301q0 166 65 302zM851 25q373 0 373 630q0 631 -373 631t-373 -631
q0 -630 373 -630zM1083 1723l256 305q38 44 59 58q32 22 77 22q114 0 114 -96q0 -62 -125 -137l-243 -152h-138zM507 1450l248 365h219l250 -365h-135l-226 197l-225 -197h-131z" />
    <glyph glyph-name="uni1ED1" unicode="&#x1ed1;" 
d="M1116 944q186 -160 186 -412q0 -251 -186 -411q-177 -152 -433 -152q-255 0 -432 152q-186 160 -186 411q0 252 186 412q177 152 432 152q256 0 433 -152zM540 977q-52 -46 -86 -130q-28 -70 -42 -162q-11 -75 -11 -153q0 -77 11 -152q14 -92 42 -162q34 -84 86 -130
q60 -53 143 -53q84 0 144 53q52 46 86 130q28 70 42 162q11 75 11 152q0 78 -11 153q-14 92 -42 162q-34 84 -86 130q-60 53 -144 53q-83 0 -143 -53zM896 1474l256 305q38 44 58 58q33 22 77 22q115 0 115 -96q0 -62 -125 -137l-244 -152h-137zM337 1202l248 365h219
l250 -365h-135l-225 197l-226 -197h-131z" />
    <glyph glyph-name="uni1ED2" unicode="&#x1ed2;" horiz-adv-x="1705" 
d="M142 957q61 126 174 218q218 177 535 177q318 0 535 -177q113 -92 174 -218q65 -136 65 -302q0 -165 -65 -301q-61 -127 -174 -218q-217 -177 -535 -177q-317 0 -535 177q-113 91 -174 218q-65 136 -65 301q0 166 65 302zM851 25q373 0 373 630q0 631 -373 631t-373 -631
q0 -630 373 -630zM1169 1732l-192 119q-176 108 -176 170q0 96 114 96q45 0 77 -22q13 -9 30 -26l30 -32l254 -305h-137zM507 1450l248 365h219l250 -365h-135l-226 197l-225 -197h-131z" />
    <glyph glyph-name="uni1ED3" unicode="&#x1ed3;" 
d="M1116 944q186 -160 186 -412q0 -251 -186 -411q-177 -152 -433 -152q-255 0 -432 152q-186 160 -186 411q0 252 186 412q177 152 432 152q256 0 433 -152zM540 977q-52 -46 -86 -130q-28 -70 -42 -162q-11 -75 -11 -153q0 -77 11 -152q14 -92 42 -162q34 -84 86 -130
q60 -53 143 -53q84 0 144 53q52 46 86 130q28 70 42 162q11 75 11 152q0 78 -11 153q-14 92 -42 162q-34 84 -86 130q-60 53 -144 53q-83 0 -143 -53zM1001 1473l-193 119q-176 108 -176 170q0 96 115 96q45 0 77 -22q13 -9 29 -25l31 -33l254 -305h-137zM337 1202l248 365
h219l250 -365h-135l-225 197l-226 -197h-131z" />
    <glyph glyph-name="uni1ED4" unicode="&#x1ed4;" horiz-adv-x="1705" 
d="M142 957q61 126 174 218q218 177 535 177q318 0 535 -177q113 -92 174 -218q65 -136 65 -302q0 -165 -65 -301q-61 -127 -174 -218q-217 -177 -535 -177q-317 0 -535 177q-113 91 -174 218q-65 136 -65 301q0 166 65 302zM851 25q373 0 373 630q0 631 -373 631t-373 -631
q0 -630 373 -630zM923 2124q64 24 124 33q53 8 113 8q94 0 167 -42q90 -52 90 -145q0 -68 -50 -114q-17 -16 -47 -35l-64 -39q-5 -3 -8 -5l-8 -5q-18 -11 -30 -21q-31 -24 -28 -62h-66q2 47 20 78q14 22 38 48q35 36 56 77q23 46 23 89q0 114 -102 114q-56 0 -95 -46
q-35 -43 -44 -115l-40 -10zM507 1450l248 365h219l250 -365h-135l-226 197l-225 -197h-131z" />
    <glyph glyph-name="uni1ED5" unicode="&#x1ed5;" 
d="M1116 944q186 -160 186 -412q0 -251 -186 -411q-177 -152 -433 -152q-255 0 -432 152q-186 160 -186 411q0 252 186 412q177 152 432 152q256 0 433 -152zM540 977q-52 -46 -86 -130q-28 -70 -42 -162q-11 -75 -11 -153q0 -77 11 -152q14 -92 42 -162q34 -84 86 -130
q60 -53 143 -53q84 0 144 53q52 46 86 130q28 70 42 162q11 75 11 152q0 78 -11 153q-14 92 -42 162q-34 84 -86 130q-60 53 -144 53q-83 0 -143 -53zM774 1877q64 24 124 33q53 8 113 8q94 0 167 -42q90 -52 90 -145q0 -68 -50 -114q-17 -16 -47 -35l-64 -39q-5 -3 -8 -5
l-8 -5q-18 -11 -30 -21q-31 -24 -28 -62h-66q2 47 20 78q14 22 38 48q35 36 56 77q23 46 23 89q0 114 -102 114q-56 0 -95 -46q-35 -43 -44 -115l-40 -10zM337 1202l248 365h219l250 -365h-135l-225 197l-226 -197h-131z" />
    <glyph glyph-name="uni1ED6" unicode="&#x1ed6;" horiz-adv-x="1705" 
d="M142 957q61 126 174 218q218 177 535 177q318 0 535 -177q113 -92 174 -218q65 -136 65 -302q0 -165 -65 -301q-61 -127 -174 -218q-217 -177 -535 -177q-317 0 -535 177q-113 91 -174 218q-65 136 -65 301q0 166 65 302zM851 25q373 0 373 630q0 631 -373 631t-373 -631
q0 -630 373 -630zM1327 2137q-22 -118 -80 -191q-69 -89 -178 -89q-42 0 -92 16q-35 12 -87 37l-77 37q-41 16 -70 16q-69 0 -98 -96h-99q28 129 83 194q67 81 184 81q51 0 165 -52l45 -19q24 -11 42 -17q45 -17 69 -17q36 0 62 34q18 24 32 66h99zM507 1450l248 365h219
l250 -365h-135l-226 197l-225 -197h-131z" />
    <glyph glyph-name="uni1ED7" unicode="&#x1ed7;" 
d="M1116 944q186 -160 186 -412q0 -251 -186 -411q-177 -152 -433 -152q-255 0 -432 152q-186 160 -186 411q0 252 186 412q177 152 432 152q256 0 433 -152zM540 977q-52 -46 -86 -130q-28 -70 -42 -162q-11 -75 -11 -153q0 -77 11 -152q14 -92 42 -162q34 -84 86 -130
q60 -53 143 -53q84 0 144 53q52 46 86 130q28 70 42 162q11 75 11 152q0 78 -11 153q-14 92 -42 162q-34 84 -86 130q-60 53 -144 53q-83 0 -143 -53zM1163 1895q-21 -119 -79 -192q-70 -89 -179 -89q-42 0 -92 17q-34 11 -86 36l-78 37q-40 17 -70 17q-68 0 -98 -97h-98
q27 129 82 194q67 81 184 81q52 0 166 -51l44 -20q24 -10 42 -17q45 -17 69 -17q36 0 62 34q19 24 33 67h98zM337 1202l248 365h219l250 -365h-135l-225 197l-226 -197h-131z" />
    <glyph glyph-name="uni1ED8" unicode="&#x1ed8;" horiz-adv-x="1705" 
d="M142 957q61 126 174 218q218 177 535 177q318 0 535 -177q113 -92 174 -218q65 -136 65 -302q0 -165 -65 -301q-61 -127 -174 -218q-217 -177 -535 -177q-317 0 -535 177q-113 91 -174 218q-65 136 -65 301q0 166 65 302zM851 25q373 0 373 630q0 631 -373 631t-373 -631
q0 -630 373 -630zM997 -287q0 -146 -146 -146q-145 0 -145 146q0 145 145 145q146 0 146 -145zM507 1450l248 365h219l250 -365h-135l-226 197l-225 -197h-131z" />
    <glyph glyph-name="uni1ED9" unicode="&#x1ed9;" 
d="M1116 944q186 -160 186 -412q0 -251 -186 -411q-177 -152 -433 -152q-255 0 -432 152q-186 160 -186 411q0 252 186 412q177 152 432 152q256 0 433 -152zM540 977q-52 -46 -86 -130q-28 -70 -42 -162q-11 -75 -11 -153q0 -77 11 -152q14 -92 42 -162q34 -84 86 -130
q60 -53 143 -53q84 0 144 53q52 46 86 130q28 70 42 162q11 75 11 152q0 78 -11 153q-14 92 -42 162q-34 84 -86 130q-60 53 -144 53q-83 0 -143 -53zM829 -287q0 -146 -146 -146q-145 0 -145 146q0 145 145 145q146 0 146 -145zM337 1202l248 365h219l250 -365h-135
l-225 197l-226 -197h-131z" />
    <glyph glyph-name="uni1EDA" unicode="&#x1eda;" horiz-adv-x="1705" 
d="M851 25q373 0 373 630q0 631 -373 631t-373 -631q0 -630 373 -630zM695 1450l256 305q38 44 59 58q32 22 76 22q115 0 115 -96q0 -62 -125 -137l-243 -152h-138zM1426 1139q84 -80 134 -182q65 -136 65 -302q0 -165 -65 -301q-61 -127 -174 -218q-218 -177 -535 -177
t-535 177q-113 91 -174 218q-65 136 -65 301q0 166 65 302q61 126 174 218q218 177 535 177q314 0 531 -173q47 46 60 102q-143 33 -99 181q13 56 62 87q49 33 106 20t87 -64q29 -49 15 -105q-23 -98 -110 -192q-37 -39 -77 -69z" />
    <glyph glyph-name="uni1EDB" unicode="&#x1edb;" 
d="M540 977q-53 -46 -87 -130q-28 -70 -42 -162q-11 -75 -11 -153q0 -77 11 -152q14 -92 42 -162q34 -84 87 -130q60 -53 143 -53t144 53q52 46 86 130q28 70 42 162q11 75 11 152q0 78 -11 153q-14 92 -42 162q-34 84 -86 130q-61 53 -144 53t-143 -53zM525 1202l256 305
q38 44 59 58q32 22 77 22q114 0 114 -96q0 -62 -125 -137l-243 -152h-138zM1150 911q152 -152 152 -379q0 -251 -187 -411q-177 -152 -432 -152t-432 152q-186 160 -186 411q0 252 186 412q177 152 432 152q247 0 421 -143q37 41 48 89q-143 33 -99 181q13 56 62 87
q49 33 106 20t87 -64q29 -49 15 -105q-23 -98 -110 -192q-30 -32 -63 -58z" />
    <glyph glyph-name="uni1EDC" unicode="&#x1edc;" horiz-adv-x="1705" 
d="M851 25q373 0 373 630q0 631 -373 631t-373 -631q0 -630 373 -630zM896 1450l-192 119q-177 108 -177 170q0 96 115 96q45 0 77 -22q13 -9 29 -26l31 -32l254 -305h-137zM1426 1139q84 -80 134 -182q65 -136 65 -302q0 -165 -65 -301q-61 -127 -174 -218
q-218 -177 -535 -177t-535 177q-113 91 -174 218q-65 136 -65 301q0 166 65 302q61 126 174 218q218 177 535 177q314 0 531 -173q47 46 60 102q-143 33 -99 181q13 56 62 87q49 33 106 20t87 -64q29 -49 15 -105q-23 -98 -110 -192q-37 -39 -77 -69z" />
    <glyph glyph-name="uni1EDD" unicode="&#x1edd;" 
d="M540 977q-53 -46 -87 -130q-28 -70 -42 -162q-11 -75 -11 -153q0 -77 11 -152q14 -92 42 -162q34 -84 87 -130q60 -53 143 -53t144 53q52 46 86 130q28 70 42 162q11 75 11 152q0 78 -11 153q-14 92 -42 162q-34 84 -86 130q-61 53 -144 53t-143 -53zM726 1202l-192 119
q-177 108 -177 170q0 96 115 96q45 0 77 -22q13 -9 29 -25l31 -33l254 -305h-137zM1150 911q152 -152 152 -379q0 -251 -187 -411q-177 -152 -432 -152t-432 152q-186 160 -186 411q0 252 186 412q177 152 432 152q247 0 421 -143q37 41 48 89q-143 33 -99 181q13 56 62 87
q49 33 106 20t87 -64q29 -49 15 -105q-23 -98 -110 -192q-30 -32 -63 -58z" />
    <glyph glyph-name="uni1EDE" unicode="&#x1ede;" horiz-adv-x="1705" 
d="M851 25q373 0 373 630q0 631 -373 631t-373 -631q0 -630 373 -630zM624 1833q64 24 124 33q53 8 113 8q94 0 167 -42q90 -52 90 -145q0 -68 -50 -114q-17 -16 -47 -35l-64 -39q-5 -3 -8 -5l-8 -5q-18 -11 -30 -21q-31 -24 -28 -62h-66q2 47 20 78q14 22 38 48
q35 36 56 77q23 46 23 89q0 114 -102 114q-56 0 -95 -46q-35 -43 -44 -115l-40 -10zM1426 1139q84 -80 134 -182q65 -136 65 -302q0 -165 -65 -301q-61 -127 -174 -218q-218 -177 -535 -177t-535 177q-113 91 -174 218q-65 136 -65 301q0 166 65 302q61 126 174 218
q218 177 535 177q314 0 531 -173q47 46 60 102q-143 33 -99 181q13 56 62 87q49 33 106 20t87 -64q29 -49 15 -105q-23 -98 -110 -192q-37 -39 -77 -69z" />
    <glyph glyph-name="uni1EDF" unicode="&#x1edf;" 
d="M540 977q-53 -46 -87 -130q-28 -70 -42 -162q-11 -75 -11 -153q0 -77 11 -152q14 -92 42 -162q34 -84 87 -130q60 -53 143 -53t144 53q52 46 86 130q28 70 42 162q11 75 11 152q0 78 -11 153q-14 92 -42 162q-34 84 -86 130q-61 53 -144 53t-143 -53zM458 1586
q64 24 124 33q53 8 113 8q94 0 167 -42q90 -52 90 -145q0 -68 -50 -114q-17 -16 -47 -35l-64 -39q-5 -3 -8 -5l-8 -5q-18 -11 -30 -21q-31 -24 -28 -62h-66q2 47 20 78q14 22 38 48q35 36 56 77q23 46 23 89q0 114 -102 114q-56 0 -95 -46q-35 -43 -44 -115l-40 -10z
M1150 911q152 -152 152 -379q0 -251 -187 -411q-177 -152 -432 -152t-432 152q-186 160 -186 411q0 252 186 412q177 152 432 152q247 0 421 -143q37 41 48 89q-143 33 -99 181q13 56 62 87q49 33 106 20t87 -64q29 -49 15 -105q-23 -98 -110 -192q-30 -32 -63 -58z" />
    <glyph glyph-name="uni1EE0" unicode="&#x1ee0;" horiz-adv-x="1705" 
d="M851 25q373 0 373 630q0 631 -373 631t-373 -631q0 -630 373 -630zM1254 1767q-21 -118 -79 -191q-70 -89 -179 -89q-41 0 -91 16q-35 12 -87 37l-77 37q-41 16 -70 16q-69 0 -99 -96h-98q28 129 83 194q67 81 183 81q52 0 166 -52l44 -19q25 -11 43 -17q44 -17 69 -17
q36 0 62 34q18 24 32 66h98zM1426 1139q84 -80 134 -182q65 -136 65 -302q0 -165 -65 -301q-61 -127 -174 -218q-218 -177 -535 -177t-535 177q-113 91 -174 218q-65 136 -65 301q0 166 65 302q61 126 174 218q218 177 535 177q314 0 531 -173q47 46 60 102q-143 33 -99 181
q13 56 62 87q49 33 106 20t87 -64q29 -49 15 -105q-23 -98 -110 -192q-37 -39 -77 -69z" />
    <glyph glyph-name="uni1EE1" unicode="&#x1ee1;" 
d="M540 977q-53 -46 -87 -130q-28 -70 -42 -162q-11 -75 -11 -153q0 -77 11 -152q14 -92 42 -162q34 -84 87 -130q60 -53 143 -53t144 53q52 46 86 130q28 70 42 162q11 75 11 152q0 78 -11 153q-14 92 -42 162q-34 84 -86 130q-61 53 -144 53t-143 -53zM1084 1520
q-21 -119 -79 -192q-70 -89 -179 -89q-41 0 -91 17q-35 11 -87 36l-77 37q-41 17 -70 17q-69 0 -99 -97h-98q28 129 83 194q67 81 183 81q52 0 166 -51l44 -20q25 -10 43 -17q44 -17 69 -17q36 0 62 34q18 24 32 67h98zM1150 911q152 -152 152 -379q0 -251 -187 -411
q-177 -152 -432 -152t-432 152q-186 160 -186 411q0 252 186 412q177 152 432 152q247 0 421 -143q37 41 48 89q-143 33 -99 181q13 56 62 87q49 33 106 20t87 -64q29 -49 15 -105q-23 -98 -110 -192q-30 -32 -63 -58z" />
    <glyph glyph-name="uni1EE2" unicode="&#x1ee2;" horiz-adv-x="1705" 
d="M851 25q373 0 373 630q0 631 -373 631t-373 -631q0 -630 373 -630zM996 -287q0 -146 -146 -146q-145 0 -145 146q0 145 145 145q146 0 146 -145zM1426 1139q84 -80 134 -182q65 -136 65 -302q0 -165 -65 -301q-61 -127 -174 -218q-218 -177 -535 -177t-535 177
q-113 91 -174 218q-65 136 -65 301q0 166 65 302q61 126 174 218q218 177 535 177q314 0 531 -173q47 46 60 102q-143 33 -99 181q13 56 62 87q49 33 106 20t87 -64q29 -49 15 -105q-23 -98 -110 -192q-37 -39 -77 -69z" />
    <glyph glyph-name="uni1EE3" unicode="&#x1ee3;" 
d="M540 977q-53 -46 -87 -130q-28 -70 -42 -162q-11 -75 -11 -153q0 -77 11 -152q14 -92 42 -162q34 -84 87 -130q60 -53 143 -53t144 53q52 46 86 130q28 70 42 162q11 75 11 152q0 78 -11 153q-14 92 -42 162q-34 84 -86 130q-61 53 -144 53t-143 -53zM829 -287
q0 -146 -146 -146q-145 0 -145 146q0 145 145 145q146 0 146 -145zM1150 911q152 -152 152 -379q0 -251 -187 -411q-177 -152 -432 -152t-432 152q-186 160 -186 411q0 252 186 412q177 152 432 152q247 0 421 -143q37 41 48 89q-143 33 -99 181q13 56 62 87q49 33 106 20
t87 -64q29 -49 15 -105q-23 -98 -110 -192q-30 -32 -63 -58z" />
    <glyph glyph-name="uni1EE4" unicode="&#x1ee4;" horiz-adv-x="1554" 
d="M1290 872q0 64 -8 120q-10 70 -31 125q-56 138 -186 167v35l276 -8q39 0 119 4t117 4v-33q-106 -31 -164 -169q-47 -113 -47 -245v-354q0 -559 -600 -559q-115 0 -218 20q-114 22 -199 67q-200 105 -200 312v699q0 128 -21 174t-83 55v33l305 -8l316 8v-33
q-156 -21 -156 -229v-602q0 -186 77 -289q85 -113 257 -113q246 0 350 123q96 112 96 359v337zM960 -287q0 -146 -146 -146q-145 0 -145 146q0 145 145 145q146 0 146 -145z" />
    <glyph glyph-name="uni1EE5" unicode="&#x1ee5;" 
d="M903 201q-119 -232 -360 -232q-187 0 -288 119q-95 111 -95 301l-5 481q0 79 -104 103v33q118 10 210 22q114 16 214 37l-11 -191q-5 -139 -5 -268v-203q0 -125 37 -203q51 -104 161 -104q124 0 187 131q53 111 53 285v334q0 112 -115 131v31q117 10 210 22
q113 15 210 35q-6 -375 -6 -756q0 -238 121 -278v-31h-363zM830 -287q0 -146 -146 -146q-145 0 -145 146q0 145 145 145q146 0 146 -145z" />
    <glyph glyph-name="uni1EE6" unicode="&#x1ee6;" horiz-adv-x="1554" 
d="M1290 872q0 64 -8 120q-10 70 -31 125q-56 138 -186 167v35l276 -8q39 0 119 4t117 4v-33q-106 -31 -164 -169q-47 -113 -47 -245v-354q0 -559 -600 -559q-115 0 -218 20q-114 22 -199 67q-200 105 -200 312v699q0 128 -21 174t-83 55v33l305 -8l316 8v-33
q-156 -21 -156 -229v-602q0 -186 77 -289q85 -113 257 -113q246 0 350 123q96 112 96 359v337zM625 1833q64 24 124 33q53 8 113 8q94 0 167 -42q90 -52 90 -145q0 -68 -50 -114q-17 -16 -47 -35l-64 -39q-5 -3 -8 -5l-8 -5q-18 -11 -30 -21q-31 -24 -28 -62h-66q2 47 20 78
q14 22 38 48q35 36 56 77q23 46 23 89q0 114 -102 114q-56 0 -95 -46q-35 -43 -44 -115l-40 -10z" />
    <glyph glyph-name="uni1EE7" unicode="&#x1ee7;" 
d="M903 201q-119 -232 -360 -232q-187 0 -288 119q-95 111 -95 301l-5 481q0 79 -104 103v33q118 10 210 22q114 16 214 37l-11 -191q-5 -139 -5 -268v-203q0 -125 37 -203q51 -104 161 -104q124 0 187 131q53 111 53 285v334q0 112 -115 131v31q117 10 210 22
q113 15 210 35q-6 -375 -6 -756q0 -238 121 -278v-31h-363zM459 1586q64 24 124 33q53 8 113 8q94 0 167 -42q90 -52 90 -145q0 -68 -50 -114q-17 -16 -47 -35l-64 -39q-5 -3 -8 -5l-8 -5q-18 -11 -30 -21q-31 -24 -28 -62h-66q2 47 20 78q14 22 38 48q35 36 56 77
q23 46 23 89q0 114 -102 114q-56 0 -95 -46q-35 -43 -44 -115l-40 -10z" />
    <glyph glyph-name="uni1EE8" unicode="&#x1ee8;" horiz-adv-x="1554" 
d="M668 1450l256 305q37 44 58 58q32 22 77 22q115 0 115 -96q0 -62 -125 -137l-244 -152h-137zM1367 1100q-1 -210 -1 -228v-354q0 -559 -600 -559q-115 0 -218 20q-114 22 -199 67q-199 105 -199 312v699q0 128 -22 174q-21 46 -83 55v33l305 -8l316 8v-33
q-156 -21 -156 -229v-602q0 -186 77 -289q85 -113 257 -113q246 0 350 123q96 112 96 359v337q0 64 -8 120q-9 70 -31 125q-56 138 -186 167v35l242 -8q66 4 62 -145q59 51 74 115q-143 33 -99 181q13 56 62 87q49 33 106 20t87 -64q29 -49 15 -105q-23 -98 -110 -192
q-65 -68 -137 -108z" />
    <glyph glyph-name="uni1EE9" unicode="&#x1ee9;" 
d="M510 1202l256 305q38 44 58 58q33 22 77 22q115 0 115 -96q0 -62 -125 -137l-244 -152h-137zM1199 861q-3 -274 -3 -552q0 -238 121 -278v-31h-363l-51 201q-119 -232 -360 -232q-186 0 -288 119q-95 111 -95 301l-4 481q0 79 -105 103v33q119 10 211 22q114 16 213 37
l-10 -191q-6 -139 -6 -268v-203q0 -125 38 -203q50 -104 160 -104q124 0 187 131q53 111 53 285v334q0 112 -115 131v31q117 10 210 22q113 15 210 35q-1 -69 -2 -139q60 51 75 116q-143 33 -99 181q13 56 62 87q49 33 106 20t87 -64q29 -49 15 -105q-23 -98 -110 -192
q-65 -68 -137 -108z" />
    <glyph glyph-name="uni1EEA" unicode="&#x1eea;" horiz-adv-x="1554" 
d="M868 1450l-192 119q-176 108 -176 170q0 96 114 96q45 0 77 -22q14 -9 30 -26l31 -32l254 -305h-138zM1367 1100q-1 -210 -1 -228v-354q0 -559 -600 -559q-115 0 -218 20q-114 22 -199 67q-199 105 -199 312v699q0 128 -22 174q-21 46 -83 55v33l305 -8l316 8v-33
q-156 -21 -156 -229v-602q0 -186 77 -289q85 -113 257 -113q246 0 350 123q96 112 96 359v337q0 64 -8 120q-9 70 -31 125q-56 138 -186 167v35l242 -8q66 4 62 -145q59 51 74 115q-143 33 -99 181q13 56 62 87q49 33 106 20t87 -64q29 -49 15 -105q-23 -98 -110 -192
q-65 -68 -137 -108z" />
    <glyph glyph-name="uni1EEB" unicode="&#x1eeb;" 
d="M711 1202l-193 119q-176 108 -176 170q0 96 115 96q45 0 77 -22q13 -9 29 -25l31 -33l254 -305h-137zM1199 861q-3 -274 -3 -552q0 -238 121 -278v-31h-363l-51 201q-119 -232 -360 -232q-186 0 -288 119q-95 111 -95 301l-4 481q0 79 -105 103v33q119 10 211 22
q114 16 213 37l-10 -191q-6 -139 -6 -268v-203q0 -125 38 -203q50 -104 160 -104q124 0 187 131q53 111 53 285v334q0 112 -115 131v31q117 10 210 22q113 15 210 35q-1 -69 -2 -139q60 51 75 116q-143 33 -99 181q13 56 62 87q49 33 106 20t87 -64q29 -49 15 -105
q-23 -98 -110 -192q-65 -68 -137 -108z" />
    <glyph glyph-name="uni1EEC" unicode="&#x1eec;" horiz-adv-x="1554" 
d="M625 1833q64 24 124 33q53 8 113 8q94 0 167 -42q90 -52 90 -145q0 -68 -50 -114q-17 -16 -47 -35l-64 -39q-5 -3 -8 -5l-8 -5q-18 -11 -30 -21q-31 -24 -28 -62h-66q2 47 20 78q14 22 38 48q35 36 56 77q23 46 23 89q0 114 -102 114q-56 0 -95 -46q-35 -43 -44 -115
l-40 -10zM1367 1100q-1 -210 -1 -228v-354q0 -559 -600 -559q-115 0 -218 20q-114 22 -199 67q-199 105 -199 312v699q0 128 -22 174q-21 46 -83 55v33l305 -8l316 8v-33q-156 -21 -156 -229v-602q0 -186 77 -289q85 -113 257 -113q246 0 350 123q96 112 96 359v337
q0 64 -8 120q-9 70 -31 125q-56 138 -186 167v35l242 -8q66 4 62 -145q59 51 74 115q-143 33 -99 181q13 56 62 87q49 33 106 20t87 -64q29 -49 15 -105q-23 -98 -110 -192q-65 -68 -137 -108z" />
    <glyph glyph-name="uni1EED" unicode="&#x1eed;" 
d="M459 1586q64 24 124 33q53 8 113 8q94 0 167 -42q90 -52 90 -145q0 -68 -50 -114q-17 -16 -47 -35l-64 -39q-5 -3 -8 -5l-8 -5q-18 -11 -30 -21q-31 -24 -28 -62h-66q2 47 20 78q14 22 38 48q35 36 56 77q23 46 23 89q0 114 -102 114q-56 0 -95 -46q-35 -43 -44 -115
l-40 -10zM1199 861q-3 -274 -3 -552q0 -238 121 -278v-31h-363l-51 201q-119 -232 -360 -232q-186 0 -288 119q-95 111 -95 301l-4 481q0 79 -105 103v33q119 10 211 22q114 16 213 37l-10 -191q-6 -139 -6 -268v-203q0 -125 38 -203q50 -104 160 -104q124 0 187 131
q53 111 53 285v334q0 112 -115 131v31q117 10 210 22q113 15 210 35q-1 -69 -2 -139q60 51 75 116q-143 33 -99 181q13 56 62 87q49 33 106 20t87 -64q29 -49 15 -105q-23 -98 -110 -192q-65 -68 -137 -108z" />
    <glyph glyph-name="uni1EEE" unicode="&#x1eee;" horiz-adv-x="1554" 
d="M1255 1767q-21 -118 -79 -191q-70 -89 -179 -89q-41 0 -91 16q-35 12 -87 37l-77 37q-41 16 -70 16q-69 0 -99 -96h-98q28 129 83 194q67 81 183 81q52 0 166 -52l44 -19q25 -11 43 -17q44 -17 69 -17q36 0 62 34q18 24 32 66h98zM1367 1100q-1 -210 -1 -228v-354
q0 -559 -600 -559q-115 0 -218 20q-114 22 -199 67q-199 105 -199 312v699q0 128 -22 174q-21 46 -83 55v33l305 -8l316 8v-33q-156 -21 -156 -229v-602q0 -186 77 -289q85 -113 257 -113q246 0 350 123q96 112 96 359v337q0 64 -8 120q-9 70 -31 125q-56 138 -186 167v35
l242 -8q66 4 62 -145q59 51 74 115q-143 33 -99 181q13 56 62 87q49 33 106 20t87 -64q29 -49 15 -105q-23 -98 -110 -192q-65 -68 -137 -108z" />
    <glyph glyph-name="uni1EEF" unicode="&#x1eef;" 
d="M1085 1520q-21 -119 -79 -192q-70 -89 -179 -89q-41 0 -91 17q-35 11 -87 36l-77 37q-41 17 -70 17q-69 0 -99 -97h-98q28 129 83 194q67 81 183 81q52 0 166 -51l44 -20q25 -10 43 -17q44 -17 69 -17q36 0 62 34q18 24 32 67h98zM1199 861q-3 -274 -3 -552
q0 -238 121 -278v-31h-363l-51 201q-119 -232 -360 -232q-186 0 -288 119q-95 111 -95 301l-4 481q0 79 -105 103v33q119 10 211 22q114 16 213 37l-10 -191q-6 -139 -6 -268v-203q0 -125 38 -203q50 -104 160 -104q124 0 187 131q53 111 53 285v334q0 112 -115 131v31
q117 10 210 22q113 15 210 35q-1 -69 -2 -139q60 51 75 116q-143 33 -99 181q13 56 62 87q49 33 106 20t87 -64q29 -49 15 -105q-23 -98 -110 -192q-65 -68 -137 -108z" />
    <glyph glyph-name="uni1EF0" unicode="&#x1ef0;" horiz-adv-x="1554" 
d="M960 -287q0 -146 -146 -146q-145 0 -145 146q0 145 145 145q146 0 146 -145zM1367 1100q-1 -210 -1 -228v-354q0 -559 -600 -559q-115 0 -218 20q-114 22 -199 67q-199 105 -199 312v699q0 128 -22 174q-21 46 -83 55v33l305 -8l316 8v-33q-156 -21 -156 -229v-602
q0 -186 77 -289q85 -113 257 -113q246 0 350 123q96 112 96 359v337q0 64 -8 120q-9 70 -31 125q-56 138 -186 167v35l242 -8q66 4 62 -145q59 51 74 115q-143 33 -99 181q13 56 62 87q49 33 106 20t87 -64q29 -49 15 -105q-23 -98 -110 -192q-65 -68 -137 -108z" />
    <glyph glyph-name="uni1EF1" unicode="&#x1ef1;" 
d="M830 -287q0 -146 -146 -146q-145 0 -145 146q0 145 145 145q146 0 146 -145zM1199 861q-3 -274 -3 -552q0 -238 121 -278v-31h-363l-51 201q-119 -232 -360 -232q-186 0 -288 119q-95 111 -95 301l-4 481q0 79 -105 103v33q119 10 211 22q114 16 213 37l-10 -191
q-6 -139 -6 -268v-203q0 -125 38 -203q50 -104 160 -104q124 0 187 131q53 111 53 285v334q0 112 -115 131v31q117 10 210 22q113 15 210 35q-1 -69 -2 -139q60 51 75 116q-143 33 -99 181q13 56 62 87q49 33 106 20t87 -64q29 -49 15 -105q-23 -98 -110 -192
q-65 -68 -137 -108z" />
    <glyph glyph-name="Ygrave" unicode="&#x1ef2;" horiz-adv-x="1630" 
d="M937 702l154 230q50 74 77 128q32 65 32 105q0 54 -45 86q-36 26 -95 35v33l269 -8l278 8v-37q-213 -80 -362 -295l-271 -385v-213q0 -84 4 -132q5 -68 19 -112q34 -107 135 -112v-41l-338 8l-338 -8v41q101 5 135 112q14 44 19 112q4 48 4 132v180l-342 489
q-41 55 -76 96q-102 118 -172 132v33l344 -8l356 8v-27q-51 -10 -79 -28q-39 -27 -39 -72q0 -58 116 -209zM936 1450l-192 119q-176 108 -176 170q0 96 114 96q46 0 78 -22q13 -9 29 -26l31 -32l254 -305h-138z" />
    <glyph glyph-name="ygrave" unicode="&#x1ef3;" horiz-adv-x="1327" 
d="M24 1032q35 0 78 -1l227 -7l316 8v-31q-55 -9 -88 -33q-41 -30 -41 -79q0 -31 36 -98l240 -439l184 404q27 56 27 104q0 103 -127 141v31q37 0 108 -4t103 -4l105 4q75 4 112 4v-31q-77 -32 -144 -119q-26 -34 -53 -78q-20 -34 -43 -79l-360 -696q-134 -260 -229 -331
q-100 -75 -340 -87l127 344l30 -16q0 -49 47 -82q41 -29 91 -29q147 0 147 164q0 92 -80 252l-264 534q-45 91 -96 149q-58 64 -113 74v31zM730 1202l-192 119q-177 108 -177 170q0 96 115 96q45 0 77 -22q13 -9 29 -25l31 -33l254 -305h-137z" />
    <glyph glyph-name="uni1EF4" unicode="&#x1ef4;" horiz-adv-x="1630" 
d="M937 702l154 230q50 74 77 128q32 65 32 105q0 54 -45 86q-36 26 -95 35v33l269 -8l278 8v-37q-213 -80 -362 -295l-271 -385v-213q0 -84 4 -132q5 -68 19 -112q34 -107 135 -112v-41l-338 8l-338 -8v41q101 5 135 112q14 44 19 112q4 48 4 132v180l-342 489
q-41 55 -76 96q-102 118 -172 132v33l344 -8l356 8v-27q-51 -10 -79 -28q-39 -27 -39 -72q0 -58 116 -209zM935 -287q0 -146 -146 -146q-145 0 -145 146q0 145 145 145q146 0 146 -145z" />
    <glyph glyph-name="uni1EF5" unicode="&#x1ef5;" horiz-adv-x="1327" 
d="M24 1032q35 0 78 -1l227 -7l316 8v-31q-55 -9 -88 -33q-41 -30 -41 -79q0 -31 36 -98l240 -439l184 404q27 56 27 104q0 103 -127 141v31q37 0 108 -4t103 -4l105 4q75 4 112 4v-31q-77 -32 -144 -119q-26 -34 -53 -78q-20 -34 -43 -79l-360 -696q-134 -260 -229 -331
q-100 -75 -340 -87l127 344l30 -16q0 -49 47 -82q41 -29 91 -29q147 0 147 164q0 92 -80 252l-264 534q-45 91 -96 149q-58 64 -113 74v31zM926 -287q0 -146 -146 -146q-145 0 -145 146q0 145 145 145q146 0 146 -145z" />
    <glyph glyph-name="uni1EF6" unicode="&#x1ef6;" horiz-adv-x="1630" 
d="M937 702l154 230q50 74 77 128q32 65 32 105q0 54 -45 86q-36 26 -95 35v33l269 -8l278 8v-37q-213 -80 -362 -295l-271 -385v-213q0 -84 4 -132q5 -68 19 -112q34 -107 135 -112v-41l-338 8l-338 -8v41q101 5 135 112q14 44 19 112q4 48 4 132v180l-342 489
q-41 55 -76 96q-102 118 -172 132v33l344 -8l356 8v-27q-51 -10 -79 -28q-39 -27 -39 -72q0 -58 116 -209zM651 1833q64 24 124 33q53 8 113 8q94 0 167 -42q90 -52 90 -145q0 -68 -50 -114q-17 -16 -47 -35l-64 -39q-5 -3 -8 -5l-8 -5q-18 -11 -30 -21q-31 -24 -28 -62h-66
q2 47 20 78q14 22 38 48q35 36 56 77q23 46 23 89q0 114 -102 114q-56 0 -95 -46q-35 -43 -44 -115l-40 -10z" />
    <glyph glyph-name="uni1EF7" unicode="&#x1ef7;" horiz-adv-x="1327" 
d="M24 1032q35 0 78 -1l227 -7l316 8v-31q-55 -9 -88 -33q-41 -30 -41 -79q0 -31 36 -98l240 -439l184 404q27 56 27 104q0 103 -127 141v31q37 0 108 -4t103 -4l105 4q75 4 112 4v-31q-77 -32 -144 -119q-26 -34 -53 -78q-20 -34 -43 -79l-360 -696q-134 -260 -229 -331
q-100 -75 -340 -87l127 344l30 -16q0 -49 47 -82q41 -29 91 -29q147 0 147 164q0 92 -80 252l-264 534q-45 91 -96 149q-58 64 -113 74v31zM518 1586q64 24 124 33q53 8 113 8q94 0 167 -42q90 -52 90 -145q0 -68 -50 -114q-17 -16 -47 -35l-64 -39q-5 -3 -8 -5l-8 -5
q-18 -11 -30 -21q-31 -24 -28 -62h-66q2 47 20 78q14 22 38 48q35 36 56 77q23 46 23 89q0 114 -102 114q-56 0 -95 -46q-35 -43 -44 -115l-40 -10z" />
    <glyph glyph-name="uni1EF8" unicode="&#x1ef8;" horiz-adv-x="1630" 
d="M937 702l154 230q50 74 77 128q32 65 32 105q0 54 -45 86q-36 26 -95 35v33l269 -8l278 8v-37q-213 -80 -362 -295l-271 -385v-213q0 -84 4 -132q5 -68 19 -112q34 -107 135 -112v-41l-338 8l-338 -8v41q101 5 135 112q14 44 19 112q4 48 4 132v180l-342 489
q-41 55 -76 96q-102 118 -172 132v33l344 -8l356 8v-27q-51 -10 -79 -28q-39 -27 -39 -72q0 -58 116 -209zM1308 1767q-21 -118 -79 -191q-70 -89 -179 -89q-42 0 -92 16q-35 12 -86 37l-78 37q-40 16 -70 16q-68 0 -98 -96h-98q27 129 82 194q67 81 184 81q51 0 166 -52
l44 -19q24 -11 42 -17q45 -17 69 -17q36 0 62 34q18 24 33 66h98z" />
    <glyph glyph-name="uni1EF9" unicode="&#x1ef9;" horiz-adv-x="1327" 
d="M24 1032q35 0 78 -1l227 -7l316 8v-31q-55 -9 -88 -33q-41 -30 -41 -79q0 -31 36 -98l240 -439l184 404q27 56 27 104q0 103 -127 141v31q37 0 108 -4t103 -4l105 4q75 4 112 4v-31q-77 -32 -144 -119q-26 -34 -53 -78q-20 -34 -43 -79l-360 -696q-134 -260 -229 -331
q-100 -75 -340 -87l127 344l30 -16q0 -49 47 -82q41 -29 91 -29q147 0 147 164q0 92 -80 252l-264 534q-45 91 -96 149q-58 64 -113 74v31zM1155 1520q-21 -119 -79 -192q-70 -89 -179 -89q-42 0 -92 17q-35 11 -86 36l-78 37q-40 17 -70 17q-68 0 -98 -97h-98
q27 129 82 194q67 81 184 81q51 0 166 -51l44 -20q24 -10 42 -17q45 -17 69 -17q36 0 62 34q18 24 33 67h98z" />
    <glyph glyph-name="quoteleft" unicode="&#x2018;" horiz-adv-x="569" 
d="M392 1309q-108 -105 -108 -217q175 0 166 -187q0 -70 -48 -120q-48 -52 -118 -52t-118 52q-48 50 -48 120q0 122 76 256q68 117 160 191z" />
    <glyph glyph-name="quoteright" unicode="&#x2019;" horiz-adv-x="569" 
d="M176 776q108 105 108 217q-175 0 -166 187q0 70 48 120q49 52 118 52q70 0 119 -52q47 -50 47 -120q0 -122 -76 -256q-67 -118 -159 -191z" />
    <glyph glyph-name="quotedblleft" unicode="&#x201c;" horiz-adv-x="985" 
d="M825 1309q-109 -105 -109 -217q176 0 166 -187q0 -70 -47 -120q-49 -52 -119 -52q-69 0 -118 52q-47 50 -47 120q0 122 76 256q67 117 159 191zM374 1309q-108 -105 -108 -217q175 0 166 -187q0 -70 -48 -120q-48 -52 -118 -52t-118 52q-48 50 -48 120q0 122 76 256
q68 117 160 191z" />
    <glyph glyph-name="quotedblright" unicode="&#x201d;" horiz-adv-x="985" 
d="M619 774q109 105 109 217q-175 0 -166 187q0 70 48 120q48 52 118 52t118 -52q48 -50 48 -120q0 -122 -76 -256q-68 -118 -160 -191zM169 774q108 105 108 217q-175 0 -166 187q0 70 48 120q49 52 118 52q70 0 119 -52q47 -50 47 -120q0 -122 -76 -256
q-67 -118 -159 -191z" />
    <glyph glyph-name="ellipsis" unicode="&#x2026;" horiz-adv-x="2048" 
d="M460 262q48 -51 48 -121t-48 -120q-48 -52 -118 -52t-118 52q-48 50 -48 120t48 121t118 51t118 -51zM1142 262q48 -51 48 -121t-48 -120q-48 -52 -118 -52t-118 52q-48 50 -48 120t48 121t118 51t118 -51zM1824 262q48 -51 48 -121t-48 -120q-48 -52 -118 -52t-118 52
q-48 50 -48 120t48 121t118 51t118 -51z" />
    <glyph glyph-name="ugrave" horiz-adv-x="582" 
 />
    <glyph glyph-name="uacute" horiz-adv-x="580" 
 />
    <glyph glyph-name="yacute" horiz-adv-x="629" 
 />
  </font>
</defs>
</svg>
