<svg xmlns="http://www.w3.org/2000/svg">
<defs>
<font id="UTMNguyenHa02" horiz-adv-x="1638" >
  <font-face 
    font-family="UTM NguyenHa 02"
    font-weight="400"
    font-stretch="normal"
    units-per-em="2048"
    panose-1="2 4 6 3 5 5 6 2 2 4"
    ascent="1638"
    descent="-410"
    x-height="1024"
    cap-height="1434"
    bbox="-307 -674 4942 2045"
    underline-thickness="109"
    underline-position="-359"
    unicode-range="U+0020-2026"
  />
<missing-glyph horiz-adv-x="5040" 
d="M3351 2045h10q37 -10 37 -52q0 -12 -32 -57h-28q0 24 28 54l2 10q-5 13 -10 15h-9q-8 0 -10 -19h-30q6 49 42 49zM2019 2016l29 -31q0 -16 -40 -30h-19l-59 12l-11 -12l-28 25q11 29 43 29h11l42 -11h2q10 0 30 18zM468 1980h142v-60h-94v-75h89v-59h-89v-129l-5 -5h-49
v323zM1155 1980h43l6 -5v-78h30v-52h-30v-188l-6 -5h-49v193h-25v52h25v78zM1621 1980h42l4 -5v-94h3q23 24 54 24h2q58 0 83 -71l2 -39v-143h-52v115q0 80 -42 80h-7q-43 0 -43 -86v-109h-51v323zM2200 1980h49l5 -5v-222q10 -51 45 -51q44 7 44 59v214l5 5h49v-216
q0 -85 -66 -112q-15 -8 -35 -8q-47 0 -82 55q-14 24 -14 57v224zM2435 1980h159v-60h-56v-268h-53v268h-55v55zM2621 1980h71q7 -4 83 -251h2l80 251h73v-328h-54v242h-2l-74 -242h-44q-4 0 -58 182l-19 60h-3v-242h-55v328zM3760 1980h52v-328h-45l-5 5v11l3 2l-3 14
q-29 -40 -78 -40q-67 0 -100 91l-5 39v3q0 94 92 125l23 3q35 0 63 -32h3v107zM2057 1928h36l4 -6v-49h-45v-221h-48v23q-23 -31 -59 -31q-89 14 -89 97v156h51v-104q0 -79 26 -86l18 -5h6q26 0 39 36l3 26v133h53v25zM3476 1928v-55h-31v-221h-47v25h-2q-15 -33 -57 -33
q-68 0 -86 78l-3 29v146h52v-120q0 -50 19 -68l21 -7h9q42 0 42 69v126h27q4 0 4 28l3 3h49zM758 1905q68 0 103 -77q9 -18 12 -54q0 -88 -90 -127l-32 -3q-63 0 -101 73q-12 22 -12 52v10q0 94 101 126h19zM1011 1905h3q74 0 83 -101v-152h-51v119q0 76 -42 76h-5
q-44 0 -44 -76v-119h-52v245h46v-21q30 29 62 29zM1466 1905h7q72 0 105 -89h-60q-16 31 -42 31h-17q-53 -14 -53 -61l-3 -15q12 -69 61 -69h9q22 0 47 27h40l2 3h3l2 -3l2 3l3 -3l2 3l2 -7q-33 -81 -110 -81q-76 0 -110 94l-4 36v3q0 85 77 120q15 8 37 8zM3141 1905h2

<glyph glyph-name=".notdef" horiz-adv-x="5040" 
d="M3351 2045h10q37 -10 37 -52q0 -12 -32 -57h-28q0 24 28 54l2 10q-5 13 -10 15h-9q-8 0 -10 -19h-30q6 49 42 49zM2019 2016l29 -31q0 -16 -40 -30h-19l-59 12l-11 -12l-28 25q11 29 43 29h11l42 -11h2q10 0 30 18zM468 1980h142v-60h-94v-75h89v-59h-89v-129l-5 -5h-49
v323zM1155 1980h43l6 -5v-78h30v-52h-30v-188l-6 -5h-49v193h-25v52h25v78zM1621 1980h42l4 -5v-94h3q23 24 54 24h2q58 0 83 -71l2 -39v-143h-52v115q0 80 -42 80h-7q-43 0 -43 -86v-109h-51v323zM2200 1980h49l5 -5v-222q10 -51 45 -51q44 7 44 59v214l5 5h49v-216
q0 -85 -66 -112q-15 -8 -35 -8q-47 0 -82 55q-14 24 -14 57v224zM2435 1980h159v-60h-56v-268h-53v268h-55v55zM2621 1980h71q7 -4 83 -251h2l80 251h73v-328h-54v242h-2l-74 -242h-44q-4 0 -58 182l-19 60h-3v-242h-55v328zM3760 1980h52v-328h-45l-5 5v11l3 2l-3 14
q-29 -40 -78 -40q-67 0 -100 91l-5 39v3q0 94 92 125l23 3q35 0 63 -32h3v107zM2057 1928h36l4 -6v-49h-45v-221h-48v23q-23 -31 -59 -31q-89 14 -89 97v156h51v-104q0 -79 26 -86l18 -5h6q26 0 39 36l3 26v133h53v25zM3476 1928v-55h-31v-221h-47v25h-2q-15 -33 -57 -33
q-68 0 -86 78l-3 29v146h52v-120q0 -50 19 -68l21 -7h9q42 0 42 69v126h27q4 0 4 28l3 3h49zM758 1905q68 0 103 -77q9 -18 12 -54q0 -88 -90 -127l-32 -3q-63 0 -101 73q-12 22 -12 52v10q0 94 101 126h19zM1011 1905h3q74 0 83 -101v-152h-51v119q0 76 -42 76h-5
q-44 0 -44 -76v-119h-52v245h46v-21q30 29 62 29zM1466 1905h7q72 0 105 -89h-60q-16 31 -42 31h-17q-53 -14 -53 -61l-3 -15q12 -69 61 -69h9q22 0 47 27h40l2 3h3l2 -3l2 3l3 -3l2 3l2 -7q-33 -81 -110 -81q-76 0 -110 94l-4 36v3q0 85 77 120q15 8 37 8zM3141 1905h2
q49 0 70 -60v-14h-52q0 16 -16 16h-4q-14 0 -19 -13v-13q0 -9 68 -35q30 -19 30 -59q0 -58 -61 -80l-23 -3q-76 12 -76 83h54q0 -20 27 -25h4q19 0 24 23q0 22 -68 44q-34 27 -34 59q0 66 74 77zM4203 1905q55 0 77 -63q7 -18 7 -65v-125h-52v112q0 83 -40 83h-11
q-33 0 -40 -54v-141h-52v5h-2l2 2v238h47v-21q25 29 64 29zM4432 1905h5q40 0 69 -40v18l-3 3l3 11h47v-208q0 -97 -85 -132l-33 -4h-7q-70 0 -104 80h59q24 -22 45 -23h13q22 0 43 22q15 13 22 52h-3q-32 -40 -73 -40q-57 0 -96 70q-10 18 -14 63q0 88 87 125zM3851 1897
h53v-136q6 -59 40 -59h7q46 0 46 93v102h51v-245h-47l-3 10h3l-3 3v5l3 2v3h-4q0 -23 -57 -31h-3q-59 0 -84 75l-2 85v93zM690 1771q10 -69 63 -69h7q59 14 59 65v15q-13 65 -59 65h-5q-58 0 -65 -76zM3630 1774q13 -72 61 -72h5q58 0 66 75q0 49 -51 70h-22q-37 0 -56 -57z
M4374 1774q8 -72 65 -72h5q59 12 59 72q0 61 -59 73h-14q-56 -16 -56 -62v-11zM3928 1620h52v-57h-52v57zM1054 1402q43 -11 43 -49v-4q0 -17 -32 -60h-28q0 25 31 57v7q0 12 -7 15h-12q-10 -4 -10 -19h-28v6q0 32 33 44zM3349 1339q92 0 138 -99h-60q-37 42 -80 42
q-55 0 -87 -68q-10 -22 -10 -47q0 -78 81 -110l18 -1q36 0 75 39h61q-44 -97 -138 -97q-93 0 -141 112q-10 31 -10 62q0 97 90 152q29 15 63 15zM3664 1339q57 0 103 -47q46 -51 46 -115v-20q0 -89 -91 -146q-33 -13 -63 -13q-89 0 -138 101q-13 33 -13 60v18q0 98 98 151
q29 11 58 11zM2261 1337h2l47 -11h3q11 0 26 11l18 -36q-18 -19 -35 -19h-3l-54 10l-20 -7l-20 36q18 16 36 16zM716 1334h19q118 0 129 -26q25 -26 25 -62q-10 -57 -30 -57v-6q47 -23 47 -66v-18q0 -63 -69 -88l-54 -5h-67v328zM2550 1334h53v-217q6 -61 45 -61q29 0 44 39
l3 30v203l4 6h45l5 -6v-171q0 -118 -40 -133q-24 -26 -64 -26q-55 0 -91 76l-4 54v206zM2805 1334h59q4 0 122 -237h4v237h50l4 -6v-322h-58q-29 48 -125 238h-3v-238h-53v328zM3101 1334h54v-328h-54v328zM3859 1334h8q155 0 174 -40q23 -11 47 -75l4 -36v-11l3 -2
q0 -94 -82 -149q-35 -15 -99 -15h-55v328zM4141 1334h153v-60h-103v-75h101v-57h-101v-74l4 -5h99v-57h-157v322zM3563 1175v-10q0 -76 79 -108l19 -1q68 0 96 86l3 20v15q0 61 -60 94q-12 8 -39 11q-66 0 -96 -83zM770 1274v-67h9q54 0 54 28l3 14q-11 25 -29 25h-37z
M3912 1274v-206l2 -3v-2q104 0 122 76l2 15v29q0 34 -32 68q-25 23 -78 23h-16zM1041 1259h5q38 0 71 -40v32h49v-245h-49v32q-36 -40 -80 -40q-75 0 -101 97l-5 36q0 89 85 125zM1314 1259h3q74 0 83 -102v-151h-51v128q0 67 -42 67h-10q-34 0 -39 -62v-133h-52v245h47v-21
q28 29 61 29zM1543 1259h5q45 0 71 -40v32h47v-219q0 -95 -104 -126h-16q-74 0 -108 82h59q26 -25 44 -25h14q52 0 64 77q-33 -42 -76 -42q-60 0 -101 81l-7 44v16q0 79 85 117zM1912 1259h2q43 0 61 -37h2q32 37 69 37h4q57 0 79 -55q8 -25 8 -45v-153h-52v138q0 44 -23 55
l-12 2h-15q-32 0 -36 -65v-130h-52v136q0 59 -43 59h-8q-32 0 -36 -57v-138h-54v245h50v-21h2q6 24 54 29zM2282 1259q47 0 75 -42v34h47v-245h-47v32q-36 -40 -78 -40q-74 0 -102 92l-6 41q0 90 85 125zM985 1117q0 -48 61 -61h4q45 0 62 46l3 15v22q-12 62 -57 62h-14
q-41 0 -59 -57v-27zM1487 1128q0 -48 43 -68l18 -4h5q47 0 63 57v23q-11 65 -58 65h-12q-50 0 -59 -73zM2225 1131v-14q15 -61 57 -61h14q58 12 58 64v11q0 45 -37 65l-18 5h-10q-64 -8 -64 -70zM770 1150v-82q0 -5 7 -5q77 0 77 45q0 34 -47 42h-37zM2966 753l24 -28
l-51 -55q-18 12 -27 26zM1524 727l85 -54q0 -15 -21 -42l-87 54q18 41 23 42zM2850 693h38l55 -60h-54l-21 26l-23 -26h-54q54 60 59 60zM3422 693h40l56 -60h-54l-24 26h-1q0 -5 -19 -26h-54zM622 685h52q8 -4 47 -137l34 -110q9 8 34 100l48 147h54v-2l-112 -326h-44z
M1159 685h51v-54h-51v54zM1354 685h46l6 -5v-323h-52v328zM2317 685h45l4 -5v-78h31v-52h-31v-193h-53v193h-26v52h26v78zM2425 685h52v-98h2q23 23 54 23h3q57 0 81 -71l3 -38v-144h-52v115q0 81 -39 81h-10q-42 0 -42 -87v-109h-52v328zM2664 685h52v-54h-52v54zM3028 685
h44l6 -5v-78h29v-52h-29v-193h-54v193h-27v52h27v78zM3234 685h52v-328h-52v328zM3957 685h52v-328h-52v328zM4316 685h51v-54h-51v54zM1555 610h5q83 0 110 -102l3 -23v-11q0 -83 -85 -120l-35 -5q-76 0 -111 97l-4 32q0 97 93 130zM1811 610h4q53 0 78 -60q7 -25 7 -81
v-112h-54v146q-7 50 -37 50h-10q-38 0 -42 -57v-139h-54v245h49v-21q26 29 59 29zM2046 610h4q45 0 63 -39h3v31h49v-206q0 -102 -89 -135l-28 -3h-5q-73 0 -106 81h52l37 -20l15 -3h14q50 0 61 72q-33 -39 -73 -39q-62 0 -98 76q-11 23 -12 60q0 85 86 123zM2866 610h2
q82 0 111 -104l2 -25l-2 -27h-172q15 -45 45 -45l14 -3q29 0 49 22h57v-3q-35 -76 -108 -76q-77 0 -111 97l-1 28v8q0 49 32 89q34 39 82 39zM3429 610h5q41 0 70 -39h2v31h47v-245h-47v31h-2q-35 -39 -77 -39q-71 0 -101 89l-5 36v14q0 86 84 120zM3711 610h7
q88 0 107 -128l-2 -1v-15q0 -65 -66 -106q-21 -11 -46 -11q-34 0 -64 32v-99l-5 -5h-49v325h49v-28q31 36 69 36zM4151 610q44 0 75 -39v31h49v-245h-49v31q-35 -39 -77 -39q-92 0 -108 132q0 84 73 121q15 8 37 8zM922 602h50v-136q3 -60 42 -60h5q44 0 44 87v109h52v-245
h-47v24h-5q0 -23 -56 -32h-3q-55 0 -82 68q-4 35 -4 99v81zM1159 602h51v-245h-51v245zM2664 602h52v-245h-52v245zM4316 602h51v-245h-51v245zM1492 488v-16q13 -66 59 -66h4q59 0 66 76q-13 71 -59 71h-11q-59 -16 -59 -65zM1987 472q15 -66 59 -66h11q48 0 59 75v1
q-13 71 -59 71h-14q-39 0 -56 -57v-24zM2805 506h122v2q-16 45 -59 45h-7q-35 0 -56 -47zM3373 474q13 -68 61 -68h5q52 0 65 63v12q-10 72 -57 72h-16q-56 -14 -56 -63zM3642 478q12 -72 61 -72h3q50 0 65 60v22q0 43 -49 65h-22q-47 0 -58 -72v-3zM4095 472q10 -66 66 -66
q43 0 61 48l2 15v16q0 54 -52 68h-18q-42 0 -59 -60v-21zM3416 321h51v-52h-51v52zM4137 321h51v-52h-51v52zM2733 133h4q35 0 43 -50v-2q0 -16 -24 -41l-10 -17h-28q0 25 28 56l3 2v2q-3 19 -9 19h-10q-8 0 -9 -19h-30q6 50 42 50zM1546 116l52 -60l-26 -19l-52 52zM352 79
h4q75 -48 85 -60l-20 -37q-88 49 -88 58zM3490 79l86 -58l-18 -39q-10 0 -91 55q15 36 23 42zM4578 76l19 -42l-91 -52l-20 39l92 58v-3zM1204 53h51v-19l5 -5h14v-36h-14l-5 -5v-279h-46v31q-34 -40 -81 -40q-72 0 -102 105l-3 26q0 102 101 131h14q33 0 66 -33v59l-6 5
h-43v36h49v24zM1480 45h40l56 -61h-53l-23 27l-23 -27h-53zM2641 45h33q12 0 63 -61h-54l-23 27q-19 -21 -19 -27h-58v4zM49 37h160v-60h-56v-268h-50l-4 5v245l2 3v2l-2 2l2 3l-2 2l2 3l-2 3h-54v54zM699 37h47v-73l2 -2l-2 -3v-3l2 -2l-2 -3v-3l2 -2v-2l-2 -3l2 -3h3
q17 24 51 24h3q53 0 77 -58q7 -17 7 -42v-153h-52v127q0 68 -40 68h-8q-43 0 -43 -86v-109h-52v322zM1297 37h47l5 -6v-49h-52v55zM1987 37h52v-198l70 115h62l-78 -118l90 -125v-2h-70q-10 22 -74 115v-115h-52v328zM2271 37v-99q24 24 53 24q57 0 80 -56q10 -19 10 -77
v-120h-54v133q0 62 -41 62h-11q-31 0 -37 -55v-140h-53v314l-1 3v3l1 2l-1 3l1 3h53zM2458 37h51v-55h-51v55zM3148 37h51v-108q27 33 68 33h3q75 0 105 -94l5 -37q0 -75 -64 -120q-30 -11 -49 -11q-41 0 -72 40v-31h-47v328zM4275 37h52v-99h2q23 24 54 24h3q60 0 82 -74
l2 -41v-138h-52v111q0 82 -32 82l-10 2h-12q-37 0 -37 -80v-115h-52v328zM329 -38h3v-58h-5q-42 0 -42 -57v-138h-53v245h47v-21q18 29 50 29zM564 -38q71 0 86 -87v-166h-51v136q-6 59 -41 59h-6q-45 0 -45 -84v-111h-52v245h50v-21q25 29 59 29zM1504 -38q72 0 105 -94
l5 -39q-2 -24 -7 -24h-169q17 -47 62 -47q24 0 48 21h57q-33 -79 -108 -79q-82 0 -113 105v37q0 81 89 117zM2657 -38h5q77 0 107 -97l3 -26v-21l-3 -13h-170q18 -47 53 -47h12q21 0 42 21h59q-34 -79 -105 -79q-84 0 -115 102l-2 29q0 93 91 128zM2915 -38h4q54 0 78 -60
q7 -25 7 -82v-111h-54v138q0 48 -35 57h-11q-38 0 -43 -57v-138h-54v245h50v-21q25 29 58 29zM3508 -38h6q40 0 70 -40h2v32h47v-245h-47v31h-2q-34 -40 -78 -40q-71 0 -101 90l-4 37v12q0 82 77 117q11 6 30 6zM3781 -38h4q62 0 82 -78l3 -84v-91h-54v138q0 48 -38 57h-9
q-38 0 -42 -52v-143h-54v245h49v-21q26 29 59 29zM4133 -38h1q74 0 104 -93l4 -40q0 -88 -84 -126l-25 -3q-41 0 -68 34v-106h-52v326h47v-29q30 37 73 37zM4714 -38h5q34 0 63 -37q27 37 69 37h6q56 0 79 -66l6 -51v-136h-52v122q0 73 -39 73h-7q-35 0 -41 -50v-140l-5 -5
h-48v140q0 42 -31 55h-17q-40 0 -40 -77v-118h-51v245h47v-21q22 29 56 29zM359 -46h49l5 -6v-234l-5 -5h-49v245zM1297 -46h52v-245h-52v245zM1649 -46h52v-136q4 -60 43 -60h4q44 0 44 81v115h52v-245h-47v24h-5q-12 -33 -59 -33q-52 0 -79 63q-5 12 -5 34v157zM2458 -46
h51v-245h-51v245zM4515 -46h51v-245h-51v245zM1077 -169q0 -53 51 -73h12q54 0 66 66v10q0 53 -54 70h-17q-38 0 -58 -57v-16zM1438 -143h122q-18 47 -53 47h-7q-43 0 -62 -44v-3zM2599 -143h122q-21 47 -54 47h-7q-46 0 -61 -47zM3196 -158v-11q10 -73 61 -73h5q64 8 64 71
v5q0 45 -38 65l-18 5h-14q-60 -14 -60 -62zM3452 -173q14 -69 62 -69h11q41 0 59 60v13q-8 73 -56 73h-17q-47 0 -59 -73v-4zM4062 -158v-22q0 -47 59 -62h9q50 0 61 76q-13 70 -58 70h-15q-56 -17 -56 -62z" />
    <glyph glyph-name=".null" horiz-adv-x="0" 
 />
    <glyph glyph-name="nonmarkingreturn" horiz-adv-x="571" 
 />
    <glyph glyph-name="space" unicode=" " horiz-adv-x="532" 
 />
    <glyph glyph-name="exclam" unicode="!" horiz-adv-x="409" 
d="M102 1434h205v-1024h-205v1024zM307 205v-205h-205v205h205z" />
    <glyph glyph-name="quotedbl" unicode="&#x22;" horiz-adv-x="716" 
d="M163 1024h144v410h-205v-349zM471 1024h143v410h-205v-349z" />
    <glyph glyph-name="numbersign" unicode="#" horiz-adv-x="1228" 
d="M512 1024h204v205h205v-205h205v-205h-205v-205h205v-204h-205v-205h-205v205h-204v-205h-205v205h-205v204h205v205h-205v205h205v205h205v-205zM716 614v205h-204v-205h204z" />
    <glyph glyph-name="dollar" unicode="$" 
d="M1536 1434v-205h-615v-410h410l205 -205v-409l-205 -205h-410v-205h-205v205h-614v205h614v409h-409l-205 205v410l205 205h409v204h205v-204h615zM1331 266v287l-62 61h-348v-409h348zM716 1229h-348l-61 -62v-286l61 -62h348v410z" />
    <glyph glyph-name="percent" unicode="%" horiz-adv-x="1228" 
d="M819 1229v205h-103l-204 -205v-963l-62 -61h-41v-205h103l204 205v962l62 62h41zM204 1229l-102 -103v-102l102 -102h103l102 102v102l-102 103h-103zM204 1096l31 30h41l31 -30v-41l-31 -31h-41l-31 31v41zM921 512l-102 -102v-103l102 -102h103l102 102v103l-102 102
h-103zM921 379l31 31h41l31 -31v-41l-31 -31h-41l-31 31v41z" />
    <glyph glyph-name="ampersand" unicode="&#x26;" 
d="M102 205v409l102 103l-102 102v410l205 205h1024v-205h-963l-61 -62v-286l61 -62h348v-205h-348l-61 -61v-287l61 -61h697l61 61v348h-205v205h615v-205h-205v-409l-205 -205h-819z" />
    <glyph glyph-name="quotesingle" unicode="'" horiz-adv-x="409" 
d="M163 1024h144v410h-205v-349z" />
    <glyph glyph-name="parenleft" unicode="(" horiz-adv-x="614" 
d="M307 1434h205v-205h-144l-61 -62v-901l61 -61h144v-205h-205l-205 205v1024z" />
    <glyph glyph-name="parenright" unicode=")" horiz-adv-x="614" 
d="M307 1434h-205v-205h143l62 -62v-901l-62 -61h-143v-205h205l205 205v1024z" />
    <glyph glyph-name="asterisk" unicode="*" horiz-adv-x="1075" 
d="M827 1151l145 -145l-288 -289l288 -289l-145 -145l-289 288l-289 -288l-145 145l289 289l-289 289l145 145l289 -289z" />
    <glyph glyph-name="plus" unicode="+" horiz-adv-x="1228" 
d="M512 1229h204v-410h410v-205h-410v-409h-204v409h-410v205h410v410z" />
    <glyph glyph-name="comma" unicode="," horiz-adv-x="409" 
d="M163 -205l-61 62v348h205v-410h-144z" />
    <glyph glyph-name="hyphen" unicode="-" horiz-adv-x="1228" 
d="M1126 819v-205h-1024v205h1024z" />
    <glyph glyph-name="hyphen" unicode="&#x2010;" horiz-adv-x="1228" 
d="M1126 819v-205h-1024v205h1024z" />
    <glyph glyph-name="period" unicode="." horiz-adv-x="409" 
d="M102 0v205h205v-205h-205z" />
    <glyph glyph-name="slash" unicode="/" horiz-adv-x="614" 
d="M512 1229h-41l-62 -62v-962l-205 -205h-102v205h41l61 61v963l205 205h103v-205z" />
    <glyph glyph-name="zero" unicode="0" 
d="M307 1434h1024l205 -205v-1024l-205 -205h-1024l-205 205v1024zM307 1167v-901l61 -61h901l62 61v901l-62 62h-901z" />
    <glyph glyph-name="one" unicode="1" horiz-adv-x="409" 
d="M102 1434v-1434h205v1434h-205z" />
    <glyph glyph-name="two" unicode="2" 
d="M1536 1229v-410l-205 -205h-963l-61 -61v-287l61 -61h1168v-205h-1229l-205 205v409l205 205h962l62 62v286l-62 62h-1167v205h1229z" />
    <glyph glyph-name="three" unicode="3" 
d="M1269 1229h-1167v205h1229l205 -205v-410l-103 -102l103 -103v-409l-205 -205h-1229v205h1167l62 61v287l-62 61h-1167v205h1167l62 62v286z" />
    <glyph glyph-name="four" unicode="4" 
d="M102 1434h205v-553l61 -62h963v615h205v-1434h-205v614h-1024l-205 205v615z" />
    <glyph glyph-name="five" unicode="5" 
d="M368 1229l-61 -62v-286l61 -62h963l205 -205v-409l-205 -205h-1229v205h1167l62 61v287l-62 61h-962l-205 205v410l205 205h1229v-205h-1168z" />
    <glyph glyph-name="six" unicode="6" 
d="M368 1229l-61 -62v-348h1024l205 -205v-409l-205 -205h-1024l-205 205v1024l205 205h1229v-205h-1168zM1331 266v287l-62 61h-962v-348l61 -61h901z" />
    <glyph glyph-name="seven" unicode="7" horiz-adv-x="1433" 
d="M1065 1229l61 -62v-286l-61 -62h-553v-205h553l61 -61v-553h205v614l-103 103l103 102v410l-205 205h-1024v-205h963z" />
    <glyph glyph-name="eight" unicode="8" 
d="M102 1229l205 205h1024l205 -205v-410l-103 -102l103 -103v-409l-205 -205h-1024l-205 205v409l102 103l-102 102v410zM307 1167v-286l61 -62h901l62 62v286l-62 62h-901zM1331 553l-62 61h-901l-61 -61v-287l61 -61h901l62 61v287z" />
    <glyph glyph-name="nine" unicode="9" 
d="M1331 1434l205 -205v-1024l-205 -205h-1229v205h1167l62 61v348h-1024l-205 205v410l205 205h1024zM1331 1167l-62 62h-901l-61 -62v-286l61 -62h963v348z" />
    <glyph glyph-name="colon" unicode=":" horiz-adv-x="409" 
d="M307 819v-205h-205v205h205zM102 0v205h205v-205h-205z" />
    <glyph glyph-name="semicolon" unicode=";" horiz-adv-x="409" 
d="M307 819v-205h-205v205h205zM163 -205l-61 62v348h205v-410h-144z" />
    <glyph glyph-name="less" unicode="&#x3c;" horiz-adv-x="819" 
d="M716 1333v-268l-346 -346l346 -348v-267l-614 615z" />
    <glyph glyph-name="equal" unicode="=" horiz-adv-x="1228" 
d="M1126 1024v-205h-1024v205h1024zM1126 614v-204h-1024v204h1024z" />
    <glyph glyph-name="greater" unicode="&#x3e;" horiz-adv-x="819" 
d="M102 1333v-268l346 -346l-346 -348v-267l614 615z" />
    <glyph glyph-name="question" unicode="?" 
d="M1536 1229v-410l-205 -205h-553l-62 -61v-143h-204v204l204 205h553l62 62v286l-62 62h-1167v205h1229zM716 205v-205h-204v205h204z" />
    <glyph glyph-name="at" unicode="@" 
d="M1536 1229v-615l-205 -204h-615l-204 204v205l204 205h410v-410h143l62 62v491l-62 62h-901l-61 -62v-901l61 -61h963v-205h-1024l-205 205v1024l205 205h1024zM778 614h143v205h-143l-62 -61v-82z" />
    <glyph glyph-name="A" unicode="A" 
d="M1126 1434h205l205 -205v-1229h-205v410h-961l-63 -64v-346h-205v410zM1187 1229l-612 -615h756v553l-62 62h-82z" />
    <glyph glyph-name="B" unicode="B" 
d="M1536 614v-409l-205 -205h-1229v1434h819l205 -205v-410h205zM307 1229v-410h614v348l-61 62h-553zM1269 614h-962v-409h962l62 61v287z" />
    <glyph glyph-name="C" unicode="C" 
d="M1536 1434v-205h-1168l-61 -62v-901l61 -61h1168v-205h-1229l-205 205v1024l205 205h1229z" />
    <glyph glyph-name="D" unicode="D" 
d="M1536 205l-205 -205h-1229v1434h1229l205 -205v-1024zM1269 1229h-962v-1024h962l62 61v901z" />
    <glyph glyph-name="E" unicode="E" 
d="M1536 1434v-205h-1168l-61 -62v-286l61 -62h1168v-205h-1168l-61 -61v-287l61 -61h1168v-205h-1229l-205 205v409l102 103l-102 102v410l205 205h1229z" />
    <glyph glyph-name="F" unicode="F" horiz-adv-x="1433" 
d="M1331 614h-963l-61 -61v-553h-205v614l102 103l-102 102v410l205 205h1024v-205h-963l-61 -62v-286l61 -62h963v-205z" />
    <glyph glyph-name="G" unicode="G" 
d="M1536 1434v-205h-1168l-61 -62v-901l61 -61h901l62 61v348h-615v205h820v-614l-205 -205h-1024l-205 205v1024l205 205h1229z" />
    <glyph glyph-name="H" unicode="H" 
d="M1536 1434v-1434h-205v614h-1024v-614h-205v1434h205v-615h1024v615h205z" />
    <glyph glyph-name="I" unicode="I" horiz-adv-x="1228" 
d="M512 1229v-1024h-410v-205h1024v205h-410v1024h410v205h-1024v-205h410z" />
    <glyph glyph-name="J" unicode="J" horiz-adv-x="1433" 
d="M1126 1229v-963l-61 -61h-697l-61 61v348h-205v-409l205 -205h819l205 205v1229h-615v-205h410z" />
    <glyph glyph-name="K" unicode="K" 
d="M1536 1434l-615 -615h410l205 -205v-614h-205v553l-62 61h-962v-614h-205v1434h205v-615h348l614 615h267z" />
    <glyph glyph-name="L" unicode="L" horiz-adv-x="1433" 
d="M102 1434v-1434h1229v205h-1024v1229h-205z" />
    <glyph glyph-name="M" unicode="M" horiz-adv-x="2048" 
d="M1024 922l512 512h204l205 -205v-1229h-205v1167l-61 62h-80l-473 -471v-758h-205v758l-471 471h-82l-61 -62v-1167h-205v1229l205 205h205z" />
    <glyph glyph-name="N" unicode="N" 
d="M368 1229l-61 -62v-1167h-205v1229l205 205h205l819 -820v820h205v-1434h-205v346l-881 883h-82z" />
    <glyph glyph-name="O" unicode="O" 
d="M1536 1229v-1024l-205 -205h-1024l-205 205v1024l205 205h1024zM1269 1229h-901l-61 -62v-901l61 -61h901l62 61v901z" />
    <glyph glyph-name="P" unicode="P" 
d="M1536 1229v-410l-205 -205h-1024v-614h-205v1434h1229zM1269 1229h-962v-410h962l62 62v286z" />
    <glyph glyph-name="Q" unicode="Q" 
d="M307 1434h1024l205 -205v-1024l-205 -205h-410v-205h-205v205h-409l-205 205v1024zM1269 1229h-901l-61 -62v-901l61 -61h348v205h205v-205h348l62 61v901z" />
    <glyph glyph-name="R" unicode="R" 
d="M1536 1229v-410l-205 -205h-410l615 -614h-267l-614 614h-348v-614h-205v1434h1229zM1269 1229h-962v-410h962l62 62v286z" />
    <glyph glyph-name="S" unicode="S" 
d="M1536 1434v-205h-1168l-61 -62v-286l61 -62h963l205 -205v-409l-205 -205h-1229v205h1167l62 61v287l-62 61h-962l-205 205v410l205 205h1229z" />
    <glyph glyph-name="T" unicode="T" 
d="M1536 1434h-1434v-205h614v-1229h205v1229h615v205z" />
    <glyph glyph-name="U" unicode="U" 
d="M102 1434h205v-1168l61 -61h901l62 61v1168h205v-1229l-205 -205h-1024l-205 205v1229z" />
    <glyph glyph-name="V" unicode="V" 
d="M1536 1434v-410l-1024 -1024h-205l-205 205v1229h205v-1168l61 -61h82l881 880v349h205z" />
    <glyph glyph-name="W" unicode="W" horiz-adv-x="2048" 
d="M1945 1434v-1229l-205 -205h-204l-512 512l-512 -512h-205l-205 205v1229h205v-1168l61 -61h82l471 471v758h205v-758l473 -471h80l61 61v1168h205z" />
    <glyph glyph-name="X" unicode="X" 
d="M1331 1434h205v-615l-103 -102l103 -103v-614h-205v553l-62 61h-901l-61 -61v-553h-205v614l102 103l-102 102v615h205v-553l61 -62h901l62 62v553z" />
    <glyph glyph-name="Y" unicode="Y" 
d="M307 1434v-553l61 -62h901l62 62v553h205v-615l-205 -205h-410v-614h-205v614h-409l-205 205v615h205z" />
    <glyph glyph-name="Z" unicode="Z" 
d="M1536 1229v-410l-205 -205h-963l-61 -61v-287l61 -61h1168v-205h-1229l-205 205v409l205 205h962l62 62v286l-62 62h-1167v205h1229z" />
    <glyph glyph-name="bracketleft" unicode="[" horiz-adv-x="614" 
d="M102 1434h410v-205h-205v-1024h205v-205h-410v1434z" />
    <glyph glyph-name="backslash" unicode="\" horiz-adv-x="614" 
d="M102 1229h41l61 -62v-962l205 -205h103v205h-41l-62 61v963l-205 205h-102v-205z" />
    <glyph glyph-name="bracketright" unicode="]" horiz-adv-x="614" 
d="M512 1434h-410v-205h205v-1024h-205v-205h410v1434z" />
    <glyph glyph-name="asciicircum" unicode="^" horiz-adv-x="878" 
d="M438 1300l72 -71h266l-205 205h-264l-205 -205h264z" />
    <glyph glyph-name="underscore" unicode="_" horiz-adv-x="1228" 
d="M1126 205v-205h-1024v205h1024z" />
    <glyph glyph-name="grave" unicode="`" horiz-adv-x="753" 
 />
    <glyph glyph-name="a" unicode="a" horiz-adv-x="1228" 
d="M921 1024l205 -205v-819h-819l-205 205v205l205 204h614v144l-61 61h-758v205h819zM921 410h-553l-61 -62v-82l61 -61h553v205z" />
    <glyph glyph-name="b" unicode="b" horiz-adv-x="1228" 
d="M102 1434h205v-410h614l205 -205v-614l-205 -205h-819v1434zM921 266v492l-61 61h-553v-614h553z" />
    <glyph glyph-name="c" unicode="c" horiz-adv-x="1228" 
d="M307 758v-492l61 -61h758v-205h-819l-205 205v614l205 205h819v-205h-758z" />
    <glyph glyph-name="d" unicode="d" horiz-adv-x="1228" 
d="M1126 1434h-205v-410h-614l-205 -205v-614l205 -205h819v1434zM307 266v492l61 61h553v-614h-553z" />
    <glyph glyph-name="e" unicode="e" horiz-adv-x="1228" 
d="M307 1024h614l205 -205v-409h-819v-144l61 -61h758v-205h-819l-205 205v614zM860 819h-492l-61 -61v-144h614v144z" />
    <glyph glyph-name="f" unicode="f" horiz-adv-x="1024" 
d="M102 1229l205 205h614v-205h-553l-61 -62v-82l61 -61h553v-205h-553l-61 -61v-758h-205v819l102 103l-102 102v205z" />
    <glyph glyph-name="g" unicode="g" horiz-adv-x="1228" 
d="M1126 -205l-205 -205h-819v205h758l61 62v143h-614l-205 205v614l205 205h819v-1229zM921 205v614h-553l-61 -61v-492l61 -61h553z" />
    <glyph glyph-name="h" unicode="h" horiz-adv-x="1228" 
d="M307 1024h614l205 -203v-821h-205v760l-61 61h-553v-821l-205 2v1434h205v-412z" />
    <glyph glyph-name="i" unicode="i" horiz-adv-x="409" 
d="M102 1024h205v-1024h-205v1024z" />
    <glyph glyph-name="j" unicode="j" horiz-adv-x="409" 
d="M103 1024v-1167l-62 -62h-348v-205h410l204 205v1229h-204z" />
    <glyph glyph-name="k" unicode="k" horiz-adv-x="1228" 
d="M102 1434h205v-820h145l408 410h266l-408 -408h203l205 -204v-412h-205v350l-61 62l-553 -2v-410h-205v1434z" />
    <glyph glyph-name="l" unicode="l" horiz-adv-x="409" 
d="M102 1434h205v-1434h-205v1434z" />
    <glyph glyph-name="m" unicode="m" 
d="M307 1024h205l307 -307l307 307h205l205 -205v-819h-205v758l-62 61h-80l-268 -266v-553h-205v553l-266 266h-82l-61 -61v-758h-205v819z" />
    <glyph glyph-name="n" unicode="n" horiz-adv-x="1228" 
d="M307 1024h205l409 -410v410h205v-1024h-205v346l-471 473h-82l-61 -61v-758h-205v819z" />
    <glyph glyph-name="o" unicode="o" horiz-adv-x="1228" 
d="M921 1024l205 -205v-614l-205 -205h-614l-205 205v614l205 205h614zM921 758l-61 61h-492l-61 -61v-492l61 -61h492l61 61v492z" />
    <glyph glyph-name="p" unicode="p" horiz-adv-x="1228" 
d="M102 -410v1434h819l205 -205v-614l-205 -205h-614v-410h-205zM860 205l61 61v492l-61 61h-553v-614h553z" />
    <glyph glyph-name="q" unicode="q" horiz-adv-x="1228" 
d="M1126 -410v1434h-819l-205 -205v-614l205 -205h614v-410h205zM368 205l-61 61v492l61 61h553v-614h-553z" />
    <glyph glyph-name="r" unicode="r" horiz-adv-x="1024" 
d="M921 1024v-205h-553l-61 -61v-758h-205v819l205 205h614z" />
    <glyph glyph-name="s" unicode="s" horiz-adv-x="1228" 
d="M307 1024h819v-205h-758l-61 -61v-82l61 -62h553l205 -204v-205l-205 -205h-819v205h758l61 61v82l-61 62h-553l-205 204v205z" />
    <glyph glyph-name="t" unicode="t" horiz-adv-x="1024" 
d="M921 0h-614l-205 205v614l102 103l-102 102v205h205v-144l61 -61h553v-205h-553l-61 -61v-492l61 -61h553v-205z" />
    <glyph glyph-name="u" unicode="u" horiz-adv-x="1228" 
d="M307 1024v-758l61 -61h492l61 61v758h205v-819l-205 -205h-614l-205 205v819h205z" />
    <glyph glyph-name="v" unicode="v" horiz-adv-x="1228" 
d="M921 1024h205v-410l-614 -614h-205l-205 205v819h205v-758l61 -61h82l471 473v346z" />
    <glyph glyph-name="w" unicode="w" 
d="M716 1024h205v-551l268 -268h80l62 61v758h205v-819l-205 -205h-205l-307 307l-307 -307h-205l-205 205v819h205v-758l61 -61h82l266 268v551z" />
    <glyph glyph-name="x" unicode="x" horiz-adv-x="1228" 
d="M102 1024h205v-348l61 -62h492l61 62v348h205v-410l-102 -102l102 -102v-410h-205v348l-61 62h-492l-61 -62v-348h-205v410l102 102l-102 102v410z" />
    <glyph glyph-name="y" unicode="y" horiz-adv-x="1228" 
d="M1126 1024v-1229l-205 -205h-819v205h758l61 62v143h-614l-205 205v819h205v-758l61 -61h553v819h205z" />
    <glyph glyph-name="z" unicode="z" horiz-adv-x="1228" 
d="M921 1024h-819v-205h758l61 -61v-82l-61 -62h-553l-205 -204v-205l205 -205h819v205h-758l-61 61v82l61 62h553l205 204v205z" />
    <glyph glyph-name="braceleft" unicode="{" horiz-adv-x="716" 
d="M614 1434v-205h-143l-62 -62v-348l-102 -102l102 -103v-348l62 -61h143v-205h-205l-205 205v409l-102 103l102 102v410l205 205h205z" />
    <glyph glyph-name="bar" unicode="|" horiz-adv-x="409" 
d="M102 1434h205v-1434h-205v1434z" />
    <glyph glyph-name="braceright" unicode="}" horiz-adv-x="716" 
d="M102 1434v-205h143l62 -62v-348l102 -102l-102 -103v-348l-62 -61h-143v-205h205l205 205v409l102 103l-102 102v410l-205 205h-205z" />
    <glyph glyph-name="asciitilde" unicode="~" horiz-adv-x="1083" 
d="M307 1434l-205 -205h264l72 71l72 -71h266l205 205h-265l-73 -72l-72 70z" />
    <glyph glyph-name="dieresis" unicode="&#xa8;" horiz-adv-x="1024" 
 />
    <glyph glyph-name="copyright" unicode="&#xa9;" horiz-adv-x="1132" 
 />
    <glyph glyph-name="registered" unicode="&#xae;" horiz-adv-x="1132" 
 />
    <glyph glyph-name="acute" unicode="&#xb4;" horiz-adv-x="1280" 
 />
    <glyph glyph-name="paragraph" unicode="&#xb6;" horiz-adv-x="1024" 
d="M949 1439v-78h-127v-1365h-102v1365h-146v-1365h-104v738q-170 8 -273.5 104.5t-103.5 247.5q0 157 109.5 255t293.5 98h453z" />
    <glyph glyph-name="onequarter" unicode="&#xbc;" horiz-adv-x="2110" 
 />
    <glyph glyph-name="onehalf" unicode="&#xbd;" horiz-adv-x="2087" 
 />
    <glyph glyph-name="threequarters" unicode="&#xbe;" horiz-adv-x="2087" 
 />
    <glyph glyph-name="Agrave" unicode="&#xc0;" 
d="M1126 1737h-266l205 -205h266zM1126 1434l-1024 -1024v-410h205v346l63 64h961v-410h205v1229l-205 205h-205zM1187 1229h82l62 -62v-553h-756z" />
    <glyph glyph-name="Aacute" unicode="&#xc1;" 
d="M1380 1527l205 205h-265l-204 -205h264zM1126 1434l-1024 -1024v-410h205v346l63 64h961v-410h205v1229l-205 205h-205zM1187 1229h82l62 -62v-553h-756z" />
    <glyph glyph-name="Acircumflex" unicode="&#xc2;" 
d="M1263 1604l-71 -72h-264l204 205h265l204 -205h-266zM1126 1434h205l205 -205v-1229h-205v410h-961l-63 -64v-346h-205v410zM1187 1229l-612 -615h756v553l-62 62h-82z" />
    <glyph glyph-name="Atilde" unicode="&#xc3;" 
d="M1067 1727l264 -2l71 -69l74 71h264l-204 -205h-267l-71 72l-72 -72h-264zM1126 1434h205l205 -205v-1229h-205v410h-961l-63 -64v-346h-205v410zM1187 1229l-612 -615h756v553l-62 62h-82z" />
    <glyph glyph-name="Egrave" unicode="&#xc8;" 
d="M1536 1434h-1229l-205 -205v-410l102 -102l-102 -103v-409l205 -205h1229v205h-1168l-61 61v287l61 61h1168v205h-1168l-61 62v286l61 62h1168v205zM880 1733h-266l205 -205h266z" />
    <glyph glyph-name="Eacute" unicode="&#xc9;" 
d="M955 1532l205 205h-265l-204 -205h264zM1536 1434h-1229l-205 -205v-410l102 -102l-102 -103v-409l205 -205h1229v205h-1168l-61 61v287l61 61h1168v205h-1168l-61 62v286l61 62h1168v205z" />
    <glyph glyph-name="Ecircumflex" unicode="&#xca;" 
d="M307 1434l-205 -205v-410l102 -102l-102 -103v-409l205 -205h1229v205h-1168l-61 61v287l61 61h1168v205h-1168l-61 62v286l61 62h1168v205h-1229zM939 1532h266l-204 205h-265l-204 -205h264l71 72z" />
    <glyph glyph-name="Igrave" unicode="&#xcc;" horiz-adv-x="1228" 
d="M512 1229v-1024h-410v-205h1024v205h-410v1024h410v205h-1024v-205h410zM580 1733h-266l205 -205h266z" />
    <glyph glyph-name="Iacute" unicode="&#xcd;" horiz-adv-x="1228" 
d="M512 1229v-1024h-410v-205h1024v205h-410v1024h410v205h-1024v-205h410zM749 1532l205 205h-265l-204 -205h264z" />
    <glyph glyph-name="Dslash" unicode="&#xd0;" 
d="M102 819h205v615h1024l205 -205v-1024l-205 -205h-1024v614h-205v205zM512 1229v-410h204v-205h-204v-409h757l62 61v901l-62 62h-757z" />
    <glyph glyph-name="Dslash" unicode="&#x110;" 
d="M102 819h205v615h1024l205 -205v-1024l-205 -205h-1024v614h-205v205zM512 1229v-410h204v-205h-204v-409h757l62 61v901l-62 62h-757z" />
    <glyph glyph-name="Ograve" unicode="&#xd2;" 
d="M1331 1434h-1024l-205 -205v-1024l205 -205h1024l205 205v1024zM1331 1167v-901l-62 -61h-901l-61 61v901l61 62h901zM794 1733h-266l205 -205h266z" />
    <glyph glyph-name="Oacute" unicode="&#xd3;" 
d="M1331 1434h-1024l-205 -205v-1024l205 -205h1024l205 205v1024zM1331 1167v-901l-62 -61h-901l-61 61v901l61 62h901zM889 1532l205 205h-265l-204 -205h264z" />
    <glyph glyph-name="Ocircumflex" unicode="&#xd4;" 
d="M1331 1434h-1024l-205 -205v-1024l205 -205h1024l205 205v1024zM1331 1167v-901l-62 -61h-901l-61 61v901l61 62h901zM890 1532h266l-204 205h-265l-204 -205h264l71 72z" />
    <glyph glyph-name="Otilde" unicode="&#xd5;" 
d="M1331 1434h-1024l-205 -205v-1024l205 -205h1024l205 205v1024zM1331 1167v-901l-62 -61h-901l-61 61v901l61 62h901zM437 1522h264l72 72l71 -72h267l204 205h-264l-74 -71l-71 69l-264 2z" />
    <glyph glyph-name="Ugrave" unicode="&#xd9;" 
d="M102 205l205 -205h1024l205 205v1229h-205v-1168l-62 -61h-901l-61 61v1168h-205v-1229zM794 1733h-266l205 -205h266z" />
    <glyph glyph-name="Uacute" unicode="&#xda;" 
d="M102 205l205 -205h1024l205 205v1229h-205v-1168l-62 -61h-901l-61 61v1168h-205v-1229zM889 1532l205 205h-265l-204 -205h264z" />
    <glyph glyph-name="Yacute" unicode="&#xdd;" 
d="M102 1434v-615l205 -205h409v-614h205v614h410l205 205v615h-205v-553l-62 -62h-901l-61 62v553h-205zM949 1532l205 205h-265l-204 -205h264z" />
    <glyph glyph-name="agrave" unicode="&#xe0;" horiz-adv-x="1228" 
d="M102 1024v-205h758l61 -61v-144h-614l-205 -204v-205l205 -205h819v819l-205 205h-819zM921 205h-553l-61 61v82l61 62h553v-205zM502 1289h-266l205 -205h266z" />
    <glyph glyph-name="aacute" unicode="&#xe1;" horiz-adv-x="1228" 
d="M102 1024v-205h758l61 -61v-144h-614l-205 -204v-205l205 -205h819v819l-205 205h-819zM921 205h-553l-61 61v82l61 62h553v-205zM407 1084h266l205 205h-266z" />
    <glyph glyph-name="acircumflex" unicode="&#xe2;" horiz-adv-x="1228" 
d="M102 1024v-205h758l61 -61v-144h-614l-205 -204v-205l205 -205h819v819l-205 205h-819zM921 205h-553l-61 61v82l61 62h553v-205zM623 1078h266l-204 205h-265l-204 -205h264l71 72z" />
    <glyph glyph-name="atilde" unicode="&#xe3;" horiz-adv-x="1228" 
d="M102 1024v-205h758l61 -61v-144h-614l-205 -204v-205l205 -205h819v819l-205 205h-819zM921 205h-553l-61 61v82l61 62h553v-205zM196 1085h264l72 72l71 -72h267l204 205h-264l-74 -71l-71 69l-264 2z" />
    <glyph glyph-name="egrave" unicode="&#xe8;" horiz-adv-x="1228" 
d="M102 819v-614l205 -205h819v205h-758l-61 61v144h819v409l-205 205h-614zM921 758v-144h-614v144l61 61h492zM570 1289h-266l205 -205h266z" />
    <glyph glyph-name="eacute" unicode="&#xe9;" horiz-adv-x="1228" 
d="M102 819v-614l205 -205h819v205h-758l-61 61v144h819v409l-205 205h-614zM921 758v-144h-614v144l61 61h492zM441 1084h266l205 205h-266z" />
    <glyph glyph-name="ecircumflex" unicode="&#xea;" horiz-adv-x="1228" 
d="M102 819v-614l205 -205h819v205h-758l-61 61v144h819v409l-205 205h-614zM921 758v-144h-614v144l61 61h492zM683 1078h266l-204 205h-265l-204 -205h264l71 72z" />
    <glyph glyph-name="igrave" unicode="&#xec;" horiz-adv-x="409" 
d="M103 0h205v1024h-205v-1024zM150 1289h-266l205 -205h266z" />
    <glyph glyph-name="iacute" unicode="&#xed;" horiz-adv-x="409" 
d="M103 0h205v1024h-205v-1024zM49 1084h266l205 205h-266z" />
    <glyph glyph-name="ograve" unicode="&#xf2;" horiz-adv-x="1228" 
d="M307 1024l-205 -205v-614l205 -205h614l205 205v614l-205 205h-614zM921 266l-61 -61h-492l-61 61v492l61 61h492l61 -61v-492zM544 1279h-266l205 -205h266z" />
    <glyph glyph-name="oacute" unicode="&#xf3;" horiz-adv-x="1228" 
d="M307 1024l-205 -205v-614l205 -205h614l205 205v614l-205 205h-614zM921 266l-61 -61h-492l-61 61v492l61 61h492l61 -61v-492zM449 1074h266l205 205h-266z" />
    <glyph glyph-name="ocircumflex" unicode="&#xf4;" horiz-adv-x="1228" 
d="M307 1024l-205 -205v-614l205 -205h614l205 205v614l-205 205h-614zM921 266l-61 -61h-492l-61 61v492l61 61h492l61 -61v-492zM685 1078h266l-204 205h-265l-204 -205h264l71 72z" />
    <glyph glyph-name="otilde" unicode="&#xf5;" horiz-adv-x="1228" 
d="M307 1024l-205 -205v-614l205 -205h614l205 205v614l-205 205h-614zM921 266l-61 -61h-492l-61 61v492l61 61h492l61 -61v-492zM232 1075h264l72 72l71 -72h267l204 205h-264l-74 -71l-71 69l-264 2z" />
    <glyph glyph-name="divide" unicode="&#xf7;" horiz-adv-x="1706" 
 />
    <glyph glyph-name="glyph217" unicode="&#xf9;" horiz-adv-x="1228" 
d="M102 1024v-819l205 -205h614l205 205v819h-205v-758l-61 -61h-492l-61 61v758h-205zM584 1279h-266l205 -205h266z" />
    <glyph glyph-name="glyph218" unicode="&#xfa;" horiz-adv-x="1228" 
d="M102 1024v-819l205 -205h614l205 205v819h-205v-758l-61 -61h-492l-61 61v758h-205zM454 1074h266l205 205h-266z" />
    <glyph glyph-name="glyph235" unicode="&#xfd;" horiz-adv-x="1228" 
d="M921 1024v-819h-553l-61 61v758h-205v-819l205 -205h614v-143l-61 -62h-758v-205h819l205 205v1229h-205zM454 1074h266l205 205h-266z" />
    <glyph glyph-name="Abreve" unicode="&#x102;" 
d="M1336 1707h266l-204 -205h-265l-204 205h264l71 -71zM1126 1434h205l205 -205v-1229h-205v410h-961l-63 -64v-346h-205v410zM1187 1229l-612 -615h756v553l-62 62h-82z" />
    <glyph glyph-name="abreve" unicode="&#x103;" horiz-adv-x="1228" 
d="M102 1024v-205h758l61 -61v-144h-614l-205 -204v-205l205 -205h819v819l-205 205h-819zM921 205h-553l-61 61v82l61 62h553v-205zM576 1206l-71 71h-264l204 -205h265l204 205h-266z" />
    <glyph glyph-name="Ccaron" unicode="&#x10c;" horiz-adv-x="1274" 
 />
    <glyph glyph-name="ccaron" unicode="&#x10d;" horiz-adv-x="922" 
 />
    <glyph glyph-name="dcroat" unicode="&#x111;" horiz-adv-x="1228" 
d="M368 205h553v614h-553l-61 -61v-492zM921 1301v133h205v-1434h-819l-205 205v614l205 205h614v102h-250v175h250z" />
    <glyph glyph-name="Itilde" unicode="&#x128;" horiz-adv-x="1228" 
d="M512 1229v-1024h-410v-205h1024v205h-410v1024h410v205h-1024v-205h410zM283 1522h264l72 72l71 -72h267l204 205h-264l-74 -71l-71 69l-264 2z" />
    <glyph glyph-name="itilde" unicode="&#x129;" horiz-adv-x="409" 
d="M103 0h205v1024h-205v-1024zM-180 1085h264l72 72l71 -72h267l204 205h-264l-74 -71l-71 69l-264 2z" />
    <glyph glyph-name="Utilde" unicode="&#x168;" 
d="M102 205l205 -205h1024l205 205v1229h-205v-1168l-62 -61h-901l-61 61v1168h-205v-1229zM471 1522h264l72 72l71 -72h267l204 205h-264l-74 -71l-71 69l-264 2z" />
    <glyph glyph-name="utilde" unicode="&#x169;" horiz-adv-x="1228" 
d="M102 1024v-819l205 -205h614l205 205v819h-205v-758l-61 -61h-492l-61 61v758h-205zM232 1075h264l72 72l71 -72h267l204 205h-264l-74 -71l-71 69l-264 2z" />
    <glyph glyph-name="Ohorn" unicode="&#x1a0;" 
d="M1331 1167v-901l-62 -61h-901l-61 61v901l61 62h901zM1591 1196v348h-205v-165l-55 55h-1024l-205 -205v-1024l205 -205h1024l205 205v935z" />
    <glyph glyph-name="ohorn" unicode="&#x1a1;" horiz-adv-x="1228" 
d="M922 266l-62 -61h-491l-62 61v492l62 61h491l62 -61v-492zM1187 748v348h-205v-132l-60 60h-615l-205 -205v-614l205 -205h615l204 205v481z" />
    <glyph glyph-name="Uhorn" unicode="&#x1af;" 
d="M1539 1134l61 62v348h-205v-110h-64v-1168l-62 -61h-901l-61 61v1168h-205v-1229l205 -205h1024l205 205v929h3z" />
    <glyph glyph-name="uhorn" unicode="&#x1b0;" horiz-adv-x="1228" 
d="M1187 748v348h-205v-72h-61v-758l-61 -61h-492l-61 61v758h-205v-819l205 -205h614l205 205v481z" />
    <glyph glyph-name="uni1EA0" unicode="&#x1ea0;" 
d="M937 185h-205v-205h205v205zM1126 1434l-1024 -1024v-410h205v346l63 64h961v-410h205v1229l-205 205h-205zM1187 1229h82l62 -62v-553h-756z" />
    <glyph glyph-name="uni1EA1" unicode="&#x1ea1;" horiz-adv-x="1228" 
d="M102 1024v-205h758l61 -61v-144h-614l-205 -204v-205l205 -205h819v819l-205 205h-819zM921 205h-553l-61 61v82l61 62h553v-205zM793 -69h-205v-205h205v205z" />
    <glyph glyph-name="uni1EA2" unicode="&#x1ea2;" 
d="M1126 1434l-1024 -1024v-410h205v346l63 64h961v-410h205v1229l-205 205h-205zM1187 1229h82l62 -62v-553h-756zM1317 1488v35l11 13h208l89 102v116l-89 101h-379v-134h315l11 -13v-31l-11 -13h-211l-76 -101v-75h132z" />
    <glyph glyph-name="uni1EA3" unicode="&#x1ea3;" horiz-adv-x="1228" 
d="M102 1024v-205h758l61 -61v-144h-614l-205 -204v-205l205 -205h819v819l-205 205h-819zM921 205h-553l-61 61v82l61 62h553v-205zM563 1061v35l11 13h208l89 102v116l-89 101h-379v-134h315l11 -13v-31l-11 -13h-211l-76 -101v-75h132z" />
    <glyph glyph-name="uni1EA4" unicode="&#x1ea4;" 
d="M1758 1671l205 205h-265l-204 -205h264zM1126 1434l-1024 -1024v-410h205v346l63 64h961v-410h205v1229l-205 205h-205zM1187 1229h82l62 -62v-553h-756zM1335 1532h266l-204 205h-265l-204 -205h264l71 72z" />
    <glyph glyph-name="uni1EA5" unicode="&#x1ea5;" horiz-adv-x="1228" 
d="M102 1024v-205h758l61 -61v-144h-614l-205 -204v-205l205 -205h819v819l-205 205h-819zM921 205h-553l-61 61v82l61 62h553v-205zM810 1203h266l205 205h-266zM623 1078h266l-204 205h-265l-204 -205h264l71 72z" />
    <glyph glyph-name="uni1EA6" unicode="&#x1ea6;" 
d="M1620 1838h-266l205 -205h266zM1126 1434l-1024 -1024v-410h205v346l63 64h961v-410h205v1229l-205 205h-205zM1187 1229h82l62 -62v-553h-756zM1335 1532h266l-204 205h-265l-204 -205h264l71 72z" />
    <glyph glyph-name="uni1EA7" unicode="&#x1ea7;" horiz-adv-x="1228" 
d="M102 1024v-205h758l61 -61v-144h-614l-205 -204v-205l205 -205h819v819l-205 205h-819zM921 205h-553l-61 61v82l61 62h553v-205zM904 1392h-266l205 -205h266zM623 1078h266l-204 205h-265l-204 -205h264l71 72z" />
    <glyph glyph-name="uni1EA8" unicode="&#x1ea8;" 
d="M1126 1434l-1024 -1024v-410h205v346l63 64h961v-410h205v1229l-205 205h-205zM1187 1229h82l62 -62v-553h-756zM1335 1532h266l-204 205h-265l-204 -205h264l71 72zM1677 1617v35l11 13h208l89 102v116l-89 101h-379v-134h315l11 -13v-31l-11 -13h-211l-76 -101v-75h132
z" />
    <glyph glyph-name="uni1EA9" unicode="&#x1ea9;" horiz-adv-x="1228" 
d="M102 1024v-205h758l61 -61v-144h-614l-205 -204v-205l205 -205h819v819l-205 205h-819zM921 205h-553l-61 61v82l61 62h553v-205zM965 1163v35l11 13h208l89 102v116l-89 101h-379v-134h315l11 -13v-31l-11 -13h-211l-76 -101v-75h132zM623 1078h266l-204 205h-265
l-204 -205h264l71 72z" />
    <glyph glyph-name="uni1EAA" unicode="&#x1eaa;" 
d="M1142 1984l264 -2l71 -69l74 71h264l-204 -205h-267l-71 72l-72 -72h-264zM1126 1434h205l205 -205v-1229h-205v410h-961l-63 -64v-346h-205v410zM1187 1229l-612 -615h756v553l-62 62h-82zM1263 1604l-71 -72h-264l204 205h265l204 -205h-266z" />
    <glyph glyph-name="uni1EAB" unicode="&#x1eab;" horiz-adv-x="1228" 
d="M102 1024v-205h758l61 -61v-144h-614l-205 -204v-205l205 -205h819v819l-205 205h-819zM921 205h-553l-61 61v82l61 62h553v-205zM247 1314h264l72 72l71 -72h267l204 205h-264l-74 -71l-71 69l-264 2zM623 1078h266l-204 205h-265l-204 -205h264l71 72z" />
    <glyph glyph-name="uni1EAC" unicode="&#x1eac;" 
d="M937 185h-205v-205h205v205zM1126 1434l-1024 -1024v-410h205v346l63 64h961v-410h205v1229l-205 205h-205zM1187 1229h82l62 -62v-553h-756zM1335 1532h266l-204 205h-265l-204 -205h264l71 72z" />
    <glyph glyph-name="uni1EAD" unicode="&#x1ead;" horiz-adv-x="1228" 
d="M102 1024v-205h758l61 -61v-144h-614l-205 -204v-205l205 -205h819v819l-205 205h-819zM921 205h-553l-61 61v82l61 62h553v-205zM793 -69h-205v-205h205v205zM623 1078h266l-204 205h-265l-204 -205h264l71 72z" />
    <glyph glyph-name="uni1EAE" unicode="&#x1eae;" 
d="M1449 1748l205 205h-265l-204 -205h264zM1126 1434l-1024 -1024v-410h205v346l63 64h961v-410h205v1229l-205 205h-205zM1187 1229h82l62 -62v-553h-756zM1264 1636l-71 71h-264l204 -205h265l204 205h-266z" />
    <glyph glyph-name="uni1EAF" unicode="&#x1eaf;" horiz-adv-x="1228" 
d="M102 1024v-205h758l61 -61v-144h-614l-205 -204v-205l205 -205h819v819l-205 205h-819zM921 205h-553l-61 61v82l61 62h553v-205zM850 1153h266l205 205h-266zM576 1206l-71 71h-264l204 -205h265l204 205h-266z" />
    <glyph glyph-name="uni1EB0" unicode="&#x1eb0;" 
d="M1419 1737h-266l-205 205h266zM1126 1434l-1024 -1024v-410h205v346l63 64h961v-410h205v1229l-205 205h-205zM1187 1229h82l62 -62v-553h-756zM1336 1707h266l-204 -205h-265l-204 205h264l71 -71z" />
    <glyph glyph-name="uni1EB1" unicode="&#x1eb1;" horiz-adv-x="1228" 
d="M102 1024v-205h758l61 -61v-144h-614l-205 -204v-205l205 -205h819v819l-205 205h-819zM921 205h-553l-61 61v82l61 62h553v-205zM1057 1401h-266l205 -205h266zM576 1206l-71 71h-264l204 -205h265l204 205h-266z" />
    <glyph glyph-name="uni1EB2" unicode="&#x1eb2;" 
d="M1126 1434l-1024 -1024v-410h205v346l63 64h961v-410h205v1229l-205 205h-205zM1187 1229h82l62 -62v-553h-756zM1264 1636l-71 71h-264l204 -205h265l204 205h-266zM1711 1515v35l11 13h208l89 102v116l-89 101h-379v-134h315l11 -13v-31l-11 -13h-211l-76 -101v-75h132
z" />
    <glyph glyph-name="uni1EB3" unicode="&#x1eb3;" horiz-adv-x="1228" 
d="M102 1024v-205h758l61 -61v-144h-614l-205 -204v-205l205 -205h819v819l-205 205h-819zM921 205h-553l-61 61v82l61 62h553v-205zM1034 1129v35l11 13h208l89 102v116l-89 101h-379v-134h315l11 -13v-31l-11 -13h-211l-76 -101v-75h132zM576 1206l-71 71h-264l204 -205
h265l204 205h-266z" />
    <glyph glyph-name="uni1EB4" unicode="&#x1eb4;" 
d="M1169 1946l264 -2l71 -69l74 71h264l-204 -205h-267l-71 72l-72 -72h-264zM1126 1434h205l205 -205v-1229h-205v410h-961l-63 -64v-346h-205v410zM1187 1229l-612 -615h756v553l-62 62h-82zM1336 1707h266l-204 -205h-265l-204 205h264l71 -71z" />
    <glyph glyph-name="uni1EB5" unicode="&#x1eb5;" horiz-adv-x="1228" 
d="M102 1024v-205h758l61 -61v-144h-614l-205 -204v-205l205 -205h819v819l-205 205h-819zM921 205h-553l-61 61v82l61 62h553v-205zM264 1323h264l72 72l71 -72h267l204 205h-264l-74 -71l-71 69l-264 2zM576 1206l-71 71h-264l204 -205h265l204 205h-266z" />
    <glyph glyph-name="uni1EB6" unicode="&#x1eb6;" 
d="M937 185h-205v-205h205v205zM1126 1434l-1024 -1024v-410h205v346l63 64h961v-410h205v1229l-205 205h-205zM1187 1229h82l62 -62v-553h-756zM1264 1636l-71 71h-264l204 -205h265l204 205h-266z" />
    <glyph glyph-name="uni1EB7" unicode="&#x1eb7;" horiz-adv-x="1228" 
d="M102 1024v-205h758l61 -61v-144h-614l-205 -204v-205l205 -205h819v819l-205 205h-819zM921 205h-553l-61 61v82l61 62h553v-205zM793 -69h-205v-205h205v205zM576 1206l-71 71h-264l204 -205h265l204 205h-266z" />
    <glyph glyph-name="uni1EB8" unicode="&#x1eb8;" 
d="M307 1434l-205 -205v-410l102 -102l-102 -103v-409l205 -205h1229v205h-1168l-61 61v287l61 61h1168v205h-1168l-61 62v286l61 62h1168v205h-1229zM985 -69h-205v-205h205v205z" />
    <glyph glyph-name="uni1EB9" unicode="&#x1eb9;" horiz-adv-x="1228" 
d="M102 819v-614l205 -205h819v205h-758l-61 61v144h819v409l-205 205h-614zM921 758v-144h-614v144l61 61h492zM733 -69h-205v-205h205v205z" />
    <glyph glyph-name="uni1EBA" unicode="&#x1eba;" 
d="M307 1434l-205 -205v-410l102 -102l-102 -103v-409l205 -205h1229v205h-1168l-61 61v287l61 61h1168v205h-1168l-61 62v286l61 62h1168v205h-1229zM858 1480v35l11 13h208l89 102v116l-89 101h-379v-134h315l11 -13v-31l-11 -13h-211l-76 -101v-75h132z" />
    <glyph glyph-name="uni1EBB" unicode="&#x1ebb;" horiz-adv-x="1228" 
d="M102 819v-614l205 -205h819v205h-758l-61 61v144h819v409l-205 205h-614zM921 758v-144h-614v144l61 61h492zM591 1052v35l11 13h208l89 102v116l-89 101h-379v-134h315l11 -13v-31l-11 -13h-211l-76 -101v-75h132z" />
    <glyph glyph-name="uni1EBC" unicode="&#x1ebc;" 
d="M307 1434l-205 -205v-410l102 -102l-102 -103v-409l205 -205h1229v205h-1168l-61 61v287l61 61h1168v205h-1168l-61 62v286l61 62h1168v205h-1229zM514 1522h264l72 72l71 -72h267l204 205h-264l-74 -71l-71 69l-264 2z" />
    <glyph glyph-name="uni1EBD" unicode="&#x1ebd;" horiz-adv-x="1228" 
d="M102 819v-614l205 -205h819v205h-758l-61 61v144h819v409l-205 205h-614zM921 758v-144h-614v144l61 61h492zM222 1085h264l72 72l71 -72h267l204 205h-264l-74 -71l-71 69l-264 2z" />
    <glyph glyph-name="uni1EBE" unicode="&#x1ebe;" 
d="M1402 1635l205 205h-265l-204 -205h264zM1536 1434h-1229l-205 -205v-410l102 -102l-102 -103v-409l205 -205h1229v205h-1168l-61 61v287l61 61h1168v205h-1168l-61 62v286l61 62h1168v205zM939 1532h266l-204 205h-265l-204 -205h264l71 72z" />
    <glyph glyph-name="uni1EBF" unicode="&#x1ebf;" horiz-adv-x="1228" 
d="M102 819v-614l205 -205h819v205h-758l-61 61v144h819v409l-205 205h-614zM921 758v-144h-614v144l61 61h492zM842 1209h266l205 205h-266zM683 1078h266l-204 205h-265l-204 -205h264l71 72z" />
    <glyph glyph-name="uni1EC0" unicode="&#x1ec0;" 
d="M1536 1434h-1229l-205 -205v-410l102 -102l-102 -103v-409l205 -205h1229v205h-1168l-61 61v287l61 61h1168v205h-1168l-61 62v286l61 62h1168v205zM1252 1815h-266l205 -205h266zM939 1532h266l-204 205h-265l-204 -205h264l71 72z" />
    <glyph glyph-name="uni1EC1" unicode="&#x1ec1;" horiz-adv-x="1228" 
d="M102 819v-614l205 -205h819v205h-758l-61 61v144h819v409l-205 205h-614zM921 758v-144h-614v144l61 61h492zM958 1391h-266l205 -205h266zM683 1078h266l-204 205h-265l-204 -205h264l71 72z" />
    <glyph glyph-name="uni1EC2" unicode="&#x1ec2;" 
d="M307 1434l-205 -205v-410l102 -102l-102 -103v-409l205 -205h1229v205h-1168l-61 61v287l61 61h1168v205h-1168l-61 62v286l61 62h1168v205h-1229zM939 1532h266l-204 205h-265l-204 -205h264l71 72zM1300 1609v35l11 13h208l89 102v116l-89 101h-379v-134h315l11 -13
v-31l-11 -13h-211l-76 -101v-75h132z" />
    <glyph glyph-name="uni1EC3" unicode="&#x1ec3;" horiz-adv-x="1228" 
d="M102 819v-614l205 -205h819v205h-758l-61 61v144h819v409l-205 205h-614zM921 758v-144h-614v144l61 61h492zM1012 1161v35l11 13h208l89 102v116l-89 101h-379v-134h315l11 -13v-31l-11 -13h-211l-76 -101v-75h132zM683 1078h266l-204 205h-265l-204 -205h264l71 72z
" />
    <glyph glyph-name="uni1EC4" unicode="&#x1ec4;" 
d="M307 1434l-205 -205v-410l102 -102l-102 -103v-409l205 -205h1229v205h-1168l-61 61v287l61 61h1168v205h-1168l-61 62v286l61 62h1168v205h-1229zM540 1788h264l72 72l71 -72h267l204 205h-264l-74 -71l-71 69l-264 2zM939 1532h266l-204 205h-265l-204 -205h264l71 72z
" />
    <glyph glyph-name="uni1EC5" unicode="&#x1ec5;" horiz-adv-x="1228" 
d="M102 819v-614l205 -205h819v205h-758l-61 61v144h819v409l-205 205h-614zM921 758v-144h-614v144l61 61h492zM329 1301h264l72 72l71 -72h267l204 205h-264l-74 -71l-71 69l-264 2zM683 1078h266l-204 205h-265l-204 -205h264l71 72z" />
    <glyph glyph-name="uni1EC6" unicode="&#x1ec6;" 
d="M307 1434l-205 -205v-410l102 -102l-102 -103v-409l205 -205h1229v205h-1168l-61 61v287l61 61h1168v205h-1168l-61 62v286l61 62h1168v205h-1229zM985 -69h-205v-205h205v205zM939 1532h266l-204 205h-265l-204 -205h264l71 72z" />
    <glyph glyph-name="uni1EC7" unicode="&#x1ec7;" horiz-adv-x="1228" 
d="M102 819v-614l205 -205h819v205h-758l-61 61v144h819v409l-205 205h-614zM921 758v-144h-614v144l61 61h492zM733 -69h-205v-205h205v205zM683 1078h266l-204 205h-265l-204 -205h264l71 72z" />
    <glyph glyph-name="uni1EC8" unicode="&#x1ec8;" horiz-adv-x="1228" 
d="M512 1229v-1024h-410v-205h1024v205h-410v1024h410v205h-1024v-205h410zM657 1480v35l11 13h208l89 102v116l-89 101h-379v-134h315l11 -13v-31l-11 -13h-211l-76 -101v-75h132z" />
    <glyph glyph-name="uni1EC9" unicode="&#x1ec9;" horiz-adv-x="409" 
d="M103 0h205v1024h-205v-1024zM228 1052v35l11 13h208l89 102v116l-89 101h-379v-134h315l11 -13v-31l-11 -13h-211l-76 -101v-75h132z" />
    <glyph glyph-name="uni1ECA" unicode="&#x1eca;" horiz-adv-x="1228" 
d="M512 1229v-1024h-410v-205h1024v205h-410v1024h410v205h-1024v-205h410zM719 -69h-205v-205h205v205z" />
    <glyph glyph-name="uni1ECB" unicode="&#x1ecb;" horiz-adv-x="409" 
d="M102 0h205v1024h-205v-1024zM312 -69h-205v-205h205v205z" />
    <glyph glyph-name="uni1ECC" unicode="&#x1ecc;" 
d="M1331 1434h-1024l-205 -205v-1024l205 -205h1024l205 205v1024zM1331 1167v-901l-62 -61h-901l-61 61v901l61 62h901zM922 -69h-205v-205h205v205z" />
    <glyph glyph-name="uni1ECD" unicode="&#x1ecd;" horiz-adv-x="1228" 
d="M307 1024l-205 -205v-614l205 -205h614l205 205v614l-205 205h-614zM921 266l-61 -61h-492l-61 61v492l61 61h492l61 -61v-492zM717 -69h-205v-205h205v205z" />
    <glyph glyph-name="uni1ECE" unicode="&#x1ece;" 
d="M1331 1434h-1024l-205 -205v-1024l205 -205h1024l205 205v1024zM1331 1167v-901l-62 -61h-901l-61 61v901l61 62h901zM811 1480v35l11 13h208l89 102v116l-89 101h-379v-134h315l11 -13v-31l-11 -13h-211l-76 -101v-75h132z" />
    <glyph glyph-name="uni1ECF" unicode="&#x1ecf;" horiz-adv-x="1228" 
d="M307 1024l-205 -205v-614l205 -205h614l205 205v614l-205 205h-614zM921 266l-61 -61h-492l-61 61v492l61 61h492l61 -61v-492zM570 1052v35l11 13h208l89 102v116l-89 101h-379v-134h315l11 -13v-31l-11 -13h-211l-76 -101v-75h132z" />
    <glyph glyph-name="uni1ED0" unicode="&#x1ed0;" 
d="M1331 1434h-1024l-205 -205v-1024l205 -205h1024l205 205v1024zM1331 1167v-901l-62 -61h-901l-61 61v901l61 62h901zM1359 1643l205 205h-265l-204 -205h264zM890 1532h266l-204 205h-265l-204 -205h264l71 72z" />
    <glyph glyph-name="uni1ED1" unicode="&#x1ed1;" horiz-adv-x="1228" 
d="M307 1024l-205 -205v-614l205 -205h614l205 205v614l-205 205h-614zM921 266l-61 -61h-492l-61 61v492l61 61h492l61 -61v-492zM852 1210h266l205 205h-266zM685 1078h266l-204 205h-265l-204 -205h264l71 72z" />
    <glyph glyph-name="uni1ED2" unicode="&#x1ed2;" 
d="M1331 1434h-1024l-205 -205v-1024l205 -205h1024l205 205v1024zM1331 1167v-901l-62 -61h-901l-61 61v901l61 62h901zM1210 1813h-266l205 -205h266zM890 1532h266l-204 205h-265l-204 -205h264l71 72z" />
    <glyph glyph-name="uni1ED3" unicode="&#x1ed3;" horiz-adv-x="1228" 
d="M307 1024l-205 -205v-614l205 -205h614l205 205v614l-205 205h-614zM921 266l-61 -61h-492l-61 61v492l61 61h492l61 -61v-492zM973 1385h-266l205 -205h266zM685 1078h266l-204 205h-265l-204 -205h264l71 72z" />
    <glyph glyph-name="uni1ED4" unicode="&#x1ed4;" 
d="M1331 1434h-1024l-205 -205v-1024l205 -205h1024l205 205v1024zM1331 1167v-901l-62 -61h-901l-61 61v901l61 62h901zM890 1532h266l-204 205h-265l-204 -205h264l71 72zM1256 1600v35l11 13h208l89 102v116l-89 101h-379v-134h315l11 -13v-31l-11 -13h-211l-76 -101v-75
h132z" />
    <glyph glyph-name="uni1ED5" unicode="&#x1ed5;" horiz-adv-x="1228" 
d="M307 1024l-205 -205v-614l205 -205h614l205 205v614l-205 205h-614zM921 266l-61 -61h-492l-61 61v492l61 61h492l61 -61v-492zM1026 1168v35l11 13h208l89 102v116l-89 101h-379v-134h315l11 -13v-31l-11 -13h-211l-76 -101v-75h132zM685 1078h266l-204 205h-265
l-204 -205h264l71 72z" />
    <glyph glyph-name="uni1ED6" unicode="&#x1ed6;" 
d="M1331 1434h-1024l-205 -205v-1024l205 -205h1024l205 205v1024zM1331 1167v-901l-62 -61h-901l-61 61v901l61 62h901zM523 1771h264l72 72l71 -72h267l204 205h-264l-74 -71l-71 69l-264 2zM890 1532h266l-204 205h-265l-204 -205h264l71 72z" />
    <glyph glyph-name="uni1ED7" unicode="&#x1ed7;" horiz-adv-x="1228" 
d="M307 1024l-205 -205v-614l205 -205h614l205 205v614l-205 205h-614zM921 266l-61 -61h-492l-61 61v492l61 61h492l61 -61v-492zM284 1314h264l72 72l71 -72h267l204 205h-264l-74 -71l-71 69l-264 2zM685 1078h266l-204 205h-265l-204 -205h264l71 72z" />
    <glyph glyph-name="uni1ED8" unicode="&#x1ed8;" 
d="M1331 1434h-1024l-205 -205v-1024l205 -205h1024l205 205v1024zM1331 1167v-901l-62 -61h-901l-61 61v901l61 62h901zM922 -69h-205v-205h205v205zM890 1532h266l-204 205h-265l-204 -205h264l71 72z" />
    <glyph glyph-name="uni1ED9" unicode="&#x1ed9;" horiz-adv-x="1228" 
d="M307 1024l-205 -205v-614l205 -205h614l205 205v614l-205 205h-614zM921 266l-61 -61h-492l-61 61v492l61 61h492l61 -61v-492zM717 -69h-205v-205h205v205zM685 1078h266l-204 205h-265l-204 -205h264l71 72z" />
    <glyph glyph-name="uni1EDA" unicode="&#x1eda;" 
d="M1331 1167v-901l-62 -61h-901l-61 61v901l61 62h901zM889 1532l205 205h-265l-204 -205h264zM1591 1196v348h-205v-165l-55 55h-1024l-205 -205v-1024l205 -205h1024l205 205v935z" />
    <glyph glyph-name="uni1EDB" unicode="&#x1edb;" horiz-adv-x="1228" 
d="M921 266l-61 -61h-492l-61 61v492l61 61h492l61 -61v-492zM449 1074h266l205 205h-266zM1187 748v348h-205v-132l-60 60h-615l-205 -205v-614l205 -205h615l204 205v481z" />
    <glyph glyph-name="uni1EDC" unicode="&#x1edc;" 
d="M1331 1167v-901l-62 -61h-901l-61 61v901l61 62h901zM794 1733h-266l205 -205h266zM1591 1196v348h-205v-165l-55 55h-1024l-205 -205v-1024l205 -205h1024l205 205v935z" />
    <glyph glyph-name="uni1EDD" unicode="&#x1edd;" horiz-adv-x="1228" 
d="M921 266l-61 -61h-492l-61 61v492l61 61h492l61 -61v-492zM544 1279h-266l205 -205h266zM1187 748v348h-205v-132l-60 60h-615l-205 -205v-614l205 -205h615l204 205v481z" />
    <glyph glyph-name="uni1EDE" unicode="&#x1ede;" 
d="M1331 1167v-901l-62 -61h-901l-61 61v901l61 62h901zM811 1480v35l11 13h208l89 102v116l-89 101h-379v-134h315l11 -13v-31l-11 -13h-211l-76 -101v-75h132zM1591 1196v348h-205v-165l-55 55h-1024l-205 -205v-1024l205 -205h1024l205 205v935z" />
    <glyph glyph-name="uni1EDF" unicode="&#x1edf;" horiz-adv-x="1228" 
d="M921 266l-61 -61h-492l-61 61v492l61 61h492l61 -61v-492zM570 1052v35l11 13h208l89 102v116l-89 101h-379v-134h315l11 -13v-31l-11 -13h-211l-76 -101v-75h132zM1187 748v348h-205v-132l-60 60h-615l-205 -205v-614l205 -205h615l204 205v481z" />
    <glyph glyph-name="uni1EE0" unicode="&#x1ee0;" 
d="M1331 1167v-901l-62 -61h-901l-61 61v901l61 62h901zM437 1522h264l72 72l71 -72h267l204 205h-264l-74 -71l-71 69l-264 2zM1591 1196v348h-205v-165l-55 55h-1024l-205 -205v-1024l205 -205h1024l205 205v935z" />
    <glyph glyph-name="uni1EE1" unicode="&#x1ee1;" horiz-adv-x="1228" 
d="M921 266l-61 -61h-492l-61 61v492l61 61h492l61 -61v-492zM232 1075h264l72 72l71 -72h267l204 205h-264l-74 -71l-71 69l-264 2zM1187 748v348h-205v-132l-60 60h-615l-205 -205v-614l205 -205h615l204 205v481z" />
    <glyph glyph-name="uni1EE2" unicode="&#x1ee2;" 
d="M1331 1167v-901l-62 -61h-901l-61 61v901l61 62h901zM922 -69h-205v-205h205v205zM1591 1196v348h-205v-165l-55 55h-1024l-205 -205v-1024l205 -205h1024l205 205v935z" />
    <glyph glyph-name="uni1EE3" unicode="&#x1ee3;" horiz-adv-x="1228" 
d="M921 266l-61 -61h-492l-61 61v492l61 61h492l61 -61v-492zM717 -69h-205v-205h205v205zM1187 748v348h-205v-132l-60 60h-615l-205 -205v-614l205 -205h615l204 205v481z" />
    <glyph glyph-name="uni1EE4" unicode="&#x1ee4;" 
d="M102 205l205 -205h1024l205 205v1229h-205v-1168l-62 -61h-901l-61 61v1168h-205v-1229zM921 -69h-205v-205h205v205z" />
    <glyph glyph-name="uni1EE5" unicode="&#x1ee5;" horiz-adv-x="1228" 
d="M102 1024v-819l205 -205h614l205 205v819h-205v-758l-61 -61h-492l-61 61v758h-205zM717 -69h-205v-205h205v205z" />
    <glyph glyph-name="uni1EE6" unicode="&#x1ee6;" 
d="M102 205l205 -205h1024l205 205v1229h-205v-1168l-62 -61h-901l-61 61v1168h-205v-1229zM811 1480v35l11 13h208l89 102v116l-89 101h-379v-134h315l11 -13v-31l-11 -13h-211l-76 -101v-75h132z" />
    <glyph glyph-name="uni1EE7" unicode="&#x1ee7;" horiz-adv-x="1228" 
d="M102 1024v-819l205 -205h614l205 205v819h-205v-758l-61 -61h-492l-61 61v758h-205zM580 1042v35l11 13h208l89 102v116l-89 101h-379v-134h315l11 -13v-31l-11 -13h-211l-76 -101v-75h132z" />
    <glyph glyph-name="uni1EE8" unicode="&#x1ee8;" 
d="M889 1532l205 205h-265l-204 -205h264zM1539 1134l61 62v348h-205v-110h-64v-1168l-62 -61h-901l-61 61v1168h-205v-1229l205 -205h1024l205 205v929h3z" />
    <glyph glyph-name="uni1EE9" unicode="&#x1ee9;" horiz-adv-x="1228" 
d="M454 1074h266l205 205h-266zM1187 748v348h-205v-72h-61v-758l-61 -61h-492l-61 61v758h-205v-819l205 -205h614l205 205v481z" />
    <glyph glyph-name="uni1EEA" unicode="&#x1eea;" 
d="M794 1733h-266l205 -205h266zM1539 1134l61 62v348h-205v-110h-64v-1168l-62 -61h-901l-61 61v1168h-205v-1229l205 -205h1024l205 205v929h3z" />
    <glyph glyph-name="uni1EEB" unicode="&#x1eeb;" horiz-adv-x="1228" 
d="M584 1279h-266l205 -205h266zM1187 748v348h-205v-72h-61v-758l-61 -61h-492l-61 61v758h-205v-819l205 -205h614l205 205v481z" />
    <glyph glyph-name="uni1EEC" unicode="&#x1eec;" 
d="M811 1480v35l11 13h208l89 102v116l-89 101h-379v-134h315l11 -13v-31l-11 -13h-211l-76 -101v-75h132zM1539 1134l61 62v348h-205v-110h-64v-1168l-62 -61h-901l-61 61v1168h-205v-1229l205 -205h1024l205 205v929h3z" />
    <glyph glyph-name="uni1EED" unicode="&#x1eed;" horiz-adv-x="1228" 
d="M580 1042v35l11 13h208l89 102v116l-89 101h-379v-134h315l11 -13v-31l-11 -13h-211l-76 -101v-75h132zM1187 748v348h-205v-72h-61v-758l-61 -61h-492l-61 61v758h-205v-819l205 -205h614l205 205v481z" />
    <glyph glyph-name="uni1EEE" unicode="&#x1eee;" 
d="M472 1522h264l72 72l71 -72h267l204 205h-264l-74 -71l-71 69l-264 2zM1540 1134l61 62v348h-205v-110h-64v-1168l-62 -61h-901l-61 61v1168h-205v-1229l205 -205h1024l205 205v929h3z" />
    <glyph glyph-name="uni1EEF" unicode="&#x1eef;" horiz-adv-x="1228" 
d="M232 1075h264l72 72l71 -72h267l204 205h-264l-74 -71l-71 69l-264 2zM1187 748v348h-205v-72h-61v-758l-61 -61h-492l-61 61v758h-205v-819l205 -205h614l205 205v481z" />
    <glyph glyph-name="uni1EF0" unicode="&#x1ef0;" 
d="M921 -69h-205v-205h205v205zM1539 1134l61 62v348h-205v-110h-64v-1168l-62 -61h-901l-61 61v1168h-205v-1229l205 -205h1024l205 205v929h3z" />
    <glyph glyph-name="uni1EF1" unicode="&#x1ef1;" horiz-adv-x="1228" 
d="M717 -69h-205v-205h205v205zM1187 748v348h-205v-72h-61v-758l-61 -61h-492l-61 61v758h-205v-819l205 -205h614l205 205v481z" />
    <glyph glyph-name="Ygrave" unicode="&#x1ef2;" 
d="M102 1434v-615l205 -205h409v-614h205v614h410l205 205v615h-205v-553l-62 -62h-901l-61 62v553h-205zM794 1733h-266l205 -205h266z" />
    <glyph glyph-name="ygrave" unicode="&#x1ef3;" horiz-adv-x="1228" 
d="M921 1024v-819h-553l-61 61v758h-205v-819l205 -205h614v-143l-61 -62h-758v-205h819l205 205v1229h-205zM584 1279h-266l205 -205h266z" />
    <glyph glyph-name="uni1EF4" unicode="&#x1ef4;" 
d="M102 1434v-615l205 -205h409v-614h205v614h410l205 205v615h-205v-553l-62 -62h-901l-61 62v553h-205zM921 -69h-205v-205h205v205z" />
    <glyph glyph-name="uni1EF5" unicode="&#x1ef5;" horiz-adv-x="1228" 
d="M921 1024v-819h-553l-61 61v758h-205v-819l205 -205h614v-143l-61 -62h-758v-205h819l205 205v1229h-205zM716 -469h-205v-205h205v205z" />
    <glyph glyph-name="uni1EF6" unicode="&#x1ef6;" 
d="M102 1434v-615l205 -205h409v-614h205v614h410l205 205v615h-205v-553l-62 -62h-901l-61 62v553h-205zM854 1480v35l11 13h208l89 102v116l-89 101h-379v-134h315l11 -13v-31l-11 -13h-211l-76 -101v-75h132z" />
    <glyph glyph-name="uni1EF7" unicode="&#x1ef7;" horiz-adv-x="1228" 
d="M921 1024v-819h-553l-61 61v758h-205v-819l205 -205h614v-143l-61 -62h-758v-205h819l205 205v1229h-205zM580 1042v35l11 13h208l89 102v116l-89 101h-379v-134h315l11 -13v-31l-11 -13h-211l-76 -101v-75h132z" />
    <glyph glyph-name="uni1EF8" unicode="&#x1ef8;" 
d="M102 1434v-615l205 -205h409v-614h205v614h410l205 205v615h-205v-553l-62 -62h-901l-61 62v553h-205zM471 1522h264l72 72l71 -72h267l204 205h-264l-74 -71l-71 69l-264 2z" />
    <glyph glyph-name="uni1EF9" unicode="&#x1ef9;" horiz-adv-x="1228" 
d="M921 1024v-819h-553l-61 61v758h-205v-819l205 -205h614v-143l-61 -62h-758v-205h819l205 205v1229h-205zM232 1075h264l72 72l71 -72h267l204 205h-264l-74 -71l-71 69l-264 2z" />
    <glyph glyph-name="quoteleft" unicode="&#x2018;" horiz-adv-x="488" 
d="M163 1024h144v410h-205v-349z" />
    <glyph glyph-name="quoteright" unicode="&#x2019;" horiz-adv-x="480" 
d="M307 1085v349h-205v-410h143z" />
    <glyph glyph-name="quotedblleft" unicode="&#x201c;" horiz-adv-x="716" 
d="M163 1024h144v410h-205v-349zM471 1024h143v410h-205v-349z" />
    <glyph glyph-name="quotedblright" unicode="&#x201d;" horiz-adv-x="716" 
d="M614 1085v349h-205v-410h144zM307 1085v349h-205v-410h143z" />
    <glyph glyph-name="ellipsis" unicode="&#x2026;" horiz-adv-x="1036" 
d="M102 0v205h205v-205h-205zM409 0v205h204v-205h-204zM733 0v205h204v-205h-204z" />
    <glyph glyph-name="Eth" horiz-adv-x="1516" 
 />
    <glyph glyph-name="ugrave" horiz-adv-x="582" 
 />
    <glyph glyph-name="uacute" horiz-adv-x="580" 
 />
    <glyph glyph-name="yacute" horiz-adv-x="629" 
 />
  </font>
</defs>
</svg>
