<?xml version="1.0" standalone="no"?>
<!DOCTYPE svg PUBLIC "-//W3C//DTD SVG 1.1//EN" "http://www.w3.org/Graphics/SVG/1.1/DTD/svg11.dtd" >
<svg>
<metadata>
Created by FontForge 20090914 at Tue Apr  4 03:17:31 2017
 By www-data
(c) Copyright 2005 by Tong Duc Thinh. All Rights Reserved
</metadata>
<defs>
<font id="SFUMatrix" horiz-adv-x="0" >
  <font-face 
    font-family="SFU Matrix"
    font-weight="400"
    font-stretch="normal"
    units-per-em="1000"
    panose-1="0 0 4 0 0 0 0 0 0 0"
    ascent="800"
    descent="-200"
    x-height="415"
    cap-height="590"
    bbox="-83 -178 975 1114"
    underline-thickness="42"
    underline-position="-62"
    unicode-range="U+0020-U+F002"
  />
<missing-glyph horiz-adv-x="500" 
d="M63 0v797h375v-797h-375zM125 63h250v672h-250v-672z" />
    <glyph glyph-name=".notdef" horiz-adv-x="500" 
d="M63 0v797h375v-797h-375zM125 63h250v672h-250v-672z" />
    <glyph glyph-name="space" unicode=" " horiz-adv-x="250" 
 />
    <glyph glyph-name="exclam" unicode="!" horiz-adv-x="254" 
d="M167 38c0 -12.667 -4.5 -23.5 -13.5 -32.5s-19.833 -13.5 -32.5 -13.5s-23.334 4.5 -32.001 13.5s-13 19.833 -13 32.5s4.33301 23.334 13 32.001s19.334 13 32.001 13s23.5 -4.33301 32.5 -13s13.5 -19.334 13.5 -32.001zM97 139l-29 484h106l-29 -484h-48z" />
    <glyph glyph-name="quotedbl" unicode="&#x22;" horiz-adv-x="339" 
d="M143 573l-45 -173.002l-44 173c-0.666992 3.33301 -1 6.33301 -1 9c0 12 4.5 22.667 13.5 32s19.5 14 31.5 14s22.667 -4.66699 32 -14s14 -19.666 14 -30.999c0 -3.33301 -0.333008 -6.66602 -1 -9.99902zM285 571.998l-45 -174l-44 174
c-0.666992 3.33301 -1 6.66602 -1 9.99902c0 12 4.5 22.667 13.5 32s19.5 14 31.5 14s22.667 -4.66699 32 -14s14 -20 14 -32c0 -3.33301 -0.333008 -6.66602 -1 -9.99902z" />
    <glyph glyph-name="numbersign" unicode="#" horiz-adv-x="300" 
d="M78 238h-36l18 91h-43l14 57h41l16 89h-42l14 57h40l18 91h36l-18 -91h60l18 91h36l-18 -91h43l-14 -57h-41l-17 -89h43l-14 -57h-40l-19 -91h-35l18 91h-60zM108 386h60l16 89h-60z" />
    <glyph glyph-name="dollar" unicode="$" horiz-adv-x="354" 
d="M155 69h44v-111h-44v111zM155 673h44v-110h-44v110zM329 236c0 -39.333 -12.335 -72.668 -37.002 -100.001c-27.333 -30 -63.666 -45 -108.999 -45c-14.667 0 -28.667 1.66699 -42 5l-122 30l64 82l61 -73c14.667 -7.33301 26.667 -11 36 -11
c20.667 0 38.334 7.66699 53.001 23s22 33.333 22 54c0 20 -7.66699 34 -23 42l-146 78c-32.667 17.333 -49 47 -49 89c0 35.333 11.333 65.333 34 90c25.333 27.333 59.333 41 102 41c14 0 27.333 -1.66699 40 -5l113 -30l-59 -78l-57 69c-10 6.66699 -19.333 10 -28 10
c-16 0 -31.5 -6 -46.5 -18s-22.5 -26 -22.5 -42c0 -21.333 10 -37.666 30 -48.999l142 -80c29.333 -16.667 44 -44 44 -82z" />
    <glyph glyph-name="percent" unicode="%" horiz-adv-x="458" 
d="M226 112c0 31.333 10.333 58.5 31 81.5s46 34.5 76 34.5c30.667 0 56.334 -11.5 77.001 -34.5s31 -50.167 31 -81.5s-10.333 -58.5 -31 -81.5s-46.334 -34.5 -77.001 -34.5c-30 0 -55.333 11.5 -76 34.5s-31 50.167 -31 81.5zM125 358
c-30.667 0 -56.166 11.501 -76.499 34.501s-30.5 50.167 -30.5 81.5c0 30.667 10.667 57.667 32 81s46.333 35 75 35h274v-95l-1 -2l-290 -448v-45h-36v108l290 446h-160c20.667 -22.667 31 -49.334 31 -80.001c0 -31.333 -10.333 -58.5 -31 -81.5
s-46.334 -34.5 -77.001 -34.5zM125.001 382.001c34 0 51 30.667 51 92c0 62 -17 93 -51 93s-51 -31 -51 -93c0 -61.333 17 -92 51 -92zM333.001 19.001c34 0 51 31 51 93c0 61.333 -17 92 -51 92c-33.333 0 -50 -30.667 -50 -92c0 -62 16.667 -93 50 -93z" />
    <glyph glyph-name="ampersand" unicode="&#x26;" horiz-adv-x="500" 
d="M167 447c0 -24.667 7.66602 -48.3369 22.999 -71.0039c18 -27.333 43.333 -43.333 76 -48v-28c-36.667 0 -68 -12.833 -94 -38.5s-39 -56.5 -39 -92.5s11.833 -66.833 35.5 -92.5s52.167 -38.5 85.5 -38.5c36.667 0 66.334 12.667 89.001 38v247h136l-46 -46v-238
c-28 -19.333 -56.667 -32 -86 -38c-22.667 -5.33301 -53.667 -8 -93 -8c-55.333 0 -105.333 15.333 -150 46c-47.333 32.667 -71 72.334 -71 119.001c0 38.667 11.167 72.334 33.5 101.001s51.166 48.334 86.499 59.001c-54.667 26 -82 69.333 -82 130
c0 43.333 15 78.333 45 105c32.667 29.333 78.667 44 138 44c60.667 0 110.334 -11.667 149.001 -35v-110l-80 81c-16 16 -39 24 -69 24c-24.667 0 -46 -13.333 -64 -40c-15.333 -23.333 -23 -46.666 -23 -69.999z" />
    <glyph glyph-name="quotesingle" unicode="'" horiz-adv-x="198" 
d="M143 573l-45 -173.002l-44 173c-0.666992 3.33301 -1 6.33301 -1 9c0 12 4.5 22.667 13.5 32s19.5 14 31.5 14s22.667 -4.66699 32 -14s14 -19.666 14 -30.999c0 -3.33301 -0.333008 -6.66602 -1 -9.99902z" />
    <glyph glyph-name="parenleft" unicode="(" horiz-adv-x="258" 
d="M238 675l15 -26c-42.667 -58.667 -72.834 -114.5 -90.501 -167.5s-26.5 -115.167 -26.5 -186.5s8.83301 -133.5 26.5 -186.5s47.834 -108.833 90.501 -167.5l-15 -26c-66 54.667 -114.333 111 -145 169c-34 62.667 -51 133 -51 211s17 148.333 51 211
c30.667 58 79 114.333 145 169z" />
    <glyph glyph-name="parenright" unicode=")" horiz-adv-x="258" 
d="M222 295c0 -78 -17 -148.333 -51 -211c-30.667 -58 -79 -114.333 -145 -169l-15 26c42.667 58.667 72.834 114.5 90.501 167.5s26.5 115.167 26.5 186.5s-8.83301 133.5 -26.5 186.5s-47.834 108.833 -90.501 167.5l15 26c66 -54.667 114.333 -111 145 -169
c34 -62.667 51 -133 51 -211z" />
    <glyph glyph-name="asterisk" unicode="*" horiz-adv-x="300" 
d="M33 540l25 51l75 -56l-7 88h48l-6 -88l75 56l24 -51l-90 -34l90 -35l-24 -51l-75 56l6 -88h-48l7 88l-75 -56l-25 51l90 35z" />
    <glyph glyph-name="plus" unicode="+" horiz-adv-x="292" 
d="M38 204v57h80v79h56v-79h79v-57h-79v-79h-56v79h-80z" />
    <glyph glyph-name="comma" unicode="," horiz-adv-x="233" 
d="M146 21l-88.001 -165.001v182c0 12.667 4.33301 23.334 13 32.001s19.334 13 32.001 13c13.333 0 24.5 -4.66699 33.5 -14s13.5 -20 13.5 -32c0 -6 -1.33301 -11.333 -4 -16z" />
    <glyph glyph-name="hyphen" unicode="-" horiz-adv-x="292" 
d="M38 204v57h215v-57h-215z" />
    <glyph glyph-name="hyphen" unicode="&#x2010;" horiz-adv-x="292" 
d="M38 204v57h215v-57h-215z" />
    <glyph glyph-name="period" unicode="." horiz-adv-x="233" 
d="M103 -8c-13.333 0 -24.833 4.83301 -34.5 14.5s-14.5 21.5 -14.5 35.5c0 13.333 4.83301 25 14.5 35s21.167 15 34.5 15c14 0 25.833 -5 35.5 -15s14.5 -21.667 14.5 -35c0 -14 -4.83301 -25.833 -14.5 -35.5s-21.5 -14.5 -35.5 -14.5z" />
    <glyph glyph-name="slash" unicode="/" horiz-adv-x="333" 
d="M16 0l252 632h62l-252 -632h-62z" />
    <glyph glyph-name="zero" unicode="0" horiz-adv-x="490" 
d="M33 212c0 60.667 20.5 113.167 61.5 157.5s91.167 66.5 150.5 66.5s109.5 -22.167 150.5 -66.5s61.5 -96.833 61.5 -157.5s-20.5 -113.334 -61.5 -158.001s-91.167 -67 -150.5 -67s-109.5 22.333 -150.5 67s-61.5 97.334 -61.5 158.001zM245 23c67.333 0 101 63 101 189
c0 125.333 -33.667 188 -101 188s-101 -62.667 -101 -188c0 -126 33.667 -189 101 -189z" />
    <glyph glyph-name="one" unicode="1" horiz-adv-x="263" 
d="M221 415l-47 -47v-321l47 -47h-183l46 47v321l-46 47h183z" />
    <glyph glyph-name="two" unicode="2" horiz-adv-x="383" 
d="M53 362l75 51.999c22 15.333 46.333 23 73 23c30.667 0 58 -8.66699 82 -26c30 -21.333 45 -51.333 45 -90s-16.667 -71.667 -50 -99l-185 -153h201l47 47v-116h-319v47l188 180c20.667 20 31 42.333 31 67c0 18.667 -7 36.334 -21 53.001c-16 19.333 -36.667 29 -62 29
c-12 0 -22.333 -2.66699 -31 -8l-49 -31z" />
    <glyph glyph-name="three" unicode="3" horiz-adv-x="363" 
d="M97 136l0.000976562 27c33.333 0 61.666 12.667 84.999 38s35 52.666 35 81.999c0 26 -10.667 48.833 -32 68.5s-46.333 29.5 -75 29.5c-21.333 0 -40.333 -5 -57 -15l-25 25l25 15c28 16.667 60 25 96 25c47.333 0 85.833 -12.333 115.5 -37s44.5 -56 44.5 -94
c0 -32.667 -9.33301 -62.334 -28 -89.001c-20 -29.333 -47 -48.666 -81 -57.999c37.333 -8 68 -25 92 -51s36 -57.333 36 -94c0 -59.333 -27.333 -104.666 -82 -135.999c-45.333 -26 -102.333 -39 -171 -39h-45v36h45c41.333 0 77.5 13.333 108.5 40s46.5 59.667 46.5 99
c0 35.333 -13.5 65.5 -40.5 90.5s-57.833 37.5 -92.5 37.5z" />
    <glyph glyph-name="four" unicode="4" horiz-adv-x="404" 
d="M213 -167v167h-208v24l273 404h25v-380h63v-48h-63v-167h-90zM213 48v212l-145 -212h145z" />
    <glyph glyph-name="five" unicode="5" horiz-adv-x="388" 
d="M170 182c53.333 0 97.667 -11.333 133 -34c38.667 -25.333 58 -59 58 -101c0 -54 -34 -103.667 -102 -149c-64.667 -43.333 -128.667 -65 -192 -65h-24v36h24c44.667 0 88.167 18.667 130.5 56s63.5 73.333 63.5 108c0 26.667 -10.333 46.667 -31 60s-47 20 -79 20h-100
v302h292l-45 -90h-207v-143h79z" />
    <glyph glyph-name="six" unicode="6" horiz-adv-x="467" 
d="M263 365c45.333 0 85 -17.999 119 -53.999s51 -79.333 51 -130c0 -52.667 -19.833 -97.334 -59.5 -134.001s-83.5 -55 -131.5 -55c-65.333 0 -116 22 -152 66c-34.667 42 -52 98.667 -52 170c0 92.667 23.667 174.667 71 246c54.667 81.333 127.667 123 219 125l10 -26
c-18 -4.66699 -36 -9 -54 -13c-30.667 -12 -56.667 -33.333 -78 -64c-29.333 -42.667 -51.333 -103.667 -66 -183c32 34.667 73 52 123 52zM335 178.001c0 94.667 -34.333 142 -103 142c-26.667 0 -49 -8 -67 -24c-23.333 -20.667 -35 -51 -35 -91
c0 -51.333 8.66699 -92.666 26 -123.999c19.333 -35.333 48 -53 86 -53c27.333 0 50 15.667 68 47c16.667 29.333 25 63.666 25 102.999z" />
    <glyph glyph-name="seven" unicode="7" horiz-adv-x="367" 
d="M13 278v137h342l-189 -538v-44h-93l210 492h-223z" />
    <glyph glyph-name="eight" unicode="8" horiz-adv-x="465" 
d="M333 317c66 -31.333 99.002 -84.332 99.002 -158.999c0 -48.667 -20.667 -89 -62 -121c-38.667 -30 -84.334 -45 -137.001 -45s-98.334 15 -137.001 45c-42 32 -63 72.333 -63 121c0 75.333 33 127.666 99 156.999c-52 27.333 -78 68 -78 122
c0 52.667 18.333 93.334 55 122.001c32 26 73.333 39 124 39c50 0 91.333 -13 124 -39c36 -28.667 54 -69.334 54 -122.001c0 -54.667 -26 -94.667 -78 -120zM128.002 158.001c0 -34.667 9.66504 -65 28.998 -91s44.666 -39 75.999 -39c30.667 0 56.334 13.333 77.001 40
c18.667 25.333 28 55.333 28 90c0 35.333 -9.66699 66.5 -29 93.5s-44.666 40.5 -75.999 40.5s-56.666 -13.5 -75.999 -40.5s-29 -58.167 -29 -93.5zM317 437.001c0 35.333 -7.16992 65.166 -21.5029 89.499s-35.166 36.5 -62.499 36.5s-48.333 -12.167 -63 -36.5
s-22 -54.166 -22 -89.499c0 -26.667 7.66699 -51 23 -73c16.667 -24 37.334 -36 62.001 -36s45.334 12 62.001 36c14.667 22 22 46.333 22 73z" />
    <glyph glyph-name="nine" unicode="9" horiz-adv-x="467" 
d="M204 63c-45.333 0 -85.168 17.834 -119.501 53.501s-51.5 79.167 -51.5 130.5c0 52.667 20.667 97.667 62 135c38.667 36 82 54 130 54c64.667 0 115.334 -22 152.001 -66c34.667 -42.667 52 -99.334 52 -170.001c0 -93.333 -23.667 -175.333 -71 -246
c-54.667 -82 -127.667 -124 -219 -126l-10 27c18 4.66699 36 9 54 13c30.667 11.333 56.667 32.666 78 63.999c29.333 42.667 51.333 103.334 66 182.001c-31.333 -34 -72.333 -51 -123 -51zM131.998 249.001c0 -94 34.3311 -140.999 102.998 -140.999
c26.667 0 49.334 8.33301 68.001 25c22.667 20 34 50 34 90c0 51.333 -8.66699 92.666 -26 123.999c-19.333 35.333 -48 53 -86 53c-27.333 0 -49.666 -15.167 -66.999 -45.5s-26 -65.5 -26 -105.5z" />
    <glyph glyph-name="colon" unicode=":" horiz-adv-x="233" 
d="M103 -8c-13.333 0 -24.833 4.83301 -34.5 14.5s-14.5 21.5 -14.5 35.5c0 13.333 4.83301 25 14.5 35s21.167 15 34.5 15c14 0 25.833 -5 35.5 -15s14.5 -21.667 14.5 -35c0 -14 -4.83301 -25.833 -14.5 -35.5s-21.5 -14.5 -35.5 -14.5zM103 242
c-13.333 0 -24.833 4.83301 -34.5 14.5s-14.5 21.5 -14.5 35.5c0 13.333 4.83301 25 14.5 35s21.167 15 34.5 15c14 0 25.833 -5 35.5 -15s14.5 -21.667 14.5 -35c0 -14 -4.83301 -25.833 -14.5 -35.5s-21.5 -14.5 -35.5 -14.5z" />
    <glyph glyph-name="semicolon" unicode=";" horiz-adv-x="233" 
d="M146 21l-88.001 -165.001v182c0 12.667 4.33301 23.334 13 32.001s19.334 13 32.001 13c13.333 0 24.5 -4.66699 33.5 -14s13.5 -20 13.5 -32c0 -6 -1.33301 -11.333 -4 -16zM102.999 241.999c-13.333 0 -24.833 4.83301 -34.5 14.5s-14.5 21.5 -14.5 35.5
c0 13.333 4.83301 25 14.5 35s21.167 15 34.5 15c14 0 25.833 -5 35.5 -15s14.5 -21.667 14.5 -35c0 -14 -4.83301 -25.833 -14.5 -35.5s-21.5 -14.5 -35.5 -14.5z" />
    <glyph glyph-name="less" unicode="&#x3c;" horiz-adv-x="339" 
d="M233 628c12.667 0 23.333 -4.5 32 -13.5s13 -19.833 13 -32.5v-182l-87 165c-2.66699 5.33301 -4 11 -4 17c0 11.333 4.5 21.833 13.5 31.5s19.833 14.5 32.5 14.5zM91.999 628c12.667 0 23.333 -4.33301 32 -13s13 -19 13 -31v-181l-88 165
c-2.66699 4.66699 -4 10 -4 16c0 11.333 4.5 21.5 13.5 30.5s20.167 13.5 33.5 13.5z" />
    <glyph glyph-name="equal" unicode="=" horiz-adv-x="292" 
d="M38 261v57h215v-57h-215zM38 148v56h215v-56h-215z" />
    <glyph glyph-name="greater" unicode="&#x3e;" horiz-adv-x="339" 
d="M148 565l-87.001 -165v182c0 12.667 4.33301 23.5 13 32.5s19.334 13.5 32.001 13.5s23.5 -4.83301 32.5 -14.5s13.5 -20.167 13.5 -31.5c0 -6 -1.33301 -11.667 -4 -17zM289.999 568l-87.001 -165v181c0 12 4.33301 22.333 13 31s19.334 13 32.001 13
s23.5 -4.5 32.5 -13.5s13.5 -19.167 13.5 -30.5c0 -6 -1.33301 -11.333 -4 -16z" />
    <glyph glyph-name="question" unicode="?" horiz-adv-x="400" 
d="M62 506l-58.998 99.999l116 22c24.667 4.66699 48.667 7 72 7c63.333 0 111.666 -20.667 144.999 -62c26.667 -32.667 40 -70.667 40 -114c0 -24 -9.33301 -49 -28 -75l-166 -191v-54h-36v123l101 126c20.667 31.333 31 58.333 31 81c0 32.667 -12.333 60.334 -37 83.001
s-51.334 34 -80.001 34c-13.333 0 -26 -2.33301 -38 -7zM216.002 37.999c0 -12.667 -4.5 -23.5 -13.5 -32.5s-19.833 -13.5 -32.5 -13.5s-23.334 4.5 -32.001 13.5s-13 19.833 -13 32.5s4.33301 23.334 13 32.001s19.334 13 32.001 13s23.5 -4.33301 32.5 -13
s13.5 -19.334 13.5 -32.001z" />
    <glyph glyph-name="at" unicode="@" horiz-adv-x="625" 
d="M303 -9l-54 55c-32 -36.667 -70.667 -55 -116 -55c-22 0 -41 10 -57 30c-18 21.333 -27 50 -27 86c0 52 19.333 101.5 58 148.5s78.334 70.5 119.001 70.5c40 0 67.667 -17.667 83 -53l80 53l-82 -304c32 9.33301 64.667 35.333 98 78c38.667 48 58 96.667 58 146
c0 64 -23.667 112.667 -71 146c-34.667 24.667 -72.334 37 -113.001 37c-57.333 0 -115.333 -21 -174 -63l-18 13c73.333 60.667 148 91 224 91c52 0 101.333 -14.667 148 -44c62 -40 93 -96.667 93 -170c0 -46.667 -17.333 -92 -52 -136c-28.667 -36 -64.667 -67 -108 -93
c-38 -23.333 -67.667 -35.333 -89 -36zM254 82l41.999 155c0 33.333 -20.333 50 -61 50c-30 0 -56.333 -27.667 -79 -83c-18.667 -46 -28 -87 -28 -123c0 -33.333 12.333 -50 37 -50c38.667 0 68.334 17 89.001 51z" />
    <glyph glyph-name="A" unicode="A" horiz-adv-x="504" 
d="M92 50l50 -50h-159l52 52l188 538h55l183 -538l52 -52h-200l50 50l-39 117h-193zM229 451l-81 -236h160z" />
    <glyph glyph-name="B" unicode="B" horiz-adv-x="483" 
d="M29 0l50.999 51v488l-51 51h200c55.333 0 100 -12 134 -36c40.667 -28 61 -70 61 -126c0 -24 -9.83301 -48 -29.5 -72s-44.167 -41 -73.5 -51c36.667 -6 67.834 -24 93.501 -54s38.5 -62.667 38.5 -98c0 -52.667 -21.667 -92.667 -65 -120c-36 -22 -82 -33 -138 -33h-221
zM169.999 542v-222.999h59c28.667 0 52.667 10.667 72 32s29 47 29 77c0 31.333 -9.66699 58.166 -29 80.499s-43.333 33.5 -72 33.5h-59zM249.999 48.001c30.667 0 56.5 9.66797 77.5 29.001s31.5 44.666 31.5 75.999c0 32 -10.5 59.667 -31.5 83s-46.833 35 -77.5 35h-80
v-223h80z" />
    <glyph glyph-name="C" unicode="C" horiz-adv-x="461" 
d="M283 598c59.333 0 109 -11.668 149 -35.001v-122l-81 81c-18.667 18.667 -41.334 28 -68.001 28c-51.333 0 -89.333 -28 -114 -84c-19.333 -44.667 -29 -101.667 -29 -171c0 -68 10.333 -125 31 -171c24.667 -56 62 -84 112 -84c26.667 0 49.334 9.33301 68.001 28l81 81
v-123c-39.333 -22.667 -89 -34 -149 -34c-74 0 -135.333 31.333 -184 94c-46.667 58.667 -70 128.334 -70 209.001c0 81.333 23.667 151.333 71 210c49.333 62 110.333 93 183 93z" />
    <glyph glyph-name="D" unicode="D" horiz-adv-x="553" 
d="M29 0l51 51v488l-51 51h242c73.333 0 134.666 -30.333 183.999 -91c46 -57.333 69 -125.333 69 -204s-23 -146.667 -69 -204c-49.333 -60.667 -110.666 -91 -183.999 -91h-242zM170 48h80c52.667 0 94 26.667 124 80c26 46 39 101.667 39 167s-13 121 -39 167
c-30 53.333 -71.333 80 -124 80h-80v-494z" />
    <glyph glyph-name="E" unicode="E" horiz-adv-x="428" 
d="M399 0h-370l51 51v488l-51 51h370v-116l-67 68h-162v-202h116l51 51v-150l-51 51h-116v-244h162l67 68v-116z" />
    <glyph glyph-name="F" unicode="F" horiz-adv-x="417" 
d="M29 0l51 51v488l-51 51h370v-116l-67 68h-162v-202h116l51 51v-150l-51 51h-116v-241l51 -51h-192z" />
    <glyph glyph-name="G" unicode="G" horiz-adv-x="563" 
d="M353 319h192.001l-51 -51v-233c-30.667 -16.667 -50.334 -26.667 -59.001 -30c-27.333 -8.66699 -65.333 -13 -114 -13c-80 0 -148.667 30 -206 90s-86 131 -86 213s28.667 153 86 213s126 90 206 90c56 0 105.333 -11.333 148 -34v-123l-81 81
c-18.667 18.667 -41 28 -67 28c-53.333 0 -97.333 -27 -132 -81c-32 -50 -48 -108 -48 -174c0 -65.333 16 -123 48 -173c34.667 -54.667 78.667 -82 132 -82c29.333 0 57 9.66699 83 29v199z" />
    <glyph glyph-name="H" unicode="H" horiz-adv-x="563" 
d="M170 292v-241l51 -51h-192l51 51v488l-51 51h192l-51 -51v-199h223v199l-51 51h191l-50 -51v-488l50 -51h-191l51 51v241h-223z" />
    <glyph glyph-name="I" unicode="I" horiz-adv-x="267" 
d="M38 590h191l-51 -51v-488l51 -51h-191l50 51v488z" />
    <glyph glyph-name="J" unicode="J" horiz-adv-x="292" 
d="M63 590h191l-51 -51v-552c0 -45.333 -13.333 -83 -40 -113c-24.667 -27.333 -53 -41 -85 -41h-143l73 96l60 -60c30 11.333 45 32 45 62v608z" />
    <glyph glyph-name="K" unicode="K" horiz-adv-x="517" 
d="M170 51l51 -51h-192l51 51v488l-51 51h192l-51 -51v-215l221 221l-45 45h154l-246 -246l274 -344h-152v48l-206 259v-256z" />
    <glyph glyph-name="L" unicode="L" horiz-adv-x="392" 
d="M378 116v-116h-349l51 51v488l-51 51h192l-51 -51v-491h141z" />
    <glyph glyph-name="M" unicode="M" horiz-adv-x="675" 
d="M188 0h-159l51 51v488l-51 51h164l157 -281l157 281h139l-51 -51v-488l51 -51h-192l51 51v441l-184 -328l-184 328v-441z" />
    <glyph glyph-name="N" unicode="N" horiz-adv-x="554" 
d="M137 51l51 -51h-159l51 51v488l-51 51h148l245 -388v337l-51 51h158l-51 -51v-597l-341 530v-421z" />
    <glyph glyph-name="O" unicode="O" horiz-adv-x="565" 
d="M29 295c0 81.333 23 152 69 212c48.667 64 110.334 96 185.001 96s136.334 -32 185.001 -96c45.333 -60 68 -130.667 68 -212s-22.667 -152 -68 -212c-48.667 -64 -110.334 -96 -185.001 -96s-136.334 32 -185.001 96c-46 60 -69 130.667 -69 212zM140 295
c0 -70.667 9.66699 -128.334 29 -173.001c24.667 -57.333 62.667 -86 114 -86c50.667 0 88.334 28.667 113.001 86c19.333 44.667 29 102.334 29 173.001s-9.66699 128.334 -29 173.001c-24.667 57.333 -62.334 86 -113.001 86c-51.333 0 -89.333 -28.667 -114 -86
c-19.333 -44.667 -29 -102.334 -29 -173.001z" />
    <glyph glyph-name="P" unicode="P" horiz-adv-x="496" 
d="M29 0l51 51v488l-51 51h221c58.667 0 109.667 -14.667 153 -44c47.333 -32 71 -74 71 -126s-23.667 -94 -71 -126c-43.333 -29.333 -94.333 -44 -153 -44h-80v-199l51 -51h-192zM250 298c34 0 62.833 12 86.5 36s35.5 52.667 35.5 86c0 34 -11.833 62.833 -35.5 86.5
s-52.5 35.5 -86.5 35.5h-80v-244h80z" />
    <glyph glyph-name="Q" unicode="Q" horiz-adv-x="565" 
d="M541 36l-91.001 -91l-168 42c-74 0 -135.333 32 -184 96c-46 60 -69 130.667 -69 212s23 152 69 212c48.667 64 110.334 96 185.001 96c74 0 135.667 -32.333 185 -97c45.333 -60 68 -130.333 68 -211c0 -108.667 -39 -195 -117 -259h122zM282.999 36
c50.667 0 88.334 28.667 113.001 86c19.333 44.667 29 102.334 29 173.001s-9.66699 128.334 -29 173.001c-24.667 57.333 -62.334 86 -113.001 86c-51.333 0 -89.333 -28.667 -114 -86c-19.333 -44.667 -29 -102.334 -29 -173.001s9.66699 -128.334 29 -173.001
c24.667 -57.333 62.667 -86 114 -86z" />
    <glyph glyph-name="R" unicode="R" horiz-adv-x="492" 
d="M453 51l51 -50.999h-127l-141 271h-66v-220l51 -51h-192l51 51v488l-51 51h200c53.333 0 100 -14.333 140 -43c42.667 -30.667 64 -70.334 64 -119.001c0 -30.667 -10.167 -59 -30.5 -85s-46.833 -44.333 -79.5 -55zM170 542.001v-223.001h59
c28 0 51.833 10.833 71.5 32.5s29.5 47.167 29.5 76.5c0 30.667 -9.66699 57.334 -29 80.001s-43.333 34 -72 34h-59z" />
    <glyph glyph-name="S" unicode="S" horiz-adv-x="396" 
d="M373 179c0 -52 -14.998 -95.001 -44.998 -129.001c-34 -38.667 -82.333 -58 -145 -58c-14.667 0 -29.334 1.33301 -44.001 4l-122 22l59 108l65 -82c15.333 -8 31.333 -12 48 -12c35.333 0 62.333 12.667 81 38c14 19.333 21 41.333 21 66
c0 34.667 -13.667 60.334 -41 77.001l-142 88c-52.667 32.667 -79 77.667 -79 135c0 50 18.333 89.667 55 119c31.333 26 69.333 39 114 39c16.667 0 32 -1.33301 46 -4l117 -22l-59 -100l-60 74c-12.667 6 -25.667 9 -39 9c-26.667 0 -48.334 -8.33301 -65.001 -25
s-25 -35.667 -25 -57c0 -36 20.333 -66.667 61 -92l142 -88c38 -23.333 57 -60 57 -110z" />
    <glyph glyph-name="T" unicode="T" horiz-adv-x="465" 
d="M278 51l50 -51h-191l51 51v491h-100l-67 -68v116h423v-116l-67 68h-99v-491z" />
    <glyph glyph-name="U" unicode="U" horiz-adv-x="542" 
d="M76 158v381l-51 51h192l-51 -51v-381c0 -32.667 12 -60.5 36 -83.5s52.667 -34.5 86 -34.5c32.667 0 61 11.5 85 34.5s36 50.833 36 83.5v381l-51 51h159l-51 -51v-381c0 -49.333 -19.5 -90.166 -58.5 -122.499s-84.5 -48.5 -136.5 -48.5s-97 15.667 -135 47
c-40 33.333 -60 74.666 -60 123.999z" />
    <glyph glyph-name="V" unicode="V" horiz-adv-x="471" 
d="M192 590l-50 -50l116 -392l121 392l-50 50h159l-52 -52l-171 -538h-55l-167 538l-51 52h200z" />
    <glyph glyph-name="W" unicode="W" horiz-adv-x="767" 
d="M265 0h-55l-167 538l-51 52h200l-50 -50l116 -392l101 325l-20 65l-51 52h200l-50 -50l116 -392l121 392l-50 50h158l-51 -52l-171 -538h-55l-119 383z" />
    <glyph glyph-name="X" unicode="X" horiz-adv-x="500" 
d="M444 52l52 -52h-158v49l-102 181l-119 -180l50 -50h-163l52 52l152 228l-148 258l-52 52h158v-49l98 -174l115 173l-50 50h163l-52 -52l-147 -221z" />
    <glyph glyph-name="Y" unicode="Y" horiz-adv-x="463" 
d="M43 538l-51 52h200l-50 -50l116 -211l113 211l-50 50h158l-51 -51l-145 -266v-222l50 -51h-191l51 51v223z" />
    <glyph glyph-name="Z" unicode="Z" horiz-adv-x="419" 
d="M97 542l-68 -68v116h364l-255 -542h185l67 68v-116h-367l254 542h-180z" />
    <glyph glyph-name="bracketleft" unicode="[" horiz-adv-x="233" 
d="M190 -35v-28h-140v716h140v-28h-62v-660h62z" />
    <glyph glyph-name="backslash" unicode="\" horiz-adv-x="42" 
 />
    <glyph glyph-name="bracketright" unicode="]" horiz-adv-x="233" 
d="M106 625h-63v28h140v-716h-140v28h63v660z" />
    <glyph glyph-name="asciicircum" unicode="^" 
 />
    <glyph glyph-name="underscore" unicode="_" horiz-adv-x="417" 
d="M-3 -42v49h423v-49h-423z" />
    <glyph glyph-name="grave" unicode="`" horiz-adv-x="218" 
d="M102 648l93 -94l-139 63c-13.333 6 -20 16.667 -20 32s8.33301 23 25 23c11.333 0 25 -8 41 -24z" />
    <glyph glyph-name="a" unicode="a" horiz-adv-x="433" 
d="M156 368l-77 -77v107c32.667 22.667 78.334 34 137.001 34c55.333 0 96.333 -13.333 123 -40c20 -19.333 30 -42 30 -68v-277l47 -47h-137v73l-120 -76c-11.333 -7.33301 -23.333 -11 -36 -11c-24 0 -45.667 12 -65 36s-29 52.667 -29 86c0 42.667 17.333 78.667 52 108
c33.333 27.333 72.666 41 117.999 41h80v67c0 18.667 -6.66699 34.667 -20 48s-30.333 20 -51 20c-18.667 0 -36 -8 -52 -24zM220 221c-29.333 0 -52.833 -10.167 -70.5 -30.5s-26.5 -47.833 -26.5 -82.5c0 -14 5.33301 -26.833 16 -38.5s22 -17.5 34 -17.5
c6.66699 0 12 1.33301 16 4l90 57v108h-59z" />
    <glyph glyph-name="b" unicode="b" horiz-adv-x="473" 
d="M148 62l-85 -73v554l-45 45l135 45v-265c29.333 44 71.333 66 126 66c45.333 0 84.166 -22.5 116.499 -67.5s48.5 -96.5 48.5 -154.5s-16.167 -109.667 -48.5 -155s-71.166 -68 -116.499 -68c-54 0 -97.667 24.333 -131 73zM253 40c53.333 0 80 57.333 80 172
c0 114 -26.667 171 -80 171c-51.333 0 -84.666 -22.667 -99.999 -68v-207c15.333 -45.333 48.666 -68 99.999 -68z" />
    <glyph glyph-name="c" unicode="c" horiz-adv-x="398" 
d="M223 392c-55.333 0 -83.001 -53.001 -83.001 -159.001c0 -71.333 8.66699 -122 26 -152s46.333 -45 87 -45c36.667 0 67.334 13 92.001 39l26 -26c-42 -38.667 -87.667 -58 -137 -58c-60 0 -109.667 22.333 -149 67c-37.333 42 -56 93.333 -56 154
c0 58 18.333 109.167 55 153.5s82 66.5 136 66.5c41.333 0 73.333 -3.33301 96 -10c11.333 -3.33301 29 -11.666 53 -24.999v-106l-76 77c-16 16 -39.333 24 -70 24z" />
    <glyph glyph-name="d" unicode="d" horiz-adv-x="475" 
d="M194 -11c-44.667 0 -83.335 22.668 -116.002 68.001s-49 97 -49 155c0 57.333 16.333 108.666 49 153.999s71.334 68 116.001 68c54 0 96.333 -22 127 -66v175l-45 45l135 45v-586l47 -47h-137v55c-31.333 -44 -73.666 -66 -126.999 -66zM320.999 108.001v207
c-16.667 45.333 -50.334 68 -101.001 68c-53.333 0 -80 -57 -80 -171c0 -114.667 26.667 -172 80 -172c50.667 0 84.334 22.667 101.001 68z" />
    <glyph glyph-name="e" unicode="e" horiz-adv-x="441" 
d="M411 221l-271.002 0.000976562c0 -59.333 6 -102 18 -128c17.333 -38 49.666 -57 96.999 -57c20.667 0 42.334 6 65.001 18c20.667 12 36 26 46 42l25 -25c-33.333 -52.667 -90.333 -79 -171 -79c-55.333 0 -101.666 23 -138.999 69
c-34.667 43.333 -52 93.666 -52 150.999c0 61.333 17.333 113.333 52 156c36.667 45.333 83 68 139 68c52.667 0 97.834 -19.667 135.501 -59s56.5 -85.333 56.5 -138c0 -3.33301 -0.333008 -9.33301 -1 -18zM139.998 261.001l161 0.000976562c6.66699 11.333 10 23 10 35
c0 26 -9.16699 49.833 -27.5 71.5s-39.5 32.5 -63.5 32.5c-28 0 -48.667 -14.667 -62 -44c-12 -24.667 -18 -56.334 -18 -95.001z" />
    <glyph glyph-name="f" unicode="f" horiz-adv-x="292" 
d="M335 623l-69 -91l-56 56c-30 -11.333 -45 -32 -45 -62v-111h83v-40h-83v-328l47 -47h-184l47 47v311h-55l55 55v57c0 44.667 13.667 82 41 112c25.333 27.333 53.333 41 84 41h135z" />
    <glyph glyph-name="g" unicode="g" horiz-adv-x="400" 
d="M158 166v-76h39c50 0 93 -10 129 -30c41.333 -23.333 62 -56 62 -98s-20.667 -75 -62 -99c-36 -20 -79 -30 -129 -30h-190l69 92l47 -48h74c80.667 0 121 20 121 60c0 42 -40.333 63 -121 63h-108v188c-41.333 28 -62 62.333 -62 103c0 39.333 18 71 54 95
c32 22 70.667 33 116 33h216l-65 -66c12.667 -25.333 19 -46 19 -62c0 -40 -18.333 -72 -55 -96c-32 -21.333 -70.333 -32 -115 -32c-5.33301 0 -12 0.5 -20 1.5s-14.333 1.5 -19 1.5zM197 388c-23.333 0 -42.5 -9.66699 -57.5 -29s-22.5 -42 -22.5 -68
s7.5 -48.667 22.5 -68s34.167 -29 57.5 -29s42.5 9.66699 57.5 29s22.5 42 22.5 68s-7.5 48.667 -22.5 68s-34.167 29 -57.5 29z" />
    <glyph glyph-name="h" unicode="h" horiz-adv-x="468" 
d="M201 0l-183.001 0.00195312l46 47v496l-45 45l135 45v-288l36 36c40 40 79.333 60 118 60c22.667 0 43.667 -8 63 -24c22 -18.667 33 -41.334 33 -68.001v-302l47 -47h-137v328c0 11.333 -3.33301 21.666 -10 30.999c-8.66699 12.667 -20.667 19 -36 19
c-19.333 0 -43.666 -14.667 -72.999 -44l-41 -41v-246z" />
    <glyph glyph-name="i" unicode="i" horiz-adv-x="250" 
d="M213 0h-184l47 47v288l-45 45l135 49v-382zM118 479c-13.333 0 -24.833 4.83301 -34.5 14.5s-14.5 21.5 -14.5 35.5c0 13.333 4.83301 25 14.5 35s21.167 15 34.5 15c14 0 25.833 -5 35.5 -15s14.5 -21.667 14.5 -35c0 -14 -4.83301 -25.833 -14.5 -35.5
s-21.5 -14.5 -35.5 -14.5z" />
    <glyph glyph-name="j" unicode="j" horiz-adv-x="258" 
d="M188 524c0 -12 -4.5 -22.5 -13.5 -31.5s-19.5 -13.5 -31.5 -13.5c-12.667 0 -23.334 4.5 -32.001 13.5s-13 19.5 -13 31.5s4.33301 22.5 13 31.5s19.334 13.5 32.001 13.5c12 0 22.5 -4.5 31.5 -13.5s13.5 -19.5 13.5 -31.5zM53 380l135 49.001v-442
c0 -44.667 -13.667 -82.334 -41 -113.001c-25.333 -27.333 -53.333 -41 -84 -41h-136l70 92l56 -56c30 12 45 32.667 45 62v404z" />
    <glyph glyph-name="k" unicode="k" horiz-adv-x="458" 
d="M319 378l-45 45h154l-190 -190l232 -233h-157v43l-156 156v-152l46 -47h-183l47 47v496l-45 45l135 45v-417z" />
    <glyph glyph-name="l" unicode="l" horiz-adv-x="250" 
d="M215 0h-183l46 47v496l-45 45l135 45v-586z" />
    <glyph glyph-name="m" unicode="m" horiz-adv-x="679" 
d="M193 377c40.667 40.667 77.333 60.999 110 60.999c27.333 0 48 -9.16699 62 -27.5s21 -41.5 21 -69.5l36 36c40.667 40.667 77.667 61 111 61c24 0 43.333 -8.66699 58 -26c16 -19.333 24 -45.666 24 -78.999v-286l47 -47h-137v333c0 29.333 -11.667 44 -35 44
c-10.667 0 -31.667 -15.667 -63 -47l-41 -41v-242l47 -47h-137v333c0 29.333 -11.667 44 -35 44c-10.667 0 -31.667 -15.667 -63 -47l-41 -41v-242l46 -47h-183l47 47v288l-45 45l135 49v-88z" />
    <glyph glyph-name="n" unicode="n" horiz-adv-x="492" 
d="M193 381c42 42 84.3311 63 126.998 63c28.667 0 53.834 -9 75.501 -27s32.5 -40.667 32.5 -68v-302l46 -47h-136v328c0 10.667 -4.33301 21.667 -13 33c-10.667 13.333 -24.667 20 -42 20c-25.333 0 -53.666 -15.667 -84.999 -47l-41 -41v-246l46 -47h-183l47 47v288
l-45 45l135 49v-84z" />
    <glyph glyph-name="o" unicode="o" horiz-adv-x="482" 
d="M29 212c0 60.667 20.5 113.167 61.5 157.5s91.167 66.5 150.5 66.5s109.5 -22.167 150.5 -66.5s61.5 -96.833 61.5 -157.5s-20.5 -113.334 -61.5 -158.001s-91.167 -67 -150.5 -67s-109.5 22.333 -150.5 67s-61.5 97.334 -61.5 158.001zM241 23c67.333 0 101 63 101 189
c0 125.333 -33.667 188 -101 188s-101 -62.667 -101 -188c0 -126 33.667 -189 101 -189z" />
    <glyph glyph-name="p" unicode="p" horiz-adv-x="473" 
d="M153 55v-175l46 -47h-183l47 47v455l-45 45l135 49v-61c29.333 44 71.333 66 126 66c45.333 0 84.166 -22.5 116.499 -67.5s48.5 -96.5 48.5 -154.5s-16.167 -109.667 -48.5 -155s-71.166 -68 -116.499 -68c-54 0 -96 22 -126 66zM153 315v-207
c15.333 -45.333 48.666 -68 99.999 -68c53.333 0 80 57.333 80 172c0 114 -26.667 171 -80 171c-51.333 0 -84.666 -22.667 -99.999 -68z" />
    <glyph glyph-name="q" unicode="q" horiz-adv-x="473" 
d="M321 -120l-0.000976562 175.001c-31.333 -44 -73.666 -66 -126.999 -66c-44.667 0 -83.334 22.667 -116.001 68s-49 97 -49 155c0 57.333 16.333 108.666 49 153.999s71.334 68 116.001 68c54 0 97.667 -24 131 -72l86 72v-554l47 -47h-184zM219.999 383.001
c-53.333 0 -80 -57 -80 -171c0 -114.667 26.667 -172 80 -172c50.667 0 84.334 22.667 101.001 68v207c-16.667 45.333 -50.334 68 -101.001 68z" />
    <glyph glyph-name="r" unicode="r" horiz-adv-x="350" 
d="M193 385c29.333 32 60.667 48 94 48c6.66699 0 18.667 -1.66699 36 -5v-133l-86 87l-80 -89v-246l46 -47h-183l47 47v288l-45 45l135 49v-83z" />
    <glyph glyph-name="s" unicode="s" horiz-adv-x="354" 
d="M328 132c0 -40 -12.334 -73.333 -37.001 -100c-27.333 -30 -64 -45 -110 -45c-14.667 0 -28.667 1.66699 -42 5l-121 30l64 82l61 -73c14 -7.33301 25.667 -11 35 -11c20.667 0 38.334 7.66699 53.001 23s22 33.333 22 54c0 19.333 -7.66699 33 -23 41l-146 79
c-32.667 18 -49 47.667 -49 89c0 35.333 11.667 65.333 35 90c25.333 27.333 59.333 41 102 41c14 0 27.333 -1.66699 40 -5l112 -30l-59 -79l-57 70c-10 6.66699 -19.333 10 -28 10c-16 0 -31.333 -6 -46 -18s-22 -26 -22 -42c0 -22 10 -38.667 30 -50l141 -79
c30 -16.667 45 -44 45 -82z" />
    <glyph glyph-name="t" unicode="t" horiz-adv-x="292" 
d="M250 75l20.999 -21c-17.333 -44.667 -48.333 -67 -93 -67c-30 0 -54.333 10.333 -73 31c-16.667 18 -25 38 -25 60v280h-76l166 166v-109h104v-40h-104v-339c36.667 0 63.334 13 80.001 39z" />
    <glyph glyph-name="u" unicode="u" horiz-adv-x="468" 
d="M268 380l135.002 49v-382l47 -47h-137v78l-35 -35c-40.667 -40.667 -79.667 -61 -117 -61c-26.667 0 -50.334 10 -71.001 30c-18 18 -27 36 -27 54v269l-45 45l135 49v-342c0 -10.667 3 -20.667 9 -30c8 -12.667 18.667 -19 32 -19c19.333 0 45.666 17 78.999 51l40 41
v205z" />
    <glyph glyph-name="v" unicode="v" horiz-adv-x="417" 
d="M-4 415h187l-45 -46l100 -252l100 252l-46 46h141l-47 -47l-146 -368h-51l-146 368z" />
    <glyph glyph-name="w" unicode="w" horiz-adv-x="629" 
d="M250 415h188l-47 -46l80 -250l79 250l-46 46h142l-48 -47l-125 -368h-50l-102 298l-102 -298h-51l-125 368l-47 47h187l-46 -46l80 -250l79 250z" />
    <glyph glyph-name="x" unicode="x" horiz-adv-x="417" 
d="M56 368l-48 47h196l-46 -46l65 -102l81 102l-46 46h150l-47 -47l-112 -141l116 -179l48 -48h-196l46 46l-70 108l-85 -108l46 -46h-150l48 48l116 146z" />
    <glyph glyph-name="y" unicode="y" horiz-adv-x="417" 
d="M43 368l-47 47h187l-45 -46l98 -249l97 249l-45 46h145l-47 -47l-190 -489l46 -46h-169l70 47l47 123z" />
    <glyph glyph-name="z" unicode="z" horiz-adv-x="354" 
d="M31 308v107h301l-196 -375h122l67 68v-108h-301l196 375h-122z" />
    <glyph glyph-name="braceleft" unicode="{" horiz-adv-x="283" 
d="M130 295l79 -87l-1 -49c0 -62 3.33301 -106.333 10 -133c7.33301 -31.333 23.666 -61 48.999 -89l-16 -23c-55.333 46.667 -91.666 89.667 -108.999 129c-12.667 28 -19 67.667 -19 119c0 2 0.666992 10.667 2 26s2 23.666 2 24.999l-114 82l114 83
c0 1.33301 -0.666992 9.5 -2 24.5s-2 23.5 -2 25.5c0 51.333 6.33301 91.333 19 120c17.333 38.667 53.666 81.334 108.999 128.001l16 -23c-25.333 -28 -41.666 -57.667 -48.999 -89c-6.66699 -26.667 -10 -71 -10 -133c0 -4 0.333008 -20 1 -48z" />
    <glyph glyph-name="bar" unicode="|" 
 />
    <glyph glyph-name="braceright" unicode="}" horiz-adv-x="283" 
d="M74 383l2 48c0 55.333 -2.33301 94.333 -7 117c-7.33301 39.333 -24.666 74.333 -51.999 105l16 23c55.333 -46.667 91.666 -89.334 108.999 -128.001c12 -28.667 18 -68.667 18 -120c0 -2 -0.5 -10.5 -1.5 -25.5s-1.5 -23.167 -1.5 -24.5l114 -83l-114 -82
c0 -1.33301 0.5 -9.66602 1.5 -24.999s1.5 -24 1.5 -26c0 -51.333 -6 -91 -18 -119c-17.333 -39.333 -53.666 -82.333 -108.999 -129l-16 23c27.333 30.667 44.666 65.667 51.999 105c4.66699 22.667 7 61.667 7 117c0 4 -0.666992 20.333 -2 49l79 87z" />
    <glyph glyph-name="asciitilde" unicode="~" 
 />
    <glyph glyph-name="euro" horiz-adv-x="498" 
d="M522 633l-22.999 -156.001l-48 6c0 104.667 -31.333 157 -94 157c-68.667 0 -122.334 -70.333 -161.001 -211h172l-21 -48h-164c-4 -16 -9.33301 -40.333 -16 -73h147l-21 -47h-134c-4 -27.333 -6 -52 -6 -74c0 -37.333 7 -67.666 21 -90.999
c17.333 -28.667 43.333 -43 78 -43c38.667 0 72.334 22.667 101.001 68c16 25.333 33 65 51 119l55 -10l-54 -188c-51.333 -35.333 -104.333 -53 -159 -53c-74 0 -129.333 28 -166 84c-31.333 47.333 -47 110 -47 188h-74l21 47h56c2 16.667 6 41 12 73h-66l21 48h59
c27.333 74.667 63.333 135.667 108 183c55.333 58.667 117.666 88 186.999 88c62.667 0 117.667 -22.333 165 -67z" />
    <glyph glyph-name="nonbreakingspace" unicode="&#xa0;" horiz-adv-x="250" 
 />
    <glyph glyph-name="exclamdown" unicode="&#xa1;" horiz-adv-x="254" 
d="M84 419c0 12.667 4.33301 23.5 13 32.5s19.334 13.5 32.001 13.5s23.5 -4.5 32.5 -13.5s13.5 -19.833 13.5 -32.5s-4.5 -23.5 -13.5 -32.5s-19.833 -13.5 -32.5 -13.5s-23.334 4.5 -32.001 13.5s-13 19.833 -13 32.5zM105 318h48l30 -485h-107z" />
    <glyph glyph-name="cent" unicode="&#xa2;" horiz-adv-x="408" 
d="M218 69h44v-111h-44v111zM218 673h44v-110h-44v110zM228 498c-55.333 0 -83.001 -53.001 -83.001 -159.001c0 -70.667 8.83301 -121 26.5 -151s46.5 -45 86.5 -45c36.667 0 67.334 13 92.001 39l26 -26c-40.667 -38.667 -86.334 -58 -137.001 -58
c-60 0 -109.667 22.333 -149 67c-37.333 42 -56 93 -56 153c0 58.667 18.333 110 55 154s82 66 136 66c41.333 0 73.333 -3.33301 96 -10c12.667 -3.33301 30.334 -11.666 53.001 -24.999v-105l-76 76c-16 16 -39.333 24 -70 24z" />
    <glyph glyph-name="sterling" unicode="&#xa3;" horiz-adv-x="417" 
d="M253 332v-40h-83v-244h170l59 60v-108h-366l47 47v228h-55l55 55v107c0 44.667 13.667 82 41 112c25.333 27.333 53.333 41 84 41h135l-69 -92l-56 56c-30 -10.667 -45 -31 -45 -61v-161h83z" />
    <glyph glyph-name="currency" unicode="&#xa4;" horiz-adv-x="383" 
d="M46 529l73.001 52c19.333 14 42.333 21 69 21c38 0 73.333 -13.333 106 -40c36 -29.333 54 -65.333 54 -108c0 -35.333 -15 -72.333 -45 -111l-214 -274h218l46 47v-116h-327v45l209 302c17.333 25.333 26 50.666 26 75.999c0 30.667 -10.833 58.334 -32.5 83.001
s-46.834 37 -75.501 37c-13.333 0 -25 -3 -35 -9l-52 -31z" />
    <glyph glyph-name="yen" unicode="&#xa5;" horiz-adv-x="488" 
d="M52 538l-52 52h200l-50 -50l117 -212l112 212l-50 50h159l-51 -52l-98 -177h119v-48h-145l-20 -35h165v-49h-167v-178l51 -51h-192l51 51v178h-167v49h165l-20 35h-145v48h119z" />
    <glyph glyph-name="brokenbar" unicode="&#xa6;" horiz-adv-x="270" 
d="M106 292h62v-292h-62v292zM106 667h62v-292h-62v292z" />
    <glyph glyph-name="section" unicode="&#xa7;" horiz-adv-x="467" 
d="M263 365c45.333 0 85 -17.999 119 -53.999s51 -79.333 51 -130c0 -52.667 -19.833 -97.334 -59.5 -134.001s-83.5 -55 -131.5 -55c-65.333 0 -116 22 -152 66c-34.667 42 -52 98.667 -52 170c0 92.667 23.667 174.667 71 246c54.667 81.333 127.667 123 219 125l10 -26
c-18 -4.66699 -36 -9 -54 -13c-30.667 -12 -56.667 -33.333 -78 -64c-29.333 -42.667 -51.333 -103.667 -66 -183c32 34.667 73 52 123 52zM335 178.001c0 94.667 -34.333 142 -103 142c-26.667 0 -49 -8 -67 -24c-23.333 -20.667 -35 -51 -35 -91
c0 -51.333 8.66699 -92.666 26 -123.999c19.333 -35.333 48 -53 86 -53c27.333 0 50 15.667 68 47c16.667 29.333 25 63.666 25 102.999z" />
    <glyph glyph-name="dieresis" unicode="&#xa8;" horiz-adv-x="302" 
d="M272 626c0 -11.333 -4.33301 -21.333 -13 -30s-19 -13 -31 -13c-11.333 0 -21.333 4.33301 -30 13s-13 18.667 -13 30s4.33301 21.333 13 30s18.667 13 30 13c12 0 22.333 -4.33301 31 -13s13 -18.667 13 -30zM133 627c0 -12 -4.33301 -22.333 -13 -31
s-18.667 -13 -30 -13s-21.333 4.33301 -30 13s-13 19 -13 31c0 11.333 4.33301 21.333 13 30s18.667 13 30 13s21.333 -4.33301 30 -13s13 -18.667 13 -30z" />
    <glyph glyph-name="copyright" unicode="&#xa9;" horiz-adv-x="640" 
d="M615 295c0 -81.333 -28.833 -150.833 -86.5 -208.5s-127.167 -86.5 -208.5 -86.5c-80.667 0 -150 29 -208 87s-87 127.333 -87 208c0 81.333 28.833 150.833 86.5 208.5s127.167 86.5 208.5 86.5s150.833 -28.833 208.5 -86.5s86.5 -127.167 86.5 -208.5zM320 40
c70.667 0 130.834 24.833 180.501 74.5s74.5 109.834 74.5 180.501s-24.833 130.834 -74.5 180.501s-109.834 74.5 -180.501 74.5s-130.834 -24.833 -180.501 -74.5s-74.5 -109.834 -74.5 -180.501s24.833 -130.834 74.5 -180.501s109.834 -74.5 180.501 -74.5zM333 480
c28.667 0 57 -6.99902 85 -20.999v-78l-51 51c-10.667 10.667 -24 16 -40 16c-56 0 -84 -50.333 -84 -151c0 -40.667 6 -74.667 18 -102c14.667 -33.333 36.667 -50 66 -50c15.333 0 28.666 5.66699 39.999 17l51 51v-79c-25.333 -14 -55.666 -21 -90.999 -21
c-44.667 0 -82 19 -112 57c-28 35.333 -42 77.666 -42 126.999c0 48.667 14.333 90.667 43 126c30 38 69 57 117 57z" />
    <glyph glyph-name="ordfeminine" unicode="&#xaa;" 
 />
    <glyph glyph-name="guillemotleft" unicode="&#xab;" horiz-adv-x="333" 
d="M188 355l-71 -143l71 -144l-143 144zM313 355l-71 -143l71 -144l-143 144z" />
    <glyph glyph-name="logicalnot" unicode="&#xac;" 
 />
    <glyph glyph-name="sfthyphen" unicode="&#xad;" horiz-adv-x="338" 
d="M8 174l33 122h246l-33 -122h-246z" />
    <glyph glyph-name="registered" unicode="&#xae;" horiz-adv-x="640" 
d="M615 295c0 -81.333 -28.833 -150.833 -86.5 -208.5s-127.167 -86.5 -208.5 -86.5c-80.667 0 -150 29 -208 87s-87 127.333 -87 208c0 81.333 28.833 150.833 86.5 208.5s127.167 86.5 208.5 86.5s150.833 -28.833 208.5 -86.5s86.5 -127.167 86.5 -208.5zM320 40
c70.667 0 130.834 24.833 180.501 74.5s74.5 109.834 74.5 180.501s-24.833 130.834 -74.5 180.501s-109.834 74.5 -180.501 74.5s-130.834 -24.833 -180.501 -74.5s-74.5 -109.834 -74.5 -180.501s24.833 -130.834 74.5 -180.501s109.834 -74.5 180.501 -74.5zM450 151
l32.999 -33.001h-81l-84 163h-38v-130l33 -33h-122l32 33v292l-32 32h123c32 0 60.667 -9 86 -27s38 -41.667 38 -71c0 -17.333 -6.16699 -34.166 -18.5 -50.499s-27.833 -27.833 -46.5 -34.5c6.66699 -13.333 32.334 -60.333 77.001 -141zM279.999 442.999v-130h34
c16.667 0 30.667 6.33301 42 19s17 27.667 17 45c0 18 -5.66699 33.5 -17 46.5s-25.333 19.5 -42 19.5h-34z" />
    <glyph glyph-name="macron" unicode="&#xaf;" horiz-adv-x="250" 
d="M47 621v48h173v-48h-173z" />
    <glyph glyph-name="macron" unicode="&#x2c9;" horiz-adv-x="250" 
d="M47 621v48h173v-48h-173z" />
    <glyph glyph-name="degree" unicode="&#xb0;" horiz-adv-x="465" 
d="M333 317c66 -31.333 99.002 -84.332 99.002 -158.999c0 -48.667 -20.667 -89 -62 -121c-38.667 -30 -84.334 -45 -137.001 -45s-98.334 15 -137.001 45c-42 32 -63 72.333 -63 121c0 75.333 33 127.666 99 156.999c-52 27.333 -78 68 -78 122
c0 52.667 18.333 93.334 55 122.001c32 26 73.333 39 124 39c50 0 91.333 -13 124 -39c36 -28.667 54 -69.334 54 -122.001c0 -54.667 -26 -94.667 -78 -120zM128.002 158.001c0 -34.667 9.66504 -65 28.998 -91s44.666 -39 75.999 -39c30.667 0 56.334 13.333 77.001 40
c18.667 25.333 28 55.333 28 90c0 35.333 -9.66699 66.5 -29 93.5s-44.666 40.5 -75.999 40.5s-56.666 -13.5 -75.999 -40.5s-29 -58.167 -29 -93.5zM317 437.001c0 35.333 -7.16992 65.166 -21.5029 89.499s-35.166 36.5 -62.499 36.5s-48.333 -12.167 -63 -36.5
s-22 -54.166 -22 -89.499c0 -26.667 7.66699 -51 23 -73c16.667 -24 37.334 -36 62.001 -36s45.334 12 62.001 36c14.667 22 22 46.333 22 73z" />
    <glyph glyph-name="plusminus" unicode="&#xb1;" 
 />
    <glyph glyph-name="twosuperior" unicode="&#xb2;" horiz-adv-x="353" 
d="M100 562l40.001 28c9.33301 6.66699 21.666 10 36.999 10c20 0 38.667 -6.66699 56 -20c18.667 -15.333 28 -34.333 28 -57c0 -20 -7.66699 -39.667 -23 -59l-102 -129h97l30 30v-74h-171v29l105 151c8 11.333 12 23.333 12 36c0 14 -5.16699 26.833 -15.5 38.5
s-21.833 17.5 -34.5 17.5c-6 0 -20.667 -7.33301 -44 -22z" />
    <glyph glyph-name="threesuperior" unicode="&#xb3;" horiz-adv-x="358" 
d="M129 445v21.998c17.333 0 31.666 6 42.999 18s17 24.667 17 38c0 12 -4.83301 22.5 -14.5 31.5s-21.167 13.5 -34.5 13.5c-8.66699 0 -18.667 -3 -30 -9l-18 19l17 10c14.667 8.66699 31.667 13 51 13c24.667 0 44.834 -6.66699 60.501 -20s23.5 -30 23.5 -50
c0 -33.333 -15.333 -57.666 -46 -72.999c36.667 -12.667 55 -37 55 -73c0 -31.333 -14 -55 -42 -71c-24 -14 -53.333 -21 -88 -21h-27v27h27c20 0 37.167 6.16699 51.5 18.5s21.5 27.833 21.5 46.5c0 16.667 -6.66699 30.834 -20 42.501s-29 17.5 -47 17.5z" />
    <glyph glyph-name="acute" unicode="&#xb4;" horiz-adv-x="218" 
d="M171 617l-139 -63l93 94c16 16 29.667 24 41 24c16 0 24 -7.66699 24 -23s-6.33301 -26 -19 -32z" />
    <glyph glyph-name="mu" unicode="&#xb5;" horiz-adv-x="468" 
d="M153 -120l47 -47h-137v502l-45 45l135 49v-342c0 -9.33301 4 -19.333 12 -30c8.66699 -12.667 18.334 -19 29.001 -19c19.333 0 45.666 17 78.999 51l40 41v205l-45 45l135 49v-382l47 -47h-137v78l-35 -35c-40.667 -40.667 -79.667 -61 -117 -61h-8v-102z" />
    <glyph glyph-name="mu" unicode="&#x3bc;" horiz-adv-x="468" 
d="M153 -120l47 -47h-137v502l-45 45l135 49v-342c0 -9.33301 4 -19.333 12 -30c8.66699 -12.667 18.334 -19 29.001 -19c19.333 0 45.666 17 78.999 51l40 41v205l-45 45l135 49v-382l47 -47h-137v78l-35 -35c-40.667 -40.667 -79.667 -61 -117 -61h-8v-102z" />
    <glyph glyph-name="paragraph" unicode="&#xb6;" horiz-adv-x="450" 
d="M318 -167v717h-73v-717h-99l51 51c0 10.667 0.333008 74.667 1 192c0 118 0 176 0 174c-46 0 -85.5 16.833 -118.5 50.5s-49.5 73.5 -49.5 119.5c0 46.667 16.667 86.667 50 120s73.333 50 120 50h217l-51 -51v-655l51 -51h-99z" />
    <glyph glyph-name="ch270" unicode="&#xb7;" horiz-adv-x="249" 
d="M38 348c0 22.667 7.66699 41.667 23 57s34.333 23 57 23s41.834 -7.66699 57.501 -23s23.5 -34.333 23.5 -57s-7.83301 -41.834 -23.5 -57.501s-34.834 -23.5 -57.501 -23.5s-41.667 7.83301 -57 23.5s-23 34.834 -23 57.501z" />
    <glyph glyph-name="ch270" unicode="&#x2219;" horiz-adv-x="249" 
d="M38 348c0 22.667 7.66699 41.667 23 57s34.333 23 57 23s41.834 -7.66699 57.501 -23s23.5 -34.333 23.5 -57s-7.83301 -41.834 -23.5 -57.501s-34.834 -23.5 -57.501 -23.5s-41.667 7.83301 -57 23.5s-23 34.834 -23 57.501z" />
    <glyph glyph-name="cedilla" unicode="&#xb8;" horiz-adv-x="210" 
d="M132 19l43.001 -0.000976562l-51 -50c17.333 -1.33301 32.166 -7.16602 44.499 -17.499s18.5 -23.5 18.5 -39.5c0 -23.333 -11.667 -42 -35 -56c-20.667 -12.667 -45 -19 -73 -19h-16v24h16c27.333 0 41 11.333 41 34c0 10 -4 18.167 -12 24.5s-17.333 9.5 -28 9.5h-38z
" />
    <glyph glyph-name="onesuperior" unicode="&#xb9;" horiz-adv-x="267" 
d="M188 293h-113l30 30v227l-27 27l80 26v-280z" />
    <glyph glyph-name="ordmasculine" unicode="&#xba;" 
 />
    <glyph glyph-name="guillemotright" unicode="&#xbb;" horiz-adv-x="333" 
d="M162 355l143 -143l-143 -144l71 144zM37 355l143 -143l-143 -144l71 144z" />
    <glyph glyph-name="onequarter" unicode="&#xbc;" horiz-adv-x="623" 
d="M188 293h-113l30 30v227l-27 27l80 26v-280zM129 0l253 632h61l-252 -632h-62zM433 0v83h-105v19l138 204h20v-190h31v-33h-31v-83h-53zM433 204l-61 -88h61v88z" />
    <glyph glyph-name="onehalf" unicode="&#xbd;" horiz-adv-x="577" 
d="M188 293h-113l30 30v227l-27 27l80 26v-280zM348 271l40.001 28c9.33301 6.66699 21.666 10 36.999 10c20 0 38.667 -6.66699 56 -20c18.667 -15.333 28 -34 28 -56c0 -20.667 -7.66699 -40.667 -23 -60l-102 -129h98l30 30v-74h-172v29l105 151
c8.66699 12.667 13 24.667 13 36c0 13.333 -5.16699 26 -15.5 38s-21.833 18 -34.5 18c-6 0 -21 -7.33301 -45 -22zM109.001 0l253 632h61l-252 -632h-62z" />
    <glyph glyph-name="threequarters" unicode="&#xbe;" horiz-adv-x="623" 
d="M86 445l-0.000976562 21.999c17.333 0 31.666 6 42.999 18s17 24.667 17 38c0 11.333 -5 21.666 -15 30.999s-21.333 14 -34 14c-8.66699 0 -18.667 -3 -30 -9l-19 19l18 10c15.333 8.66699 32.333 13 51 13c24.667 0 44.834 -6.66699 60.501 -20s23.5 -30 23.5 -50
c0 -33.333 -15.333 -57.666 -46 -72.999c36.667 -12.667 55 -37 55 -73c0 -31.333 -14.333 -55 -43 -71c-23.333 -14 -52.666 -21 -87.999 -21h-26v27h26c20 0 37.333 6.16699 52 18.5s22 27.833 22 46.5c0 16.667 -6.66699 30.834 -20 42.501s-29 17.5 -47 17.5z
M135.999 -0.000976562l252 632h62l-252 -632h-62zM432.999 -0.000976562v83h-105v19l138 204h20v-190h31v-33h-31v-83h-53zM432.999 203.999l-61 -88h61v88z" />
    <glyph glyph-name="questiondown" unicode="&#xbf;" horiz-adv-x="400" 
d="M333 -49l59.999 -100l-117 -22c-24.667 -4.66699 -48.667 -7 -72 -7c-63.333 0 -111.666 20.333 -144.999 61c-26.667 32.667 -40 70.667 -40 114c0 28.667 9.66699 54 29 76l165 190v55h36v-123l-101 -127c-20 -32 -30 -59 -30 -81c0 -32.667 12.667 -60.667 38 -84
c23.333 -21.333 49.333 -32 78 -32c15.333 0 28.333 2 39 6zM178.999 419c0 12.667 4.5 23.5 13.5 32.5s19.833 13.5 32.5 13.5s23.334 -4.5 32.001 -13.5s13 -19.833 13 -32.5s-4.33301 -23.5 -13 -32.5s-19.334 -13.5 -32.001 -13.5s-23.5 4.5 -32.5 13.5
s-13.5 19.833 -13.5 32.5z" />
    <glyph glyph-name="Agrave" unicode="&#xc0;" horiz-adv-x="504" 
d="M92 50l50 -50h-159l52 52l188 538h55l183 -538l52 -52h-200l50 50l-39 117h-193zM229 451l-81 -236h160zM114 704l139 -63l-93 94c-16 16 -29.667 24 -41 24c-16 0 -24 -7.66699 -24 -23s6.33301 -26 19 -32z" />
    <glyph glyph-name="Aacute" unicode="&#xc1;" horiz-adv-x="504" 
d="M92 50l50 -50h-159l52 52l188 538h55l183 -538l52 -52h-200l50 50l-39 117h-193zM229 451l-81 -236h160zM387 702l-139 -63l93 94c16 16 29.667 24 41 24c16 0 24 -7.66699 24 -23s-6.33301 -26 -19 -32z" />
    <glyph glyph-name="Acircumflex" unicode="&#xc2;" horiz-adv-x="504" 
d="M92 50l50 -50h-159l52 52l188 538h55l183 -538l52 -52h-200l50 50l-39 117h-193zM229 451l-81 -236h160zM384 590h-19l-114 61l-114 -61h-18l132 133z" />
    <glyph glyph-name="Atilde" unicode="&#xc3;" horiz-adv-x="504" 
d="M92 50l50 -50h-159l52 52l188 538h55l183 -538l52 -52h-200l50 50l-39 117h-193zM229 451l-81 -236h160zM170 642l-1.00098 -2h-21l2 4c15.333 43.333 44 65 86 65c18 0 33.167 -4.83301 45.5 -14.5s21.833 -14.5 28.5 -14.5c12.667 0 24.334 9.33301 35.001 28l1 1h20
l-1 -4c-15.333 -43.333 -44.333 -65 -87 -65c-14.667 0 -28.667 4.83301 -42 14.5s-23.666 14.5 -30.999 14.5c-14.667 0 -26.334 -9 -35.001 -27z" />
    <glyph glyph-name="Adieresis" unicode="&#xc4;" horiz-adv-x="504" 
d="M91 50l50 -50h-159l52 52l188 538h55l183 -538l52 -52h-200l50 50l-39 117h-193zM228 451l-81 -236h160zM367 688c0 -11.333 -4.33301 -21.333 -13 -30s-19 -13 -31 -13c-11.333 0 -21.333 4.33301 -30 13s-13 18.667 -13 30c0 12 4.33301 22.333 13 31s18.667 13 30 13
c12 0 22.333 -4.33301 31 -13s13 -19 13 -31zM228 689c0 -11.333 -4.33301 -21.333 -13 -30s-18.667 -13 -30 -13s-21.333 4.33301 -30 13s-13 18.667 -13 30c0 12 4.33301 22.333 13 31s18.667 13 30 13s21.333 -4.33301 30 -13s13 -19 13 -31z" />
    <glyph glyph-name="Aring" unicode="&#xc5;" horiz-adv-x="504" 
d="M212 638c0 -10.667 3.66699 -19.834 11 -27.501s16.333 -11.5 27 -11.5s19.667 3.83301 27 11.5s11 16.834 11 27.501c0 10 -3.66699 18.833 -11 26.5s-16.333 11.5 -27 11.5s-19.667 -3.83301 -27 -11.5s-11 -16.5 -11 -26.5zM228 451l-81 -236h160zM282 576
l177.998 -523.999l52 -52h-200l50 50l-39 117h-193l-39 -117l50 -50h-159l52 52l184 525c-24.667 13.333 -37 33.666 -37 60.999c0 18.667 6.83301 34.834 20.5 48.501s29.834 20.5 48.501 20.5s34.834 -6.83301 48.501 -20.5s20.5 -29.834 20.5 -48.501
c0 -27.333 -12.333 -48 -37 -62z" />
    <glyph glyph-name="AE" unicode="&#xc6;" horiz-adv-x="617" 
d="M536 48l55 55v-103h-270l50 50l-38 117h-194l-39 -117l50 -50h-158l51 52l188 538h360v-103l-55 55h-233l68 -202h107l50 51v-150l-50 51h-90l83 -244h65zM238 451l-82 -236h160z" />
    <glyph glyph-name="Ccedilla" unicode="&#xc7;" horiz-adv-x="461" 
d="M214 2c-55.333 18 -100.333 55.332 -135 111.999c-33.333 54 -50 114.333 -50 181c0 81.333 23.667 151.333 71 210c49.333 62 110.333 93 183 93c59.333 0 109 -11.667 149 -35v-122l-81 81c-18.667 18.667 -41.334 28 -68.001 28c-51.333 0 -89.333 -28 -114 -84
c-19.333 -44.667 -29 -101.667 -29 -171c0 -68 10.333 -125 31 -171c24.667 -56 62 -84 112 -84c26.667 0 49.334 9.33301 68.001 28l81 81v-123c-39.333 -22.667 -89 -34 -149 -34c-15.333 0 -26.666 0.666992 -33.999 2l-25 -25
c17.333 -1.33301 32.166 -7.16602 44.499 -17.499s18.5 -23.5 18.5 -39.5c0 -23.333 -11.667 -42 -35 -56c-20.667 -12.667 -45 -19 -73 -19h-16v24h16c27.333 0 41 11.333 41 34c0 10 -4 18.167 -12 24.5s-17.333 9.5 -28 9.5h-38z" />
    <glyph glyph-name="Egrave" unicode="&#xc8;" horiz-adv-x="428" 
d="M399 0h-370l51 51v488l-51 51h370v-116l-67 68h-162v-202h116l51 51v-150l-51 51h-116v-244h162l67 68v-116zM80 701l139 -63l-93 94c-16 16 -29.667 24 -41 24c-16 0 -24 -7.66699 -24 -23s6.33301 -26 19 -32z" />
    <glyph glyph-name="Eacute" unicode="&#xc9;" horiz-adv-x="428" 
d="M399 0h-370l51 51v488l-51 51h370v-116l-67 68h-162v-202h116l51 51v-150l-51 51h-116v-244h162l67 68v-116zM353 703l-139 -63l93 94c16 16 29.667 24 41 24c16 0 24 -7.66699 24 -23s-6.33301 -26 -19 -32z" />
    <glyph glyph-name="Ecircumflex" unicode="&#xca;" horiz-adv-x="428" 
d="M399 0h-370l51 51v488l-51 51h370v-116l-67 68h-162v-202h116l51 51v-150l-51 51h-116v-244h162l67 68v-116zM368 640h-19l-114 61l-114 -61h-18l132 133z" />
    <glyph glyph-name="Edieresis" unicode="&#xcb;" horiz-adv-x="428" 
d="M399 0h-370l51 51v488l-51 51h370v-116l-67 68h-162v-202h116l51 51v-150l-51 51h-116v-244h162l67 68v-116zM347 689c0 -11.333 -4.33301 -21.333 -13 -30s-19 -13 -31 -13c-11.333 0 -21.333 4.33301 -30 13s-13 18.667 -13 30s4.33301 21.333 13 30s18.667 13 30 13
c12 0 22.333 -4.33301 31 -13s13 -18.667 13 -30zM208 690c0 -12 -4.33301 -22.333 -13 -31s-18.667 -13 -30 -13s-21.333 4.33301 -30 13s-13 19 -13 31c0 11.333 4.33301 21.333 13 30s18.667 13 30 13s21.333 -4.33301 30 -13s13 -18.667 13 -30z" />
    <glyph glyph-name="Igrave" unicode="&#xcc;" horiz-adv-x="267" 
d="M38 590h191l-51 -51v-488l51 -51h-191l50 51v488zM-6 702l139 -63l-93 94c-16 16 -29.667 24 -41 24c-16 0 -24 -7.66699 -24 -23s6.33301 -26 19 -32z" />
    <glyph glyph-name="Iacute" unicode="&#xcd;" horiz-adv-x="267" 
d="M38 590h191l-51 -51v-488l51 -51h-191l50 51v488zM274 703l-139 -63l93 94c16 16 29.667 24 41 24c16 0 24 -7.66699 24 -23s-6.33301 -26 -19 -32z" />
    <glyph glyph-name="Icircumflex" unicode="&#xce;" horiz-adv-x="267" 
d="M38 590h191l-51 -51v-488l51 -51h-191l50 51v488zM274 646h-19l-114 61l-114 -61h-18l132 133z" />
    <glyph glyph-name="Idieresis" unicode="&#xcf;" horiz-adv-x="267" 
d="M38 590h191l-51 -51v-488l51 -51h-191l50 51v488zM48 643l-1.00098 -2h-21l2 4c15.333 43.333 44 65 86 65c18 0 33.167 -4.83301 45.5 -14.5s21.833 -14.5 28.5 -14.5c12.667 0 24.334 9.33301 35.001 28l1 1h20l-1 -4c-15.333 -43.333 -44.333 -65 -87 -65
c-14.667 0 -28.667 4.83301 -42 14.5s-23.666 14.5 -30.999 14.5c-14.667 0 -26.334 -9 -35.001 -27z" />
    <glyph glyph-name="Eth" unicode="&#xd0;" horiz-adv-x="562" 
d="M83 284h-76v57h76v198l-51 51h241c73.333 0 134.666 -30.333 183.999 -91c46.667 -57.333 70 -125.333 70 -204s-23.333 -146.667 -70 -204c-49.333 -60.667 -110.666 -91 -183.999 -91h-241l51 51v233zM173 341h49v-57h-49v-236h80c52.667 0 94 26.667 124 80
c26 46 39 101.667 39 167s-13 121 -39 167c-30 53.333 -71.333 80 -124 80h-80v-201z" />
    <glyph glyph-name="Ntilde" unicode="&#xd1;" horiz-adv-x="554" 
d="M137 51l51 -51h-159l51 51v488l-51 51h148l245 -388v337l-51 51h158l-51 -51v-597l-341 530v-421zM200 648l-1.00098 -2h-21l2 4c15.333 43.333 44 65 86 65c18 0 33.167 -4.83301 45.5 -14.5s21.833 -14.5 28.5 -14.5c12.667 0 24.334 9.33301 35.001 28l1 1h20l-1 -4
c-15.333 -43.333 -44.333 -65 -87 -65c-14.667 0 -28.667 4.83301 -42 14.5s-23.666 14.5 -30.999 14.5c-14.667 0 -26.334 -9 -35.001 -27z" />
    <glyph glyph-name="Ograve" unicode="&#xd2;" horiz-adv-x="565" 
d="M29 295c0 81.333 23 152 69 212c48.667 64 110.334 96 185.001 96s136.334 -32 185.001 -96c45.333 -60 68 -130.667 68 -212s-22.667 -152 -68 -212c-48.667 -64 -110.334 -96 -185.001 -96s-136.334 32 -185.001 96c-46 60 -69 130.667 -69 212zM140 295
c0 -70.667 9.66699 -128.334 29 -173.001c24.667 -57.333 62.667 -86 114 -86c50.667 0 88.334 28.667 113.001 86c19.333 44.667 29 102.334 29 173.001s-9.66699 128.334 -29 173.001c-24.667 57.333 -62.334 86 -113.001 86c-51.333 0 -89.333 -28.667 -114 -86
c-19.333 -44.667 -29 -102.334 -29 -173.001zM139 717l139 -63l-93 94c-16 16 -29.667 24 -41 24c-16 0 -24 -7.66699 -24 -23s6.33301 -26 19 -32z" />
    <glyph glyph-name="Oacute" unicode="&#xd3;" horiz-adv-x="565" 
d="M29 295c0 81.333 23 152 69 212c48.667 64 110.334 96 185.001 96s136.334 -32 185.001 -96c45.333 -60 68 -130.667 68 -212s-22.667 -152 -68 -212c-48.667 -64 -110.334 -96 -185.001 -96s-136.334 32 -185.001 96c-46 60 -69 130.667 -69 212zM140 295
c0 -70.667 9.66699 -128.334 29 -173.001c24.667 -57.333 62.667 -86 114 -86c50.667 0 88.334 28.667 113.001 86c19.333 44.667 29 102.334 29 173.001s-9.66699 128.334 -29 173.001c-24.667 57.333 -62.334 86 -113.001 86c-51.333 0 -89.333 -28.667 -114 -86
c-19.333 -44.667 -29 -102.334 -29 -173.001zM418 716l-139 -63l93 94c16 16 29.667 24 41 24c16 0 24 -7.66699 24 -23s-6.33301 -26 -19 -32z" />
    <glyph glyph-name="Ocircumflex" unicode="&#xd4;" horiz-adv-x="565" 
d="M29 295c0 81.333 23 152 69 212c48.667 64 110.334 96 185.001 96s136.334 -32 185.001 -96c45.333 -60 68 -130.667 68 -212s-22.667 -152 -68 -212c-48.667 -64 -110.334 -96 -185.001 -96s-136.334 32 -185.001 96c-46 60 -69 130.667 -69 212zM140 295
c0 -70.667 9.66699 -128.334 29 -173.001c24.667 -57.333 62.667 -86 114 -86c50.667 0 88.334 28.667 113.001 86c19.333 44.667 29 102.334 29 173.001s-9.66699 128.334 -29 173.001c-24.667 57.333 -62.334 86 -113.001 86c-51.333 0 -89.333 -28.667 -114 -86
c-19.333 -44.667 -29 -102.334 -29 -173.001zM416 622h-19l-114 61l-114 -61h-18l132 133z" />
    <glyph glyph-name="Otilde" unicode="&#xd5;" horiz-adv-x="565" 
d="M29 295c0 81.333 23 152 69 212c48.667 64 110.334 96 185.001 96s136.334 -32 185.001 -96c45.333 -60 68 -130.667 68 -212s-22.667 -152 -68 -212c-48.667 -64 -110.334 -96 -185.001 -96s-136.334 32 -185.001 96c-46 60 -69 130.667 -69 212zM140 295
c0 -70.667 9.66699 -128.334 29 -173.001c24.667 -57.333 62.667 -86 114 -86c50.667 0 88.334 28.667 113.001 86c19.333 44.667 29 102.334 29 173.001s-9.66699 128.334 -29 173.001c-24.667 57.333 -62.334 86 -113.001 86c-51.333 0 -89.333 -28.667 -114 -86
c-19.333 -44.667 -29 -102.334 -29 -173.001zM204 654l-1.00098 -2h-21l2 4c15.333 43.333 44 65 86 65c18 0 33.167 -4.83301 45.5 -14.5s21.833 -14.5 28.5 -14.5c12.667 0 24.334 9.33301 35.001 28l1 1h20l-1 -4c-15.333 -43.333 -44.333 -65 -87 -65
c-14.667 0 -28.667 4.83301 -42 14.5s-23.666 14.5 -30.999 14.5c-14.667 0 -26.334 -9 -35.001 -27z" />
    <glyph glyph-name="Odieresis" unicode="&#xd6;" horiz-adv-x="565" 
d="M29 295c0 81.333 23 152 69 212c48.667 64 110.334 96 185.001 96s136.334 -32 185.001 -96c45.333 -60 68 -130.667 68 -212s-22.667 -152 -68 -212c-48.667 -64 -110.334 -96 -185.001 -96s-136.334 32 -185.001 96c-46 60 -69 130.667 -69 212zM140 295
c0 -70.667 9.66699 -128.334 29 -173.001c24.667 -57.333 62.667 -86 114 -86c50.667 0 88.334 28.667 113.001 86c19.333 44.667 29 102.334 29 173.001s-9.66699 128.334 -29 173.001c-24.667 57.333 -62.334 86 -113.001 86c-51.333 0 -89.333 -28.667 -114 -86
c-19.333 -44.667 -29 -102.334 -29 -173.001zM397 689c0 -11.333 -4.33301 -21.333 -13 -30s-19 -13 -31 -13c-11.333 0 -21.333 4.33301 -30 13s-13 18.667 -13 30s4.33301 21.333 13 30s18.667 13 30 13c12 0 22.333 -4.33301 31 -13s13 -18.667 13 -30zM258 690
c0 -12 -4.33301 -22.333 -13 -31s-18.667 -13 -30 -13s-21.333 4.33301 -30 13s-13 19 -13 31c0 11.333 4.33301 21.333 13 30s18.667 13 30 13s21.333 -4.33301 30 -13s13 -18.667 13 -30z" />
    <glyph glyph-name="multiply" unicode="&#xd7;" 
 />
    <glyph glyph-name="Oslash" unicode="&#xd8;" horiz-adv-x="573" 
d="M540 295c0 -81.333 -22.667 -152 -68 -212c-48.667 -64 -110.334 -96 -185.001 -96c-46.667 0 -89.667 13.667 -129 41l-39 -70h-46l53 97c-62 62 -93 142 -93 240c0 81.333 23 152 69 212c48.667 64 110.334 96 185.001 96c46.667 0 88.667 -13.333 126 -40l39 69h46
l-52 -96c62.667 -60.667 94 -141 94 -241zM382 506c-27.333 32 -59 48.001 -95 48.001c-51.333 0 -89.333 -28.667 -114 -86c-19.333 -44.667 -29 -102.334 -29 -173.001c0 -65.333 8.66699 -120.333 26 -165zM190 86.001c28.667 -33.333 60.999 -50.002 96.999 -50.002
c50.667 0 88.334 28.667 113.001 86c19.333 44.667 29 102.334 29 173.001c0 68.667 -8.66699 124.334 -26 167.001z" />
    <glyph glyph-name="Ugrave" unicode="&#xd9;" horiz-adv-x="542" 
d="M76 158v381l-51 51h192l-51 -51v-381c0 -32.667 12 -60.5 36 -83.5s52.667 -34.5 86 -34.5c32.667 0 61 11.5 85 34.5s36 50.833 36 83.5v381l-51 51h159l-51 -51v-381c0 -49.333 -19.5 -90.166 -58.5 -122.499s-84.5 -48.5 -136.5 -48.5s-97 15.667 -135 47
c-40 33.333 -60 74.666 -60 123.999zM138 703l139 -63l-93 94c-16 16 -29.667 24 -41 24c-16 0 -24 -7.66699 -24 -23s6.33301 -26 19 -32z" />
    <glyph glyph-name="Uacute" unicode="&#xda;" horiz-adv-x="542" 
d="M76 158v381l-51 51h192l-51 -51v-381c0 -32.667 12 -60.5 36 -83.5s52.667 -34.5 86 -34.5c32.667 0 61 11.5 85 34.5s36 50.833 36 83.5v381l-51 51h159l-51 -51v-381c0 -49.333 -19.5 -90.166 -58.5 -122.499s-84.5 -48.5 -136.5 -48.5s-97 15.667 -135 47
c-40 33.333 -60 74.666 -60 123.999zM416 703l-139 -63l93 94c16 16 29.667 24 41 24c16 0 24 -7.66699 24 -23s-6.33301 -26 -19 -32z" />
    <glyph glyph-name="Ucircumflex" unicode="&#xdb;" horiz-adv-x="542" 
d="M76 158v381l-51 51h192l-51 -51v-381c0 -32.667 12 -60.5 36 -83.5s52.667 -34.5 86 -34.5c32.667 0 61 11.5 85 34.5s36 50.833 36 83.5v381l-51 51h159l-51 -51v-381c0 -49.333 -19.5 -90.166 -58.5 -122.499s-84.5 -48.5 -136.5 -48.5s-97 15.667 -135 47
c-40 33.333 -60 74.666 -60 123.999zM415 646h-19l-114 61l-114 -61h-18l132 133z" />
    <glyph glyph-name="Udieresis" unicode="&#xdc;" horiz-adv-x="542" 
d="M76 158v381l-51 51h192l-51 -51v-381c0 -32.667 12 -60.5 36 -83.5s52.667 -34.5 86 -34.5c32.667 0 61 11.5 85 34.5s36 50.833 36 83.5v381l-51 51h159l-51 -51v-381c0 -49.333 -19.5 -90.166 -58.5 -122.499s-84.5 -48.5 -136.5 -48.5s-97 15.667 -135 47
c-40 33.333 -60 74.666 -60 123.999zM403 693c0 -11.333 -4.33301 -21.333 -13 -30s-19 -13 -31 -13c-11.333 0 -21.333 4.33301 -30 13s-13 18.667 -13 30s4.33301 21.333 13 30s18.667 13 30 13c12 0 22.333 -4.33301 31 -13s13 -18.667 13 -30zM264 694
c0 -12 -4.33301 -22.333 -13 -31s-18.667 -13 -30 -13s-21.333 4.33301 -30 13s-13 19 -13 31c0 11.333 4.33301 21.333 13 30s18.667 13 30 13s21.333 -4.33301 30 -13s13 -18.667 13 -30z" />
    <glyph glyph-name="Yacute" unicode="&#xdd;" horiz-adv-x="463" 
d="M43 538l-51 52h200l-50 -50l116 -211l113 211l-50 50h158l-51 -51l-145 -266v-222l50 -51h-191l51 51v223zM371 703l-139 -63l93 94c16 16 29.667 24 41 24c16 0 24 -7.66699 24 -23s-6.33301 -26 -19 -32z" />
    <glyph glyph-name="Thorn" unicode="&#xde;" horiz-adv-x="513" 
d="M33 590h191l-51 -51v-70h80c59.333 0 110.333 -14.667 153 -44c48 -32 72 -74 72 -126s-24 -94 -72 -126c-42.667 -29.333 -93.667 -44 -153 -44h-80v-78l51 -51h-191l50 51v488zM253 178c34 0 62.833 11.833 86.5 35.5s35.5 52.167 35.5 85.5
c0 34 -11.833 62.833 -35.5 86.5s-52.5 35.5 -86.5 35.5h-80v-243h80z" />
    <glyph glyph-name="germandbls" unicode="&#xdf;" horiz-adv-x="469" 
d="M317 433c0 31.333 -8.66797 59.333 -26.001 84s-37.333 37 -60 37c-49.333 0 -74 -43 -74 -129v-425h-137l47 47v336c0 57.333 12.667 105.666 38 144.999c30.667 46.667 74.334 70 131.001 70c46.667 0 85.334 -12.667 116.001 -38
c36.667 -29.333 55 -71.666 55 -126.999c0 -24.667 -9.83301 -49.167 -29.5 -73.5s-44.167 -41.5 -73.5 -51.5c37.333 -6.66699 68.666 -24.334 93.999 -53.001s38 -60.667 38 -96c0 -46.667 -18.5 -86.167 -55.5 -118.5s-77.5 -48.5 -121.5 -48.5c-12.667 0 -28 3 -46 9v31
c35.333 0 66.333 12.333 93 37s40 54.667 40 90c0 36.667 -12.833 67.834 -38.5 93.501s-57.167 38.5 -94.5 38.5v27c31.333 4.66699 56.5 17.5 75.5 38.5s28.5 46.5 28.5 76.5z" />
    <glyph glyph-name="agrave" unicode="&#xe0;" horiz-adv-x="433" 
d="M156 368l-77 -77v107c32.667 22.667 78.334 34 137.001 34c55.333 0 96.333 -13.333 123 -40c20 -19.333 30 -42 30 -68v-277l47 -47h-137v73l-120 -76c-11.333 -7.33301 -23.333 -11 -36 -11c-24 0 -45.667 12 -65 36s-29 52.667 -29 86c0 42.667 17.333 78.667 52 108
c33.333 27.333 72.666 41 117.999 41h80v67c0 18.667 -6.66699 34.667 -20 48s-30.333 20 -51 20c-18.667 0 -36 -8 -52 -24zM220 221c-29.333 0 -52.833 -10.167 -70.5 -30.5s-26.5 -47.833 -26.5 -82.5c0 -14 5.33301 -26.833 16 -38.5s22 -17.5 34 -17.5
c6.66699 0 12 1.33301 16 4l90 57v108h-59zM77 545l139 -63l-93 94c-16 16 -29.667 24 -41 24c-16 0 -24 -7.66699 -24 -23s6.33301 -26 19 -32z" />
    <glyph glyph-name="aacute" unicode="&#xe1;" horiz-adv-x="433" 
d="M156 368l-77 -77v107c32.667 22.667 78.334 34 137.001 34c55.333 0 96.333 -13.333 123 -40c20 -19.333 30 -42 30 -68v-277l47 -47h-137v73l-120 -76c-11.333 -7.33301 -23.333 -11 -36 -11c-24 0 -45.667 12 -65 36s-29 52.667 -29 86c0 42.667 17.333 78.667 52 108
c33.333 27.333 72.666 41 117.999 41h80v67c0 18.667 -6.66699 34.667 -20 48s-30.333 20 -51 20c-18.667 0 -36 -8 -52 -24zM220 221c-29.333 0 -52.833 -10.167 -70.5 -30.5s-26.5 -47.833 -26.5 -82.5c0 -14 5.33301 -26.833 16 -38.5s22 -17.5 34 -17.5
c6.66699 0 12 1.33301 16 4l90 57v108h-59zM353 545l-139 -63l93 94c16 16 29.667 24 41 24c16 0 24 -7.66699 24 -23s-6.33301 -26 -19 -32z" />
    <glyph glyph-name="acircumflex" unicode="&#xe2;" horiz-adv-x="433" 
d="M156 368l-77 -77v107c32.667 22.667 78.334 34 137.001 34c55.333 0 96.333 -13.333 123 -40c20 -19.333 30 -42 30 -68v-277l47 -47h-137v73l-120 -76c-11.333 -7.33301 -23.333 -11 -36 -11c-24 0 -45.667 12 -65 36s-29 52.667 -29 86c0 42.667 17.333 78.667 52 108
c33.333 27.333 72.666 41 117.999 41h80v67c0 18.667 -6.66699 34.667 -20 48s-30.333 20 -51 20c-18.667 0 -36 -8 -52 -24zM220 221c-29.333 0 -52.833 -10.167 -70.5 -30.5s-26.5 -47.833 -26.5 -82.5c0 -14 5.33301 -26.833 16 -38.5s22 -17.5 34 -17.5
c6.66699 0 12 1.33301 16 4l90 57v108h-59zM346 456h-19l-114 61l-114 -61h-18l132 133z" />
    <glyph glyph-name="atilde" unicode="&#xe3;" horiz-adv-x="433" 
d="M156 368l-77 -77v107c32.667 22.667 78.334 34 137.001 34c55.333 0 96.333 -13.333 123 -40c20 -19.333 30 -42 30 -68v-277l47 -47h-137v73l-120 -76c-11.333 -7.33301 -23.333 -11 -36 -11c-24 0 -45.667 12 -65 36s-29 52.667 -29 86c0 42.667 17.333 78.667 52 108
c33.333 27.333 72.666 41 117.999 41h80v67c0 18.667 -6.66699 34.667 -20 48s-30.333 20 -51 20c-18.667 0 -36 -8 -52 -24zM220 221c-29.333 0 -52.833 -10.167 -70.5 -30.5s-26.5 -47.833 -26.5 -82.5c0 -14 5.33301 -26.833 16 -38.5s22 -17.5 34 -17.5
c6.66699 0 12 1.33301 16 4l90 57v108h-59zM131 481l-1.00098 -2h-21l2 4c15.333 43.333 44 65 86 65c18 0 33.167 -4.83301 45.5 -14.5s21.833 -14.5 28.5 -14.5c12.667 0 24.334 9.33301 35.001 28l1 1h20l-1 -4c-15.333 -43.333 -44.333 -65 -87 -65
c-14.667 0 -28.667 4.83301 -42 14.5s-23.666 14.5 -30.999 14.5c-14.667 0 -26.334 -9 -35.001 -27z" />
    <glyph glyph-name="adieresis" unicode="&#xe4;" horiz-adv-x="433" 
d="M156 368l-77 -77v107c32.667 22.667 78.334 34 137.001 34c55.333 0 96.333 -13.333 123 -40c20 -19.333 30 -42 30 -68v-277l47 -47h-137v73l-120 -76c-11.333 -7.33301 -23.333 -11 -36 -11c-24 0 -45.667 12 -65 36s-29 52.667 -29 86c0 42.667 17.333 78.667 52 108
c33.333 27.333 72.666 41 117.999 41h80v67c0 18.667 -6.66699 34.667 -20 48s-30.333 20 -51 20c-18.667 0 -36 -8 -52 -24zM220 221c-29.333 0 -52.833 -10.167 -70.5 -30.5s-26.5 -47.833 -26.5 -82.5c0 -14 5.33301 -26.833 16 -38.5s22 -17.5 34 -17.5
c6.66699 0 12 1.33301 16 4l90 57v108h-59zM330 534c0 -11.333 -4.33301 -21.333 -13 -30s-19 -13 -31 -13c-11.333 0 -21.333 4.33301 -30 13s-13 18.667 -13 30s4.33301 21.333 13 30s18.667 13 30 13c12 0 22.333 -4.33301 31 -13s13 -18.667 13 -30zM191 535
c0 -12 -4.33301 -22.333 -13 -31s-18.667 -13 -30 -13s-21.333 4.33301 -30 13s-13 19 -13 31c0 11.333 4.33301 21.333 13 30s18.667 13 30 13s21.333 -4.33301 30 -13s13 -18.667 13 -30z" />
    <glyph glyph-name="aring" unicode="&#xe5;" horiz-adv-x="433" 
d="M156 368l-77 -77v107c32.667 22.667 78.334 34 137.001 34c55.333 0 96.333 -13.333 123 -40c20 -19.333 30 -42 30 -68v-277l47 -47h-137v73l-120 -76c-11.333 -7.33301 -23.333 -11 -36 -11c-24 0 -45.667 12 -65 36s-29 52.667 -29 86c0 42.667 17.333 78.667 52 108
c33.333 27.333 72.666 41 117.999 41h80v67c0 18.667 -6.66699 34.667 -20 48s-30.333 20 -51 20c-18.667 0 -36 -8 -52 -24zM220 221c-29.333 0 -52.833 -10.167 -70.5 -30.5s-26.5 -47.833 -26.5 -82.5c0 -14 5.33301 -26.833 16 -38.5s22 -17.5 34 -17.5
c6.66699 0 12 1.33301 16 4l90 57v108h-59zM229 627c18.667 0 34.834 -6.83105 48.501 -20.498s20.5 -29.834 20.5 -48.501s-6.83301 -34.834 -20.5 -48.501s-29.834 -20.5 -48.501 -20.5s-34.834 6.83301 -48.501 20.5s-20.5 29.834 -20.5 48.501
c0 19.333 6.83301 35.666 20.5 48.999s29.834 20 48.501 20zM191 558.002c0 -10.667 3.66699 -19.667 11 -27s16.333 -11 27 -11s19.667 3.66699 27 11s11 16.333 11 27s-3.66699 19.667 -11 27s-16.333 11 -27 11s-19.667 -3.66699 -27 -11s-11 -16.333 -11 -27z" />
    <glyph glyph-name="ae" unicode="&#xe6;" horiz-adv-x="667" 
d="M160 -3c-11.333 -7.33301 -23.3311 -11 -35.998 -11c-24 0 -45.667 12 -65 36s-29 52.667 -29 86c0 42.667 17.333 78.667 52 108c33.333 27.333 72.666 41 117.999 41h80v67c0 18.667 -6.83301 34.667 -20.5 48s-30.834 20 -51.501 20c-18 0 -35 -8 -51 -24l-77 -77v106
c36 23.333 81.667 35 137 35c56 0 96.333 -13 121 -39c34.667 28.667 72 43 112 43c52.667 0 97.834 -19.667 135.501 -59s56.5 -85.333 56.5 -138c0 -3.33301 -0.333008 -9.33301 -1 -18h-271c0 -59.333 6 -102 18 -128c17.333 -38 49.666 -57 96.999 -57
c42 0 79 20 111 60l25 -25c-34.667 -52.667 -91.667 -79 -171 -79c-66 0 -117.333 30.333 -154 91zM221.002 221c-29.333 0 -52.833 -10.167 -70.5 -30.5s-26.5 -47.833 -26.5 -82.5c0 -14 5.33301 -26.833 16 -38.5s21.667 -17.5 33 -17.5c7.33301 0 13 1.33301 17 4l90 57
v108h-59zM370.002 261l161 0.000976562c6.66699 11.333 10 23 10 35c0 26 -9.16699 49.833 -27.5 71.5s-39.5 32.5 -63.5 32.5c-28 0 -48.667 -14.667 -62 -44c-12 -24.667 -18 -56.334 -18 -95.001z" />
    <glyph glyph-name="ccedilla" unicode="&#xe7;" horiz-adv-x="398" 
d="M165 3c-41.333 14.667 -74.333 41.3311 -99 79.998s-37 81.667 -37 129c0 58 18.333 109.167 55 153.5s82 66.5 136 66.5c41.333 0 73.333 -3.33301 96 -10c11.333 -3.33301 29 -11.666 53 -24.999v-106l-76 77c-16 16 -39.333 24 -70 24c-55.333 0 -83 -53 -83 -159
c0 -71.333 8.66699 -122 26 -152s46.333 -45 87 -45c36.667 0 67.334 13 92.001 39l26 -26c-42 -38.667 -87.667 -58 -137 -58c-11.333 0 -23 1 -35 3l-25 -25c17.333 -1.33301 32.166 -7.16602 44.499 -17.499s18.5 -23.5 18.5 -39.5c0 -23.333 -11.667 -42 -35 -56
c-20.667 -12.667 -45 -19 -73 -19h-16v24h16c27.333 0 41 11.333 41 34c0 10 -4 18.167 -12 24.5s-17.333 9.5 -28 9.5h-38z" />
    <glyph glyph-name="egrave" unicode="&#xe8;" horiz-adv-x="441" 
d="M411 221l-271.002 0.000976562c0 -59.333 6 -102 18 -128c17.333 -38 49.666 -57 96.999 -57c20.667 0 42.334 6 65.001 18c20.667 12 36 26 46 42l25 -25c-33.333 -52.667 -90.333 -79 -171 -79c-55.333 0 -101.666 23 -138.999 69
c-34.667 43.333 -52 93.666 -52 150.999c0 61.333 17.333 113.333 52 156c36.667 45.333 83 68 139 68c52.667 0 97.834 -19.667 135.501 -59s56.5 -85.333 56.5 -138c0 -3.33301 -0.333008 -9.33301 -1 -18zM139.998 261.001l161 0.000976562c6.66699 11.333 10 23 10 35
c0 26 -9.16699 49.833 -27.5 71.5s-39.5 32.5 -63.5 32.5c-28 0 -48.667 -14.667 -62 -44c-12 -24.667 -18 -56.334 -18 -95.001zM76.998 545.002l139 -63l-93 94c-16 16 -29.667 24 -41 24c-16 0 -24 -7.66699 -24 -23s6.33301 -26 19 -32z" />
    <glyph glyph-name="eacute" unicode="&#xe9;" horiz-adv-x="441" 
d="M411 221l-271.002 0.000976562c0 -59.333 6 -102 18 -128c17.333 -38 49.666 -57 96.999 -57c20.667 0 42.334 6 65.001 18c20.667 12 36 26 46 42l25 -25c-33.333 -52.667 -90.333 -79 -171 -79c-55.333 0 -101.666 23 -138.999 69
c-34.667 43.333 -52 93.666 -52 150.999c0 61.333 17.333 113.333 52 156c36.667 45.333 83 68 139 68c52.667 0 97.834 -19.667 135.501 -59s56.5 -85.333 56.5 -138c0 -3.33301 -0.333008 -9.33301 -1 -18zM139.998 261.001l161 0.000976562c6.66699 11.333 10 23 10 35
c0 26 -9.16699 49.833 -27.5 71.5s-39.5 32.5 -63.5 32.5c-28 0 -48.667 -14.667 -62 -44c-12 -24.667 -18 -56.334 -18 -95.001zM358.998 549.002l-139 -63l93 94c16 16 29.667 24 41 24c16 0 24 -7.66699 24 -23s-6.33301 -26 -19 -32z" />
    <glyph glyph-name="ecircumflex" unicode="&#xea;" horiz-adv-x="441" 
d="M411 221l-271.002 0.000976562c0 -59.333 6 -102 18 -128c17.333 -38 49.666 -57 96.999 -57c20.667 0 42.334 6 65.001 18c20.667 12 36 26 46 42l25 -25c-33.333 -52.667 -90.333 -79 -171 -79c-55.333 0 -101.666 23 -138.999 69
c-34.667 43.333 -52 93.666 -52 150.999c0 61.333 17.333 113.333 52 156c36.667 45.333 83 68 139 68c52.667 0 97.834 -19.667 135.501 -59s56.5 -85.333 56.5 -138c0 -3.33301 -0.333008 -9.33301 -1 -18zM139.998 261.001l161 0.000976562c6.66699 11.333 10 23 10 35
c0 26 -9.16699 49.833 -27.5 71.5s-39.5 32.5 -63.5 32.5c-28 0 -48.667 -14.667 -62 -44c-12 -24.667 -18 -56.334 -18 -95.001zM353.998 450.002h-19l-114 61l-114 -61h-18l132 133z" />
    <glyph glyph-name="edieresis" unicode="&#xeb;" horiz-adv-x="441" 
d="M411 221l-271.002 0.000976562c0 -59.333 6 -102 18 -128c17.333 -38 49.666 -57 96.999 -57c20.667 0 42.334 6 65.001 18c20.667 12 36 26 46 42l25 -25c-33.333 -52.667 -90.333 -79 -171 -79c-55.333 0 -101.666 23 -138.999 69
c-34.667 43.333 -52 93.666 -52 150.999c0 61.333 17.333 113.333 52 156c36.667 45.333 83 68 139 68c52.667 0 97.834 -19.667 135.501 -59s56.5 -85.333 56.5 -138c0 -3.33301 -0.333008 -9.33301 -1 -18zM139.998 261.001l161 0.000976562c6.66699 11.333 10 23 10 35
c0 26 -9.16699 49.833 -27.5 71.5s-39.5 32.5 -63.5 32.5c-28 0 -48.667 -14.667 -62 -44c-12 -24.667 -18 -56.334 -18 -95.001zM346.998 534.002c0 -11.333 -4.33301 -21.333 -13 -30s-19 -13 -31 -13c-11.333 0 -21.333 4.33301 -30 13s-13 18.667 -13 30
s4.33301 21.333 13 30s18.667 13 30 13c12 0 22.333 -4.33301 31 -13s13 -18.667 13 -30zM207.998 535.002c0 -12 -4.33301 -22.333 -13 -31s-18.667 -13 -30 -13s-21.333 4.33301 -30 13s-13 19 -13 31c0 11.333 4.33301 21.333 13 30s18.667 13 30 13
s21.333 -4.33301 30 -13s13 -18.667 13 -30z" />
    <glyph glyph-name="igrave" unicode="&#xec;" horiz-adv-x="250" 
d="M213 0h-184l47 47v288l-45 45l135 49v-382zM-23 542l139 -63l-93 94c-16 16 -29.667 24 -41 24c-16 0 -24 -7.66699 -24 -23s6.33301 -26 19 -32z" />
    <glyph glyph-name="iacute" unicode="&#xed;" horiz-adv-x="250" 
d="M213 0h-184l47 47v288l-45 45l135 49v-382zM245 542l-139 -63l93 94c16 16 29.667 24 41 24c16 0 24 -7.66699 24 -23s-6.33301 -26 -19 -32z" />
    <glyph glyph-name="icircumflex" unicode="&#xee;" horiz-adv-x="250" 
d="M213 0h-184l47 47v288l-45 45l135 49v-382zM264 488h-19l-114 61l-114 -61h-18l132 133z" />
    <glyph glyph-name="idieresis" unicode="&#xef;" horiz-adv-x="250" 
d="M213 0h-184l47 47v288l-45 45l135 49v-382zM244 534c0 -11.333 -4.33301 -21.333 -13 -30s-19 -13 -31 -13c-11.333 0 -21.333 4.33301 -30 13s-13 18.667 -13 30s4.33301 21.333 13 30s18.667 13 30 13c12 0 22.333 -4.33301 31 -13s13 -18.667 13 -30zM105 535
c0 -12 -4.33301 -22.333 -13 -31s-18.667 -13 -30 -13s-21.333 4.33301 -30 13s-13 19 -13 31c0 11.333 4.33301 21.333 13 30s18.667 13 30 13s21.333 -4.33301 30 -13s13 -18.667 13 -30z" />
    <glyph glyph-name="eth" unicode="&#xf0;" horiz-adv-x="467" 
d="M245 511c-20 22.667 -42.665 38.3311 -67.998 46.998l-48 10l10 27c52 0 100.667 -16.333 146 -49l67 59h61l-96 -86c36.667 -35.333 65 -80.666 85 -135.999c18 -51.333 27 -104.666 27 -159.999c0 -70.667 -17.333 -127 -52 -169
c-36.667 -44.667 -87.334 -67 -152.001 -67c-48 0 -91.333 18 -130 54c-41.333 38 -62 83.333 -62 136c0 50.667 17.167 94 51.5 130s74.166 54 119.499 54c50 0 91 -17.333 123 -52c-12.667 72 -31.667 128.333 -57 169l-64 -56h-62zM225.002 22.9971
c37.333 0 66.001 18.001 86.001 54.001c17.333 31.333 26 72.666 26 123.999c0 39.333 -11.333 69.333 -34 90c-18.667 16.667 -41.334 25 -68.001 25c-68.667 0 -103 -47.333 -103 -142c0 -40 8.33301 -74.667 25 -104c18 -31.333 40.667 -47 68 -47z" />
    <glyph glyph-name="ntilde" unicode="&#xf1;" horiz-adv-x="492" 
d="M193 381c42 42 84.3311 63 126.998 63c28.667 0 53.834 -9 75.501 -27s32.5 -40.667 32.5 -68v-302l46 -47h-136v328c0 10.667 -4.33301 21.667 -13 33c-10.667 13.333 -24.667 20 -42 20c-25.333 0 -53.666 -15.667 -84.999 -47l-41 -41v-246l46 -47h-183l47 47v288
l-45 45l135 49v-84zM191.998 494l-1.00098 -2h-21l2 4c15.333 43.333 44 65 86 65c18 0 33.167 -4.83301 45.5 -14.5s21.833 -14.5 28.5 -14.5c12.667 0 24.334 9.33301 35.001 28l1 1h20l-1 -4c-15.333 -43.333 -44.333 -65 -87 -65c-14.667 0 -28.667 4.83301 -42 14.5
s-23.666 14.5 -30.999 14.5c-14.667 0 -26.334 -9 -35.001 -27z" />
    <glyph glyph-name="ograve" unicode="&#xf2;" horiz-adv-x="482" 
d="M29 212c0 60.667 20.5 113.167 61.5 157.5s91.167 66.5 150.5 66.5s109.5 -22.167 150.5 -66.5s61.5 -96.833 61.5 -157.5s-20.5 -113.334 -61.5 -158.001s-91.167 -67 -150.5 -67s-109.5 22.333 -150.5 67s-61.5 97.334 -61.5 158.001zM241 23c67.333 0 101 63 101 189
c0 125.333 -33.667 188 -101 188s-101 -62.667 -101 -188c0 -126 33.667 -189 101 -189zM102 549l139 -63l-93 94c-16 16 -29.667 24 -41 24c-16 0 -24 -7.66699 -24 -23s6.33301 -26 19 -32z" />
    <glyph glyph-name="oacute" unicode="&#xf3;" horiz-adv-x="482" 
d="M29 212c0 60.667 20.5 113.167 61.5 157.5s91.167 66.5 150.5 66.5s109.5 -22.167 150.5 -66.5s61.5 -96.833 61.5 -157.5s-20.5 -113.334 -61.5 -158.001s-91.167 -67 -150.5 -67s-109.5 22.333 -150.5 67s-61.5 97.334 -61.5 158.001zM241 23c67.333 0 101 63 101 189
c0 125.333 -33.667 188 -101 188s-101 -62.667 -101 -188c0 -126 33.667 -189 101 -189zM380 549l-139 -63l93 94c16 16 29.667 24 41 24c16 0 24 -7.66699 24 -23s-6.33301 -26 -19 -32z" />
    <glyph glyph-name="ocircumflex" unicode="&#xf4;" horiz-adv-x="482" 
d="M29 212c0 60.667 20.5 113.167 61.5 157.5s91.167 66.5 150.5 66.5s109.5 -22.167 150.5 -66.5s61.5 -96.833 61.5 -157.5s-20.5 -113.334 -61.5 -158.001s-91.167 -67 -150.5 -67s-109.5 22.333 -150.5 67s-61.5 97.334 -61.5 158.001zM241 23c67.333 0 101 63 101 189
c0 125.333 -33.667 188 -101 188s-101 -62.667 -101 -188c0 -126 33.667 -189 101 -189zM374 453h-19l-114 61l-114 -61h-18l132 133z" />
    <glyph glyph-name="otilde" unicode="&#xf5;" horiz-adv-x="482" 
d="M29 212c0 60.667 20.5 113.167 61.5 157.5s91.167 66.5 150.5 66.5s109.5 -22.167 150.5 -66.5s61.5 -96.833 61.5 -157.5s-20.5 -113.334 -61.5 -158.001s-91.167 -67 -150.5 -67s-109.5 22.333 -150.5 67s-61.5 97.334 -61.5 158.001zM241 23c67.333 0 101 63 101 189
c0 125.333 -33.667 188 -101 188s-101 -62.667 -101 -188c0 -126 33.667 -189 101 -189zM156 487l-1.00098 -2h-21l2 4c15.333 43.333 44 65 86 65c18 0 33.167 -4.83301 45.5 -14.5s21.833 -14.5 28.5 -14.5c12.667 0 24.334 9.33301 35.001 28l1 1h20l-1 -4
c-15.333 -43.333 -44.333 -65 -87 -65c-14.667 0 -28.667 4.83301 -42 14.5s-23.666 14.5 -30.999 14.5c-14.667 0 -26.334 -9 -35.001 -27z" />
    <glyph glyph-name="odieresis" unicode="&#xf6;" horiz-adv-x="482" 
d="M29 212c0 60.667 20.5 113.167 61.5 157.5s91.167 66.5 150.5 66.5s109.5 -22.167 150.5 -66.5s61.5 -96.833 61.5 -157.5s-20.5 -113.334 -61.5 -158.001s-91.167 -67 -150.5 -67s-109.5 22.333 -150.5 67s-61.5 97.334 -61.5 158.001zM241 23c67.333 0 101 63 101 189
c0 125.333 -33.667 188 -101 188s-101 -62.667 -101 -188c0 -126 33.667 -189 101 -189zM360 534c0 -11.333 -4.33301 -21.333 -13 -30s-19 -13 -31 -13c-11.333 0 -21.333 4.33301 -30 13s-13 18.667 -13 30s4.33301 21.333 13 30s18.667 13 30 13
c12 0 22.333 -4.33301 31 -13s13 -18.667 13 -30zM221 535c0 -12 -4.33301 -22.333 -13 -31s-18.667 -13 -30 -13s-21.333 4.33301 -30 13s-13 19 -13 31c0 11.333 4.33301 21.333 13 30s18.667 13 30 13s21.333 -4.33301 30 -13s13 -18.667 13 -30z" />
    <glyph glyph-name="divide" unicode="&#xf7;" 
 />
    <glyph glyph-name="oslash" unicode="&#xf8;" horiz-adv-x="482" 
d="M453 212c0 -60.667 -20.5 -113.334 -61.5 -158.001s-91.167 -67 -150.5 -67c-30.667 0 -62 7.66699 -94 23l-29 -52h-45l41 75c-56.667 43.333 -85 103 -85 179c0 60.667 20.5 113.167 61.5 157.5s91.167 66.5 150.5 66.5c29.333 0 58.333 -6.66699 87 -20l28 49h48
l-41 -72c60 -43.333 90 -103.666 90 -180.999zM304 371c-18 19.333 -39 29 -63 29c-67.333 0 -101 -62.667 -101 -188c0 -42 4.66699 -78.333 14 -109zM173 58c21.333 -23.333 44 -35 68 -35c67.333 0 101 63 101 189c0 46 -5.33301 84 -16 114z" />
    <glyph glyph-name="ugrave" unicode="&#xf9;" horiz-adv-x="468" 
d="M268 380l135.002 49v-382l47 -47h-137v78l-35 -35c-40.667 -40.667 -79.667 -61 -117 -61c-26.667 0 -50.334 10 -71.001 30c-18 18 -27 36 -27 54v269l-45 45l135 49v-342c0 -10.667 3 -20.667 9 -30c8 -12.667 18.667 -19 32 -19c19.333 0 45.666 17 78.999 51l40 41
v205zM77.002 545l139 -63l-93 94c-16 16 -29.667 24 -41 24c-16 0 -24 -7.66699 -24 -23s6.33301 -26 19 -32z" />
    <glyph glyph-name="uacute" unicode="&#xfa;" horiz-adv-x="468" 
d="M268 380l135.002 49v-382l47 -47h-137v78l-35 -35c-40.667 -40.667 -79.667 -61 -117 -61c-26.667 0 -50.334 10 -71.001 30c-18 18 -27 36 -27 54v269l-45 45l135 49v-342c0 -10.667 3 -20.667 9 -30c8 -12.667 18.667 -19 32 -19c19.333 0 45.666 17 78.999 51l40 41
v205zM353.002 544l-139 -63l93 94c16 16 29.667 24 41 24c16 0 24 -7.66699 24 -23s-6.33301 -26 -19 -32z" />
    <glyph glyph-name="ucircumflex" unicode="&#xfb;" horiz-adv-x="468" 
d="M268 380l135.002 49v-382l47 -47h-137v78l-35 -35c-40.667 -40.667 -79.667 -61 -117 -61c-26.667 0 -50.334 10 -71.001 30c-18 18 -27 36 -27 54v269l-45 45l135 49v-342c0 -10.667 3 -20.667 9 -30c8 -12.667 18.667 -19 32 -19c19.333 0 45.666 17 78.999 51l40 41
v205zM381.002 488h-19l-114 61l-114 -61h-18l132 133z" />
    <glyph glyph-name="udieresis" unicode="&#xfc;" horiz-adv-x="468" 
d="M268 380l135.002 49v-382l47 -47h-137v78l-35 -35c-40.667 -40.667 -79.667 -61 -117 -61c-26.667 0 -50.334 10 -71.001 30c-18 18 -27 36 -27 54v269l-45 45l135 49v-342c0 -10.667 3 -20.667 9 -30c8 -12.667 18.667 -19 32 -19c19.333 0 45.666 17 78.999 51l40 41
v205zM368.002 534c0 -11.333 -4.33301 -21.333 -13 -30s-19 -13 -31 -13c-11.333 0 -21.333 4.33301 -30 13s-13 18.667 -13 30s4.33301 21.333 13 30s18.667 13 30 13c12 0 22.333 -4.33301 31 -13s13 -18.667 13 -30zM229.002 535c0 -12 -4.33301 -22.333 -13 -31
s-18.667 -13 -30 -13s-21.333 4.33301 -30 13s-13 19 -13 31c0 11.333 4.33301 21.333 13 30s18.667 13 30 13s21.333 -4.33301 30 -13s13 -18.667 13 -30z" />
    <glyph glyph-name="yacute" unicode="&#xfd;" horiz-adv-x="417" 
d="M43 368l-47 47h187l-45 -46l98 -249l97 249l-45 46h145l-47 -47l-190 -489l46 -46h-169l70 47l47 123zM352 528l-139 -63l93 94c16 16 29.667 24 41 24c16 0 24 -7.66699 24 -23s-6.33301 -26 -19 -32z" />
    <glyph glyph-name="thorn" unicode="&#xfe;" horiz-adv-x="482" 
d="M22 584l135 49v-264c30 42.667 70.333 64 121 64c48 0 88.333 -22.333 121 -67s49 -96 49 -154c0 -58.667 -15.667 -109.667 -47 -153c-33.333 -46 -74.333 -69 -123 -69c-52 0 -92.333 21.667 -121 65v-175l46 -47h-183l47 47v659zM248 383
c-44 0 -74.333 -22.667 -91 -68v-207c16.667 -45.333 47 -68 91 -68c60 0 90 57.333 90 172c0 51.333 -4.33301 89.333 -13 114c-14 38 -39.667 57 -77 57z" />
    <glyph glyph-name="ydieresis" unicode="&#xff;" horiz-adv-x="417" 
d="M43 368l-47 47h187l-45 -46l98 -249l97 249l-45 46h145l-47 -47l-190 -489l46 -46h-169l70 47l47 123zM351 534c0 -11.333 -4.33301 -21.333 -13 -30s-19 -13 -31 -13c-11.333 0 -21.333 4.33301 -30 13s-13 18.667 -13 30s4.33301 21.333 13 30s18.667 13 30 13
c12 0 22.333 -4.33301 31 -13s13 -18.667 13 -30zM212 535c0 -12 -4.33301 -22.333 -13 -31s-18.667 -13 -30 -13s-21.333 4.33301 -30 13s-13 19 -13 31c0 11.333 4.33301 21.333 13 30s18.667 13 30 13s21.333 -4.33301 30 -13s13 -18.667 13 -30z" />
    <glyph glyph-name="glyph271" unicode="&#x102;" horiz-adv-x="504" 
d="M92 50l50 -50h-159l52 52l188 538h55l183 -538l52 -52h-200l50 50l-39 117h-193zM229 451l-81 -236h160zM141 760h14.002l1 -1c16.667 -43.333 48.667 -65 96 -65s79.666 21.667 96.999 65l1 1h14v-3c0 -32 -10.833 -59.333 -32.5 -82s-48.167 -34 -79.5 -34
c-30.667 0 -56.834 11.333 -78.501 34s-32.5 50 -32.5 82v3z" />
    <glyph glyph-name="glyph272" unicode="&#x103;" horiz-adv-x="433" 
d="M156 368l-77 -77v107c32.667 22.667 78.334 34 137.001 34c55.333 0 96.333 -13.333 123 -40c20 -19.333 30 -42 30 -68v-277l47 -47h-137v73l-120 -76c-11.333 -7.33301 -23.333 -11 -36 -11c-24 0 -45.667 12 -65 36s-29 52.667 -29 86c0 42.667 17.333 78.667 52 108
c33.333 27.333 72.666 41 117.999 41h80v67c0 18.667 -6.66699 34.667 -20 48s-30.333 20 -51 20c-18.667 0 -36 -8 -52 -24zM220 221c-29.333 0 -52.833 -10.167 -70.5 -30.5s-26.5 -47.833 -26.5 -82.5c0 -14 5.33301 -26.833 16 -38.5s22 -17.5 34 -17.5
c6.66699 0 12 1.33301 16 4l90 57v108h-59zM111 599h14.002l1 -1c16.667 -43.333 48.667 -65 96 -65s79.666 21.667 96.999 65l1 1h14v-3c0 -32 -10.833 -59.333 -32.5 -82s-48.167 -34 -79.5 -34c-30.667 0 -56.834 11.333 -78.501 34s-32.5 50 -32.5 82v3z" />
    <glyph glyph-name="Cacute" unicode="&#x106;" horiz-adv-x="711" 
d="M283 598c59.333 0 109 -11.668 149 -35.001v-122l-81 81c-18.667 18.667 -41.334 28 -68.001 28c-51.333 0 -89.333 -28 -114 -84c-19.333 -44.667 -29 -101.667 -29 -171c0 -68 10.333 -125 31 -171c24.667 -56 62 -84 112 -84c26.667 0 49.334 9.33301 68.001 28l81 81
v-123c-39.333 -22.667 -89 -34 -149 -34c-74 0 -135.333 31.333 -184 94c-46.667 58.667 -70 128.334 -70 209.001c0 81.333 23.667 151.333 71 210c49.333 62 110.333 93 183 93zM348 871.999l-139 -63l93 94c16 16 29.667 24 41 24c16 0 24 -7.66699 24 -23
s-6.33301 -26 -19 -32z" />
    <glyph glyph-name="cacute" unicode="&#x107;" horiz-adv-x="441" 
d="M223 392c-55.333 0 -83.001 -53.001 -83.001 -159.001c0 -71.333 8.66699 -122 26 -152s46.333 -45 87 -45c36.667 0 67.334 13 92.001 39l26 -26c-42 -38.667 -87.667 -58 -137 -58c-60 0 -109.667 22.333 -149 67c-37.333 42 -56 93.333 -56 154
c0 58 18.333 109.167 55 153.5s82 66.5 136 66.5c41.333 0 73.333 -3.33301 96 -10c11.333 -3.33301 29 -11.666 53 -24.999v-106l-76 77c-16 16 -39.333 24 -70 24zM148.999 616.999l-139 -63l93 94c16 16 29.667 24 41 24c16 0 24 -7.66699 24 -23s-6.33301 -26 -19 -32z
" />
    <glyph glyph-name="Ccaron" unicode="&#x10c;" horiz-adv-x="711" 
d="M283 598c59.333 0 109 -11.668 149 -35.001v-122l-81 81c-18.667 18.667 -41.334 28 -68.001 28c-51.333 0 -89.333 -28 -114 -84c-19.333 -44.667 -29 -101.667 -29 -171c0 -68 10.333 -125 31 -171c24.667 -56 62 -84 112 -84c26.667 0 49.334 9.33301 68.001 28l81 81
v-123c-39.333 -22.667 -89 -34 -149 -34c-74 0 -135.333 31.333 -184 94c-46.667 58.667 -70 128.334 -70 209.001c0 81.333 23.667 151.333 71 210c49.333 62 110.333 93 183 93zM219 923.999h18l114 -61l114 61h19l-133 -132z" />
    <glyph glyph-name="ccaron" unicode="&#x10d;" horiz-adv-x="441" 
d="M223 392c-55.333 0 -83.001 -53.001 -83.001 -159.001c0 -71.333 8.66699 -122 26 -152s46.333 -45 87 -45c36.667 0 67.334 13 92.001 39l26 -26c-42 -38.667 -87.667 -58 -137 -58c-60 0 -109.667 22.333 -149 67c-37.333 42 -56 93.333 -56 154
c0 58 18.333 109.167 55 153.5s82 66.5 136 66.5c41.333 0 73.333 -3.33301 96 -10c11.333 -3.33301 29 -11.666 53 -24.999v-106l-76 77c-16 16 -39.333 24 -70 24zM19.999 668.999h18l114 -61l114 61h19l-133 -132z" />
    <glyph glyph-name="Dslash" unicode="&#x110;" horiz-adv-x="553" 
d="M170 335h119l-10 -86h-109v-201h80c52.667 0 94 26.667 124 80c26 46 39 101.667 39 167s-13 121 -39 167c-30 53.333 -71.333 80 -124 80h-80v-207zM10 249l10 86h60v204l-51 51h242c73.333 0 134.666 -30.333 183.999 -91c46 -57.333 69 -125.333 69 -204
s-23 -146.667 -69 -204c-49.333 -60.667 -110.666 -91 -183.999 -91h-242l51 51v198h-70z" />
    <glyph glyph-name="dcroat" unicode="&#x111;" horiz-adv-x="475" 
d="M321 108v207c-16.667 45.333 -50.334 68 -101.001 68c-53.333 0 -80 -57 -80 -171c0 -114.667 26.667 -172 80 -172c50.667 0 84.334 22.667 101.001 68zM214 484l-0.000976562 54.001l107 12l-44 41l134 42v-75l39 4v-78h-39v-437l47 -47h-137v55
c-31.333 -44 -73.666 -66 -126.999 -66c-44.667 0 -83.334 22.667 -116.001 68s-49 97 -49 155c0 57.333 16.333 108.666 49 153.999s71.334 68 116.001 68c54 0 96.333 -22 127 -66v116h-107z" />
    <glyph glyph-name="Gbreve" unicode="&#x11e;" horiz-adv-x="767" 
d="M353 319h192.001l-51 -51v-233c-30.667 -16.667 -50.334 -26.667 -59.001 -30c-27.333 -8.66699 -65.333 -13 -114 -13c-80 0 -148.667 30 -206 90s-86 131 -86 213s28.667 153 86 213s126 90 206 90c56 0 105.333 -11.333 148 -34v-123l-81 81
c-18.667 18.667 -41 28 -67 28c-53.333 0 -97.333 -27 -132 -81c-32 -50 -48 -108 -48 -174c0 -65.333 16 -123 48 -173c34.667 -54.667 78.667 -82 132 -82c29.333 0 57 9.66699 83 29v199zM243.001 924h14.002l1 -1c16.667 -43.333 48.667 -65 96 -65
s79.666 21.667 96.999 65l1 1h14v-3c0 -32 -10.833 -59.333 -32.5 -82s-48.167 -34 -79.5 -34c-30.667 0 -56.834 11.333 -78.501 34s-32.5 50 -32.5 82v3z" />
    <glyph glyph-name="gbreve" unicode="&#x11f;" horiz-adv-x="492" 
d="M158 166v-76h39c50 0 93 -10 129 -30c41.333 -23.333 62 -56 62 -98s-20.667 -75 -62 -99c-36 -20 -79 -30 -129 -30h-190l69 92l47 -48h74c80.667 0 121 20 121 60c0 42 -40.333 63 -121 63h-108v188c-41.333 28 -62 62.333 -62 103c0 39.333 18 71 54 95
c32 22 70.667 33 116 33h216l-65 -66c12.667 -25.333 19 -46 19 -62c0 -40 -18.333 -72 -55 -96c-32 -21.333 -70.333 -32 -115 -32c-5.33301 0 -12 0.5 -20 1.5s-14.333 1.5 -19 1.5zM197 388c-23.333 0 -42.5 -9.66699 -57.5 -29s-22.5 -42 -22.5 -68
s7.5 -48.667 22.5 -68s34.167 -29 57.5 -29s42.5 9.66699 57.5 29s22.5 42 22.5 68s-7.5 48.667 -22.5 68s-34.167 29 -57.5 29zM43 669h14.002l1 -1c16.667 -43.333 48.667 -65 96 -65s79.666 21.667 96.999 65l1 1h14v-3c0 -32 -10.833 -59.333 -32.5 -82
s-48.167 -34 -79.5 -34c-30.667 0 -56.834 11.333 -78.501 34s-32.5 50 -32.5 82v3z" />
    <glyph glyph-name="glyph273" unicode="&#x128;" horiz-adv-x="267" 
d="M38 590h191l-51 -51v-488l51 -51h-191l50 51v488zM49 642l-1.00098 -2h-21l2 4c15.333 43.333 44 65 86 65c18 0 33.167 -4.83301 45.5 -14.5s21.833 -14.5 28.5 -14.5c12.667 0 24.334 9.33301 35.001 28l1 1h20l-1 -4c-15.333 -43.333 -44.333 -65 -87 -65
c-14.667 0 -28.667 4.83301 -42 14.5s-23.666 14.5 -30.999 14.5c-14.667 0 -26.334 -9 -35.001 -27z" />
    <glyph glyph-name="glyph274" unicode="&#x129;" horiz-adv-x="250" 
d="M213 0h-184l47 47v288l-45 45l135 49v-382zM25 481l-1.00098 -2h-21l2 4c15.333 43.333 44 65 86 65c18 0 33.167 -4.83301 45.5 -14.5s21.833 -14.5 28.5 -14.5c12.667 0 24.334 9.33301 35.001 28l1 1h20l-1 -4c-15.333 -43.333 -44.333 -65 -87 -65
c-14.667 0 -28.667 4.83301 -42 14.5s-23.666 14.5 -30.999 14.5c-14.667 0 -26.334 -9 -35.001 -27z" />
    <glyph glyph-name="Idotaccent" unicode="&#x130;" horiz-adv-x="429" 
d="M38 590h191l-51 -51v-488l51 -51h-191l50 51v488zM170 880c0 -12 -4.33301 -22.333 -13 -31s-19 -13 -31 -13s-22.333 4.33301 -31 13s-13 19 -13 31s4.33301 22.333 13 31s19 13 31 13s22.333 -4.33301 31 -13s13 -19 13 -31z" />
    <glyph glyph-name="dotlessi" unicode="&#x131;" horiz-adv-x="250" 
d="M213 0h-184l47 47v288l-45 45l135 49v-382z" />
    <glyph glyph-name="Lslash" unicode="&#x141;" horiz-adv-x="408" 
d="M83 299v240l-50 51h191l-51 -51v-143l71 77v-72l-71 -77v-276h141l68 68v-116h-349l50 51v177l-55 -60v72z" />
    <glyph glyph-name="lslash" unicode="&#x142;" horiz-adv-x="250" 
d="M25 224v52l54 54v213l-45 45l135 45v-213l67 67v-52l-67 -67v-321l47 -47h-183l46 47v231z" />
    <glyph glyph-name="OE" unicode="&#x152;" horiz-adv-x="782" 
d="M33 295c0 82 23.999 153 71.999 213c50.667 63.333 114 95 190 95c48.667 0 96.334 -21 143.001 -63v50h319v-103l-55 55h-174v-202h115l51 51v-150l-51 51h-115v-244h174l55 55v-103h-319v52c-48 -43.333 -95.667 -65 -143 -65c-76 0 -139.333 31.667 -190 95
c-48 60 -72 131 -72 213zM294.999 36c51.333 0 89.333 28.665 114 85.998c19.333 44.667 29 102.334 29 173.001s-9.66699 128.334 -29 173.001c-24.667 57.333 -62.667 86 -114 86c-52.667 0 -92.334 -28.333 -119.001 -85c-21.333 -46.667 -32 -104.667 -32 -174
s10.667 -127.333 32 -174c26.667 -56.667 66.334 -85 119.001 -85z" />
    <glyph glyph-name="oe" unicode="&#x153;" horiz-adv-x="750" 
d="M395 58c-42 -47.333 -93.333 -71.001 -154 -71.001c-59.333 0 -109.5 22.333 -150.5 67s-61.5 97.334 -61.5 158.001s20.5 113.167 61.5 157.5s91.167 66.5 150.5 66.5s110 -22.667 152 -68c36.667 45.333 83.334 68 140.001 68c52 0 96.833 -19.667 134.5 -59
s56.5 -85.333 56.5 -138c0 -3.33301 -0.333008 -9.33301 -1 -18h-270c0 -59.333 6 -102 18 -128c17.333 -38 49.666 -57 96.999 -57c20.667 0 41.667 6 63 18s37 26 47 42l25 -25c-31.333 -52.667 -88 -79 -170 -79c-56 0 -102 22 -138 66zM241 22.999
c67.333 0 101 63 101 189c0 125.333 -33.667 188 -101 188s-101 -62.667 -101 -188c0 -126 33.667 -189 101 -189zM453 260.999l160 0.000976562c6.66699 11.333 10 23 10 35c0 26 -9 49.833 -27 71.5s-39 32.5 -63 32.5c-28 0 -48.667 -14.667 -62 -44
c-12 -24.667 -18 -56.334 -18 -95.001z" />
    <glyph glyph-name="Scedilla" unicode="&#x15e;" horiz-adv-x="656" 
d="M373 179c0 -52 -14.998 -95.001 -44.998 -129.001c-34 -38.667 -82.333 -58 -145 -58c-14.667 0 -29.334 1.33301 -44.001 4l-122 22l59 108l65 -82c15.333 -8 31.333 -12 48 -12c35.333 0 62.333 12.667 81 38c14 19.333 21 41.333 21 66
c0 34.667 -13.667 60.334 -41 77.001l-142 88c-52.667 32.667 -79 77.667 -79 135c0 50 18.333 89.667 55 119c31.333 26 69.333 39 114 39c16.667 0 32 -1.33301 46 -4l117 -22l-59 -100l-60 74c-12.667 6 -25.667 9 -39 9c-26.667 0 -48.334 -8.33301 -65.001 -25
s-25 -35.667 -25 -57c0 -36 20.333 -66.667 61 -92l142 -88c38 -23.333 57 -60 57 -110zM171.002 18.999l43.001 -0.000976562l-51 -50c17.333 -1.33301 32.166 -7.16602 44.499 -17.499s18.5 -23.5 18.5 -39.5c0 -23.333 -11.667 -42 -35 -56
c-20.667 -12.667 -45 -19 -73 -19h-16v24h16c27.333 0 41 11.333 41 34c0 10 -4 18.167 -12 24.5s-17.333 9.5 -28 9.5h-38z" />
    <glyph glyph-name="scedilla" unicode="&#x15f;" horiz-adv-x="383" 
d="M328 132c0 -40 -12.334 -73.333 -37.001 -100c-27.333 -30 -64 -45 -110 -45c-14.667 0 -28.667 1.66699 -42 5l-121 30l64 82l61 -73c14 -7.33301 25.667 -11 35 -11c20.667 0 38.334 7.66699 53.001 23s22 33.333 22 54c0 19.333 -7.66699 33 -23 41l-146 79
c-32.667 18 -49 47.667 -49 89c0 35.333 11.667 65.333 35 90c25.333 27.333 59.333 41 102 41c14 0 27.333 -1.66699 40 -5l112 -30l-59 -79l-57 70c-10 6.66699 -19.333 10 -28 10c-16 0 -31.333 -6 -46 -18s-22 -26 -22 -42c0 -22 10 -38.667 30 -50l141 -79
c30 -16.667 45 -44 45 -82zM73.999 19l43.001 -0.000976562l-51 -50c17.333 -1.33301 32.166 -7.16602 44.499 -17.499s18.5 -23.5 18.5 -39.5c0 -23.333 -11.667 -42 -35 -56c-20.667 -12.667 -45 -19 -73 -19h-16v24h16c27.333 0 41 11.333 41 34c0 10 -4 18.167 -12 24.5
s-17.333 9.5 -28 9.5h-38z" />
    <glyph glyph-name="Scaron" unicode="&#x160;" horiz-adv-x="396" 
d="M373 179c0 -52 -14.998 -95.001 -44.998 -129.001c-34 -38.667 -82.333 -58 -145 -58c-14.667 0 -29.334 1.33301 -44.001 4l-122 22l59 108l65 -82c15.333 -8 31.333 -12 48 -12c35.333 0 62.333 12.667 81 38c14 19.333 21 41.333 21 66
c0 34.667 -13.667 60.334 -41 77.001l-142 88c-52.667 32.667 -79 77.667 -79 135c0 50 18.333 89.667 55 119c31.333 26 69.333 39 114 39c16.667 0 32 -1.33301 46 -4l117 -22l-59 -100l-60 74c-12.667 6 -25.667 9 -39 9c-26.667 0 -48.334 -8.33301 -65.001 -25
s-25 -35.667 -25 -57c0 -36 20.333 -66.667 61 -92l142 -88c38 -23.333 57 -60 57 -110zM70.002 756.999h18l114 -61l114 61h19l-133 -132z" />
    <glyph glyph-name="scaron" unicode="&#x161;" horiz-adv-x="354" 
d="M328 132c0 -40 -12.334 -73.333 -37.001 -100c-27.333 -30 -64 -45 -110 -45c-14.667 0 -28.667 1.66699 -42 5l-121 30l64 82l61 -73c14 -7.33301 25.667 -11 35 -11c20.667 0 38.334 7.66699 53.001 23s22 33.333 22 54c0 19.333 -7.66699 33 -23 41l-146 79
c-32.667 18 -49 47.667 -49 89c0 35.333 11.667 65.333 35 90c25.333 27.333 59.333 41 102 41c14 0 27.333 -1.66699 40 -5l112 -30l-59 -79l-57 70c-10 6.66699 -19.333 10 -28 10c-16 0 -31.333 -6 -46 -18s-22 -26 -22 -42c0 -22 10 -38.667 30 -50l141 -79
c30 -16.667 45 -44 45 -82zM39.999 611h18l114 -61l114 61h19l-133 -132z" />
    <glyph glyph-name="ch903" unicode="&#x168;" horiz-adv-x="542" 
d="M76 158v381l-51 51h192l-51 -51v-381c0 -32.667 12 -60.5 36 -83.5s52.667 -34.5 86 -34.5c32.667 0 61 11.5 85 34.5s36 50.833 36 83.5v381l-51 51h159l-51 -51v-381c0 -49.333 -19.5 -90.166 -58.5 -122.499s-84.5 -48.5 -136.5 -48.5s-97 15.667 -135 47
c-40 33.333 -60 74.666 -60 123.999zM204 642l-1.00098 -2h-21l2 4c15.333 43.333 44 65 86 65c18 0 33.167 -4.83301 45.5 -14.5s21.833 -14.5 28.5 -14.5c12.667 0 24.334 9.33301 35.001 28l1 1h20l-1 -4c-15.333 -43.333 -44.333 -65 -87 -65
c-14.667 0 -28.667 4.83301 -42 14.5s-23.666 14.5 -30.999 14.5c-14.667 0 -26.334 -9 -35.001 -27z" />
    <glyph glyph-name="ch904" unicode="&#x169;" horiz-adv-x="468" 
d="M268 380l135.002 49v-382l47 -47h-137v78l-35 -35c-40.667 -40.667 -79.667 -61 -117 -61c-26.667 0 -50.334 10 -71.001 30c-18 18 -27 36 -27 54v269l-45 45l135 49v-342c0 -10.667 3 -20.667 9 -30c8 -12.667 18.667 -19 32 -19c19.333 0 45.666 17 78.999 51l40 41
v205zM133.002 481l-1.00098 -2h-21l2 4c15.333 43.333 44 65 86 65c18 0 33.167 -4.83301 45.5 -14.5s21.833 -14.5 28.5 -14.5c12.667 0 24.334 9.33301 35.001 28l1 1h20l-1 -4c-15.333 -43.333 -44.333 -65 -87 -65c-14.667 0 -28.667 4.83301 -42 14.5
s-23.666 14.5 -30.999 14.5c-14.667 0 -26.334 -9 -35.001 -27z" />
    <glyph glyph-name="Ydieresis" unicode="&#x178;" horiz-adv-x="463" 
d="M43 538l-51 52h200l-50 -50l116 -211l113 211l-50 50h158l-51 -51l-145 -266v-222l50 -51h-191l51 51v223zM370 687c0 -11.333 -4.33301 -21.333 -13 -30s-19 -13 -31 -13c-11.333 0 -21.333 4.33301 -30 13s-13 18.667 -13 30s4.33301 21.333 13 30s18.667 13 30 13
c12 0 22.333 -4.33301 31 -13s13 -18.667 13 -30zM231 688c0 -12 -4.33301 -22.333 -13 -31s-18.667 -13 -30 -13s-21.333 4.33301 -30 13s-13 19 -13 31c0 11.333 4.33301 21.333 13 30s18.667 13 30 13s21.333 -4.33301 30 -13s13 -18.667 13 -30z" />
    <glyph glyph-name="Zcaron" unicode="&#x17d;" horiz-adv-x="419" 
d="M97 542l-68 -68v116h364l-255 -542h185l67 68v-116h-367l254 542h-180zM89 757h18l114 -61l114 61h19l-133 -132z" />
    <glyph glyph-name="zcaron" unicode="&#x17e;" horiz-adv-x="354" 
d="M31 308v107h301l-196 -375h122l67 68v-108h-301l196 375h-122zM54 592h18l114 -61l114 61h19l-133 -132z" />
    <glyph glyph-name="florin" unicode="&#x192;" horiz-adv-x="292" 
d="M33 358l54.999 55.001v57c0 44.667 14 82 42 112c24.667 27.333 52.334 41 83.001 41h135l-69 -91l-56 56c-30 -12 -45 -32.667 -45 -62v-111h84v-40h-84v-388c0 -44.667 -13.667 -82.334 -41 -113.001c-25.333 -27.333 -53.333 -41 -84 -41h-136l70 92l56 -56
c30 12 45 32.667 45 62v427h-55z" />
    <glyph glyph-name="glyph277" unicode="&#x1a0;" horiz-adv-x="565" 
d="M140 295c0 -70.667 9.66699 -128.334 29 -173.001c24.667 -57.333 62.667 -86 114 -86c50.667 0 88.334 28.667 113.001 86c19.333 44.667 29 102.334 29 173.001s-9.66699 128.334 -29 173.001c-24.667 57.333 -62.334 86 -113.001 86
c-51.333 0 -89.333 -28.667 -114 -86c-19.333 -44.667 -29 -102.334 -29 -173.001zM482 548c0 9.33301 -2.66504 17.335 -7.99805 24.002s-12.333 10 -21 10c-4 0 -8.33301 -1 -13 -3c-0.666992 12.667 4 23 14 31c4.66699 5.33301 11.667 8 21 8
c6.66699 0 13.667 -1.66699 21 -5c22 -8.66699 33 -26.334 33 -53.001c0 -35.333 -16 -59.333 -48 -72c36.667 -56.667 55 -121 55 -193c0 -81.333 -22.667 -152 -68 -212c-48.667 -64 -110.334 -96 -185.001 -96s-136.334 32 -185.001 96c-46 60 -69 130.667 -69 212
s22.667 152 68 212c49.333 64 111.333 96 186 96c70 0 128.667 -28.667 176 -86c15.333 7.33301 23 17.666 23 30.999z" />
    <glyph glyph-name="glyph278" unicode="&#x1a1;" horiz-adv-x="482" 
d="M241 23c67.333 0 101 63 101 189c0 125.333 -33.667 188 -101 188s-101 -62.667 -101 -188c0 -126 33.667 -189 101 -189zM417 381c0 8.66699 -2.66797 16.499 -8.00098 23.499s-12 10.5 -20 10.5c-4.66699 0 -9 -1 -13 -3c-0.666992 12 4 22.333 14 31
c4.66699 4.66699 11.334 7 20.001 7c6.66699 0 14 -1.33301 22 -4c22 -8.66699 33 -26.667 33 -54c0 -31.333 -13.667 -54 -41 -68c19.333 -34.667 29 -72 29 -112c0 -60.667 -20.5 -113.334 -61.5 -158.001s-91.167 -67 -150.5 -67s-109.5 22.333 -150.5 67
s-61.5 97.334 -61.5 158.001s20.5 113.167 61.5 157.5s91.167 66.5 150.5 66.5c66 0 120.333 -27 163 -81c8.66699 6.66699 13 15.334 13 26.001z" />
    <glyph glyph-name="glyph279" unicode="&#x1af;" horiz-adv-x="542" 
d="M468 541l-2.00195 -2.00098v-381c0 -49.333 -19.5 -90.166 -58.5 -122.499s-84.5 -48.5 -136.5 -48.5s-97 15.667 -135 47c-40 33.333 -60 74.666 -60 123.999v381l-51 51h192l-51 -51v-381c0 -32.667 12 -60.5 36 -83.5s52.667 -34.5 86 -34.5c32.667 0 61 11.5 85 34.5
s36 50.833 36 83.5v381l-51 51h136c1.33301 2.66699 2 5.33398 2 8.00098c0 12.667 -5.66699 19 -17 19c-3.33301 0 -6.66602 -1 -9.99902 -3c-2.66699 4.66699 -4 9.33398 -4 14.001c0 7.33301 3 13.166 9 17.499s13.333 6.5 22 6.5c4.66699 0 9.33398 -0.666992 14.001 -2
c22 -7.33301 33 -22 33 -44c0 -12 -3.66699 -23.333 -11 -34c-12.667 -18.667 -34 -29 -64 -31z" />
    <glyph glyph-name="glyph280" unicode="&#x1b0;" horiz-adv-x="468" 
d="M405 430c3.33301 6.66699 5.00098 12.333 5.00098 17c0 10.667 -5.33301 16 -16 16c-4 0 -8 -1 -12 -3c-2.66699 4.66699 -4 9.33398 -4 14.001c0 7.33301 3 13.166 9 17.499s13.333 6.5 22 6.5c4.66699 0 9.33398 -0.666992 14.001 -2c22 -7.33301 33 -22 33 -44
c0 -12 -3.66699 -23.333 -11 -34c-8.66699 -14 -22.667 -23.333 -42 -28v-343l47 -47h-137v78l-35 -35c-40.667 -40.667 -79.667 -61 -117 -61c-26.667 0 -50.334 10 -71.001 30c-18 18 -27 36 -27 54v269l-45 45l135 49v-342c0 -10.667 3 -20.667 9 -30
c8 -12.667 18.667 -19 32 -19c19.333 0 45.666 17 78.999 51l40 41v205l-45 45l135 49v-1z" />
    <glyph glyph-name="circumflex" unicode="&#x2c6;" horiz-adv-x="333" 
d="M307 538h-19l-114 61l-114 -61h-18l132 133z" />
    <glyph glyph-name="caron" unicode="&#x2c7;" horiz-adv-x="332" 
d="M42 669h18l114 -61l114 61h19l-133 -132z" />
    <glyph glyph-name="breve" unicode="&#x2d8;" horiz-adv-x="300" 
d="M47 669h14.002l1 -1c16.667 -43.333 48.667 -65 96 -65s79.666 21.667 96.999 65l1 1h14v-3c0 -32 -10.833 -59.333 -32.5 -82s-48.167 -34 -79.5 -34c-30.667 0 -56.834 11.333 -78.501 34s-32.5 50 -32.5 82v3z" />
    <glyph glyph-name="dotaccent" unicode="&#x2d9;" horiz-adv-x="182" 
d="M143 625c0 -12 -4.33301 -22.333 -13 -31s-19 -13 -31 -13s-22.333 4.33301 -31 13s-13 19 -13 31s4.33301 22.333 13 31s19 13 31 13s22.333 -4.33301 31 -13s13 -19 13 -31z" />
    <glyph glyph-name="ring" unicode="&#x2da;" horiz-adv-x="215" 
d="M116 669c18.667 0 34.834 -6.83105 48.501 -20.498s20.5 -29.834 20.5 -48.501s-6.83301 -34.834 -20.5 -48.501s-29.834 -20.5 -48.501 -20.5s-34.834 6.83301 -48.501 20.5s-20.5 29.834 -20.5 48.501c0 19.333 6.83301 35.666 20.5 48.999s29.834 20 48.501 20z
M78 600.002c0 -10.667 3.66699 -19.667 11 -27s16.333 -11 27 -11s19.667 3.66699 27 11s11 16.333 11 27s-3.66699 19.667 -11 27s-16.333 11 -27 11s-19.667 -3.66699 -27 -11s-11 -16.333 -11 -27z" />
    <glyph glyph-name="ogonek" unicode="&#x2db;" horiz-adv-x="213" 
d="M142 0c-12 0 -22.834 -4.83398 -32.501 -14.501s-14.5 -20.167 -14.5 -31.5c0 -26 12.667 -39 38 -39c18.667 0 31.667 7.66699 39 23l2 6l9 -15v-1c-2.66699 -17.333 -10.5 -31.166 -23.5 -41.499s-28.5 -15.5 -46.5 -15.5c-18.667 0 -34.334 6.83301 -47.001 20.5
s-19 30.167 -19 49.5c0 20 7.83301 37.667 23.5 53s33.834 23 54.501 23c6.66699 0 13.334 -1 20.001 -3l3 -1l-4 -13h-2z" />
    <glyph glyph-name="tilde" unicode="&#x2dc;" horiz-adv-x="292" 
d="M67 602l-1.00098 -2h-21l2 4c15.333 43.333 44 65 86 65c18 0 33.167 -4.83301 45.5 -14.5s21.833 -14.5 28.5 -14.5c12.667 0 24.334 9.33301 35.001 28l1 1h20l-1 -4c-15.333 -43.333 -44.333 -65 -87 -65c-14.667 0 -28.667 4.83301 -42 14.5
s-23.666 14.5 -30.999 14.5c-14.667 0 -26.334 -9 -35.001 -27z" />
    <glyph glyph-name="hungarumlaut" unicode="&#x2dd;" horiz-adv-x="320" 
d="M277 621l-139 -63l93 94c16 16 29.667 24 41 24c4 0 8.33301 -1 13 -3c7.33301 -4 11 -10.667 11 -20c0 -15.333 -6.33301 -26 -19 -32zM173 621l-140 -63l94 94c16 16 29.667 24 41 24c4 0 8.33301 -1 13 -3c7.33301 -4 11 -10.667 11 -20
c0 -15.333 -6.33301 -26 -19 -32z" />
    <glyph glyph-name="Delta" unicode="&#x394;" 
 />
    <glyph glyph-name="Delta" unicode="&#x2206;" 
 />
    <glyph glyph-name="Omega" unicode="&#x3a9;" 
 />
    <glyph glyph-name="Omega" unicode="&#x2126;" 
 />
    <glyph glyph-name="pi" unicode="&#x3c0;" 
 />
    <glyph glyph-name="glyph281" unicode="&#x1ea0;" horiz-adv-x="504" 
d="M92 50l50 -50h-159l52 52l188 538h55l183 -538l52 -52h-200l50 50l-39 117h-193zM229 451l-81 -236h160zM248 -150c-13.333 0 -24.833 4.83301 -34.5 14.5s-14.5 21.5 -14.5 35.5c0 13.333 4.83301 25 14.5 35s21.167 15 34.5 15c14 0 25.833 -5 35.5 -15
s14.5 -21.667 14.5 -35c0 -14 -4.83301 -25.833 -14.5 -35.5s-21.5 -14.5 -35.5 -14.5z" />
    <glyph glyph-name="glyph282" unicode="&#x1ea1;" horiz-adv-x="433" 
d="M156 368l-77 -77v107c32.667 22.667 78.334 34 137.001 34c55.333 0 96.333 -13.333 123 -40c20 -19.333 30 -42 30 -68v-277l47 -47h-137v73l-120 -76c-11.333 -7.33301 -23.333 -11 -36 -11c-24 0 -45.667 12 -65 36s-29 52.667 -29 86c0 42.667 17.333 78.667 52 108
c33.333 27.333 72.666 41 117.999 41h80v67c0 18.667 -6.66699 34.667 -20 48s-30.333 20 -51 20c-18.667 0 -36 -8 -52 -24zM220 221c-29.333 0 -52.833 -10.167 -70.5 -30.5s-26.5 -47.833 -26.5 -82.5c0 -14 5.33301 -26.833 16 -38.5s22 -17.5 34 -17.5
c6.66699 0 12 1.33301 16 4l90 57v108h-59zM214 -150c-13.333 0 -24.833 4.83301 -34.5 14.5s-14.5 21.5 -14.5 35.5c0 13.333 4.83301 25 14.5 35s21.167 15 34.5 15c14 0 25.833 -5 35.5 -15s14.5 -21.667 14.5 -35c0 -14 -4.83301 -25.833 -14.5 -35.5
s-21.5 -14.5 -35.5 -14.5z" />
    <glyph glyph-name="glyph283" unicode="&#x1ea2;" horiz-adv-x="504" 
d="M92 50l50 -50h-159l52 52l188 538h55l183 -538l52 -52h-200l50 50l-39 117h-193zM229 451l-81 -236h160zM245 641l-11.998 35.998l45 38c14 14.667 21 27.334 21 38.001c0 6 -2.33301 13 -7 21c-6 12 -16.667 17 -32 15c-7.33301 -0.666992 -12.833 -3 -16.5 -7
l-11.5 -12l-19 -33l-23 60l31 7c28 15.333 51.333 23 70 23c7.33301 0 13.666 -1.33301 18.999 -4c20 -11.333 31.333 -33.333 34 -66c1.33301 -17.333 -7.33398 -33.666 -26.001 -48.999l-53 -37l-9 -30h-11z" />
    <glyph glyph-name="glyph284" unicode="&#x1ea3;" horiz-adv-x="433" 
d="M156 368l-77 -77v107c32.667 22.667 78.334 34 137.001 34c55.333 0 96.333 -13.333 123 -40c20 -19.333 30 -42 30 -68v-277l47 -47h-137v73l-120 -76c-11.333 -7.33301 -23.333 -11 -36 -11c-24 0 -45.667 12 -65 36s-29 52.667 -29 86c0 42.667 17.333 78.667 52 108
c33.333 27.333 72.666 41 117.999 41h80v67c0 18.667 -6.66699 34.667 -20 48s-30.333 20 -51 20c-18.667 0 -36 -8 -52 -24zM220 221c-29.333 0 -52.833 -10.167 -70.5 -30.5s-26.5 -47.833 -26.5 -82.5c0 -14 5.33301 -26.833 16 -38.5s22 -17.5 34 -17.5
c6.66699 0 12 1.33301 16 4l90 57v108h-59zM205 482l-11.998 35.998l45 38c14 14.667 21 27.334 21 38.001c0 6 -2.33301 13 -7 21c-6 12 -16.667 17 -32 15c-7.33301 -0.666992 -12.833 -3 -16.5 -7l-11.5 -12l-19 -33l-23 60l31 7c28 15.333 51.333 23 70 23
c7.33301 0 13.666 -1.33301 18.999 -4c20 -11.333 31.333 -33.333 34 -66c1.33301 -17.333 -7.33398 -33.666 -26.001 -48.999l-53 -37l-9 -30h-11z" />
    <glyph glyph-name="glyph285" unicode="&#x1ea4;" horiz-adv-x="504" 
d="M92 50l50 -50h-159l52 52l188 538h55l183 -538l52 -52h-200l50 50l-39 117h-193zM229 451l-81 -236h160zM384 590h-19l-114 61l-114 -61h-18l132 133zM417 786l-139 -63l93 94c16 16 29.667 24 41 24c16 0 24 -7.66699 24 -23s-6.33301 -26 -19 -32z" />
    <glyph glyph-name="glyph286" unicode="&#x1ea5;" horiz-adv-x="433" 
d="M156 368l-77 -77v107c32.667 22.667 78.334 34 137.001 34c55.333 0 96.333 -13.333 123 -40c20 -19.333 30 -42 30 -68v-277l47 -47h-137v73l-120 -76c-11.333 -7.33301 -23.333 -11 -36 -11c-24 0 -45.667 12 -65 36s-29 52.667 -29 86c0 42.667 17.333 78.667 52 108
c33.333 27.333 72.666 41 117.999 41h80v67c0 18.667 -6.66699 34.667 -20 48s-30.333 20 -51 20c-18.667 0 -36 -8 -52 -24zM220 221c-29.333 0 -52.833 -10.167 -70.5 -30.5s-26.5 -47.833 -26.5 -82.5c0 -14 5.33301 -26.833 16 -38.5s22 -17.5 34 -17.5
c6.66699 0 12 1.33301 16 4l90 57v108h-59zM346 456h-19l-114 61l-114 -61h-18l132 133zM376 652l-139 -63l93 94c16 16 29.667 24 41 24c16 0 24 -7.66699 24 -23s-6.33301 -26 -19 -32z" />
    <glyph glyph-name="glyph287" unicode="&#x1ea6;" horiz-adv-x="504" 
d="M92 50l50 -50h-159l52 52l188 538h55l183 -538l52 -52h-200l50 50l-39 117h-193zM229 451l-81 -236h160zM384 590h-19l-114 61l-114 -61h-18l132 133zM83 784l139 -63l-93 94c-16 16 -29.667 24 -41 24c-16 0 -24 -7.66699 -24 -23s6.33301 -26 19 -32z" />
    <glyph glyph-name="glyph288" unicode="&#x1ea7;" horiz-adv-x="433" 
d="M156 368l-77 -77v107c32.667 22.667 78.334 34 137.001 34c55.333 0 96.333 -13.333 123 -40c20 -19.333 30 -42 30 -68v-277l47 -47h-137v73l-120 -76c-11.333 -7.33301 -23.333 -11 -36 -11c-24 0 -45.667 12 -65 36s-29 52.667 -29 86c0 42.667 17.333 78.667 52 108
c33.333 27.333 72.666 41 117.999 41h80v67c0 18.667 -6.66699 34.667 -20 48s-30.333 20 -51 20c-18.667 0 -36 -8 -52 -24zM220 221c-29.333 0 -52.833 -10.167 -70.5 -30.5s-26.5 -47.833 -26.5 -82.5c0 -14 5.33301 -26.833 16 -38.5s22 -17.5 34 -17.5
c6.66699 0 12 1.33301 16 4l90 57v108h-59zM346 456h-19l-114 61l-114 -61h-18l132 133zM49 651l139 -63l-93 94c-16 16 -29.667 24 -41 24c-16 0 -24 -7.66699 -24 -23s6.33301 -26 19 -32z" />
    <glyph glyph-name="glyph289" unicode="&#x1ea8;" horiz-adv-x="504" 
d="M92 50l50 -50h-159l52 52l188 538h55l183 -538l52 -52h-200l50 50l-39 117h-193zM229 451l-81 -236h160zM384 590h-19l-114 61l-114 -61h-18l132 133zM334 650l-11.998 35.998l45 38c14 14.667 21 27.334 21 38.001c0 6 -2.33301 13 -7 21c-6 12 -16.667 17 -32 15
c-7.33301 -0.666992 -12.833 -3 -16.5 -7l-11.5 -12l-19 -33l-23 60l31 7c28 15.333 51.333 23 70 23c7.33301 0 13.666 -1.33301 18.999 -4c20 -11.333 31.333 -33.333 34 -66c1.33301 -17.333 -7.33398 -33.666 -26.001 -48.999l-53 -37l-9 -30h-11z" />
    <glyph glyph-name="glyph290" unicode="&#x1ea9;" horiz-adv-x="433" 
d="M156 368l-77 -77v107c32.667 22.667 78.334 34 137.001 34c55.333 0 96.333 -13.333 123 -40c20 -19.333 30 -42 30 -68v-277l47 -47h-137v73l-120 -76c-11.333 -7.33301 -23.333 -11 -36 -11c-24 0 -45.667 12 -65 36s-29 52.667 -29 86c0 42.667 17.333 78.667 52 108
c33.333 27.333 72.666 41 117.999 41h80v67c0 18.667 -6.66699 34.667 -20 48s-30.333 20 -51 20c-18.667 0 -36 -8 -52 -24zM220 221c-29.333 0 -52.833 -10.167 -70.5 -30.5s-26.5 -47.833 -26.5 -82.5c0 -14 5.33301 -26.833 16 -38.5s22 -17.5 34 -17.5
c6.66699 0 12 1.33301 16 4l90 57v108h-59zM346 456h-19l-114 61l-114 -61h-18l132 133zM278 538l-11.998 35.998l45 38c14 14.667 21 27.334 21 38.001c0 6 -2.33301 13 -7 21c-6 12 -16.667 17 -32 15c-7.33301 -0.666992 -12.833 -3 -16.5 -7l-11.5 -12l-19 -33l-23 60
l31 7c28 15.333 51.333 23 70 23c7.33301 0 13.666 -1.33301 18.999 -4c20 -11.333 31.333 -33.333 34 -66c1.33301 -17.333 -7.33398 -33.666 -26.001 -48.999l-53 -37l-9 -30h-11z" />
    <glyph glyph-name="glyph291" unicode="&#x1eaa;" horiz-adv-x="504" 
d="M92 50l50 -50h-159l52 52l188 538h55l183 -538l52 -52h-200l50 50l-39 117h-193zM229 451l-81 -236h160zM384 590h-19l-114 61l-114 -61h-18l132 133zM170 733l-1.00098 -2h-21l2 4c15.333 43.333 44 65 86 65c18 0 33.167 -4.83301 45.5 -14.5s21.833 -14.5 28.5 -14.5
c12.667 0 24.334 9.33301 35.001 28l1 1h20l-1 -4c-15.333 -43.333 -44.333 -65 -87 -65c-14.667 0 -28.667 4.83301 -42 14.5s-23.666 14.5 -30.999 14.5c-14.667 0 -26.334 -9 -35.001 -27z" />
    <glyph glyph-name="glyph292" unicode="&#x1eab;" horiz-adv-x="433" 
d="M156 368l-77 -77v107c32.667 22.667 78.334 34 137.001 34c55.333 0 96.333 -13.333 123 -40c20 -19.333 30 -42 30 -68v-277l47 -47h-137v73l-120 -76c-11.333 -7.33301 -23.333 -11 -36 -11c-24 0 -45.667 12 -65 36s-29 52.667 -29 86c0 42.667 17.333 78.667 52 108
c33.333 27.333 72.666 41 117.999 41h80v67c0 18.667 -6.66699 34.667 -20 48s-30.333 20 -51 20c-18.667 0 -36 -8 -52 -24zM220 221c-29.333 0 -52.833 -10.167 -70.5 -30.5s-26.5 -47.833 -26.5 -82.5c0 -14 5.33301 -26.833 16 -38.5s22 -17.5 34 -17.5
c6.66699 0 12 1.33301 16 4l90 57v108h-59zM346 456h-19l-114 61l-114 -61h-18l132 133zM132 599l-1.00098 -2h-21l2 4c15.333 43.333 44 65 86 65c18 0 33.167 -4.83301 45.5 -14.5s21.833 -14.5 28.5 -14.5c12.667 0 24.334 9.33301 35.001 28l1 1h20l-1 -4
c-15.333 -43.333 -44.333 -65 -87 -65c-14.667 0 -28.667 4.83301 -42 14.5s-23.666 14.5 -30.999 14.5c-14.667 0 -26.334 -9 -35.001 -27z" />
    <glyph glyph-name="glyph293" unicode="&#x1eac;" horiz-adv-x="504" 
d="M92 50l50 -50h-159l52 52l188 538h55l183 -538l52 -52h-200l50 50l-39 117h-193zM229 451l-81 -236h160zM384 590h-19l-114 61l-114 -61h-18l132 133zM248 -150c-13.333 0 -24.833 4.83301 -34.5 14.5s-14.5 21.5 -14.5 35.5c0 13.333 4.83301 25 14.5 35
s21.167 15 34.5 15c14 0 25.833 -5 35.5 -15s14.5 -21.667 14.5 -35c0 -14 -4.83301 -25.833 -14.5 -35.5s-21.5 -14.5 -35.5 -14.5z" />
    <glyph glyph-name="glyph294" unicode="&#x1ead;" horiz-adv-x="433" 
d="M156 368l-77 -77v107c32.667 22.667 78.334 34 137.001 34c55.333 0 96.333 -13.333 123 -40c20 -19.333 30 -42 30 -68v-277l47 -47h-137v73l-120 -76c-11.333 -7.33301 -23.333 -11 -36 -11c-24 0 -45.667 12 -65 36s-29 52.667 -29 86c0 42.667 17.333 78.667 52 108
c33.333 27.333 72.666 41 117.999 41h80v67c0 18.667 -6.66699 34.667 -20 48s-30.333 20 -51 20c-18.667 0 -36 -8 -52 -24zM220 221c-29.333 0 -52.833 -10.167 -70.5 -30.5s-26.5 -47.833 -26.5 -82.5c0 -14 5.33301 -26.833 16 -38.5s22 -17.5 34 -17.5
c6.66699 0 12 1.33301 16 4l90 57v108h-59zM346 456h-19l-114 61l-114 -61h-18l132 133zM214 -150c-13.333 0 -24.833 4.83301 -34.5 14.5s-14.5 21.5 -14.5 35.5c0 13.333 4.83301 25 14.5 35s21.167 15 34.5 15c14 0 25.833 -5 35.5 -15s14.5 -21.667 14.5 -35
c0 -14 -4.83301 -25.833 -14.5 -35.5s-21.5 -14.5 -35.5 -14.5z" />
    <glyph glyph-name="glyph295" unicode="&#x1eae;" horiz-adv-x="504" 
d="M92 50l50 -50h-159l52 52l188 538h55l183 -538l52 -52h-200l50 50l-39 117h-193zM229 451l-81 -236h160zM141 760h14.002l1 -1c16.667 -43.333 48.667 -65 96 -65s79.666 21.667 96.999 65l1 1h14v-3c0 -32 -10.833 -59.333 -32.5 -82s-48.167 -34 -79.5 -34
c-30.667 0 -56.834 11.333 -78.501 34s-32.5 50 -32.5 82v3zM390.002 800l-139 -63l93 94c16 16 29.667 24 41 24c16 0 24 -7.66699 24 -23s-6.33301 -26 -19 -32z" />
    <glyph glyph-name="glyph296" unicode="&#x1eaf;" horiz-adv-x="433" 
d="M156 368l-77 -77v107c32.667 22.667 78.334 34 137.001 34c55.333 0 96.333 -13.333 123 -40c20 -19.333 30 -42 30 -68v-277l47 -47h-137v73l-120 -76c-11.333 -7.33301 -23.333 -11 -36 -11c-24 0 -45.667 12 -65 36s-29 52.667 -29 86c0 42.667 17.333 78.667 52 108
c33.333 27.333 72.666 41 117.999 41h80v67c0 18.667 -6.66699 34.667 -20 48s-30.333 20 -51 20c-18.667 0 -36 -8 -52 -24zM220 221c-29.333 0 -52.833 -10.167 -70.5 -30.5s-26.5 -47.833 -26.5 -82.5c0 -14 5.33301 -26.833 16 -38.5s22 -17.5 34 -17.5
c6.66699 0 12 1.33301 16 4l90 57v108h-59zM111 599h14.002l1 -1c16.667 -43.333 48.667 -65 96 -65s79.666 21.667 96.999 65l1 1h14v-3c0 -32 -10.833 -59.333 -32.5 -82s-48.167 -34 -79.5 -34c-30.667 0 -56.834 11.333 -78.501 34s-32.5 50 -32.5 82v3zM353.002 635
l-139 -63l93 94c16 16 29.667 24 41 24c16 0 24 -7.66699 24 -23s-6.33301 -26 -19 -32z" />
    <glyph glyph-name="glyph297" unicode="&#x1eb0;" horiz-adv-x="504" 
d="M92 50l50 -50h-159l52 52l188 538h55l183 -538l52 -52h-200l50 50l-39 117h-193zM229 451l-81 -236h160zM141 760h14.002l1 -1c16.667 -43.333 48.667 -65 96 -65s79.666 21.667 96.999 65l1 1h14v-3c0 -32 -10.833 -59.333 -32.5 -82s-48.167 -34 -79.5 -34
c-30.667 0 -56.834 11.333 -78.501 34s-32.5 50 -32.5 82v3zM115.002 804l139 -63l-93 94c-16 16 -29.667 24 -41 24c-16 0 -24 -7.66699 -24 -23s6.33301 -26 19 -32z" />
    <glyph glyph-name="glyph298" unicode="&#x1eb1;" horiz-adv-x="433" 
d="M156 368l-77 -77v107c32.667 22.667 78.334 34 137.001 34c55.333 0 96.333 -13.333 123 -40c20 -19.333 30 -42 30 -68v-277l47 -47h-137v73l-120 -76c-11.333 -7.33301 -23.333 -11 -36 -11c-24 0 -45.667 12 -65 36s-29 52.667 -29 86c0 42.667 17.333 78.667 52 108
c33.333 27.333 72.666 41 117.999 41h80v67c0 18.667 -6.66699 34.667 -20 48s-30.333 20 -51 20c-18.667 0 -36 -8 -52 -24zM220 221c-29.333 0 -52.833 -10.167 -70.5 -30.5s-26.5 -47.833 -26.5 -82.5c0 -14 5.33301 -26.833 16 -38.5s22 -17.5 34 -17.5
c6.66699 0 12 1.33301 16 4l90 57v108h-59zM111 599h14.002l1 -1c16.667 -43.333 48.667 -65 96 -65s79.666 21.667 96.999 65l1 1h14v-3c0 -32 -10.833 -59.333 -32.5 -82s-48.167 -34 -79.5 -34c-30.667 0 -56.834 11.333 -78.501 34s-32.5 50 -32.5 82v3zM81.002 645
l139 -63l-93 94c-16 16 -29.667 24 -41 24c-16 0 -24 -7.66699 -24 -23s6.33301 -26 19 -32z" />
    <glyph glyph-name="glyph299" unicode="&#x1eb2;" horiz-adv-x="504" 
d="M92 50l50 -50h-159l52 52l188 538h55l183 -538l52 -52h-200l50 50l-39 117h-193zM229 451l-81 -236h160zM141 760h14.002l1 -1c16.667 -43.333 48.667 -65 96 -65s79.666 21.667 96.999 65l1 1h14v-3c0 -32 -10.833 -59.333 -32.5 -82s-48.167 -34 -79.5 -34
c-30.667 0 -56.834 11.333 -78.501 34s-32.5 50 -32.5 82v3zM235.002 720l-11.998 35.998l45 38c14 14.667 21 27.334 21 38.001c0 6 -2.33301 13 -7 21c-6 12 -16.667 17 -32 15c-7.33301 -0.666992 -12.833 -3 -16.5 -7l-11.5 -12l-19 -33l-23 60l31 7
c28 15.333 51.333 23 70 23c7.33301 0 13.666 -1.33301 18.999 -4c20 -11.333 31.333 -33.333 34 -66c1.33301 -17.333 -7.33398 -33.666 -26.001 -48.999l-53 -37l-9 -30h-11z" />
    <glyph glyph-name="glyph300" unicode="&#x1eb3;" horiz-adv-x="433" 
d="M156 368l-77 -77v107c32.667 22.667 78.334 34 137.001 34c55.333 0 96.333 -13.333 123 -40c20 -19.333 30 -42 30 -68v-277l47 -47h-137v73l-120 -76c-11.333 -7.33301 -23.333 -11 -36 -11c-24 0 -45.667 12 -65 36s-29 52.667 -29 86c0 42.667 17.333 78.667 52 108
c33.333 27.333 72.666 41 117.999 41h80v67c0 18.667 -6.66699 34.667 -20 48s-30.333 20 -51 20c-18.667 0 -36 -8 -52 -24zM220 221c-29.333 0 -52.833 -10.167 -70.5 -30.5s-26.5 -47.833 -26.5 -82.5c0 -14 5.33301 -26.833 16 -38.5s22 -17.5 34 -17.5
c6.66699 0 12 1.33301 16 4l90 57v108h-59zM111 599h14.002l1 -1c16.667 -43.333 48.667 -65 96 -65s79.666 21.667 96.999 65l1 1h14v-3c0 -32 -10.833 -59.333 -32.5 -82s-48.167 -34 -79.5 -34c-30.667 0 -56.834 11.333 -78.501 34s-32.5 50 -32.5 82v3zM205.002 552
l-11.998 35.998l45 38c14 14.667 21 27.334 21 38.001c0 6 -2.33301 13 -7 21c-6 12 -16.667 17 -32 15c-7.33301 -0.666992 -12.833 -3 -16.5 -7l-11.5 -12l-19 -33l-23 60l31 7c28 15.333 51.333 23 70 23c7.33301 0 13.666 -1.33301 18.999 -4
c20 -11.333 31.333 -33.333 34 -66c1.33301 -17.333 -7.33398 -33.666 -26.001 -48.999l-53 -37l-9 -30h-11z" />
    <glyph glyph-name="glyph301" unicode="&#x1eb4;" horiz-adv-x="504" 
d="M92 50l50 -50h-159l52 52l188 538h55l183 -538l52 -52h-200l50 50l-39 117h-193zM229 451l-81 -236h160zM141 760h14.002l1 -1c16.667 -43.333 48.667 -65 96 -65s79.666 21.667 96.999 65l1 1h14v-3c0 -32 -10.833 -59.333 -32.5 -82s-48.167 -34 -79.5 -34
c-30.667 0 -56.834 11.333 -78.501 34s-32.5 50 -32.5 82v3zM177.002 770l-1.00098 -2h-21l2 4c15.333 43.333 44 65 86 65c18 0 33.167 -4.83301 45.5 -14.5s21.833 -14.5 28.5 -14.5c12.667 0 24.334 9.33301 35.001 28l1 1h20l-1 -4c-15.333 -43.333 -44.333 -65 -87 -65
c-14.667 0 -28.667 4.83301 -42 14.5s-23.666 14.5 -30.999 14.5c-14.667 0 -26.334 -9 -35.001 -27z" />
    <glyph glyph-name="glyph302" unicode="&#x1eb5;" horiz-adv-x="433" 
d="M156 368l-77 -77v107c32.667 22.667 78.334 34 137.001 34c55.333 0 96.333 -13.333 123 -40c20 -19.333 30 -42 30 -68v-277l47 -47h-137v73l-120 -76c-11.333 -7.33301 -23.333 -11 -36 -11c-24 0 -45.667 12 -65 36s-29 52.667 -29 86c0 42.667 17.333 78.667 52 108
c33.333 27.333 72.666 41 117.999 41h80v67c0 18.667 -6.66699 34.667 -20 48s-30.333 20 -51 20c-18.667 0 -36 -8 -52 -24zM220 221c-29.333 0 -52.833 -10.167 -70.5 -30.5s-26.5 -47.833 -26.5 -82.5c0 -14 5.33301 -26.833 16 -38.5s22 -17.5 34 -17.5
c6.66699 0 12 1.33301 16 4l90 57v108h-59zM111 599h14.002l1 -1c16.667 -43.333 48.667 -65 96 -65s79.666 21.667 96.999 65l1 1h14v-3c0 -32 -10.833 -59.333 -32.5 -82s-48.167 -34 -79.5 -34c-30.667 0 -56.834 11.333 -78.501 34s-32.5 50 -32.5 82v3zM142.002 617
l-1.00098 -2h-21l2 4c15.333 43.333 44 65 86 65c18 0 33.167 -4.83301 45.5 -14.5s21.833 -14.5 28.5 -14.5c12.667 0 24.334 9.33301 35.001 28l1 1h20l-1 -4c-15.333 -43.333 -44.333 -65 -87 -65c-14.667 0 -28.667 4.83301 -42 14.5s-23.666 14.5 -30.999 14.5
c-14.667 0 -26.334 -9 -35.001 -27z" />
    <glyph glyph-name="glyph303" unicode="&#x1eb6;" horiz-adv-x="504" 
d="M92 50l50 -50h-159l52 52l188 538h55l183 -538l52 -52h-200l50 50l-39 117h-193zM229 451l-81 -236h160zM141 760h14.002l1 -1c16.667 -43.333 48.667 -65 96 -65s79.666 21.667 96.999 65l1 1h14v-3c0 -32 -10.833 -59.333 -32.5 -82s-48.167 -34 -79.5 -34
c-30.667 0 -56.834 11.333 -78.501 34s-32.5 50 -32.5 82v3zM248.002 -150c-13.333 0 -24.833 4.83301 -34.5 14.5s-14.5 21.5 -14.5 35.5c0 13.333 4.83301 25 14.5 35s21.167 15 34.5 15c14 0 25.833 -5 35.5 -15s14.5 -21.667 14.5 -35
c0 -14 -4.83301 -25.833 -14.5 -35.5s-21.5 -14.5 -35.5 -14.5z" />
    <glyph glyph-name="glyph304" unicode="&#x1eb7;" horiz-adv-x="433" 
d="M156 368l-77 -77v107c32.667 22.667 78.334 34 137.001 34c55.333 0 96.333 -13.333 123 -40c20 -19.333 30 -42 30 -68v-277l47 -47h-137v73l-120 -76c-11.333 -7.33301 -23.333 -11 -36 -11c-24 0 -45.667 12 -65 36s-29 52.667 -29 86c0 42.667 17.333 78.667 52 108
c33.333 27.333 72.666 41 117.999 41h80v67c0 18.667 -6.66699 34.667 -20 48s-30.333 20 -51 20c-18.667 0 -36 -8 -52 -24zM220 221c-29.333 0 -52.833 -10.167 -70.5 -30.5s-26.5 -47.833 -26.5 -82.5c0 -14 5.33301 -26.833 16 -38.5s22 -17.5 34 -17.5
c6.66699 0 12 1.33301 16 4l90 57v108h-59zM111 599h14.002l1 -1c16.667 -43.333 48.667 -65 96 -65s79.666 21.667 96.999 65l1 1h14v-3c0 -32 -10.833 -59.333 -32.5 -82s-48.167 -34 -79.5 -34c-30.667 0 -56.834 11.333 -78.501 34s-32.5 50 -32.5 82v3zM214.002 -150
c-13.333 0 -24.833 4.83301 -34.5 14.5s-14.5 21.5 -14.5 35.5c0 13.333 4.83301 25 14.5 35s21.167 15 34.5 15c14 0 25.833 -5 35.5 -15s14.5 -21.667 14.5 -35c0 -14 -4.83301 -25.833 -14.5 -35.5s-21.5 -14.5 -35.5 -14.5z" />
    <glyph glyph-name="glyph305" unicode="&#x1eb8;" horiz-adv-x="428" 
d="M399 0h-370l51 51v488l-51 51h370v-116l-67 68h-162v-202h116l51 51v-150l-51 51h-116v-244h162l67 68v-116zM213 -150c-13.333 0 -24.833 4.83301 -34.5 14.5s-14.5 21.5 -14.5 35.5c0 13.333 4.83301 25 14.5 35s21.167 15 34.5 15c14 0 25.833 -5 35.5 -15
s14.5 -21.667 14.5 -35c0 -14 -4.83301 -25.833 -14.5 -35.5s-21.5 -14.5 -35.5 -14.5z" />
    <glyph glyph-name="glyph306" unicode="&#x1eb9;" horiz-adv-x="441" 
d="M411 221l-271.002 0.000976562c0 -59.333 6 -102 18 -128c17.333 -38 49.666 -57 96.999 -57c20.667 0 42.334 6 65.001 18c20.667 12 36 26 46 42l25 -25c-33.333 -52.667 -90.333 -79 -171 -79c-55.333 0 -101.666 23 -138.999 69
c-34.667 43.333 -52 93.666 -52 150.999c0 61.333 17.333 113.333 52 156c36.667 45.333 83 68 139 68c52.667 0 97.834 -19.667 135.501 -59s56.5 -85.333 56.5 -138c0 -3.33301 -0.333008 -9.33301 -1 -18zM139.998 261.001l161 0.000976562c6.66699 11.333 10 23 10 35
c0 26 -9.16699 49.833 -27.5 71.5s-39.5 32.5 -63.5 32.5c-28 0 -48.667 -14.667 -62 -44c-12 -24.667 -18 -56.334 -18 -95.001zM212.998 -156.998c-13.333 0 -24.833 4.83301 -34.5 14.5s-14.5 21.5 -14.5 35.5c0 13.333 4.83301 25 14.5 35s21.167 15 34.5 15
c14 0 25.833 -5 35.5 -15s14.5 -21.667 14.5 -35c0 -14 -4.83301 -25.833 -14.5 -35.5s-21.5 -14.5 -35.5 -14.5z" />
    <glyph glyph-name="glyph307" unicode="&#x1eba;" horiz-adv-x="428" 
d="M399 0h-370l51 51v488l-51 51h370v-116l-67 68h-162v-202h116l51 51v-150l-51 51h-116v-244h162l67 68v-116zM209 641l-11.998 35.998l45 38c14 14.667 21 27.334 21 38.001c0 6 -2.33301 13 -7 21c-6 12 -16.667 17 -32 15c-7.33301 -0.666992 -12.833 -3 -16.5 -7
l-11.5 -12l-19 -33l-23 60l31 7c28 15.333 51.333 23 70 23c7.33301 0 13.666 -1.33301 18.999 -4c20 -11.333 31.333 -33.333 34 -66c1.33301 -17.333 -7.33398 -33.666 -26.001 -48.999l-53 -37l-9 -30h-11z" />
    <glyph glyph-name="glyph308" unicode="&#x1ebb;" horiz-adv-x="441" 
d="M411 221l-271.002 0.000976562c0 -59.333 6 -102 18 -128c17.333 -38 49.666 -57 96.999 -57c20.667 0 42.334 6 65.001 18c20.667 12 36 26 46 42l25 -25c-33.333 -52.667 -90.333 -79 -171 -79c-55.333 0 -101.666 23 -138.999 69
c-34.667 43.333 -52 93.666 -52 150.999c0 61.333 17.333 113.333 52 156c36.667 45.333 83 68 139 68c52.667 0 97.834 -19.667 135.501 -59s56.5 -85.333 56.5 -138c0 -3.33301 -0.333008 -9.33301 -1 -18zM139.998 261.001l161 0.000976562c6.66699 11.333 10 23 10 35
c0 26 -9.16699 49.833 -27.5 71.5s-39.5 32.5 -63.5 32.5c-28 0 -48.667 -14.667 -62 -44c-12 -24.667 -18 -56.334 -18 -95.001zM213.998 487.002l-11.998 35.998l45 38c14 14.667 21 27.334 21 38.001c0 6 -2.33301 13 -7 21c-6 12 -16.667 17 -32 15
c-7.33301 -0.666992 -12.833 -3 -16.5 -7l-11.5 -12l-19 -33l-23 60l31 7c28 15.333 51.333 23 70 23c7.33301 0 13.666 -1.33301 18.999 -4c20 -11.333 31.333 -33.333 34 -66c1.33301 -17.333 -7.33398 -33.666 -26.001 -48.999l-53 -37l-9 -30h-11z" />
    <glyph glyph-name="glyph309" unicode="&#x1ebc;" horiz-adv-x="428" 
d="M399 0h-370l51 51v488l-51 51h370v-116l-67 68h-162v-202h116l51 51v-150l-51 51h-116v-244h162l67 68v-116zM138 643l-1.00098 -2h-21l2 4c15.333 43.333 44 65 86 65c18 0 33.167 -4.83301 45.5 -14.5s21.833 -14.5 28.5 -14.5c12.667 0 24.334 9.33301 35.001 28l1 1
h20l-1 -4c-15.333 -43.333 -44.333 -65 -87 -65c-14.667 0 -28.667 4.83301 -42 14.5s-23.666 14.5 -30.999 14.5c-14.667 0 -26.334 -9 -35.001 -27z" />
    <glyph glyph-name="glyph310" unicode="&#x1ebd;" horiz-adv-x="441" 
d="M411 221l-271.002 0.000976562c0 -59.333 6 -102 18 -128c17.333 -38 49.666 -57 96.999 -57c20.667 0 42.334 6 65.001 18c20.667 12 36 26 46 42l25 -25c-33.333 -52.667 -90.333 -79 -171 -79c-55.333 0 -101.666 23 -138.999 69
c-34.667 43.333 -52 93.666 -52 150.999c0 61.333 17.333 113.333 52 156c36.667 45.333 83 68 139 68c52.667 0 97.834 -19.667 135.501 -59s56.5 -85.333 56.5 -138c0 -3.33301 -0.333008 -9.33301 -1 -18zM139.998 261.001l161 0.000976562c6.66699 11.333 10 23 10 35
c0 26 -9.16699 49.833 -27.5 71.5s-39.5 32.5 -63.5 32.5c-28 0 -48.667 -14.667 -62 -44c-12 -24.667 -18 -56.334 -18 -95.001zM143.998 487.002l-1.00098 -2h-21l2 4c15.333 43.333 44 65 86 65c18 0 33.167 -4.83301 45.5 -14.5s21.833 -14.5 28.5 -14.5
c12.667 0 24.334 9.33301 35.001 28l1 1h20l-1 -4c-15.333 -43.333 -44.333 -65 -87 -65c-14.667 0 -28.667 4.83301 -42 14.5s-23.666 14.5 -30.999 14.5c-14.667 0 -26.334 -9 -35.001 -27z" />
    <glyph glyph-name="glyph311" unicode="&#x1ebe;" horiz-adv-x="428" 
d="M399 0h-370l51 51v488l-51 51h370v-116l-67 68h-162v-202h116l51 51v-150l-51 51h-116v-244h162l67 68v-116zM368 640h-19l-114 61l-114 -61h-18l132 133zM417 834l-139 -63l93 94c16 16 29.667 24 41 24c16 0 24 -7.66699 24 -23s-6.33301 -26 -19 -32z" />
    <glyph glyph-name="glyph312" unicode="&#x1ebf;" horiz-adv-x="441" 
d="M411 221l-271.002 0.000976562c0 -59.333 6 -102 18 -128c17.333 -38 49.666 -57 96.999 -57c20.667 0 42.334 6 65.001 18c20.667 12 36 26 46 42l25 -25c-33.333 -52.667 -90.333 -79 -171 -79c-55.333 0 -101.666 23 -138.999 69
c-34.667 43.333 -52 93.666 -52 150.999c0 61.333 17.333 113.333 52 156c36.667 45.333 83 68 139 68c52.667 0 97.834 -19.667 135.501 -59s56.5 -85.333 56.5 -138c0 -3.33301 -0.333008 -9.33301 -1 -18zM139.998 261.001l161 0.000976562c6.66699 11.333 10 23 10 35
c0 26 -9.16699 49.833 -27.5 71.5s-39.5 32.5 -63.5 32.5c-28 0 -48.667 -14.667 -62 -44c-12 -24.667 -18 -56.334 -18 -95.001zM353.998 450.002h-19l-114 61l-114 -61h-18l132 133zM390.998 647.002l-139 -63l93 94c16 16 29.667 24 41 24c16 0 24 -7.66699 24 -23
s-6.33301 -26 -19 -32z" />
    <glyph glyph-name="glyph313" unicode="&#x1ec0;" horiz-adv-x="428" 
d="M399 0h-370l51 51v488l-51 51h370v-116l-67 68h-162v-202h116l51 51v-150l-51 51h-116v-244h162l67 68v-116zM368 640h-19l-114 61l-114 -61h-18l132 133zM49 831l139 -63l-93 94c-16 16 -29.667 24 -41 24c-16 0 -24 -7.66699 -24 -23s6.33301 -26 19 -32z" />
    <glyph glyph-name="glyph314" unicode="&#x1ec1;" horiz-adv-x="441" 
d="M411 221l-271.002 0.000976562c0 -59.333 6 -102 18 -128c17.333 -38 49.666 -57 96.999 -57c20.667 0 42.334 6 65.001 18c20.667 12 36 26 46 42l25 -25c-33.333 -52.667 -90.333 -79 -171 -79c-55.333 0 -101.666 23 -138.999 69
c-34.667 43.333 -52 93.666 -52 150.999c0 61.333 17.333 113.333 52 156c36.667 45.333 83 68 139 68c52.667 0 97.834 -19.667 135.501 -59s56.5 -85.333 56.5 -138c0 -3.33301 -0.333008 -9.33301 -1 -18zM139.998 261.001l161 0.000976562c6.66699 11.333 10 23 10 35
c0 26 -9.16699 49.833 -27.5 71.5s-39.5 32.5 -63.5 32.5c-28 0 -48.667 -14.667 -62 -44c-12 -24.667 -18 -56.334 -18 -95.001zM353.998 450.002h-19l-114 61l-114 -61h-18l132 133zM53.998 644.002l139 -63l-93 94c-16 16 -29.667 24 -41 24c-16 0 -24 -7.66699 -24 -23
s6.33301 -26 19 -32z" />
    <glyph glyph-name="glyph315" unicode="&#x1ec2;" horiz-adv-x="428" 
d="M399 0h-370l51 51v488l-51 51h370v-116l-67 68h-162v-202h116l51 51v-150l-51 51h-116v-244h162l67 68v-116zM368 640h-19l-114 61l-114 -61h-18l132 133zM304 723l-11.998 35.998l45 38c14 14.667 21 27.334 21 38.001c0 6 -2.33301 13 -7 21c-6 12 -16.667 17 -32 15
c-7.33301 -0.666992 -12.833 -3 -16.5 -7l-11.5 -12l-19 -33l-23 60l31 7c28 15.333 51.333 23 70 23c7.33301 0 13.666 -1.33301 18.999 -4c20 -11.333 31.333 -33.333 34 -66c1.33301 -17.333 -7.33398 -33.666 -26.001 -48.999l-53 -37l-9 -30h-11z" />
    <glyph glyph-name="glyph316" unicode="&#x1ec3;" horiz-adv-x="441" 
d="M411 221l-271.002 0.000976562c0 -59.333 6 -102 18 -128c17.333 -38 49.666 -57 96.999 -57c20.667 0 42.334 6 65.001 18c20.667 12 36 26 46 42l25 -25c-33.333 -52.667 -90.333 -79 -171 -79c-55.333 0 -101.666 23 -138.999 69
c-34.667 43.333 -52 93.666 -52 150.999c0 61.333 17.333 113.333 52 156c36.667 45.333 83 68 139 68c52.667 0 97.834 -19.667 135.501 -59s56.5 -85.333 56.5 -138c0 -3.33301 -0.333008 -9.33301 -1 -18zM139.998 261.001l161 0.000976562c6.66699 11.333 10 23 10 35
c0 26 -9.16699 49.833 -27.5 71.5s-39.5 32.5 -63.5 32.5c-28 0 -48.667 -14.667 -62 -44c-12 -24.667 -18 -56.334 -18 -95.001zM353.998 450.002h-19l-114 61l-114 -61h-18l132 133zM308.998 507.002l-11.998 35.998l45 38c14 14.667 21 27.334 21 38.001
c0 6 -2.33301 13 -7 21c-6 12 -16.667 17 -32 15c-7.33301 -0.666992 -12.833 -3 -16.5 -7l-11.5 -12l-19 -33l-23 60l31 7c28 15.333 51.333 23 70 23c7.33301 0 13.666 -1.33301 18.999 -4c20 -11.333 31.333 -33.333 34 -66
c1.33301 -17.333 -7.33398 -33.666 -26.001 -48.999l-53 -37l-9 -30h-11z" />
    <glyph glyph-name="glyph317" unicode="&#x1ec4;" horiz-adv-x="428" 
d="M399 0h-370l51 51v488l-51 51h370v-116l-67 68h-162v-202h116l51 51v-150l-51 51h-116v-244h162l67 68v-116zM368 640h-19l-114 61l-114 -61h-18l132 133zM156 783l-1.00098 -2h-21l2 4c15.333 43.333 44 65 86 65c18 0 33.167 -4.83301 45.5 -14.5
s21.833 -14.5 28.5 -14.5c12.667 0 24.334 9.33301 35.001 28l1 1h20l-1 -4c-15.333 -43.333 -44.333 -65 -87 -65c-14.667 0 -28.667 4.83301 -42 14.5s-23.666 14.5 -30.999 14.5c-14.667 0 -26.334 -9 -35.001 -27z" />
    <glyph glyph-name="glyph318" unicode="&#x1ec5;" horiz-adv-x="441" 
d="M411 221l-271.002 0.000976562c0 -59.333 6 -102 18 -128c17.333 -38 49.666 -57 96.999 -57c20.667 0 42.334 6 65.001 18c20.667 12 36 26 46 42l25 -25c-33.333 -52.667 -90.333 -79 -171 -79c-55.333 0 -101.666 23 -138.999 69
c-34.667 43.333 -52 93.666 -52 150.999c0 61.333 17.333 113.333 52 156c36.667 45.333 83 68 139 68c52.667 0 97.834 -19.667 135.501 -59s56.5 -85.333 56.5 -138c0 -3.33301 -0.333008 -9.33301 -1 -18zM139.998 261.001l161 0.000976562c6.66699 11.333 10 23 10 35
c0 26 -9.16699 49.833 -27.5 71.5s-39.5 32.5 -63.5 32.5c-28 0 -48.667 -14.667 -62 -44c-12 -24.667 -18 -56.334 -18 -95.001zM353.998 450.002h-19l-114 61l-114 -61h-18l132 133zM153.998 594.002l-1.00098 -2h-21l2 4c15.333 43.333 44 65 86 65
c18 0 33.167 -4.83301 45.5 -14.5s21.833 -14.5 28.5 -14.5c12.667 0 24.334 9.33301 35.001 28l1 1h20l-1 -4c-15.333 -43.333 -44.333 -65 -87 -65c-14.667 0 -28.667 4.83301 -42 14.5s-23.666 14.5 -30.999 14.5c-14.667 0 -26.334 -9 -35.001 -27z" />
    <glyph glyph-name="glyph319" unicode="&#x1ec6;" horiz-adv-x="428" 
d="M399 0h-370l51 51v488l-51 51h370v-116l-67 68h-162v-202h116l51 51v-150l-51 51h-116v-244h162l67 68v-116zM368 640h-19l-114 61l-114 -61h-18l132 133zM213 -150c-13.333 0 -24.833 4.83301 -34.5 14.5s-14.5 21.5 -14.5 35.5c0 13.333 4.83301 25 14.5 35
s21.167 15 34.5 15c14 0 25.833 -5 35.5 -15s14.5 -21.667 14.5 -35c0 -14 -4.83301 -25.833 -14.5 -35.5s-21.5 -14.5 -35.5 -14.5z" />
    <glyph glyph-name="glyph320" unicode="&#x1ec7;" horiz-adv-x="441" 
d="M411 221l-271.002 0.000976562c0 -59.333 6 -102 18 -128c17.333 -38 49.666 -57 96.999 -57c20.667 0 42.334 6 65.001 18c20.667 12 36 26 46 42l25 -25c-33.333 -52.667 -90.333 -79 -171 -79c-55.333 0 -101.666 23 -138.999 69
c-34.667 43.333 -52 93.666 -52 150.999c0 61.333 17.333 113.333 52 156c36.667 45.333 83 68 139 68c52.667 0 97.834 -19.667 135.501 -59s56.5 -85.333 56.5 -138c0 -3.33301 -0.333008 -9.33301 -1 -18zM139.998 261.001l161 0.000976562c6.66699 11.333 10 23 10 35
c0 26 -9.16699 49.833 -27.5 71.5s-39.5 32.5 -63.5 32.5c-28 0 -48.667 -14.667 -62 -44c-12 -24.667 -18 -56.334 -18 -95.001zM353.998 450.002h-19l-114 61l-114 -61h-18l132 133zM212.998 -156.998c-13.333 0 -24.833 4.83301 -34.5 14.5s-14.5 21.5 -14.5 35.5
c0 13.333 4.83301 25 14.5 35s21.167 15 34.5 15c14 0 25.833 -5 35.5 -15s14.5 -21.667 14.5 -35c0 -14 -4.83301 -25.833 -14.5 -35.5s-21.5 -14.5 -35.5 -14.5z" />
    <glyph glyph-name="glyph321" unicode="&#x1ec8;" horiz-adv-x="267" 
d="M38 590h191l-51 -51v-488l51 -51h-191l50 51v488zM122 640l-11.998 35.998l45 38c14 14.667 21 27.334 21 38.001c0 6 -2.33301 13 -7 21c-6 12 -16.667 17 -32 15c-7.33301 -0.666992 -12.833 -3 -16.5 -7l-11.5 -12l-19 -33l-23 60l31 7c28 15.333 51.333 23 70 23
c7.33301 0 13.666 -1.33301 18.999 -4c20 -11.333 31.333 -33.333 34 -66c1.33301 -17.333 -7.33398 -33.666 -26.001 -48.999l-53 -37l-9 -30h-11z" />
    <glyph glyph-name="glyph322" unicode="&#x1ec9;" horiz-adv-x="250" 
d="M213 0h-184l47 47v288l-45 45l135 49v-382zM85 479l-11.998 35.998l45 38c14 14.667 21 27.334 21 38.001c0 6 -2.33301 13 -7 21c-6 12 -16.667 17 -32 15c-7.33301 -0.666992 -12.833 -3 -16.5 -7l-11.5 -12l-19 -33l-23 60l31 7c28 15.333 51.333 23 70 23
c7.33301 0 13.666 -1.33301 18.999 -4c20 -11.333 31.333 -33.333 34 -66c1.33301 -17.333 -7.33398 -33.666 -26.001 -48.999l-53 -37l-9 -30h-11z" />
    <glyph glyph-name="glyph323" unicode="&#x1eca;" horiz-adv-x="267" 
d="M38 590h191l-51 -51v-488l51 -51h-191l50 51v488zM133 -150c-13.333 0 -24.833 4.83301 -34.5 14.5s-14.5 21.5 -14.5 35.5c0 13.333 4.83301 25 14.5 35s21.167 15 34.5 15c14 0 25.833 -5 35.5 -15s14.5 -21.667 14.5 -35c0 -14 -4.83301 -25.833 -14.5 -35.5
s-21.5 -14.5 -35.5 -14.5z" />
    <glyph glyph-name="glyph324" unicode="&#x1ecb;" horiz-adv-x="250" 
d="M213 0h-184l47 47v288l-45 45l135 49v-382zM120 -150c-13.333 0 -24.833 4.83301 -34.5 14.5s-14.5 21.5 -14.5 35.5c0 13.333 4.83301 25 14.5 35s21.167 15 34.5 15c14 0 25.833 -5 35.5 -15s14.5 -21.667 14.5 -35c0 -14 -4.83301 -25.833 -14.5 -35.5
s-21.5 -14.5 -35.5 -14.5zM118 479c-13.333 0 -24.833 4.83301 -34.5 14.5s-14.5 21.5 -14.5 35.5c0 13.333 4.83301 25 14.5 35s21.167 15 34.5 15c14 0 25.833 -5 35.5 -15s14.5 -21.667 14.5 -35c0 -14 -4.83301 -25.833 -14.5 -35.5s-21.5 -14.5 -35.5 -14.5z" />
    <glyph glyph-name="glyph325" unicode="&#x1ecc;" horiz-adv-x="565" 
d="M29 295c0 81.333 23 152 69 212c48.667 64 110.334 96 185.001 96s136.334 -32 185.001 -96c45.333 -60 68 -130.667 68 -212s-22.667 -152 -68 -212c-48.667 -64 -110.334 -96 -185.001 -96s-136.334 32 -185.001 96c-46 60 -69 130.667 -69 212zM140 295
c0 -70.667 9.66699 -128.334 29 -173.001c24.667 -57.333 62.667 -86 114 -86c50.667 0 88.334 28.667 113.001 86c19.333 44.667 29 102.334 29 173.001s-9.66699 128.334 -29 173.001c-24.667 57.333 -62.334 86 -113.001 86c-51.333 0 -89.333 -28.667 -114 -86
c-19.333 -44.667 -29 -102.334 -29 -173.001zM278 -162c-13.333 0 -24.833 4.83301 -34.5 14.5s-14.5 21.5 -14.5 35.5c0 13.333 4.83301 25 14.5 35s21.167 15 34.5 15c14 0 25.833 -5 35.5 -15s14.5 -21.667 14.5 -35c0 -14 -4.83301 -25.833 -14.5 -35.5
s-21.5 -14.5 -35.5 -14.5z" />
    <glyph glyph-name="glyph326" unicode="&#x1ecd;" horiz-adv-x="482" 
d="M29 212c0 60.667 20.5 113.167 61.5 157.5s91.167 66.5 150.5 66.5s109.5 -22.167 150.5 -66.5s61.5 -96.833 61.5 -157.5s-20.5 -113.334 -61.5 -158.001s-91.167 -67 -150.5 -67s-109.5 22.333 -150.5 67s-61.5 97.334 -61.5 158.001zM241 23c67.333 0 101 63 101 189
c0 125.333 -33.667 188 -101 188s-101 -62.667 -101 -188c0 -126 33.667 -189 101 -189zM241 -163c-13.333 0 -24.833 4.83301 -34.5 14.5s-14.5 21.5 -14.5 35.5c0 13.333 4.83301 25 14.5 35s21.167 15 34.5 15c14 0 25.833 -5 35.5 -15s14.5 -21.667 14.5 -35
c0 -14 -4.83301 -25.833 -14.5 -35.5s-21.5 -14.5 -35.5 -14.5z" />
    <glyph glyph-name="glyph327" unicode="&#x1ece;" horiz-adv-x="565" 
d="M29 295c0 81.333 23 152 69 212c48.667 64 110.334 96 185.001 96s136.334 -32 185.001 -96c45.333 -60 68 -130.667 68 -212s-22.667 -152 -68 -212c-48.667 -64 -110.334 -96 -185.001 -96s-136.334 32 -185.001 96c-46 60 -69 130.667 -69 212zM140 295
c0 -70.667 9.66699 -128.334 29 -173.001c24.667 -57.333 62.667 -86 114 -86c50.667 0 88.334 28.667 113.001 86c19.333 44.667 29 102.334 29 173.001s-9.66699 128.334 -29 173.001c-24.667 57.333 -62.334 86 -113.001 86c-51.333 0 -89.333 -28.667 -114 -86
c-19.333 -44.667 -29 -102.334 -29 -173.001zM273 654l-11.998 35.998l45 38c14 14.667 21 27.334 21 38.001c0 6 -2.33301 13 -7 21c-6 12 -16.667 17 -32 15c-7.33301 -0.666992 -12.833 -3 -16.5 -7l-11.5 -12l-19 -33l-23 60l31 7c28 15.333 51.333 23 70 23
c7.33301 0 13.666 -1.33301 18.999 -4c20 -11.333 31.333 -33.333 34 -66c1.33301 -17.333 -7.33398 -33.666 -26.001 -48.999l-53 -37l-9 -30h-11z" />
    <glyph glyph-name="glyph328" unicode="&#x1ecf;" horiz-adv-x="482" 
d="M29 212c0 60.667 20.5 113.167 61.5 157.5s91.167 66.5 150.5 66.5s109.5 -22.167 150.5 -66.5s61.5 -96.833 61.5 -157.5s-20.5 -113.334 -61.5 -158.001s-91.167 -67 -150.5 -67s-109.5 22.333 -150.5 67s-61.5 97.334 -61.5 158.001zM241 23c67.333 0 101 63 101 189
c0 125.333 -33.667 188 -101 188s-101 -62.667 -101 -188c0 -126 33.667 -189 101 -189zM230 486l-11.998 35.998l45 38c14 14.667 21 27.334 21 38.001c0 6 -2.33301 13 -7 21c-6 12 -16.667 17 -32 15c-7.33301 -0.666992 -12.833 -3 -16.5 -7l-11.5 -12l-19 -33l-23 60
l31 7c28 15.333 51.333 23 70 23c7.33301 0 13.666 -1.33301 18.999 -4c20 -11.333 31.333 -33.333 34 -66c1.33301 -17.333 -7.33398 -33.666 -26.001 -48.999l-53 -37l-9 -30h-11z" />
    <glyph glyph-name="glyph329" unicode="&#x1ed0;" horiz-adv-x="565" 
d="M29 295c0 81.333 23 152 69 212c48.667 64 110.334 96 185.001 96s136.334 -32 185.001 -96c45.333 -60 68 -130.667 68 -212s-22.667 -152 -68 -212c-48.667 -64 -110.334 -96 -185.001 -96s-136.334 32 -185.001 96c-46 60 -69 130.667 -69 212zM140 295
c0 -70.667 9.66699 -128.334 29 -173.001c24.667 -57.333 62.667 -86 114 -86c50.667 0 88.334 28.667 113.001 86c19.333 44.667 29 102.334 29 173.001s-9.66699 128.334 -29 173.001c-24.667 57.333 -62.334 86 -113.001 86c-51.333 0 -89.333 -28.667 -114 -86
c-19.333 -44.667 -29 -102.334 -29 -173.001zM416 622h-19l-114 61l-114 -61h-18l132 133zM466 817l-139 -63l93 94c16 16 29.667 24 41 24c16 0 24 -7.66699 24 -23s-6.33301 -26 -19 -32z" />
    <glyph glyph-name="glyph330" unicode="&#x1ed1;" horiz-adv-x="482" 
d="M29 212c0 60.667 20.5 113.167 61.5 157.5s91.167 66.5 150.5 66.5s109.5 -22.167 150.5 -66.5s61.5 -96.833 61.5 -157.5s-20.5 -113.334 -61.5 -158.001s-91.167 -67 -150.5 -67s-109.5 22.333 -150.5 67s-61.5 97.334 -61.5 158.001zM241 23c67.333 0 101 63 101 189
c0 125.333 -33.667 188 -101 188s-101 -62.667 -101 -188c0 -126 33.667 -189 101 -189zM374 453h-19l-114 61l-114 -61h-18l132 133zM417 647l-139 -63l93 94c16 16 29.667 24 41 24c16 0 24 -7.66699 24 -23s-6.33301 -26 -19 -32z" />
    <glyph glyph-name="glyph331" unicode="&#x1ed2;" horiz-adv-x="565" 
d="M29 295c0 81.333 23 152 69 212c48.667 64 110.334 96 185.001 96s136.334 -32 185.001 -96c45.333 -60 68 -130.667 68 -212s-22.667 -152 -68 -212c-48.667 -64 -110.334 -96 -185.001 -96s-136.334 32 -185.001 96c-46 60 -69 130.667 -69 212zM140 295
c0 -70.667 9.66699 -128.334 29 -173.001c24.667 -57.333 62.667 -86 114 -86c50.667 0 88.334 28.667 113.001 86c19.333 44.667 29 102.334 29 173.001s-9.66699 128.334 -29 173.001c-24.667 57.333 -62.334 86 -113.001 86c-51.333 0 -89.333 -28.667 -114 -86
c-19.333 -44.667 -29 -102.334 -29 -173.001zM416 622h-19l-114 61l-114 -61h-18l132 133zM98 815l139 -63l-93 94c-16 16 -29.667 24 -41 24c-16 0 -24 -7.66699 -24 -23s6.33301 -26 19 -32z" />
    <glyph glyph-name="glyph332" unicode="&#x1ed3;" horiz-adv-x="482" 
d="M29 212c0 60.667 20.5 113.167 61.5 157.5s91.167 66.5 150.5 66.5s109.5 -22.167 150.5 -66.5s61.5 -96.833 61.5 -157.5s-20.5 -113.334 -61.5 -158.001s-91.167 -67 -150.5 -67s-109.5 22.333 -150.5 67s-61.5 97.334 -61.5 158.001zM241 23c67.333 0 101 63 101 189
c0 125.333 -33.667 188 -101 188s-101 -62.667 -101 -188c0 -126 33.667 -189 101 -189zM374 453h-19l-114 61l-114 -61h-18l132 133zM69 651l139 -63l-93 94c-16 16 -29.667 24 -41 24c-16 0 -24 -7.66699 -24 -23s6.33301 -26 19 -32z" />
    <glyph glyph-name="glyph333" unicode="&#x1ed4;" horiz-adv-x="565" 
d="M29 295c0 81.333 23 152 69 212c48.667 64 110.334 96 185.001 96s136.334 -32 185.001 -96c45.333 -60 68 -130.667 68 -212s-22.667 -152 -68 -212c-48.667 -64 -110.334 -96 -185.001 -96s-136.334 32 -185.001 96c-46 60 -69 130.667 -69 212zM140 295
c0 -70.667 9.66699 -128.334 29 -173.001c24.667 -57.333 62.667 -86 114 -86c50.667 0 88.334 28.667 113.001 86c19.333 44.667 29 102.334 29 173.001s-9.66699 128.334 -29 173.001c-24.667 57.333 -62.334 86 -113.001 86c-51.333 0 -89.333 -28.667 -114 -86
c-19.333 -44.667 -29 -102.334 -29 -173.001zM416 622h-19l-114 61l-114 -61h-18l132 133zM383 680l-11.998 35.998l45 38c14 14.667 21 27.334 21 38.001c0 6 -2.33301 13 -7 21c-6 12 -16.667 17 -32 15c-7.33301 -0.666992 -12.833 -3 -16.5 -7l-11.5 -12l-19 -33l-23 60
l31 7c28 15.333 51.333 23 70 23c7.33301 0 13.666 -1.33301 18.999 -4c20 -11.333 31.333 -33.333 34 -66c1.33301 -17.333 -7.33398 -33.666 -26.001 -48.999l-53 -37l-9 -30h-11z" />
    <glyph glyph-name="glyph334" unicode="&#x1ed5;" horiz-adv-x="482" 
d="M29 212c0 60.667 20.5 113.167 61.5 157.5s91.167 66.5 150.5 66.5s109.5 -22.167 150.5 -66.5s61.5 -96.833 61.5 -157.5s-20.5 -113.334 -61.5 -158.001s-91.167 -67 -150.5 -67s-109.5 22.333 -150.5 67s-61.5 97.334 -61.5 158.001zM241 23c67.333 0 101 63 101 189
c0 125.333 -33.667 188 -101 188s-101 -62.667 -101 -188c0 -126 33.667 -189 101 -189zM374 453h-19l-114 61l-114 -61h-18l132 133zM332 509l-11.998 35.998l45 38c14 14.667 21 27.334 21 38.001c0 6 -2.33301 13 -7 21c-6 12 -16.667 17 -32 15
c-7.33301 -0.666992 -12.833 -3 -16.5 -7l-11.5 -12l-19 -33l-23 60l31 7c28 15.333 51.333 23 70 23c7.33301 0 13.666 -1.33301 18.999 -4c20 -11.333 31.333 -33.333 34 -66c1.33301 -17.333 -7.33398 -33.666 -26.001 -48.999l-53 -37l-9 -30h-11z" />
    <glyph glyph-name="glyph335" unicode="&#x1ed6;" horiz-adv-x="565" 
d="M29 295c0 81.333 23 152 69 212c48.667 64 110.334 96 185.001 96s136.334 -32 185.001 -96c45.333 -60 68 -130.667 68 -212s-22.667 -152 -68 -212c-48.667 -64 -110.334 -96 -185.001 -96s-136.334 32 -185.001 96c-46 60 -69 130.667 -69 212zM140 295
c0 -70.667 9.66699 -128.334 29 -173.001c24.667 -57.333 62.667 -86 114 -86c50.667 0 88.334 28.667 113.001 86c19.333 44.667 29 102.334 29 173.001s-9.66699 128.334 -29 173.001c-24.667 57.333 -62.334 86 -113.001 86c-51.333 0 -89.333 -28.667 -114 -86
c-19.333 -44.667 -29 -102.334 -29 -173.001zM416 622h-19l-114 61l-114 -61h-18l132 133zM205 766l-1.00098 -2h-21l2 4c15.333 43.333 44 65 86 65c18 0 33.167 -4.83301 45.5 -14.5s21.833 -14.5 28.5 -14.5c12.667 0 24.334 9.33301 35.001 28l1 1h20l-1 -4
c-15.333 -43.333 -44.333 -65 -87 -65c-14.667 0 -28.667 4.83301 -42 14.5s-23.666 14.5 -30.999 14.5c-14.667 0 -26.334 -9 -35.001 -27z" />
    <glyph glyph-name="glyph336" unicode="&#x1ed7;" horiz-adv-x="482" 
d="M29 212c0 60.667 20.5 113.167 61.5 157.5s91.167 66.5 150.5 66.5s109.5 -22.167 150.5 -66.5s61.5 -96.833 61.5 -157.5s-20.5 -113.334 -61.5 -158.001s-91.167 -67 -150.5 -67s-109.5 22.333 -150.5 67s-61.5 97.334 -61.5 158.001zM241 23c67.333 0 101 63 101 189
c0 125.333 -33.667 188 -101 188s-101 -62.667 -101 -188c0 -126 33.667 -189 101 -189zM374 453h-19l-114 61l-114 -61h-18l132 133zM151 601l-1.00098 -2h-21l2 4c15.333 43.333 44 65 86 65c18 0 33.167 -4.83301 45.5 -14.5s21.833 -14.5 28.5 -14.5
c12.667 0 24.334 9.33301 35.001 28l1 1h20l-1 -4c-15.333 -43.333 -44.333 -65 -87 -65c-14.667 0 -28.667 4.83301 -42 14.5s-23.666 14.5 -30.999 14.5c-14.667 0 -26.334 -9 -35.001 -27z" />
    <glyph glyph-name="glyph337" unicode="&#x1ed8;" horiz-adv-x="565" 
d="M29 295c0 81.333 23 152 69 212c48.667 64 110.334 96 185.001 96s136.334 -32 185.001 -96c45.333 -60 68 -130.667 68 -212s-22.667 -152 -68 -212c-48.667 -64 -110.334 -96 -185.001 -96s-136.334 32 -185.001 96c-46 60 -69 130.667 -69 212zM140 295
c0 -70.667 9.66699 -128.334 29 -173.001c24.667 -57.333 62.667 -86 114 -86c50.667 0 88.334 28.667 113.001 86c19.333 44.667 29 102.334 29 173.001s-9.66699 128.334 -29 173.001c-24.667 57.333 -62.334 86 -113.001 86c-51.333 0 -89.333 -28.667 -114 -86
c-19.333 -44.667 -29 -102.334 -29 -173.001zM416 622h-19l-114 61l-114 -61h-18l132 133zM278 -162c-13.333 0 -24.833 4.83301 -34.5 14.5s-14.5 21.5 -14.5 35.5c0 13.333 4.83301 25 14.5 35s21.167 15 34.5 15c14 0 25.833 -5 35.5 -15s14.5 -21.667 14.5 -35
c0 -14 -4.83301 -25.833 -14.5 -35.5s-21.5 -14.5 -35.5 -14.5z" />
    <glyph glyph-name="glyph338" unicode="&#x1ed9;" horiz-adv-x="482" 
d="M29 212c0 60.667 20.5 113.167 61.5 157.5s91.167 66.5 150.5 66.5s109.5 -22.167 150.5 -66.5s61.5 -96.833 61.5 -157.5s-20.5 -113.334 -61.5 -158.001s-91.167 -67 -150.5 -67s-109.5 22.333 -150.5 67s-61.5 97.334 -61.5 158.001zM241 23c67.333 0 101 63 101 189
c0 125.333 -33.667 188 -101 188s-101 -62.667 -101 -188c0 -126 33.667 -189 101 -189zM374 453h-19l-114 61l-114 -61h-18l132 133zM237 -162c-13.333 0 -24.833 4.83301 -34.5 14.5s-14.5 21.5 -14.5 35.5c0 13.333 4.83301 25 14.5 35s21.167 15 34.5 15
c14 0 25.833 -5 35.5 -15s14.5 -21.667 14.5 -35c0 -14 -4.83301 -25.833 -14.5 -35.5s-21.5 -14.5 -35.5 -14.5z" />
    <glyph glyph-name="glyph339" unicode="&#x1eda;" horiz-adv-x="565" 
d="M140 295c0 -70.667 9.66699 -128.334 29 -173.001c24.667 -57.333 62.667 -86 114 -86c50.667 0 88.334 28.667 113.001 86c19.333 44.667 29 102.334 29 173.001s-9.66699 128.334 -29 173.001c-24.667 57.333 -62.334 86 -113.001 86
c-51.333 0 -89.333 -28.667 -114 -86c-19.333 -44.667 -29 -102.334 -29 -173.001zM482 548c0 9.33301 -2.66504 17.335 -7.99805 24.002s-12.333 10 -21 10c-4 0 -8.33301 -1 -13 -3c-0.666992 12.667 4 23 14 31c4.66699 5.33301 11.667 8 21 8
c6.66699 0 13.667 -1.66699 21 -5c22 -8.66699 33 -26.334 33 -53.001c0 -35.333 -16 -59.333 -48 -72c36.667 -56.667 55 -121 55 -193c0 -81.333 -22.667 -152 -68 -212c-48.667 -64 -110.334 -96 -185.001 -96s-136.334 32 -185.001 96c-46 60 -69 130.667 -69 212
s22.667 152 68 212c49.333 64 111.333 96 186 96c70 0 128.667 -28.667 176 -86c15.333 7.33301 23 17.666 23 30.999zM418.002 716.002l-139 -63l93 94c16 16 29.667 24 41 24c16 0 24 -7.66699 24 -23s-6.33301 -26 -19 -32z" />
    <glyph glyph-name="glyph340" unicode="&#x1edb;" horiz-adv-x="482" 
d="M241 23c67.333 0 101 63 101 189c0 125.333 -33.667 188 -101 188s-101 -62.667 -101 -188c0 -126 33.667 -189 101 -189zM417 381c0 8.66699 -2.66797 16.499 -8.00098 23.499s-12 10.5 -20 10.5c-4.66699 0 -9 -1 -13 -3c-0.666992 12 4 22.333 14 31
c4.66699 4.66699 11.334 7 20.001 7c6.66699 0 14 -1.33301 22 -4c22 -8.66699 33 -26.667 33 -54c0 -31.333 -13.667 -54 -41 -68c19.333 -34.667 29 -72 29 -112c0 -60.667 -20.5 -113.334 -61.5 -158.001s-91.167 -67 -150.5 -67s-109.5 22.333 -150.5 67
s-61.5 97.334 -61.5 158.001s20.5 113.167 61.5 157.5s91.167 66.5 150.5 66.5c66 0 120.333 -27 163 -81c8.66699 6.66699 13 15.334 13 26.001zM379.999 548.999l-139 -63l93 94c16 16 29.667 24 41 24c16 0 24 -7.66699 24 -23s-6.33301 -26 -19 -32z" />
    <glyph glyph-name="glyph341" unicode="&#x1edc;" horiz-adv-x="565" 
d="M140 295c0 -70.667 9.66699 -128.334 29 -173.001c24.667 -57.333 62.667 -86 114 -86c50.667 0 88.334 28.667 113.001 86c19.333 44.667 29 102.334 29 173.001s-9.66699 128.334 -29 173.001c-24.667 57.333 -62.334 86 -113.001 86
c-51.333 0 -89.333 -28.667 -114 -86c-19.333 -44.667 -29 -102.334 -29 -173.001zM482 548c0 9.33301 -2.66504 17.335 -7.99805 24.002s-12.333 10 -21 10c-4 0 -8.33301 -1 -13 -3c-0.666992 12.667 4 23 14 31c4.66699 5.33301 11.667 8 21 8
c6.66699 0 13.667 -1.66699 21 -5c22 -8.66699 33 -26.334 33 -53.001c0 -35.333 -16 -59.333 -48 -72c36.667 -56.667 55 -121 55 -193c0 -81.333 -22.667 -152 -68 -212c-48.667 -64 -110.334 -96 -185.001 -96s-136.334 32 -185.001 96c-46 60 -69 130.667 -69 212
s22.667 152 68 212c49.333 64 111.333 96 186 96c70 0 128.667 -28.667 176 -86c15.333 7.33301 23 17.666 23 30.999zM139.002 717.002l139 -63l-93 94c-16 16 -29.667 24 -41 24c-16 0 -24 -7.66699 -24 -23s6.33301 -26 19 -32z" />
    <glyph glyph-name="glyph342" unicode="&#x1edd;" horiz-adv-x="482" 
d="M241 23c67.333 0 101 63 101 189c0 125.333 -33.667 188 -101 188s-101 -62.667 -101 -188c0 -126 33.667 -189 101 -189zM417 381c0 8.66699 -2.66797 16.499 -8.00098 23.499s-12 10.5 -20 10.5c-4.66699 0 -9 -1 -13 -3c-0.666992 12 4 22.333 14 31
c4.66699 4.66699 11.334 7 20.001 7c6.66699 0 14 -1.33301 22 -4c22 -8.66699 33 -26.667 33 -54c0 -31.333 -13.667 -54 -41 -68c19.333 -34.667 29 -72 29 -112c0 -60.667 -20.5 -113.334 -61.5 -158.001s-91.167 -67 -150.5 -67s-109.5 22.333 -150.5 67
s-61.5 97.334 -61.5 158.001s20.5 113.167 61.5 157.5s91.167 66.5 150.5 66.5c66 0 120.333 -27 163 -81c8.66699 6.66699 13 15.334 13 26.001zM101.999 548.999l139 -63l-93 94c-16 16 -29.667 24 -41 24c-16 0 -24 -7.66699 -24 -23s6.33301 -26 19 -32z" />
    <glyph glyph-name="glyph343" unicode="&#x1ede;" horiz-adv-x="565" 
d="M140 295c0 -70.667 9.66699 -128.334 29 -173.001c24.667 -57.333 62.667 -86 114 -86c50.667 0 88.334 28.667 113.001 86c19.333 44.667 29 102.334 29 173.001s-9.66699 128.334 -29 173.001c-24.667 57.333 -62.334 86 -113.001 86
c-51.333 0 -89.333 -28.667 -114 -86c-19.333 -44.667 -29 -102.334 -29 -173.001zM482 548c0 9.33301 -2.66504 17.335 -7.99805 24.002s-12.333 10 -21 10c-4 0 -8.33301 -1 -13 -3c-0.666992 12.667 4 23 14 31c4.66699 5.33301 11.667 8 21 8
c6.66699 0 13.667 -1.66699 21 -5c22 -8.66699 33 -26.334 33 -53.001c0 -35.333 -16 -59.333 -48 -72c36.667 -56.667 55 -121 55 -193c0 -81.333 -22.667 -152 -68 -212c-48.667 -64 -110.334 -96 -185.001 -96s-136.334 32 -185.001 96c-46 60 -69 130.667 -69 212
s22.667 152 68 212c49.333 64 111.333 96 186 96c70 0 128.667 -28.667 176 -86c15.333 7.33301 23 17.666 23 30.999zM273.002 654.002l-11.998 35.998l45 38c14 14.667 21 27.334 21 38.001c0 6 -2.33301 13 -7 21c-6 12 -16.667 17 -32 15
c-7.33301 -0.666992 -12.833 -3 -16.5 -7l-11.5 -12l-19 -33l-23 60l31 7c28 15.333 51.333 23 70 23c7.33301 0 13.666 -1.33301 18.999 -4c20 -11.333 31.333 -33.333 34 -66c1.33301 -17.333 -7.33398 -33.666 -26.001 -48.999l-53 -37l-9 -30h-11z" />
    <glyph glyph-name="glyph344" unicode="&#x1edf;" horiz-adv-x="482" 
d="M241 23c67.333 0 101 63 101 189c0 125.333 -33.667 188 -101 188s-101 -62.667 -101 -188c0 -126 33.667 -189 101 -189zM417 381c0 8.66699 -2.66797 16.499 -8.00098 23.499s-12 10.5 -20 10.5c-4.66699 0 -9 -1 -13 -3c-0.666992 12 4 22.333 14 31
c4.66699 4.66699 11.334 7 20.001 7c6.66699 0 14 -1.33301 22 -4c22 -8.66699 33 -26.667 33 -54c0 -31.333 -13.667 -54 -41 -68c19.333 -34.667 29 -72 29 -112c0 -60.667 -20.5 -113.334 -61.5 -158.001s-91.167 -67 -150.5 -67s-109.5 22.333 -150.5 67
s-61.5 97.334 -61.5 158.001s20.5 113.167 61.5 157.5s91.167 66.5 150.5 66.5c66 0 120.333 -27 163 -81c8.66699 6.66699 13 15.334 13 26.001zM229.999 485.999l-11.998 35.998l45 38c14 14.667 21 27.334 21 38.001c0 6 -2.33301 13 -7 21c-6 12 -16.667 17 -32 15
c-7.33301 -0.666992 -12.833 -3 -16.5 -7l-11.5 -12l-19 -33l-23 60l31 7c28 15.333 51.333 23 70 23c7.33301 0 13.666 -1.33301 18.999 -4c20 -11.333 31.333 -33.333 34 -66c1.33301 -17.333 -7.33398 -33.666 -26.001 -48.999l-53 -37l-9 -30h-11z" />
    <glyph glyph-name="glyph345" unicode="&#x1ee0;" horiz-adv-x="565" 
d="M140 295c0 -70.667 9.66699 -128.334 29 -173.001c24.667 -57.333 62.667 -86 114 -86c50.667 0 88.334 28.667 113.001 86c19.333 44.667 29 102.334 29 173.001s-9.66699 128.334 -29 173.001c-24.667 57.333 -62.334 86 -113.001 86
c-51.333 0 -89.333 -28.667 -114 -86c-19.333 -44.667 -29 -102.334 -29 -173.001zM482 548c0 9.33301 -2.66504 17.335 -7.99805 24.002s-12.333 10 -21 10c-4 0 -8.33301 -1 -13 -3c-0.666992 12.667 4 23 14 31c4.66699 5.33301 11.667 8 21 8
c6.66699 0 13.667 -1.66699 21 -5c22 -8.66699 33 -26.334 33 -53.001c0 -35.333 -16 -59.333 -48 -72c36.667 -56.667 55 -121 55 -193c0 -81.333 -22.667 -152 -68 -212c-48.667 -64 -110.334 -96 -185.001 -96s-136.334 32 -185.001 96c-46 60 -69 130.667 -69 212
s22.667 152 68 212c49.333 64 111.333 96 186 96c70 0 128.667 -28.667 176 -86c15.333 7.33301 23 17.666 23 30.999zM204.002 654.002l-1.00098 -2h-21l2 4c15.333 43.333 44 65 86 65c18 0 33.167 -4.83301 45.5 -14.5s21.833 -14.5 28.5 -14.5
c12.667 0 24.334 9.33301 35.001 28l1 1h20l-1 -4c-15.333 -43.333 -44.333 -65 -87 -65c-14.667 0 -28.667 4.83301 -42 14.5s-23.666 14.5 -30.999 14.5c-14.667 0 -26.334 -9 -35.001 -27z" />
    <glyph glyph-name="glyph346" unicode="&#x1ee1;" horiz-adv-x="482" 
d="M241 23c67.333 0 101 63 101 189c0 125.333 -33.667 188 -101 188s-101 -62.667 -101 -188c0 -126 33.667 -189 101 -189zM417 381c0 8.66699 -2.66797 16.499 -8.00098 23.499s-12 10.5 -20 10.5c-4.66699 0 -9 -1 -13 -3c-0.666992 12 4 22.333 14 31
c4.66699 4.66699 11.334 7 20.001 7c6.66699 0 14 -1.33301 22 -4c22 -8.66699 33 -26.667 33 -54c0 -31.333 -13.667 -54 -41 -68c19.333 -34.667 29 -72 29 -112c0 -60.667 -20.5 -113.334 -61.5 -158.001s-91.167 -67 -150.5 -67s-109.5 22.333 -150.5 67
s-61.5 97.334 -61.5 158.001s20.5 113.167 61.5 157.5s91.167 66.5 150.5 66.5c66 0 120.333 -27 163 -81c8.66699 6.66699 13 15.334 13 26.001zM155.999 486.999l-1.00098 -2h-21l2 4c15.333 43.333 44 65 86 65c18 0 33.167 -4.83301 45.5 -14.5s21.833 -14.5 28.5 -14.5
c12.667 0 24.334 9.33301 35.001 28l1 1h20l-1 -4c-15.333 -43.333 -44.333 -65 -87 -65c-14.667 0 -28.667 4.83301 -42 14.5s-23.666 14.5 -30.999 14.5c-14.667 0 -26.334 -9 -35.001 -27z" />
    <glyph glyph-name="glyph347" unicode="&#x1ee2;" horiz-adv-x="565" 
d="M140 295c0 -70.667 9.66699 -128.334 29 -173.001c24.667 -57.333 62.667 -86 114 -86c50.667 0 88.334 28.667 113.001 86c19.333 44.667 29 102.334 29 173.001s-9.66699 128.334 -29 173.001c-24.667 57.333 -62.334 86 -113.001 86
c-51.333 0 -89.333 -28.667 -114 -86c-19.333 -44.667 -29 -102.334 -29 -173.001zM482 548c0 9.33301 -2.66504 17.335 -7.99805 24.002s-12.333 10 -21 10c-4 0 -8.33301 -1 -13 -3c-0.666992 12.667 4 23 14 31c4.66699 5.33301 11.667 8 21 8
c6.66699 0 13.667 -1.66699 21 -5c22 -8.66699 33 -26.334 33 -53.001c0 -35.333 -16 -59.333 -48 -72c36.667 -56.667 55 -121 55 -193c0 -81.333 -22.667 -152 -68 -212c-48.667 -64 -110.334 -96 -185.001 -96s-136.334 32 -185.001 96c-46 60 -69 130.667 -69 212
s22.667 152 68 212c49.333 64 111.333 96 186 96c70 0 128.667 -28.667 176 -86c15.333 7.33301 23 17.666 23 30.999zM278.002 -161.998c-13.333 0 -24.833 4.83301 -34.5 14.5s-14.5 21.5 -14.5 35.5c0 13.333 4.83301 25 14.5 35s21.167 15 34.5 15
c14 0 25.833 -5 35.5 -15s14.5 -21.667 14.5 -35c0 -14 -4.83301 -25.833 -14.5 -35.5s-21.5 -14.5 -35.5 -14.5z" />
    <glyph glyph-name="glyph348" unicode="&#x1ee3;" horiz-adv-x="482" 
d="M241 23c67.333 0 101 63 101 189c0 125.333 -33.667 188 -101 188s-101 -62.667 -101 -188c0 -126 33.667 -189 101 -189zM417 381c0 8.66699 -2.66797 16.499 -8.00098 23.499s-12 10.5 -20 10.5c-4.66699 0 -9 -1 -13 -3c-0.666992 12 4 22.333 14 31
c4.66699 4.66699 11.334 7 20.001 7c6.66699 0 14 -1.33301 22 -4c22 -8.66699 33 -26.667 33 -54c0 -31.333 -13.667 -54 -41 -68c19.333 -34.667 29 -72 29 -112c0 -60.667 -20.5 -113.334 -61.5 -158.001s-91.167 -67 -150.5 -67s-109.5 22.333 -150.5 67
s-61.5 97.334 -61.5 158.001s20.5 113.167 61.5 157.5s91.167 66.5 150.5 66.5c66 0 120.333 -27 163 -81c8.66699 6.66699 13 15.334 13 26.001zM240.999 -163.001c-13.333 0 -24.833 4.83301 -34.5 14.5s-14.5 21.5 -14.5 35.5c0 13.333 4.83301 25 14.5 35
s21.167 15 34.5 15c14 0 25.833 -5 35.5 -15s14.5 -21.667 14.5 -35c0 -14 -4.83301 -25.833 -14.5 -35.5s-21.5 -14.5 -35.5 -14.5z" />
    <glyph glyph-name="glyph349" unicode="&#x1ee4;" horiz-adv-x="542" 
d="M76 158v381l-51 51h192l-51 -51v-381c0 -32.667 12 -60.5 36 -83.5s52.667 -34.5 86 -34.5c32.667 0 61 11.5 85 34.5s36 50.833 36 83.5v381l-51 51h159l-51 -51v-381c0 -49.333 -19.5 -90.166 -58.5 -122.499s-84.5 -48.5 -136.5 -48.5s-97 15.667 -135 47
c-40 33.333 -60 74.666 -60 123.999zM277 -163c-13.333 0 -24.833 4.83301 -34.5 14.5s-14.5 21.5 -14.5 35.5c0 13.333 4.83301 25 14.5 35s21.167 15 34.5 15c14 0 25.833 -5 35.5 -15s14.5 -21.667 14.5 -35c0 -14 -4.83301 -25.833 -14.5 -35.5s-21.5 -14.5 -35.5 -14.5
z" />
    <glyph glyph-name="glyph350" unicode="&#x1ee5;" horiz-adv-x="468" 
d="M268 380l135.002 49v-382l47 -47h-137v78l-35 -35c-40.667 -40.667 -79.667 -61 -117 -61c-26.667 0 -50.334 10 -71.001 30c-18 18 -27 36 -27 54v269l-45 45l135 49v-342c0 -10.667 3 -20.667 9 -30c8 -12.667 18.667 -19 32 -19c19.333 0 45.666 17 78.999 51l40 41
v205zM235.002 -163c-13.333 0 -24.833 4.83301 -34.5 14.5s-14.5 21.5 -14.5 35.5c0 13.333 4.83301 25 14.5 35s21.167 15 34.5 15c14 0 25.833 -5 35.5 -15s14.5 -21.667 14.5 -35c0 -14 -4.83301 -25.833 -14.5 -35.5s-21.5 -14.5 -35.5 -14.5z" />
    <glyph glyph-name="glyph351" unicode="&#x1ee6;" horiz-adv-x="542" 
d="M76 158v381l-51 51h192l-51 -51v-381c0 -32.667 12 -60.5 36 -83.5s52.667 -34.5 86 -34.5c32.667 0 61 11.5 85 34.5s36 50.833 36 83.5v381l-51 51h159l-51 -51v-381c0 -49.333 -19.5 -90.166 -58.5 -122.499s-84.5 -48.5 -136.5 -48.5s-97 15.667 -135 47
c-40 33.333 -60 74.666 -60 123.999zM272 639l-11.998 35.998l45 38c14 14.667 21 27.334 21 38.001c0 6 -2.33301 13 -7 21c-6 12 -16.667 17 -32 15c-7.33301 -0.666992 -12.833 -3 -16.5 -7l-11.5 -12l-19 -33l-23 60l31 7c28 15.333 51.333 23 70 23
c7.33301 0 13.666 -1.33301 18.999 -4c20 -11.333 31.333 -33.333 34 -66c1.33301 -17.333 -7.33398 -33.666 -26.001 -48.999l-53 -37l-9 -30h-11z" />
    <glyph glyph-name="glyph352" unicode="&#x1ee7;" horiz-adv-x="468" 
d="M268 380l135.002 49v-382l47 -47h-137v78l-35 -35c-40.667 -40.667 -79.667 -61 -117 -61c-26.667 0 -50.334 10 -71.001 30c-18 18 -27 36 -27 54v269l-45 45l135 49v-342c0 -10.667 3 -20.667 9 -30c8 -12.667 18.667 -19 32 -19c19.333 0 45.666 17 78.999 51l40 41
v205zM205.002 478l-11.998 35.998l45 38c14 14.667 21 27.334 21 38.001c0 6 -2.33301 13 -7 21c-6 12 -16.667 17 -32 15c-7.33301 -0.666992 -12.833 -3 -16.5 -7l-11.5 -12l-19 -33l-23 60l31 7c28 15.333 51.333 23 70 23c7.33301 0 13.666 -1.33301 18.999 -4
c20 -11.333 31.333 -33.333 34 -66c1.33301 -17.333 -7.33398 -33.666 -26.001 -48.999l-53 -37l-9 -30h-11z" />
    <glyph glyph-name="glyph353" unicode="&#x1ee8;" horiz-adv-x="542" 
d="M468 541l-2.00195 -2.00098v-381c0 -49.333 -19.5 -90.166 -58.5 -122.499s-84.5 -48.5 -136.5 -48.5s-97 15.667 -135 47c-40 33.333 -60 74.666 -60 123.999v381l-51 51h192l-51 -51v-381c0 -32.667 12 -60.5 36 -83.5s52.667 -34.5 86 -34.5c32.667 0 61 11.5 85 34.5
s36 50.833 36 83.5v381l-51 51h136c1.33301 2.66699 2 5.33398 2 8.00098c0 12.667 -5.66699 19 -17 19c-3.33301 0 -6.66602 -1 -9.99902 -3c-2.66699 4.66699 -4 9.33398 -4 14.001c0 7.33301 3 13.166 9 17.499s13.333 6.5 22 6.5c4.66699 0 9.33398 -0.666992 14.001 -2
c22 -7.33301 33 -22 33 -44c0 -12 -3.66699 -23.333 -11 -34c-12.667 -18.667 -34 -29 -64 -31zM415.998 702.999l-139 -63l93 94c16 16 29.667 24 41 24c16 0 24 -7.66699 24 -23s-6.33301 -26 -19 -32z" />
    <glyph glyph-name="glyph354" unicode="&#x1ee9;" horiz-adv-x="468" 
d="M405 430c3.33301 6.66699 5.00098 12.333 5.00098 17c0 10.667 -5.33301 16 -16 16c-4 0 -8 -1 -12 -3c-2.66699 4.66699 -4 9.33398 -4 14.001c0 7.33301 3 13.166 9 17.499s13.333 6.5 22 6.5c4.66699 0 9.33398 -0.666992 14.001 -2c22 -7.33301 33 -22 33 -44
c0 -12 -3.66699 -23.333 -11 -34c-8.66699 -14 -22.667 -23.333 -42 -28v-343l47 -47h-137v78l-35 -35c-40.667 -40.667 -79.667 -61 -117 -61c-26.667 0 -50.334 10 -71.001 30c-18 18 -27 36 -27 54v269l-45 45l135 49v-342c0 -10.667 3 -20.667 9 -30
c8 -12.667 18.667 -19 32 -19c19.333 0 45.666 17 78.999 51l40 41v205l-45 45l135 49v-1zM353.001 543.999l-139 -63l93 94c16 16 29.667 24 41 24c16 0 24 -7.66699 24 -23s-6.33301 -26 -19 -32z" />
    <glyph glyph-name="glyph355" unicode="&#x1eea;" horiz-adv-x="542" 
d="M468 541l-2.00195 -2.00098v-381c0 -49.333 -19.5 -90.166 -58.5 -122.499s-84.5 -48.5 -136.5 -48.5s-97 15.667 -135 47c-40 33.333 -60 74.666 -60 123.999v381l-51 51h192l-51 -51v-381c0 -32.667 12 -60.5 36 -83.5s52.667 -34.5 86 -34.5c32.667 0 61 11.5 85 34.5
s36 50.833 36 83.5v381l-51 51h136c1.33301 2.66699 2 5.33398 2 8.00098c0 12.667 -5.66699 19 -17 19c-3.33301 0 -6.66602 -1 -9.99902 -3c-2.66699 4.66699 -4 9.33398 -4 14.001c0 7.33301 3 13.166 9 17.499s13.333 6.5 22 6.5c4.66699 0 9.33398 -0.666992 14.001 -2
c22 -7.33301 33 -22 33 -44c0 -12 -3.66699 -23.333 -11 -34c-12.667 -18.667 -34 -29 -64 -31zM137.998 702.999l139 -63l-93 94c-16 16 -29.667 24 -41 24c-16 0 -24 -7.66699 -24 -23s6.33301 -26 19 -32z" />
    <glyph glyph-name="glyph356" unicode="&#x1eeb;" horiz-adv-x="468" 
d="M405 430c3.33301 6.66699 5.00098 12.333 5.00098 17c0 10.667 -5.33301 16 -16 16c-4 0 -8 -1 -12 -3c-2.66699 4.66699 -4 9.33398 -4 14.001c0 7.33301 3 13.166 9 17.499s13.333 6.5 22 6.5c4.66699 0 9.33398 -0.666992 14.001 -2c22 -7.33301 33 -22 33 -44
c0 -12 -3.66699 -23.333 -11 -34c-8.66699 -14 -22.667 -23.333 -42 -28v-343l47 -47h-137v78l-35 -35c-40.667 -40.667 -79.667 -61 -117 -61c-26.667 0 -50.334 10 -71.001 30c-18 18 -27 36 -27 54v269l-45 45l135 49v-342c0 -10.667 3 -20.667 9 -30
c8 -12.667 18.667 -19 32 -19c19.333 0 45.666 17 78.999 51l40 41v205l-45 45l135 49v-1zM77.001 544.999l139 -63l-93 94c-16 16 -29.667 24 -41 24c-16 0 -24 -7.66699 -24 -23s6.33301 -26 19 -32z" />
    <glyph glyph-name="glyph357" unicode="&#x1eec;" horiz-adv-x="542" 
d="M468 541l-2.00195 -2.00098v-381c0 -49.333 -19.5 -90.166 -58.5 -122.499s-84.5 -48.5 -136.5 -48.5s-97 15.667 -135 47c-40 33.333 -60 74.666 -60 123.999v381l-51 51h192l-51 -51v-381c0 -32.667 12 -60.5 36 -83.5s52.667 -34.5 86 -34.5c32.667 0 61 11.5 85 34.5
s36 50.833 36 83.5v381l-51 51h136c1.33301 2.66699 2 5.33398 2 8.00098c0 12.667 -5.66699 19 -17 19c-3.33301 0 -6.66602 -1 -9.99902 -3c-2.66699 4.66699 -4 9.33398 -4 14.001c0 7.33301 3 13.166 9 17.499s13.333 6.5 22 6.5c4.66699 0 9.33398 -0.666992 14.001 -2
c22 -7.33301 33 -22 33 -44c0 -12 -3.66699 -23.333 -11 -34c-12.667 -18.667 -34 -29 -64 -31zM271.998 638.999l-11.998 35.998l45 38c14 14.667 21 27.334 21 38.001c0 6 -2.33301 13 -7 21c-6 12 -16.667 17 -32 15c-7.33301 -0.666992 -12.833 -3 -16.5 -7l-11.5 -12
l-19 -33l-23 60l31 7c28 15.333 51.333 23 70 23c7.33301 0 13.666 -1.33301 18.999 -4c20 -11.333 31.333 -33.333 34 -66c1.33301 -17.333 -7.33398 -33.666 -26.001 -48.999l-53 -37l-9 -30h-11z" />
    <glyph glyph-name="glyph358" unicode="&#x1eed;" horiz-adv-x="468" 
d="M405 430c3.33301 6.66699 5.00098 12.333 5.00098 17c0 10.667 -5.33301 16 -16 16c-4 0 -8 -1 -12 -3c-2.66699 4.66699 -4 9.33398 -4 14.001c0 7.33301 3 13.166 9 17.499s13.333 6.5 22 6.5c4.66699 0 9.33398 -0.666992 14.001 -2c22 -7.33301 33 -22 33 -44
c0 -12 -3.66699 -23.333 -11 -34c-8.66699 -14 -22.667 -23.333 -42 -28v-343l47 -47h-137v78l-35 -35c-40.667 -40.667 -79.667 -61 -117 -61c-26.667 0 -50.334 10 -71.001 30c-18 18 -27 36 -27 54v269l-45 45l135 49v-342c0 -10.667 3 -20.667 9 -30
c8 -12.667 18.667 -19 32 -19c19.333 0 45.666 17 78.999 51l40 41v205l-45 45l135 49v-1zM205.001 477.999l-11.998 35.998l45 38c14 14.667 21 27.334 21 38.001c0 6 -2.33301 13 -7 21c-6 12 -16.667 17 -32 15c-7.33301 -0.666992 -12.833 -3 -16.5 -7l-11.5 -12
l-19 -33l-23 60l31 7c28 15.333 51.333 23 70 23c7.33301 0 13.666 -1.33301 18.999 -4c20 -11.333 31.333 -33.333 34 -66c1.33301 -17.333 -7.33398 -33.666 -26.001 -48.999l-53 -37l-9 -30h-11z" />
    <glyph glyph-name="glyph359" unicode="&#x1eee;" horiz-adv-x="542" 
d="M468 541l-2.00195 -2.00098v-381c0 -49.333 -19.5 -90.166 -58.5 -122.499s-84.5 -48.5 -136.5 -48.5s-97 15.667 -135 47c-40 33.333 -60 74.666 -60 123.999v381l-51 51h192l-51 -51v-381c0 -32.667 12 -60.5 36 -83.5s52.667 -34.5 86 -34.5c32.667 0 61 11.5 85 34.5
s36 50.833 36 83.5v381l-51 51h136c1.33301 2.66699 2 5.33398 2 8.00098c0 12.667 -5.66699 19 -17 19c-3.33301 0 -6.66602 -1 -9.99902 -3c-2.66699 4.66699 -4 9.33398 -4 14.001c0 7.33301 3 13.166 9 17.499s13.333 6.5 22 6.5c4.66699 0 9.33398 -0.666992 14.001 -2
c22 -7.33301 33 -22 33 -44c0 -12 -3.66699 -23.333 -11 -34c-12.667 -18.667 -34 -29 -64 -31zM203.998 641.999l-1.00098 -2h-21l2 4c15.333 43.333 44 65 86 65c18 0 33.167 -4.83301 45.5 -14.5s21.833 -14.5 28.5 -14.5c12.667 0 24.334 9.33301 35.001 28l1 1h20
l-1 -4c-15.333 -43.333 -44.333 -65 -87 -65c-14.667 0 -28.667 4.83301 -42 14.5s-23.666 14.5 -30.999 14.5c-14.667 0 -26.334 -9 -35.001 -27z" />
    <glyph glyph-name="glyph360" unicode="&#x1eef;" horiz-adv-x="468" 
d="M405 430c3.33301 6.66699 5.00098 12.333 5.00098 17c0 10.667 -5.33301 16 -16 16c-4 0 -8 -1 -12 -3c-2.66699 4.66699 -4 9.33398 -4 14.001c0 7.33301 3 13.166 9 17.499s13.333 6.5 22 6.5c4.66699 0 9.33398 -0.666992 14.001 -2c22 -7.33301 33 -22 33 -44
c0 -12 -3.66699 -23.333 -11 -34c-8.66699 -14 -22.667 -23.333 -42 -28v-343l47 -47h-137v78l-35 -35c-40.667 -40.667 -79.667 -61 -117 -61c-26.667 0 -50.334 10 -71.001 30c-18 18 -27 36 -27 54v269l-45 45l135 49v-342c0 -10.667 3 -20.667 9 -30
c8 -12.667 18.667 -19 32 -19c19.333 0 45.666 17 78.999 51l40 41v205l-45 45l135 49v-1zM133.001 480.999l-1.00098 -2h-21l2 4c15.333 43.333 44 65 86 65c18 0 33.167 -4.83301 45.5 -14.5s21.833 -14.5 28.5 -14.5c12.667 0 24.334 9.33301 35.001 28l1 1h20l-1 -4
c-15.333 -43.333 -44.333 -65 -87 -65c-14.667 0 -28.667 4.83301 -42 14.5s-23.666 14.5 -30.999 14.5c-14.667 0 -26.334 -9 -35.001 -27z" />
    <glyph glyph-name="glyph361" unicode="&#x1ef0;" horiz-adv-x="542" 
d="M468 541l-2.00195 -2.00098v-381c0 -49.333 -19.5 -90.166 -58.5 -122.499s-84.5 -48.5 -136.5 -48.5s-97 15.667 -135 47c-40 33.333 -60 74.666 -60 123.999v381l-51 51h192l-51 -51v-381c0 -32.667 12 -60.5 36 -83.5s52.667 -34.5 86 -34.5c32.667 0 61 11.5 85 34.5
s36 50.833 36 83.5v381l-51 51h136c1.33301 2.66699 2 5.33398 2 8.00098c0 12.667 -5.66699 19 -17 19c-3.33301 0 -6.66602 -1 -9.99902 -3c-2.66699 4.66699 -4 9.33398 -4 14.001c0 7.33301 3 13.166 9 17.499s13.333 6.5 22 6.5c4.66699 0 9.33398 -0.666992 14.001 -2
c22 -7.33301 33 -22 33 -44c0 -12 -3.66699 -23.333 -11 -34c-12.667 -18.667 -34 -29 -64 -31zM276.998 -163.001c-13.333 0 -24.833 4.83301 -34.5 14.5s-14.5 21.5 -14.5 35.5c0 13.333 4.83301 25 14.5 35s21.167 15 34.5 15c14 0 25.833 -5 35.5 -15
s14.5 -21.667 14.5 -35c0 -14 -4.83301 -25.833 -14.5 -35.5s-21.5 -14.5 -35.5 -14.5z" />
    <glyph glyph-name="glyph362" unicode="&#x1ef1;" horiz-adv-x="468" 
d="M405 430c3.33301 6.66699 5.00098 12.333 5.00098 17c0 10.667 -5.33301 16 -16 16c-4 0 -8 -1 -12 -3c-2.66699 4.66699 -4 9.33398 -4 14.001c0 7.33301 3 13.166 9 17.499s13.333 6.5 22 6.5c4.66699 0 9.33398 -0.666992 14.001 -2c22 -7.33301 33 -22 33 -44
c0 -12 -3.66699 -23.333 -11 -34c-8.66699 -14 -22.667 -23.333 -42 -28v-343l47 -47h-137v78l-35 -35c-40.667 -40.667 -79.667 -61 -117 -61c-26.667 0 -50.334 10 -71.001 30c-18 18 -27 36 -27 54v269l-45 45l135 49v-342c0 -10.667 3 -20.667 9 -30
c8 -12.667 18.667 -19 32 -19c19.333 0 45.666 17 78.999 51l40 41v205l-45 45l135 49v-1zM235.001 -163.001c-13.333 0 -24.833 4.83301 -34.5 14.5s-14.5 21.5 -14.5 35.5c0 13.333 4.83301 25 14.5 35s21.167 15 34.5 15c14 0 25.833 -5 35.5 -15s14.5 -21.667 14.5 -35
c0 -14 -4.83301 -25.833 -14.5 -35.5s-21.5 -14.5 -35.5 -14.5z" />
    <glyph glyph-name="glyph363" unicode="&#x1ef2;" horiz-adv-x="463" 
d="M43 538l-51 52h200l-50 -50l116 -211l113 211l-50 50h158l-51 -51l-145 -266v-222l50 -51h-191l51 51v223zM98 702l139 -63l-93 94c-16 16 -29.667 24 -41 24c-16 0 -24 -7.66699 -24 -23s6.33301 -26 19 -32z" />
    <glyph glyph-name="glyph364" unicode="&#x1ef3;" horiz-adv-x="417" 
d="M43 368l-47 47h187l-45 -46l98 -249l97 249l-45 46h145l-47 -47l-190 -489l46 -46h-169l70 47l47 123zM104 528l139 -63l-93 94c-16 16 -29.667 24 -41 24c-16 0 -24 -7.66699 -24 -23s6.33301 -26 19 -32z" />
    <glyph glyph-name="glyph365" unicode="&#x1ef4;" horiz-adv-x="463" 
d="M43 538l-51 52h200l-50 -50l116 -211l113 211l-50 50h158l-51 -51l-145 -266v-222l50 -51h-191l51 51v223zM237 -150c-13.333 0 -24.833 4.83301 -34.5 14.5s-14.5 21.5 -14.5 35.5c0 13.333 4.83301 25 14.5 35s21.167 15 34.5 15c14 0 25.833 -5 35.5 -15
s14.5 -21.667 14.5 -35c0 -14 -4.83301 -25.833 -14.5 -35.5s-21.5 -14.5 -35.5 -14.5z" />
    <glyph glyph-name="glyph366" unicode="&#x1ef5;" horiz-adv-x="417" 
d="M43 368l-47 47h187l-45 -46l98 -249l97 249l-45 46h145l-47 -47l-190 -489l46 -46h-169l70 47l47 123zM308 -167c-13.333 0 -24.833 4.83301 -34.5 14.5s-14.5 21.5 -14.5 35.5c0 13.333 4.83301 25 14.5 35s21.167 15 34.5 15c14 0 25.833 -5 35.5 -15
s14.5 -21.667 14.5 -35c0 -14 -4.83301 -25.833 -14.5 -35.5s-21.5 -14.5 -35.5 -14.5z" />
    <glyph glyph-name="glyph367" unicode="&#x1ef6;" horiz-adv-x="463" 
d="M43 538l-51 52h200l-50 -50l116 -211l113 211l-50 50h158l-51 -51l-145 -266v-222l50 -51h-191l51 51v223zM222 640l-11.998 35.998l45 38c14 14.667 21 27.334 21 38.001c0 6 -2.33301 13 -7 21c-6 12 -16.667 17 -32 15c-7.33301 -0.666992 -12.833 -3 -16.5 -7
l-11.5 -12l-19 -33l-23 60l31 7c28 15.333 51.333 23 70 23c7.33301 0 13.666 -1.33301 18.999 -4c20 -11.333 31.333 -33.333 34 -66c1.33301 -17.333 -7.33398 -33.666 -26.001 -48.999l-53 -37l-9 -30h-11z" />
    <glyph glyph-name="glyph368" unicode="&#x1ef7;" horiz-adv-x="417" 
d="M43 368l-47 47h187l-45 -46l98 -249l97 249l-45 46h145l-47 -47l-190 -489l46 -46h-169l70 47l47 123zM214 465l-11.998 35.998l45 38c14 14.667 21 27.334 21 38.001c0 6 -2.33301 13 -7 21c-6 12 -16.667 17 -32 15c-7.33301 -0.666992 -12.833 -3 -16.5 -7l-11.5 -12
l-19 -33l-23 60l31 7c28 15.333 51.333 23 70 23c7.33301 0 13.666 -1.33301 18.999 -4c20 -11.333 31.333 -33.333 34 -66c1.33301 -17.333 -7.33398 -33.666 -26.001 -48.999l-53 -37l-9 -30h-11z" />
    <glyph glyph-name="glyph369" unicode="&#x1ef8;" horiz-adv-x="463" 
d="M43 538l-51 52h200l-50 -50l116 -211l113 211l-50 50h158l-51 -51l-145 -266v-222l50 -51h-191l51 51v223zM170 642l-1.00098 -2h-21l2 4c15.333 43.333 44 65 86 65c18 0 33.167 -4.83301 45.5 -14.5s21.833 -14.5 28.5 -14.5c12.667 0 24.334 9.33301 35.001 28l1 1h20
l-1 -4c-15.333 -43.333 -44.333 -65 -87 -65c-14.667 0 -28.667 4.83301 -42 14.5s-23.666 14.5 -30.999 14.5c-14.667 0 -26.334 -9 -35.001 -27z" />
    <glyph glyph-name="glyph370" unicode="&#x1ef9;" horiz-adv-x="417" 
d="M43 368l-47 47h187l-45 -46l98 -249l97 249l-45 46h145l-47 -47l-190 -489l46 -46h-169l70 47l47 123zM150 467l-1.00098 -2h-21l2 4c15.333 43.333 44 65 86 65c18 0 33.167 -4.83301 45.5 -14.5s21.833 -14.5 28.5 -14.5c12.667 0 24.334 9.33301 35.001 28l1 1h20
l-1 -4c-15.333 -43.333 -44.333 -65 -87 -65c-14.667 0 -28.667 4.83301 -42 14.5s-23.666 14.5 -30.999 14.5c-14.667 0 -26.334 -9 -35.001 -27z" />
    <glyph glyph-name="endash" unicode="&#x2013;" horiz-adv-x="542" 
d="M-1 208v49h543v-49h-543z" />
    <glyph glyph-name="emdash" unicode="&#x2014;" horiz-adv-x="667" 
d="M-1 208v49h668v-49h-668z" />
    <glyph glyph-name="quoteleft" unicode="&#x2018;" horiz-adv-x="198" 
d="M92 628c12.667 0 23.333 -4.33301 32 -13s13 -19 13 -31v-181l-88 165c-2.66699 4.66699 -4 10 -4 16c0 11.333 4.5 21.5 13.5 30.5s20.167 13.5 33.5 13.5z" />
    <glyph glyph-name="quoteright" unicode="&#x2019;" horiz-adv-x="198" 
d="M148 565l-87.001 -165v182c0 12.667 4.33301 23.5 13 32.5s19.334 13.5 32.001 13.5s23.5 -4.83301 32.5 -14.5s13.5 -20.167 13.5 -31.5c0 -6 -1.33301 -11.667 -4 -17z" />
    <glyph glyph-name="quotesinglbase" unicode="&#x201a;" horiz-adv-x="532" 
d="M38 308c0 80.667 19 150.334 57 209.001c43.333 65.333 100.333 98 171 98s127.667 -32.667 171 -98c38 -58.667 57 -128.334 57 -209.001c0 -81.333 -19 -151.333 -57 -210c-42.667 -65.333 -99.667 -98 -171 -98s-128.333 32.667 -171 98
c-38 58.667 -57 128.667 -57 210zM266 40c50 0 84.333 30.333 103 91c12.667 40 19 99 19 177c0 77.333 -6.33301 136.333 -19 177c-18.667 60 -53 90 -103 90s-84.333 -30 -103 -90c-12.667 -40.667 -19 -99.667 -19 -177c0 -78 6.33301 -137 19 -177
c18.667 -60.667 53 -91 103 -91z" />
    <glyph glyph-name="quotedblleft" unicode="&#x201c;" horiz-adv-x="339" 
d="M233 628c12.667 0 23.333 -4.5 32 -13.5s13 -19.833 13 -32.5v-182l-87 165c-2.66699 5.33301 -4 11 -4 17c0 11.333 4.5 21.833 13.5 31.5s19.833 14.5 32.5 14.5zM91.999 628c12.667 0 23.333 -4.33301 32 -13s13 -19 13 -31v-181l-88 165
c-2.66699 4.66699 -4 10 -4 16c0 11.333 4.5 21.5 13.5 30.5s20.167 13.5 33.5 13.5z" />
    <glyph glyph-name="quotedblright" unicode="&#x201d;" horiz-adv-x="339" 
d="M148 565l-87.001 -165v182c0 12.667 4.33301 23.5 13 32.5s19.334 13.5 32.001 13.5s23.5 -4.83301 32.5 -14.5s13.5 -20.167 13.5 -31.5c0 -6 -1.33301 -11.667 -4 -17zM289.999 568l-87.001 -165v181c0 12 4.33301 22.333 13 31s19.334 13 32.001 13
s23.5 -4.5 32.5 -13.5s13.5 -19.167 13.5 -30.5c0 -6 -1.33301 -11.333 -4 -16z" />
    <glyph glyph-name="quotedblbase" unicode="&#x201e;" horiz-adv-x="339" 
d="M146 46l-88.001 -165.001v182c0 12.667 4.33301 23.334 13 32.001s19.334 13 32.001 13c13.333 0 24.5 -4.66699 33.5 -14s13.5 -20 13.5 -32c0 -6 -1.33301 -11.333 -4 -16zM287.999 45.999l-88.001 -165.001v182c0 12.667 4.33301 23.334 13 32.001
s19.334 13 32.001 13s23.667 -4.83301 33 -14.5s14 -20.167 14 -31.5c0 -6 -1.33301 -11.333 -4 -16z" />
    <glyph glyph-name="dagger" unicode="&#x2020;" horiz-adv-x="369" 
d="M150 -167v488h-74l-51 -51v171l51 -51h74v149l-51 51h171l-51 -51v-149h74l51 51v-171l-51 51h-74v-488h-69z" />
    <glyph glyph-name="daggerdbl" unicode="&#x2021;" horiz-adv-x="375" 
d="M22 453v137h341l-189 -546v-44h-91l208 500h-223z" />
    <glyph glyph-name="bullet" unicode="&#x2022;" horiz-adv-x="290" 
d="M232 337c0 -24 -8.5 -44.5 -25.5 -61.5s-37.5 -25.5 -61.5 -25.5c-23.333 0 -43.666 8.5 -60.999 25.5s-26 37.5 -26 61.5c0 23.333 8.66699 43.5 26 60.5s37.666 25.5 60.999 25.5c24 0 44.5 -8.5 61.5 -25.5s25.5 -37.167 25.5 -60.5z" />
    <glyph glyph-name="ellipsis" unicode="&#x2026;" horiz-adv-x="750" 
d="M103 -8c-13.333 0 -24.833 4.83301 -34.5 14.5s-14.5 21.5 -14.5 35.5c0 13.333 4.83301 25 14.5 35s21.167 15 34.5 15c14 0 25.833 -5 35.5 -15s14.5 -21.667 14.5 -35c0 -14 -4.83301 -25.833 -14.5 -35.5s-21.5 -14.5 -35.5 -14.5zM353 -4
c-13.333 0 -24.833 4.83301 -34.5 14.5s-14.5 21.5 -14.5 35.5c0 13.333 4.83301 25 14.5 35s21.167 15 34.5 15c14 0 25.833 -5 35.5 -15s14.5 -21.667 14.5 -35c0 -14 -4.83301 -25.833 -14.5 -35.5s-21.5 -14.5 -35.5 -14.5zM603 -4
c-13.333 0 -24.833 4.83301 -34.5 14.5s-14.5 21.5 -14.5 35.5c0 13.333 4.83301 25 14.5 35s21.167 15 34.5 15c14 0 25.833 -5 35.5 -15s14.5 -21.667 14.5 -35c0 -14 -4.83301 -25.833 -14.5 -35.5s-21.5 -14.5 -35.5 -14.5z" />
    <glyph glyph-name="perthousand" unicode="&#x2030;" horiz-adv-x="717" 
d="M226 112c0 31.333 10.333 58.5 31 81.5s46 34.5 76 34.5c30.667 0 56.334 -11.5 77.001 -34.5s31 -50.167 31 -81.5s-10.333 -58.5 -31 -81.5s-46.334 -34.5 -77.001 -34.5c-30 0 -55.333 11.5 -76 34.5s-31 50.167 -31 81.5zM476 112c0 31.333 10.333 58.5 31 81.5
s46 34.5 76 34.5c30.667 0 56.334 -11.5 77.001 -34.5s31 -50.167 31 -81.5s-10.333 -58.5 -31 -81.5s-46.334 -34.5 -77.001 -34.5c-30 0 -55.333 11.5 -76 34.5s-31 50.167 -31 81.5zM125 358c-30.667 0 -56.166 11.501 -76.499 34.501s-30.5 50.167 -30.5 81.5
c0 30.667 10.667 57.667 32 81s46.333 35 75 35h274v-95l-1 -2l-290 -448v-45h-36v108l290 446h-160c20.667 -22.667 31 -49.334 31 -80.001c0 -31.333 -10.333 -58.5 -31 -81.5s-46.334 -34.5 -77.001 -34.5zM333.001 19.001c34 0 51 31 51 93c0 61.333 -17 92 -51 92
c-33.333 0 -50 -30.667 -50 -92c0 -62 16.667 -93 50 -93zM583.001 19.001c34 0 51 31 51 93c0 61.333 -17 92 -51 92c-33.333 0 -50 -30.667 -50 -92c0 -62 16.667 -93 50 -93zM125.001 382.001c34 0 51 30.667 51 92c0 62 -17 93 -51 93s-51 -31 -51 -93
c0 -61.333 17 -92 51 -92z" />
    <glyph glyph-name="guilsinglleft" unicode="&#x2039;" horiz-adv-x="375" 
d="M101 303l0.000976562 27.0029c33.333 0 61.666 12.667 84.999 38s35 52.666 35 81.999c0 26 -10.5 48.833 -31.5 68.5s-46.167 29.5 -75.5 29.5c-19.333 0 -38 -5 -56 -15l-25 25l24 15c26.667 16.667 58.667 25 96 25c47.333 0 85.833 -12.333 115.5 -37
s44.5 -56 44.5 -94c0 -32.667 -9.33301 -62.334 -28 -89.001c-20 -29.333 -47 -48.666 -81 -57.999c37.333 -8.66699 68 -25.667 92 -51c24.667 -27.333 37 -59 37 -95c0 -58.667 -27.333 -103.667 -82 -135c-46 -26 -103.333 -39 -172 -39h-45v36h45
c42 0 78.333 13.167 109 39.5s46 59.166 46 98.499c0 35.333 -13.5 65.666 -40.5 90.999s-57.833 38 -92.5 38z" />
    <glyph glyph-name="guilsinglright" unicode="&#x203a;" horiz-adv-x="408" 
d="M367 0h-184l47 47v120h-208v24l272 407h26v-383h63v-48h-63v-120zM230 215v216l-145 -216h145z" />
    <glyph glyph-name="fraction" unicode="&#x2044;" horiz-adv-x="267" 
d="M229 0h-183l47 47v463l-45 45l135 45v-553z" />
    <glyph glyph-name="franc" unicode="&#x20a3;" horiz-adv-x="1035" 
d="M29 0l51 51v488l-51 51h370v-116l-67 68h-162v-202h116l51 51v-150l-51 51h-116v-241l51 -51h-192zM845 385c29.333 32 60.667 48 94 48c6.66699 0 18.667 -1.66699 36 -5v-133l-86 87l-80 -89v-246l46 -47h-183l47 47v288l-45 45l135 49v-83z" />
    <glyph glyph-name="u20AB" unicode="&#x20ab;" horiz-adv-x="393" 
d="M197 501c-32 0 -60 -29.333 -84 -88c-13.333 -32.667 -20 -62.667 -20 -90c0 -34 13 -51 39 -51c27.333 0 52 23.667 74 71c18.667 40 28 75.667 28 107c0 34 -12.333 51 -37 51zM200 267c-35.333 -41.333 -70.666 -62.002 -105.999 -62.002
c-30 0 -52.667 9.33301 -68 28s-23 43.334 -23 74.001c0 53.333 18.333 104.333 55 153c39.333 52 84.666 78 135.999 78c22.667 0 43 -8 61 -24l20 75h-100l10 36h100l2 16c0 20.667 -16 31.334 -48 32.001l7 33c44.667 1.33301 87.334 6 128.001 14l15 3c4 0 6 -3 6 -9
l-3 -12l-19 -77h65l-10 -36h-65l-69 -280c-3.33301 -13.333 -5 -22.333 -5 -27c0 -10 4 -15 12 -15c4 0 20.333 14 49 42l20 -18c-46.667 -57.333 -85.667 -86 -117 -86c-28.667 0 -46.334 20.667 -53.001 62zM9 159.998h221v-56h-221v56z" />
    <glyph glyph-name="trademark" unicode="&#x2122;" horiz-adv-x="742" 
d="M431 233h-102l33 33v292l-33 32h103l93 -167l93 167h88l-33 -32v-292l33 -33h-122l33 33v259l-109 -194l-110 194v-259zM191 266l32 -33h-121l32 33v292h-57l-43 -42v74h257v-74l-43 42h-57v-292z" />
    <glyph glyph-name="partialdiff" unicode="&#x2202;" horiz-adv-x="467" 
d="M245 511c-20 22.667 -42.665 38.3311 -67.998 46.998l-48 10l10 27c52 0 100.667 -16.333 146 -49l67 59h61l-96 -86c36.667 -35.333 65 -80.666 85 -135.999c18 -51.333 27 -104.666 27 -159.999c0 -70.667 -17.333 -127 -52 -169
c-36.667 -44.667 -87.334 -67 -152.001 -67c-48 0 -91.333 18 -130 54c-41.333 38 -62 83.333 -62 136c0 50.667 17.167 94 51.5 130s74.166 54 119.499 54c50 0 91 -17.333 123 -52c-12.667 72 -31.667 128.333 -57 169l-64 -56h-62zM225.002 22.9971
c37.333 0 66.001 18.001 86.001 54.001c17.333 31.333 26 72.666 26 123.999c0 39.333 -11.333 69.333 -34 90c-18.667 16.667 -41.334 25 -68.001 25c-68.667 0 -103 -47.333 -103 -142c0 -40 8.33301 -74.667 25 -104c18 -31.333 40.667 -47 68 -47z" />
    <glyph glyph-name="product" unicode="&#x220f;" 
 />
    <glyph glyph-name="summation" unicode="&#x2211;" 
 />
    <glyph glyph-name="minus" unicode="&#x2212;" horiz-adv-x="298" 
d="M38 204v57h215v-57h-215z" />
    <glyph glyph-name="radical" unicode="&#x221a;" 
 />
    <glyph glyph-name="infinity" unicode="&#x221e;" horiz-adv-x="388" 
d="M170 348c53.333 0 97.667 -11.333 133 -34c38.667 -24.667 58 -58.334 58 -101.001c0 -53.333 -34 -102.666 -102 -147.999c-64.667 -43.333 -128.667 -65 -192 -65h-24v36h24c44 0 87.333 18.5 130 55.5s64 72.833 64 107.5c0 53.333 -36.667 80 -110 80h-100v311h292
l-45 -90h-207v-152h79z" />
    <glyph glyph-name="integral" unicode="&#x222b;" 
 />
    <glyph glyph-name="approxequal" unicode="&#x2248;" 
 />
    <glyph glyph-name="approxequal" unicode="&#x22f2;" 
 />
    <glyph glyph-name="notequal" unicode="&#x2260;" 
 />
    <glyph glyph-name="lessequal" unicode="&#x2264;" 
 />
    <glyph glyph-name="greaterequal" unicode="&#x2265;" 
 />
    <glyph glyph-name="SF370000" unicode="&#x255f;" horiz-adv-x="718" 
d="M92 50l50 -50h-159l52 52l188 538h55l183 -538l52 -52h-200l50 50l-39 117h-193zM229 451l-81 -236h160z" />
    <glyph glyph-name="SF420000" unicode="&#x2560;" horiz-adv-x="681" 
d="M399 0h-370l51 51v488l-51 51h370v-116l-67 68h-162v-202h116l51 51v-150l-51 51h-116v-244h162l67 68v-116z" />
    <glyph glyph-name="SF190000" unicode="&#x2561;" horiz-adv-x="429" 
d="M38 590h191l-51 -51v-488l51 -51h-191l50 51v488z" />
    <glyph glyph-name="SF200000" unicode="&#x2562;" horiz-adv-x="773" 
d="M29 295c0 81.333 23 152 69 212c48.667 64 110.334 96 185.001 96s136.334 -32 185.001 -96c45.333 -60 68 -130.667 68 -212s-22.667 -152 -68 -212c-48.667 -64 -110.334 -96 -185.001 -96s-136.334 32 -185.001 96c-46 60 -69 130.667 -69 212zM140 295
c0 -70.667 9.66699 -128.334 29 -173.001c24.667 -57.333 62.667 -86 114 -86c50.667 0 88.334 28.667 113.001 86c19.333 44.667 29 102.334 29 173.001s-9.66699 128.334 -29 173.001c-24.667 57.333 -62.334 86 -113.001 86c-51.333 0 -89.333 -28.667 -114 -86
c-19.333 -44.667 -29 -102.334 -29 -173.001z" />
    <glyph glyph-name="SF230000" unicode="&#x2563;" horiz-adv-x="811" 
d="M76 158v381l-51 51h192l-51 -51v-381c0 -32.667 12 -60.5 36 -83.5s52.667 -34.5 86 -34.5c32.667 0 61 11.5 85 34.5s36 50.833 36 83.5v381l-51 51h159l-51 -51v-381c0 -49.333 -19.5 -90.166 -58.5 -122.499s-84.5 -48.5 -136.5 -48.5s-97 15.667 -135 47
c-40 33.333 -60 74.666 -60 123.999z" />
    <glyph glyph-name="SF470000" unicode="&#x2564;" horiz-adv-x="699" 
d="M43 538l-51 52h200l-50 -50l116 -211l113 211l-50 50h158l-51 -51l-145 -266v-222l50 -51h-191l51 51v223z" />
    <glyph glyph-name="SF480000" unicode="&#x2565;" horiz-adv-x="541" 
d="M156 368l-77 -77v107c32.667 22.667 78.334 34 137.001 34c55.333 0 96.333 -13.333 123 -40c20 -19.333 30 -42 30 -68v-277l47 -47h-137v73l-120 -76c-11.333 -7.33301 -23.333 -11 -36 -11c-24 0 -45.667 12 -65 36s-29 52.667 -29 86c0 42.667 17.333 78.667 52 108
c33.333 27.333 72.666 41 117.999 41h80v67c0 18.667 -6.66699 34.667 -20 48s-30.333 20 -51 20c-18.667 0 -36 -8 -52 -24zM220 221c-29.333 0 -52.833 -10.167 -70.5 -30.5s-26.5 -47.833 -26.5 -82.5c0 -14 5.33301 -26.833 16 -38.5s22 -17.5 34 -17.5
c6.66699 0 12 1.33301 16 4l90 57v108h-59z" />
    <glyph glyph-name="SF410000" unicode="&#x2566;" horiz-adv-x="431" 
d="M411 221l-271.002 0.000976562c0 -59.333 6 -102 18 -128c17.333 -38 49.666 -57 96.999 -57c20.667 0 42.334 6 65.001 18c20.667 12 36 26 46 42l25 -25c-33.333 -52.667 -90.333 -79 -171 -79c-55.333 0 -101.666 23 -138.999 69
c-34.667 43.333 -52 93.666 -52 150.999c0 61.333 17.333 113.333 52 156c36.667 45.333 83 68 139 68c52.667 0 97.834 -19.667 135.501 -59s56.5 -85.333 56.5 -138c0 -3.33301 -0.333008 -9.33301 -1 -18zM139.998 261.001l161 0.000976562c6.66699 11.333 10 23 10 35
c0 26 -9.16699 49.833 -27.5 71.5s-39.5 32.5 -63.5 32.5c-28 0 -48.667 -14.667 -62 -44c-12 -24.667 -18 -56.334 -18 -95.001z" />
    <glyph glyph-name="SF450000" unicode="&#x2567;" horiz-adv-x="314" 
d="M213 0h-184l47 47v288l-45 45l135 49v-382zM118 479c-13.333 0 -24.833 4.83301 -34.5 14.5s-14.5 21.5 -14.5 35.5c0 13.333 4.83301 25 14.5 35s21.167 15 34.5 15c14 0 25.833 -5 35.5 -15s14.5 -21.667 14.5 -35c0 -14 -4.83301 -25.833 -14.5 -35.5
s-21.5 -14.5 -35.5 -14.5z" />
    <glyph glyph-name="SF460000" unicode="&#x2568;" horiz-adv-x="314" 
d="M213 0h-184l47 47v288l-45 45l135 49v-382z" />
    <glyph glyph-name="SF400000" unicode="&#x2569;" horiz-adv-x="498" 
d="M29 212c0 60.667 20.5 113.167 61.5 157.5s91.167 66.5 150.5 66.5s109.5 -22.167 150.5 -66.5s61.5 -96.833 61.5 -157.5s-20.5 -113.334 -61.5 -158.001s-91.167 -67 -150.5 -67s-109.5 22.333 -150.5 67s-61.5 97.334 -61.5 158.001zM241 23c67.333 0 101 63 101 189
c0 125.333 -33.667 188 -101 188s-101 -62.667 -101 -188c0 -126 33.667 -189 101 -189z" />
    <glyph glyph-name="SF540000" unicode="&#x256a;" horiz-adv-x="557" 
d="M268 380l135.002 49v-382l47 -47h-137v78l-35 -35c-40.667 -40.667 -79.667 -61 -117 -61c-26.667 0 -50.334 10 -71.001 30c-18 18 -27 36 -27 54v269l-45 45l135 49v-342c0 -10.667 3 -20.667 9 -30c8 -12.667 18.667 -19 32 -19c19.333 0 45.666 17 78.999 51l40 41
v205z" />
    <glyph glyph-name="SF530000" unicode="&#x256b;" horiz-adv-x="497" 
d="M43 368l-47 47h187l-45 -46l98 -249l97 249l-45 46h145l-47 -47l-190 -489l46 -46h-169l70 47l47 123z" />
    <glyph glyph-name="lozenge" unicode="&#x25ca;" 
 />
    <glyph glyph-name="circle" unicode="&#x25cb;" horiz-adv-x="718" 
d="M535 770h-19l-114 61l-114 -61h-18l132 133zM373 1037l-139 -63l93 94c16 16 29.667 24 41 24c16 0 24 -7.66699 24 -23s-6.33301 -26 -19 -32z" />
    <glyph glyph-name="H18533" unicode="&#x25cf;" horiz-adv-x="718" 
d="M535 770h-19l-114 61l-114 -61h-18l132 133zM413 1069l93 -94l-139 63c-13.333 6 -20 16.667 -20 32s8.33301 23 25 23c11.333 0 25 -8 41 -24z" />
    <glyph glyph-name="invbullet" unicode="&#x25d8;" horiz-adv-x="718" 
d="M535 770h-19l-114 61l-114 -61h-18l132 133zM614 903c6 19.333 9.66602 40.668 10.999 64.001c0.666992 7.33301 3.33398 11.666 8.00098 12.999c2 0 4.66699 0.333008 8 1c44.667 7.33301 67 25.333 67 54c0 23.333 -9.33301 35 -28 35c-3.33301 0 -8 -0.333008 -14 -1
s-10.667 -1 -14 -1c-14 0 -21 6 -21 18c0 18.667 10.667 28 32 28c30.667 0 56 -8.5 76 -25.5s28.667 -40.5 26 -70.5c-4 -39.333 -33 -66.333 -87 -81c-16.667 -4.66699 -27 -16 -31 -34h-33z" />
    <glyph glyph-name="invcircle" unicode="&#x25d9;" horiz-adv-x="718" 
d="M535 770h-19l-114 61l-114 -61h-18l132 133zM342 1022l-1.00098 -2h-21l2 4c15.333 43.333 44 65 86 65c18 0 33.167 -4.83301 45.5 -14.5s21.833 -14.5 28.5 -14.5c12.667 0 24.334 9.33301 35.001 28l1 1h20l-1 -4c-15.333 -43.333 -44.333 -65 -87 -65
c-14.667 0 -28.667 4.83301 -42 14.5s-23.666 14.5 -30.999 14.5c-14.667 0 -26.334 -9 -35.001 -27z" />
    <glyph glyph-name="apple" unicode="&#xf000;" 
 />
    <glyph glyph-name="fi" unicode="&#xf001;" horiz-adv-x="475" 
d="M399 415l-0.000976562 -368l47 -47h-183l46 47v288l-40 40h-91v-328l47 -47h-183l46 47v311h-55l55 55v57c0 44 14 81.333 42 112c24.667 27.333 52.334 41 83.001 41h135l-69 -91l-56 56c-24.667 -10 -39.667 -31 -45 -63v-110h221z" />
    <glyph glyph-name="fl" unicode="&#xf002;" horiz-adv-x="500" 
d="M226 588c-32 -9.33301 -48 -30 -48 -62v-111h84v-40h-84v-328l47 -47h-183l46 47v311h-55l55 55v57c0 44 14.333 81.333 43 112c26 27.333 53.333 41 82 41h203v-576l47 -47h-184l47 47v488l-53 53h-47z" />
    <glyph glyph-name=".null" 
 />
    <glyph glyph-name="glyph2" horiz-adv-x="250" 
 />
    <glyph glyph-name="periodcentered" horiz-adv-x="467" 
d="M204 225c-45.333 0 -85.168 18.001 -119.501 54.001s-51.5 79.333 -51.5 130c0 52.667 20.667 97.667 62 135c38.667 36 82 54 130 54c64.667 0 115.334 -22 152.001 -66c34.667 -42 52 -98.333 52 -169c0 -93.333 -23.667 -175.333 -71 -246
c-54.667 -82 -127.667 -124 -219 -126l-10 27c18 4 36 8.33301 54 13c30.667 11.333 56.667 32.666 78 63.999c29.333 42 51.333 102.667 66 182c-32 -34.667 -73 -52 -123 -52zM131.998 412.001c0 -94.667 34.3311 -141.999 102.998 -141.999
c26.667 0 49.334 8.33301 68.001 25c22.667 20.667 34 50.667 34 90c0 51.333 -8.66699 92.666 -26 123.999c-20 36 -48.667 54 -86 54c-27.333 0 -49.666 -15.167 -66.999 -45.5s-26 -65.5 -26 -105.5z" />
    <glyph glyph-name="HT" 
 />
    <glyph glyph-name="LF" 
 />
    <glyph glyph-name="nonmarkingreturn" 
 />
    <glyph glyph-name="DLE" 
 />
    <glyph glyph-name="DC1" 
 />
    <glyph glyph-name="DC2" 
 />
    <glyph glyph-name="DC3" 
 />
    <glyph glyph-name="DC4" 
 />
    <glyph glyph-name="RS" 
 />
    <glyph glyph-name="US" 
 />
    <glyph glyph-name="DEL" 
 />
    <glyph glyph-name="glyph258" horiz-adv-x="280" 
 />
    <glyph glyph-name="glyph259" horiz-adv-x="278" 
 />
    <glyph glyph-name="glyph275" horiz-adv-x="249" 
 />
    <glyph glyph-name="glyph276" horiz-adv-x="249" 
 />
    <glyph glyph-name="glyph261" horiz-adv-x="500" 
d="M253 522c6 19.333 9.66602 40.668 10.999 64.001c0.666992 7.33301 3.33398 11.666 8.00098 12.999c2 0 4.66699 0.333008 8 1c44.667 7.33301 67 25.333 67 54c0 23.333 -9.33301 35 -28 35c-3.33301 0 -8 -0.333008 -14 -1s-10.667 -1 -14 -1c-14 0 -21 6 -21 18
c0 18.667 10.667 28 32 28c30.667 0 56 -8.5 76 -25.5s28.667 -40.5 26 -70.5c-4 -39.333 -33 -66.333 -87 -81c-16.667 -4.66699 -27 -16 -31 -34h-33z" />
    <glyph glyph-name="glyph262" horiz-adv-x="541" 
d="M332 538h-19l-114 61l-114 -61h-18l132 133zM169 806l-139 -63l93 94c16 16 29.667 24 41 24c16 0 24 -7.66699 24 -23s-6.33301 -26 -19 -32z" />
    <glyph glyph-name="glyph263" horiz-adv-x="541" 
d="M332 538h-19l-114 61l-114 -61h-18l132 133zM210 837l93 -94l-139 63c-13.333 6 -20 16.667 -20 32s8.33301 23 25 23c11.333 0 25 -8 41 -24z" />
    <glyph glyph-name="glyph264" horiz-adv-x="541" 
d="M332 538h-19l-114 61l-114 -61h-18l132 133zM411 671c6 19.333 9.66602 40.668 10.999 64.001c0.666992 7.33301 3.33398 11.666 8.00098 12.999c2 0 4.66699 0.333008 8 1c44.667 7.33301 67 25.333 67 54c0 23.333 -9.33301 35 -28 35c-3.33301 0 -8 -0.333008 -14 -1
s-10.667 -1 -14 -1c-14 0 -21 6 -21 18c0 18.667 10.667 28 32 28c30.667 0 56 -8.5 76 -25.5s28.667 -40.5 26 -70.5c-4 -39.333 -33 -66.333 -87 -81c-16.667 -4.66699 -27 -16 -31 -34h-33z" />
    <glyph glyph-name="glyph265" horiz-adv-x="541" 
d="M332 538h-19l-114 61l-114 -61h-18l132 133zM139 790l-1.00098 -2h-21l2 4c15.333 43.333 44 65 86 65c18 0 33.167 -4.83301 45.5 -14.5s21.833 -14.5 28.5 -14.5c12.667 0 24.334 9.33301 35.001 28l1 1h20l-1 -4c-15.333 -43.333 -44.333 -65 -87 -65
c-14.667 0 -28.667 4.83301 -42 14.5s-23.666 14.5 -30.999 14.5c-14.667 0 -26.334 -9 -35.001 -27z" />
    <glyph glyph-name="glyph266" horiz-adv-x="541" 
d="M77 668h14.002l1 -1c16.667 -43.333 48.667 -65 96 -65s79.666 21.667 96.999 65l1 1h14v-3c0 -32 -10.833 -59.333 -32.5 -82s-48.167 -34 -79.5 -34c-30.667 0 -56.834 11.333 -78.501 34s-32.5 50 -32.5 82v3zM248.002 806l-139 -63l93 94c16 16 29.667 24 41 24
c16 0 24 -7.66699 24 -23s-6.33301 -26 -19 -32z" />
    <glyph glyph-name="glyph267" horiz-adv-x="541" 
d="M77 668h14.002l1 -1c16.667 -43.333 48.667 -65 96 -65s79.666 21.667 96.999 65l1 1h14v-3c0 -32 -10.833 -59.333 -32.5 -82s-48.167 -34 -79.5 -34c-30.667 0 -56.834 11.333 -78.501 34s-32.5 50 -32.5 82v3zM157.002 837l93 -94l-139 63
c-13.333 6 -20 16.667 -20 32s8.33301 23 25 23c11.333 0 25 -8 41 -24z" />
    <glyph glyph-name="glyph268" horiz-adv-x="541" 
d="M77 668h14.002l1 -1c16.667 -43.333 48.667 -65 96 -65s79.666 21.667 96.999 65l1 1h14v-3c0 -32 -10.833 -59.333 -32.5 -82s-48.167 -34 -79.5 -34c-30.667 0 -56.834 11.333 -78.501 34s-32.5 50 -32.5 82v3zM306.002 671c6 19.333 9.66602 40.668 10.999 64.001
c0.666992 7.33301 3.33398 11.666 8.00098 12.999c2 0 4.66699 0.333008 8 1c44.667 7.33301 67 25.333 67 54c0 23.333 -9.33301 35 -28 35c-3.33301 0 -8 -0.333008 -14 -1s-10.667 -1 -14 -1c-14 0 -21 6 -21 18c0 18.667 10.667 28 32 28c30.667 0 56 -8.5 76 -25.5
s28.667 -40.5 26 -70.5c-4 -39.333 -33 -66.333 -87 -81c-16.667 -4.66699 -27 -16 -31 -34h-33z" />
    <glyph glyph-name="glyph269" horiz-adv-x="541" 
d="M77 668h14.002l1 -1c16.667 -43.333 48.667 -65 96 -65s79.666 21.667 96.999 65l1 1h14v-3c0 -32 -10.833 -59.333 -32.5 -82s-48.167 -34 -79.5 -34c-30.667 0 -56.834 11.333 -78.501 34s-32.5 50 -32.5 82v3zM139.002 790l-1.00098 -2h-21l2 4
c15.333 43.333 44 65 86 65c18 0 33.167 -4.83301 45.5 -14.5s21.833 -14.5 28.5 -14.5c12.667 0 24.334 9.33301 35.001 28l1 1h20l-1 -4c-15.333 -43.333 -44.333 -65 -87 -65c-14.667 0 -28.667 4.83301 -42 14.5s-23.666 14.5 -30.999 14.5
c-14.667 0 -26.334 -9 -35.001 -27z" />
    <glyph glyph-name="glyph270" horiz-adv-x="249" 
 />
  </font>
</defs>
</svg>
