<svg xmlns="http://www.w3.org/2000/svg">
<defs>
<font id="UTMMagnesium" horiz-adv-x="1757" >
  <font-face 
    font-family="UTMMagnesium"
    font-weight="400"
    font-stretch="normal"
    units-per-em="2048"
    panose-1="2 4 6 3 5 5 6 2 2 4"
    ascent="1638"
    descent="-410"
    x-height="1321"
    cap-height="1321"
    bbox="-32 -453 4942 2148"
    underline-thickness="109"
    underline-position="-143"
    unicode-range="U+0020-2212"
  />
<missing-glyph horiz-adv-x="5040" 
d="M3351 2045h10q37 -10 37 -52q0 -12 -32 -57h-28q0 24 28 54l2 10q-5 13 -10 15h-9q-8 0 -10 -19h-30q6 49 42 49zM2019 2016l29 -31q0 -16 -40 -30h-19l-59 12l-11 -12l-28 25q11 29 43 29h11l42 -11h2q10 0 30 18zM468 1980h142v-60h-94v-75h89v-59h-89v-129l-5 -5h-49
v323zM1155 1980h43l6 -5v-78h30v-52h-30v-188l-6 -5h-49v193h-25v52h25v78zM1621 1980h42l4 -5v-94h3q23 24 54 24h2q58 0 83 -71l2 -39v-143h-52v115q0 80 -42 80h-7q-43 0 -43 -86v-109h-51v323zM2200 1980h49l5 -5v-222q10 -51 45 -51q44 7 44 59v214l5 5h49v-216
q0 -85 -66 -112q-15 -8 -35 -8q-47 0 -82 55q-14 24 -14 57v224zM2435 1980h159v-60h-56v-268h-53v268h-55v55zM2621 1980h71q7 -4 83 -251h2l80 251h73v-328h-54v242h-2l-74 -242h-44q-4 0 -58 182l-19 60h-3v-242h-55v328zM3760 1980h52v-328h-45l-5 5v11l3 2l-3 14
q-29 -40 -78 -40q-67 0 -100 91l-5 39v3q0 94 92 125l23 3q35 0 63 -32h3v107zM2057 1928h36l4 -6v-49h-45v-221h-48v23q-23 -31 -59 -31q-89 14 -89 97v156h51v-104q0 -79 26 -86l18 -5h6q26 0 39 36l3 26v133h53v25zM3476 1928v-55h-31v-221h-47v25h-2q-15 -33 -57 -33
q-68 0 -86 78l-3 29v146h52v-120q0 -50 19 -68l21 -7h9q42 0 42 69v126h27q4 0 4 28l3 3h49zM758 1905q68 0 103 -77q9 -18 12 -54q0 -88 -90 -127l-32 -3q-63 0 -101 73q-12 22 -12 52v10q0 94 101 126h19zM1011 1905h3q74 0 83 -101v-152h-51v119q0 76 -42 76h-5
q-44 0 -44 -76v-119h-52v245h46v-21q30 29 62 29zM1466 1905h7q72 0 105 -89h-60q-16 31 -42 31h-17q-53 -14 -53 -61l-3 -15q12 -69 61 -69h9q22 0 47 27h40l2 3h3l2 -3l2 3l3 -3l2 3l2 -7q-33 -81 -110 -81q-76 0 -110 94l-4 36v3q0 85 77 120q15 8 37 8zM3141 1905h2

<glyph glyph-name=".notdef" horiz-adv-x="5040" 
d="M3351 2045h10q37 -10 37 -52q0 -12 -32 -57h-28q0 24 28 54l2 10q-5 13 -10 15h-9q-8 0 -10 -19h-30q6 49 42 49zM2019 2016l29 -31q0 -16 -40 -30h-19l-59 12l-11 -12l-28 25q11 29 43 29h11l42 -11h2q10 0 30 18zM468 1980h142v-60h-94v-75h89v-59h-89v-129l-5 -5h-49
v323zM1155 1980h43l6 -5v-78h30v-52h-30v-188l-6 -5h-49v193h-25v52h25v78zM1621 1980h42l4 -5v-94h3q23 24 54 24h2q58 0 83 -71l2 -39v-143h-52v115q0 80 -42 80h-7q-43 0 -43 -86v-109h-51v323zM2200 1980h49l5 -5v-222q10 -51 45 -51q44 7 44 59v214l5 5h49v-216
q0 -85 -66 -112q-15 -8 -35 -8q-47 0 -82 55q-14 24 -14 57v224zM2435 1980h159v-60h-56v-268h-53v268h-55v55zM2621 1980h71q7 -4 83 -251h2l80 251h73v-328h-54v242h-2l-74 -242h-44q-4 0 -58 182l-19 60h-3v-242h-55v328zM3760 1980h52v-328h-45l-5 5v11l3 2l-3 14
q-29 -40 -78 -40q-67 0 -100 91l-5 39v3q0 94 92 125l23 3q35 0 63 -32h3v107zM2057 1928h36l4 -6v-49h-45v-221h-48v23q-23 -31 -59 -31q-89 14 -89 97v156h51v-104q0 -79 26 -86l18 -5h6q26 0 39 36l3 26v133h53v25zM3476 1928v-55h-31v-221h-47v25h-2q-15 -33 -57 -33
q-68 0 -86 78l-3 29v146h52v-120q0 -50 19 -68l21 -7h9q42 0 42 69v126h27q4 0 4 28l3 3h49zM758 1905q68 0 103 -77q9 -18 12 -54q0 -88 -90 -127l-32 -3q-63 0 -101 73q-12 22 -12 52v10q0 94 101 126h19zM1011 1905h3q74 0 83 -101v-152h-51v119q0 76 -42 76h-5
q-44 0 -44 -76v-119h-52v245h46v-21q30 29 62 29zM1466 1905h7q72 0 105 -89h-60q-16 31 -42 31h-17q-53 -14 -53 -61l-3 -15q12 -69 61 -69h9q22 0 47 27h40l2 3h3l2 -3l2 3l3 -3l2 3l2 -7q-33 -81 -110 -81q-76 0 -110 94l-4 36v3q0 85 77 120q15 8 37 8zM3141 1905h2
q49 0 70 -60v-14h-52q0 16 -16 16h-4q-14 0 -19 -13v-13q0 -9 68 -35q30 -19 30 -59q0 -58 -61 -80l-23 -3q-76 12 -76 83h54q0 -20 27 -25h4q19 0 24 23q0 22 -68 44q-34 27 -34 59q0 66 74 77zM4203 1905q55 0 77 -63q7 -18 7 -65v-125h-52v112q0 83 -40 83h-11
q-33 0 -40 -54v-141h-52v5h-2l2 2v238h47v-21q25 29 64 29zM4432 1905h5q40 0 69 -40v18l-3 3l3 11h47v-208q0 -97 -85 -132l-33 -4h-7q-70 0 -104 80h59q24 -22 45 -23h13q22 0 43 22q15 13 22 52h-3q-32 -40 -73 -40q-57 0 -96 70q-10 18 -14 63q0 88 87 125zM3851 1897
h53v-136q6 -59 40 -59h7q46 0 46 93v102h51v-245h-47l-3 10h3l-3 3v5l3 2v3h-4q0 -23 -57 -31h-3q-59 0 -84 75l-2 85v93zM690 1771q10 -69 63 -69h7q59 14 59 65v15q-13 65 -59 65h-5q-58 0 -65 -76zM3630 1774q13 -72 61 -72h5q58 0 66 75q0 49 -51 70h-22q-37 0 -56 -57z
M4374 1774q8 -72 65 -72h5q59 12 59 72q0 61 -59 73h-14q-56 -16 -56 -62v-11zM3928 1620h52v-57h-52v57zM1054 1402q43 -11 43 -49v-4q0 -17 -32 -60h-28q0 25 31 57v7q0 12 -7 15h-12q-10 -4 -10 -19h-28v6q0 32 33 44zM3349 1339q92 0 138 -99h-60q-37 42 -80 42
q-55 0 -87 -68q-10 -22 -10 -47q0 -78 81 -110l18 -1q36 0 75 39h61q-44 -97 -138 -97q-93 0 -141 112q-10 31 -10 62q0 97 90 152q29 15 63 15zM3664 1339q57 0 103 -47q46 -51 46 -115v-20q0 -89 -91 -146q-33 -13 -63 -13q-89 0 -138 101q-13 33 -13 60v18q0 98 98 151
q29 11 58 11zM2261 1337h2l47 -11h3q11 0 26 11l18 -36q-18 -19 -35 -19h-3l-54 10l-20 -7l-20 36q18 16 36 16zM716 1334h19q118 0 129 -26q25 -26 25 -62q-10 -57 -30 -57v-6q47 -23 47 -66v-18q0 -63 -69 -88l-54 -5h-67v328zM2550 1334h53v-217q6 -61 45 -61q29 0 44 39
l3 30v203l4 6h45l5 -6v-171q0 -118 -40 -133q-24 -26 -64 -26q-55 0 -91 76l-4 54v206zM2805 1334h59q4 0 122 -237h4v237h50l4 -6v-322h-58q-29 48 -125 238h-3v-238h-53v328zM3101 1334h54v-328h-54v328zM3859 1334h8q155 0 174 -40q23 -11 47 -75l4 -36v-11l3 -2
q0 -94 -82 -149q-35 -15 -99 -15h-55v328zM4141 1334h153v-60h-103v-75h101v-57h-101v-74l4 -5h99v-57h-157v322zM3563 1175v-10q0 -76 79 -108l19 -1q68 0 96 86l3 20v15q0 61 -60 94q-12 8 -39 11q-66 0 -96 -83zM770 1274v-67h9q54 0 54 28l3 14q-11 25 -29 25h-37z
M3912 1274v-206l2 -3v-2q104 0 122 76l2 15v29q0 34 -32 68q-25 23 -78 23h-16zM1041 1259h5q38 0 71 -40v32h49v-245h-49v32q-36 -40 -80 -40q-75 0 -101 97l-5 36q0 89 85 125zM1314 1259h3q74 0 83 -102v-151h-51v128q0 67 -42 67h-10q-34 0 -39 -62v-133h-52v245h47v-21
q28 29 61 29zM1543 1259h5q45 0 71 -40v32h47v-219q0 -95 -104 -126h-16q-74 0 -108 82h59q26 -25 44 -25h14q52 0 64 77q-33 -42 -76 -42q-60 0 -101 81l-7 44v16q0 79 85 117zM1912 1259h2q43 0 61 -37h2q32 37 69 37h4q57 0 79 -55q8 -25 8 -45v-153h-52v138q0 44 -23 55
l-12 2h-15q-32 0 -36 -65v-130h-52v136q0 59 -43 59h-8q-32 0 -36 -57v-138h-54v245h50v-21h2q6 24 54 29zM2282 1259q47 0 75 -42v34h47v-245h-47v32q-36 -40 -78 -40q-74 0 -102 92l-6 41q0 90 85 125zM985 1117q0 -48 61 -61h4q45 0 62 46l3 15v22q-12 62 -57 62h-14
q-41 0 -59 -57v-27zM1487 1128q0 -48 43 -68l18 -4h5q47 0 63 57v23q-11 65 -58 65h-12q-50 0 -59 -73zM2225 1131v-14q15 -61 57 -61h14q58 12 58 64v11q0 45 -37 65l-18 5h-10q-64 -8 -64 -70zM770 1150v-82q0 -5 7 -5q77 0 77 45q0 34 -47 42h-37zM2966 753l24 -28
l-51 -55q-18 12 -27 26zM1524 727l85 -54q0 -15 -21 -42l-87 54q18 41 23 42zM2850 693h38l55 -60h-54l-21 26l-23 -26h-54q54 60 59 60zM3422 693h40l56 -60h-54l-24 26h-1q0 -5 -19 -26h-54zM622 685h52q8 -4 47 -137l34 -110q9 8 34 100l48 147h54v-2l-112 -326h-44z
M1159 685h51v-54h-51v54zM1354 685h46l6 -5v-323h-52v328zM2317 685h45l4 -5v-78h31v-52h-31v-193h-53v193h-26v52h26v78zM2425 685h52v-98h2q23 23 54 23h3q57 0 81 -71l3 -38v-144h-52v115q0 81 -39 81h-10q-42 0 -42 -87v-109h-52v328zM2664 685h52v-54h-52v54zM3028 685
h44l6 -5v-78h29v-52h-29v-193h-54v193h-27v52h27v78zM3234 685h52v-328h-52v328zM3957 685h52v-328h-52v328zM4316 685h51v-54h-51v54zM1555 610h5q83 0 110 -102l3 -23v-11q0 -83 -85 -120l-35 -5q-76 0 -111 97l-4 32q0 97 93 130zM1811 610h4q53 0 78 -60q7 -25 7 -81
v-112h-54v146q-7 50 -37 50h-10q-38 0 -42 -57v-139h-54v245h49v-21q26 29 59 29zM2046 610h4q45 0 63 -39h3v31h49v-206q0 -102 -89 -135l-28 -3h-5q-73 0 -106 81h52l37 -20l15 -3h14q50 0 61 72q-33 -39 -73 -39q-62 0 -98 76q-11 23 -12 60q0 85 86 123zM2866 610h2
q82 0 111 -104l2 -25l-2 -27h-172q15 -45 45 -45l14 -3q29 0 49 22h57v-3q-35 -76 -108 -76q-77 0 -111 97l-1 28v8q0 49 32 89q34 39 82 39zM3429 610h5q41 0 70 -39h2v31h47v-245h-47v31h-2q-35 -39 -77 -39q-71 0 -101 89l-5 36v14q0 86 84 120zM3711 610h7
q88 0 107 -128l-2 -1v-15q0 -65 -66 -106q-21 -11 -46 -11q-34 0 -64 32v-99l-5 -5h-49v325h49v-28q31 36 69 36zM4151 610q44 0 75 -39v31h49v-245h-49v31q-35 -39 -77 -39q-92 0 -108 132q0 84 73 121q15 8 37 8zM922 602h50v-136q3 -60 42 -60h5q44 0 44 87v109h52v-245
h-47v24h-5q0 -23 -56 -32h-3q-55 0 -82 68q-4 35 -4 99v81zM1159 602h51v-245h-51v245zM2664 602h52v-245h-52v245zM4316 602h51v-245h-51v245zM1492 488v-16q13 -66 59 -66h4q59 0 66 76q-13 71 -59 71h-11q-59 -16 -59 -65zM1987 472q15 -66 59 -66h11q48 0 59 75v1
q-13 71 -59 71h-14q-39 0 -56 -57v-24zM2805 506h122v2q-16 45 -59 45h-7q-35 0 -56 -47zM3373 474q13 -68 61 -68h5q52 0 65 63v12q-10 72 -57 72h-16q-56 -14 -56 -63zM3642 478q12 -72 61 -72h3q50 0 65 60v22q0 43 -49 65h-22q-47 0 -58 -72v-3zM4095 472q10 -66 66 -66
q43 0 61 48l2 15v16q0 54 -52 68h-18q-42 0 -59 -60v-21zM3416 321h51v-52h-51v52zM4137 321h51v-52h-51v52zM2733 133h4q35 0 43 -50v-2q0 -16 -24 -41l-10 -17h-28q0 25 28 56l3 2v2q-3 19 -9 19h-10q-8 0 -9 -19h-30q6 50 42 50zM1546 116l52 -60l-26 -19l-52 52zM352 79
h4q75 -48 85 -60l-20 -37q-88 49 -88 58zM3490 79l86 -58l-18 -39q-10 0 -91 55q15 36 23 42zM4578 76l19 -42l-91 -52l-20 39l92 58v-3zM1204 53h51v-19l5 -5h14v-36h-14l-5 -5v-279h-46v31q-34 -40 -81 -40q-72 0 -102 105l-3 26q0 102 101 131h14q33 0 66 -33v59l-6 5
h-43v36h49v24zM1480 45h40l56 -61h-53l-23 27l-23 -27h-53zM2641 45h33q12 0 63 -61h-54l-23 27q-19 -21 -19 -27h-58v4zM49 37h160v-60h-56v-268h-50l-4 5v245l2 3v2l-2 2l2 3l-2 2l2 3l-2 3h-54v54zM699 37h47v-73l2 -2l-2 -3v-3l2 -2l-2 -3v-3l2 -2v-2l-2 -3l2 -3h3
q17 24 51 24h3q53 0 77 -58q7 -17 7 -42v-153h-52v127q0 68 -40 68h-8q-43 0 -43 -86v-109h-52v322zM1297 37h47l5 -6v-49h-52v55zM1987 37h52v-198l70 115h62l-78 -118l90 -125v-2h-70q-10 22 -74 115v-115h-52v328zM2271 37v-99q24 24 53 24q57 0 80 -56q10 -19 10 -77
v-120h-54v133q0 62 -41 62h-11q-31 0 -37 -55v-140h-53v314l-1 3v3l1 2l-1 3l1 3h53zM2458 37h51v-55h-51v55zM3148 37h51v-108q27 33 68 33h3q75 0 105 -94l5 -37q0 -75 -64 -120q-30 -11 -49 -11q-41 0 -72 40v-31h-47v328zM4275 37h52v-99h2q23 24 54 24h3q60 0 82 -74
l2 -41v-138h-52v111q0 82 -32 82l-10 2h-12q-37 0 -37 -80v-115h-52v328zM329 -38h3v-58h-5q-42 0 -42 -57v-138h-53v245h47v-21q18 29 50 29zM564 -38q71 0 86 -87v-166h-51v136q-6 59 -41 59h-6q-45 0 -45 -84v-111h-52v245h50v-21q25 29 59 29zM1504 -38q72 0 105 -94
l5 -39q-2 -24 -7 -24h-169q17 -47 62 -47q24 0 48 21h57q-33 -79 -108 -79q-82 0 -113 105v37q0 81 89 117zM2657 -38h5q77 0 107 -97l3 -26v-21l-3 -13h-170q18 -47 53 -47h12q21 0 42 21h59q-34 -79 -105 -79q-84 0 -115 102l-2 29q0 93 91 128zM2915 -38h4q54 0 78 -60
q7 -25 7 -82v-111h-54v138q0 48 -35 57h-11q-38 0 -43 -57v-138h-54v245h50v-21q25 29 58 29zM3508 -38h6q40 0 70 -40h2v32h47v-245h-47v31h-2q-34 -40 -78 -40q-71 0 -101 90l-4 37v12q0 82 77 117q11 6 30 6zM3781 -38h4q62 0 82 -78l3 -84v-91h-54v138q0 48 -38 57h-9
q-38 0 -42 -52v-143h-54v245h49v-21q26 29 59 29zM4133 -38h1q74 0 104 -93l4 -40q0 -88 -84 -126l-25 -3q-41 0 -68 34v-106h-52v326h47v-29q30 37 73 37zM4714 -38h5q34 0 63 -37q27 37 69 37h6q56 0 79 -66l6 -51v-136h-52v122q0 73 -39 73h-7q-35 0 -41 -50v-140l-5 -5
h-48v140q0 42 -31 55h-17q-40 0 -40 -77v-118h-51v245h47v-21q22 29 56 29zM359 -46h49l5 -6v-234l-5 -5h-49v245zM1297 -46h52v-245h-52v245zM1649 -46h52v-136q4 -60 43 -60h4q44 0 44 81v115h52v-245h-47v24h-5q-12 -33 -59 -33q-52 0 -79 63q-5 12 -5 34v157zM2458 -46
h51v-245h-51v245zM4515 -46h51v-245h-51v245zM1077 -169q0 -53 51 -73h12q54 0 66 66v10q0 53 -54 70h-17q-38 0 -58 -57v-16zM1438 -143h122q-18 47 -53 47h-7q-43 0 -62 -44v-3zM2599 -143h122q-21 47 -54 47h-7q-46 0 -61 -47zM3196 -158v-11q10 -73 61 -73h5q64 8 64 71
v5q0 45 -38 65l-18 5h-14q-60 -14 -60 -62zM3452 -173q14 -69 62 -69h11q41 0 59 60v13q-8 73 -56 73h-17q-47 0 -59 -73v-4zM4062 -158v-22q0 -47 59 -62h9q50 0 61 76q-13 70 -58 70h-15q-56 -17 -56 -62z" />
    <glyph glyph-name=".null" horiz-adv-x="0" 
 />
    <glyph glyph-name="nonmarkingreturn" horiz-adv-x="571" 
 />
    <glyph glyph-name="space" unicode=" " horiz-adv-x="512" 
 />
    <glyph glyph-name="exclam" unicode="!" horiz-adv-x="718" 
d="M478 524h-225l-135 639v158h498v-158zM533 26q-72 -71 -171 -71t-169 71q-71 71 -71 171q0 97 71 169t169 72t171 -72q72 -72 72 -169q0 -100 -72 -171z" />
    <glyph glyph-name="quotedbl" unicode="&#x22;" horiz-adv-x="1083" 
d="M884 623h-176l-92 680v18h360v-18zM374 623h-178l-90 680v18h360v-18z" />
    <glyph glyph-name="numbersign" unicode="#" horiz-adv-x="1509" 
d="M1131 797l-70 -322h305v-252h-356l-82 -381h-154v45l68 336h-377l-78 -381h-158v45l72 336h-303v252h354l68 322h-299v252h356l80 381h158v-44l-74 -337h375l84 381h153v-44l-71 -337h317v-252h-368zM588 797l-70 -322h377l68 322h-375z" />
    <glyph glyph-name="dollar" unicode="$" horiz-adv-x="1243" 
d="M1012 170q-138 -94 -359 -100l-47 -228h-293l51 269q-90 29 -161 75q-62 40 -113 97l164 170q71 -73 166 -115q118 -51 268 -51q131 0 131 73q0 57 -91 90q-33 11 -96 26l-112 26q-71 18 -124 39q-75 28 -129 64q-140 94 -140 241q0 195 148 304q61 45 145 72
q73 24 157 33l35 175h293l-39 -199q143 -39 254 -150l-149 -161q-67 60 -180 92q-92 26 -177 26q-159 0 -159 -77q0 -47 82 -72l231 -55q71 -20 128 -44q76 -31 131 -69q142 -100 142 -248q0 -196 -157 -303z" />
    <glyph glyph-name="percent" unicode="%" horiz-adv-x="1591" 
d="M641 765q-101 -97 -251 -97q-148 0 -250 97q-104 100 -104 251q0 150 104 250q102 98 250 98q149 0 251 -98q104 -100 104 -250q0 -152 -104 -251zM390 1223q-108 0 -108 -185q0 -217 108 -217q109 0 109 217q0 185 -109 185zM1456 55q-101 -98 -251 -98t-250 98
q-102 99 -102 250q0 152 102 251q100 97 250 97t251 -97q104 -99 104 -251q0 -150 -104 -250zM1205 512q-106 0 -106 -186q0 -97 23 -152q27 -63 83 -63q57 0 86 63q25 57 25 152q0 186 -111 186zM405 0h-168v53l954 1268h168v-53z" />
    <glyph glyph-name="ampersand" unicode="&#x26;" horiz-adv-x="1695" 
d="M1199 0l-67 88q-224 -131 -424 -131q-140 0 -254 20q-125 23 -214 68q-204 105 -204 324q0 113 89 200q80 77 208 115q-66 59 -105 133q-47 88 -47 187q0 180 158 278q135 84 332 84q334 0 582 -190l-187 -162q-62 45 -120 70q-76 32 -150 32q-166 0 -166 -106
q0 -67 115 -139q43 -28 121 -67l143 -71q132 -68 274 -198q44 83 -16 319h336q0 -278 -170 -498l256 -340v-16h-490zM732 412q-130 75 -186 75q-32 0 -61 -47q-31 -49 -31 -104q0 -164 254 -164q165 0 264 78q-125 96 -240 162z" />
    <glyph glyph-name="quotesingle" unicode="'" horiz-adv-x="618" 
d="M468 777q-105 -115 -268 -167l-102 84v21q235 74 235 248q0 45 -100 45q-172 0 -172 161q0 85 69 141q68 54 169 54q130 0 207 -99q71 -92 71 -229q0 -139 -109 -259z" />
    <glyph glyph-name="parenleft" unicode="(" horiz-adv-x="831" 
d="M559 -256q-236 128 -369 337q-147 233 -147 537q0 302 147 532q133 207 369 335l217 -164q-211 -138 -301 -288q-100 -166 -100 -415q0 -251 100 -419q91 -153 301 -291z" />
    <glyph glyph-name="parenright" unicode=")" horiz-adv-x="831" 
d="M637 81q-133 -209 -369 -337l-217 164q210 138 301 291q100 168 100 419q0 249 -100 415q-90 150 -301 288l217 164q236 -128 369 -335q147 -230 147 -532q0 -304 -147 -537z" />
    <glyph glyph-name="asterisk" unicode="*" horiz-adv-x="925" 
d="M899 809q-3 -83 -43 -135q-36 -49 -121 -84l-219 246l-37 -332q-92 -17 -143 0q-61 17 -117 86l164 293l-330 -74q-41 66 -41 131q0 78 45 145l328 -71l-164 289q51 64 106 83q64 25 152 3l37 -332l225 246q76 -32 115 -82q40 -56 43 -140l-305 -137z" />
    <glyph glyph-name="plus" unicode="+" horiz-adv-x="1206" 
d="M724 586v-453h-246v453h-442v225h442v455h246v-455h445v-225h-445z" />
    <glyph glyph-name="comma" unicode="," horiz-adv-x="671" 
d="M492 -185q-111 -120 -282 -175l-104 90v20q114 37 182 115q62 71 62 145q0 49 -103 49q-180 0 -180 170q0 90 71 148q70 57 177 57q138 0 218 -105q75 -96 75 -241q0 -147 -116 -273z" />
    <glyph glyph-name="hyphen" unicode="-" horiz-adv-x="796" 
d="M102 553v268h598v-268h-598z" />
    <glyph glyph-name="hyphen" unicode="&#x2010;" horiz-adv-x="796" 
d="M102 553v268h598v-268h-598z" />
    <glyph glyph-name="period" unicode="." horiz-adv-x="702" 
d="M521 22q-71 -71 -169 -71q-100 0 -172 71q-72 70 -72 168q0 99 72 171q72 73 172 73q98 0 169 -73q70 -72 70 -171q0 -98 -70 -168z" />
    <glyph glyph-name="slash" unicode="/" horiz-adv-x="1075" 
d="M211 -143h-227v20l879 1585h229v-18z" />
    <glyph glyph-name="zero" unicode="0" horiz-adv-x="1624" 
d="M1339 149q-212 -192 -527 -192q-317 0 -527 192q-218 198 -218 513q0 312 218 510q211 192 527 192q315 0 527 -192q219 -199 219 -510q0 -314 -219 -513zM984 1061q-67 133 -172 133q-101 0 -169 -133q-70 -137 -70 -354q0 -246 51 -391q62 -173 188 -173q130 0 190 173
q26 75 39 180q11 94 11 211q0 218 -68 354z" />
    <glyph glyph-name="one" unicode="1" horiz-adv-x="958" 
d="M280 0v1024h-174v184l317 113h340v-1321h-483z" />
    <glyph glyph-name="two" unicode="2" horiz-adv-x="1406" 
d="M1230 0h-1134v143l495 523q144 151 144 299q0 129 -160 129q-197 0 -324 -189l-182 150q106 128 246 209q169 98 346 98q262 0 407 -142q131 -128 131 -333q0 -86 -42 -181q-38 -85 -109 -175q-63 -80 -148 -160q-76 -70 -161 -133h587v-17z" />
    <glyph glyph-name="three" unicode="3" horiz-adv-x="1398" 
d="M1110 45q-89 -46 -215 -68q-114 -20 -254 -20q-338 0 -580 193l188 161q54 -49 128 -77q86 -33 184 -33q225 0 225 184q0 178 -279 178h-167v15l51 170q356 0 356 190q0 176 -223 176q-61 0 -129 -31q-55 -26 -113 -71l-186 162q247 190 579 190q264 0 413 -76
q173 -88 173 -272q0 -71 -33 -131q-28 -51 -79 -91q-42 -34 -94 -56q-43 -19 -79 -25v-11q39 0 89 -16q62 -19 112 -53q62 -43 96 -103q41 -71 41 -163q0 -218 -204 -322z" />
    <glyph glyph-name="four" unicode="4" horiz-adv-x="1515" 
d="M1209 233v-233h-481v233h-645v183l705 905h421v-854h230v-234h-230zM728 899l-338 -432h338v432z" />
    <glyph glyph-name="five" unicode="5" horiz-adv-x="1329" 
d="M546 -43q-156 0 -280 38q-102 32 -203 97l57 248h31q50 -62 123 -98q83 -41 182 -41q258 0 258 184q0 90 -127 153q-123 60 -293 60h-71l-19 18l189 705h721l102 -221v-17h-528l-58 -231q277 -8 437 -115q170 -114 170 -317q0 -463 -691 -463z" />
    <glyph glyph-name="six" unicode="6" horiz-adv-x="1462" 
d="M1198 102q-176 -145 -410 -145q-325 0 -513 163q-196 169 -196 480q0 321 209 539q217 225 557 225q167 0 291 -43q111 -38 180 -107l-186 -161q-40 32 -110 57q-88 31 -179 31q-268 0 -285 -348q121 77 348 77q191 0 328 -107q147 -116 147 -302q0 -210 -181 -359z
M665 635q-37 0 -70 -5l-45 -9v-46q0 -194 54 -311q55 -121 153 -121q158 0 158 254q0 238 -250 238z" />
    <glyph glyph-name="seven" unicode="7" horiz-adv-x="1284" 
d="M624 0h-530v16l590 1067h-633v17l102 221h1127v-184z" />
    <glyph glyph-name="eight" unicode="8" horiz-adv-x="1423" 
d="M1147 56q-181 -99 -443 -99q-126 0 -234 18q-117 20 -202 60q-197 92 -197 276q0 230 276 328q-217 117 -217 340q0 169 134 271q150 114 440 114q586 0 586 -336q0 -93 -76 -181q-63 -72 -158 -122q125 -61 202 -148q91 -103 91 -223q0 -188 -202 -298zM892 1146
q-67 50 -159 50q-177 0 -177 -133q0 -42 96 -110q85 -61 199 -111q113 69 113 168q0 82 -72 136zM768 408q-95 61 -238 114q-127 -33 -127 -162q0 -91 68 -152q72 -65 190 -65q217 0 217 138q0 56 -110 127z" />
    <glyph glyph-name="nine" unicode="9" horiz-adv-x="1462" 
d="M1174 182q-207 -225 -499 -225q-334 0 -580 193l187 161q77 -55 156 -85q95 -36 194 -36q261 0 270 318q-113 -76 -340 -76q-200 0 -339 119q-142 122 -142 309q0 212 185 361q177 143 405 143q324 0 512 -163q196 -171 196 -480q0 -315 -205 -539zM903 859
q-11 93 -34 160q-53 159 -165 159q-158 0 -158 -252q0 -256 280 -256q62 0 86 8q0 98 -9 181z" />
    <glyph glyph-name="colon" unicode=":" horiz-adv-x="702" 
d="M521 761q-70 -69 -169 -69q-101 0 -172 69q-72 70 -72 169q0 100 72 172t172 72q98 0 169 -72q70 -72 70 -172t-70 -169zM521 22q-71 -71 -169 -71q-100 0 -172 71q-72 70 -72 168q0 99 72 171q72 73 172 73q98 0 169 -73q70 -72 70 -171q0 -98 -70 -168z" />
    <glyph glyph-name="semicolon" unicode=";" horiz-adv-x="702" 
d="M521 761q-70 -69 -169 -69q-100 0 -172 69q-72 70 -72 169q0 100 72 172t172 72q98 0 169 -72t71 -172t-71 -169zM513 -185q-111 -120 -282 -175l-104 90v20q114 37 182 115q62 71 62 145q0 49 -103 49q-180 0 -180 170q0 90 71 148q70 57 177 57q138 0 218 -105
q75 -96 75 -241q0 -147 -116 -273z" />
    <glyph glyph-name="less" unicode="&#x3c;" horiz-adv-x="1206" 
d="M708 225l-575 404v131l567 403h353v-39l-580 -432l580 -428v-39h-345z" />
    <glyph glyph-name="equal" unicode="=" horiz-adv-x="1206" 
d="M118 821v226h969v-226h-969zM118 350v225h969v-225h-969z" />
    <glyph glyph-name="greater" unicode="&#x3e;" horiz-adv-x="1206" 
d="M497 225h-344v39l580 428l-580 432v39h352l568 -403v-131z" />
    <glyph glyph-name="question" unicode="?" horiz-adv-x="1128" 
d="M993 870q-20 -29 -51 -59q-22 -21 -59 -52l-30 -25q-17 -14 -29 -25q-32 -28 -52 -52q-50 -62 -50 -133h-369q-20 32 -20 135q0 50 33 95q22 30 72 72q4 3 10 8l29 25q21 18 34 33q33 37 33 75q0 86 -94 86q-91 0 -209 -107l-203 168q70 92 202 163q161 87 328 87
q476 0 476 -338q0 -86 -51 -156zM713 26q-72 -71 -171 -71t-169 71q-71 71 -71 171q0 97 71 169t169 72t171 -72t73 -169q0 -100 -73 -171z" />
    <glyph glyph-name="at" unicode="@" horiz-adv-x="1939" 
d="M1880 476q-56 -121 -156 -208q-185 -159 -428 -159q-222 0 -215 188q-46 -65 -125 -121q-90 -63 -158 -63q-313 0 -313 344q0 263 187 460q177 187 386 187q119 0 170 -109l27 115h278l-172 -711q-16 -67 43 -67q104 0 207 104q58 59 91 139q38 93 38 207q0 210 -170 349
q-181 149 -483 149q-333 0 -539 -202q-213 -209 -213 -558q0 -303 194 -454q173 -136 480 -136q113 0 214 16q112 18 216 56l78 -152q-258 -120 -512 -120q-173 0 -336 42q-180 47 -317 138q-153 102 -235 250q-93 165 -93 379q0 222 86 405q82 174 233 300q300 249 752 249
q360 0 600 -199q246 -203 246 -518q0 -166 -61 -300zM1161 795q24 98 -76 98q-99 0 -187 -131q-90 -135 -90 -299q0 -119 90 -119q59 0 120 46q57 43 67 85z" />
    <glyph glyph-name="A" unicode="A" horiz-adv-x="1581" 
d="M1042 0l-92 240h-514l-90 -240h-330v16l555 1305h487l506 -1305v-16h-522zM698 956l-182 -489h348z" />
    <glyph glyph-name="B" unicode="B" horiz-adv-x="1622" 
d="M1011 0h-817v1321h772q514 0 514 -305q0 -123 -97 -210q-85 -76 -200 -93v-11q145 -13 239 -91q109 -90 109 -244q0 -367 -520 -367zM788 1120h-115v-395q173 0 252 62q68 53 68 151q0 182 -205 182zM788 575h-115v-374h125q211 0 211 184q0 190 -221 190z" />
    <glyph glyph-name="C" unicode="C" horiz-adv-x="1519" 
d="M1492 150q-242 -193 -577 -193q-359 0 -599 194q-247 199 -247 511t247 510q240 192 599 192q333 0 577 -190l-186 -173q-74 60 -153 95q-102 45 -205 45q-357 0 -357 -479q0 -476 357 -476q103 0 205 43q80 35 153 93z" />
    <glyph glyph-name="D" unicode="D" horiz-adv-x="1712" 
d="M1575 392q-61 -125 -175 -216q-220 -176 -532 -176h-674v1321h674q147 0 280 -35q142 -38 248 -111q116 -81 178 -196q68 -127 68 -289q0 -163 -67 -298zM1044 1020q-96 100 -264 100h-107v-919h107q172 0 264 112q102 126 102 394q0 206 -102 313z" />
    <glyph glyph-name="E" unicode="E" horiz-adv-x="1374" 
d="M1212 0h-1018v1321h946l98 -221v-17h-565v-297h565v-233h-565v-315h639v-17z" />
    <glyph glyph-name="F" unicode="F" horiz-adv-x="1302" 
d="M673 553v-553h-479v1321h946l98 -221v-17h-565v-297h565v-233h-565z" />
    <glyph glyph-name="G" unicode="G" horiz-adv-x="1624" 
d="M1503 152q-256 -195 -586 -195q-358 0 -599 194q-249 200 -249 511q0 312 249 510q240 192 599 192q335 0 586 -190l-189 -175q-83 70 -164 106q-95 42 -196 42q-171 0 -260 -107q-101 -120 -101 -378q0 -262 103 -384q94 -112 280 -112q40 0 70 4q25 3 37 8v383h-217
v225h637v-634z" />
    <glyph glyph-name="H" unicode="H" horiz-adv-x="1841" 
d="M1165 0v553h-492v-553h-479v1321h479v-535h492v535h479v-1321h-479z" />
    <glyph glyph-name="I" unicode="I" horiz-adv-x="870" 
d="M194 0v1321h479v-1321h-479z" />
    <glyph glyph-name="J" unicode="J" horiz-adv-x="1005" 
d="M854 496q0 -268 -138 -400q-144 -139 -450 -139q-30 0 -61 2l-37 4l-111 262v13h160q153 0 153 143v940h484v-825z" />
    <glyph glyph-name="K" unicode="K" horiz-adv-x="1685" 
d="M1140 0l-373 487q-34 45 -94 45v-532h-479v1321h479v-614l518 614h383v-18l-524 -523l614 -764v-16h-524z" />
    <glyph glyph-name="L" unicode="L" horiz-adv-x="1210" 
d="M1107 0h-913v1321h479v-1083h533v-17z" />
    <glyph glyph-name="M" unicode="M" horiz-adv-x="2254" 
d="M1576 0v825l-356 -825h-311l-406 825v-825h-309v1321h600l387 -795l346 795h529v-1321h-480z" />
    <glyph glyph-name="N" unicode="N" horiz-adv-x="1812" 
d="M1343 0l-848 676v-676h-301v1321h266l871 -703v703h309v-1321h-297z" />
    <glyph glyph-name="O" unicode="O" 
d="M1451 149q-229 -192 -573 -192t-573 192q-236 198 -236 513q0 311 236 510q229 192 573 192q343 0 573 -192q236 -199 236 -510q0 -315 -236 -513zM1086 1061q-83 133 -208 133t-208 -133q-85 -137 -85 -354q0 -287 84 -433q76 -131 209 -131t209 131q84 146 84 433
q0 217 -85 354z" />
    <glyph glyph-name="P" unicode="P" horiz-adv-x="1507" 
d="M1312 583q-167 -104 -475 -104h-164v-479h-479v1321h705q315 0 457 -110q130 -102 130 -312q0 -208 -174 -316zM788 1120h-115v-461q320 0 320 248q0 213 -205 213z" />
    <glyph glyph-name="Q" unicode="Q" 
d="M1400 -440h-18l-535 397q-333 9 -552 200q-226 198 -226 505q0 311 236 510q229 192 573 192q343 0 573 -192q236 -199 236 -510q0 -224 -127 -396q-121 -163 -330 -246l490 -270v-16zM1086 1061q-83 133 -208 133t-208 -133q-85 -137 -85 -354q0 -287 84 -433
q76 -131 209 -131t209 131q84 146 84 433q0 217 -85 354z" />
    <glyph glyph-name="R" unicode="R" horiz-adv-x="1648" 
d="M1105 0l-344 449q-34 43 -88 43v-492h-479v1321h692q600 0 600 -358q0 -143 -88 -245q-79 -94 -221 -143l455 -559v-16h-527zM788 1120h-115v-461q320 0 320 248q0 213 -205 213z" />
    <glyph glyph-name="S" unicode="S" horiz-adv-x="1527" 
d="M1268 81q-184 -124 -502 -124q-126 0 -242 26q-101 23 -191 65q-78 36 -141 84q-54 42 -90 85l190 160q79 -80 206 -141q143 -68 268 -68q235 0 235 100q0 76 -117 123q-43 18 -121 39l-139 37q-118 33 -196 65q-95 39 -157 85q-140 106 -140 280q0 225 190 349
q176 116 463 116q369 0 594 -207l-184 -151q-76 68 -204 112q-113 39 -200 39q-233 0 -233 -108q0 -62 103 -98q36 -13 120 -34l160 -43q118 -34 203 -71q98 -42 162 -93q147 -116 147 -294q0 -210 -184 -333z" />
    <glyph glyph-name="T" unicode="T" horiz-adv-x="1284" 
d="M883 1083v-1083h-484v1083h-399v17l98 221h1088l98 -221v-17h-401z" />
    <glyph glyph-name="U" unicode="U" horiz-adv-x="1779" 
d="M1585 551q0 -288 -200 -452q-190 -156 -503 -156q-310 0 -498 156q-198 163 -198 452v770h479v-827q0 -125 47 -189q53 -74 170 -74q121 0 176 74q48 64 48 189v827h479v-770z" />
    <glyph glyph-name="V" unicode="V" horiz-adv-x="1540" 
d="M974 0h-444l-514 1303v18h524l320 -885l317 885h346v-18z" />
    <glyph glyph-name="W" unicode="W" horiz-adv-x="2347" 
d="M1808 0h-379l-289 750l-280 -750h-381l-463 1303v18h524l254 -834l322 834h286l312 -834l268 834h348v-18z" />
    <glyph glyph-name="X" unicode="X" horiz-adv-x="1579" 
d="M1108 653l452 -637v-16h-583l-318 469l-293 -469h-350v16l487 678l-438 609v18h582l307 -449l262 449h346v-18z" />
    <glyph glyph-name="Y" unicode="Y" horiz-adv-x="1560" 
d="M1028 475v-475h-480v475l-532 828v18h582l303 -551l293 551h346v-18z" />
    <glyph glyph-name="Z" unicode="Z" horiz-adv-x="1525" 
d="M1359 0h-1290v184l696 899h-696v17l96 221h1245v-184l-698 -899h743v-17z" />
    <glyph glyph-name="bracketleft" unicode="[" horiz-adv-x="763" 
d="M73 -281v1780h561v-178h-219v-1421h219v-181h-561z" />
    <glyph glyph-name="backslash" unicode="\" horiz-adv-x="1054" 
d="M853 -141l-885 1554v49h236l884 -1554v-51z" />
    <glyph glyph-name="bracketright" unicode="]" horiz-adv-x="763" 
d="M131 -281v181h219v1421h-219v178h561v-1780h-561z" />
    <glyph glyph-name="asciicircum" unicode="^" horiz-adv-x="937" 
d="M649 707l-182 243l-182 -243h-285v41l403 575h132l403 -575v-41h-289z" />
    <glyph glyph-name="underscore" unicode="_" horiz-adv-x="1024" 
d="M-4 -440v217h1032v-217h-1032z" />
    <glyph glyph-name="grave" unicode="`" horiz-adv-x="618" 
d="M493 663q-67 -55 -167 -55q-132 0 -210 100q-71 91 -71 228q0 139 110 259q106 115 269 167l100 -84v-21q-233 -74 -233 -247q0 -45 98 -45q172 0 172 -162q0 -85 -68 -140z" />
    <glyph glyph-name="a" unicode="a" horiz-adv-x="1581" 
d="M1042 0l-92 240h-514l-90 -240h-330v16l555 1305h487l506 -1305v-16h-522zM698 956l-182 -489h348z" />
    <glyph glyph-name="b" unicode="b" horiz-adv-x="1622" 
d="M1011 0h-817v1321h772q514 0 514 -305q0 -123 -97 -210q-85 -76 -200 -93v-11q145 -13 239 -91q109 -90 109 -244q0 -367 -520 -367zM788 1120h-115v-395q173 0 252 62q68 53 68 151q0 182 -205 182zM788 575h-115v-374h125q211 0 211 184q0 190 -221 190z" />
    <glyph glyph-name="c" unicode="c" horiz-adv-x="1519" 
d="M1492 150q-242 -193 -577 -193q-359 0 -599 194q-247 199 -247 511t247 510q240 192 599 192q333 0 577 -190l-186 -173q-74 60 -153 95q-102 45 -205 45q-357 0 -357 -479q0 -476 357 -476q103 0 205 43q80 35 153 93z" />
    <glyph glyph-name="d" unicode="d" horiz-adv-x="1712" 
d="M1575 392q-61 -125 -175 -216q-220 -176 -532 -176h-674v1321h674q147 0 280 -35q142 -38 248 -111q116 -81 178 -196q68 -127 68 -289q0 -163 -67 -298zM1044 1020q-96 100 -264 100h-107v-919h107q172 0 264 112q102 126 102 394q0 206 -102 313z" />
    <glyph glyph-name="e" unicode="e" horiz-adv-x="1374" 
d="M1212 0h-1018v1321h946l98 -221v-17h-565v-297h565v-233h-565v-315h639v-17z" />
    <glyph glyph-name="f" unicode="f" horiz-adv-x="1302" 
d="M673 553v-553h-479v1321h946l98 -221v-17h-565v-297h565v-233h-565z" />
    <glyph glyph-name="g" unicode="g" horiz-adv-x="1624" 
d="M1503 152q-256 -195 -586 -195q-358 0 -599 194q-249 200 -249 511q0 312 249 510q240 192 599 192q335 0 586 -190l-189 -175q-83 70 -164 106q-95 42 -196 42q-171 0 -260 -107q-101 -120 -101 -378q0 -262 103 -384q94 -112 280 -112q40 0 70 4q25 3 37 8v383h-217
v225h637v-634z" />
    <glyph glyph-name="h" unicode="h" horiz-adv-x="1841" 
d="M1165 0v553h-492v-553h-479v1321h479v-535h492v535h479v-1321h-479z" />
    <glyph glyph-name="i" unicode="i" horiz-adv-x="870" 
d="M194 0v1321h479v-1321h-479z" />
    <glyph glyph-name="j" unicode="j" horiz-adv-x="1005" 
d="M854 496q0 -268 -138 -400q-144 -139 -450 -139q-30 0 -61 2l-37 4l-111 262v13h160q153 0 153 143v940h484v-825z" />
    <glyph glyph-name="k" unicode="k" horiz-adv-x="1685" 
d="M1140 0l-373 487q-34 45 -94 45v-532h-479v1321h479v-614l518 614h383v-18l-524 -523l614 -764v-16h-524z" />
    <glyph glyph-name="l" unicode="l" horiz-adv-x="1210" 
d="M1107 0h-913v1321h479v-1083h533v-17z" />
    <glyph glyph-name="m" unicode="m" horiz-adv-x="2254" 
d="M1576 0v825l-356 -825h-311l-406 825v-825h-309v1321h600l387 -795l346 795h529v-1321h-480z" />
    <glyph glyph-name="n" unicode="n" horiz-adv-x="1812" 
d="M1343 0l-848 676v-676h-301v1321h266l871 -703v703h309v-1321h-297z" />
    <glyph glyph-name="o" unicode="o" 
d="M1451 149q-229 -192 -573 -192t-573 192q-236 198 -236 513q0 311 236 510q229 192 573 192q343 0 573 -192q236 -199 236 -510q0 -315 -236 -513zM1086 1061q-83 133 -208 133t-208 -133q-85 -137 -85 -354q0 -287 84 -433q76 -131 209 -131t209 131q84 146 84 433
q0 217 -85 354z" />
    <glyph glyph-name="p" unicode="p" horiz-adv-x="1507" 
d="M1312 583q-167 -104 -475 -104h-164v-479h-479v1321h705q315 0 457 -110q130 -102 130 -312q0 -208 -174 -316zM788 1120h-115v-461q320 0 320 248q0 213 -205 213z" />
    <glyph glyph-name="q" unicode="q" 
d="M1400 -440h-18l-535 397q-333 9 -552 200q-226 198 -226 505q0 311 236 510q229 192 573 192q343 0 573 -192q236 -199 236 -510q0 -224 -127 -396q-121 -163 -330 -246l490 -270v-16zM1086 1061q-83 133 -208 133t-208 -133q-85 -137 -85 -354q0 -287 84 -433
q76 -131 209 -131t209 131q84 146 84 433q0 217 -85 354z" />
    <glyph glyph-name="r" unicode="r" horiz-adv-x="1648" 
d="M1105 0l-344 449q-34 43 -88 43v-492h-479v1321h692q600 0 600 -358q0 -143 -88 -245q-79 -94 -221 -143l455 -559v-16h-527zM788 1120h-115v-461q320 0 320 248q0 213 -205 213z" />
    <glyph glyph-name="s" unicode="s" horiz-adv-x="1527" 
d="M1268 81q-184 -124 -502 -124q-126 0 -242 26q-101 23 -191 65q-78 36 -141 84q-54 42 -90 85l190 160q79 -80 206 -141q143 -68 268 -68q235 0 235 100q0 76 -117 123q-43 18 -121 39l-139 37q-118 33 -196 65q-95 39 -157 85q-140 106 -140 280q0 225 190 349
q176 116 463 116q369 0 594 -207l-184 -151q-76 68 -204 112q-113 39 -200 39q-233 0 -233 -108q0 -62 103 -98q36 -13 120 -34l160 -43q118 -34 203 -71q98 -42 162 -93q147 -116 147 -294q0 -210 -184 -333z" />
    <glyph glyph-name="t" unicode="t" horiz-adv-x="1284" 
d="M883 1083v-1083h-484v1083h-399v17l98 221h1088l98 -221v-17h-401z" />
    <glyph glyph-name="u" unicode="u" horiz-adv-x="1779" 
d="M1585 551q0 -288 -200 -452q-190 -156 -503 -156q-310 0 -498 156q-198 163 -198 452v770h479v-827q0 -125 47 -189q53 -74 170 -74q121 0 176 74q48 64 48 189v827h479v-770z" />
    <glyph glyph-name="v" unicode="v" horiz-adv-x="1540" 
d="M974 0h-444l-514 1303v18h524l320 -885l317 885h346v-18z" />
    <glyph glyph-name="w" unicode="w" horiz-adv-x="2347" 
d="M1808 0h-379l-289 750l-280 -750h-381l-463 1303v18h524l254 -834l322 834h286l312 -834l268 834h348v-18z" />
    <glyph glyph-name="x" unicode="x" horiz-adv-x="1579" 
d="M1108 653l452 -637v-16h-583l-318 469l-293 -469h-350v16l487 678l-438 609v18h582l307 -449l262 449h346v-18z" />
    <glyph glyph-name="y" unicode="y" horiz-adv-x="1560" 
d="M1028 475v-475h-480v475l-532 828v18h582l303 -551l293 551h346v-18z" />
    <glyph glyph-name="z" unicode="z" horiz-adv-x="1525" 
d="M1359 0h-1290v184l696 899h-696v17l96 221h1245v-184l-698 -899h743v-17z" />
    <glyph glyph-name="braceleft" unicode="{" horiz-adv-x="800" 
d="M703 -309q-96 0 -187 20q-101 22 -179 66q-87 49 -134 120q-53 81 -53 185q0 57 12 105q9 33 28 76q1 3 4 8q0 1 1 4l2 4q5 10 7 17q8 18 13 33q13 37 13 77q0 130 -246 114v189q246 -17 246 114q0 39 -13 77q-4 14 -12 34l-14 33q-20 43 -28 75q-13 48 -13 105
q0 109 53 190q47 72 134 120q77 42 179 63q90 18 187 18v-217q-90 0 -146 -41q-63 -46 -63 -133q0 -57 12 -105q9 -32 28 -75q1 -4 4 -9l1 -4q2 -2 2 -4l8 -16q8 -19 12 -34q13 -38 13 -77q0 -69 -53 -126q-44 -48 -119 -83q75 -34 120 -83q52 -57 52 -125q0 -39 -13 -78
q-4 -14 -12 -33l-14 -33q-19 -40 -28 -74q-13 -48 -13 -106q0 -83 64 -131q58 -43 145 -43v-217z" />
    <glyph glyph-name="bar" unicode="|" horiz-adv-x="411" 
d="M92 -440v2048h229v-2048h-229z" />
    <glyph glyph-name="braceright" unicode="}" horiz-adv-x="800" 
d="M798 520q-246 16 -246 -114q0 -40 13 -78l28 -66q18 -43 26 -74q13 -49 13 -106q0 -104 -53 -185q-47 -71 -134 -120q-78 -44 -179 -66q-91 -20 -187 -20v217q87 0 145 43q64 48 64 131q0 57 -13 105q-8 33 -27 76l-4 8q0 1 -2 4l-1 4q-5 10 -8 17q-8 18 -12 33
q-13 37 -13 77q0 68 52 125q45 49 120 83q-75 35 -119 83q-53 57 -53 126q0 39 13 77l42 102l12 40q13 49 13 105q0 87 -63 133q-56 41 -146 41v217q97 0 187 -18q102 -21 179 -63q87 -48 134 -120q53 -81 53 -190q0 -57 -13 -105q-8 -32 -27 -75l-6 -13q-1 -2 -1 -4l-8 -16
q-8 -19 -12 -34q-13 -38 -13 -77q0 -131 246 -114v-189z" />
    <glyph glyph-name="asciitilde" unicode="~" horiz-adv-x="1206" 
d="M1126 768q-21 -34 -49 -70q-35 -48 -71 -85q-97 -101 -171 -101q-62 0 -129 28q-44 18 -113 61q-5 3 -13 8l-40 25q-29 18 -51 28q-58 28 -104 28q-47 0 -102 -40q-41 -29 -74 -68l-111 108q21 33 50 69q35 45 72 81q97 94 171 94q62 0 129 -28q44 -18 113 -61l53 -33
q29 -18 52 -28q57 -28 103 -28q45 0 99 44q20 16 41 39l32 35z" />
    <glyph glyph-name="dieresis" unicode="&#xa8;" horiz-adv-x="1024" 
 />
    <glyph glyph-name="copyright" unicode="&#xa9;" horiz-adv-x="1775" 
d="M1473 155q-242 -227 -583 -227q-344 0 -587 227q-244 227 -244 547t244 547q244 228 587 228q340 0 583 -228q243 -227 243 -547t-243 -547zM1327 1129q-181 176 -437 176q-257 0 -439 -176q-183 -176 -183 -427q0 -250 183 -427t439 -177t437 177q182 177 182 427
q0 252 -182 427zM1271 420q-146 -105 -333 -105q-206 0 -345 107q-143 110 -143 280q0 173 143 280q138 103 345 103q203 0 333 -102l-135 -115q-88 64 -176 64q-172 0 -172 -230q0 -227 172 -227q102 0 176 64z" />
    <glyph glyph-name="registered" unicode="&#xae;" horiz-adv-x="1046" 
d="M821 637q-134 -125 -321 -125q-189 0 -323 125q-134 126 -134 301q0 177 134 301q134 125 323 125q187 0 321 -125q133 -125 133 -301q0 -175 -133 -301zM504 1067h-37v-119q102 0 102 64q0 55 -65 55zM740 1168q-100 96 -240 96q-141 0 -241 -96q-101 -95 -101 -230
q0 -133 101 -229q101 -95 241 -95q165 0 266 121h-162l-108 137q-8 10 -17 12l-12 1v-150h-152v402h213q187 0 187 -111q0 -65 -86 -117l141 -168q70 93 70 197q0 135 -100 230z" />
    <glyph glyph-name="acute" unicode="&#xb4;" horiz-adv-x="819" 
d="M508 1427h-248v35l217 312h373v-37z" />
    <glyph glyph-name="paragraph" unicode="&#xb6;" horiz-adv-x="1626" 
d="M1148 -440v1468h-246v-1468h-262v899q-234 0 -375 112q-145 114 -145 310q0 440 539 440h755v-1761h-266z" />
    <glyph glyph-name="ch270" unicode="&#xb7;" horiz-adv-x="638" 
d="M474 542q-64 -63 -155 -63t-156 63q-65 64 -65 154q0 91 65 156q66 66 156 66q91 0 155 -66q64 -65 64 -156q0 -90 -64 -154z" />
    <glyph glyph-name="ch270" unicode="&#x2219;" horiz-adv-x="638" 
d="M474 542q-64 -63 -155 -63t-156 63q-65 64 -65 154q0 91 65 156q66 66 156 66q91 0 155 -66q64 -65 64 -156q0 -90 -64 -154z" />
    <glyph glyph-name="onequarter" unicode="&#xbc;" horiz-adv-x="2017" 
d="M1790 131v-131h-314v131h-419v160l458 569h275v-547h190v-182h-190zM1476 586l-229 -273h229v273zM669 -158h-206v21l661 1567h209v-19zM254 461v686h-115v102l205 72h219v-860h-309z" />
    <glyph glyph-name="onehalf" unicode="&#xbd;" horiz-adv-x="2017" 
d="M1913 0h-744v94l322 359q46 50 63 95q12 32 12 75q0 73 -90 73q-55 0 -112 -40q-43 -31 -66 -66l-147 98q70 83 158 135q110 64 227 64q171 0 263 -88q85 -81 85 -219q0 -111 -78 -217q-66 -89 -192 -183h354v-12zM669 -158h-206v21l661 1567h209v-19zM254 461v686h-115
v102l205 72h219v-860h-309z" />
    <glyph glyph-name="threequarters" unicode="&#xbe;" horiz-adv-x="2017" 
d="M1790 131v-131h-314v131h-419v160l458 569h275v-547h190v-182h-190zM1476 586l-229 -273h229v273zM669 -158h-206v21l661 1567h209v-19zM254 461v686h-115v102l205 72h219v-860h-309z" />
    <glyph glyph-name="Agrave" unicode="&#xc0;" horiz-adv-x="1581" 
d="M692 1427l-342 310v37h373l217 -312v-35h-248zM1042 0l-92 240h-514l-90 -240h-330v16l555 1305h487l506 -1305v-16h-522zM698 956l-182 -489h348z" />
    <glyph glyph-name="Aacute" unicode="&#xc1;" horiz-adv-x="1581" 
d="M888 1427h-247v35l217 312h372v-37zM1042 0l-92 240h-514l-90 -240h-330v16l555 1305h487l506 -1305v-16h-522zM698 956l-182 -489h348z" />
    <glyph glyph-name="Acircumflex" unicode="&#xc2;" horiz-adv-x="1581" 
d="M903 1427l-113 168l-110 -168h-258v35l239 312h258l240 -312v-35h-256zM1042 0l-92 240h-514l-90 -240h-330v16l555 1305h487l506 -1305v-16h-522zM698 956l-182 -489h348z" />
    <glyph glyph-name="Atilde" unicode="&#xc3;" horiz-adv-x="1581" 
d="M1204 1753q0 -134 -81 -234q-81 -102 -194 -102q-39 0 -83 19q-29 13 -76 43l-70 42q-38 19 -68 19q-57 0 -57 -113h-199q0 141 81 238q81 98 200 98q38 0 81 -19q29 -13 73 -42l65 -42q34 -20 58 -20q71 0 71 113h199zM1042 0l-92 240h-514l-90 -240h-330v16l555 1305
h487l506 -1305v-16h-522zM698 956l-182 -489h348z" />
    <glyph glyph-name="Egrave" unicode="&#xc8;" horiz-adv-x="1374" 
d="M587 1427l-342 310v37h373l217 -312v-35h-248zM1212 0h-1018v1321h946l98 -221v-17h-565v-297h565v-233h-565v-315h639v-17z" />
    <glyph glyph-name="Eacute" unicode="&#xc9;" horiz-adv-x="1374" 
d="M784 1427h-248v35l217 312h373v-37zM1212 0h-1018v1321h946l98 -221v-17h-565v-297h565v-233h-565v-315h639v-17z" />
    <glyph glyph-name="Ecircumflex" unicode="&#xca;" horiz-adv-x="1374" 
d="M798 1427l-112 168l-111 -168h-258v35l239 312h259l239 -312v-35h-256zM1212 0h-1018v1321h946l98 -221v-17h-565v-297h565v-233h-565v-315h639v-17z" />
    <glyph glyph-name="Igrave" unicode="&#xcc;" horiz-adv-x="870" 
d="M336 1427l-342 310v37h373l217 -312v-35h-248zM195 0v1321h479v-1321h-479z" />
    <glyph glyph-name="Iacute" unicode="&#xcd;" horiz-adv-x="870" 
d="M532 1427h-248v35l217 312h373v-37zM194 0v1321h479v-1321h-479z" />
    <glyph glyph-name="Dslash" unicode="&#xd0;" horiz-adv-x="1712" 
d="M1576 399q-62 -124 -175 -217q-224 -182 -533 -182h-673v571h-195v224h195v526h673q149 0 280 -33q143 -36 249 -107q116 -79 178 -195q67 -128 67 -296q0 -157 -66 -291zM1044 1020q-95 100 -264 100h-106v-325h209v-224h-209v-370h106q173 0 264 112q103 126 103 394
q0 206 -103 313z" />
    <glyph glyph-name="Dslash" unicode="&#x110;" horiz-adv-x="1712" 
d="M1576 399q-62 -124 -175 -217q-224 -182 -533 -182h-673v571h-195v224h195v526h673q149 0 280 -33q143 -36 249 -107q116 -79 178 -195q67 -128 67 -296q0 -157 -66 -291zM1044 1020q-95 100 -264 100h-106v-325h209v-224h-209v-370h106q173 0 264 112q103 126 103 394
q0 206 -103 313z" />
    <glyph glyph-name="Ograve" unicode="&#xd2;" 
d="M780 1427l-342 310v37h372l217 -312v-35h-247zM1451 149q-229 -192 -573 -192t-573 192q-236 198 -236 513q0 311 236 510q229 192 573 192q343 0 573 -192q236 -199 236 -510q0 -315 -236 -513zM1086 1061q-83 133 -208 133t-208 -133q-85 -137 -85 -354q0 -287 84 -433
q76 -131 209 -131t209 131q84 146 84 433q0 217 -85 354z" />
    <glyph glyph-name="Oacute" unicode="&#xd3;" 
d="M976 1427h-248v35l218 312h372v-37zM1451 149q-229 -192 -573 -192t-573 192q-236 198 -236 513q0 311 236 510q229 192 573 192q343 0 573 -192q236 -199 236 -510q0 -315 -236 -513zM1086 1061q-83 133 -208 133t-208 -133q-85 -137 -85 -354q0 -287 84 -433
q76 -131 209 -131t209 131q84 146 84 433q0 217 -85 354z" />
    <glyph glyph-name="Ocircumflex" unicode="&#xd4;" 
d="M991 1427l-113 168l-111 -168h-258v35l240 312h258l240 -312v-35h-256zM1451 149q-229 -192 -573 -192t-573 192q-236 198 -236 513q0 311 236 510q229 192 573 192q343 0 573 -192q236 -199 236 -510q0 -315 -236 -513zM1086 1061q-83 133 -208 133t-208 -133
q-85 -137 -85 -354q0 -287 84 -433q76 -131 209 -131t209 131q84 146 84 433q0 217 -85 354z" />
    <glyph glyph-name="Otilde" unicode="&#xd5;" 
d="M1292 1753q0 -134 -81 -234q-81 -102 -194 -102q-39 0 -83 19q-29 13 -76 43l-71 42q-38 19 -67 19q-57 0 -57 -113h-199q0 141 81 238q81 98 200 98q38 0 80 -19q30 -13 73 -42l66 -42q34 -20 57 -20q72 0 72 113h199zM1451 149q-229 -192 -573 -192t-573 192
q-236 198 -236 513q0 311 236 510q229 192 573 192q343 0 573 -192q236 -199 236 -510q0 -315 -236 -513zM1086 1061q-83 133 -208 133t-208 -133q-85 -137 -85 -354q0 -287 84 -433q76 -131 209 -131t209 131q84 146 84 433q0 217 -85 354z" />
    <glyph glyph-name="Ugrave" unicode="&#xd9;" horiz-adv-x="1779" 
d="M790 1427l-342 310v37h373l217 -312v-35h-248zM1585 551q0 -288 -200 -452q-190 -156 -503 -156q-310 0 -498 156q-198 163 -198 452v770h479v-827q0 -125 47 -189q53 -74 170 -74q121 0 176 74q48 64 48 189v827h479v-770z" />
    <glyph glyph-name="Uacute" unicode="&#xda;" horiz-adv-x="1779" 
d="M987 1427h-248v35l217 312h373v-37zM1585 551q0 -288 -200 -452q-190 -156 -503 -156q-310 0 -498 156q-198 163 -198 452v770h479v-827q0 -125 47 -189q53 -74 170 -74q121 0 176 74q48 64 48 189v827h479v-770z" />
    <glyph glyph-name="Yacute" unicode="&#xdd;" horiz-adv-x="1560" 
d="M1028 475v-475h-480v475l-532 828v18h582l303 -551l293 551h346v-18zM986 1427h-247v35l217 312h372v-37z" />
    <glyph glyph-name="agrave" unicode="&#xe0;" horiz-adv-x="1581" 
d="M692 1427l-342 310v37h373l217 -312v-35h-248zM1042 0l-92 240h-514l-90 -240h-330v16l555 1305h487l506 -1305v-16h-522zM698 956l-182 -489h348z" />
    <glyph glyph-name="aacute" unicode="&#xe1;" horiz-adv-x="1581" 
d="M888 1427h-247v35l217 312h372v-37zM1042 0l-92 240h-514l-90 -240h-330v16l555 1305h487l506 -1305v-16h-522zM698 956l-182 -489h348z" />
    <glyph glyph-name="acircumflex" unicode="&#xe2;" horiz-adv-x="1581" 
d="M903 1427l-113 168l-110 -168h-258v35l239 312h258l240 -312v-35h-256zM1042 0l-92 240h-514l-90 -240h-330v16l555 1305h487l506 -1305v-16h-522zM698 956l-182 -489h348z" />
    <glyph glyph-name="atilde" unicode="&#xe3;" horiz-adv-x="1581" 
d="M1204 1753q0 -134 -81 -234q-81 -102 -194 -102q-39 0 -83 19q-29 13 -76 43l-70 42q-38 19 -68 19q-57 0 -57 -113h-199q0 141 81 238q81 98 200 98q38 0 81 -19q29 -13 73 -42l65 -42q34 -20 58 -20q71 0 71 113h199zM1042 0l-92 240h-514l-90 -240h-330v16l555 1305
h487l506 -1305v-16h-522zM698 956l-182 -489h348z" />
    <glyph glyph-name="egrave" unicode="&#xe8;" horiz-adv-x="1374" 
d="M587 1427l-342 310v37h373l217 -312v-35h-248zM1212 0h-1018v1321h946l98 -221v-17h-565v-297h565v-233h-565v-315h639v-17z" />
    <glyph glyph-name="eacute" unicode="&#xe9;" horiz-adv-x="1374" 
d="M784 1427h-248v35l217 312h373v-37zM1212 0h-1018v1321h946l98 -221v-17h-565v-297h565v-233h-565v-315h639v-17z" />
    <glyph glyph-name="ecircumflex" unicode="&#xea;" horiz-adv-x="1374" 
d="M798 1427l-112 168l-111 -168h-258v35l239 312h259l239 -312v-35h-256zM1212 0h-1018v1321h946l98 -221v-17h-565v-297h565v-233h-565v-315h639v-17z" />
    <glyph glyph-name="igrave" unicode="&#xec;" horiz-adv-x="870" 
d="M336 1427l-342 310v37h373l217 -312v-35h-248zM195 0v1321h479v-1321h-479z" />
    <glyph glyph-name="iacute" unicode="&#xed;" horiz-adv-x="870" 
d="M532 1427h-248v35l217 312h373v-37zM194 0v1321h479v-1321h-479z" />
    <glyph glyph-name="ograve" unicode="&#xf2;" 
d="M780 1427l-342 310v37h372l217 -312v-35h-247zM1451 149q-229 -192 -573 -192t-573 192q-236 198 -236 513q0 311 236 510q229 192 573 192q343 0 573 -192q236 -199 236 -510q0 -315 -236 -513zM1086 1061q-83 133 -208 133t-208 -133q-85 -137 -85 -354q0 -287 84 -433
q76 -131 209 -131t209 131q84 146 84 433q0 217 -85 354z" />
    <glyph glyph-name="oacute" unicode="&#xf3;" 
d="M976 1427h-248v35l218 312h372v-37zM1451 149q-229 -192 -573 -192t-573 192q-236 198 -236 513q0 311 236 510q229 192 573 192q343 0 573 -192q236 -199 236 -510q0 -315 -236 -513zM1086 1061q-83 133 -208 133t-208 -133q-85 -137 -85 -354q0 -287 84 -433
q76 -131 209 -131t209 131q84 146 84 433q0 217 -85 354z" />
    <glyph glyph-name="ocircumflex" unicode="&#xf4;" 
d="M991 1427l-113 168l-111 -168h-258v35l240 312h258l240 -312v-35h-256zM1451 149q-229 -192 -573 -192t-573 192q-236 198 -236 513q0 311 236 510q229 192 573 192q343 0 573 -192q236 -199 236 -510q0 -315 -236 -513zM1086 1061q-83 133 -208 133t-208 -133
q-85 -137 -85 -354q0 -287 84 -433q76 -131 209 -131t209 131q84 146 84 433q0 217 -85 354z" />
    <glyph glyph-name="otilde" unicode="&#xf5;" 
d="M1292 1753q0 -134 -81 -234q-81 -102 -194 -102q-39 0 -83 19q-29 13 -76 43l-71 42q-38 19 -67 19q-57 0 -57 -113h-199q0 141 81 238q81 98 200 98q38 0 80 -19q30 -13 73 -42l66 -42q34 -20 57 -20q72 0 72 113h199zM1451 149q-229 -192 -573 -192t-573 192
q-236 198 -236 513q0 311 236 510q229 192 573 192q343 0 573 -192q236 -199 236 -510q0 -315 -236 -513zM1086 1061q-83 133 -208 133t-208 -133q-85 -137 -85 -354q0 -287 84 -433q76 -131 209 -131t209 131q84 146 84 433q0 217 -85 354z" />
    <glyph glyph-name="divide" unicode="&#xf7;" horiz-adv-x="1110" 
d="M655 1004q0 -43 -28.5 -73t-69.5 -30t-70 30t-29 73t29 72.5t70 29.5t69.5 -29.5t28.5 -72.5zM139 602v127h831v-127h-831zM655 328q0 -43 -28.5 -73t-69.5 -30t-70 30t-29 73t29 72.5t70 29.5t69.5 -29.5t28.5 -72.5z" />
    <glyph glyph-name="glyph217" unicode="&#xf9;" horiz-adv-x="1779" 
d="M790 1427l-342 310v37h373l217 -312v-35h-248zM1585 551q0 -288 -200 -452q-190 -156 -503 -156q-310 0 -498 156q-198 163 -198 452v770h479v-827q0 -125 47 -189q53 -74 170 -74q121 0 176 74q48 64 48 189v827h479v-770z" />
    <glyph glyph-name="glyph218" unicode="&#xfa;" horiz-adv-x="1779" 
d="M987 1427h-248v35l217 312h373v-37zM1585 551q0 -288 -200 -452q-190 -156 -503 -156q-310 0 -498 156q-198 163 -198 452v770h479v-827q0 -125 47 -189q53 -74 170 -74q121 0 176 74q48 64 48 189v827h479v-770z" />
    <glyph glyph-name="glyph235" unicode="&#xfd;" horiz-adv-x="1560" 
d="M1028 475v-475h-480v475l-532 828v18h582l303 -551l293 551h346v-18zM986 1427h-247v35l217 312h372v-37z" />
    <glyph glyph-name="Abreve" unicode="&#x102;" horiz-adv-x="1581" 
d="M1042 0l-92 240h-514l-90 -240h-330v16l555 1305h487l506 -1305v-16h-522zM698 956l-182 -489h348zM609 1683q64 -84 193 -84q130 0 194 84h144q-33 -114 -108 -192q-98 -98 -230 -98q-131 0 -229 98q-75 78 -108 192h144z" />
    <glyph glyph-name="abreve" unicode="&#x103;" horiz-adv-x="1581" 
d="M1042 0l-92 240h-514l-90 -240h-330v16l555 1305h487l506 -1305v-16h-522zM698 956l-182 -489h348zM609 1683q64 -84 193 -84q130 0 194 84h144q-33 -114 -108 -192q-98 -98 -230 -98q-131 0 -229 98q-75 78 -108 192h144z" />
    <glyph glyph-name="Ccaron" unicode="&#x10c;" horiz-adv-x="1274" 
 />
    <glyph glyph-name="ccaron" unicode="&#x10d;" horiz-adv-x="922" 
 />
    <glyph glyph-name="dcroat" unicode="&#x111;" horiz-adv-x="1712" 
d="M1576 399q-62 -124 -175 -217q-224 -182 -533 -182h-673v571h-195v224h195v526h673q149 0 280 -33q143 -36 249 -107q116 -79 178 -195q67 -128 67 -296q0 -157 -66 -291zM1044 1020q-95 100 -264 100h-106v-325h209v-224h-209v-370h106q173 0 264 112q103 126 103 394
q0 206 -103 313z" />
    <glyph glyph-name="Itilde" unicode="&#x128;" horiz-adv-x="870" 
d="M193 0v1321h479v-1321h-479zM894 1761q0 -134 -80 -234q-82 -102 -194 -102q-39 0 -83 19q-30 13 -76 43l-71 42q-38 19 -67 19q-57 0 -57 -113h-199q0 141 80 238q81 98 201 98q38 0 80 -19q30 -13 73 -42l65 -42q35 -20 58 -20q72 0 72 113h198z" />
    <glyph glyph-name="itilde" unicode="&#x129;" horiz-adv-x="870" 
d="M193 0v1321h479v-1321h-479zM894 1761q0 -134 -80 -234q-82 -102 -194 -102q-39 0 -83 19q-30 13 -76 43l-71 42q-38 19 -67 19q-57 0 -57 -113h-199q0 141 80 238q81 98 201 98q38 0 80 -19q30 -13 73 -42l65 -42q35 -20 58 -20q72 0 72 113h198z" />
    <glyph glyph-name="Utilde" unicode="&#x168;" horiz-adv-x="1779" 
d="M1585 551q0 -288 -200 -452q-190 -156 -503 -156q-310 0 -498 156q-198 163 -198 452v770h479v-827q0 -125 47 -189q53 -74 170 -74q121 0 176 74q48 64 48 189v827h479v-770zM1352 1753q0 -134 -80 -234q-82 -102 -195 -102q-39 0 -83 19q-29 13 -76 43l-70 42
q-38 19 -67 19q-58 0 -58 -113h-198q0 141 80 238q81 98 200 98q38 0 81 -19q29 -13 73 -42l65 -42q34 -20 58 -20q71 0 71 113h199z" />
    <glyph glyph-name="utilde" unicode="&#x169;" horiz-adv-x="1779" 
d="M1585 551q0 -288 -200 -452q-190 -156 -503 -156q-310 0 -498 156q-198 163 -198 452v770h479v-827q0 -125 47 -189q53 -74 170 -74q121 0 176 74q48 64 48 189v827h479v-770zM1352 1753q0 -134 -80 -234q-82 -102 -195 -102q-39 0 -83 19q-29 13 -76 43l-70 42
q-38 19 -67 19q-58 0 -58 -113h-198q0 141 80 238q81 98 200 98q38 0 81 -19q29 -13 73 -42l65 -42q34 -20 58 -20q71 0 71 113h199z" />
    <glyph glyph-name="Ohorn" unicode="&#x1a0;" 
d="M1086 1061q-83 133 -208 133t-208 -133q-85 -137 -85 -354q0 -287 84 -433q76 -131 209 -131t209 131q84 146 84 433q0 217 -85 354zM1534 1090q153 -178 153 -428q0 -315 -236 -513q-229 -192 -573 -192t-573 192q-236 198 -236 513q0 311 236 510q229 192 573 192
q342 0 571 -190q77 56 77 144q0 36 -79 36q-137 0 -137 128q0 67 55 111q53 43 134 43q103 0 164 -78q57 -73 57 -182q0 -110 -87 -205q-43 -47 -99 -81z" />
    <glyph glyph-name="ohorn" unicode="&#x1a1;" 
d="M1086 1061q-83 133 -208 133t-208 -133q-85 -137 -85 -354q0 -287 84 -433q76 -131 209 -131t209 131q84 146 84 433q0 217 -85 354zM1534 1090q153 -178 153 -428q0 -315 -236 -513q-229 -192 -573 -192t-573 192q-236 198 -236 513q0 311 236 510q229 192 573 192
q342 0 571 -190q77 56 77 144q0 36 -79 36q-137 0 -137 128q0 67 55 111q53 43 134 43q103 0 164 -78q57 -73 57 -182q0 -110 -87 -205q-43 -47 -99 -81z" />
    <glyph glyph-name="Uhorn" unicode="&#x1af;" horiz-adv-x="1779" 
d="M1585 551q0 -288 -200 -452q-190 -156 -503 -156q-310 0 -498 156q-198 163 -198 452v770h479v-827q0 -125 47 -189q53 -74 170 -74q121 0 176 74q48 64 48 189v827h479v-770zM1768 1171q-83 -91 -212 -133l-81 67v16q187 59 187 197q0 36 -80 36q-136 0 -136 128
q0 67 54 111q54 43 134 43q104 0 165 -78q56 -73 56 -182q0 -110 -87 -205z" />
    <glyph glyph-name="uhorn" unicode="&#x1b0;" horiz-adv-x="1779" 
d="M1585 551q0 -288 -200 -452q-190 -156 -503 -156q-310 0 -498 156q-198 163 -198 452v770h479v-827q0 -125 47 -189q53 -74 170 -74q121 0 176 74q48 64 48 189v827h479v-770zM1768 1171q-83 -91 -212 -133l-81 67v16q187 59 187 197q0 36 -80 36q-136 0 -136 128
q0 67 54 111q54 43 134 43q104 0 165 -78q56 -73 56 -182q0 -110 -87 -205z" />
    <glyph glyph-name="uni1EA0" unicode="&#x1ea0;" horiz-adv-x="1581" 
d="M1042 0l-92 240h-514l-90 -240h-330v16l555 1305h487l506 -1305v-16h-522zM698 956l-182 -489h348zM813 -367q-52 -52 -124 -52q-74 0 -126 52q-52 51 -52 124t52 126q53 53 126 53t125 -53q51 -53 51 -126q0 -72 -52 -124z" />
    <glyph glyph-name="uni1EA1" unicode="&#x1ea1;" horiz-adv-x="1581" 
d="M1042 0l-92 240h-514l-90 -240h-330v16l555 1305h487l506 -1305v-16h-522zM698 956l-182 -489h348zM813 -367q-52 -52 -124 -52q-74 0 -126 52q-52 51 -52 124t52 126q53 53 126 53t125 -53q51 -53 51 -126q0 -72 -52 -124z" />
    <glyph glyph-name="uni1EA2" unicode="&#x1ea2;" horiz-adv-x="1581" 
d="M1042 0l-92 240h-514l-90 -240h-330v16l555 1305h487l506 -1305v-16h-522zM698 956l-182 -489h348zM1058 1596q-12 -16 -30 -32q-12 -11 -33 -28l-17 -13q-10 -8 -17 -13q-18 -16 -29 -29q-28 -33 -28 -71h-209q-12 18 -12 73q0 26 19 50q12 16 41 39q2 2 6 5l16 13
q12 10 19 18q19 20 19 40q0 46 -54 46q-51 0 -118 -57l-115 90q40 49 115 87q91 47 186 47q269 0 269 -181q0 -46 -28 -84z" />
    <glyph glyph-name="uni1EA3" unicode="&#x1ea3;" horiz-adv-x="1581" 
d="M1042 0l-92 240h-514l-90 -240h-330v16l555 1305h487l506 -1305v-16h-522zM698 956l-182 -489h348zM1058 1596q-12 -16 -30 -32q-12 -11 -33 -28l-17 -13q-10 -8 -17 -13q-18 -16 -29 -29q-28 -33 -28 -71h-209q-12 18 -12 73q0 26 19 50q12 16 41 39q2 2 6 5l16 13
q12 10 19 18q19 20 19 40q0 46 -54 46q-51 0 -118 -57l-115 90q40 49 115 87q91 47 186 47q269 0 269 -181q0 -46 -28 -84z" />
    <glyph glyph-name="uni1EA4" unicode="&#x1ea4;" horiz-adv-x="1581" 
d="M1322 1644h-247v35l217 312h372v-37zM1042 0l-92 240h-514l-90 -240h-330v16l555 1305h487l506 -1305v-16h-522zM698 956l-182 -489h348zM903 1427l-113 168l-110 -168h-258v35l239 312h258l240 -312v-35h-256z" />
    <glyph glyph-name="uni1EA5" unicode="&#x1ea5;" horiz-adv-x="1581" 
d="M1322 1644h-247v35l217 312h372v-37zM1042 0l-92 240h-514l-90 -240h-330v16l555 1305h487l506 -1305v-16h-522zM698 956l-182 -489h348zM903 1427l-113 168l-110 -168h-258v35l239 312h258l240 -312v-35h-256z" />
    <glyph glyph-name="uni1EA6" unicode="&#x1ea6;" horiz-adv-x="1581" 
d="M1093 1684l-342 310v37h373l217 -312v-35h-248zM1042 0l-92 240h-514l-90 -240h-330v16l555 1305h487l506 -1305v-16h-522zM698 956l-182 -489h348zM903 1427l-113 168l-110 -168h-258v35l239 312h258l240 -312v-35h-256z" />
    <glyph glyph-name="uni1EA7" unicode="&#x1ea7;" horiz-adv-x="1581" 
d="M1093 1684l-342 310v37h373l217 -312v-35h-248zM1042 0l-92 240h-514l-90 -240h-330v16l555 1305h487l506 -1305v-16h-522zM698 956l-182 -489h348zM903 1427l-113 168l-110 -168h-258v35l239 312h258l240 -312v-35h-256z" />
    <glyph glyph-name="uni1EA8" unicode="&#x1ea8;" horiz-adv-x="1581" 
d="M1042 0l-92 240h-514l-90 -240h-330v16l555 1305h487l506 -1305v-16h-522zM698 956l-182 -489h348zM1475 1797q-12 -16 -30 -32q-12 -11 -33 -28l-17 -13q-10 -8 -17 -13q-18 -16 -29 -29q-28 -33 -28 -71h-209q-12 18 -12 73q0 26 19 50q12 16 41 39q2 2 6 5l16 13
q12 10 19 18q19 20 19 40q0 46 -54 46q-51 0 -118 -57l-115 90q40 49 115 87q91 47 186 47q269 0 269 -181q0 -46 -28 -84zM903 1427l-113 168l-110 -168h-258v35l239 312h258l240 -312v-35h-256z" />
    <glyph glyph-name="uni1EA9" unicode="&#x1ea9;" horiz-adv-x="1581" 
d="M1042 0l-92 240h-514l-90 -240h-330v16l555 1305h487l506 -1305v-16h-522zM698 956l-182 -489h348zM1475 1797q-12 -16 -30 -32q-12 -11 -33 -28l-17 -13q-10 -8 -17 -13q-18 -16 -29 -29q-28 -33 -28 -71h-209q-12 18 -12 73q0 26 19 50q12 16 41 39q2 2 6 5l16 13
q12 10 19 18q19 20 19 40q0 46 -54 46q-51 0 -118 -57l-115 90q40 49 115 87q91 47 186 47q269 0 269 -181q0 -46 -28 -84zM903 1427l-113 168l-110 -168h-258v35l239 312h258l240 -312v-35h-256z" />
    <glyph glyph-name="uni1EAA" unicode="&#x1eaa;" horiz-adv-x="1581" 
d="M1269 2105q0 -118 -81 -207q-81 -91 -194 -91q-39 0 -83 17q-29 12 -76 38l-70 37q-38 17 -68 17q-57 0 -57 -100h-199q0 125 81 211q81 87 200 87q38 0 81 -17q29 -12 73 -37l65 -38q34 -17 58 -17q71 0 71 100h199zM1042 0l-92 240h-514l-90 -240h-330v16l555 1305h487
l506 -1305v-16h-522zM698 956l-182 -489h348zM903 1427l-113 168l-110 -168h-258v35l239 312h258l240 -312v-35h-256z" />
    <glyph glyph-name="uni1EAB" unicode="&#x1eab;" horiz-adv-x="1581" 
d="M1269 2105q0 -118 -81 -207q-81 -91 -194 -91q-39 0 -83 17q-29 12 -76 38l-70 37q-38 17 -68 17q-57 0 -57 -100h-199q0 125 81 211q81 87 200 87q38 0 81 -17q29 -12 73 -37l65 -38q34 -17 58 -17q71 0 71 100h199zM1042 0l-92 240h-514l-90 -240h-330v16l555 1305h487
l506 -1305v-16h-522zM698 956l-182 -489h348zM903 1427l-113 168l-110 -168h-258v35l239 312h258l240 -312v-35h-256z" />
    <glyph glyph-name="uni1EAC" unicode="&#x1eac;" horiz-adv-x="1581" 
d="M1042 0l-92 240h-514l-90 -240h-330v16l555 1305h487l506 -1305v-16h-522zM698 956l-182 -489h348zM813 -367q-52 -52 -124 -52q-74 0 -126 52q-52 51 -52 124t52 126q53 53 126 53t125 -53q51 -53 51 -126q0 -72 -52 -124zM903 1427l-113 168l-110 -168h-258v35l239 312
h258l240 -312v-35h-256z" />
    <glyph glyph-name="uni1EAD" unicode="&#x1ead;" horiz-adv-x="1581" 
d="M1042 0l-92 240h-514l-90 -240h-330v16l555 1305h487l506 -1305v-16h-522zM698 956l-182 -489h348zM813 -367q-52 -52 -124 -52q-74 0 -126 52q-52 51 -52 124t52 126q53 53 126 53t125 -53q51 -53 51 -126q0 -72 -52 -124zM903 1427l-113 168l-110 -168h-258v35l239 312
h258l240 -312v-35h-256z" />
    <glyph glyph-name="uni1EAE" unicode="&#x1eae;" horiz-adv-x="1581" 
d="M921 1697h-247v35l217 312h372v-37zM1042 0l-92 240h-514l-90 -240h-330v16l555 1305h487l506 -1305v-16h-522zM698 956l-182 -489h348zM609 1683q65 -84 194 -84t194 84h144q-34 -114 -109 -192q-98 -98 -229 -98t-230 98q-75 78 -108 192h144z" />
    <glyph glyph-name="uni1EAF" unicode="&#x1eaf;" horiz-adv-x="1581" 
d="M921 1697h-247v35l217 312h372v-37zM1042 0l-92 240h-514l-90 -240h-330v16l555 1305h487l506 -1305v-16h-522zM698 956l-182 -489h348zM609 1683q65 -84 194 -84t194 84h144q-34 -114 -109 -192q-98 -98 -229 -98t-230 98q-75 78 -108 192h144z" />
    <glyph glyph-name="uni1EB0" unicode="&#x1eb0;" horiz-adv-x="1581" 
d="M721 1684l-342 310v37h373l217 -312v-35h-248zM1042 0l-92 240h-514l-90 -240h-330v16l555 1305h487l506 -1305v-16h-522zM698 956l-182 -489h348zM609 1683q65 -84 194 -84t194 84h144q-34 -114 -109 -192q-98 -98 -229 -98t-230 98q-75 78 -108 192h144z" />
    <glyph glyph-name="uni1EB1" unicode="&#x1eb1;" horiz-adv-x="1581" 
d="M721 1684l-342 310v37h373l217 -312v-35h-248zM1042 0l-92 240h-514l-90 -240h-330v16l555 1305h487l506 -1305v-16h-522zM698 956l-182 -489h348zM609 1683q65 -84 194 -84t194 84h144q-34 -114 -109 -192q-98 -98 -229 -98t-230 98q-75 78 -108 192h144z" />
    <glyph glyph-name="uni1EB2" unicode="&#x1eb2;" horiz-adv-x="1581" 
d="M1042 0l-92 240h-514l-90 -240h-330v16l555 1305h487l506 -1305v-16h-522zM698 956l-182 -489h348zM1070 1859q-12 -16 -30 -32q-12 -11 -33 -28l-17 -13q-10 -8 -17 -13q-18 -16 -29 -29q-28 -33 -28 -71h-209q-12 18 -12 73q0 26 19 50q12 16 41 39q2 2 6 5l16 13
q12 10 19 18q19 20 19 40q0 46 -54 46q-51 0 -118 -57l-115 90q40 49 115 87q91 47 186 47q269 0 269 -181q0 -46 -28 -84zM609 1683q65 -84 194 -84t194 84h144q-34 -114 -109 -192q-98 -98 -229 -98t-230 98q-75 78 -108 192h144z" />
    <glyph glyph-name="uni1EB3" unicode="&#x1eb3;" horiz-adv-x="1581" 
d="M1042 0l-92 240h-514l-90 -240h-330v16l555 1305h487l506 -1305v-16h-522zM698 956l-182 -489h348zM1070 1859q-12 -16 -30 -32q-12 -11 -33 -28l-17 -13q-10 -8 -17 -13q-18 -16 -29 -29q-28 -33 -28 -71h-209q-12 18 -12 73q0 26 19 50q12 16 41 39q2 2 6 5l16 13
q12 10 19 18q19 20 19 40q0 46 -54 46q-51 0 -118 -57l-115 90q40 49 115 87q91 47 186 47q269 0 269 -181q0 -46 -28 -84zM609 1683q65 -84 194 -84t194 84h144q-34 -114 -109 -192q-98 -98 -229 -98t-230 98q-75 78 -108 192h144z" />
    <glyph glyph-name="uni1EB4" unicode="&#x1eb4;" horiz-adv-x="1581" 
d="M1292 2040q0 -118 -81 -207q-81 -91 -194 -91q-39 0 -83 17q-29 12 -76 38l-70 37q-38 17 -68 17q-57 0 -57 -100h-199q0 125 81 211q81 87 200 87q38 0 81 -17q29 -12 73 -37l65 -38q34 -17 58 -17q71 0 71 100h199zM1042 0l-92 240h-514l-90 -240h-330v16l555 1305h487
l506 -1305v-16h-522zM698 956l-182 -489h348zM609 1683q65 -84 194 -84t194 84h144q-34 -114 -109 -192q-98 -98 -229 -98t-230 98q-75 78 -108 192h144z" />
    <glyph glyph-name="uni1EB5" unicode="&#x1eb5;" horiz-adv-x="1581" 
d="M1292 2040q0 -118 -81 -207q-81 -91 -194 -91q-39 0 -83 17q-29 12 -76 38l-70 37q-38 17 -68 17q-57 0 -57 -100h-199q0 125 81 211q81 87 200 87q38 0 81 -17q29 -12 73 -37l65 -38q34 -17 58 -17q71 0 71 100h199zM1042 0l-92 240h-514l-90 -240h-330v16l555 1305h487
l506 -1305v-16h-522zM698 956l-182 -489h348zM609 1683q65 -84 194 -84t194 84h144q-34 -114 -109 -192q-98 -98 -229 -98t-230 98q-75 78 -108 192h144z" />
    <glyph glyph-name="uni1EB6" unicode="&#x1eb6;" horiz-adv-x="1581" 
d="M1042 0l-92 240h-514l-90 -240h-330v16l555 1305h487l506 -1305v-16h-522zM698 956l-182 -489h348zM813 -367q-52 -52 -124 -52q-74 0 -126 52q-52 51 -52 124t52 126q53 53 126 53t125 -53q51 -53 51 -126q0 -72 -52 -124zM609 1683q65 -84 194 -84t194 84h144
q-34 -114 -109 -192q-98 -98 -229 -98t-230 98q-75 78 -108 192h144z" />
    <glyph glyph-name="uni1EB7" unicode="&#x1eb7;" horiz-adv-x="1581" 
d="M1042 0l-92 240h-514l-90 -240h-330v16l555 1305h487l506 -1305v-16h-522zM698 956l-182 -489h348zM813 -367q-52 -52 -124 -52q-74 0 -126 52q-52 51 -52 124t52 126q53 53 126 53t125 -53q51 -53 51 -126q0 -72 -52 -124zM609 1683q65 -84 194 -84t194 84h144
q-34 -114 -109 -192q-98 -98 -229 -98t-230 98q-75 78 -108 192h144z" />
    <glyph glyph-name="uni1EB8" unicode="&#x1eb8;" horiz-adv-x="1374" 
d="M1212 0h-1018v1321h946l98 -221v-17h-565v-297h565v-233h-565v-315h639v-17zM813 -367q-52 -52 -125 -52t-126 52q-52 51 -52 124t52 126q53 53 126 53q74 0 125 -53q52 -53 52 -126q0 -72 -52 -124z" />
    <glyph glyph-name="uni1EB9" unicode="&#x1eb9;" horiz-adv-x="1374" 
d="M1212 0h-1018v1321h946l98 -221v-17h-565v-297h565v-233h-565v-315h639v-17zM813 -367q-52 -52 -125 -52t-126 52q-52 51 -52 124t52 126q53 53 126 53q74 0 125 -53q52 -53 52 -126q0 -72 -52 -124z" />
    <glyph glyph-name="uni1EBA" unicode="&#x1eba;" horiz-adv-x="1374" 
d="M1212 0h-1018v1321h946l98 -221v-17h-565v-297h565v-233h-565v-315h639v-17zM921 1579q-11 -16 -29 -32q-12 -11 -34 -28l-17 -13q-9 -8 -16 -13q-18 -16 -29 -29q-29 -33 -29 -71h-209q-11 18 -11 73q0 26 18 50q13 16 41 39q2 2 6 5l16 13q12 10 19 18q19 20 19 40
q0 46 -53 46q-52 0 -119 -57l-115 90q40 49 115 87q91 47 186 47q270 0 270 -181q0 -46 -29 -84z" />
    <glyph glyph-name="uni1EBB" unicode="&#x1ebb;" horiz-adv-x="1374" 
d="M1212 0h-1018v1321h946l98 -221v-17h-565v-297h565v-233h-565v-315h639v-17zM921 1579q-11 -16 -29 -32q-12 -11 -34 -28l-17 -13q-9 -8 -16 -13q-18 -16 -29 -29q-29 -33 -29 -71h-209q-11 18 -11 73q0 26 18 50q13 16 41 39q2 2 6 5l16 13q12 10 19 18q19 20 19 40
q0 46 -53 46q-52 0 -119 -57l-115 90q40 49 115 87q91 47 186 47q270 0 270 -181q0 -46 -29 -84z" />
    <glyph glyph-name="uni1EBC" unicode="&#x1ebc;" horiz-adv-x="1374" 
d="M1212 0h-1018v1321h946l98 -221v-17h-565v-297h565v-233h-565v-315h639v-17zM1135 1761q0 -134 -80 -234q-82 -102 -194 -102q-39 0 -83 19q-30 13 -76 43l-71 42q-38 19 -67 19q-57 0 -57 -113h-199q0 141 80 238q81 98 200 98q38 0 81 -19q30 -13 73 -42l65 -42
q34 -20 58 -20q72 0 72 113h198z" />
    <glyph glyph-name="uni1EBD" unicode="&#x1ebd;" horiz-adv-x="1374" 
d="M1212 0h-1018v1321h946l98 -221v-17h-565v-297h565v-233h-565v-315h639v-17zM1135 1761q0 -134 -80 -234q-82 -102 -194 -102q-39 0 -83 19q-30 13 -76 43l-71 42q-38 19 -67 19q-57 0 -57 -113h-199q0 141 80 238q81 98 200 98q38 0 81 -19q30 -13 73 -42l65 -42
q34 -20 58 -20q72 0 72 113h198z" />
    <glyph glyph-name="uni1EBE" unicode="&#x1ebe;" horiz-adv-x="1374" 
d="M1195 1650h-248v35l217 312h373v-37zM1212 0h-1018v1321h946l98 -221v-17h-565v-297h565v-233h-565v-315h639v-17zM798 1427l-112 168l-111 -168h-258v35l239 312h259l239 -312v-35h-256z" />
    <glyph glyph-name="uni1EBF" unicode="&#x1ebf;" horiz-adv-x="1374" 
d="M1195 1650h-248v35l217 312h373v-37zM1212 0h-1018v1321h946l98 -221v-17h-565v-297h565v-233h-565v-315h639v-17zM798 1427l-112 168l-111 -168h-258v35l239 312h259l239 -312v-35h-256z" />
    <glyph glyph-name="uni1EC0" unicode="&#x1ec0;" horiz-adv-x="1374" 
d="M1023 1658l-342 310v37h373l217 -312v-35h-248zM1212 0h-1018v1321h946l98 -221v-17h-565v-297h565v-233h-565v-315h639v-17zM798 1427l-112 168l-111 -168h-258v35l239 312h259l239 -312v-35h-256z" />
    <glyph glyph-name="uni1EC1" unicode="&#x1ec1;" horiz-adv-x="1374" 
d="M1023 1658l-342 310v37h373l217 -312v-35h-248zM1212 0h-1018v1321h946l98 -221v-17h-565v-297h565v-233h-565v-315h639v-17zM798 1427l-112 168l-111 -168h-258v35l239 312h259l239 -312v-35h-256z" />
    <glyph glyph-name="uni1EC2" unicode="&#x1ec2;" horiz-adv-x="1374" 
d="M1212 0h-1018v1321h946l98 -221v-17h-565v-297h565v-233h-565v-315h639v-17zM1306 1836q-11 -16 -29 -32q-12 -11 -34 -28l-17 -13q-9 -8 -16 -13q-18 -16 -29 -29q-29 -33 -29 -71h-209q-11 18 -11 73q0 26 18 50q13 16 41 39q2 2 6 5l16 13q12 10 19 18q19 20 19 40
q0 46 -53 46q-52 0 -119 -57l-115 90q40 49 115 87q91 47 186 47q270 0 270 -181q0 -46 -29 -84zM798 1427l-112 168l-111 -168h-258v35l239 312h259l239 -312v-35h-256z" />
    <glyph glyph-name="uni1EC3" unicode="&#x1ec3;" horiz-adv-x="1374" 
d="M1212 0h-1018v1321h946l98 -221v-17h-565v-297h565v-233h-565v-315h639v-17zM1306 1836q-11 -16 -29 -32q-12 -11 -34 -28l-17 -13q-9 -8 -16 -13q-18 -16 -29 -29q-29 -33 -29 -71h-209q-11 18 -11 73q0 26 18 50q13 16 41 39q2 2 6 5l16 13q12 10 19 18q19 20 19 40
q0 46 -53 46q-52 0 -119 -57l-115 90q40 49 115 87q91 47 186 47q270 0 270 -181q0 -46 -29 -84zM798 1427l-112 168l-111 -168h-258v35l239 312h259l239 -312v-35h-256z" />
    <glyph glyph-name="uni1EC4" unicode="&#x1ec4;" horiz-adv-x="1374" 
d="M1212 0h-1018v1321h946l98 -221v-17h-565v-297h565v-233h-565v-315h639v-17zM1169 2129q0 -134 -80 -234q-82 -102 -194 -102q-39 0 -83 19q-30 13 -76 43l-71 42q-38 19 -67 19q-57 0 -57 -113h-199q0 141 80 238q81 98 200 98q38 0 81 -19q30 -13 73 -42l65 -42
q34 -20 58 -20q72 0 72 113h198zM798 1427l-112 168l-111 -168h-258v35l239 312h259l239 -312v-35h-256z" />
    <glyph glyph-name="uni1EC5" unicode="&#x1ec5;" horiz-adv-x="1374" 
d="M1212 0h-1018v1321h946l98 -221v-17h-565v-297h565v-233h-565v-315h639v-17zM1169 2129q0 -134 -80 -234q-82 -102 -194 -102q-39 0 -83 19q-30 13 -76 43l-71 42q-38 19 -67 19q-57 0 -57 -113h-199q0 141 80 238q81 98 200 98q38 0 81 -19q30 -13 73 -42l65 -42
q34 -20 58 -20q72 0 72 113h198zM798 1427l-112 168l-111 -168h-258v35l239 312h259l239 -312v-35h-256z" />
    <glyph glyph-name="uni1EC6" unicode="&#x1ec6;" horiz-adv-x="1374" 
d="M1212 0h-1018v1321h946l98 -221v-17h-565v-297h565v-233h-565v-315h639v-17zM813 -367q-52 -52 -125 -52t-126 52q-52 51 -52 124t52 126q53 53 126 53q74 0 125 -53q52 -53 52 -126q0 -72 -52 -124zM798 1427l-112 168l-111 -168h-258v35l239 312h259l239 -312v-35h-256
z" />
    <glyph glyph-name="uni1EC7" unicode="&#x1ec7;" horiz-adv-x="1374" 
d="M1212 0h-1018v1321h946l98 -221v-17h-565v-297h565v-233h-565v-315h639v-17zM813 -367q-52 -52 -125 -52t-126 52q-52 51 -52 124t52 126q53 53 126 53q74 0 125 -53q52 -53 52 -126q0 -72 -52 -124zM798 1427l-112 168l-111 -168h-258v35l239 312h259l239 -312v-35h-256
z" />
    <glyph glyph-name="uni1EC8" unicode="&#x1ec8;" horiz-adv-x="870" 
d="M194 0v1321h479v-1321h-479zM690 1579q-12 -16 -29 -32q-13 -11 -34 -28l-17 -13q-10 -8 -16 -13q-18 -16 -30 -29q-28 -33 -28 -71h-209q-12 18 -12 73q0 26 19 50q12 16 41 39q2 2 6 5l16 13q12 10 19 18q19 20 19 40q0 46 -54 46q-51 0 -118 -57l-115 90q40 49 115 87
q91 47 186 47q269 0 269 -181q0 -46 -28 -84z" />
    <glyph glyph-name="uni1EC9" unicode="&#x1ec9;" horiz-adv-x="870" 
d="M194 0v1321h479v-1321h-479zM690 1579q-12 -16 -29 -32q-13 -11 -34 -28l-17 -13q-10 -8 -16 -13q-18 -16 -30 -29q-28 -33 -28 -71h-209q-12 18 -12 73q0 26 19 50q12 16 41 39q2 2 6 5l16 13q12 10 19 18q19 20 19 40q0 46 -54 46q-51 0 -118 -57l-115 90q40 49 115 87
q91 47 186 47q269 0 269 -181q0 -46 -28 -84z" />
    <glyph glyph-name="uni1ECA" unicode="&#x1eca;" horiz-adv-x="870" 
d="M194 0v1321h479v-1321h-479zM559 -367q-52 -52 -124 -52q-74 0 -126 52q-53 51 -53 124t53 126q52 53 126 53q73 0 125 -53q51 -53 51 -126q0 -72 -52 -124z" />
    <glyph glyph-name="uni1ECB" unicode="&#x1ecb;" horiz-adv-x="870" 
d="M194 0v1321h479v-1321h-479zM559 -367q-52 -52 -124 -52q-74 0 -126 52q-53 51 -53 124t53 126q52 53 126 53q73 0 125 -53q51 -53 51 -126q0 -72 -52 -124z" />
    <glyph glyph-name="uni1ECC" unicode="&#x1ecc;" 
d="M1451 149q-229 -192 -573 -192t-573 192q-236 198 -236 513q0 311 236 510q229 192 573 192q343 0 573 -192q236 -199 236 -510q0 -315 -236 -513zM1086 1061q-83 133 -208 133t-208 -133q-85 -137 -85 -354q0 -287 84 -433q76 -131 209 -131t209 131q84 146 84 433
q0 217 -85 354zM1003 -401q-52 -52 -124 -52q-74 0 -126 52q-52 51 -52 124t52 126q53 53 126 53t125 -53q51 -53 51 -126q0 -72 -52 -124z" />
    <glyph glyph-name="uni1ECD" unicode="&#x1ecd;" 
d="M1451 149q-229 -192 -573 -192t-573 192q-236 198 -236 513q0 311 236 510q229 192 573 192q343 0 573 -192q236 -199 236 -510q0 -315 -236 -513zM1086 1061q-83 133 -208 133t-208 -133q-85 -137 -85 -354q0 -287 84 -433q76 -131 209 -131t209 131q84 146 84 433
q0 217 -85 354zM1003 -401q-52 -52 -124 -52q-74 0 -126 52q-52 51 -52 124t52 126q53 53 126 53t125 -53q51 -53 51 -126q0 -72 -52 -124z" />
    <glyph glyph-name="uni1ECE" unicode="&#x1ece;" 
d="M1451 149q-229 -192 -573 -192t-573 192q-236 198 -236 513q0 311 236 510q229 192 573 192q343 0 573 -192q236 -199 236 -510q0 -315 -236 -513zM1086 1061q-83 133 -208 133t-208 -133q-85 -137 -85 -354q0 -287 84 -433q76 -131 209 -131t209 131q84 146 84 433
q0 217 -85 354zM1127 1596q-12 -16 -29 -32q-12 -11 -34 -28l-17 -13q-9 -8 -16 -13q-18 -16 -29 -29q-29 -33 -29 -71h-209q-12 18 -12 73q0 26 19 50q13 16 41 39q2 2 6 5l16 13q12 10 19 18q19 20 19 40q0 46 -53 46q-52 0 -119 -57l-115 90q40 49 115 87q91 47 186 47
q269 0 269 -181q0 -46 -28 -84z" />
    <glyph glyph-name="uni1ECF" unicode="&#x1ecf;" 
d="M1451 149q-229 -192 -573 -192t-573 192q-236 198 -236 513q0 311 236 510q229 192 573 192q343 0 573 -192q236 -199 236 -510q0 -315 -236 -513zM1086 1061q-83 133 -208 133t-208 -133q-85 -137 -85 -354q0 -287 84 -433q76 -131 209 -131t209 131q84 146 84 433
q0 217 -85 354zM1127 1596q-12 -16 -29 -32q-12 -11 -34 -28l-17 -13q-9 -8 -16 -13q-18 -16 -29 -29q-29 -33 -29 -71h-209q-12 18 -12 73q0 26 19 50q13 16 41 39q2 2 6 5l16 13q12 10 19 18q19 20 19 40q0 46 -53 46q-52 0 -119 -57l-115 90q40 49 115 87q91 47 186 47
q269 0 269 -181q0 -46 -28 -84z" />
    <glyph glyph-name="uni1ED0" unicode="&#x1ed0;" 
d="M1397 1648h-248v35l218 312h372v-37zM1451 149q-229 -192 -573 -192t-573 192q-236 198 -236 513q0 311 236 510q229 192 573 192q343 0 573 -192q236 -199 236 -510q0 -315 -236 -513zM1086 1061q-83 133 -208 133t-208 -133q-85 -137 -85 -354q0 -287 84 -433
q76 -131 209 -131t209 131q84 146 84 433q0 217 -85 354zM991 1427l-113 168l-111 -168h-258v35l240 312h258l240 -312v-35h-256z" />
    <glyph glyph-name="uni1ED1" unicode="&#x1ed1;" 
d="M1397 1648h-248v35l218 312h372v-37zM1451 149q-229 -192 -573 -192t-573 192q-236 198 -236 513q0 311 236 510q229 192 573 192q343 0 573 -192q236 -199 236 -510q0 -315 -236 -513zM1086 1061q-83 133 -208 133t-208 -133q-85 -137 -85 -354q0 -287 84 -433
q76 -131 209 -131t209 131q84 146 84 433q0 217 -85 354zM991 1427l-113 168l-111 -168h-258v35l240 312h258l240 -312v-35h-256z" />
    <glyph glyph-name="uni1ED2" unicode="&#x1ed2;" 
d="M1207 1668l-342 310v37h372l217 -312v-35h-247zM1451 149q-229 -192 -573 -192t-573 192q-236 198 -236 513q0 311 236 510q229 192 573 192q343 0 573 -192q236 -199 236 -510q0 -315 -236 -513zM1086 1061q-83 133 -208 133t-208 -133q-85 -137 -85 -354
q0 -287 84 -433q76 -131 209 -131t209 131q84 146 84 433q0 217 -85 354zM991 1427l-113 168l-111 -168h-258v35l240 312h258l240 -312v-35h-256z" />
    <glyph glyph-name="uni1ED3" unicode="&#x1ed3;" 
d="M1207 1668l-342 310v37h372l217 -312v-35h-247zM1451 149q-229 -192 -573 -192t-573 192q-236 198 -236 513q0 311 236 510q229 192 573 192q343 0 573 -192q236 -199 236 -510q0 -315 -236 -513zM1086 1061q-83 133 -208 133t-208 -133q-85 -137 -85 -354
q0 -287 84 -433q76 -131 209 -131t209 131q84 146 84 433q0 217 -85 354zM991 1427l-113 168l-111 -168h-258v35l240 312h258l240 -312v-35h-256z" />
    <glyph glyph-name="uni1ED4" unicode="&#x1ed4;" 
d="M1451 149q-229 -192 -573 -192t-573 192q-236 198 -236 513q0 311 236 510q229 192 573 192q343 0 573 -192q236 -199 236 -510q0 -315 -236 -513zM1086 1061q-83 133 -208 133t-208 -133q-85 -137 -85 -354q0 -287 84 -433q76 -131 209 -131t209 131q84 146 84 433
q0 217 -85 354zM1538 1819q-12 -16 -29 -32q-12 -11 -34 -28l-17 -13q-9 -8 -16 -13q-18 -16 -29 -29q-29 -33 -29 -71h-209q-12 18 -12 73q0 26 19 50q13 16 41 39q2 2 6 5l16 13q12 10 19 18q19 20 19 40q0 46 -53 46q-52 0 -119 -57l-115 90q40 49 115 87q91 47 186 47
q269 0 269 -181q0 -46 -28 -84zM991 1427l-113 168l-111 -168h-258v35l240 312h258l240 -312v-35h-256z" />
    <glyph glyph-name="uni1ED5" unicode="&#x1ed5;" 
d="M1451 149q-229 -192 -573 -192t-573 192q-236 198 -236 513q0 311 236 510q229 192 573 192q343 0 573 -192q236 -199 236 -510q0 -315 -236 -513zM1086 1061q-83 133 -208 133t-208 -133q-85 -137 -85 -354q0 -287 84 -433q76 -131 209 -131t209 131q84 146 84 433
q0 217 -85 354zM1538 1819q-12 -16 -29 -32q-12 -11 -34 -28l-17 -13q-9 -8 -16 -13q-18 -16 -29 -29q-29 -33 -29 -71h-209q-12 18 -12 73q0 26 19 50q13 16 41 39q2 2 6 5l16 13q12 10 19 18q19 20 19 40q0 46 -53 46q-52 0 -119 -57l-115 90q40 49 115 87q91 47 186 47
q269 0 269 -181q0 -46 -28 -84zM991 1427l-113 168l-111 -168h-258v35l240 312h258l240 -312v-35h-256z" />
    <glyph glyph-name="uni1ED6" unicode="&#x1ed6;" 
d="M1361 2138q0 -134 -81 -234q-81 -102 -194 -102q-39 0 -83 19q-29 13 -76 43l-71 42q-38 19 -67 19q-57 0 -57 -113h-199q0 141 81 238q81 98 200 98q38 0 80 -19q30 -13 73 -42l66 -42q34 -20 57 -20q72 0 72 113h199zM1451 149q-229 -192 -573 -192t-573 192
q-236 198 -236 513q0 311 236 510q229 192 573 192q343 0 573 -192q236 -199 236 -510q0 -315 -236 -513zM1086 1061q-83 133 -208 133t-208 -133q-85 -137 -85 -354q0 -287 84 -433q76 -131 209 -131t209 131q84 146 84 433q0 217 -85 354zM991 1427l-113 168l-111 -168
h-258v35l240 312h258l240 -312v-35h-256z" />
    <glyph glyph-name="uni1ED7" unicode="&#x1ed7;" 
d="M1361 2138q0 -134 -81 -234q-81 -102 -194 -102q-39 0 -83 19q-29 13 -76 43l-71 42q-38 19 -67 19q-57 0 -57 -113h-199q0 141 81 238q81 98 200 98q38 0 80 -19q30 -13 73 -42l66 -42q34 -20 57 -20q72 0 72 113h199zM1451 149q-229 -192 -573 -192t-573 192
q-236 198 -236 513q0 311 236 510q229 192 573 192q343 0 573 -192q236 -199 236 -510q0 -315 -236 -513zM1086 1061q-83 133 -208 133t-208 -133q-85 -137 -85 -354q0 -287 84 -433q76 -131 209 -131t209 131q84 146 84 433q0 217 -85 354zM991 1427l-113 168l-111 -168
h-258v35l240 312h258l240 -312v-35h-256z" />
    <glyph glyph-name="uni1ED8" unicode="&#x1ed8;" 
d="M1451 149q-229 -192 -573 -192t-573 192q-236 198 -236 513q0 311 236 510q229 192 573 192q343 0 573 -192q236 -199 236 -510q0 -315 -236 -513zM1086 1061q-83 133 -208 133t-208 -133q-85 -137 -85 -354q0 -287 84 -433q76 -131 209 -131t209 131q84 146 84 433
q0 217 -85 354zM1003 -401q-52 -52 -124 -52q-74 0 -126 52q-52 51 -52 124t52 126q53 53 126 53t125 -53q51 -53 51 -126q0 -72 -52 -124zM991 1427l-113 168l-111 -168h-258v35l240 312h258l240 -312v-35h-256z" />
    <glyph glyph-name="uni1ED9" unicode="&#x1ed9;" 
d="M1451 149q-229 -192 -573 -192t-573 192q-236 198 -236 513q0 311 236 510q229 192 573 192q343 0 573 -192q236 -199 236 -510q0 -315 -236 -513zM1086 1061q-83 133 -208 133t-208 -133q-85 -137 -85 -354q0 -287 84 -433q76 -131 209 -131t209 131q84 146 84 433
q0 217 -85 354zM1003 -401q-52 -52 -124 -52q-74 0 -126 52q-52 51 -52 124t52 126q53 53 126 53t125 -53q51 -53 51 -126q0 -72 -52 -124zM991 1427l-113 168l-111 -168h-258v35l240 312h258l240 -312v-35h-256z" />
    <glyph glyph-name="uni1EDA" unicode="&#x1eda;" 
d="M976 1427h-248v35l218 312h372v-37zM1086 1061q-83 133 -208 133t-208 -133q-85 -137 -85 -354q0 -287 84 -433q76 -131 209 -131t209 131q84 146 84 433q0 217 -85 354zM1534 1090q153 -178 153 -428q0 -315 -236 -513q-229 -192 -573 -192t-573 192q-236 198 -236 513
q0 311 236 510q229 192 573 192q342 0 571 -190q77 56 77 144q0 36 -79 36q-137 0 -137 128q0 67 55 111q53 43 134 43q103 0 164 -78q57 -73 57 -182q0 -110 -87 -205q-43 -47 -99 -81z" />
    <glyph glyph-name="uni1EDB" unicode="&#x1edb;" 
d="M976 1427h-248v35l218 312h372v-37zM1086 1061q-83 133 -208 133t-208 -133q-85 -137 -85 -354q0 -287 84 -433q76 -131 209 -131t209 131q84 146 84 433q0 217 -85 354zM1534 1090q153 -178 153 -428q0 -315 -236 -513q-229 -192 -573 -192t-573 192q-236 198 -236 513
q0 311 236 510q229 192 573 192q342 0 571 -190q77 56 77 144q0 36 -79 36q-137 0 -137 128q0 67 55 111q53 43 134 43q103 0 164 -78q57 -73 57 -182q0 -110 -87 -205q-43 -47 -99 -81z" />
    <glyph glyph-name="uni1EDC" unicode="&#x1edc;" 
d="M780 1427l-342 310v37h372l217 -312v-35h-247zM1086 1061q-83 133 -208 133t-208 -133q-85 -137 -85 -354q0 -287 84 -433q76 -131 209 -131t209 131q84 146 84 433q0 217 -85 354zM1534 1090q153 -178 153 -428q0 -315 -236 -513q-229 -192 -573 -192t-573 192
q-236 198 -236 513q0 311 236 510q229 192 573 192q342 0 571 -190q77 56 77 144q0 36 -79 36q-137 0 -137 128q0 67 55 111q53 43 134 43q103 0 164 -78q57 -73 57 -182q0 -110 -87 -205q-43 -47 -99 -81z" />
    <glyph glyph-name="uni1EDD" unicode="&#x1edd;" 
d="M780 1427l-342 310v37h372l217 -312v-35h-247zM1086 1061q-83 133 -208 133t-208 -133q-85 -137 -85 -354q0 -287 84 -433q76 -131 209 -131t209 131q84 146 84 433q0 217 -85 354zM1534 1090q153 -178 153 -428q0 -315 -236 -513q-229 -192 -573 -192t-573 192
q-236 198 -236 513q0 311 236 510q229 192 573 192q342 0 571 -190q77 56 77 144q0 36 -79 36q-137 0 -137 128q0 67 55 111q53 43 134 43q103 0 164 -78q57 -73 57 -182q0 -110 -87 -205q-43 -47 -99 -81z" />
    <glyph glyph-name="uni1EDE" unicode="&#x1ede;" 
d="M1086 1061q-83 133 -208 133t-208 -133q-85 -137 -85 -354q0 -287 84 -433q76 -131 209 -131t209 131q84 146 84 433q0 217 -85 354zM1127 1596q-12 -16 -29 -32q-12 -11 -34 -28l-17 -13q-9 -8 -16 -13q-18 -16 -29 -29q-29 -33 -29 -71h-209q-12 18 -12 73q0 26 19 50
q13 16 41 39q2 2 6 5l16 13q12 10 19 18q19 20 19 40q0 46 -53 46q-52 0 -119 -57l-115 90q40 49 115 87q91 47 186 47q269 0 269 -181q0 -46 -28 -84zM1534 1090q153 -178 153 -428q0 -315 -236 -513q-229 -192 -573 -192t-573 192q-236 198 -236 513q0 311 236 510
q229 192 573 192q342 0 571 -190q77 56 77 144q0 36 -79 36q-137 0 -137 128q0 67 55 111q53 43 134 43q103 0 164 -78q57 -73 57 -182q0 -110 -87 -205q-43 -47 -99 -81z" />
    <glyph glyph-name="uni1EDF" unicode="&#x1edf;" 
d="M1086 1061q-83 133 -208 133t-208 -133q-85 -137 -85 -354q0 -287 84 -433q76 -131 209 -131t209 131q84 146 84 433q0 217 -85 354zM1127 1596q-12 -16 -29 -32q-12 -11 -34 -28l-17 -13q-9 -8 -16 -13q-18 -16 -29 -29q-29 -33 -29 -71h-209q-12 18 -12 73q0 26 19 50
q13 16 41 39q2 2 6 5l16 13q12 10 19 18q19 20 19 40q0 46 -53 46q-52 0 -119 -57l-115 90q40 49 115 87q91 47 186 47q269 0 269 -181q0 -46 -28 -84zM1534 1090q153 -178 153 -428q0 -315 -236 -513q-229 -192 -573 -192t-573 192q-236 198 -236 513q0 311 236 510
q229 192 573 192q342 0 571 -190q77 56 77 144q0 36 -79 36q-137 0 -137 128q0 67 55 111q53 43 134 43q103 0 164 -78q57 -73 57 -182q0 -110 -87 -205q-43 -47 -99 -81z" />
    <glyph glyph-name="uni1EE0" unicode="&#x1ee0;" 
d="M1292 1753q0 -134 -81 -234q-81 -102 -194 -102q-39 0 -83 19q-29 13 -76 43l-71 42q-38 19 -67 19q-57 0 -57 -113h-199q0 141 81 238q81 98 200 98q38 0 80 -19q30 -13 73 -42l66 -42q34 -20 57 -20q72 0 72 113h199zM1086 1061q-83 133 -208 133t-208 -133
q-85 -137 -85 -354q0 -287 84 -433q76 -131 209 -131t209 131q84 146 84 433q0 217 -85 354zM1534 1090q153 -178 153 -428q0 -315 -236 -513q-229 -192 -573 -192t-573 192q-236 198 -236 513q0 311 236 510q229 192 573 192q342 0 571 -190q77 56 77 144q0 36 -79 36
q-137 0 -137 128q0 67 55 111q53 43 134 43q103 0 164 -78q57 -73 57 -182q0 -110 -87 -205q-43 -47 -99 -81z" />
    <glyph glyph-name="uni1EE1" unicode="&#x1ee1;" 
d="M1292 1753q0 -134 -81 -234q-81 -102 -194 -102q-39 0 -83 19q-29 13 -76 43l-71 42q-38 19 -67 19q-57 0 -57 -113h-199q0 141 81 238q81 98 200 98q38 0 80 -19q30 -13 73 -42l66 -42q34 -20 57 -20q72 0 72 113h199zM1086 1061q-83 133 -208 133t-208 -133
q-85 -137 -85 -354q0 -287 84 -433q76 -131 209 -131t209 131q84 146 84 433q0 217 -85 354zM1534 1090q153 -178 153 -428q0 -315 -236 -513q-229 -192 -573 -192t-573 192q-236 198 -236 513q0 311 236 510q229 192 573 192q342 0 571 -190q77 56 77 144q0 36 -79 36
q-137 0 -137 128q0 67 55 111q53 43 134 43q103 0 164 -78q57 -73 57 -182q0 -110 -87 -205q-43 -47 -99 -81z" />
    <glyph glyph-name="uni1EE2" unicode="&#x1ee2;" 
d="M1086 1061q-83 133 -208 133t-208 -133q-85 -137 -85 -354q0 -287 84 -433q76 -131 209 -131t209 131q84 146 84 433q0 217 -85 354zM1003 -401q-52 -52 -124 -52q-74 0 -126 52q-52 51 -52 124t52 126q53 53 126 53t125 -53q51 -53 51 -126q0 -72 -52 -124zM1534 1090
q153 -178 153 -428q0 -315 -236 -513q-229 -192 -573 -192t-573 192q-236 198 -236 513q0 311 236 510q229 192 573 192q342 0 571 -190q77 56 77 144q0 36 -79 36q-137 0 -137 128q0 67 55 111q53 43 134 43q103 0 164 -78q57 -73 57 -182q0 -110 -87 -205q-43 -47 -99 -81
z" />
    <glyph glyph-name="uni1EE3" unicode="&#x1ee3;" 
d="M1086 1061q-83 133 -208 133t-208 -133q-85 -137 -85 -354q0 -287 84 -433q76 -131 209 -131t209 131q84 146 84 433q0 217 -85 354zM1003 -401q-52 -52 -124 -52q-74 0 -126 52q-52 51 -52 124t52 126q53 53 126 53t125 -53q51 -53 51 -126q0 -72 -52 -124zM1534 1090
q153 -178 153 -428q0 -315 -236 -513q-229 -192 -573 -192t-573 192q-236 198 -236 513q0 311 236 510q229 192 573 192q342 0 571 -190q77 56 77 144q0 36 -79 36q-137 0 -137 128q0 67 55 111q53 43 134 43q103 0 164 -78q57 -73 57 -182q0 -110 -87 -205q-43 -47 -99 -81
z" />
    <glyph glyph-name="uni1EE4" unicode="&#x1ee4;" horiz-adv-x="1779" 
d="M1585 551q0 -288 -200 -452q-190 -156 -503 -156q-310 0 -498 156q-198 163 -198 452v770h479v-827q0 -125 47 -189q53 -74 170 -74q121 0 176 74q48 64 48 189v827h479v-770zM1011 -401q-52 -52 -125 -52q-74 0 -126 52q-52 51 -52 124t52 126q53 53 126 53
q74 0 125 -53q52 -53 52 -126q0 -72 -52 -124z" />
    <glyph glyph-name="uni1EE5" unicode="&#x1ee5;" horiz-adv-x="1779" 
d="M1585 551q0 -288 -200 -452q-190 -156 -503 -156q-310 0 -498 156q-198 163 -198 452v770h479v-827q0 -125 47 -189q53 -74 170 -74q121 0 176 74q48 64 48 189v827h479v-770zM1011 -401q-52 -52 -125 -52q-74 0 -126 52q-52 51 -52 124t52 126q53 53 126 53
q74 0 125 -53q52 -53 52 -126q0 -72 -52 -124z" />
    <glyph glyph-name="uni1EE6" unicode="&#x1ee6;" horiz-adv-x="1779" 
d="M1585 551q0 -288 -200 -452q-190 -156 -503 -156q-310 0 -498 156q-198 163 -198 452v770h479v-827q0 -125 47 -189q53 -74 170 -74q121 0 176 74q48 64 48 189v827h479v-770zM1161 1596q-11 -16 -29 -32q-12 -11 -33 -28l-17 -13q-10 -8 -17 -13q-18 -16 -29 -29
q-29 -33 -29 -71h-209q-11 18 -11 73q0 26 18 50q13 16 42 39l5 5l17 13q11 10 19 18q18 20 18 40q0 46 -53 46q-51 0 -119 -57l-114 90q39 49 114 87q91 47 186 47q270 0 270 -181q0 -46 -29 -84z" />
    <glyph glyph-name="uni1EE7" unicode="&#x1ee7;" horiz-adv-x="1779" 
d="M1585 551q0 -288 -200 -452q-190 -156 -503 -156q-310 0 -498 156q-198 163 -198 452v770h479v-827q0 -125 47 -189q53 -74 170 -74q121 0 176 74q48 64 48 189v827h479v-770zM1161 1596q-11 -16 -29 -32q-12 -11 -33 -28l-17 -13q-10 -8 -17 -13q-18 -16 -29 -29
q-29 -33 -29 -71h-209q-11 18 -11 73q0 26 18 50q13 16 42 39l5 5l17 13q11 10 19 18q18 20 18 40q0 46 -53 46q-51 0 -119 -57l-114 90q39 49 114 87q91 47 186 47q270 0 270 -181q0 -46 -29 -84z" />
    <glyph glyph-name="uni1EE8" unicode="&#x1ee8;" horiz-adv-x="1779" 
d="M987 1427h-248v35l217 312h373v-37zM1585 1048v-497q0 -288 -200 -452q-190 -156 -503 -156q-310 0 -498 156q-198 163 -198 452v770h479v-827q0 -125 47 -189q53 -74 170 -74q121 0 176 74q48 64 48 189v827h479v-148q77 56 77 145q0 36 -80 36q-136 0 -136 128
q0 67 54 111q54 43 134 43q104 0 165 -78q56 -73 56 -182q0 -110 -87 -205q-73 -81 -183 -123z" />
    <glyph glyph-name="uni1EE9" unicode="&#x1ee9;" horiz-adv-x="1779" 
d="M987 1427h-248v35l217 312h373v-37zM1585 1048v-497q0 -288 -200 -452q-190 -156 -503 -156q-310 0 -498 156q-198 163 -198 452v770h479v-827q0 -125 47 -189q53 -74 170 -74q121 0 176 74q48 64 48 189v827h479v-148q77 56 77 145q0 36 -80 36q-136 0 -136 128
q0 67 54 111q54 43 134 43q104 0 165 -78q56 -73 56 -182q0 -110 -87 -205q-73 -81 -183 -123z" />
    <glyph glyph-name="uni1EEA" unicode="&#x1eea;" horiz-adv-x="1779" 
d="M790 1427l-342 310v37h373l217 -312v-35h-248zM1585 1048v-497q0 -288 -200 -452q-190 -156 -503 -156q-310 0 -498 156q-198 163 -198 452v770h479v-827q0 -125 47 -189q53 -74 170 -74q121 0 176 74q48 64 48 189v827h479v-148q77 56 77 145q0 36 -80 36
q-136 0 -136 128q0 67 54 111q54 43 134 43q104 0 165 -78q56 -73 56 -182q0 -110 -87 -205q-73 -81 -183 -123z" />
    <glyph glyph-name="uni1EEB" unicode="&#x1eeb;" horiz-adv-x="1779" 
d="M790 1427l-342 310v37h373l217 -312v-35h-248zM1585 1048v-497q0 -288 -200 -452q-190 -156 -503 -156q-310 0 -498 156q-198 163 -198 452v770h479v-827q0 -125 47 -189q53 -74 170 -74q121 0 176 74q48 64 48 189v827h479v-148q77 56 77 145q0 36 -80 36
q-136 0 -136 128q0 67 54 111q54 43 134 43q104 0 165 -78q56 -73 56 -182q0 -110 -87 -205q-73 -81 -183 -123z" />
    <glyph glyph-name="uni1EEC" unicode="&#x1eec;" horiz-adv-x="1779" 
d="M1161 1596q-11 -16 -29 -32q-12 -11 -33 -28l-17 -13q-10 -8 -17 -13q-18 -16 -29 -29q-29 -33 -29 -71h-209q-11 18 -11 73q0 26 18 50q13 16 42 39l5 5l17 13q11 10 19 18q18 20 18 40q0 46 -53 46q-51 0 -119 -57l-114 90q39 49 114 87q91 47 186 47q270 0 270 -181
q0 -46 -29 -84zM1585 1048v-497q0 -288 -200 -452q-190 -156 -503 -156q-310 0 -498 156q-198 163 -198 452v770h479v-827q0 -125 47 -189q53 -74 170 -74q121 0 176 74q48 64 48 189v827h479v-148q77 56 77 145q0 36 -80 36q-136 0 -136 128q0 67 54 111q54 43 134 43
q104 0 165 -78q56 -73 56 -182q0 -110 -87 -205q-73 -81 -183 -123z" />
    <glyph glyph-name="uni1EED" unicode="&#x1eed;" horiz-adv-x="1779" 
d="M1161 1596q-11 -16 -29 -32q-12 -11 -33 -28l-17 -13q-10 -8 -17 -13q-18 -16 -29 -29q-29 -33 -29 -71h-209q-11 18 -11 73q0 26 18 50q13 16 42 39l5 5l17 13q11 10 19 18q18 20 18 40q0 46 -53 46q-51 0 -119 -57l-114 90q39 49 114 87q91 47 186 47q270 0 270 -181
q0 -46 -29 -84zM1585 1048v-497q0 -288 -200 -452q-190 -156 -503 -156q-310 0 -498 156q-198 163 -198 452v770h479v-827q0 -125 47 -189q53 -74 170 -74q121 0 176 74q48 64 48 189v827h479v-148q77 56 77 145q0 36 -80 36q-136 0 -136 128q0 67 54 111q54 43 134 43
q104 0 165 -78q56 -73 56 -182q0 -110 -87 -205q-73 -81 -183 -123z" />
    <glyph glyph-name="uni1EEE" unicode="&#x1eee;" horiz-adv-x="1779" 
d="M1352 1753q0 -134 -80 -234q-82 -102 -195 -102q-39 0 -83 19q-29 13 -76 43l-70 42q-38 19 -67 19q-58 0 -58 -113h-198q0 141 80 238q81 98 200 98q38 0 81 -19q29 -13 73 -42l65 -42q34 -20 58 -20q71 0 71 113h199zM1585 1048v-497q0 -288 -200 -452
q-190 -156 -503 -156q-310 0 -498 156q-198 163 -198 452v770h479v-827q0 -125 47 -189q53 -74 170 -74q121 0 176 74q48 64 48 189v827h479v-148q77 56 77 145q0 36 -80 36q-136 0 -136 128q0 67 54 111q54 43 134 43q104 0 165 -78q56 -73 56 -182q0 -110 -87 -205
q-73 -81 -183 -123z" />
    <glyph glyph-name="uni1EEF" unicode="&#x1eef;" horiz-adv-x="1779" 
d="M1352 1753q0 -134 -80 -234q-82 -102 -195 -102q-39 0 -83 19q-29 13 -76 43l-70 42q-38 19 -67 19q-58 0 -58 -113h-198q0 141 80 238q81 98 200 98q38 0 81 -19q29 -13 73 -42l65 -42q34 -20 58 -20q71 0 71 113h199zM1585 1048v-497q0 -288 -200 -452
q-190 -156 -503 -156q-310 0 -498 156q-198 163 -198 452v770h479v-827q0 -125 47 -189q53 -74 170 -74q121 0 176 74q48 64 48 189v827h479v-148q77 56 77 145q0 36 -80 36q-136 0 -136 128q0 67 54 111q54 43 134 43q104 0 165 -78q56 -73 56 -182q0 -110 -87 -205
q-73 -81 -183 -123z" />
    <glyph glyph-name="uni1EF0" unicode="&#x1ef0;" horiz-adv-x="1779" 
d="M1011 -401q-52 -52 -125 -52q-74 0 -126 52q-52 51 -52 124t52 126q53 53 126 53q74 0 125 -53q52 -53 52 -126q0 -72 -52 -124zM1585 1048v-497q0 -288 -200 -452q-190 -156 -503 -156q-310 0 -498 156q-198 163 -198 452v770h479v-827q0 -125 47 -189q53 -74 170 -74
q121 0 176 74q48 64 48 189v827h479v-148q77 56 77 145q0 36 -80 36q-136 0 -136 128q0 67 54 111q54 43 134 43q104 0 165 -78q56 -73 56 -182q0 -110 -87 -205q-73 -81 -183 -123z" />
    <glyph glyph-name="uni1EF1" unicode="&#x1ef1;" horiz-adv-x="1779" 
d="M1011 -401q-52 -52 -125 -52q-74 0 -126 52q-52 51 -52 124t52 126q53 53 126 53q74 0 125 -53q52 -53 52 -126q0 -72 -52 -124zM1585 1048v-497q0 -288 -200 -452q-190 -156 -503 -156q-310 0 -498 156q-198 163 -198 452v770h479v-827q0 -125 47 -189q53 -74 170 -74
q121 0 176 74q48 64 48 189v827h479v-148q77 56 77 145q0 36 -80 36q-136 0 -136 128q0 67 54 111q54 43 134 43q104 0 165 -78q56 -73 56 -182q0 -110 -87 -205q-73 -81 -183 -123z" />
    <glyph glyph-name="Ygrave" unicode="&#x1ef2;" horiz-adv-x="1560" 
d="M1028 475v-475h-480v475l-532 828v18h582l303 -551l293 551h346v-18zM790 1427l-342 310v37h372l218 -312v-35h-248z" />
    <glyph glyph-name="ygrave" unicode="&#x1ef3;" horiz-adv-x="1560" 
d="M1028 475v-475h-480v475l-532 828v18h582l303 -551l293 551h346v-18zM790 1427l-342 310v37h372l218 -312v-35h-248z" />
    <glyph glyph-name="uni1EF4" unicode="&#x1ef4;" horiz-adv-x="1560" 
d="M1028 475v-475h-480v475l-532 828v18h582l303 -551l293 551h346v-18zM917 -401q-52 -52 -124 -52q-74 0 -126 52q-53 51 -53 124t53 126q52 53 126 53q73 0 125 -53q51 -53 51 -126q0 -72 -52 -124z" />
    <glyph glyph-name="uni1EF5" unicode="&#x1ef5;" horiz-adv-x="1560" 
d="M1028 475v-475h-480v475l-532 828v18h582l303 -551l293 551h346v-18zM917 -401q-52 -52 -124 -52q-74 0 -126 52q-53 51 -53 124t53 126q52 53 126 53q73 0 125 -53q51 -53 51 -126q0 -72 -52 -124z" />
    <glyph glyph-name="uni1EF6" unicode="&#x1ef6;" horiz-adv-x="1560" 
d="M1028 475v-475h-480v475l-532 828v18h582l303 -551l293 551h346v-18zM1161 1596q-12 -16 -29 -32q-12 -11 -34 -28l-17 -13q-9 -8 -16 -13q-18 -16 -29 -29q-29 -33 -29 -71h-209q-12 18 -12 73q0 26 19 50q12 16 41 39q2 2 6 5l16 13q12 10 19 18q19 20 19 40
q0 46 -53 46q-52 0 -119 -57l-115 90q40 49 115 87q91 47 186 47q269 0 269 -181q0 -46 -28 -84z" />
    <glyph glyph-name="uni1EF7" unicode="&#x1ef7;" horiz-adv-x="1560" 
d="M1028 475v-475h-480v475l-532 828v18h582l303 -551l293 551h346v-18zM1161 1596q-12 -16 -29 -32q-12 -11 -34 -28l-17 -13q-9 -8 -16 -13q-18 -16 -29 -29q-29 -33 -29 -71h-209q-12 18 -12 73q0 26 19 50q12 16 41 39q2 2 6 5l16 13q12 10 19 18q19 20 19 40
q0 46 -53 46q-52 0 -119 -57l-115 90q40 49 115 87q91 47 186 47q269 0 269 -181q0 -46 -28 -84z" />
    <glyph glyph-name="uni1EF8" unicode="&#x1ef8;" horiz-adv-x="1560" 
d="M1028 475v-475h-480v475l-532 828v18h582l303 -551l293 551h346v-18zM1291 1753q0 -134 -80 -234q-82 -102 -194 -102q-39 0 -83 19q-30 13 -76 43l-71 42q-38 19 -67 19q-57 0 -57 -113h-199q0 141 80 238q81 98 200 98q38 0 81 -19q30 -13 73 -42l65 -42q34 -20 58 -20
q72 0 72 113h198z" />
    <glyph glyph-name="uni1EF9" unicode="&#x1ef9;" horiz-adv-x="1560" 
d="M1028 475v-475h-480v475l-532 828v18h582l303 -551l293 551h346v-18zM1291 1753q0 -134 -80 -234q-82 -102 -194 -102q-39 0 -83 19q-30 13 -76 43l-71 42q-38 19 -67 19q-57 0 -57 -113h-199q0 141 80 238q81 98 200 98q38 0 81 -19q30 -13 73 -42l65 -42q34 -20 58 -20
q72 0 72 113h198z" />
    <glyph glyph-name="endash" unicode="&#x2013;" horiz-adv-x="1024" 
d="M-4 553v246h1028v-246h-1028z" />
    <glyph glyph-name="emdash" unicode="&#x2014;" horiz-adv-x="2048" 
d="M-4 553v246h2052v-246h-2052z" />
    <glyph glyph-name="quoteleft" unicode="&#x2018;" horiz-adv-x="685" 
d="M167 1197q106 115 269 167l102 -84v-20q-235 -75 -235 -248q0 -45 98 -45q172 0 172 -162q0 -85 -68 -140q-67 -55 -167 -55q-131 0 -209 100q-72 91 -72 228q0 139 110 259z" />
    <glyph glyph-name="quoteright" unicode="&#x2019;" horiz-adv-x="659" 
d="M463 777q-105 -114 -267 -167l-102 84v21q235 74 235 248q0 45 -100 45q-172 0 -172 161q0 85 69 141q68 54 169 54q130 0 207 -99q71 -92 71 -229q0 -139 -110 -259z" />
    <glyph glyph-name="quotedblleft" unicode="&#x201c;" horiz-adv-x="1191" 
d="M167 1197q106 115 269 167l102 -84v-20q-235 -75 -235 -248q0 -45 98 -45q172 0 172 -162q0 -85 -68 -140q-67 -55 -167 -55q-131 0 -209 100q-72 91 -72 228q0 139 110 259zM741 1197q105 115 266 167l103 -84v-20q-236 -75 -236 -248q0 -45 101 -45q172 0 172 -162
q0 -85 -69 -140q-68 -55 -169 -55q-131 0 -208 100q-71 91 -71 228q0 139 111 259z" />
    <glyph glyph-name="quotedblright" unicode="&#x201d;" horiz-adv-x="1191" 
d="M1036 777q-105 -114 -268 -167l-103 84v21q236 74 236 248q0 45 -99 45q-172 0 -172 161q0 86 68 141q67 54 168 54q131 0 209 -99q72 -92 72 -229q0 -139 -111 -259zM463 777q-105 -114 -267 -167l-102 84v21q235 74 235 248q0 45 -100 45q-172 0 -172 161q0 85 69 141
q68 54 169 54q130 0 207 -99q71 -92 71 -229q0 -139 -110 -259z" />
    <glyph glyph-name="ellipsis" unicode="&#x2026;" horiz-adv-x="2048" 
d="M1883 22q-71 -71 -169 -71q-100 0 -172 71q-72 70 -72 168q0 99 72 171q72 73 172 73q98 0 169 -73q71 -72 71 -171q0 -98 -71 -168zM1195 22q-71 -71 -169 -71q-100 0 -172 71q-72 70 -72 168q0 99 72 171q72 73 172 73q98 0 169 -73q70 -72 70 -171q0 -98 -70 -168z
M509 22q-71 -71 -169 -71q-100 0 -172 71q-72 70 -72 168q0 99 72 171q72 73 172 73q98 0 169 -73q70 -72 70 -171q0 -98 -70 -168z" />
    <glyph glyph-name="minus" unicode="&#x2212;" horiz-adv-x="1206" 
d="M118 586v225h969v-225h-969z" />
    <glyph glyph-name="Eth" horiz-adv-x="1516" 
 />
    <glyph glyph-name="ugrave" horiz-adv-x="582" 
 />
    <glyph glyph-name="uacute" horiz-adv-x="580" 
 />
    <glyph glyph-name="yacute" horiz-adv-x="629" 
 />
    </font>
</defs>
</svg>
